<svg xmlns="http://www.w3.org/2000/svg" xmlns:xlink="http://www.w3.org/1999/xlink" fill="none" version="1.1" width="16" height="16" viewBox="0 0 16 16"><g transform="matrix(-1,0,0,1,32,0)"><g><g transform="matrix(-1,0,0,1,64,0)" style="opacity:0.8999999761581421;"><path d="M32,15.3576C32,15.6621,32.310953,15.8678,32.591253,15.7487L38.90625,13.0645L45.221199999999996,15.7487C45.5015,15.8678,45.8125,15.6621,45.8125,15.3576L45.8125,0L32,0L32,15.3576Z" fill="#000000" fill-opacity="0.07999999821186066"/></g><g transform="matrix(-1,0,0,1,60.1875,0)"><path d="M30.77848,5.08993L33.38339,4.857419999999999L34.40812,2.451844Q34.60047,2.000313731,35.09126,2.000000221446Q35.58205,1.999686702,35.774969999999996,2.450971L36.80369,4.85738L39.40902,5.08993Q39.89815,5.13359,40.04972,5.6006800000000005Q40.20135,6.06777,39.83102,6.39033L37.85814,8.10887L38.44318,10.65977Q38.55294,11.13834,38.15573,11.42698Q37.75852,11.71561,37.33724,11.46339L35.09151,10.11886L32.85085,11.46253Q32.42959,11.71515,32.03212,11.42655Q31.63466,11.13795,31.74446,10.65918L32.32936,8.10887L30.356484000000002,6.39033Q29.986199,6.06778,30.1377765,5.6006800000000005Q30.289354,5.13359,30.77848,5.08993Z" fill-rule="evenodd" fill="#FFFFFF" fill-opacity="1"/><path d="M29.567075,5.4154800000000005Q29.2931,6.25974,29.962385,6.84275L31.66418,8.32516L31.15964,10.52506Q30.961177,11.39042,31.67959,11.91206Q32.39801,12.4337,33.15942,11.9771L35.09176,10.81832L37.02903,11.97818Q37.79048,12.4341,38.508430000000004,11.91236Q39.22638,11.39067,39.02799,10.52564L38.52332,8.32516L40.22515,6.84275Q40.89435,6.25974,40.62045,5.4154800000000005Q40.346450000000004,4.57122,39.46237,4.49231L37.21437,4.291650000000001L36.32667,2.215122Q35.97797,1.3994339999999998,35.09087,1.4Q34.20378,1.4005670000000001,33.85612,2.2167L32.97219,4.291729999999999L30.725136,4.49231Q29.841049,4.57122,29.567075,5.4154800000000005ZM31.74446,10.65918L32.32936,8.10887L30.356484000000002,6.39033Q29.986199,6.06778,30.1377765,5.6006800000000005Q30.289354,5.13359,30.77848,5.08993L33.38339,4.857419999999999L34.40812,2.451844Q34.60047,2.000313731,35.09126,2Q35.58205,1.999686702,35.774969999999996,2.450971L36.80369,4.85738L39.40902,5.08993Q39.89815,5.13359,40.04972,5.6006800000000005Q40.20135,6.06777,39.83102,6.39033L37.85814,8.10887L38.44318,10.65977Q38.55294,11.13834,38.15573,11.42698Q37.75852,11.71561,37.33724,11.46339L35.09151,10.11886L32.85085,11.46253Q32.42959,11.71515,32.03212,11.42655Q31.63466,11.13795,31.74446,10.65918Z" fill-rule="evenodd" fill="#BFBFBF" fill-opacity="1"/></g></g></g></svg>