<svg xmlns="http://www.w3.org/2000/svg" xmlns:xlink="http://www.w3.org/1999/xlink" fill="none" version="1.1" width="14" height="14" viewBox="0 0 14 14"><g><g><path d="M6.47422,7.52422L6.47422,11.8125Q6.47422,11.86421,6.4843,11.91492Q6.49439,11.96564,6.51418,12.01341Q6.53397,12.06118,6.5627,12.10417Q6.59142,12.14717,6.62799,12.18373Q6.66455,12.2203,6.70754,12.249Q6.75054,12.2777,6.79831,12.2975Q6.84608,12.3173,6.89679,12.3274Q6.94751,12.3375,6.99922,12.3375Q7.05092,12.3375,7.10164,12.3274Q7.15235,12.3173,7.20013,12.2975Q7.2479,12.2777,7.29089,12.249Q7.33389,12.2203,7.37045,12.18373Q7.40701,12.14717,7.43574,12.10417Q7.46447,12.06118,7.48425,12.01341Q7.50404,11.96564,7.51413,11.91492Q7.52422,11.86421,7.52422,11.8125L7.52422,7.52422L11.8125,7.52422Q11.86421,7.52422,11.91492,7.51413Q11.96564,7.50404,12.01341,7.48425Q12.06118,7.46447,12.10417,7.43574Q12.14717,7.40701,12.18373,7.37045Q12.2203,7.33388,12.249,7.29089Q12.2777,7.2479,12.2975,7.20013Q12.3173,7.15235,12.3274,7.10164Q12.3375,7.05092,12.3375,6.99922Q12.3375,6.94751,12.3274,6.89679Q12.3173,6.84608,12.2975,6.79831Q12.2777,6.75054,12.249,6.70754Q12.2203,6.66455,12.18373,6.62799Q12.14717,6.59142,12.10417,6.5627Q12.06118,6.53397,12.01341,6.51418Q11.96564,6.49439,11.91492,6.4843Q11.86421,6.47422,11.8125,6.47422L7.52422,6.47422L7.52422,2.1875Q7.52422,2.135792,7.51413,2.085078Q7.50404,2.034363,7.48425,1.986591Q7.46447,1.938819,7.43574,1.895826Q7.40701,1.852832,7.37045,1.8162690000000001Q7.33388,1.779706,7.29089,1.750978Q7.2479,1.722251,7.20013,1.702463Q7.15235,1.6826750000000001,7.10164,1.672588Q7.05092,1.6625,6.99922,1.6625Q6.94751,1.6625,6.89679,1.672588Q6.84608,1.6826750000000001,6.79831,1.702463Q6.75054,1.722251,6.70754,1.750978Q6.66455,1.779706,6.62799,1.8162690000000001Q6.59142,1.852832,6.56269,1.895826Q6.53397,1.938819,6.51418,1.986591Q6.49439,2.034363,6.4843,2.085078Q6.47422,2.135792,6.47422,2.1875L6.47422,6.47422L2.1875,6.47422Q2.135792,6.47422,2.085078,6.4843Q2.034363,6.49439,1.986591,6.51418Q1.938819,6.53397,1.895826,6.5627Q1.852832,6.59142,1.8162690000000001,6.62799Q1.779706,6.66455,1.750978,6.70754Q1.722251,6.75054,1.702463,6.79831Q1.6826750000000001,6.84608,1.672588,6.89679Q1.6625,6.94751,1.6625,6.99922Q1.6625,7.05092,1.672588,7.10164Q1.6826750000000001,7.15235,1.702463,7.20013Q1.722251,7.2479,1.750978,7.29089Q1.779706,7.33389,1.8162690000000001,7.37045Q1.852832,7.40701,1.895826,7.43574Q1.938819,7.46447,1.986591,7.48425Q2.034363,7.50404,2.085078,7.51413Q2.135792,7.52422,2.1875,7.52422L6.47422,7.52422Z" fill-rule="evenodd" fill="#FFFFFF" fill-opacity="1"/></g></g></svg>