<svg xmlns="http://www.w3.org/2000/svg" xmlns:xlink="http://www.w3.org/1999/xlink" fill="none" version="1.1" width="16" height="16" viewBox="0 0 16 16"><defs><clipPath id="master_svg0_801_6879"><rect x="0" y="0" width="16" height="16" rx="0"/></clipPath></defs><g clip-path="url(#master_svg0_801_6879)"><g><path d="M15.15009765625,8.00009765625Q15.15009765625,8.175617656250001,15.14149765625,8.35092765625Q15.13289765625,8.52624765625,15.11569765625,8.700917656249999Q15.09849765625,8.87559765625,15.07269765625,9.04921765625Q15.04699765625,9.22284765625,15.01269765625,9.39499765625Q14.97849765625,9.56714765625,14.93579765625,9.73740765625Q14.89319765625,9.90766765625,14.84219765625,10.07563765625Q14.79129765625,10.24359765625,14.73209765625,10.40885765625Q14.67299765625,10.57411765625,14.60579765625,10.73628765625Q14.53869765625,10.89839765625,14.46359765625,11.05709765625Q14.38859765625,11.21579765625,14.30579765625,11.37059765625Q14.22309765625,11.52539765625,14.13289765625,11.67589765625Q14.04259765625,11.82649765625,13.94509765625,11.97239765625Q13.84759765625,12.11839765625,13.74299765625,12.25929765625Q13.63849765625,12.40029765625,13.52709765625,12.53599765625Q13.41579765625,12.67169765625,13.29789765625,12.80169765625Q13.17999765625,12.93179765625,13.05589765625,13.05589765625Q12.93179765625,13.17999765625,12.80169765625,13.29789765625Q12.67169765625,13.41579765625,12.53599765625,13.52709765625Q12.40029765625,13.63849765625,12.25929765625,13.74299765625Q12.11839765625,13.84759765625,11.97239765625,13.94509765625Q11.82649765625,14.04259765625,11.67589765625,14.13289765625Q11.52539765625,14.22309765625,11.37059765625,14.30579765625Q11.21579765625,14.38859765625,11.05709765625,14.46359765625Q10.89839765625,14.53869765625,10.73628765625,14.60579765625Q10.57411765625,14.67299765625,10.40885765625,14.73209765625Q10.24359765625,14.79129765625,10.07563765625,14.84219765625Q9.90766765625,14.89319765625,9.73740765625,14.93579765625Q9.56714765625,14.97849765625,9.39499765625,15.01269765625Q9.22284765625,15.04699765625,9.04921765625,15.07269765625Q8.87559765625,15.09849765625,8.700917656249999,15.11569765625Q8.52624765625,15.13289765625,8.35092765625,15.14149765625Q8.175617656250001,15.15009765625,8.00009765625,15.15009765625Q7.82457765625,15.15009765625,7.64926765625,15.14149765625Q7.47395765625,15.13289765625,7.29927765625,15.11569765625Q7.12459765625,15.09849765625,6.95097765625,15.07269765625Q6.77734765625,15.04699765625,6.60519765625,15.01269765625Q6.43304765625,14.97849765625,6.26278765625,14.93579765625Q6.09252765625,14.89319765625,5.92455765625,14.84219765625Q5.75659765625,14.79129765625,5.59133765625,14.73209765625Q5.42606765625,14.67299765625,5.26390765625,14.60579765625Q5.10174765625,14.53869765625,4.94307765625,14.46359765625Q4.78440765625,14.38859765625,4.62960765625,14.30579765625Q4.47481765625,14.22309765625,4.3242576562499995,14.13289765625Q4.17370765625,14.04259765625,4.02776765625,13.94509765625Q3.88182765625,13.84759765625,3.74084765625,13.74299765625Q3.59986765625,13.63849765625,3.46418765625,13.52709765625Q3.32850765625,13.41579765625,3.19844765625,13.29789765625Q3.06839765625,13.17999765625,2.94428765625,13.05589765625Q2.8201676562499998,12.93179765625,2.70229765625,12.80169765625Q2.58442765625,12.67169765625,2.47307765625,12.53599765625Q2.3617176562499997,12.40029765625,2.25716765625,12.25929765625Q2.15260765625,12.11839765625,2.05508765625,11.97239765625Q1.95757765625,11.82649765625,1.86733765625,11.67589765625Q1.7771016562500002,11.52539765625,1.69436065625,11.37059765625Q1.61161965625,11.21579765625,1.5365736562499999,11.05709765625Q1.46152865625,10.89839765625,1.39435865625,10.73628765625Q1.32718965625,10.57411765625,1.2680576562499999,10.40885765625Q1.20892565625,10.24359765625,1.15797465625,10.07563765625Q1.10702265625,9.90766765625,1.06437365625,9.73740765625Q1.0217256562500001,9.56714765625,0.98748265625,9.39499765625Q0.95323965625,9.22284765625,0.92748555625,9.04921765625Q0.90173105625,8.87559765625,0.88452685625,8.700917656249999Q0.86732265625,8.52624765625,0.85871014625,8.35092765625Q0.85009765625,8.175617656250001,0.85009765625,8.00009765625Q0.85009765625,7.82457765625,0.85871014625,7.64926765625Q0.86732265625,7.47395765625,0.88452685625,7.29927765625Q0.90173105625,7.12459765625,0.92748555625,6.95097765625Q0.95323965625,6.77734765625,0.98748265625,6.60519765625Q1.0217256562500001,6.43304765625,1.06437365625,6.26278765625Q1.10702265625,6.09252765625,1.15797465625,5.92455765625Q1.20892565625,5.75659765625,1.2680576562499999,5.59133765625Q1.32718965625,5.42606765625,1.39435865625,5.26390765625Q1.46152865625,5.10174765625,1.5365736562499999,4.94307765625Q1.61161965625,4.78440765625,1.69436065625,4.62960765625Q1.7771016562500002,4.47481765625,1.86733765625,4.3242576562499995Q1.95757765625,4.17370765625,2.05508765625,4.02776765625Q2.15260765625,3.88182765625,2.25716765625,3.74084765625Q2.3617176562499997,3.59986765625,2.47307765625,3.46418765625Q2.58442765625,3.32850765625,2.70229765625,3.19844765625Q2.8201676562499998,3.06839765625,2.94428765625,2.94428765625Q3.06839765625,2.8201676562499998,3.19844765625,2.70229765625Q3.32850765625,2.58442765625,3.46418765625,2.47307765625Q3.59986765625,2.3617176562499997,3.74084765625,2.25716765625Q3.88182765625,2.15260765625,4.02776765625,2.05508765625Q4.17370765625,1.95757765625,4.3242576562499995,1.86733765625Q4.47481765625,1.7771016562500002,4.62960765625,1.69436065625Q4.78440765625,1.61161965625,4.94307765625,1.5365736562499999Q5.10174765625,1.46152865625,5.26390765625,1.39435865625Q5.42606765625,1.32718965625,5.59133765625,1.2680576562499999Q5.75659765625,1.20892565625,5.92455765625,1.15797465625Q6.09252765625,1.10702265625,6.26278765625,1.06437365625Q6.43304765625,1.0217256562500001,6.60519765625,0.98748265625Q6.77734765625,0.95323965625,6.95097765625,0.92748555625Q7.12459765625,0.90173105625,7.29927765625,0.88452685625Q7.47395765625,0.86732265625,7.64926765625,0.85871014625Q7.82457765625,0.85009765625,8.00009765625,0.85009765625Q8.175617656250001,0.85009765625,8.35092765625,0.85871014625Q8.52624765625,0.86732265625,8.700917656249999,0.88452685625Q8.87559765625,0.90173105625,9.04921765625,0.92748555625Q9.22284765625,0.95323965625,9.39499765625,0.98748265625Q9.56714765625,1.0217256562500001,9.73740765625,1.06437365625Q9.90766765625,1.10702265625,10.07563765625,1.15797465625Q10.24359765625,1.20892565625,10.40885765625,1.2680576562499999Q10.57411765625,1.32718965625,10.73628765625,1.39435865625Q10.89839765625,1.46152865625,11.05709765625,1.5365736562499999Q11.21579765625,1.61161965625,11.37059765625,1.69436065625Q11.52539765625,1.7771016562500002,11.67589765625,1.86733765625Q11.82649765625,1.95757765625,11.97239765625,2.05508765625Q12.11839765625,2.15260765625,12.25929765625,2.25716765625Q12.40029765625,2.3617176562499997,12.53599765625,2.47307765625Q12.67169765625,2.58442765625,12.80169765625,2.70229765625Q12.93179765625,2.8201676562499998,13.05589765625,2.94428765625Q13.17999765625,3.06839765625,13.29789765625,3.19844765625Q13.41579765625,3.32850765625,13.52709765625,3.46418765625Q13.63849765625,3.59986765625,13.74299765625,3.74084765625Q13.84759765625,3.88182765625,13.94509765625,4.02776765625Q14.04259765625,4.17370765625,14.13289765625,4.3242576562499995Q14.22309765625,4.47481765625,14.30579765625,4.62960765625Q14.38859765625,4.78440765625,14.46359765625,4.94307765625Q14.53869765625,5.10174765625,14.60579765625,5.26390765625Q14.67299765625,5.42606765625,14.73209765625,5.59133765625Q14.79129765625,5.75659765625,14.84219765625,5.92455765625Q14.89319765625,6.09252765625,14.93579765625,6.26278765625Q14.97849765625,6.43304765625,15.01269765625,6.60519765625Q15.04699765625,6.77734765625,15.07269765625,6.95097765625Q15.09849765625,7.12459765625,15.11569765625,7.29927765625Q15.13289765625,7.47395765625,15.14149765625,7.64926765625Q15.15009765625,7.82457765625,15.15009765625,8.00009765625Z" fill="#1D74F5" fill-opacity="1"/></g><g><path d="M8.59756,5L8.59756,7.39756L11,7.39756Q11.059090000000001,7.39756,11.117049999999999,7.40909Q11.17501,7.4206199999999995,11.229610000000001,7.44323Q11.2842,7.46585,11.33334,7.49868Q11.382480000000001,7.53151,11.42426,7.57329Q11.46605,7.61508,11.49888,7.66422Q11.53171,7.71335,11.55433,7.76795Q11.57694,7.82255,11.588470000000001,7.8805Q11.6,7.93846,11.6,7.99756Q11.6,8.05665,11.588470000000001,8.114609999999999Q11.57694,8.17257,11.55433,8.227170000000001Q11.53171,8.28176,11.49888,8.3309Q11.46605,8.380040000000001,11.42426,8.42182Q11.382480000000001,8.46361,11.33334,8.49644Q11.28421,8.52927,11.229610000000001,8.55189Q11.17501,8.5745,11.117049999999999,8.586030000000001Q11.059090000000001,8.59756,11,8.59756L8.59756,8.59756L8.59756,11Q8.59756,11.059090000000001,8.586030000000001,11.117049999999999Q8.5745,11.17501,8.55189,11.229610000000001Q8.52927,11.2842,8.49644,11.33334Q8.46361,11.382480000000001,8.42182,11.42426Q8.380040000000001,11.46605,8.3309,11.49888Q8.28176,11.53171,8.227170000000001,11.55433Q8.17257,11.57694,8.114609999999999,11.588470000000001Q8.05665,11.6,7.99756,11.6Q7.93846,11.6,7.8805,11.588470000000001Q7.82255,11.57694,7.76795,11.55433Q7.71335,11.53171,7.66422,11.49888Q7.61508,11.46605,7.57329,11.42426Q7.53151,11.382480000000001,7.49868,11.33334Q7.46585,11.28421,7.44323,11.229610000000001Q7.4206199999999995,11.17501,7.40909,11.117049999999999Q7.39756,11.059090000000001,7.39756,11L7.39756,8.59756L5,8.59756Q4.9409051999999996,8.59756,4.882946,8.586030000000001Q4.824986,8.5745,4.77039,8.55189Q4.715793,8.52927,4.666658,8.49644Q4.617522,8.46361,4.575736,8.42182Q4.53395,8.380040000000001,4.501118,8.3309Q4.468287,8.28176,4.445672,8.227170000000001Q4.423058,8.17257,4.411529,8.114609999999999Q4.4,8.05665,4.4,7.99756Q4.4,7.93846,4.411529,7.8805Q4.423058,7.82255,4.445672,7.76795Q4.468287,7.71335,4.501118,7.66422Q4.53395,7.61508,4.575736,7.57329Q4.617522,7.53151,4.666658,7.49868Q4.715793,7.46585,4.77039,7.44323Q4.824986,7.4206199999999995,4.882946,7.40909Q4.9409051999999996,7.39756,5,7.39756L7.39756,7.39756L7.39756,5Q7.39756,4.9409051999999996,7.40909,4.882946Q7.4206199999999995,4.824986,7.44323,4.77039Q7.46585,4.715793,7.49868,4.666658Q7.53151,4.617522,7.57329,4.575736Q7.61508,4.53395,7.66422,4.501118Q7.71335,4.468287,7.76795,4.445672Q7.82255,4.423058,7.8805,4.411529Q7.93846,4.4,7.99756,4.4Q8.05665,4.4,8.114609999999999,4.411529Q8.17257,4.423058,8.227170000000001,4.445672Q8.28176,4.468287,8.3309,4.501118Q8.380040000000001,4.53395,8.42182,4.575736Q8.46361,4.617522,8.49644,4.666658Q8.52927,4.715793,8.55189,4.77039Q8.5745,4.824986,8.586030000000001,4.882946Q8.59756,4.9409051999999996,8.59756,5Z" fill-rule="evenodd" fill="#FFFFFF" fill-opacity="1"/></g></g></svg>