<svg xmlns="http://www.w3.org/2000/svg" xmlns:xlink="http://www.w3.org/1999/xlink" fill="none" version="1.1" width="16" height="16" viewBox="0 0 16 16"><g><g><path d="M7.24998,8.75001L7.24998,13.5Q7.24998,13.5739,7.26439,13.6463Q7.2788,13.7188,7.30707,13.787Q7.33534,13.8553,7.37637,13.9167Q7.41741,13.9781,7.46965,14.0303Q7.52188,14.0826,7.5833,14.1236Q7.64472,14.1646,7.71296,14.1929Q7.78121,14.2212,7.85366,14.2356Q7.92611,14.25,7.99998,14.25Q8.07385,14.25,8.1463,14.2356Q8.21874,14.2212,8.28699,14.1929Q8.35524,14.1646,8.41665,14.1236Q8.478069999999999,14.0826,8.53031,14.0303Q8.58254,13.9781,8.62358,13.9167Q8.66462,13.8553,8.69289,13.787Q8.72115,13.7188,8.73557,13.6463Q8.74998,13.5739,8.74998,13.5L8.74998,8.75001L13.5,8.75001Q13.5739,8.75001,13.6463,8.73559Q13.7188,8.72118,13.787,8.692910000000001Q13.8553,8.66465,13.9167,8.62361Q13.9781,8.58257,14.0303,8.530339999999999Q14.0826,8.478100000000001,14.1236,8.41668Q14.1646,8.355260000000001,14.1929,8.28702Q14.2212,8.21877,14.2356,8.14632Q14.25,8.07387,14.25,8.00001Q14.25,7.92614,14.2356,7.85369Q14.2212,7.78124,14.1929,7.71299Q14.1646,7.64475,14.1236,7.58333Q14.0826,7.52191,14.0303,7.46968Q13.9781,7.41744,13.9167,7.3764Q13.8553,7.33536,13.787,7.3071Q13.7188,7.27883,13.6463,7.26442Q13.5739,7.25001,13.5,7.25001L8.74998,7.25001L8.74998,2.5Q8.74998,2.4261315,8.73557,2.353682Q8.72115,2.281233,8.69289,2.212987Q8.66462,2.144742,8.62358,2.083322Q8.58254,2.021903,8.53031,1.96967Q8.478069999999999,1.917437,8.41665,1.876398Q8.35524,1.835359,8.28699,1.80709Q8.21874,1.778822,8.14629,1.764411Q8.07385,1.75,7.99998,1.75Q7.92611,1.75,7.85366,1.764411Q7.78121,1.778822,7.71296,1.80709Q7.64472,1.835359,7.5833,1.876398Q7.52188,1.917437,7.46965,1.96967Q7.41741,2.021903,7.37637,2.083322Q7.33534,2.144742,7.30707,2.212987Q7.2788,2.281233,7.26439,2.353682Q7.24998,2.4261315,7.24998,2.5L7.24998,7.25001L2.5,7.25001Q2.4261315,7.25001,2.353682,7.26442Q2.281233,7.27883,2.212987,7.3071Q2.144742,7.33536,2.083322,7.3764Q2.021903,7.41744,1.96967,7.46968Q1.917437,7.52191,1.876398,7.58333Q1.835359,7.64475,1.80709,7.71299Q1.778822,7.78124,1.764411,7.85369Q1.75,7.92614,1.75,8.00001Q1.75,8.07387,1.764411,8.14632Q1.778822,8.21877,1.80709,8.28702Q1.835359,8.355260000000001,1.876398,8.41668Q1.917437,8.478100000000001,1.96967,8.530339999999999Q2.021903,8.58257,2.083322,8.62361Q2.144742,8.66465,2.212987,8.692910000000001Q2.281233,8.72118,2.353682,8.73559Q2.4261315,8.75001,2.5,8.75001L7.24998,8.75001Z" fill-rule="evenodd" fill="#333333" fill-opacity="1"/></g></g></svg>