<svg xmlns="http://www.w3.org/2000/svg" xmlns:xlink="http://www.w3.org/1999/xlink" fill="none" version="1.1" width="16" height="16" viewBox="0 0 16 16"><defs><clipPath id="master_svg0_1113_3580"><rect x="0" y="0" width="16" height="16" rx="0"/></clipPath></defs><g clip-path="url(#master_svg0_1113_3580)"><g><path d="M11.575740095367431,12.424260095367432L8.000010095367433,8.848540095367433L4.424260095367432,12.42428009536743C4.311743095367431,12.53680009536743,4.1591300953674315,12.600020095367432,4.000000095367431,12.600020095367432C3.8408700953674315,12.600020095367432,3.6882580953674315,12.53680009536743,3.5757370953674315,12.42428009536743C3.4632150953674317,12.31176009536743,3.400000929832432,12.159150095367432,3.400000929832432,12.000020095367432C3.400000929832432,11.840890095367431,3.4632150953674317,11.688270095367432,3.5757370953674315,11.575750095367432L3.5757370953674315,11.575750095367432L7.151480095367432,8.000010095367433L3.5758320953674314,4.424360095367431C3.463214195367432,4.311742095367432,3.4000000953674316,4.1591300953674315,3.4000000953674316,4.000000095367431C3.4000000953674316,3.8408700953674315,3.463214195367432,3.6882580953674315,3.5757360953674318,3.5757360953674318C3.6882580953674315,3.463214195367432,3.8408700953674315,3.4000000953674316,4.000000095367431,3.4000000953674316C4.1591300953674315,3.4000000953674316,4.311742095367432,3.463214195367432,4.424260095367432,3.5757360953674318L8.000010095367433,7.151480095367432L11.575580095367432,3.5759090953674315C11.687450095367431,3.464044495367432,11.838700095367432,3.400900423367432,11.99668009536743,3.4000266790674316L12.000000095367431,3.4000175595674316C12.156440095367431,3.4000175595674316,12.306690095367431,3.4611185953674317,12.418740095367431,3.5702980953674315C12.418740095367431,3.5702980953674315,12.424260095367432,3.5757530953674315,12.424260095367432,3.5757530953674315C12.536790095367431,3.6882750953674317,12.600000095367431,3.840888095367432,12.600000095367431,4.000017095367432C12.600000095367431,4.159147095367432,12.536790095367431,4.311760095367432,12.424260095367432,4.424280095367432L12.424260095367432,4.424280095367432L8.848540095367433,8.000010095367433L12.424260095367432,11.575740095367431C12.536790095367431,11.688260095367431,12.600000095367431,11.840870095367432,12.600000095367431,12.000000095367431C12.600000095367431,12.159130095367432,12.536780095367432,12.311740095367432,12.424260095367432,12.424260095367432C12.311740095367432,12.536780095367432,12.159130095367432,12.600000095367431,12.000000095367431,12.600000095367431C11.840870095367432,12.600000095367431,11.688260095367431,12.536790095367431,11.575740095367431,12.424260095367432Z" fill-rule="evenodd" fill="#333333" fill-opacity="1"/></g></g></svg>