<svg xmlns="http://www.w3.org/2000/svg" xmlns:xlink="http://www.w3.org/1999/xlink" fill="none" version="1.1" width="16" height="16" viewBox="0 0 16 16"><g><g><path d="M6.90214921875,0.647216796875Q9.49272921875,0.647216677666,11.32454921875,2.479026796875Q13.15634921875,4.3108467968749995,13.15634921875,6.901416796875Q13.15634921875,9.084116796875,11.85594921875,10.728116796875L14.92824921875,13.800516796875C15.06894921875,13.941116796875,15.14794921875,14.131916796875,15.14794921875,14.330816796875C15.14794921875,14.529716796875,15.06894921875,14.720516796875,14.92824921875,14.861116796875C14.78764921875,15.001816796875,14.59684921875,15.080816796875,14.39794921875,15.080816796875C14.19904921875,15.080816796875,14.00824921875,15.001816796875,13.86764921875,14.861116796875L10.80254921875,11.796116796875Q9.13392921875,13.155616796875,6.90214921875,13.155616796875Q4.3115792187499995,13.155616796875,2.47975921875,11.323816796875Q0.647949576378,9.491996796875,0.64794921875,6.901416796875Q0.64794921875,4.3108467968749995,2.47975921875,2.479026796875Q4.3115792187499995,0.647216320038,6.90214921875,0.647216796875ZM6.90214921875,2.147216796875Q4.93289921875,2.147216796875,3.54041921875,3.539686796875Q2.14794921875,4.932166796875,2.14794921875,6.901416796875Q2.14794921875,8.870676796875,3.54041921875,10.263146796875Q4.93289921875,11.655616796875,6.90214921875,11.655616796875Q8.87140921875,11.655616796875,10.26387921875,10.263146796875Q11.65634921875,8.870676796875,11.65634921875,6.901416796875Q11.65634921875,4.932166796875,10.26387921875,3.539686796875Q8.87140921875,2.147216796875,6.90214921875,2.147216796875ZM7.65185921875,4.705806796875L7.65185921875,6.151126796875L9.10106921875,6.151126796875C9.51528921875,6.151126796875,9.85106921875,6.486906796875,9.85106921875,6.901126796875C9.85106921875,7.315336796875,9.51528921875,7.651126796875,9.10106921875,7.651126796875L7.65185921875,7.651126796875L7.65185921875,9.104246796875C7.65185921875,9.518456796875,7.31606921875,9.854246796875,6.90185921875,9.854246796875C6.48763921875,9.854246796875,6.15185921875,9.518456796875,6.15185921875,9.104246796875L6.15185921875,7.651126796875L4.70263921875,7.651126796875C4.2884192187500005,7.651126796875,3.95263921875,7.315336796875,3.95263921875,6.901126796875C3.95263921875,6.486906796875,4.2884192187500005,6.151126796875,4.70263921875,6.151126796875L6.15185921875,6.151126796875L6.15185921875,4.705806796875C6.15185921875,4.291596796875,6.48763921875,3.955806796875,6.90185921875,3.955806796875C7.31606921875,3.955806796875,7.65185921875,4.291596796875,7.65185921875,4.705806796875Z" fill-rule="evenodd" fill="#666666" fill-opacity="1"/></g></g></svg>