<svg xmlns="http://www.w3.org/2000/svg" xmlns:xlink="http://www.w3.org/1999/xlink" fill="none" version="1.1" width="16" height="16" viewBox="0 0 16 16"><g><g><g><g transform="matrix(-1,0,0,1,19.5703125,0)"><path d="M8.79497725,7.999941875L12.78833625,12.633201875Q12.88573625,12.746201875,13.01896625,12.813331875Q13.15218625,12.880461875,13.30096625,12.891501875Q13.32866625,12.893551875,13.35644625,12.893551875Q13.36486625,12.893551875,13.37329625,12.893361875Q13.50372625,12.890431875,13.62549625,12.843631875Q13.74727625,12.796831875,13.84609625,12.711661875Q13.97006625,12.604811875,14.03825625,12.456021875Q14.106446250000001,12.307221875,14.106446250000001,12.143551875Q14.106446250000001,12.132521875,14.10611625,12.121491875Q14.10232625,11.992431875,14.055586250000001,11.872071875Q14.008846250000001,11.751711875,13.92455625,11.653911875L13.92433625,11.653651875000001L10.77533525,8.000061875L13.92415625,4.347529875L13.92449625,4.347134875Q14.01252625,4.245017875,14.059486249999999,4.118633875Q14.106446250000001,3.992248875,14.106446250000001,3.85742378339Q14.106446250000001,3.829687375,14.10439625,3.802028575Q14.09337625,3.653251875,14.026266249999999,3.520016875Q13.95914625,3.386780875,13.84615625,3.289370875Q13.74403625,3.201336875,13.61765625,3.154378875Q13.49127625,3.107421875,13.35644625,3.107421875L13.35517625,3.107422875Q13.32807625,3.107468875,13.30105625,3.1094698750000003Q13.15227625,3.120488875,13.01903625,3.187602875Q12.88580625,3.2547168749999997,12.78839625,3.367708875L12.78836625,3.367738875L8.79497725,7.999941875Z" fill-rule="evenodd" fill="#666666" fill-opacity="1"/></g></g></g></g></svg>