<svg xmlns="http://www.w3.org/2000/svg" xmlns:xlink="http://www.w3.org/1999/xlink" fill="none" version="1.1" width="20" height="20" viewBox="0 0 20 20"><defs><clipPath id="master_svg0_98_0249"><rect x="20" y="0" width="20" height="20" rx="0"/></clipPath></defs><g transform="matrix(0,1,-1,0,20,-20)" clip-path="url(#master_svg0_98_0249)"><g transform="matrix(-0.7071067690849304,-0.7071067690849304,0.7071067690849304,-0.7071067690849304,39.09146177945513,44.441846985559096)"><path d="M29.49993896484375,14.12511590453125L29.49993896484375,19.20815689453125L34.58327896484375,19.20819689453125Q34.65714896484375,19.20819689453125,34.72959896484375,19.22261689453125Q34.80203896484375,19.23702689453125,34.87028896484375,19.26528689453125Q34.93852896484375,19.29355689453125,34.99994896484375,19.334596894531252Q35.06136896484375,19.37563689453125,35.11360896484375,19.42786689453125Q35.16583896484375,19.48010689453125,35.20687896484375,19.541526894531252Q35.24790896484375,19.60294689453125,35.27617896484375,19.67118689453125Q35.30444896484375,19.739436894531252,35.31885896484375,19.81188689453125Q35.333268964843754,19.884336894531252,35.333268964843754,19.95819689453125Q35.333268964843754,20.03206689453125,35.31885896484375,20.10451689453125Q35.30444896484375,20.17696689453125,35.27617896484375,20.24521689453125Q35.24790896484375,20.31345689453125,35.20687896484375,20.37487689453125Q35.16583896484375,20.43629689453125,35.11359896484375,20.48852689453125Q35.06136896484375,20.54076689453125,34.99994896484375,20.58180689453125Q34.93852896484375,20.62284689453125,34.87028896484375,20.65110689453125Q34.80203896484375,20.679376894531252,34.72958896484375,20.69378689453125Q34.65713896484375,20.70819689453125,34.583268964843754,20.70819689453125L28.74993240492375,20.70814689453125Q28.67606426484375,20.70814689453125,28.60361596484375,20.69373689453125Q28.53116696484375,20.67932689453125,28.46292196484375,20.65105689453125Q28.39467696484375,20.62278689453125,28.33325796484375,20.58174689453125Q28.27183896484375,20.54070689453125,28.21960696484375,20.48847689453125Q28.16737396484375,20.43624689453125,28.12633596484375,20.37482689453125Q28.08529696484375,20.313406894531248,28.05702896484375,20.24515689453125Q28.02876096484375,20.17691689453125,28.01434996484375,20.10446689453125Q27.99993896484375,20.03201689453125,27.99993896484375,19.95814689453125L27.99993896484375,14.12481689453125Q27.99993896484375,14.05094839453125,28.01434996484375,13.97849889453125Q28.02876096484375,13.90604989453125,28.05702896484375,13.83780389453125Q28.08529796484375,13.76955889453125,28.126336964843752,13.70813889453125Q28.16737596484375,13.64671989453125,28.21960896484375,13.59448689453125Q28.271841964843752,13.54225389453125,28.33326096484375,13.50121489453125Q28.39468096484375,13.46017589453125,28.46292596484375,13.43190689453125Q28.53117196484375,13.40363889453125,28.60362096484375,13.389227894531249Q28.67607046484375,13.37481689453125,28.74993896484375,13.37481689453125Q28.82380746484375,13.37481689453125,28.89625696484375,13.389227894531249Q28.96870596484375,13.40363889453125,29.03695196484375,13.43190689453125Q29.10519696484375,13.46017589453125,29.16661696484375,13.50121489453125Q29.228035964843748,13.54225389453125,29.28026896484375,13.59448689453125Q29.33250196484375,13.64671989453125,29.373540964843748,13.70813889453125Q29.41457996484375,13.76955889453125,29.44284896484375,13.83780389453125Q29.47111696484375,13.90604989453125,29.48552796484375,13.97849889453125Q29.49993896484375,14.05094839453125,29.49993896484375,14.12481689453125L29.49993896484375,14.12511590453125Z" fill-rule="evenodd" fill="#333333" fill-opacity="1"/></g></g></svg>