<svg xmlns="http://www.w3.org/2000/svg" xmlns:xlink="http://www.w3.org/1999/xlink" fill="none" version="1.1" width="16" height="16" viewBox="0 0 16 16"><g transform="matrix(-1,0,0,1,32,0)"><g><g><g transform="matrix(-1,0,0,1,51.5712890625,0)"><path d="M24.79546553125,7.999941875L28.78882453125,12.633201875Q28.88622453125,12.746201875,29.01945453125,12.813331875Q29.15267453125,12.880461875,29.301454531250002,12.891501875Q29.32915453125,12.893551875,29.35693453125,12.893551875Q29.36535453125,12.893551875,29.37378453125,12.893361875Q29.50421453125,12.890431875,29.62598453125,12.843631875Q29.74776453125,12.796831875,29.846584531250002,12.711661875Q29.970554531250002,12.604811875,30.03874453125,12.456021875Q30.10693453125,12.307221875,30.10693453125,12.143551875Q30.10693453125,12.132521875,30.10660453125,12.121491875Q30.10281453125,11.992431875,30.05607453125,11.872071875Q30.00933453125,11.751711875,29.925044531250002,11.653911875L29.92482453125,11.653651875000001L26.77582353125,8.000061875L29.92464453125,4.347529875L29.92498453125,4.347134875Q30.01301453125,4.245017875,30.05997453125,4.118633875Q30.10693453125,3.992248875,30.10693453125,3.85742378339Q30.10693453125,3.829687375,30.10488453125,3.802028575Q30.09386453125,3.653251875,30.02675453125,3.520016875Q29.95963453125,3.386780875,29.84664453125,3.289370875Q29.74452453125,3.201336875,29.61814453125,3.154378875Q29.49176453125,3.107421875,29.35693453125,3.107421875L29.35566453125,3.107422875Q29.32856453125,3.107468875,29.30154453125,3.1094698750000003Q29.15276453125,3.120488875,29.01952453125,3.187602875Q28.88629453125,3.2547168749999997,28.788884531249998,3.367708875L28.78885453125,3.367738875L24.79546553125,7.999941875Z" fill-rule="evenodd" fill="#666666" fill-opacity="1"/></g></g></g></g></svg>