<svg xmlns="http://www.w3.org/2000/svg" xmlns:xlink="http://www.w3.org/1999/xlink" fill="none" version="1.1" width="24" height="24" viewBox="0 0 24 24"><g><g><g><path d="M6.39296875,8.299609375C7.00047875,8.299609375,7.49296875,7.807119375,7.49296875,7.199609375C7.49296875,6.592096375,7.00047875,6.099609375,6.39296875,6.099609375C5.78545575,6.099609375,5.29296875,6.592096375,5.29296875,7.199609375C5.29296875,7.807119375,5.78545575,8.299609375,6.39296875,8.299609375ZM9.95702875,6.449585375L17.957068749999998,6.449585375C18.37126875,6.449585375,18.707068749999998,6.785371375,18.707068749999998,7.199589375C18.707068749999998,7.613799375,18.37126875,7.949589375,17.957068749999998,7.949589375L9.95702875,7.949589375C9.54281875,7.949589375,9.20702875,7.613799375,9.20702875,7.199589375C9.20702875,6.785371375,9.54281875,6.449585375,9.95702875,6.449585375ZM6.39296875,13.099599375C7.00047875,13.099599375,7.49296875,12.607109375,7.49296875,11.999599374999999C7.49296875,11.392079375,7.00047875,10.899599375000001,6.39296875,10.899599375000001C5.78545575,10.899599375000001,5.29296875,11.392079375,5.29296875,11.999599374999999C5.29296875,12.607109375,5.78545575,13.099599375,6.39296875,13.099599375ZM9.95702875,11.249629375L17.957068749999998,11.249629375C18.37126875,11.249629375,18.707068749999998,11.585419375,18.707068749999998,11.999629375C18.707068749999998,12.413849375,18.37126875,12.749629375,17.957068749999998,12.749629375L9.95702875,12.749629375C9.54281875,12.749629375,9.20702875,12.413849375,9.20702875,11.999629375C9.20702875,11.585419375,9.54281875,11.249629375,9.95702875,11.249629375ZM6.39296875,17.899609375C7.00047875,17.899609375,7.49296875,17.407109374999997,7.49296875,16.799609375C7.49296875,16.192109375,7.00047875,15.699589375,6.39296875,15.699589375C5.78545575,15.699589375,5.29296875,16.192109375,5.29296875,16.799609375C5.29296875,17.407109374999997,5.78545575,17.899609375,6.39296875,17.899609375ZM9.95702875,16.049559375L17.957068749999998,16.049559375C18.37126875,16.049559375,18.707068749999998,16.385309375,18.707068749999998,16.799609375C18.707068749999998,17.213809375,18.37126875,17.549609375,17.957068749999998,17.549609375L9.95702875,17.549609375C9.54281875,17.549609375,9.20702875,17.213809375,9.20702875,16.799609375C9.20702875,16.385309375,9.54281875,16.049559375,9.95702875,16.049559375Z" fill-rule="evenodd" fill="#333333" fill-opacity="1"/></g></g></g></svg>