<svg xmlns="http://www.w3.org/2000/svg" xmlns:xlink="http://www.w3.org/1999/xlink" fill="none" version="1.1" width="16" height="16" viewBox="0 0 16 16"><defs><clipPath id="master_svg0_817_2830"><rect x="0" y="0" width="16" height="16" rx="0"/></clipPath></defs><g clip-path="url(#master_svg0_817_2830)"><g><path d="M12.8371609375,3.46498779296875L10.7049609375,3.46498779296875L10.6980209375,3.4650277929687503Q10.6539809375,3.46553779296875,10.6403009375,3.42366479296875L10.4612709375,2.91177779296875Q10.3014109375,2.42984356296875,9.8816509375,2.12718079296875Q9.461900937500001,1.82451779296875,8.944410937499999,1.82498879296875L7.0549609375,1.82498779296875Q6.5380209375,1.82451879296875,6.1182609375,2.12718079296875Q5.6985109375,2.42984352296875,5.5355009375,2.92098879296875L5.3636409375,3.41177779296875Q5.3459409375,3.46553779296875,5.3019009375,3.4650277929687503L3.1649609375,3.46498779296875Q2.3633399375,3.46797779296875,1.7991485375,4.03429779296875Q1.2349609375,4.60059779296875,1.2349609375,5.39998779296875L1.2349609375,11.59998779296875Q1.2349549375,12.39936779296875,1.7991447375,12.96568779296875Q2.3633339375,13.53198779296875,3.1627109375,13.53498779296875L12.8349609375,13.53498779296875Q13.6365609375,13.53198779296875,14.2007609375,12.96568779296875Q14.7649609375,12.39937779296875,14.7649609375,11.59998779296875L14.7649609375,5.39998779296875Q14.7649609375,4.60060779296875,14.2007609375,4.03429779296875Q13.6365609375,3.46798779296875,12.8371609375,3.46498779296875ZM9.9634409375,4.42924779296875Q10.2974409375,4.66856779296875,10.7079209375,4.66498779296875L12.8327609375,4.66498779296875Q13.1363609375,4.66611779296875,13.3506609375,4.88122779296875Q13.5649609375,5.09633779296875,13.5649609375,5.39998779296875L13.5649609375,11.59998779296875Q13.5649609375,11.90363779296875,13.3506609375,12.11874779296875Q13.1363609375,12.33385779296875,12.8349609375,12.33498779296875L3.1672109375,12.33499779296875Q2.8635709375,12.33385779296875,2.6492639374999998,12.11874779296875Q2.4349589375000003,11.90363779296875,2.4349609375,11.59998779296875L2.4349609375,5.39998779296875Q2.4349609375,5.09633779296875,2.6492669375,4.88122779296875Q2.8635709375,4.66611779296875,3.1649609375,4.66498779296875L5.2880209375,4.66494779296875Q5.7008709374999995,4.669717792968751,6.0364809375,4.42924779296875Q6.3720809375,4.18876779296875,6.4962709375,3.80819779296875L6.6744209375,3.29898779296875Q6.7654409375,3.02472579296875,7.0549609375,3.02498879296875L8.9455109375,3.02498779296875Q9.234480937499999,3.02472579296875,9.328640937500001,3.30819879296875L9.4996209375,3.79630779296875Q9.6278409375,4.18876779296875,9.9634409375,4.42924779296875ZM10.1920309375,6.30796779296875Q9.2840609375,5.39999779296875,8.000000937500001,5.39999779296875Q6.7159409375,5.39999779296875,5.8079709375,6.30796779296875Q4.9000009375,7.21593779296875,4.9000009375,8.499997792968749Q4.9000009375,9.784067792968749,5.8079709375,10.69202779296875Q6.7159409375,11.59999779296875,8.000000937500001,11.59999779296875Q9.2840609375,11.59999779296875,10.1920309375,10.69202779296875Q11.1000009375,9.78405779296875,11.1000009375,8.499997792968749Q11.1000009375,7.21593779296875,10.1920309375,6.30796779296875ZM6.6565009375,7.15649779296875Q7.2129909375,6.59999779296875,8.000000937500001,6.59999779296875Q8.7870109375,6.59999779296875,9.3435009375,7.15649779296875Q9.9000009375,7.71299779296875,9.9000009375,8.499997792968749Q9.9000009375,9.287007792968751,9.3435009375,9.843507792968751Q8.7870109375,10.399997792968751,8.000000937500001,10.399997792968751Q7.2129909375,10.399997792968751,6.6565009375,9.843507792968751Q6.1000009375,9.287007792968751,6.1000009375,8.499997792968749Q6.1000009375,7.71299779296875,6.6565009375,7.15649779296875Z" fill-rule="evenodd" fill="#333333" fill-opacity="1"/></g><g><ellipse cx="11.947265625" cy="6.25" rx="0.75" ry="0.75" fill="#333333" fill-opacity="1"/></g></g></svg>