<svg xmlns="http://www.w3.org/2000/svg" xmlns:xlink="http://www.w3.org/1999/xlink" fill="none" version="1.1" width="14" height="14" viewBox="0 0 14 14"><defs><clipPath id="master_svg0_913_4858"><rect x="0" y="0" width="14" height="14" rx="7"/></clipPath></defs><g clip-path="url(#master_svg0_913_4858)"><rect x="0" y="0" width="14" height="14" rx="7" fill="#1D74F5" fill-opacity="1"/><g><path d="M10.57695765625,5.306172484375L10.57706765625,5.306059484375Q10.660217656250001,5.221840484375,10.70515765625,5.112356484375Q10.75009765625,5.002872484375,10.75009765625,4.884524183515L10.750087656249999,4.880678894375Q10.74931765625,4.761333484375,10.70294765625,4.651366484375Q10.656567656250001,4.541398484375,10.571637656250001,4.457549484375Q10.487417656249999,4.374401484375,10.37792765625,4.329461484375Q10.26844765625,4.284522484375,10.15009765625,4.284521484375L10.14625765625,4.284533484375Q10.02690765625,4.285298484375,9.91693765625,4.331675484375Q9.80697765625,4.378053484375,9.72312765625,4.462983484375L9.72301765625,4.463096484375L5.99032765625,8.243901484375L4.29336765625,6.384001484375L4.29333165625,6.383961484375Q4.21289065625,6.295801484375,4.10483365625,6.245131484375Q3.99677665625,6.194461484375,3.87755375625,6.188991484375Q3.86383325625,6.188371484375,3.850098275316,6.188371484375L3.84873046625,6.188371484375Q3.73685965625,6.188621484375,3.63259665625,6.229181484375Q3.52833465625,6.269731484375,3.44569265625,6.345131484375Q3.35752765625,6.425571484375,3.30685765625,6.533631484375Q3.25618765625,6.641691484375,3.25072665625,6.760911484375Q3.25009765625,6.774631484375,3.25009765625,6.788371484375L3.2500996562499997,6.789731484375Q3.25035465625,6.901601484375,3.29090765625,7.005871484375Q3.33146165625,7.110131484375,3.40686365625,7.192771484375L3.40713665625,7.193071484375L5.52993765625,9.519691484374999Q5.54049765625,9.531261484375001,5.55163765625,9.542261484375Q5.59368765625,9.583781484374999,5.64303765625,9.616301484375Q5.69237765625,9.648811484374999,5.7471176562499995,9.671081484375Q5.80185765625,9.693341484375,5.859887656250001,9.704501484375001Q5.91792765625,9.715651484375,5.97701765625,9.715281484375Q6.03610765625,9.714901484375,6.09399765625,9.703001484375001Q6.15187765625,9.691101484375,6.20632765625,9.668131484375Q6.26077765625,9.645171484375,6.30970765625,9.612031484374999Q6.35862765625,9.578881484375,6.400147656250001,9.536831484375L10.57695765625,5.306172484375Z" fill-rule="evenodd" fill="#FFFFFF" fill-opacity="1"/></g></g></svg>