<svg xmlns="http://www.w3.org/2000/svg" xmlns:xlink="http://www.w3.org/1999/xlink" fill="none" version="1.1" width="16" height="16" viewBox="0 0 16 16"><g><g><path d="M6.35078125,12.4625L9.806381250000001,12.4625Q9.935701250000001,13.0173,10.36586125,13.4474Q10.980931250000001,14.0625,11.85078125,14.0625Q12.72063125,14.0625,13.33568125,13.4474Q13.95078125,12.8323,13.95078125,11.9625Q13.95078125,11.09265,13.33568125,10.47758Q12.72063125,9.8625,11.85078125,9.8625Q10.980931250000001,9.8625,10.36586125,10.47758Q9.935701250000001,10.90773,9.806381250000001,11.4625L6.35078125,11.4625Q5.19098125,11.4625,4.37088125,10.6424Q3.55078125,9.8223,3.55078125,8.6625L3.55078125,6.4125L9.806381250000001,6.4125Q9.935701250000001,6.96727,10.36586125,7.39742Q10.980931250000001,8.0125,11.85078125,8.0125Q12.72063125,8.0125,13.33568125,7.39742Q13.95078125,6.78235,13.95078125,5.9125Q13.95078125,5.04265,13.33568125,4.42758Q12.72063125,3.8125,11.85078125,3.8125Q10.980931250000001,3.8125,10.36586125,4.42758Q9.935701250000001,4.85773,9.806381250000001,5.4125L3.55078125,5.4125L3.55078125,2.0625Q3.55078125,2.0132543,3.54117425,1.9649549Q3.53156625,1.916655,3.5127212500000002,1.8711579999999999Q3.49387525,1.825661,3.46651625,1.784715Q3.43915625,1.743769,3.40433425,1.708947Q3.36951225,1.674125,3.32856625,1.646765Q3.28762025,1.6194060000000001,3.24212325,1.60056Q3.19662625,1.581715,3.14832635,1.572107Q3.10002695,1.5625,3.05078125,1.5625Q3.00153555,1.5625,2.95323615,1.572107Q2.90493625,1.581715,2.85943925,1.60056Q2.81394225,1.6194060000000001,2.77299625,1.646765Q2.73205025,1.674125,2.69722825,1.708947Q2.66240625,1.743769,2.63504625,1.784715Q2.60768725,1.825661,2.5888412499999998,1.8711579999999999Q2.56999625,1.916655,2.56038825,1.9649549Q2.55078125,2.0132543,2.55078125,2.0625L2.55078125,5.912129999999999L2.55078125,5.91287L2.55078125,8.6625Q2.55078125,10.23651,3.6637762499999997,11.34951Q4.7767712499999995,12.4625,6.35078125,12.4625ZM11.85078125,7.0125C12.45829125,7.0125,12.95078125,6.52001,12.95078125,5.9125C12.95078125,5.30499,12.45829125,4.8125,11.85078125,4.8125C11.24327125,4.8125,10.75078125,5.30499,10.75078125,5.9125C10.75078125,6.52001,11.24327125,7.0125,11.85078125,7.0125ZM11.85078125,13.0625C12.45829125,13.0625,12.95078125,12.57,12.95078125,11.9625C12.95078125,11.35499,12.45829125,10.8625,11.85078125,10.8625C11.24327125,10.8625,10.75078125,11.35499,10.75078125,11.9625C10.75078125,12.57,11.24327125,13.0625,11.85078125,13.0625Z" fill-rule="evenodd" fill="#999999" fill-opacity="1"/></g></g></svg>