<svg xmlns="http://www.w3.org/2000/svg" xmlns:xlink="http://www.w3.org/1999/xlink" fill="none" version="1.1" width="11" height="11" viewBox="0 0 11 11"><g><g><path d="M2.375,1L6.93125,1Q6.98049,1,7.02879,0.9903930000000001Q7.07709,0.980785,7.12259,0.96194Q7.16809,0.943094,7.20903,0.915735Q7.24998,0.888375,7.2848,0.853553Q7.31962,0.818731,7.34698,0.777785Q7.37434,0.736839,7.39319,0.691342Q7.41203,0.645845,7.42164,0.5975451Q7.43125,0.5492457,7.43125,0.5Q7.43125,0.4507543,7.42164,0.4024549Q7.41203,0.354155,7.39319,0.308658Q7.37434,0.263161,7.34698,0.222215Q7.31962,0.181269,7.2848,0.146447Q7.24998,0.11162499999999997,7.20903,0.08426499999999998Q7.16809,0.05690600000000001,7.12259,0.03805999999999998Q7.07709,0.019214999999999982,7.02879,0.009606999999999977Q6.98049,0,6.93125,0L2.375,0Q1.391243,0,0.695621,0.695621Q0,1.391243,0,2.375L0,8.625Q0,9.60876,0.695621,10.30438Q1.391242,11,2.375,11L8.625,11Q9.60876,11,10.30438,10.30438Q11,9.60876,11,8.625L11,4.06875Q11,4.0195,10.9904,3.9712Q10.9808,3.9229,10.9619,3.87741Q10.9431,3.83191,10.9157,3.79096Q10.8884,3.75002,10.8536,3.7152Q10.8187,3.68037,10.7778,3.65301Q10.7368,3.62566,10.6913,3.60681Q10.6458,3.58796,10.5975,3.57836Q10.5492,3.56875,10.5,3.56875Q10.45075,3.56875,10.40245,3.57836Q10.35415,3.58796,10.30866,3.60681Q10.26316,3.62566,10.22221,3.65301Q10.18127,3.68037,10.14645,3.7152Q10.11162,3.75002,10.08426,3.79096Q10.0569,3.83191,10.03806,3.87741Q10.01921,3.9229,10.00961,3.9712Q10,4.0195,10,4.06875L10,8.625Q10,9.19454,9.59727,9.59727Q9.19454,10,8.625,10L2.375,10Q1.80546,10,1.402728,9.59727Q1,9.19454,1,8.625L1,2.375Q1,1.80546,1.402728,1.402728Q1.80546,1,2.375,1Z" fill-rule="evenodd" fill="#333333" fill-opacity="1"/></g><g><path d="M4.2877285,5.9185L9.5564775,0.5872469C9.8020975,0.4417855,10.115057499999999,0.4812233,10.3168975,0.683072C10.5187575,0.8849210000000001,10.558187499999999,1.197881,10.412727499999999,1.443497L5.0814785,6.71225C4.8586245,6.90737,4.5226385,6.89623,4.3131915,6.68679C4.1037448,6.47734,4.0926094,6.14135,4.2877285,5.9185Z" fill="#333333" fill-opacity="1"/></g></g></svg>