<svg xmlns="http://www.w3.org/2000/svg" xmlns:xlink="http://www.w3.org/1999/xlink" fill="none" version="1.1" width="16" height="16" viewBox="0 0 16 16"><g><g><path d="M4.25,9.09375L4.25,2.09375Q4.25,2.0445043,4.240393,1.9962049Q4.230785,1.947905,4.21194,1.9024079999999999Q4.193094,1.856911,4.165735,1.815965Q4.138375,1.775019,4.103553,1.740197Q4.068731,1.705375,4.027785,1.678015Q3.986839,1.6506560000000001,3.941342,1.63181Q3.895845,1.612965,3.8475451,1.603357Q3.7992457,1.59375,3.75,1.59375Q3.7007543,1.59375,3.6524549,1.603357Q3.604155,1.612965,3.558658,1.63181Q3.513161,1.6506560000000001,3.472215,1.678015Q3.431269,1.705375,3.396447,1.740197Q3.361625,1.775019,3.334265,1.815965Q3.306906,1.856911,3.2880599999999998,1.9024079999999999Q3.269215,1.947905,3.259607,1.9962049Q3.25,2.0445043,3.25,2.09375L3.25,9.09375Q3.25,10.5435,4.275126,11.56862Q5.30025,12.59375,6.75,12.59375L9.80866,12.59375Q9.935369999999999,13.10755,10.33579,13.50795Q10.92157,14.09375,11.75,14.09375Q12.57843,14.09375,13.16421,13.50795Q13.75,12.92215,13.75,12.09375Q13.75,11.26532,13.16421,10.67954Q13.09099,10.60631,13.01398,10.54224Q12.47487,10.09375,11.75,10.09375Q10.92157,10.09375,10.33579,10.67954Q9.935369999999999,11.07996,9.80866,11.59375L6.75,11.59375Q5.71447,11.59375,4.9822299999999995,10.86152Q4.25,10.12928,4.25,9.09375ZM11.75,13.09375Q11.84849,13.09375,11.94509,13.07455Q12.04169,13.05535,12.13268,13.01765Q12.22368,12.97995,12.30557,12.92525Q12.38746,12.87045,12.45711,12.80085Q12.52675,12.73125,12.58147,12.64935Q12.63619,12.56745,12.67388,12.47645Q12.71157,12.38545,12.73078,12.28885Q12.75,12.19225,12.75,12.09375Q12.75,11.99526,12.73078,11.89866Q12.71157,11.80206,12.67388,11.71107Q12.63619,11.62007,12.58147,11.53818Q12.52675,11.45629,12.45711,11.38664Q12.38746,11.317,12.30557,11.26228Q12.22368,11.20756,12.13268,11.16987Q12.04169,11.13218,11.94509,11.11296Q11.84849,11.09375,11.75,11.09375Q11.65151,11.09375,11.55491,11.11296Q11.45831,11.13218,11.36732,11.16987Q11.27632,11.20756,11.19443,11.26228Q11.11254,11.317,11.04289,11.38664Q10.97325,11.45629,10.91853,11.53818Q10.86381,11.62007,10.82612,11.71107Q10.78843,11.80206,10.769210000000001,11.89866Q10.75,11.99526,10.75,12.09375Q10.75,12.19225,10.769210000000001,12.28885Q10.78843,12.38545,10.82612,12.47645Q10.86381,12.56745,10.91853,12.64935Q10.97325,12.73125,11.04289,12.80085Q11.11254,12.87045,11.19443,12.92525Q11.27632,12.97995,11.36732,13.01765Q11.45831,13.05535,11.55491,13.07455Q11.65151,13.09375,11.75,13.09375Z" fill-rule="evenodd" fill="#999999" fill-opacity="1"/></g></g></svg>