<svg xmlns="http://www.w3.org/2000/svg" xmlns:xlink="http://www.w3.org/1999/xlink" fill="none" version="1.1" width="16" height="16" viewBox="0 0 16 16"><g><g><path d="M3.5,2.375L3.5,13.375Q3.5,13.4242,3.509607,13.4725Q3.519215,13.5208,3.5380599999999998,13.5663Q3.556906,13.6118,3.584265,13.6528Q3.611625,13.6937,3.646447,13.7286Q3.681269,13.7634,3.722215,13.7907Q3.763161,13.8181,3.808658,13.8369Q3.854155,13.8558,3.9024549,13.8654Q3.9507543,13.875,4,13.875Q4.0492457,13.875,4.0975451,13.8654Q4.145845,13.8558,4.191342,13.8369Q4.236839,13.8181,4.277785,13.7907Q4.318731,13.7634,4.353553,13.7286Q4.388375,13.6937,4.415735,13.6528Q4.443094,13.6118,4.46194,13.5663Q4.480785,13.5208,4.490393,13.4725Q4.5,13.4242,4.5,13.375L4.5,8.375L10.05866,8.375Q10.185369999999999,8.88879,10.58579,9.28921Q11.17157,9.875,12,9.875Q12.82842,9.875,13.41421,9.28921Q14,8.703420000000001,14,7.875Q14,7.04657,13.41421,6.46079Q13.34099,6.38756,13.26398,6.32349Q12.72487,5.875,12,5.875Q11.17157,5.875,10.58579,6.46079Q10.185369999999999,6.86121,10.05866,7.375L4.5,7.375L4.5,2.375Q4.5,2.3257543,4.490393,2.2774549Q4.480785,2.229155,4.46194,2.183658Q4.443094,2.138161,4.415735,2.097215Q4.388375,2.056269,4.353553,2.021447Q4.318731,1.986625,4.277785,1.959265Q4.236839,1.9319060000000001,4.191342,1.91306Q4.145845,1.894215,4.0975451,1.884607Q4.0492457,1.875,4,1.875Q3.9507543,1.875,3.9024549,1.884607Q3.854155,1.894215,3.808658,1.91306Q3.763161,1.9319060000000001,3.722215,1.959265Q3.681269,1.986625,3.646447,2.021447Q3.611625,2.056269,3.584265,2.097215Q3.556906,2.138161,3.5380599999999998,2.183658Q3.519215,2.229155,3.509607,2.2774549Q3.5,2.3257543,3.5,2.375ZM12,8.875Q12.09849,8.875,12.19509,8.85578Q12.29169,8.83657,12.38268,8.79888Q12.47368,8.76119,12.55557,8.70647Q12.63746,8.65175,12.70711,8.58211Q12.77675,8.51246,12.83147,8.43057Q12.88619,8.34868,12.92388,8.25768Q12.96157,8.16669,12.98078,8.07009Q13,7.97349,13,7.875Q13,7.77651,12.98078,7.67991Q12.96157,7.58331,12.92388,7.49232Q12.88619,7.40132,12.83147,7.31943Q12.77675,7.23754,12.70711,7.16789Q12.63746,7.09825,12.55557,7.04353Q12.47368,6.98881,12.38268,6.95112Q12.29169,6.91343,12.19509,6.89421Q12.09849,6.875,12,6.875Q11.90151,6.875,11.80491,6.89421Q11.70831,6.91343,11.61732,6.95112Q11.52632,6.98881,11.44443,7.04353Q11.36254,7.09825,11.29289,7.16789Q11.22325,7.23754,11.16853,7.31943Q11.11381,7.40132,11.07612,7.49232Q11.03843,7.58331,11.019210000000001,7.67991Q11,7.77651,11,7.875Q11,7.97349,11.019210000000001,8.07009Q11.03843,8.16669,11.07612,8.25768Q11.11381,8.34868,11.16853,8.43057Q11.22325,8.51246,11.29289,8.58211Q11.36254,8.65175,11.44443,8.70647Q11.52632,8.76119,11.61732,8.79888Q11.70831,8.83657,11.80491,8.85578Q11.90151,8.875,12,8.875Z" fill-rule="evenodd" fill="#999999" fill-opacity="1"/></g></g></svg>