<svg xmlns="http://www.w3.org/2000/svg" xmlns:xlink="http://www.w3.org/1999/xlink" fill="none" version="1.1" width="20" height="20" viewBox="0 0 20 20"><defs><clipPath id="master_svg0_103_0810"><rect x="20" y="0" width="20" height="20" rx="0"/></clipPath></defs><g transform="matrix(0,1,-1,0,20,-20)" clip-path="url(#master_svg0_103_0810)"><g transform="matrix(0,-1,1,0,14,40)"><path d="M30,15.00998L27.495042,12.505025Q27.446291,12.456275,27.388966,12.417971Q27.331641,12.379668,27.267945,12.353284Q27.204249,12.326901,27.13663,12.31345Q27.069011,12.3,27.0000670467,12.3Q26.9311231,12.3,26.863504,12.31345Q26.795885,12.326901,26.732188999999998,12.353284Q26.668493,12.379668,26.611168,12.417971Q26.553843,12.456275,26.505092,12.505025Q26.456342,12.553776,26.418038,12.611101Q26.379735,12.668426,26.353351,12.732122Q26.326968,12.795818,26.313517,12.863437Q26.300067,12.931056,26.300067,12.9999999912711Q26.300067,13.068944,26.313517,13.136563Q26.326968,13.204182,26.353351,13.267878Q26.379735,13.331574,26.418038,13.388899Q26.456342,13.446224,26.505092,13.494975L29.01005,15.999929999999999L26.505025,18.50496Q26.406569,18.60342,26.353284,18.73205Q26.3,18.860689999999998,26.3,18.99993Q26.3,19.13917,26.353284,19.26781Q26.406569,19.39645,26.505025,19.49491Q26.553776,19.54366,26.611101,19.58196Q26.668426,19.620260000000002,26.732122,19.64665Q26.795818,19.67303,26.863437,19.68648Q26.931056,19.699930000000002,27,19.699930000000002Q27.068944,19.699930000000002,27.136563,19.68648Q27.204182,19.67303,27.267878,19.64665Q27.331574,19.620260000000002,27.388899,19.58196Q27.446224,19.54366,27.494975,19.49491L30,16.98988L32.50503,19.49491Q32.55378,19.54366,32.6111,19.58196Q32.66843,19.620260000000002,32.73212,19.64665Q32.79582,19.67303,32.86344,19.68648Q32.93106,19.699930000000002,33,19.699930000000002Q33.06894,19.699930000000002,33.13656,19.68648Q33.20418,19.67303,33.26788,19.64665Q33.33157,19.620260000000002,33.3889,19.58196Q33.44622,19.54366,33.49497,19.49491Q33.54372,19.44616,33.58203,19.38883Q33.62033,19.33151,33.64671,19.26781Q33.6731,19.20412,33.68655,19.136499999999998Q33.7,19.06888,33.7,18.99993Q33.7,18.93099,33.68655,18.86337Q33.6731,18.795749999999998,33.64671,18.73205Q33.62033,18.66836,33.58203,18.61103Q33.54372,18.55371,33.49497,18.50496L30.98995,15.999929999999999L33.49491,13.494975Q33.54366,13.446224,33.58196,13.388899Q33.62026,13.331574,33.64665,13.267878Q33.67303,13.204182,33.68648,13.136563Q33.69993,13.068944,33.69993,13Q33.69993,12.931056,33.68648,12.863437Q33.67303,12.795818,33.64665,12.732122Q33.62026,12.668426,33.58196,12.611101Q33.54366,12.553776,33.49491,12.505025Q33.39645,12.406569,33.26781,12.353284Q33.13917,12.3,32.99993,12.3Q32.86069,12.3,32.73205,12.353284Q32.60342,12.406569,32.50496,12.505025L30,15.00998Z" fill-rule="evenodd" fill="#666666" fill-opacity="1"/></g></g></svg>