<svg xmlns="http://www.w3.org/2000/svg" xmlns:xlink="http://www.w3.org/1999/xlink" fill="none" version="1.1" width="12" height="12" viewBox="0 0 12 12"><defs><clipPath id="master_svg0_3070_6508"><rect x="0" y="0" width="12" height="12" rx="0"/></clipPath></defs><g clip-path="url(#master_svg0_3070_6508)"><g><path d="M8.6816046875,9.31898125L5.9998146875,6.63718125L3.3180036875,9.31899125C3.2336116875,9.403381249999999,3.1191526874999997,9.45079125,2.9998046875,9.45079125C2.8804576875,9.45079125,2.7659986874999998,9.403381249999999,2.6816076875,9.31899125C2.5972158875,9.23460125,2.549805313349,9.12014125,2.549805313349,9.000791249999999C2.549805313349,8.88144125,2.5972158875,8.76699125,2.6816076875,8.68259125L2.6816076875,8.68259125L5.363414687500001,6.00079125L2.6816786875,3.3190512500000002C2.5972152875,3.23458825,2.5498046875,3.12012825,2.5498046875,3.00078125C2.5498046875,2.88143425,2.5972152875,2.76697425,2.6816066875,2.68258325C2.7659976875,2.59819185,2.8804576875,2.55078125,2.9998046875,2.55078125C3.1191516875,2.55078125,3.2336116875,2.59819185,3.3180026875,2.68258325L5.9998146875,5.364391250000001L8.681494687499999,2.68271225C8.7653846875,2.59881455,8.8788346875,2.551456496,8.997314687500001,2.5508011878L8.9998046875,2.5507943481C9.1171346875,2.5507943481,9.229824687499999,2.59662015,9.313854687500001,2.67850425C9.313854687500001,2.67850425,9.3180046875,2.68259625,9.3180046875,2.68259625C9.4023946875,2.76698725,9.4498046875,2.88144725,9.4498046875,3.00079425C9.4498046875,3.12014125,9.4023946875,3.23460125,9.3180046875,3.31899225L9.3180046875,3.31899225L6.6362046875,6.00079125L9.3180046875,8.68258125C9.4023946875,8.766971250000001,9.4498046875,8.88143125,9.4498046875,9.00078125C9.4498046875,9.12013125,9.4023946875,9.234591250000001,9.3180046875,9.31898125C9.233614687500001,9.40337125,9.1191546875,9.45078125,8.9998046875,9.45078125C8.8804546875,9.45078125,8.765994687500001,9.40337125,8.6816046875,9.31898125Z" fill-rule="evenodd" fill="#999999" fill-opacity="1"/></g></g></svg>