<svg xmlns="http://www.w3.org/2000/svg" xmlns:xlink="http://www.w3.org/1999/xlink" fill="none" version="1.1" width="12" height="12" viewBox="0 0 12 12"><g><g><path d="M3.42436,2.575832L6,5.15147L8.57558,2.575891L8.57574,2.575736Q8.660129999999999,2.491345,8.770389999999999,2.445672Q8.88065,2.4,9,2.4Q9.059090000000001,2.4,9.117049999999999,2.411529Q9.17501,2.423058,9.229610000000001,2.445672Q9.2842,2.468287,9.33334,2.501118Q9.382480000000001,2.53395,9.42426,2.575736Q9.46605,2.617522,9.49888,2.666658Q9.53171,2.715793,9.55433,2.77039Q9.57694,2.824986,9.588470000000001,2.882946Q9.6,2.9409052,9.6,3Q9.6,3.119347,9.55433,3.22961Q9.508659999999999,3.339873,9.42426,3.424264L9.424109999999999,3.424419L6.84853,6L9.42426,8.57574Q9.508659999999999,8.660129999999999,9.55433,8.770389999999999Q9.6,8.88065,9.6,9Q9.6,9.059090000000001,9.588470000000001,9.117049999999999Q9.57694,9.17501,9.55433,9.229610000000001Q9.53171,9.2842,9.49888,9.33334Q9.46605,9.382480000000001,9.42426,9.42426Q9.382480000000001,9.46605,9.33334,9.49888Q9.28421,9.53171,9.229610000000001,9.55433Q9.17501,9.57694,9.117049999999999,9.588470000000001Q9.059090000000001,9.6,9,9.6Q8.88065,9.6,8.770389999999999,9.55433Q8.660129999999999,9.508659999999999,8.57574,9.42426L6,6.84853L3.424419,9.424109999999999L3.424264,9.42426Q3.339873,9.508659999999999,3.22961,9.55433Q3.119347,9.6,3,9.6Q2.9409052,9.6,2.882946,9.588470000000001Q2.824986,9.57694,2.77039,9.55433Q2.715793,9.53171,2.666658,9.49888Q2.617522,9.46605,2.575736,9.42426Q2.53395,9.382480000000001,2.501118,9.33334Q2.468287,9.28421,2.445672,9.229610000000001Q2.423058,9.17501,2.411529,9.117049999999999Q2.4,9.059090000000001,2.4,9Q2.4,8.88065,2.445672,8.770389999999999Q2.491345,8.660129999999999,2.575736,8.57574L2.575891,8.57558L5.15147,6L2.575736,3.424264Q2.491345,3.339873,2.445672,3.22961Q2.4,3.119347,2.4,3Q2.4,2.9409052,2.411529,2.882946Q2.423058,2.824986,2.445672,2.77039Q2.468287,2.715793,2.501118,2.666658Q2.53395,2.617522,2.575736,2.575736Q2.617522,2.53395,2.666658,2.501118Q2.715793,2.468287,2.77039,2.445672Q2.824986,2.423058,2.882946,2.411529Q2.9409052,2.4,3,2.4Q3.119347,2.4,3.22961,2.445672Q3.339873,2.491345,3.424264,2.575736L3.42436,2.575832Z" fill-rule="evenodd" fill="#999999" fill-opacity="1"/></g></g></svg>