<svg xmlns="http://www.w3.org/2000/svg" xmlns:xlink="http://www.w3.org/1999/xlink" fill="none" version="1.1" width="16" height="16" viewBox="0 0 16 16"><g><g><path d="M14.316923834228515,9.88253L14.317023834228516,4.87624L14.316923834228515,4.8697099999999995Q14.305723834228516,3.838296,13.569723834228515,3.115606Q12.833723834228516,2.392916,11.802323834228515,2.40048L4.220863834228515,2.4004630000000002Q3.1919658342285158,2.377807,2.4430728342285155,3.102715Q1.6941788342285156,3.827623,1.6830578342285156,4.86984L1.6830238342285155,9.87601Q1.6942838342285156,10.91395,2.430258834228516,11.63664Q3.1662338342285157,12.35933,4.197683834228515,12.35177L5.179413834228516,12.35178L5.179413834228516,14.0181L6.070083834228516,13.5249Q7.880363834228516,12.5224,9.941583834228515,12.35178L11.806723834228515,12.35178Q12.833723834228516,12.35933,13.569723834228515,11.63664Q14.305723834228516,10.91395,14.316923834228515,9.88253ZM6.379413834228516,12.03259Q8.036133834228515,11.30108,9.869063834228516,11.15371L9.893073834228517,11.15178L11.806723834228515,11.15178Q12.346723834228516,11.15572,12.729023834228515,10.78042Q13.111223834228516,10.40511,13.117023834228515,9.86948L13.117023834228515,4.87972Q13.110123834228515,4.34607,12.729023834228515,3.971827Q12.346723834228516,3.596519,11.811123834228516,3.600447L4.220863834228515,3.600463Q3.6665938342285154,3.588479,3.2776808342285157,3.964939Q2.8887648342285157,4.3414,2.882989834228516,4.88264L2.8830238342285157,9.87601Q2.8888178342285156,10.40511,3.2710238342285156,10.78042Q3.6532338342285158,11.15572,4.188883834228516,11.1518L6.379413834228516,11.15178L6.379413834228516,12.03259ZM5.241673834228516,7.00033L10.758653834228516,7.00033Q10.817753834228515,7.00033,10.875703834228515,6.9887999999999995Q10.933663834228515,6.97727,10.988263834228515,6.9546600000000005Q11.042863834228516,6.932040000000001,11.091993834228516,6.89921Q11.141133834228516,6.8663799999999995,11.182913834228515,6.824590000000001Q11.224703834228515,6.78281,11.257533834228516,6.73367Q11.290363834228515,6.68454,11.312983834228516,6.6299399999999995Q11.335593834228515,6.575340000000001,11.347123834228515,6.51738Q11.358653834228516,6.459429999999999,11.358653834228516,6.40033Q11.358653834228516,6.34124,11.347123834228515,6.2832799999999995Q11.335593834228515,6.22532,11.312983834228516,6.17072Q11.290363834228515,6.1161200000000004,11.257533834228516,6.0669900000000005Q11.224703834228515,6.01785,11.182913834228515,5.97607Q11.141133834228516,5.93428,11.091993834228516,5.9014500000000005Q11.042863834228516,5.86862,10.988263834228515,5.846Q10.933663834228515,5.82339,10.875703834228515,5.811859999999999Q10.817753834228515,5.800330000000001,10.758653834228516,5.800330000000001L5.241673834228516,5.800330000000001Q5.182573834228515,5.800330000000001,5.124613834228516,5.811859999999999Q5.066653834228516,5.82339,5.0120538342285155,5.846Q4.957463834228516,5.86862,4.908323834228516,5.9014500000000005Q4.859193834228515,5.93428,4.817403834228516,5.97607Q4.7756138342285155,6.01785,4.742783834228516,6.0669900000000005Q4.709953834228516,6.1161200000000004,4.687343834228516,6.17072Q4.664723834228516,6.22532,4.6531938342285155,6.2832799999999995Q4.641663834228515,6.34124,4.641663834228515,6.40033Q4.641663834228515,6.459429999999999,4.6531938342285155,6.51738Q4.664723834228516,6.575340000000001,4.687343834228516,6.6299399999999995Q4.709953834228516,6.68454,4.742783834228516,6.73367Q4.7756138342285155,6.78281,4.817403834228516,6.824590000000001Q4.859193834228515,6.8663799999999995,4.908323834228516,6.89921Q4.957463834228516,6.932040000000001,5.0120538342285155,6.9546600000000005Q5.066653834228516,6.97727,5.124613834228516,6.9887999999999995Q5.182573834228515,7.00033,5.241673834228516,7.00033ZM5.241673834228516,9.34498L8.000163834228516,9.34498Q8.059253834228516,9.34498,8.117213834228515,9.33345Q8.175173834228517,9.32192,8.229773834228515,9.29931Q8.284363834228515,9.27669,8.333503834228516,9.24386Q8.382633834228516,9.211030000000001,8.424423834228516,9.16925Q8.466213834228515,9.12746,8.499043834228516,9.07832Q8.531873834228517,9.02919,8.554483834228517,8.97459Q8.577103834228517,8.91999,8.588633834228515,8.86204Q8.600163834228516,8.804079999999999,8.600163834228516,8.74498Q8.600163834228516,8.68589,8.588633834228515,8.62793Q8.577103834228517,8.56997,8.554483834228517,8.51537Q8.531873834228517,8.46077,8.499043834228516,8.41164Q8.466213834228515,8.3625,8.424423834228516,8.32072Q8.382633834228516,8.278929999999999,8.333503834228516,8.2461Q8.284363834228515,8.21327,8.229773834228515,8.19065Q8.175173834228517,8.168040000000001,8.117213834228515,8.15651Q8.059253834228516,8.14498,8.000163834228516,8.14498L5.241673834228516,8.14498Q5.182573834228515,8.14498,5.124613834228516,8.15651Q5.066653834228516,8.168040000000001,5.0120538342285155,8.19065Q4.957463834228516,8.21327,4.908323834228516,8.2461Q4.859193834228515,8.278929999999999,4.817403834228516,8.32072Q4.7756138342285155,8.3625,4.742783834228516,8.41164Q4.709953834228516,8.46077,4.687343834228516,8.51537Q4.664723834228516,8.56997,4.6531938342285155,8.62793Q4.641663834228515,8.68589,4.641663834228515,8.74498Q4.641663834228515,8.804079999999999,4.6531938342285155,8.86204Q4.664723834228516,8.91999,4.687343834228516,8.97459Q4.709953834228516,9.02919,4.742783834228516,9.07832Q4.7756138342285155,9.12746,4.817403834228516,9.16925Q4.859193834228515,9.211030000000001,4.908323834228516,9.24386Q4.957463834228516,9.27669,5.0120538342285155,9.29931Q5.066653834228516,9.32192,5.124613834228516,9.33345Q5.182573834228515,9.34498,5.241673834228516,9.34498Z" fill-rule="evenodd" fill="#666666" fill-opacity="1"/></g></g></svg>