<svg xmlns="http://www.w3.org/2000/svg" xmlns:xlink="http://www.w3.org/1999/xlink" fill="none" version="1.1" width="20" height="20" viewBox="0 0 20 20"><defs><clipPath id="master_svg0_98_0258"><rect x="0" y="0" width="20" height="20" rx="4"/></clipPath></defs><g><g clip-path="url(#master_svg0_98_0258)"><g><path d="M16.21661484375,11.881450000000001L16.216714843749997,6.87624L16.21661484375,6.8708Q16.20591484375,5.8807,15.49941484375,5.186958Q14.79291484375,4.493216,13.80274484375,4.500477L6.22055484375,4.500463Q5.23120984375,4.478697,4.51231384375,5.174567Q3.79341884375,5.870438,3.78274284375,6.8709L3.78271484375,11.87601Q3.79351984375,12.87155,4.5000128437499995,13.56529Q5.20650584375,14.25903,6.19663484375,14.25177L7.27910484375,14.25178L7.27910484375,15.8484L8.021334843750001,15.4374Q9.85221484375,14.4235,11.937154843750001,14.25178L13.80641484375,14.25178Q14.79291484375,14.25903,15.49941484375,13.56529Q16.20591484375,12.87154,16.21661484375,11.881450000000001ZM14.79871484375,5.900475Q15.20951484375,6.30384,15.21671484375,6.87914L15.21671484375,11.87057Q15.21041484375,12.447510000000001,14.79871484375,12.85177Q14.38701484375,13.25603,13.80641484375,13.25178L11.89677484375,13.25178L11.876774843749999,13.25339Q9.983004843749999,13.40566,8.27910484375,14.18728L8.27910484375,13.25178L6.18930484375,13.25179Q5.61233484375,13.25603,5.20065084375,12.85177Q4.78896384375,12.447510000000001,4.78271484375,11.87601L4.78268684375,6.88157Q4.78890684375,6.29858,5.2078208437499995,5.8930869999999995Q5.62673484375,5.48759,6.22055484375,5.500463L13.81007484375,5.50045Q14.38701484375,5.496219,14.79871484375,5.900475ZM7.2413648437500004,8.90033L12.75834484375,8.90033Q12.80759484375,8.90033,12.85589484375,8.89072Q12.90419484375,8.88112,12.94968484375,8.86227Q12.99518484375,8.84342,13.03613484375,8.81607Q13.07707484375,8.78871,13.11189484375,8.75388Q13.14672484375,8.719059999999999,13.17408484375,8.67812Q13.20143484375,8.63717,13.22028484375,8.59167Q13.23912484375,8.54618,13.24873484375,8.49788Q13.25834484375,8.449580000000001,13.25834484375,8.40033Q13.25834484375,8.35108,13.24873484375,8.30279Q13.23912484375,8.25449,13.22028484375,8.20899Q13.20143484375,8.16349,13.17408484375,8.12255Q13.14672484375,8.0816,13.11189484375,8.04678Q13.07707484375,8.01196,13.03613484375,7.9846Q12.99518484375,7.9572400000000005,12.94968484375,7.93839Q12.90419484375,7.91955,12.85589484375,7.909940000000001Q12.80759484375,7.90033,12.75834484375,7.90033L7.2413648437500004,7.90033Q7.19211484375,7.90033,7.14381484375,7.909940000000001Q7.09551484375,7.91955,7.0500148437500005,7.93839Q7.00452484375,7.9572400000000005,6.96357484375,7.9846Q6.92262484375,8.01196,6.887804843750001,8.04678Q6.85298484375,8.0816,6.82562484375,8.12255Q6.79826484375,8.16349,6.77942484375,8.20899Q6.76057484375,8.25449,6.750964843749999,8.30279Q6.74135484375,8.35108,6.7413648437500004,8.40033Q6.74135484375,8.449580000000001,6.750964843749999,8.49788Q6.76057484375,8.54617,6.77942484375,8.59167Q6.79826484375,8.63717,6.82562484375,8.67812Q6.85298484375,8.719059999999999,6.887804843750001,8.75388Q6.92262484375,8.78871,6.96357484375,8.81607Q7.00452484375,8.84342,7.0500148437500005,8.86227Q7.09551484375,8.88112,7.14381484375,8.89072Q7.19211484375,8.90033,7.2413648437500004,8.90033ZM7.2413648437500004,11.24498L9.99985484375,11.24498Q10.04909484375,11.24498,10.09739484375,11.23537Q10.14569484375,11.22577,10.19119484375,11.20692Q10.23669484375,11.18808,10.27763484375,11.160720000000001Q10.31858484375,11.13336,10.353404843749999,11.09854Q10.388224843749999,11.06371,10.41558484375,11.022770000000001Q10.44294484375,10.981819999999999,10.461794843749999,10.93632Q10.48063484375,10.890830000000001,10.49024484375,10.84253Q10.49985484375,10.794229999999999,10.49985484375,10.74498Q10.49985484375,10.69574,10.49024484375,10.64744Q10.48063484375,10.59914,10.461794843749999,10.55364Q10.44294484375,10.508140000000001,10.41558484375,10.4672Q10.388224843749999,10.42625,10.353404843749999,10.39143Q10.31858484375,10.35661,10.27763484375,10.32925Q10.23669484375,10.30189,10.19119484375,10.28304Q10.14569484375,10.264199999999999,10.09739484375,10.25459Q10.04909484375,10.24498,9.99985484375,10.24498L7.2413648437500004,10.24498Q7.19211484375,10.24498,7.14381484375,10.25459Q7.09551484375,10.264199999999999,7.0500148437500005,10.28304Q7.00452484375,10.30189,6.96357484375,10.32925Q6.92262484375,10.35661,6.887804843750001,10.39143Q6.85298484375,10.42625,6.82562484375,10.4672Q6.79826484375,10.508140000000001,6.77942484375,10.55364Q6.76057484375,10.59914,6.750964843749999,10.64744Q6.74135484375,10.69574,6.7413648437500004,10.74498Q6.74135484375,10.794229999999999,6.750964843749999,10.84253Q6.76057484375,10.890830000000001,6.77942484375,10.93632Q6.79826484375,10.981819999999999,6.82562484375,11.022770000000001Q6.85298484375,11.06371,6.887804843750001,11.09854Q6.92262484375,11.13336,6.96357484375,11.160720000000001Q7.00452484375,11.18808,7.0500148437500005,11.20692Q7.09551484375,11.22577,7.14381484375,11.23537Q7.19211484375,11.24498,7.2413648437500004,11.24498Z" fill-rule="evenodd" fill="#333333" fill-opacity="1"/></g></g></g></svg>