<svg xmlns="http://www.w3.org/2000/svg" xmlns:xlink="http://www.w3.org/1999/xlink" fill="none" version="1.1" width="16" height="16" viewBox="0 0 16 16"><defs><clipPath id="master_svg0_7579_28619"><rect x="0" y="0" width="16" height="16" rx="0"/></clipPath></defs><g clip-path="url(#master_svg0_7579_28619)"><g><path d="M6.181281875,1.49088134765625L9.817651875,1.49088134765625Q9.876741875,1.49088134765625,9.934701875,1.50241034765625Q9.992661875,1.5139393476562502,10.047261875,1.53655334765625Q10.101851875000001,1.5591683476562501,10.150991874999999,1.59199934765625Q10.200121875,1.62483134765625,10.241911875,1.66661734765625Q10.283701875,1.7084033476562501,10.316531874999999,1.75753934765625Q10.349361875,1.8066743476562501,10.371971875,1.86127134765625Q10.394591875,1.91586734765625,10.406121875,1.97382734765625Q10.417651875,2.03178654765625,10.417651875,2.09088134765625Q10.417651875,2.14997614765625,10.406121875,2.20793534765625Q10.394591875,2.26589534765625,10.371971875,2.32049134765625Q10.349361875,2.37508834765625,10.316531874999999,2.42422334765625Q10.283701875,2.47335934765625,10.241911875,2.51514534765625Q10.200121875,2.55693134765625,10.150991874999999,2.58976334765625Q10.101851875000001,2.62259434765625,10.047261875,2.64520934765625Q9.992661875,2.66782334765625,9.934701875,2.67935234765625Q9.876741875,2.69088134765625,9.817651875,2.69088134765625L6.181281875,2.69088134765625Q6.122191875,2.69088134765625,6.064231875,2.67935234765625Q6.0062718749999995,2.66782334765625,5.951671875000001,2.64520934765625Q5.897081875,2.62259434765625,5.847941875,2.58976334765625Q5.798811875,2.55693134765625,5.7570218749999995,2.51514534765625Q5.715231875000001,2.47335934765625,5.682401875,2.42422334765625Q5.6495718749999995,2.37508834765625,5.626961875,2.32049134765625Q5.604341874999999,2.26589534765625,5.592811875000001,2.20793534765625Q5.581281875,2.14997614765625,5.581281875,2.09088134765625Q5.581281875,2.03178654765625,5.592811875000001,1.97382734765625Q5.604341874999999,1.91586734765625,5.626961875,1.86127134765625Q5.6495718749999995,1.8066743476562501,5.682401875,1.75753934765625Q5.715231875000001,1.7084033476562501,5.7570218749999995,1.66661734765625Q5.798811875,1.62483134765625,5.847941875,1.59199934765625Q5.897081875,1.5591683476562501,5.951671875000001,1.53655334765625Q6.0062718749999995,1.5139393476562502,6.064231875,1.50241034765625Q6.122191875,1.49088134765625,6.181281875,1.49088134765625ZM11.479961875,14.16838134765625Q11.861371875,13.82508134765625,11.912681875,13.31448134765625L11.912811875,13.31318134765625L12.688721875,5.41815134765625L13.454021875,5.41815134765625Q13.513121875,5.41815134765625,13.571021875,5.40662134765625Q13.629021875,5.395091347656249,13.683621875,5.37248134765625Q13.738221875,5.34987134765625,13.787321875,5.3170313476562505Q13.836521875,5.28420134765625,13.878321875,5.24242134765625Q13.920021875,5.20063134765625,13.952921875,5.1514913476562505Q13.985721875,5.102361347656251,14.008321875,5.04776134765625Q14.030921875,4.99317134765625,14.042521875,4.935211347656249Q14.054021875,4.87725134765625,14.054021875,4.81815134765625Q14.054021875,4.7590613476562496,14.042521875,4.70110134765625Q14.030921875,4.64314134765625,14.008321875,4.58854134765625Q13.985721875,4.5339513476562505,13.952921875,4.48481134765625Q13.920021875,4.43567134765625,13.878321875,4.3938913476562504Q13.836521875,4.35210134765625,13.787321875,4.31927134765625Q13.738221875,4.28644134765625,13.683621875,4.2638213476562505Q13.629021875,4.24121134765625,13.571021875,4.22968134765625Q13.513121875,4.21815134765625,13.454021875,4.21815134765625L12.149381875,4.21815134765625L12.144781875,4.21813134765625L3.8538718750000003,4.21813134765625L3.849271875,4.21815134765625L2.544921875,4.21815134765625Q2.485827075,4.21815134765625,2.427867875,4.22968134765625Q2.369907875,4.24121134765625,2.315311875,4.2638213476562505Q2.260714875,4.28644134765625,2.211579875,4.31927134765625Q2.162443875,4.35210134765625,2.120657875,4.3938913476562504Q2.078871875,4.43567134765625,2.046039875,4.48481134765625Q2.013208875,4.5339513476562505,1.990593875,4.58854134765625Q1.9679798750000002,4.64314134765625,1.956450875,4.70110134765625Q1.944921875,4.7590613476562496,1.944921875,4.81815134765625Q1.944921875,4.87725134765625,1.956450875,4.935211347656249Q1.9679798750000002,4.99317134765625,1.990593875,5.04776134765625Q2.013208875,5.102361347656251,2.046039875,5.1514913476562505Q2.078871875,5.20063134765625,2.120657875,5.24242134765625Q2.162443875,5.28420134765625,2.211579875,5.3170313476562505Q2.260714875,5.34987134765625,2.315311875,5.37248134765625Q2.369907875,5.395091347656249,2.427867875,5.40662134765625Q2.485827075,5.41815134765625,2.544921875,5.41815134765625L3.309480875,5.41815134765625L4.0786918750000005,13.31448134765625Q4.130001875,13.82508134765625,4.511421875,14.16838134765625Q4.892831875000001,14.51158134765625,5.402961875,14.50908134765625L10.585411875,14.50908134765625Q11.098541875,14.51158134765625,11.479961875,14.16838134765625ZM4.515161875,5.41815134765625L5.272681875,13.19448134765625Q5.284251875,13.30968134765625,5.402961875,13.30908134765625L10.591421875,13.30908134765625Q10.706471875,13.30958134765625,10.718561875,13.19578134765625L10.718691875,13.19448134765625L11.482921875,5.41815134765625L4.515161875,5.41815134765625ZM9.813621874999999,7.56579134765625Q9.813961875,7.55560134765625,9.813961875,7.54540134765625Q9.813961875,7.48631134765625,9.802431875,7.42835134765625Q9.790901875,7.37039134765625,9.768291875,7.31579134765625Q9.745671875,7.26120134765625,9.712841874999999,7.21206134765625Q9.680011875,7.16293134765625,9.638231874999999,7.12114134765625Q9.596441875,7.07935134765625,9.547301874999999,7.04652134765625Q9.498171875,7.01369134765625,9.443571875,6.99108134765625Q9.388981874999999,6.96846134765625,9.331021875000001,6.95693134765625Q9.273061875,6.94541134765625,9.213961874999999,6.94541134765625Q9.156151874999999,6.94541134765625,9.099411875000001,6.95644134765625Q9.042661875,6.96748134765625,8.989071875,6.98915134765625Q8.935481875,7.01081134765625,8.887011874999999,7.04232134765625Q8.838531875000001,7.07382134765625,8.796971875,7.11399134765625Q8.755401875,7.15417134765625,8.722271875,7.20154134765625Q8.689141875,7.24891134765625,8.665671875000001,7.30174134765625Q8.642191875,7.35457134765625,8.629231875,7.41090134765625Q8.616271874999999,7.46724134765625,8.614311875,7.52502134765625L8.490671875,11.16138134765625Q8.490331874999999,11.17157134765625,8.490331874999999,11.18177134765625Q8.490331874999999,11.24086134765625,8.501851875,11.29882134765625Q8.513381875,11.35678134765625,8.536001875,11.41138134765625Q8.558611875,11.46597134765625,8.591441875000001,11.51511134765625Q8.624281875000001,11.56424134765625,8.666061875,11.60603134765625Q8.707851875,11.64782134765625,8.756981875000001,11.68065134765625Q8.806121874999999,11.71348134765625,8.860721875,11.73610134765625Q8.915311875,11.75871134765625,8.973271875,11.77024134765625Q9.031231875,11.78177134765625,9.090331875,11.78177134765625Q9.148131875,11.78177134765625,9.204881875,11.77073134765625Q9.261621875,11.75969134765625,9.315221874999999,11.73803134765625Q9.368811874999999,11.71636134765625,9.417281875,11.68486134765625Q9.465751874999999,11.65336134765625,9.507321874999999,11.61318134765625Q9.548881875,11.57301134765625,9.582011875,11.52563134765625Q9.615141874999999,11.47826134765625,9.638621875,11.42543134765625Q9.662101875000001,11.37260134765625,9.675061875,11.31627134765625Q9.688011875,11.25993134765625,9.689981875,11.20216134765625L9.813621874999999,7.56579134765625L9.813621874999999,7.56579134765625ZM6.178031875,7.56702134765625Q6.1776518750000005,7.55623134765625,6.1776518750000005,7.54543134765625Q6.1776518750000005,7.48633134765625,6.1891718749999995,7.42837134765625Q6.200701875,7.37042134765625,6.223321875,7.31582134765625Q6.245931875,7.26122134765625,6.278761875,7.21209134765625Q6.3115918749999995,7.16295134765625,6.353381875,7.12117134765625Q6.395171875,7.07938134765625,6.444301875,7.04655134765625Q6.493441875,7.01372134765625,6.548031875,6.99110134765625Q6.602631875,6.96849134765625,6.660591875,6.95696134765625Q6.718551875,6.94543134765625,6.777651875,6.94543134765625Q6.835381875,6.94543134765625,6.892051875,6.95644134765625Q6.948721875,6.96745134765625,7.002261875,6.98906134765625Q7.055791875,7.01067134765625,7.104231875,7.04210134765625Q7.152661875,7.07352134765625,7.194211875,7.11360134765625Q7.235761875,7.15368134765625,7.268901875,7.20095134765625Q7.302051875,7.24822134765625,7.325571875,7.30094134765625Q7.349101875,7.35367134765625,7.362141875,7.40991134765625Q7.375181875,7.46615134765625,7.377261875,7.52384134765625L7.508171875,11.16021134765625Q7.508551875,11.17100134765625,7.508551875,11.18179134765625Q7.508551875,11.24089134765625,7.497031875,11.29885134765625Q7.485501875,11.35681134765625,7.462881875,11.41140134765625Q7.440271875,11.46600134765625,7.407431875,11.51513134765625Q7.374601875,11.56427134765625,7.332821875,11.60606134765625Q7.291031875,11.64784134765625,7.241901875,11.68068134765625Q7.192761875,11.71351134765625,7.138161875,11.73612134765625Q7.083571875,11.75873134765625,7.025611875,11.77026134765625Q6.967651875,11.78179134765625,6.908551875,11.78179134765625Q6.850821875,11.78179134765625,6.794151875,11.77078134765625Q6.737471875,11.75978134765625,6.683941875,11.73816134765625Q6.630411875,11.71655134765625,6.581971875,11.68513134765625Q6.533541875,11.65370134765625,6.491991875,11.61362134765625Q6.450441875,11.57354134765625,6.417291875,11.52627134765625Q6.384151875000001,11.47900134765625,6.360621875,11.42628134765625Q6.337101875,11.37356134765625,6.324061875,11.31732134765625Q6.311021875,11.26108134765625,6.308941875,11.20338134765625L6.178031875,7.56702134765625Z" fill-rule="evenodd" fill="#666666" fill-opacity="1"/></g></g></svg>