<svg xmlns="http://www.w3.org/2000/svg" xmlns:xlink="http://www.w3.org/1999/xlink" fill="none" version="1.1" width="13" height="13" viewBox="0 0 13 13"><g><g><path d="M6.5007125,11.8373625Q8.7112225,11.8373625,10.2742925,10.2742925C10.5122625,10.0363125,10.5122725,9.6504825,10.2742925,9.4125025C10.0363125,9.1745325,9.6504825,9.1745325,9.4125025,9.4125025Q8.2064025,10.6186125,6.5007125,10.6186125Q4.7950225,10.6186125,3.5889125,9.4125025Q2.3828125,8.2064025,2.3828125,6.5007125Q2.3828125,4.7950225,3.5889125,3.5889125Q4.7950225,2.3828125,6.5007125,2.3828125Q8.2064025,2.3828125,9.4125025,3.5889125Q10.2236125,4.4000225,10.4892525,5.4370725L9.6326325,5.4370725L11.2280625,7.5643525L12.8235625,5.4370725L11.7398625,5.4370725Q11.4470625,3.8998725,10.2742925,2.7271324999999997Q8.7112225,1.1640625,6.5007125,1.1640625Q4.2902024999999995,1.1640625,2.7271324999999997,2.7271324999999997Q1.1640625,4.2902024999999995,1.1640625,6.5007125Q1.1640625,8.7112225,2.7271324999999997,10.2742925Q4.2902024999999995,11.8373625,6.5007125,11.8373625Z" fill-rule="evenodd" fill="#BFBFBF" fill-opacity="1"/></g></g></svg>