<svg xmlns="http://www.w3.org/2000/svg" xmlns:xlink="http://www.w3.org/1999/xlink" fill="none" version="1.1" width="16" height="16" viewBox="0 0 16 16"><g><g><path d="M3.20078125,2.599609375L12.80078125,2.599609375C14.12628125,2.599609375,15.20078125,3.6741293749999997,15.20078125,4.999609375L15.20078125,10.999609375C15.20078125,12.325089375,14.12628125,13.399609375,12.80078125,13.399609375L9.41078125,13.399609375L8.48078125,14.635609375C8.240781250000001,14.955609375,7.76078125,14.955609375,7.52078125,14.635609375L6.59078125,13.399609375L3.20078125,13.399609375C1.87530125,13.399609375,0.80078125,12.325089375,0.80078125,10.999609375L0.80078125,4.999609375C0.80078125,3.6741293749999997,1.87530125,2.599609375,3.20078125,2.599609375ZM4.46527125,8.848259375C4.99783125,8.848259375,5.42956125,8.416539375,5.42956125,7.883969375C5.42956125,7.351409375,4.99783125,6.919679375,4.46527125,6.919679375C3.93270125,6.919679375,3.50098125,7.351409375,3.50098125,7.883969375C3.50098125,8.416539375,3.93270125,8.848259375,4.46527125,8.848259375ZM7.03712125,7.883969375C7.03712125,7.351409375,7.46885125,6.919679375,8.00141125,6.919679375C8.53276125,6.922609375,8.96277125,7.352619375,8.96570125,7.883969375C8.96571125,8.416539375,8.53398125,8.848269375000001,8.00141125,8.848269375000001C7.46885125,8.848269375000001,7.03712125,8.416539375,7.03712125,7.883969375ZM10.57239125,7.883969375C10.57239125,7.351409375,11.00408125,6.919679375,11.53668125,6.919679375C12.06798125,6.922609375,12.49808125,7.352619375,12.50098125,7.883969375C12.50098125,8.416539375,12.06928125,8.848269375000001,11.53668125,8.848269375000001C11.00408125,8.848269375000001,10.57239125,8.416539375,10.57239125,7.883969375Z" fill-rule="evenodd" fill="#333333" fill-opacity="1"/></g></g></svg>