<svg xmlns="http://www.w3.org/2000/svg" xmlns:xlink="http://www.w3.org/1999/xlink" fill="none" version="1.1" width="16" height="16" viewBox="0 0 16 16"><g><g><g><path d="M4.875,3.6L9.43125,3.6Q9.49034,3.6,9.548300000000001,3.588471Q9.606259999999999,3.576942,9.66086,3.554328Q9.71546,3.531713,9.76459,3.498882Q9.81373,3.46605,9.855509999999999,3.424264Q9.897300000000001,3.382478,9.93013,3.333342Q9.962959999999999,3.284207,9.985579999999999,3.22961Q10.008189999999999,3.175014,10.01972,3.117054Q10.03125,3.0590948,10.03125,3Q10.03125,2.9409052,10.01972,2.882946Q10.008189999999999,2.824986,9.985579999999999,2.77039Q9.962959999999999,2.715793,9.93013,2.666658Q9.897300000000001,2.617522,9.855509999999999,2.575736Q9.81373,2.53395,9.76459,2.501118Q9.71546,2.468287,9.66086,2.445672Q9.606259999999999,2.423058,9.548300000000001,2.411529Q9.49034,2.4,9.43125,2.4L4.875,2.4Q3.849821,2.4,3.12491,3.124911Q2.4,3.849821,2.4,4.875L2.4,11.125Q2.4,12.15018,3.124911,12.87509Q3.8498229999999998,13.6,4.875,13.6L11.125,13.6Q12.15018,13.6,12.87509,12.87509Q13.6,12.15018,13.6,11.125L13.6,6.56875Q13.6,6.509650000000001,13.5885,6.451700000000001Q13.5769,6.39374,13.5543,6.33914Q13.5317,6.28454,13.4989,6.23541Q13.4661,6.18627,13.4243,6.144489999999999Q13.3825,6.1027000000000005,13.3333,6.06987Q13.2842,6.03704,13.2296,6.014419999999999Q13.175,5.99181,13.1171,5.9802800000000005Q13.0591,5.96875,13,5.96875Q12.94091,5.96875,12.88295,5.9802800000000005Q12.82499,5.99181,12.77039,6.014419999999999Q12.71579,6.03704,12.66666,6.06987Q12.61752,6.1027000000000005,12.57573,6.144489999999999Q12.53395,6.18627,12.50112,6.23541Q12.46828,6.28454,12.44567,6.33914Q12.42306,6.39374,12.41153,6.451700000000001Q12.4,6.509650000000001,12.4,6.56875L12.4,11.125Q12.4,11.65312,12.02656,12.02656Q11.65312,12.4,11.125,12.4L4.875,12.4Q4.3468800000000005,12.4,3.973439,12.02656Q3.6,11.65312,3.6,11.125L3.6,4.875Q3.6,4.3468800000000005,3.973439,3.973439Q4.3468800000000005,3.6,4.875,3.6Z" fill-rule="evenodd" fill="#666666" fill-opacity="1"/></g><g><path d="M6.653493327896118,8.471686244907378L12.460131327896118,2.5961351449073793C12.730821327896118,2.435822844907379,13.076061327896118,2.479330444907379,13.298511327896119,2.701787244907379C13.520971327896119,2.924243244907379,13.564291327896118,3.269108244907379,13.403981327896119,3.539796244907379L7.528491327896118,9.34650624490738C7.282886327896118,9.56154624490738,6.9126443278961185,9.54925624490738,6.681813327896118,9.318426244907378C6.4509831278961185,9.08759624490738,6.438453327896118,8.717296244907379,6.653493327896118,8.471686244907378Z" fill="#666666" fill-opacity="1"/></g></g></g></svg>