<svg xmlns="http://www.w3.org/2000/svg" xmlns:xlink="http://www.w3.org/1999/xlink" fill="none" version="1.1" width="24" height="24" viewBox="0 0 24 24"><g><g><g><path d="M7.254665,15.821484375L16.742475,15.821484375C16.755274999999997,15.821484375,16.768075,15.821184375,16.780875,15.820484375Q17.720975,15.772284375,18.354575,15.076084375Q18.982374999999998,14.386284375,18.948475000000002,13.456714375L18.948574999999998,7.448744375Q18.982374999999998,6.519174375,18.354675,5.829369375Q17.720975,5.133128975,16.780875,5.08496654C16.768075,5.084311903,16.755274999999997,5.083984375,16.742475,5.083984375L7.254685,5.083984375C7.241885,5.083984375,7.229095,5.084311843,7.216315,5.084966302Q6.276145,5.133128275,5.642519,5.829369375Q5.0147461,6.519174375,5.04863006,7.448754375L5.04861039,13.456694375Q5.0147249,14.386274375,5.642499,15.076084375Q6.276125,15.772284375,7.216295000000001,15.820484375C7.229075,15.821184375,7.241865000000001,15.821484375,7.254665,15.821484375ZM13.089835,11.973104375L15.721675,9.413104375C16.018575,9.124294375,16.025175,8.649464375,15.736375,8.352544375C15.597675,8.209964375,15.407975,8.128314375,15.209075,8.125564375C15.010215,8.122804375,14.818375,8.199174375,14.675785,8.337874375L12.566405,10.389674375L11.169415,9.033364375C10.878544999999999,8.750974375,10.415935000000001,8.750824375,10.124884999999999,9.033024375L8.276745,10.825014375C7.979365,11.113354375,7.972045,11.588174375000001,8.260385,11.885554375C8.548725000000001,12.182924374999999,9.023534999999999,12.190254375,9.320915,11.901914375L10.646635,10.616474375L12.044455,11.973594375000001C12.335655,12.256304375,12.798905000000001,12.256094375,13.089835,11.973104375ZM8.005175,18.916484375L16.008074999999998,18.916484375C16.422275,18.916484375,16.758074999999998,18.580684375,16.758074999999998,18.166484375C16.758074999999998,17.752284375000002,16.422275,17.416484375,16.008074999999998,17.416484375L8.005175,17.416484375C7.590955,17.416484375,7.2551749999999995,17.752284375000002,7.2551749999999995,18.166484375C7.2551749999999995,18.580684375,7.590955,18.916484375,8.005175,18.916484375Z" fill-rule="evenodd" fill="#333333" fill-opacity="1"/></g></g></g></svg>