<svg xmlns="http://www.w3.org/2000/svg" xmlns:xlink="http://www.w3.org/1999/xlink" fill="none" version="1.1" width="24" height="24" viewBox="0 0 24 24"><g><g><g><path d="M8.280258125,15.821474375L16.744128125,15.821474375Q16.763328125,15.821474375,16.782528125,15.820494375Q17.722628125,15.772324375,18.356328124999997,15.076084375Q18.984028125000002,14.386284375,18.950128125,13.456714375L18.950228125000002,7.448744375Q18.984028125000002,6.519176375,18.356328124999997,5.829369665Q17.722728125,5.133129375,16.782528125,5.0849663750000005Q16.763328125,5.083984375,16.744128125,5.083984375L7.256348125,5.083984375Q7.237148125,5.083984375,7.217978125,5.0849663750000005Q6.277807125,5.133128375,5.644181125,5.829369365Q5.016409125,6.519179375,5.050293125,7.448754375L5.050273125,13.456704375000001Q5.016388125,14.386274375,5.644162125,15.076084375Q6.277788125,15.772324375,7.217958125,15.820494375Q7.237128125,15.821474375,7.256328125,15.821474375L8.280258125,15.821474375ZM16.722028125,14.321474375L7.278378125,14.321474375Q6.965888125,14.299824375,6.753533125,14.066484375Q6.535670125,13.827094375,6.549580125,13.503724375000001Q6.550273125,13.487624375,6.550273125,13.471494374999999L6.550293125,7.433964375Q6.550293125,7.417834375,6.5496001249999996,7.401724375Q6.535690125,7.078364375,6.753553125,6.838974375Q6.965908125,6.605629375,7.278398125,6.583984375L16.722128124999998,6.583984375Q17.034628124999998,6.605628375,17.246928125,6.838974375Q17.464828125,7.078364375,17.450928125,7.401724375Q17.450228125000002,7.417834375,17.450228125000002,7.433954375L17.450128125,13.471494374999999Q17.450128125,13.487624375,17.450828125,13.503734375Q17.464828125,13.827094375,17.246928125,14.066484375Q17.034528125,14.299824375,16.722028125,14.321474375ZM13.091298125,11.973104375L15.723138125,9.413104375L14.677258125,8.337874375L12.567868125,10.389674375L11.170878125,9.033364375Q11.118898125000001,8.982904375,11.058228125,8.943324375Q10.997558125000001,8.903744375,10.930438125,8.876504375Q10.863308125,8.849274375,10.792218125,8.835384375Q10.721118125,8.821494375,10.648678125,8.821474375000001Q10.576238125,8.821444375,10.505138125,8.835294375Q10.434028125000001,8.849134375,10.366888125,8.876324375Q10.299748125,8.903514375,10.239048125,8.943054375Q10.178358124999999,8.982594375,10.126348125,9.033024375L8.278208124999999,10.825014375L9.322378125,11.901914375L10.648098125,10.616474375L12.045918125,11.973594375000001Q12.097948125,12.024104375,12.158688125000001,12.063714375Q12.219428125,12.103324375,12.286638125,12.130564374999999Q12.353838125,12.157804375000001,12.425018125000001,12.171664374999999Q12.496198125,12.185514375,12.568708125,12.185484375Q12.641228125,12.185454374999999,12.712388125,12.171524375Q12.783558124999999,12.157594375,12.850738125,12.130294375Q12.917908125,12.102994375,12.978618125,12.063334375Q13.039318125000001,12.023664375,13.091298125,11.973104375ZM8.006838125,17.416484375L16.009728125000002,17.416484375Q16.083628125,17.416484375,16.156128125000002,17.430884374999998Q16.228528125,17.445284375,16.296728125,17.473584375Q16.365028125000002,17.501884375,16.426428125,17.542884375Q16.487828125,17.583984375,16.540128125000003,17.636184375Q16.592328125,17.688384375,16.633328125,17.749784375Q16.674428125,17.811284375,16.702628125,17.879484375Q16.730928125,17.947784374999998,16.745328125,18.020184375Q16.759728125000002,18.092584375,16.759728125000002,18.166484375Q16.759728125000002,18.240384374999998,16.745328125,18.312784375Q16.730928125,18.385284374999998,16.702628125,18.453484375000002Q16.674428125,18.521784375,16.633328125,18.583184375000002Q16.592328125,18.644584375,16.540128125000003,18.696784375Q16.487828125,18.749084375000002,16.426428125,18.790084375Q16.365028125000002,18.831184375,16.296728125,18.859384374999998Q16.228528125,18.887684375,16.156128125000002,18.902084375Q16.083628125,18.916484375,16.009728125000002,18.916484375L8.006838125,18.916484375Q7.932968125,18.916484375,7.8605181250000005,18.902084375Q7.788068125,18.887684375,7.719818125,18.859384374999998Q7.651578125,18.831184375,7.590158125,18.790084375Q7.528738125,18.749084375000002,7.4765081250000005,18.696784375Q7.424268125,18.644584375,7.383238125,18.583184375000002Q7.3421981249999995,18.521784375,7.313928125,18.453484375000002Q7.285658125,18.385284374999998,7.271248125,18.312784375Q7.256838125,18.240384374999998,7.256838125,18.166484375Q7.256838125,18.092584375,7.271248125,18.020184375Q7.285658125,17.947784374999998,7.313928125,17.879484375Q7.3421981249999995,17.811284375,7.383238125,17.749784375Q7.424268125,17.688384375,7.4765081250000005,17.636184375Q7.528738125,17.583984375,7.590158125,17.542884375Q7.651578125,17.501884375,7.719818125,17.473584375Q7.788068125,17.445284375,7.8605181250000005,17.430884374999998Q7.932968125,17.416484375,8.006838125,17.416484375Z" fill-rule="evenodd" fill="#333333" fill-opacity="1"/></g></g></g></svg>