<svg xmlns="http://www.w3.org/2000/svg" xmlns:xlink="http://www.w3.org/1999/xlink" fill="none" version="1.1" width="16" height="16" viewBox="0 0 16 16"><defs><clipPath id="master_svg0_3759_8845"><rect x="0" y="0" width="16" height="16" rx="0"/></clipPath></defs><g clip-path="url(#master_svg0_3759_8845)"><g><path d="M4.99966125,3.79854125L4.99966125,4.701901250000001Q4.99966125,4.76099125,5.0111912499999995,4.81895125Q5.02271125,4.87691125,5.04533125,4.93151125Q5.0679412500000005,4.98611125,5.10077125,5.03524125Q5.1336112499999995,5.08438125,5.1753912500000006,5.12616125Q5.217181249999999,5.16795125,5.26631125,5.20078125Q5.315451250000001,5.23361125,5.3700512499999995,5.25623125Q5.4246412500000005,5.27884125,5.48260125,5.29037125Q5.54056125,5.30190125,5.5996612500000005,5.30190125Q5.65875125,5.30190125,5.7167112499999995,5.29037125Q5.77467125,5.27884125,5.82927125,5.25623125Q5.88386125,5.23361125,5.93300125,5.20078125Q5.98213125,5.16795125,6.02392125,5.12616125Q6.06571125,5.08438125,6.09854125,5.03524125Q6.13137125,4.98611125,6.15398125,4.93151125Q6.17660125,4.87691125,6.18813125,4.81895125Q6.19966125,4.76099125,6.19966125,4.701901250000001L6.19966125,3.79854125L9.80190125,3.79854125L9.80190125,4.701901250000001Q9.80190125,4.76099125,9.81343125,4.81895125Q9.82495125,4.87691125,9.84757125,4.93151125Q9.87018125,4.98611125,9.903011249999999,5.03524125Q9.935851249999999,5.08438125,9.97763125,5.12616125Q10.01942125,5.16795125,10.068551249999999,5.20078125Q10.11769125,5.23361125,10.17229125,5.25623125Q10.22688125,5.27884125,10.28484125,5.29037125Q10.34280125,5.30190125,10.40190125,5.30190125Q10.46099125,5.30190125,10.51895125,5.29037125Q10.57691125,5.27884125,10.63151125,5.25623125Q10.68610125,5.23361125,10.73524125,5.20078125Q10.78437125,5.16795125,10.82616125,5.12616125Q10.86795125,5.08438125,10.90078125,5.03524125Q10.93361125,4.98611125,10.95623125,4.93151125Q10.97884125,4.87691125,10.99037125,4.81895125Q11.00190125,4.76099125,11.00190125,4.701901250000001L11.00190125,3.79854125L12.27577125,3.79854125Q12.61748125,3.79854125,12.85918125,4.04017125Q13.10078125,4.2818112500000005,13.10078125,4.623541250000001L13.10078125,6.2037812500000005L2.90078125,6.2037812500000005L2.90078125,4.623541250000001Q2.90078125,4.2818112500000005,3.14241825,4.04017125Q3.3840512499999997,3.79854125,3.72578125,3.79854125L4.99966125,3.79854125ZM4.99966125,2.59853825L3.72578125,2.59853825Q2.88699825,2.59853825,2.29388985,3.19164625Q1.70078125,3.7847512500000002,1.70078125,4.623541250000001L1.70078125,12.27578125Q1.70078125,13.11458125,2.29388988,13.70768125Q2.88699925,14.30078125,3.72578125,14.30078125L12.27577125,14.30078125Q13.11458125,14.30078125,13.70768125,13.70768125Q14.30078125,13.11458125,14.30078125,12.27578125L14.30078125,4.623541250000001Q14.30078125,3.7847512500000002,13.70768125,3.19164625Q13.11458125,2.59853725,12.27577125,2.59853725L11.00190125,2.59853825L11.00190125,2.30078125Q11.00190125,2.24168645,10.99037125,2.18372725Q10.97884125,2.12576725,10.95622125,2.07117125Q10.93361125,2.01657425,10.90078125,1.96743925Q10.86795125,1.9183032500000001,10.82616125,1.87651725Q10.78437125,1.83473125,10.73524125,1.80189925Q10.68610125,1.7690682500000001,10.63151125,1.74645325Q10.57691125,1.7238392500000002,10.51895125,1.71231025Q10.46099125,1.70078125,10.40190125,1.70078125Q10.34280125,1.70078125,10.28484125,1.71231025Q10.22688125,1.7238392500000002,10.17229125,1.74645325Q10.11769125,1.7690682500000001,10.068551249999999,1.80189925Q10.01942125,1.83473125,9.97763125,1.87651725Q9.935851249999999,1.9183032500000001,9.903011249999999,1.96743925Q9.87018125,2.01657425,9.84757125,2.07117125Q9.82495125,2.12576725,9.81343125,2.18372725Q9.80190125,2.24168645,9.80190125,2.30078125L9.80190125,2.59853825L6.19966125,2.59853825L6.19966125,2.30078125Q6.19966125,2.24168645,6.18813125,2.18372725Q6.17660125,2.12576725,6.15398125,2.07117125Q6.13137125,2.01657425,6.09854125,1.96743925Q6.06571125,1.9183032500000001,6.02392125,1.87651725Q5.98213125,1.83473125,5.93300125,1.80189925Q5.88386125,1.7690682500000001,5.82927125,1.74645325Q5.77467125,1.7238392500000002,5.7167112499999995,1.71231025Q5.65875125,1.70078125,5.5996612500000005,1.70078125Q5.54056125,1.70078125,5.48260125,1.71231025Q5.4246412500000005,1.7238392500000002,5.3700512499999995,1.74645325Q5.315451250000001,1.7690682500000001,5.26631125,1.80189925Q5.217181249999999,1.83473125,5.1753912500000006,1.87651725Q5.1336112499999995,1.9183032500000001,5.10077125,1.96743925Q5.0679412500000005,2.01657425,5.04533125,2.07117125Q5.02271125,2.12576725,5.01118125,2.18372725Q4.99966125,2.24168645,4.99966125,2.30078125L4.99966125,2.59853825ZM13.10078125,7.40378125L2.90078125,7.40378125L2.90078125,12.27578125Q2.90078125,12.61748125,3.14241825,12.85918125Q3.3840512499999997,13.10078125,3.72578125,13.10078125L12.27577125,13.10078125Q12.61748125,13.10078125,12.85918125,12.85918125Q13.10078125,12.61748125,13.10078125,12.27578125L13.10078125,7.40378125ZM5.14197125,9.839941249999999L6.56696125,9.839941249999999Q6.62606125,9.839941249999999,6.68402125,9.82841125Q6.74198125,9.81688125,6.79657125,9.794271250000001Q6.85117125,9.77165125,6.90031125,9.73882125Q6.94944125,9.70599125,6.99123125,9.66420125Q7.03301125,9.62242125,7.06585125,9.57328125Q7.09868125,9.52415125,7.12129125,9.46955125Q7.14391125,9.41495125,7.15544125,9.35699125Q7.16696125,9.299031249999999,7.16696125,9.239941250000001Q7.16696125,9.18084125,7.15544125,9.122881249999999Q7.14391125,9.06493125,7.12129125,9.01033125Q7.09868125,8.95573125,7.06585125,8.90660125Q7.03301125,8.85746125,6.99123125,8.815671250000001Q6.94944125,8.77389125,6.90031125,8.74106125Q6.85117125,8.70823125,6.79657125,8.685611250000001Q6.74198125,8.66300125,6.68402125,8.65147125Q6.62606125,8.63994125,6.56696125,8.63994125L5.14197125,8.63994125Q5.08287125,8.63994125,5.024911250000001,8.65147125Q4.96695125,8.66300125,4.91235125,8.685611250000001Q4.857761249999999,8.70823125,4.80862125,8.74106125Q4.75949125,8.77389125,4.71770125,8.81568125Q4.67591125,8.85746125,4.64308125,8.90660125Q4.61025125,8.95573125,4.58764125,9.01033125Q4.56502125,9.06493125,4.55349125,9.122881249999999Q4.54196125,9.18084125,4.54197125,9.239941250000001Q4.54196125,9.299031249999999,4.55349125,9.35699125Q4.56502125,9.41495125,4.58764125,9.46955125Q4.61025125,9.52415125,4.64308125,9.57328125Q4.67591125,9.62242125,4.71770125,9.66420125Q4.75949125,9.70599125,4.80862125,9.73882125Q4.857761249999999,9.77165125,4.91235125,9.794271250000001Q4.96695125,9.81688125,5.024911250000001,9.82841125Q5.08287125,9.839941249999999,5.14197125,9.839941249999999ZM9.38124125,9.839941249999999L10.80624125,9.839941249999999Q10.86534125,9.839941249999999,10.92330125,9.82841125Q10.98126125,9.81688125,11.03585125,9.794271250000001Q11.09045125,9.77165125,11.13959125,9.73882125Q11.18872125,9.70599125,11.23051125,9.66420125Q11.27229125,9.62242125,11.30513125,9.57328125Q11.33796125,9.52415125,11.36057125,9.46955125Q11.38319125,9.41495125,11.39472125,9.35699125Q11.40625125,9.299031249999999,11.40624125,9.239941250000001Q11.40625125,9.18084125,11.39472125,9.122881249999999Q11.38319125,9.06493125,11.36057125,9.01033125Q11.33796125,8.95573125,11.30513125,8.90660125Q11.27229125,8.85746125,11.23051125,8.815671250000001Q11.18872125,8.77389125,11.13959125,8.74106125Q11.09045125,8.70823125,11.03585125,8.685611250000001Q10.98126125,8.66300125,10.92330125,8.65147125Q10.86534125,8.63994125,10.80624125,8.63994125L9.38124125,8.63994125Q9.322151250000001,8.63994125,9.26419125,8.65147125Q9.20623125,8.66300125,9.151631250000001,8.685611250000001Q9.09704125,8.70823125,9.047901249999999,8.74106125Q8.99877125,8.77389125,8.95698125,8.81568125Q8.91519125,8.85746125,8.882361249999999,8.90660125Q8.84953125,8.95573125,8.82692125,9.01033125Q8.80430125,9.06493125,8.792771250000001,9.122881249999999Q8.78124125,9.18084125,8.78124125,9.239941250000001Q8.78124125,9.299031249999999,8.792771250000001,9.35699125Q8.80430125,9.41495125,8.82692125,9.46955125Q8.84953125,9.52415125,8.882361249999999,9.57328125Q8.91519125,9.62242125,8.95698125,9.66420125Q8.99877125,9.70599125,9.047901249999999,9.73882125Q9.09704125,9.77165125,9.151631250000001,9.794271250000001Q9.20623125,9.81688125,9.26419125,9.82841125Q9.322151250000001,9.839941249999999,9.38124125,9.839941249999999ZM5.14197125,11.94418125L6.56696125,11.94418125Q6.62606125,11.94418125,6.68402125,11.93266125Q6.74198125,11.92113125,6.79657125,11.89851125Q6.85117125,11.87590125,6.90031125,11.84306125Q6.94944125,11.81023125,6.99123125,11.76845125Q7.03301125,11.72666125,7.06585125,11.67753125Q7.09868125,11.62839125,7.12129125,11.57379125Q7.14391125,11.51920125,7.15544125,11.46124125Q7.16696125,11.40328125,7.16696125,11.34418125Q7.16696125,11.28509125,7.15544125,11.22713125Q7.14391125,11.16917125,7.12129125,11.11457125Q7.09868125,11.05998125,7.06585125,11.01084125Q7.03301125,10.96170125,6.99123125,10.91992125Q6.94944125,10.87813125,6.90031125,10.84530125Q6.85117125,10.81247125,6.79657125,10.78986125Q6.74198125,10.76724125,6.68402125,10.75571125Q6.62606125,10.74418125,6.56696125,10.74418125L5.14197125,10.74418125Q5.08287125,10.74418125,5.024911250000001,10.75571125Q4.96695125,10.76724125,4.91235125,10.78986125Q4.857761249999999,10.81247125,4.80862125,10.84530125Q4.75949125,10.87813125,4.71770125,10.91992125Q4.67591125,10.96170125,4.64308125,11.01084125Q4.61025125,11.05998125,4.58764125,11.11457125Q4.56502125,11.16917125,4.55349125,11.22713125Q4.54196125,11.28509125,4.54197125,11.34418125Q4.54196125,11.40328125,4.55349125,11.46124125Q4.56502125,11.51920125,4.58764125,11.57379125Q4.61025125,11.62839125,4.64308125,11.67753125Q4.67591125,11.72666125,4.71770125,11.76845125Q4.75949125,11.81023125,4.80862125,11.84307125Q4.857761249999999,11.87590125,4.91235125,11.89851125Q4.96695125,11.92113125,5.024911250000001,11.93266125Q5.08287125,11.94418125,5.14197125,11.94418125ZM9.38124125,11.94418125L10.80624125,11.94418125Q10.86534125,11.94418125,10.92330125,11.93266125Q10.98126125,11.92113125,11.03585125,11.89851125Q11.09045125,11.87590125,11.13959125,11.84306125Q11.18872125,11.81023125,11.23051125,11.76845125Q11.27229125,11.72666125,11.30513125,11.67753125Q11.33796125,11.62839125,11.36057125,11.57379125Q11.38319125,11.51920125,11.39472125,11.46124125Q11.40625125,11.40328125,11.40624125,11.34418125Q11.40625125,11.28509125,11.39472125,11.22713125Q11.38319125,11.16917125,11.36057125,11.11457125Q11.33796125,11.05998125,11.30513125,11.01084125Q11.27229125,10.96170125,11.23051125,10.91992125Q11.18872125,10.87813125,11.13959125,10.84530125Q11.09045125,10.81247125,11.03585125,10.78986125Q10.98126125,10.76724125,10.92330125,10.75571125Q10.86534125,10.74418125,10.80624125,10.74418125L9.38124125,10.74418125Q9.322151250000001,10.74418125,9.26419125,10.75571125Q9.20623125,10.76724125,9.151631250000001,10.78986125Q9.09704125,10.81247125,9.047901249999999,10.84530125Q8.99877125,10.87813125,8.95698125,10.91992125Q8.91519125,10.96170125,8.882361249999999,11.01084125Q8.84953125,11.05998125,8.82692125,11.11457125Q8.80430125,11.16917125,8.792771250000001,11.22713125Q8.78124125,11.28509125,8.78124125,11.34418125Q8.78124125,11.40328125,8.792771250000001,11.46124125Q8.80430125,11.51920125,8.82692125,11.57379125Q8.84953125,11.62839125,8.882361249999999,11.67753125Q8.91519125,11.72666125,8.95698125,11.76845125Q8.99877125,11.81023125,9.047901249999999,11.84307125Q9.09704125,11.87590125,9.151631250000001,11.89851125Q9.20623125,11.92113125,9.26419125,11.93266125Q9.322151250000001,11.94418125,9.38124125,11.94418125Z" fill-rule="evenodd" fill="#333333" fill-opacity="1"/></g></g></svg>