<svg xmlns="http://www.w3.org/2000/svg" xmlns:xlink="http://www.w3.org/1999/xlink" fill="none" version="1.1" width="28" height="28" viewBox="0 0 28 28"><defs><linearGradient x1="0.5" y1="0" x2="0.5" y2="1" id="master_svg0_269_1905"><stop offset="0%" stop-color="#6BA7FF" stop-opacity="1"/><stop offset="100%" stop-color="#1D74F5" stop-opacity="1"/></linearGradient><linearGradient x1="0.5" y1="-0.471340149641037" x2="0.4791666567325592" y2="1.1695646047592163" id="master_svg1_496_6920"><stop offset="0%" stop-color="#FFFFFF" stop-opacity="0"/><stop offset="100%" stop-color="#FFFFFF" stop-opacity="1"/></linearGradient></defs><g><g><ellipse cx="14" cy="14" rx="14" ry="14" fill="url(#master_svg0_269_1905)" fill-opacity="1"/></g><g><path d="M8,17.75815859375Q8,15.82848859375,9.2466,14.605228593749999Q9.93041,13.93421859375,11.095089999999999,13.41737859375Q10.47314,12.65945859375,10.32443,11.60017859375Q10.0893,9.92528859375,11.19899,8.64892859375Q12.30869,7.37255859375,14,7.37255859375Q15.69131,7.37255848915,16.801009999999998,8.64891859375Q17.9107,9.92528859375,17.67557,11.60017859375Q17.527160000000002,12.65731859375,16.907420000000002,13.41431859375Q18.0801,13.93062859375,18.7652,14.60646859375Q20,15.82467859375,20,17.75815859375Q20,19.26145859375,17.899810000000002,20.03415859375Q16.28738,20.62745859375,14,20.62745859375Q11.71262,20.62745859375,10.10019,20.03415859375Q7.999999476999,19.26145859375,8,17.75815859375Z" fill-rule="evenodd" fill="url(#master_svg1_496_6920)" fill-opacity="1"/><path d="M9.2466,14.605228593749999Q9.78846,14.073508593749999,10.63227,13.63859859375Q10.85332,13.52465859375,11.095089999999999,13.41737859375Q10.93259,13.21935859375,10.8024,13.00076859375Q10.43429,12.38269859375,10.32443,11.60017859375Q10.0893,9.92528859375,11.19899,8.64892859375Q12.30869,7.37255859375,14,7.37255859375Q15.69131,7.37255859375,16.801009999999998,8.64891859375Q17.9107,9.92528859375,17.67557,11.60017859375Q17.566029999999998,12.38045859375,17.1997,12.99722859375Q17.06972,13.21606859375,16.907420000000002,13.41431859375Q17.1496,13.52093859375,17.37098,13.63436859375Q18.221600000000002,14.07018859375,18.7652,14.60646859375Q20,15.82467859375,20,17.75815859375Q20,19.26145859375,17.899810000000002,20.03415859375Q16.28738,20.62745859375,14,20.62745859375Q11.71262,20.62745859375,10.10019,20.03415859375Q8,19.26145859375,8,17.75815859375Q8,15.82848859375,9.2466,14.605228593749999ZM8.5,17.75815859375Q8.5,18.912658593750002,10.27285,19.56495859375Q11.80169,20.12745859375,14,20.12745859375Q16.198320000000002,20.12745859375,17.72715,19.56495859375Q19.5,18.912658593750002,19.5,17.75815859375Q19.5,16.03376859375,18.414,14.962398593749999Q17.79448,14.35116859375,16.70595,13.871928593749999L16.10367,13.606768593750001L16.52054,13.09758859375Q17.0515,12.44902859375,17.180419999999998,11.530658593750001Q17.383879999999998,10.08139859375,16.423679999999997,8.97697859375Q15.463470000000001,7.87255859375,14,7.87255859375Q12.536529999999999,7.87255859375,11.576319999999999,8.97697859375Q10.61612,10.08140859375,10.81958,11.530658593750001Q10.94876,12.450848593749999,11.48161,13.100198593750001L11.89828,13.60796859375L11.29789,13.87439859375Q10.21598,14.354508593750001,9.59679,14.96210859375Q8.5,16.03836859375,8.5,17.75815859375Z" fill-rule="evenodd" fill="#FFFFFF" fill-opacity="0.550000011920929"/></g></g></svg>