<svg xmlns="http://www.w3.org/2000/svg" xmlns:xlink="http://www.w3.org/1999/xlink" fill="none" version="1.1" width="16" height="16" viewBox="0 0 16 16"><defs><clipPath id="master_svg0_7454_9347"><rect x="0" y="0" width="16" height="16" rx="0"/></clipPath></defs><g clip-path="url(#master_svg0_7454_9347)"><g><path d="M6.03124,1C5.66881,1,5.375,1.293813,5.375,1.6562489999999999C5.375,2.0186900000000003,5.66881,2.3125,6.03124,2.3125L9.96874,2.3125C10.33118,2.3125,10.62499,2.0186900000000003,10.62499,1.6562489999999999C10.62499,1.293813,10.33118,1,9.96874,1L6.03124,1ZM1.4375,4.28125C1.4375,3.91881,1.731313,3.625,2.093749,3.625L13.9062,3.625C14.2687,3.625,14.5625,3.91881,14.5625,4.28125C14.5625,4.64368,14.2687,4.9375,13.9062,4.9375L12.9873,4.9375L11.9986,14.2212C11.9493,14.6666,11.5716,15.0027,11.12357,15L4.87608,15C4.42805,15.0027,4.05035,14.6666,4.00108,14.2212L3.01233,4.9375L2.093749,4.9375C1.731313,4.9375,1.4375,4.64368,1.4375,4.28125ZM9.84856,11.8732L9.99514,7.67574C10.00526,7.38597,9.77855,7.14286,9.48878,7.13274C9.199010000000001,7.12262,8.9559,7.34933,8.94578,7.6391L8.799199999999999,11.8365C8.78908,12.1263,9.015789999999999,12.3694,9.30556,12.3795C9.59533,12.3897,9.83844,12.163,9.84856,11.8732ZM7.19589,11.8377L7.04931,7.64028C7.03919,7.35051,6.79608,7.12381,6.50631,7.13393C6.21654,7.14404,5.98984,7.38715,5.99995,7.67693L6.14653,11.8744C6.15665,12.1641,6.39976,12.3908,6.68953,12.3807C6.97931,12.3706,7.20601,12.1275,7.19589,11.8377Z" fill-rule="evenodd" fill="#999999" fill-opacity="1"/></g></g></svg>