<svg xmlns="http://www.w3.org/2000/svg" xmlns:xlink="http://www.w3.org/1999/xlink" fill="none" version="1.1" width="16" height="16" viewBox="0 0 16 16"><defs><clipPath id="master_svg0_6137_02546"><rect x="0" y="0" width="16" height="16" rx="0"/></clipPath></defs><g clip-path="url(#master_svg0_6137_02546)"><g><path d="M6.183235,1.48984375L9.819605,1.48984375Q9.878695,1.48984375,9.936655,1.50137275Q9.994615,1.5129017500000002,10.049215,1.53551575Q10.103805000000001,1.5581307500000001,10.152944999999999,1.59096175Q10.202075,1.62379375,10.243865,1.66557975Q10.285655,1.7073657500000001,10.318484999999999,1.75650175Q10.351315,1.8056367500000001,10.373925,1.86023375Q10.396545,1.91482975,10.408075,1.97278975Q10.419605,2.03074895,10.419605,2.08984375Q10.419605,2.14893855,10.408075,2.20689775Q10.396545,2.26485775,10.373925,2.31945375Q10.351315,2.37405075,10.318484999999999,2.42318575Q10.285655,2.47232175,10.243865,2.51410775Q10.202075,2.55589375,10.152944999999999,2.58872575Q10.103805000000001,2.62155675,10.049215,2.64417175Q9.994615,2.66678575,9.936655,2.67831475Q9.878695,2.68984375,9.819605,2.68984375L6.183235,2.68984375Q6.124145,2.68984375,6.066185,2.67831475Q6.0082249999999995,2.66678575,5.953625000000001,2.64417175Q5.899035,2.62155675,5.849895,2.58872575Q5.800765,2.55589375,5.7589749999999995,2.51410775Q5.717185000000001,2.47232175,5.684355,2.42318575Q5.6515249999999995,2.37405075,5.628915,2.31945375Q5.606294999999999,2.26485775,5.594765000000001,2.20689775Q5.583235,2.14893855,5.583235,2.08984375Q5.583235,2.03074895,5.594765000000001,1.97278975Q5.606294999999999,1.91482975,5.628915,1.86023375Q5.6515249999999995,1.8056367500000001,5.684355,1.75650175Q5.717185000000001,1.7073657500000001,5.7589749999999995,1.66557975Q5.800765,1.62379375,5.849895,1.59096175Q5.899035,1.5581307500000001,5.953625000000001,1.53551575Q6.0082249999999995,1.5129017500000002,6.066185,1.50137275Q6.124145,1.48984375,6.183235,1.48984375ZM11.481915,14.16734375Q11.863325,13.82404375,11.914635,13.31344375L11.914765,13.31214375L12.690675,5.41711375L13.455975,5.41711375Q13.515075,5.41711375,13.572975,5.40558375Q13.630975,5.394053749999999,13.685575,5.37144375Q13.740175,5.34883375,13.789275,5.3159937500000005Q13.838475,5.28316375,13.880275,5.24138375Q13.921975,5.19959375,13.954875,5.1504537500000005Q13.987675,5.101323750000001,14.010275,5.04672375Q14.032875,4.99213375,14.044475,4.934173749999999Q14.055975,4.87621375,14.055975,4.81711375Q14.055975,4.7580237499999996,14.044475,4.70006375Q14.032875,4.64210375,14.010275,4.58750375Q13.987675,4.5329137500000005,13.954875,4.48377375Q13.921975,4.43463375,13.880275,4.3928537500000004Q13.838475,4.35106375,13.789275,4.31823375Q13.740175,4.28540375,13.685575,4.2627837500000005Q13.630975,4.24017375,13.572975,4.22864375Q13.515075,4.21711375,13.455975,4.21711375L12.151335,4.21711375L12.146735,4.21709375L3.8558250000000003,4.21709375L3.851225,4.21711375L2.546875,4.21711375Q2.4877802,4.21711375,2.429821,4.22864375Q2.371861,4.24017375,2.317265,4.2627837500000005Q2.262668,4.28540375,2.213533,4.31823375Q2.164397,4.35106375,2.122611,4.3928537500000004Q2.080825,4.43463375,2.047993,4.48377375Q2.015162,4.5329137500000005,1.992547,4.58750375Q1.9699330000000002,4.64210375,1.958404,4.70006375Q1.946875,4.7580237499999996,1.946875,4.81711375Q1.946875,4.87621375,1.958404,4.934173749999999Q1.9699330000000002,4.99213375,1.992547,5.04672375Q2.015162,5.101323750000001,2.047993,5.1504537500000005Q2.080825,5.19959375,2.122611,5.24138375Q2.164397,5.28316375,2.213533,5.3159937500000005Q2.262668,5.34883375,2.317265,5.37144375Q2.371861,5.394053749999999,2.429821,5.40558375Q2.4877802,5.41711375,2.546875,5.41711375L3.311434,5.41711375L4.0806450000000005,13.31344375Q4.131955,13.82404375,4.513375,14.16734375Q4.894785000000001,14.51054375,5.404915,14.50804375L10.587365,14.50804375Q11.100495,14.51054375,11.481915,14.16734375ZM4.517115,5.41711375L5.274635,13.19344375Q5.286205,13.30864375,5.404915,13.30804375L10.593375,13.30804375Q10.708425,13.30854375,10.720515,13.19474375L10.720645,13.19344375L11.484875,5.41711375L4.517115,5.41711375ZM9.815574999999999,7.56475375Q9.815915,7.55456375,9.815915,7.54436375Q9.815915,7.48527375,9.804385,7.42731375Q9.792855,7.36935375,9.770245,7.31475375Q9.747625,7.26016375,9.714794999999999,7.21102375Q9.681965,7.16189375,9.640184999999999,7.12010375Q9.598395,7.07831375,9.549254999999999,7.04548375Q9.500125,7.01265375,9.445525,6.99004375Q9.390934999999999,6.96742375,9.332975000000001,6.95589375Q9.275015,6.94437375,9.215914999999999,6.94437375Q9.158104999999999,6.94437375,9.101365000000001,6.95540375Q9.044615,6.96644375,8.991025,6.98811375Q8.937435,7.00977375,8.888964999999999,7.04128375Q8.840485000000001,7.07278375,8.798925,7.11295375Q8.757355,7.15313375,8.724225,7.20050375Q8.691095,7.24787375,8.667625000000001,7.30070375Q8.644145,7.35353375,8.631185,7.40986375Q8.618224999999999,7.46620375,8.616265,7.52398375L8.492625,11.16034375Q8.492284999999999,11.17053375,8.492284999999999,11.18073375Q8.492284999999999,11.23982375,8.503805,11.29778375Q8.515335,11.35574375,8.537955,11.41034375Q8.560565,11.46493375,8.593395000000001,11.51407375Q8.626235000000001,11.56320375,8.668015,11.60499375Q8.709805,11.64678375,8.758935000000001,11.67961375Q8.808074999999999,11.71244375,8.862675,11.73506375Q8.917265,11.75767375,8.975225,11.76920375Q9.033185,11.78073375,9.092285,11.78073375Q9.150085,11.78073375,9.206835,11.76969375Q9.263575,11.75865375,9.317174999999999,11.73699375Q9.370764999999999,11.71532375,9.419235,11.68382375Q9.467704999999999,11.65232375,9.509274999999999,11.61214375Q9.550835,11.57197375,9.583965,11.52459375Q9.617094999999999,11.47722375,9.640575,11.42439375Q9.664055000000001,11.37156375,9.677015,11.31523375Q9.689965,11.25889375,9.691935,11.20112375L9.815574999999999,7.56475375L9.815574999999999,7.56475375ZM6.179985,7.56598375Q6.1796050000000005,7.55519375,6.1796050000000005,7.54439375Q6.1796050000000005,7.48529375,6.1911249999999995,7.42733375Q6.202655,7.36938375,6.225275,7.31478375Q6.247885,7.26018375,6.280715,7.21105375Q6.3135449999999995,7.16191375,6.355335,7.12013375Q6.397125,7.07834375,6.446255,7.04551375Q6.495395,7.01268375,6.549985,6.99006375Q6.604585,6.96745375,6.662545,6.95592375Q6.720505,6.94439375,6.779605,6.94439375Q6.837335,6.94439375,6.894005,6.95540375Q6.950675,6.96641375,7.004215,6.98802375Q7.057745,7.00963375,7.106185,7.04106375Q7.154615,7.07248375,7.196165,7.11256375Q7.237715,7.15264375,7.270855,7.19991375Q7.304005,7.24718375,7.327525,7.29990375Q7.351055,7.35263375,7.364095,7.40887375Q7.377135,7.46511375,7.379215,7.52280375L7.510125,11.15917375Q7.510505,11.16996375,7.510505,11.18075375Q7.510505,11.23985375,7.498985,11.29781375Q7.487455,11.35577375,7.464835,11.41036375Q7.442225,11.46496375,7.409385,11.51409375Q7.376555,11.56323375,7.334775,11.60502375Q7.292985,11.64680375,7.243855,11.67964375Q7.194715,11.71247375,7.140115,11.73508375Q7.085525,11.75769375,7.027565,11.76922375Q6.969605,11.78075375,6.910505,11.78075375Q6.852775,11.78075375,6.796105,11.76974375Q6.739425,11.75874375,6.685895,11.73712375Q6.632365,11.71551375,6.583925,11.68409375Q6.535495,11.65266375,6.493945,11.61258375Q6.452395,11.57250375,6.419245,11.52523375Q6.386105000000001,11.47796375,6.362575,11.42524375Q6.339055,11.37252375,6.326015,11.31628375Q6.312975,11.26004375,6.310895,11.20234375L6.179985,7.56598375Z" fill-rule="evenodd" fill="#666666" fill-opacity="1"/></g></g></svg>