<svg xmlns="http://www.w3.org/2000/svg" xmlns:xlink="http://www.w3.org/1999/xlink" fill="none" version="1.1" width="16" height="16" viewBox="0 0 16 16"><defs><clipPath id="master_svg0_4247_12614"><rect x="0" y="0" width="16" height="16" rx="0"/></clipPath></defs><g clip-path="url(#master_svg0_4247_12614)"><g><path d="M11.5741775,12.4226975L7.9984475,8.846977500000001L4.4226975,12.4227175C4.3101804999999995,12.5352375,4.1575675,12.5984575,3.9984375,12.5984575C3.8393075,12.5984575,3.6866955,12.5352375,3.5741745,12.4227175C3.4616525,12.3101975,3.398438334465,12.1575875,3.398438334465,11.9984575C3.398438334465,11.8393275,3.4616525,11.6867075,3.5741745,11.5741875L3.5741745,11.5741875L7.1499175,7.9984475L3.5742694999999998,4.4227975C3.4616516,4.3101795,3.3984375,4.1575675,3.3984375,3.9984375C3.3984375,3.8393075,3.4616516,3.6866955,3.5741735,3.5741735C3.6866955,3.4616516,3.8393075,3.3984375,3.9984375,3.3984375C4.1575675,3.3984375,4.3101795,3.4616516,4.4226975,3.5741735L7.9984475,7.1499175L11.5740175,3.5743465C11.6858875,3.4624819000000002,11.8371375,3.399337828,11.9951175,3.3984640837L11.9984375,3.3984549642C12.1548775,3.3984549642,12.3051275,3.459556,12.4171775,3.5687355C12.4171775,3.5687355,12.4226975,3.5741905,12.4226975,3.5741905C12.5352275,3.6867125,12.5984375,3.8393255,12.5984375,3.9984545000000002C12.5984375,4.1575845000000005,12.5352275,4.3101975,12.4226975,4.4227175L12.4226975,4.4227175L8.846977500000001,7.9984475L12.4226975,11.5741775C12.5352275,11.6866975,12.5984375,11.8393075,12.5984375,11.9984375C12.5984375,12.1575675,12.5352175,12.3101775,12.4226975,12.4226975C12.3101775,12.5352175,12.1575675,12.5984375,11.9984375,12.5984375C11.8393075,12.5984375,11.6866975,12.5352275,11.5741775,12.4226975Z" fill-rule="evenodd" fill="#666666" fill-opacity="1"/></g></g></svg>