<svg xmlns="http://www.w3.org/2000/svg" xmlns:xlink="http://www.w3.org/1999/xlink" fill="none" version="1.1" width="16" height="16" viewBox="0 0 16 16"><defs><clipPath id="master_svg0_7454_9355"><rect x="0" y="0" width="16" height="16" rx="0"/></clipPath></defs><g clip-path="url(#master_svg0_7454_9355)"><g><path d="M11.68936,7.462846875L9.69238,7.462846875L9.69238,2.038917875C9.69238,1.688426875,9.408249999999999,1.404296875,9.05775,1.404296875L6.94235,1.404296875C6.59186,1.404296875,6.307729999999999,1.688426875,6.307729999999999,2.038917875L6.307729999999999,7.462846875L4.31083,7.462846875C4.21299,7.467476875,4.12588,7.526246875,4.08494,7.615236875C4.04401,7.704226875,4.05607,7.808606875,4.11621,7.885926875L7.67855,12.116696875C7.84447,12.320496875,8.155719999999999,12.320496875,8.32164,12.116696875L11.88398,7.885926875C11.94412,7.808616875,11.95618,7.704226875,11.91525,7.615236875C11.87431,7.526246875,11.78721,7.467476875,11.68936,7.462846875ZM12.8653,14.595996875L3.134725,14.595996875C2.784233,14.595996875,2.5,14.311796875,2.5,13.961396875C2.5,13.610896875,2.784233,13.326796875,3.134725,13.326796875L12.8653,13.326796875C13.2158,13.326796875,13.5,13.610896875,13.5,13.961396875C13.5,14.311796875,13.2158,14.595996875,12.8653,14.595996875Z" fill-rule="evenodd" fill="#999999" fill-opacity="1"/></g></g></svg>