<svg xmlns="http://www.w3.org/2000/svg" xmlns:xlink="http://www.w3.org/1999/xlink" fill="none" version="1.1" width="16" height="16" viewBox="0 0 16 16"><g><g><path d="M6.730754695129395,3.65383950958252Q6.730754695129395,3.71051950958252,6.725194695129394,3.7669395095825196Q6.719644695129395,3.8233495095825196,6.708584695129394,3.878939509582519Q6.6975246951293945,3.9345395095825193,6.681064695129395,3.9887795095825194Q6.664614695129394,4.043029509582519,6.642924695129395,4.09539950958252Q6.621234695129394,4.1477695095825196,6.594504695129395,4.19775950958252Q6.567784695129395,4.247749509582519,6.536294695129394,4.29487950958252Q6.504804695129394,4.34201950958252,6.468844695129395,4.3858295095825195Q6.4328846951293945,4.42964950958252,6.392794695129394,4.469729509582519Q6.352714695129395,4.5098195095825195,6.3088946951293945,4.54577950958252Q6.265084695129395,4.581739509582519,6.217944695129395,4.613229509582519Q6.170814695129394,4.64471950958252,6.120824695129395,4.67143950958252Q6.0708346951293946,4.698169509582519,6.018464695129395,4.71985950958252Q5.966094695129394,4.741549509582519,5.911844695129394,4.75799950958252Q5.857604695129394,4.7744595095825195,5.802004695129394,4.785519509582519Q5.746414695129395,4.79657950958252,5.690004695129394,4.802129509582519Q5.633584695129395,4.80768950958252,5.576904695129395,4.80768950958252Q5.520214695129394,4.80768950958252,5.463804695129395,4.802129509582519Q5.407395695129394,4.79657950958252,5.351799695129395,4.785519509582519Q5.296203695129394,4.7744595095825195,5.2419596951293945,4.75799950958252Q5.187715695129395,4.741549509582519,5.135344695129395,4.71985950958252Q5.082974695129394,4.698169509582519,5.032983695129395,4.67143950958252Q4.982991695129394,4.64471950958252,4.935859695129395,4.613229509582519Q4.888727695129394,4.581739509582519,4.844909695129394,4.54577950958252Q4.8010916951293945,4.5098195095825195,4.7610096951293945,4.469729509582519Q4.7209266951293944,4.42964950958252,4.684966695129394,4.3858295095825195Q4.649005695129395,4.34201950958252,4.617513695129395,4.29487950958252Q4.5860206951293945,4.247749509582519,4.559299695129394,4.19775950958252Q4.532578695129395,4.1477695095825196,4.510886295129395,4.09539950958252Q4.489193895129395,4.043029509582519,4.472739095129395,3.9887795095825194Q4.456284295129395,3.9345395095825193,4.445225595129394,3.878939509582519Q4.434166895129395,3.8233495095825196,4.428610795129394,3.7669395095825196Q4.4230546951293945,3.71051950958252,4.4230546951293945,3.65383950958252Q4.4230546951293945,3.5971495095825192,4.428610795129394,3.5407395095825196Q4.434166895129395,3.4843305095825197,4.445225595129394,3.4287345095825197Q4.456284295129395,3.3731385095825193,4.472739095129395,3.3188945095825195Q4.489193895129395,3.26465050958252,4.510886295129395,3.2122795095825194Q4.532578695129395,3.1599095095825196,4.559299695129394,3.1099185095825197Q4.5860206951293945,3.0599265095825197,4.617513695129395,3.0127945095825197Q4.649005695129395,2.9656625095825193,4.684966695129394,2.9218445095825194Q4.7209266951293944,2.8780265095825195,4.7610096951293945,2.8379445095825195Q4.8010916951293945,2.7978615095825194,4.844909695129394,2.7619015095825197Q4.888727695129394,2.7259405095825198,4.935859695129395,2.6944485095825197Q4.982991695129394,2.6629555095825195,5.032983695129395,2.6362345095825197Q5.082974695129394,2.6095135095825195,5.135344695129395,2.5878211095825194Q5.187715695129395,2.5661287095825194,5.2419596951293945,2.5496739095825194Q5.296203695129394,2.5332191095825194,5.351799695129395,2.5221604095825194Q5.407395695129394,2.5111017095825194,5.463804695129395,2.5055456095825197Q5.520214695129394,2.4999895095825195,5.576904695129395,2.4999895095825195Q5.633584695129395,2.4999895095825195,5.690004695129394,2.5055456095825197Q5.746414695129395,2.5111017095825194,5.802004695129394,2.5221604095825194Q5.857604695129394,2.5332191095825194,5.911844695129394,2.5496739095825194Q5.966094695129394,2.5661287095825194,6.018464695129395,2.5878211095825194Q6.0708346951293946,2.6095135095825195,6.120824695129395,2.6362345095825197Q6.170814695129394,2.6629555095825195,6.217944695129395,2.6944485095825197Q6.265084695129395,2.7259405095825198,6.3088946951293945,2.7619015095825197Q6.352714695129395,2.7978615095825194,6.392794695129394,2.8379445095825195Q6.4328846951293945,2.8780265095825195,6.468844695129395,2.9218445095825194Q6.504804695129394,2.9656625095825193,6.536294695129394,3.0127945095825197Q6.567784695129395,3.0599265095825197,6.594504695129395,3.1099185095825197Q6.621234695129394,3.1599095095825196,6.642924695129395,3.2122795095825194Q6.664614695129394,3.26465050958252,6.681064695129395,3.3188945095825195Q6.6975246951293945,3.3731385095825193,6.708584695129394,3.4287345095825197Q6.719644695129395,3.4843305095825197,6.725194695129394,3.5407395095825196Q6.730754695129395,3.5971495095825192,6.730754695129395,3.65383950958252ZM11.576454695129396,3.65383950958252Q11.576454695129396,3.71051950958252,11.570904695129395,3.7669395095825196Q11.565344695129394,3.8233495095825196,11.554284695129395,3.878939509582519Q11.543224695129394,3.9345395095825193,11.526774695129394,3.9887795095825194Q11.510314695129395,4.043029509582519,11.488624695129396,4.09539950958252Q11.466934695129394,4.1477695095825196,11.440214695129395,4.19775950958252Q11.413494695129394,4.247749509582519,11.381994695129395,4.29487950958252Q11.350504695129395,4.34201950958252,11.314544695129396,4.3858295095825195Q11.278584695129394,4.42964950958252,11.238504695129395,4.469729509582519Q11.198424695129393,4.5098195095825195,11.154604695129395,4.54577950958252Q11.110784695129395,4.581739509582519,11.063654695129394,4.613229509582519Q11.016514695129395,4.64471950958252,10.966524695129394,4.67143950958252Q10.916534695129394,4.698169509582519,10.864164695129395,4.71985950958252Q10.811794695129395,4.741549509582519,10.757554695129395,4.75799950958252Q10.703304695129393,4.7744595095825195,10.647714695129395,4.785519509582519Q10.592114695129395,4.79657950958252,10.535704695129395,4.802129509582519Q10.479294695129393,4.80768950958252,10.422604695129394,4.80768950958252Q10.365924695129394,4.80768950958252,10.309514695129394,4.802129509582519Q10.253094695129395,4.79657950958252,10.197504695129394,4.785519509582519Q10.141904695129394,4.7744595095825195,10.087664695129394,4.75799950958252Q10.033414695129395,4.741549509582519,9.981044695129395,4.71985950958252Q9.928674695129395,4.698169509582519,9.878684695129394,4.67143950958252Q9.828694695129395,4.64471950958252,9.781564695129394,4.613229509582519Q9.734434695129394,4.581739509582519,9.690614695129394,4.54577950958252Q9.646794695129394,4.5098195095825195,9.606714695129394,4.469729509582519Q9.566634695129395,4.42964950958252,9.530664695129396,4.3858295095825195Q9.494704695129395,4.34201950958252,9.463214695129395,4.29487950958252Q9.431724695129395,4.247749509582519,9.405004695129396,4.19775950958252Q9.378284695129395,4.1477695095825196,9.356584695129396,4.09539950958252Q9.334894695129394,4.043029509582519,9.318444695129394,3.9887795095825194Q9.301984695129395,3.9345395095825193,9.290924695129394,3.878939509582519Q9.279874695129394,3.8233495095825196,9.274314695129394,3.7669395095825196Q9.268754695129395,3.71051950958252,9.268754695129395,3.65383950958252Q9.268754695129395,3.5971495095825192,9.274314695129394,3.5407395095825196Q9.279874695129394,3.4843305095825197,9.290924695129394,3.4287345095825197Q9.301984695129395,3.3731385095825193,9.318444695129394,3.3188945095825195Q9.334894695129394,3.26465050958252,9.356584695129396,3.2122795095825194Q9.378284695129395,3.1599095095825196,9.405004695129396,3.1099185095825197Q9.431724695129395,3.0599265095825197,9.463214695129395,3.0127945095825197Q9.494704695129395,2.9656625095825193,9.530674695129395,2.9218445095825194Q9.566634695129395,2.8780265095825195,9.606714695129394,2.8379445095825195Q9.646794695129394,2.7978615095825194,9.690614695129394,2.7619015095825197Q9.734434695129394,2.7259405095825198,9.781564695129394,2.6944485095825197Q9.828694695129395,2.6629555095825195,9.878684695129394,2.6362345095825197Q9.928674695129395,2.6095135095825195,9.981044695129395,2.5878211095825194Q10.033414695129395,2.5661287095825194,10.087664695129394,2.5496739095825194Q10.141904695129394,2.5332191095825194,10.197504695129394,2.5221604095825194Q10.253094695129395,2.5111017095825194,10.309514695129394,2.5055456095825197Q10.365924695129394,2.4999895095825195,10.422604695129394,2.4999895095825195Q10.479294695129393,2.4999895095825195,10.535704695129395,2.5055456095825197Q10.592114695129395,2.5111017095825194,10.647714695129395,2.5221604095825194Q10.703304695129393,2.5332191095825194,10.757554695129395,2.5496739095825194Q10.811794695129395,2.5661287095825194,10.864164695129395,2.5878211095825194Q10.916534695129394,2.6095135095825195,10.966524695129394,2.6362345095825197Q11.016514695129395,2.6629555095825195,11.063654695129394,2.6944485095825197Q11.110784695129395,2.7259405095825198,11.154604695129395,2.7619015095825197Q11.198424695129393,2.7978615095825194,11.238504695129395,2.8379445095825195Q11.278584695129394,2.8780265095825195,11.314544695129396,2.9218445095825194Q11.350504695129395,2.9656625095825193,11.381994695129395,3.0127945095825197Q11.413494695129394,3.0599265095825197,11.440214695129395,3.1099185095825197Q11.466934695129394,3.1599095095825196,11.488624695129396,3.2122795095825194Q11.510314695129395,3.26465050958252,11.526774695129394,3.3188945095825195Q11.543224695129394,3.3731385095825193,11.554284695129395,3.4287345095825197Q11.565344695129394,3.4843305095825197,11.570904695129395,3.5407395095825196Q11.576454695129396,3.5971495095825192,11.576454695129396,3.65383950958252ZM6.730754695129395,7.99953950958252Q6.730754695129395,8.056229509582518,6.725194695129394,8.11263950958252Q6.719644695129395,8.16904950958252,6.708584695129394,8.22464950958252Q6.6975246951293945,8.280239509582518,6.681064695129395,8.33448950958252Q6.664614695129394,8.38872950958252,6.642924695129395,8.44109950958252Q6.621234695129394,8.49346950958252,6.594504695129395,8.543459509582519Q6.567784695129395,8.59344950958252,6.536294695129394,8.640589509582519Q6.504804695129394,8.68771950958252,6.468844695129395,8.73153950958252Q6.4328846951293945,8.775349509582519,6.392794695129394,8.81543950958252Q6.352714695129395,8.85551950958252,6.3088946951293945,8.89147950958252Q6.265084695129395,8.92743950958252,6.217944695129395,8.95892950958252Q6.170814695129394,8.990429509582519,6.120824695129395,9.01714950958252Q6.0708346951293946,9.04386950958252,6.018464695129395,9.06555950958252Q5.966094695129394,9.08724950958252,5.911844695129394,9.103709509582519Q5.857604695129394,9.12015950958252,5.802004695129394,9.13121950958252Q5.746414695129395,9.142279509582519,5.690004695129394,9.14783950958252Q5.633584695129395,9.15338950958252,5.576904695129395,9.15338950958252Q5.520214695129394,9.15338950958252,5.463804695129395,9.14783950958252Q5.407395695129394,9.142279509582519,5.351799695129395,9.13121950958252Q5.296203695129394,9.12015950958252,5.2419596951293945,9.103709509582519Q5.187715695129395,9.08724950958252,5.135344695129395,9.06555950958252Q5.082974695129394,9.04386950958252,5.032983695129395,9.01714950958252Q4.982991695129394,8.990429509582519,4.935859695129395,8.95892950958252Q4.888727695129394,8.92743950958252,4.844909695129394,8.89147950958252Q4.8010916951293945,8.85551950958252,4.7610096951293945,8.81543950958252Q4.7209266951293944,8.775349509582519,4.684966695129394,8.73153950958252Q4.649005695129395,8.68771950958252,4.617513695129395,8.640589509582519Q4.5860206951293945,8.59344950958252,4.559299695129394,8.543459509582519Q4.532578695129395,8.49346950958252,4.510886295129395,8.44109950958252Q4.489193895129395,8.38872950958252,4.472739095129395,8.33448950958252Q4.456284295129395,8.280239509582518,4.445225595129394,8.22464950958252Q4.434166895129395,8.16904950958252,4.428610795129394,8.11263950958252Q4.4230546951293945,8.056229509582518,4.4230546951293945,7.99953950958252Q4.4230546951293945,7.94285950958252,4.428610795129394,7.886449509582519Q4.434166895129395,7.83002950958252,4.445225595129394,7.774439509582519Q4.456284295129395,7.718839509582519,4.472739095129395,7.664599509582519Q4.489193895129395,7.6103495095825195,4.510886295129395,7.55797950958252Q4.532578695129395,7.50560950958252,4.559299695129394,7.45561950958252Q4.5860206951293945,7.4056295095825195,4.617513695129395,7.358499509582519Q4.649005695129395,7.311369509582519,4.684966695129394,7.267549509582519Q4.7209266951293944,7.22372950958252,4.7610096951293945,7.183649509582519Q4.8010916951293945,7.14356950958252,4.844909695129394,7.10759950958252Q4.888727695129394,7.0716395095825195,4.935859695129395,7.04014950958252Q4.982991695129394,7.00865950958252,5.032983695129395,6.98193950958252Q5.082974695129394,6.95521950958252,5.135344695129395,6.93351950958252Q5.187715695129395,6.911829509582519,5.2419596951293945,6.895379509582519Q5.296203695129394,6.87891950958252,5.351799695129395,6.8678595095825195Q5.407395695129394,6.8568095095825194,5.463804695129395,6.851249509582519Q5.520214695129394,6.845689509582519,5.576904695129395,6.845689509582519Q5.633584695129395,6.845689509582519,5.690004695129394,6.851249509582519Q5.746414695129395,6.8568095095825194,5.802004695129394,6.8678595095825195Q5.857604695129394,6.87891950958252,5.911844695129394,6.895379509582519Q5.966094695129394,6.911829509582519,6.018464695129395,6.93351950958252Q6.0708346951293946,6.95521950958252,6.120824695129395,6.98193950958252Q6.170814695129394,7.00865950958252,6.217944695129395,7.04014950958252Q6.265084695129395,7.0716395095825195,6.3088946951293945,7.10759950958252Q6.352714695129395,7.14356950958252,6.392794695129394,7.183649509582519Q6.4328846951293945,7.22372950958252,6.468844695129395,7.267549509582519Q6.504804695129394,7.311369509582519,6.536294695129394,7.358499509582519Q6.567784695129395,7.4056295095825195,6.594504695129395,7.45561950958252Q6.621234695129394,7.50560950958252,6.642924695129395,7.55797950958252Q6.664614695129394,7.6103495095825195,6.681064695129395,7.664599509582519Q6.6975246951293945,7.718839509582519,6.708584695129394,7.774439509582519Q6.719644695129395,7.83002950958252,6.725194695129394,7.886449509582519Q6.730754695129395,7.94285950958252,6.730754695129395,7.99953950958252ZM11.576454695129396,7.99953950958252Q11.576454695129396,8.056229509582518,11.570904695129395,8.11263950958252Q11.565344695129394,8.16904950958252,11.554284695129395,8.22464950958252Q11.543224695129394,8.280239509582518,11.526774695129394,8.33448950958252Q11.510314695129395,8.38872950958252,11.488624695129396,8.44109950958252Q11.466934695129394,8.49346950958252,11.440214695129395,8.543459509582519Q11.413494695129394,8.59344950958252,11.381994695129395,8.640589509582519Q11.350504695129395,8.68771950958252,11.314544695129396,8.73153950958252Q11.278584695129394,8.775349509582519,11.238504695129395,8.81543950958252Q11.198424695129393,8.85551950958252,11.154604695129395,8.89147950958252Q11.110784695129395,8.92743950958252,11.063654695129394,8.95892950958252Q11.016514695129395,8.990429509582519,10.966524695129394,9.01714950958252Q10.916534695129394,9.04386950958252,10.864164695129395,9.06555950958252Q10.811794695129395,9.08724950958252,10.757554695129395,9.103709509582519Q10.703304695129393,9.12015950958252,10.647714695129395,9.13121950958252Q10.592114695129395,9.142279509582519,10.535704695129395,9.14783950958252Q10.479294695129393,9.15338950958252,10.422604695129394,9.15338950958252Q10.365924695129394,9.15338950958252,10.309514695129394,9.14783950958252Q10.253094695129395,9.142279509582519,10.197504695129394,9.13121950958252Q10.141904695129394,9.12015950958252,10.087664695129394,9.103709509582519Q10.033414695129395,9.08724950958252,9.981044695129395,9.06555950958252Q9.928674695129395,9.04386950958252,9.878684695129394,9.01714950958252Q9.828694695129395,8.990429509582519,9.781564695129394,8.95892950958252Q9.734434695129394,8.92743950958252,9.690614695129394,8.89147950958252Q9.646794695129394,8.85551950958252,9.606714695129394,8.81543950958252Q9.566634695129395,8.775349509582519,9.530664695129396,8.73153950958252Q9.494704695129395,8.68771950958252,9.463214695129395,8.640589509582519Q9.431724695129395,8.59344950958252,9.405004695129396,8.543459509582519Q9.378284695129395,8.49346950958252,9.356584695129396,8.44109950958252Q9.334894695129394,8.38872950958252,9.318444695129394,8.33448950958252Q9.301984695129395,8.280239509582518,9.290924695129394,8.22464950958252Q9.279874695129394,8.16904950958252,9.274314695129394,8.11263950958252Q9.268754695129395,8.056229509582518,9.268754695129395,7.99953950958252Q9.268754695129395,7.94285950958252,9.274314695129394,7.886449509582519Q9.279874695129394,7.83002950958252,9.290924695129394,7.774439509582519Q9.301984695129395,7.718839509582519,9.318444695129394,7.664599509582519Q9.334894695129394,7.6103495095825195,9.356584695129396,7.55797950958252Q9.378284695129395,7.50560950958252,9.405004695129396,7.45561950958252Q9.431724695129395,7.4056295095825195,9.463214695129395,7.358499509582519Q9.494704695129395,7.311369509582519,9.530674695129395,7.267549509582519Q9.566634695129395,7.22372950958252,9.606714695129394,7.183649509582519Q9.646794695129394,7.14356950958252,9.690614695129394,7.10759950958252Q9.734434695129394,7.0716395095825195,9.781564695129394,7.04014950958252Q9.828694695129395,7.00865950958252,9.878684695129394,6.98193950958252Q9.928674695129395,6.95521950958252,9.981044695129395,6.93351950958252Q10.033414695129395,6.911829509582519,10.087664695129394,6.895379509582519Q10.141904695129394,6.87891950958252,10.197504695129394,6.8678595095825195Q10.253094695129395,6.8568095095825194,10.309514695129394,6.851249509582519Q10.365924695129394,6.845689509582519,10.422604695129394,6.845689509582519Q10.479294695129393,6.845689509582519,10.535704695129395,6.851249509582519Q10.592114695129395,6.8568095095825194,10.647714695129395,6.8678595095825195Q10.703304695129393,6.87891950958252,10.757554695129395,6.895379509582519Q10.811794695129395,6.911829509582519,10.864164695129395,6.93351950958252Q10.916534695129394,6.95521950958252,10.966524695129394,6.98193950958252Q11.016514695129395,7.00865950958252,11.063654695129394,7.04014950958252Q11.110784695129395,7.0716395095825195,11.154604695129395,7.10759950958252Q11.198424695129393,7.14356950958252,11.238504695129395,7.183649509582519Q11.278584695129394,7.22372950958252,11.314544695129396,7.267549509582519Q11.350504695129395,7.311369509582519,11.381994695129395,7.358499509582519Q11.413494695129394,7.4056295095825195,11.440214695129395,7.45561950958252Q11.466934695129394,7.50560950958252,11.488624695129396,7.55797950958252Q11.510314695129395,7.6103495095825195,11.526774695129394,7.664599509582519Q11.543224695129394,7.718839509582519,11.554284695129395,7.774439509582519Q11.565344695129394,7.83002950958252,11.570904695129395,7.886449509582519Q11.576454695129396,7.94285950958252,11.576454695129396,7.99953950958252ZM6.730754695129395,12.34621950958252Q6.730754695129395,12.40290950958252,6.725194695129394,12.459319509582519Q6.719644695129395,12.51568950958252,6.708584695129394,12.57128950958252Q6.6975246951293945,12.626889509582519,6.681064695129395,12.68118950958252Q6.664614695129394,12.73538950958252,6.642924695129395,12.78778950958252Q6.621234695129394,12.840189509582519,6.594504695129395,12.89018950958252Q6.567784695129395,12.940089509582519,6.536294695129394,12.987289509582519Q6.504804695129394,13.03438950958252,6.468844695129395,13.07818950958252Q6.4328846951293945,13.12198950958252,6.392794695129394,13.16208950958252Q6.352714695129395,13.202189509582519,6.3088946951293945,13.23818950958252Q6.265084695129395,13.27408950958252,6.217944695129395,13.30558950958252Q6.170814695129394,13.337089509582519,6.120824695129395,13.363789509582519Q6.0708346951293946,13.390589509582519,6.018464695129395,13.41218950958252Q5.966094695129394,13.433889509582519,5.911844695129394,13.45038950958252Q5.857604695129394,13.46688950958252,5.802004695129394,13.47788950958252Q5.746414695129395,13.48898950958252,5.690004695129394,13.49448950958252Q5.633584695129395,13.50008950958252,5.576904695129395,13.50008950958252Q5.520214695129394,13.50008950958252,5.463804695129395,13.49448950958252Q5.407395695129394,13.48898950958252,5.351799695129395,13.47788950958252Q5.296203695129394,13.46688950958252,5.2419596951293945,13.45038950958252Q5.187715695129395,13.433889509582519,5.135344695129395,13.41218950958252Q5.082974695129394,13.390589509582519,5.032983695129395,13.363789509582519Q4.982991695129394,13.337089509582519,4.935859695129395,13.30558950958252Q4.888727695129394,13.27408950958252,4.844909695129394,13.23818950958252Q4.8010916951293945,13.202189509582519,4.7610096951293945,13.16208950958252Q4.7209266951293944,13.12198950958252,4.684966695129394,13.07818950958252Q4.649005695129395,13.03438950958252,4.617513695129395,12.987289509582519Q4.5860206951293945,12.940089509582519,4.559299695129394,12.89018950958252Q4.532578695129395,12.840189509582519,4.510886295129395,12.78778950958252Q4.489193895129395,12.73538950958252,4.472739095129395,12.68118950958252Q4.456284295129395,12.626889509582519,4.445225595129394,12.57128950958252Q4.434166895129395,12.51568950958252,4.428610795129394,12.459319509582519Q4.4230546951293945,12.40290950958252,4.4230546951293945,12.34621950958252Q4.4230546951293945,12.28953950958252,4.428610795129394,12.23312950958252Q4.434166895129395,12.176709509582519,4.445225595129394,12.12111950958252Q4.456284295129395,12.06551950958252,4.472739095129395,12.01127950958252Q4.489193895129395,11.957029509582519,4.510886295129395,11.904659509582519Q4.532578695129395,11.85228950958252,4.559299695129394,11.80229950958252Q4.5860206951293945,11.752309509582519,4.617513695129395,11.70517950958252Q4.649005695129395,11.65804950958252,4.684966695129394,11.61422950958252Q4.7209266951293944,11.57040950958252,4.7610096951293945,11.53032950958252Q4.8010916951293945,11.49023950958252,4.844909695129394,11.45428950958252Q4.888727695129394,11.418319509582519,4.935859695129395,11.386829509582519Q4.982991695129394,11.35533950958252,5.032983695129395,11.32861950958252Q5.082974695129394,11.301899509582519,5.135344695129395,11.28019950958252Q5.187715695129395,11.25850950958252,5.2419596951293945,11.24205950958252Q5.296203695129394,11.22559950958252,5.351799695129395,11.214539509582519Q5.407395695129394,11.20348950958252,5.463804695129395,11.197929509582519Q5.520214695129394,11.19236950958252,5.576904695129395,11.19236950958252Q5.633584695129395,11.19236950958252,5.690004695129394,11.197929509582519Q5.746414695129395,11.20348950958252,5.802004695129394,11.214539509582519Q5.857604695129394,11.22559950958252,5.911844695129394,11.24205950958252Q5.966094695129394,11.25850950958252,6.018464695129395,11.28019950958252Q6.0708346951293946,11.301899509582519,6.120824695129395,11.32861950958252Q6.170814695129394,11.35533950958252,6.217944695129395,11.386829509582519Q6.265084695129395,11.418319509582519,6.3088946951293945,11.45428950958252Q6.352714695129395,11.49023950958252,6.392794695129394,11.53032950958252Q6.4328846951293945,11.57040950958252,6.468844695129395,11.61422950958252Q6.504804695129394,11.65804950958252,6.536294695129394,11.70517950958252Q6.567784695129395,11.752309509582519,6.594504695129395,11.80229950958252Q6.621234695129394,11.85228950958252,6.642924695129395,11.904659509582519Q6.664614695129394,11.957029509582519,6.681064695129395,12.01127950958252Q6.6975246951293945,12.06551950958252,6.708584695129394,12.12111950958252Q6.719644695129395,12.176709509582519,6.725194695129394,12.23312950958252Q6.730754695129395,12.28953950958252,6.730754695129395,12.34621950958252ZM11.576454695129396,12.34621950958252Q11.576454695129396,12.40290950958252,11.570904695129395,12.459319509582519Q11.565344695129394,12.51568950958252,11.554284695129395,12.57128950958252Q11.543224695129394,12.626889509582519,11.526774695129394,12.68118950958252Q11.510314695129395,12.73538950958252,11.488624695129396,12.78778950958252Q11.466934695129394,12.840189509582519,11.440214695129395,12.89018950958252Q11.413494695129394,12.940089509582519,11.381994695129395,12.987289509582519Q11.350504695129395,13.03438950958252,11.314544695129396,13.07818950958252Q11.278584695129394,13.12198950958252,11.238504695129395,13.16208950958252Q11.198424695129393,13.202189509582519,11.154604695129395,13.23818950958252Q11.110784695129395,13.27408950958252,11.063654695129394,13.30558950958252Q11.016514695129395,13.337089509582519,10.966524695129394,13.363789509582519Q10.916534695129394,13.390589509582519,10.864164695129395,13.41218950958252Q10.811794695129395,13.433889509582519,10.757554695129395,13.45038950958252Q10.703304695129393,13.46688950958252,10.647714695129395,13.47788950958252Q10.592114695129395,13.48898950958252,10.535704695129395,13.49448950958252Q10.479294695129393,13.50008950958252,10.422604695129394,13.50008950958252Q10.365924695129394,13.50008950958252,10.309514695129394,13.49448950958252Q10.253094695129395,13.48898950958252,10.197504695129394,13.47788950958252Q10.141904695129394,13.46688950958252,10.087664695129394,13.45038950958252Q10.033414695129395,13.433889509582519,9.981044695129395,13.41218950958252Q9.928674695129395,13.390589509582519,9.878684695129394,13.363789509582519Q9.828694695129395,13.337089509582519,9.781564695129394,13.30558950958252Q9.734434695129394,13.27408950958252,9.690614695129394,13.23818950958252Q9.646794695129394,13.202189509582519,9.606714695129394,13.16208950958252Q9.566634695129395,13.12198950958252,9.530664695129396,13.07818950958252Q9.494704695129395,13.03438950958252,9.463214695129395,12.987289509582519Q9.431724695129395,12.940089509582519,9.405004695129396,12.89018950958252Q9.378284695129395,12.840189509582519,9.356584695129396,12.78778950958252Q9.334894695129394,12.73538950958252,9.318444695129394,12.68118950958252Q9.301984695129395,12.626889509582519,9.290924695129394,12.57128950958252Q9.279874695129394,12.51568950958252,9.274314695129394,12.459319509582519Q9.268754695129395,12.40290950958252,9.268754695129395,12.34621950958252Q9.268754695129395,12.28953950958252,9.274314695129394,12.23312950958252Q9.279874695129394,12.176709509582519,9.290924695129394,12.12111950958252Q9.301984695129395,12.06551950958252,9.318444695129394,12.01127950958252Q9.334894695129394,11.957029509582519,9.356584695129396,11.904659509582519Q9.378284695129395,11.85228950958252,9.405004695129396,11.80229950958252Q9.431724695129395,11.752309509582519,9.463214695129395,11.70517950958252Q9.494704695129395,11.65804950958252,9.530674695129395,11.61422950958252Q9.566634695129395,11.57040950958252,9.606714695129394,11.53032950958252Q9.646794695129394,11.49023950958252,9.690614695129394,11.45428950958252Q9.734434695129394,11.418319509582519,9.781564695129394,11.386829509582519Q9.828694695129395,11.35533950958252,9.878684695129394,11.32861950958252Q9.928674695129395,11.301899509582519,9.981044695129395,11.28019950958252Q10.033414695129395,11.25850950958252,10.087664695129394,11.24205950958252Q10.141904695129394,11.22559950958252,10.197504695129394,11.214539509582519Q10.253094695129395,11.20348950958252,10.309514695129394,11.197929509582519Q10.365924695129394,11.19236950958252,10.422604695129394,11.19236950958252Q10.479294695129393,11.19236950958252,10.535704695129395,11.197929509582519Q10.592114695129395,11.20348950958252,10.647714695129395,11.214539509582519Q10.703304695129393,11.22559950958252,10.757554695129395,11.24205950958252Q10.811794695129395,11.25850950958252,10.864164695129395,11.28019950958252Q10.916534695129394,11.301899509582519,10.966524695129394,11.32861950958252Q11.016514695129395,11.35533950958252,11.063654695129394,11.386829509582519Q11.110784695129395,11.418319509582519,11.154604695129395,11.45428950958252Q11.198424695129393,11.49023950958252,11.238504695129395,11.53032950958252Q11.278584695129394,11.57040950958252,11.314544695129396,11.61422950958252Q11.350504695129395,11.65804950958252,11.381994695129395,11.70517950958252Q11.413494695129394,11.752309509582519,11.440214695129395,11.80229950958252Q11.466934695129394,11.85228950958252,11.488624695129396,11.904659509582519Q11.510314695129395,11.957029509582519,11.526774695129394,12.01127950958252Q11.543224695129394,12.06551950958252,11.554284695129395,12.12111950958252Q11.565344695129394,12.176709509582519,11.570904695129395,12.23312950958252Q11.576454695129396,12.28953950958252,11.576454695129396,12.34621950958252Z" fill="#999999" fill-opacity="1"/></g></g></svg>