<svg xmlns="http://www.w3.org/2000/svg" xmlns:xlink="http://www.w3.org/1999/xlink" fill="none" version="1.1" width="24" height="24" viewBox="0 0 24 24"><defs><clipPath id="master_svg0_5014_0775"><rect x="0" y="0" width="24" height="24" rx="0"/></clipPath></defs><g clip-path="url(#master_svg0_5014_0775)"><g><path d="M11,7Q11,7.07369,10.99278,7.14703Q10.98555,7.2203599999999994,10.97118,7.2926400000000005Q10.9568,7.36491,10.935410000000001,7.43543Q10.91402,7.50594,10.885819999999999,7.57402Q10.85762,7.642110000000001,10.82288,7.7071000000000005Q10.78814,7.77208,10.7472,7.83336Q10.70626,7.894629999999999,10.65952,7.9515899999999995Q10.61277,8.00855,10.56066,8.06066Q10.50855,8.11277,10.45159,8.15952Q10.39463,8.20626,10.33335,8.2472Q10.272079999999999,8.28814,10.2071,8.32288Q10.14211,8.35762,10.07402,8.385819999999999Q10.005939999999999,8.41402,9.93543,8.435410000000001Q9.86491,8.4568,9.79264,8.47118Q9.72036,8.48555,9.64703,8.49278Q9.57369,8.5,9.5,8.5Q9.42631,8.5,9.35297,8.49278Q9.27964,8.48555,9.20736,8.47118Q9.13509,8.4568,9.06457,8.435410000000001Q8.994056,8.41402,8.925975,8.385819999999999Q8.857894,8.35762,8.792905,8.32288Q8.727916,8.28814,8.666645,8.2472Q8.605373,8.20626,8.54841,8.15952Q8.491447,8.11277,8.43934,8.06066Q8.387233,8.00855,8.340484,7.9515899999999995Q8.293735999999999,7.894629999999999,8.252796,7.833349999999999Q8.211855,7.77208,8.177118,7.7071000000000005Q8.142381,7.642110000000001,8.114181,7.57402Q8.0859806,7.50594,8.0645895,7.43543Q8.0431983,7.36491,8.0288221,7.2926400000000005Q8.0144458,7.2203599999999994,8.00722291,7.14703Q8,7.07369,8,7Q8,6.92631,8.00722291,6.85297Q8.0144458,6.7796400000000006,8.0288221,6.7073599999999995Q8.0431983,6.63509,8.0645895,6.56457Q8.0859806,6.4940560000000005,8.114181,6.425975Q8.142381,6.357894,8.177118,6.292905Q8.211855,6.2279160000000005,8.252796,6.166645Q8.293735999999999,6.105373,8.340484,6.04841Q8.387233,5.991447,8.43934,5.93934Q8.491447,5.887233,8.54841,5.840484Q8.605373,5.793736,8.666645,5.752796Q8.727916,5.711855,8.792905,5.677118Q8.857894,5.642381,8.925975,5.614181Q8.994056,5.5859806,9.06457,5.5645895Q9.13509,5.5431983,9.20736,5.5288221Q9.27964,5.5144458,9.35297,5.50722291Q9.42631,5.5,9.5,5.5Q9.57369,5.5,9.64703,5.50722291Q9.72036,5.5144458,9.79264,5.5288221Q9.86491,5.5431983,9.93543,5.5645895Q10.005939999999999,5.5859806,10.07402,5.614181Q10.14211,5.642381,10.2071,5.677118Q10.272079999999999,5.711855,10.333359999999999,5.752796Q10.39463,5.793736,10.45159,5.840484Q10.50855,5.887233,10.56066,5.93934Q10.61277,5.991447,10.65952,6.04841Q10.70626,6.105373,10.7472,6.166645Q10.78814,6.2279160000000005,10.82288,6.292905Q10.85762,6.357894,10.885819999999999,6.425975Q10.91402,6.4940560000000005,10.935410000000001,6.56457Q10.9568,6.63509,10.97118,6.7073599999999995Q10.98555,6.7796400000000006,10.99278,6.85297Q11,6.92631,11,7ZM16,7Q16,7.07369,15.99278,7.14703Q15.98555,7.2203599999999994,15.97118,7.2926400000000005Q15.956800000000001,7.36491,15.935410000000001,7.43543Q15.91402,7.50594,15.885819999999999,7.57402Q15.85762,7.642110000000001,15.82288,7.7071000000000005Q15.78814,7.77208,15.7472,7.83336Q15.70626,7.894629999999999,15.65952,7.9515899999999995Q15.612770000000001,8.00855,15.56066,8.06066Q15.50855,8.11277,15.45159,8.15952Q15.39463,8.20626,15.33335,8.2472Q15.272079999999999,8.28814,15.2071,8.32288Q15.142109999999999,8.35762,15.07402,8.385819999999999Q15.005939999999999,8.41402,14.93543,8.435410000000001Q14.86491,8.4568,14.792629999999999,8.47118Q14.72036,8.48555,14.64703,8.49278Q14.57369,8.5,14.5,8.5Q14.42631,8.5,14.35297,8.49278Q14.27964,8.48555,14.207360000000001,8.47118Q14.13509,8.4568,14.06457,8.435410000000001Q13.994060000000001,8.41402,13.92597,8.385819999999999Q13.857890000000001,8.35762,13.7929,8.32288Q13.727920000000001,8.28814,13.666640000000001,8.2472Q13.60537,8.20626,13.54841,8.15952Q13.49145,8.11277,13.43934,8.06066Q13.387229999999999,8.00855,13.34048,7.9515899999999995Q13.29374,7.894629999999999,13.2528,7.833349999999999Q13.21185,7.77208,13.17712,7.7071000000000005Q13.14238,7.642110000000001,13.114180000000001,7.57402Q13.08598,7.50594,13.064589999999999,7.43543Q13.043199999999999,7.36491,13.02882,7.2926400000000005Q13.01445,7.2203599999999994,13.00722,7.14703Q13,7.07369,13,7Q13,6.92631,13.00722,6.85297Q13.01445,6.7796400000000006,13.02882,6.7073599999999995Q13.043199999999999,6.63509,13.064589999999999,6.56457Q13.08598,6.4940560000000005,13.114180000000001,6.425975Q13.14238,6.357894,13.17712,6.292905Q13.21185,6.2279160000000005,13.2528,6.166645Q13.29374,6.105373,13.34048,6.04841Q13.387229999999999,5.991447,13.43934,5.93934Q13.49145,5.887233,13.54841,5.840484Q13.60537,5.793736,13.666640000000001,5.752796Q13.727920000000001,5.711855,13.7929,5.677118Q13.857890000000001,5.642381,13.92597,5.614181Q13.994060000000001,5.5859806,14.06457,5.5645895Q14.13509,5.5431983,14.207360000000001,5.5288221Q14.27964,5.5144458,14.35297,5.50722291Q14.42631,5.5,14.5,5.5Q14.57369,5.5,14.64703,5.50722291Q14.72036,5.5144458,14.792629999999999,5.5288221Q14.86491,5.5431983,14.93543,5.5645895Q15.005939999999999,5.5859806,15.07402,5.614181Q15.142109999999999,5.642381,15.2071,5.677118Q15.272079999999999,5.711855,15.33335,5.752796Q15.39463,5.793736,15.45159,5.840484Q15.50855,5.887233,15.56066,5.93934Q15.612770000000001,5.991447,15.65952,6.04841Q15.70626,6.105373,15.7472,6.166645Q15.78814,6.2279160000000005,15.82288,6.292905Q15.85762,6.357894,15.885819999999999,6.425975Q15.91402,6.4940560000000005,15.935410000000001,6.56457Q15.956800000000001,6.63509,15.97118,6.7073599999999995Q15.98555,6.7796400000000006,15.99278,6.85297Q16,6.92631,16,7ZM11,12Q11,12.07369,10.99278,12.14703Q10.98555,12.22036,10.97118,12.292629999999999Q10.9568,12.36491,10.935410000000001,12.43543Q10.91402,12.505939999999999,10.885819999999999,12.57402Q10.85762,12.642109999999999,10.82288,12.7071Q10.78814,12.772079999999999,10.7472,12.83335Q10.70626,12.89463,10.65952,12.95159Q10.61277,13.00855,10.56066,13.06066Q10.50855,13.112770000000001,10.45159,13.15952Q10.39463,13.20626,10.33335,13.2472Q10.272079999999999,13.28814,10.2071,13.32288Q10.14211,13.35762,10.07402,13.385819999999999Q10.005939999999999,13.41402,9.93543,13.435410000000001Q9.86491,13.456800000000001,9.79264,13.47118Q9.72036,13.48555,9.64703,13.49278Q9.57369,13.5,9.5,13.5Q9.42631,13.5,9.35297,13.49278Q9.27964,13.48555,9.20736,13.47118Q9.13509,13.456800000000001,9.06457,13.435410000000001Q8.994056,13.41402,8.925975,13.385819999999999Q8.857894,13.35762,8.792905,13.32288Q8.727916,13.28814,8.666645,13.2472Q8.605373,13.20626,8.54841,13.15952Q8.491447,13.112770000000001,8.43934,13.06066Q8.387233,13.00855,8.340484,12.95159Q8.293735999999999,12.89463,8.252796,12.83335Q8.211855,12.772079999999999,8.177118,12.7071Q8.142381,12.642109999999999,8.114181,12.57402Q8.0859806,12.505939999999999,8.0645895,12.43543Q8.0431983,12.36491,8.0288221,12.292629999999999Q8.0144458,12.22036,8.00722291,12.14703Q8,12.07369,8,12Q8,11.92631,8.00722291,11.85297Q8.0144458,11.77964,8.0288221,11.707360000000001Q8.0431983,11.63509,8.0645895,11.56457Q8.0859806,11.494060000000001,8.114181,11.42597Q8.142381,11.357890000000001,8.177118,11.2929Q8.211855,11.227920000000001,8.252796,11.166640000000001Q8.293735999999999,11.10537,8.340484,11.04841Q8.387233,10.99145,8.43934,10.93934Q8.491447,10.887229999999999,8.54841,10.84048Q8.605373,10.79374,8.666645,10.7528Q8.727916,10.71185,8.792905,10.67712Q8.857894,10.64238,8.925975,10.614180000000001Q8.994056,10.58598,9.06457,10.564589999999999Q9.13509,10.543199999999999,9.20736,10.52882Q9.27964,10.51445,9.35297,10.50722Q9.42631,10.5,9.5,10.5Q9.57369,10.5,9.64703,10.50722Q9.72036,10.51445,9.79264,10.52882Q9.86491,10.543199999999999,9.93543,10.564589999999999Q10.005939999999999,10.58598,10.07402,10.614180000000001Q10.14211,10.64238,10.2071,10.67712Q10.272079999999999,10.71185,10.333359999999999,10.7528Q10.39463,10.79374,10.45159,10.84048Q10.50855,10.887229999999999,10.56066,10.93934Q10.61277,10.99145,10.65952,11.04841Q10.70626,11.10537,10.7472,11.166640000000001Q10.78814,11.227920000000001,10.82288,11.2929Q10.85762,11.357890000000001,10.885819999999999,11.42597Q10.91402,11.494060000000001,10.935410000000001,11.56457Q10.9568,11.63509,10.97118,11.707360000000001Q10.98555,11.77964,10.99278,11.85297Q11,11.92631,11,12ZM16,12Q16,12.07369,15.99278,12.14703Q15.98555,12.22036,15.97118,12.292629999999999Q15.956800000000001,12.36491,15.935410000000001,12.43543Q15.91402,12.505939999999999,15.885819999999999,12.57402Q15.85762,12.642109999999999,15.82288,12.7071Q15.78814,12.772079999999999,15.7472,12.83335Q15.70626,12.89463,15.65952,12.95159Q15.612770000000001,13.00855,15.56066,13.06066Q15.50855,13.112770000000001,15.45159,13.15952Q15.39463,13.20626,15.33335,13.2472Q15.272079999999999,13.28814,15.2071,13.32288Q15.142109999999999,13.35762,15.07402,13.385819999999999Q15.005939999999999,13.41402,14.93543,13.435410000000001Q14.86491,13.456800000000001,14.792629999999999,13.47118Q14.72036,13.48555,14.64703,13.49278Q14.57369,13.5,14.5,13.5Q14.42631,13.5,14.35297,13.49278Q14.27964,13.48555,14.207360000000001,13.47118Q14.13509,13.456800000000001,14.06457,13.435410000000001Q13.994060000000001,13.41402,13.92597,13.385819999999999Q13.857890000000001,13.35762,13.7929,13.32288Q13.727920000000001,13.28814,13.666640000000001,13.2472Q13.60537,13.20626,13.54841,13.15952Q13.49145,13.112770000000001,13.43934,13.06066Q13.387229999999999,13.00855,13.34048,12.95159Q13.29374,12.89463,13.2528,12.83335Q13.21185,12.772079999999999,13.17712,12.7071Q13.14238,12.642109999999999,13.114180000000001,12.57402Q13.08598,12.505939999999999,13.064589999999999,12.43543Q13.043199999999999,12.36491,13.02882,12.292629999999999Q13.01445,12.22036,13.00722,12.14703Q13,12.07369,13,12Q13,11.92631,13.00722,11.85297Q13.01445,11.77964,13.02882,11.707360000000001Q13.043199999999999,11.63509,13.064589999999999,11.56457Q13.08598,11.494060000000001,13.114180000000001,11.42597Q13.14238,11.357890000000001,13.17712,11.2929Q13.21185,11.227920000000001,13.2528,11.166640000000001Q13.29374,11.10537,13.34048,11.04841Q13.387229999999999,10.99145,13.43934,10.93934Q13.49145,10.887229999999999,13.54841,10.84048Q13.60537,10.79374,13.666640000000001,10.7528Q13.727920000000001,10.71185,13.7929,10.67712Q13.857890000000001,10.64238,13.92597,10.614180000000001Q13.994060000000001,10.58598,14.06457,10.564589999999999Q14.13509,10.543199999999999,14.207360000000001,10.52882Q14.27964,10.51445,14.35297,10.50722Q14.42631,10.5,14.5,10.5Q14.57369,10.5,14.64703,10.50722Q14.72036,10.51445,14.792629999999999,10.52882Q14.86491,10.543199999999999,14.93543,10.564589999999999Q15.005939999999999,10.58598,15.07402,10.614180000000001Q15.142109999999999,10.64238,15.2071,10.67712Q15.272079999999999,10.71185,15.33335,10.7528Q15.39463,10.79374,15.45159,10.84048Q15.50855,10.887229999999999,15.56066,10.93934Q15.612770000000001,10.99145,15.65952,11.04841Q15.70626,11.10537,15.7472,11.166640000000001Q15.78814,11.227920000000001,15.82288,11.2929Q15.85762,11.357890000000001,15.885819999999999,11.42597Q15.91402,11.494060000000001,15.935410000000001,11.56457Q15.956800000000001,11.63509,15.97118,11.707360000000001Q15.98555,11.77964,15.99278,11.85297Q16,11.92631,16,12ZM11,17Q11,17.073700000000002,10.99278,17.147Q10.98555,17.220399999999998,10.97118,17.2926Q10.9568,17.3649,10.935410000000001,17.4354Q10.91402,17.5059,10.885819999999999,17.573999999999998Q10.85762,17.6421,10.82288,17.7071Q10.78814,17.772100000000002,10.7472,17.833399999999997Q10.70626,17.8946,10.65952,17.9516Q10.61277,18.0086,10.56066,18.0607Q10.50855,18.1128,10.45159,18.1595Q10.39463,18.2063,10.33335,18.2472Q10.272079999999999,18.2881,10.2071,18.3229Q10.14211,18.357599999999998,10.07402,18.3858Q10.005939999999999,18.414,9.93543,18.4354Q9.86491,18.4568,9.79264,18.4712Q9.72036,18.485599999999998,9.64703,18.492800000000003Q9.57369,18.5,9.5,18.5Q9.42631,18.5,9.35297,18.492800000000003Q9.27964,18.485599999999998,9.20736,18.4712Q9.13509,18.4568,9.06457,18.4354Q8.994056,18.414,8.925975,18.3858Q8.857894,18.357599999999998,8.792905,18.3229Q8.727916,18.2881,8.666645,18.2472Q8.605373,18.2063,8.54841,18.1595Q8.491447,18.1128,8.43934,18.0607Q8.387233,18.0086,8.340484,17.9516Q8.293735999999999,17.8946,8.252796,17.833399999999997Q8.211855,17.772100000000002,8.177118,17.7071Q8.142381,17.6421,8.114181,17.573999999999998Q8.0859806,17.5059,8.0645895,17.4354Q8.0431983,17.3649,8.0288221,17.2926Q8.0144458,17.220399999999998,8.00722291,17.147Q8,17.073700000000002,8,17Q8,16.926299999999998,8.00722291,16.853Q8.0144458,16.779600000000002,8.0288221,16.7074Q8.0431983,16.6351,8.0645895,16.5646Q8.0859806,16.4941,8.114181,16.426000000000002Q8.142381,16.3579,8.177118,16.2929Q8.211855,16.227899999999998,8.252796,16.166600000000003Q8.293735999999999,16.1054,8.340484,16.0484Q8.387233,15.9914,8.43934,15.9393Q8.491447,15.8872,8.54841,15.8405Q8.605373,15.7937,8.666645,15.7528Q8.727916,15.7119,8.792905,15.6771Q8.857894,15.6424,8.925975,15.6142Q8.994056,15.586,9.06457,15.5646Q9.13509,15.5432,9.20736,15.5288Q9.27964,15.5144,9.35297,15.5072Q9.42631,15.5,9.5,15.5Q9.57369,15.5,9.64703,15.5072Q9.72036,15.5144,9.79264,15.5288Q9.86491,15.5432,9.93543,15.5646Q10.005939999999999,15.586,10.07402,15.6142Q10.14211,15.6424,10.2071,15.6771Q10.272079999999999,15.7119,10.333359999999999,15.7528Q10.39463,15.7937,10.45159,15.8405Q10.50855,15.8872,10.56066,15.9393Q10.61277,15.9914,10.65952,16.0484Q10.70626,16.1054,10.7472,16.166600000000003Q10.78814,16.227899999999998,10.82288,16.2929Q10.85762,16.3579,10.885819999999999,16.426000000000002Q10.91402,16.4941,10.935410000000001,16.5646Q10.9568,16.6351,10.97118,16.7074Q10.98555,16.779600000000002,10.99278,16.853Q11,16.926299999999998,11,17ZM16,17Q16,17.073700000000002,15.99278,17.147Q15.98555,17.220399999999998,15.97118,17.2926Q15.956800000000001,17.3649,15.935410000000001,17.4354Q15.91402,17.5059,15.885819999999999,17.573999999999998Q15.85762,17.6421,15.82288,17.7071Q15.78814,17.772100000000002,15.7472,17.833399999999997Q15.70626,17.8946,15.65952,17.9516Q15.612770000000001,18.0086,15.56066,18.0607Q15.50855,18.1128,15.45159,18.1595Q15.39463,18.2063,15.33335,18.2472Q15.272079999999999,18.2881,15.2071,18.3229Q15.142109999999999,18.357599999999998,15.07402,18.3858Q15.005939999999999,18.414,14.93543,18.4354Q14.86491,18.4568,14.792629999999999,18.4712Q14.72036,18.485599999999998,14.64703,18.492800000000003Q14.57369,18.5,14.5,18.5Q14.42631,18.5,14.35297,18.492800000000003Q14.27964,18.485599999999998,14.207360000000001,18.4712Q14.13509,18.4568,14.06457,18.4354Q13.994060000000001,18.414,13.92597,18.3858Q13.857890000000001,18.357599999999998,13.7929,18.3229Q13.727920000000001,18.2881,13.666640000000001,18.2472Q13.60537,18.2063,13.54841,18.1595Q13.49145,18.1128,13.43934,18.0607Q13.387229999999999,18.0086,13.34048,17.9516Q13.29374,17.8946,13.2528,17.833399999999997Q13.21185,17.772100000000002,13.17712,17.7071Q13.14238,17.6421,13.114180000000001,17.573999999999998Q13.08598,17.5059,13.064589999999999,17.4354Q13.043199999999999,17.3649,13.02882,17.2926Q13.01445,17.220399999999998,13.00722,17.147Q13,17.073700000000002,13,17Q13,16.926299999999998,13.00722,16.853Q13.01445,16.779600000000002,13.02882,16.7074Q13.043199999999999,16.6351,13.064589999999999,16.5646Q13.08598,16.4941,13.114180000000001,16.426000000000002Q13.14238,16.3579,13.17712,16.2929Q13.21185,16.227899999999998,13.2528,16.166600000000003Q13.29374,16.1054,13.34048,16.0484Q13.387229999999999,15.9914,13.43934,15.9393Q13.49145,15.8872,13.54841,15.8405Q13.60537,15.7937,13.666640000000001,15.7528Q13.727920000000001,15.7119,13.7929,15.6771Q13.857890000000001,15.6424,13.92597,15.6142Q13.994060000000001,15.586,14.06457,15.5646Q14.13509,15.5432,14.207360000000001,15.5288Q14.27964,15.5144,14.35297,15.5072Q14.42631,15.5,14.5,15.5Q14.57369,15.5,14.64703,15.5072Q14.72036,15.5144,14.792629999999999,15.5288Q14.86491,15.5432,14.93543,15.5646Q15.005939999999999,15.586,15.07402,15.6142Q15.142109999999999,15.6424,15.2071,15.6771Q15.272079999999999,15.7119,15.33335,15.7528Q15.39463,15.7937,15.45159,15.8405Q15.50855,15.8872,15.56066,15.9393Q15.612770000000001,15.9914,15.65952,16.0484Q15.70626,16.1054,15.7472,16.166600000000003Q15.78814,16.227899999999998,15.82288,16.2929Q15.85762,16.3579,15.885819999999999,16.426000000000002Q15.91402,16.4941,15.935410000000001,16.5646Q15.956800000000001,16.6351,15.97118,16.7074Q15.98555,16.779600000000002,15.99278,16.853Q16,16.926299999999998,16,17Z" fill="#999999" fill-opacity="1"/></g></g></svg>