<svg xmlns="http://www.w3.org/2000/svg" xmlns:xlink="http://www.w3.org/1999/xlink" fill="none" version="1.1" width="16" height="16" viewBox="0 0 16 16"><g><g><path d="M3.7305253125,2.6697432421875L8.0001953125,6.9394132421875L12.2694053125,2.6702052421875L12.2694053125,2.6702052421875C12.4105153125,2.5290908421875,12.6012953125,2.4500732421875,12.8001953125,2.4500732421875C12.9957953125,2.4500732421875,13.1835953125,2.5264495421875,13.3235953125,2.6629232421875C13.3235953125,2.6629232421875,13.3304953125,2.6697432421875,13.3304953125,2.6697432421875C13.4711953125,2.8103952421875,13.5501953125,3.0011612421875,13.5501953125,3.2000732421875C13.5501953125,3.3989852421875,13.4711953125,3.5897532421875002,13.3304953125,3.7304032421875L13.3304953125,3.7304032421875L9.0608553125,8.0000732421875L13.3297953125,12.2690532421875L13.3297953125,12.2690532421875C13.4710953125,12.4103332421875,13.5500953125,12.6010732421875,13.5500953125,12.7999732421875C13.5500953125,12.9989732421875,13.4710953125,13.1896732421875,13.3304953125,13.3303732421875C13.1897953125,13.4709732421875,12.9990953125,13.5499732421875,12.8000953125,13.5499732421875C12.6011953125,13.5499732421875,12.4104553125,13.4709732421875,12.2698053125,13.3303732421875L12.2698053125,13.3303732421875L8.0001953125,9.0607332421875L3.7310453125,13.3298732421875L3.7310453125,13.3298732421875C3.5899353124999998,13.4709732421875,3.3991683125,13.5499732421875,3.2002553125,13.5499732421875C3.0013433125,13.5499732421875,2.8105773125,13.4709732421875,2.6699253125,13.3303732421875C2.5380836125,13.1984732421875,2.4600778225,13.0222732421875,2.4511213305,12.8360732421875C2.4505441785,12.8240732421875,2.4502555132,12.8120732421875,2.4502554536,12.7999732421875C2.4502554536,12.6010732421875,2.5292731125,12.4103332421875,2.6699253125,12.2696832421875L2.6699253125,12.2696832421875L6.9395353125,8.0000732421875L2.6698653125,3.7304032421875C2.5292130125,3.5897532421875002,2.4501953721046,3.3989852421875,2.4501953125,3.2000732421875C2.4501953125,3.0011612421875,2.5292129125,2.8103952421875,2.6698653125,2.6697432421875C2.8105173125,2.5290908421875,3.0012833125,2.4500732421875,3.2001953125,2.4500733017921C3.3991073125,2.4500733017921,3.5898753125000002,2.5290909421875,3.7305253125,2.6697432421875Z" fill-rule="evenodd" fill="#333333" fill-opacity="1"/></g></g></svg>