<svg xmlns="http://www.w3.org/2000/svg" xmlns:xlink="http://www.w3.org/1999/xlink" fill="none" version="1.1" width="84.5" height="84.5" viewBox="0 0 84.5 84.5"><defs><filter id="master_svg0_880_06171" filterUnits="objectBoundingBox" color-interpolation-filters="sRGB" x="-32" y="-28" width="84" height="84"><feFlood flood-opacity="0" result="BackgroundImageFix"/><feColorMatrix in="SourceAlpha" type="matrix" values="0 0 0 0 0 0 0 0 0 0 0 0 0 0 0 0 0 0 127 0"/><feOffset dy="4" dx="0"/><feGaussianBlur stdDeviation="8"/><feColorMatrix type="matrix" values="0 0 0 0 0 0 0 0 0 0 0 0 0 0 0 0 0 0 0.07000000029802322 0"/><feBlend mode="normal" in2="BackgroundImageFix" result="effect1_dropShadow"/><feBlend mode="normal" in="SourceGraphic" in2="effect1_dropShadow" result="shape"/></filter><clipPath id="master_svg1_880_06171"><rect x="32" y="28" width="20.5" height="20.5" rx="4"/></clipPath></defs><g filter="url(#master_svg0_880_06171)"><g clip-path="url(#master_svg1_880_06171)"><rect x="32.25" y="28.25" width="20" height="20" rx="4" fill="#FFFFFF" fill-opacity="1"/><g><g><path d="M39.125,33.75L43.68125,33.75Q43.73049,33.75,43.77879,33.740393Q43.82709,33.730785,43.87259,33.71194Q43.91809,33.693094,43.95903,33.665735Q43.99998,33.638375,44.0348,33.603553Q44.06962,33.568731,44.09698,33.527785Q44.124340000000004,33.486839,44.14319,33.441342Q44.16203,33.395845,44.17164,33.3475451Q44.18125,33.2992457,44.18125,33.25Q44.18125,33.2007543,44.17164,33.1524549Q44.16203,33.104155,44.14319,33.058658Q44.124340000000004,33.013161,44.09698,32.972215Q44.06962,32.931269,44.0348,32.896447Q43.99998,32.861625,43.95903,32.834265Q43.91809,32.806906,43.87259,32.78806Q43.82709,32.769215,43.77879,32.759607Q43.73049,32.75,43.68125,32.75L39.125,32.75Q38.141243,32.75,37.445621,33.445621Q36.75,34.141243,36.75,35.125L36.75,41.375Q36.75,42.358760000000004,37.445621,43.05438Q38.141242,43.75,39.125,43.75L45.375,43.75Q46.358760000000004,43.75,47.05438,43.05438Q47.75,42.358760000000004,47.75,41.375L47.75,36.81875Q47.75,36.7695,47.7404,36.7212Q47.7308,36.6729,47.7119,36.62741Q47.6931,36.58191,47.6657,36.54096Q47.638400000000004,36.50002,47.6036,36.4652Q47.5687,36.430369999999996,47.5278,36.40301Q47.4868,36.375659999999996,47.4413,36.35681Q47.3958,36.33796,47.3475,36.32836Q47.2992,36.31875,47.25,36.31875Q47.20075,36.31875,47.15245,36.32836Q47.104150000000004,36.33796,47.05866,36.35681Q47.01316,36.375659999999996,46.972210000000004,36.40301Q46.93127,36.430369999999996,46.89645,36.4652Q46.86162,36.50002,46.83426,36.54096Q46.8069,36.58191,46.78806,36.62741Q46.76921,36.6729,46.75961,36.7212Q46.75,36.7695,46.75,36.81875L46.75,41.375Q46.75,41.94454,46.34727,42.34727Q45.94454,42.75,45.375,42.75L39.125,42.75Q38.55546,42.75,38.152728,42.34727Q37.75,41.94454,37.75,41.375L37.75,35.125Q37.75,34.55546,38.152728,34.152728Q38.55546,33.75,39.125,33.75Z" fill-rule="evenodd" fill="#333333" fill-opacity="1"/></g><g><path d="M41.0377285,38.6685L46.3064775,33.3372469C46.5520975,33.1917855,46.8650575,33.2312233,47.066897499999996,33.433072C47.2687575,33.634921,47.3081875,33.947881,47.1627275,34.193497L41.8314785,39.46225C41.6086245,39.65737,41.2726385,39.64623,41.0631915,39.43679C40.8537448,39.22734,40.8426094,38.89135,41.0377285,38.6685Z" fill="#333333" fill-opacity="1"/></g></g><rect x="32.25" y="28.25" width="20" height="20" rx="4" fill-opacity="0" stroke-opacity="1" stroke="#E8E9EB" fill="none" stroke-width="0.5"/></g></g></svg>