<svg xmlns="http://www.w3.org/2000/svg" xmlns:xlink="http://www.w3.org/1999/xlink" fill="none" version="1.1" width="16" height="16" viewBox="0 0 16 16"><g><g><path d="M14.4003,2.2170835L13.6003,1.5370835C13.3632,1.3294811,13.0015,1.3584171,12.8003,1.6010835L11.94434,2.6010875L13.6003,4.001087500000001L14.4003,3.0010874999999997C14.6138,2.7833275,14.6138,2.4348375,14.4003,2.2170835ZM4.14398,3.5760975L8.768,3.5760975C9.09937,3.5760975,9.368,3.3074675,9.368,2.9760975C9.368,2.6447275,9.09937,2.3760985,8.768,2.3760985L4.14398,2.3760985Q3.2559,2.3760985,2.627958,3.0040775Q2.0000343323,3.6320375,2.0000343323,4.5201075L2.0000343323,12.2320375Q1.99538803,13.1202375,2.625594,13.7504375Q3.25582,14.3807375,4.14711,14.3760375L11.85589,14.3760375Q12.744,14.3760375,13.3719,13.7481375Q13.9998,13.1201375,13.9998,12.2320375L13.9998,8.376127499999999C13.9998,8.0447475,13.7312,7.7761275,13.3998,7.7761275C13.0685,7.7761275,12.7998,8.0447475,12.7998,8.376127499999999L12.7998,12.2320375Q12.7998,12.6231375,12.5234,12.8996375Q12.2469,13.1760375,11.85589,13.1760375L4.14085,13.1761375Q3.7503,13.1781375,3.4741400000000002,12.9019375Q3.19799,12.6258375,3.20003,12.2320375L3.20003,4.5201075Q3.20003,4.1290675,3.47651,3.8525775Q3.75298,3.5760975,4.14398,3.5760975ZM7.84781,7.4891075C7.66801,7.6984075,7.54173,7.9482275,7.47981,8.217107500000001L7.00781,10.2011075L8.87181,9.4011075C9.12689,9.2904375,9.35181,9.1203775,9.527809999999999,8.9051075L13.1358,4.6171074999999995L11.44781,3.2011075L7.84781,7.4891075Z" fill-rule="evenodd" fill="#1D74F5" fill-opacity="1"/></g></g></svg>