<svg xmlns="http://www.w3.org/2000/svg" xmlns:xlink="http://www.w3.org/1999/xlink" fill="none" version="1.1" width="20" height="20" viewBox="0 0 20 20"><defs><clipPath id="master_svg0_282_1368"><rect x="0" y="0" width="20" height="20" rx="0"/></clipPath></defs><g clip-path="url(#master_svg0_282_1368)"><g><g><path d="M6.18182,4.610909L11.72364,4.610909Q11.7838,4.610909,11.84282,4.599171Q11.90183,4.587432,11.957419999999999,4.564406Q12.01301,4.541381,12.06304,4.5079519999999995Q12.11307,4.474524,12.15561,4.431978Q12.19816,4.389432,12.23159,4.339403Q12.26502,4.2893740000000005,12.28804,4.233785Q12.31107,4.178196,12.32281,4.119182Q12.33454,4.0601693,12.33455,4Q12.33454,3.9398307,12.32281,3.880818Q12.31107,3.821804,12.28804,3.766215Q12.26502,3.710626,12.23159,3.660597Q12.19816,3.6105679999999998,12.15561,3.568022Q12.11307,3.525476,12.06304,3.492048Q12.01301,3.458619,11.957419999999999,3.435594Q11.90183,3.4125680000000003,11.84282,3.400829Q11.7838,3.389091,11.72364,3.389091L6.18182,3.389091Q5.02503,3.389091,4.207062,4.207062Q3.389091,5.02503,3.389091,6.18182L3.389091,13.81818Q3.389091,14.975,4.207062,15.7929Q5.02503,16.6109,6.18182,16.6109L13.81818,16.6109Q14.975,16.6109,15.7929,15.7929Q16.6109,14.975,16.6109,13.81818L16.6109,8.27636Q16.6109,8.216190000000001,16.5992,8.15718Q16.587400000000002,8.09817,16.5644,8.042580000000001Q16.5414,7.9869900000000005,16.5079,7.93696Q16.4745,7.8869299999999996,16.432000000000002,7.844390000000001Q16.389400000000002,7.80184,16.339399999999998,7.768409999999999Q16.2894,7.73498,16.233800000000002,7.7119599999999995Q16.1782,7.68893,16.1192,7.6771899999999995Q16.060200000000002,7.66545,16,7.66545Q15.9398,7.66545,15.8808,7.6771899999999995Q15.8218,7.68893,15.7662,7.7119599999999995Q15.7106,7.73498,15.6606,7.768409999999999Q15.6106,7.80184,15.568,7.844390000000001Q15.5255,7.8869299999999996,15.492,7.93696Q15.4586,7.9869900000000005,15.4356,8.042580000000001Q15.4126,8.09817,15.4008,8.15718Q15.3891,8.216190000000001,15.3891,8.27636L15.3891,13.81818Q15.3891,14.4689,14.929,14.929Q14.4689,15.3891,13.81818,15.3891L6.18182,15.3891Q5.53113,15.3891,5.07102,14.929Q4.610909,14.4689,4.610909,13.81818L4.610909,6.18182Q4.610909,5.53113,5.07102,5.07102Q5.53113,4.610909,6.18182,4.610909Z" fill-rule="evenodd" fill="#666666" fill-opacity="1"/></g><g><path d="M8.175443,10.8248L14.811630000000001,4.109891C15.120989999999999,3.9266766,15.51518,3.9763501,15.76941,4.230586C16.02365,4.484822,16.073320000000002,4.879008,15.89011,5.18837L9.1752,11.82456C8.894507,12.07032,8.471321,12.05629,8.207514,11.79249C7.9437078,11.52868,7.9296824,11.1055,8.175443,10.8248Z" fill="#666666" fill-opacity="1"/></g></g></g></svg>