<svg xmlns="http://www.w3.org/2000/svg" xmlns:xlink="http://www.w3.org/1999/xlink" fill="none" version="1.1" width="16" height="16" viewBox="0 0 16 16"><defs><clipPath id="master_svg0_3759_00894"><rect x="0" y="0" width="16" height="16" rx="0"/></clipPath></defs><g clip-path="url(#master_svg0_3759_00894)"><g><ellipse cx="8.00093698501587" cy="8.000937461853027" rx="6.664999485015869" ry="6.664999961853027" fill="#999999" fill-opacity="1"/></g><g><path d="M5.5,7.398046875L10.5,7.398046875Q10.559090000000001,7.398046875,10.617049999999999,7.409575875Q10.67501,7.421104875,10.729610000000001,7.443718875Q10.78421,7.466333875,10.83334,7.499164875Q10.882480000000001,7.531996875,10.92426,7.573782875Q10.96605,7.615568875,10.99888,7.664704875Q11.03171,7.713839875,11.05433,7.768436875Q11.07694,7.823032875,11.088470000000001,7.880992875Q11.1,7.9389520749999996,11.1,7.998046875Q11.1,8.057141675,11.088470000000001,8.115100875Q11.07694,8.173060875000001,11.05433,8.227656875Q11.03171,8.282253875,10.99888,8.331388875Q10.96605,8.380524875,10.92426,8.422310875Q10.882480000000001,8.464096875,10.83334,8.496928875Q10.78421,8.529759875,10.729610000000001,8.552374875Q10.67501,8.574988875,10.617049999999999,8.586517875Q10.559090000000001,8.598046875,10.5,8.598046875L5.5,8.598046875Q5.4409051999999996,8.598046875,5.382946,8.586517875Q5.324986,8.574988875,5.27039,8.552374875Q5.215793,8.529759875,5.166658,8.496928875Q5.117522,8.464096875,5.075736,8.422310875Q5.03395,8.380524875,5.001118,8.331388875Q4.968287,8.282253875,4.945672,8.227656875Q4.923058,8.173060875000001,4.911529,8.115100875Q4.9,8.057141675,4.9,7.998046875Q4.9,7.9389520749999996,4.911529,7.880992875Q4.923058,7.823032875,4.945672,7.768436875Q4.968287,7.713839875,5.001118,7.664704875Q5.03395,7.615568875,5.075736,7.573782875Q5.117522,7.531996875,5.166658,7.499164875Q5.215793,7.466333875,5.27039,7.443718875Q5.324986,7.421104875,5.382946,7.409575875Q5.4409051999999996,7.398046875,5.5,7.398046875Z" fill-rule="evenodd" fill="#FFFFFF" fill-opacity="1"/></g></g></svg>