<svg xmlns="http://www.w3.org/2000/svg" xmlns:xlink="http://www.w3.org/1999/xlink" fill="none" version="1.1" width="14" height="14" viewBox="0 0 14 14"><g><g><path d="M7,13.125C10.38274,13.125,13.125,10.38274,13.125,7C13.125,3.61726,10.38274,0.875,7,0.875C3.61726,0.875,0.875,3.61726,0.875,7C0.875,10.38274,3.61726,13.125,7,13.125ZM7.51161,7.91635L7.74366,4.48915C7.74366,4.078390000000001,7.41068,3.7454,6.99991,3.7454C6.58915,3.7454,6.25616,4.078390000000001,6.25616,4.48915L6.48821,7.91635C6.48821,8.19895,6.71731,8.428049999999999,6.99991,8.428049999999999C7.28252,8.428049999999999,7.51161,8.19895,7.51161,7.91635ZM6.99981,10.25467C7.34813,10.25467,7.63051,9.9723,7.63051,9.62398C7.63051,9.27565,7.34813,8.99327,6.99981,8.99327C6.65148,8.99327,6.36911,9.27565,6.36911,9.62398C6.36911,9.9723,6.65148,10.25467,6.99981,10.25467Z" fill-rule="evenodd" fill="#FD4C4C" fill-opacity="1"/></g></g></svg>