<svg xmlns="http://www.w3.org/2000/svg" xmlns:xlink="http://www.w3.org/1999/xlink" fill="none" version="1.1" width="35" height="40" viewBox="0 0 35 40"><g><g><path d="M0,2.5L0,37.5C0,38.8807,1.11929,40,2.5,40L32.5,40C33.8807,40,35,38.8807,35,37.5L35,12L29,6L23,0L2.5,0C1.11929,0,0,1.11929,0,2.5Z" fill="#3D7B4F" fill-opacity="1"/></g><g><path d="M11.767143875,21.3372802734375L16.245441875,27.7782502734375L11.451171875,34.6627802734375L13.930341875,34.6627802734375L17.497181875,29.3824202734375L21.064021875,34.6627802734375L23.549271875000002,34.6627802734375L18.712451875,27.7782502734375L23.227171875,21.3372802734375L20.748051875,21.3372802734375L17.497181875,26.1558602734375L14.252391875,21.3372802734375L11.767143875,21.3372802734375Z" fill="#FFFFFF" fill-opacity="1"/></g><g><path d="M23,9.5C23,10.8807,24.11929,12,25.5,12L35,12L23,0L23,9.5Z" fill="#FFFFFF" fill-opacity="0.25"/></g></g></svg>