<svg xmlns="http://www.w3.org/2000/svg" xmlns:xlink="http://www.w3.org/1999/xlink" fill="none" version="1.1" width="20" height="20" viewBox="0 0 20 20"><defs><clipPath id="master_svg0_48_112"><rect x="0" y="0" width="20" height="20" rx="0"/></clipPath></defs><g clip-path="url(#master_svg0_48_112)"><g><path d="M14.1458671875,15.03093955078125L15.8336671875,16.718339550781252C16.1265671875,17.011239550781248,16.6011671875,17.011239550781248,16.8940671875,16.718339550781252C17.186967187500002,16.42543955078125,17.186967187500002,15.95063955078125,16.8940671875,15.65773955078125L15.4288671875,14.19253955078125Q15.4689671875,14.16293955078125,15.5091671875,14.13293955078125Q17.169267187499997,12.89185955078125,18.4568671875,11.28229955078125Q18.7250671875,10.95344955078125,18.7250671875,10.529079550781251Q18.7250671875,10.10470955078125,18.4644671875,9.78535955078125Q17.193667187499997,8.17457955078125,15.5053671875,6.91537955078125Q12.7137671875,4.83323955078125,10.0007371875,4.83323955078125Q8.4105471875,4.83323955078125,6.7898971875,5.5535695507812495L4.7586271875,3.52270955078125C4.4657371875,3.22981675078125,3.9911371875,3.22981595078125,3.6982471875,3.52270955078125C3.5575871875,3.66336255078125,3.4785171875,3.85414155078125,3.4785171875,4.05305355078125C3.4785171875,4.25196555078125,3.5575871875,4.44269955078125,3.6982471875,4.58334955078125L5.4093771875,6.29436955078125Q5.4076171875,6.295469550781251,5.4058671875,6.29656955078125L7.1597371875,8.050439550781249Q7.1610671875,8.04891955078125,7.1624071875,8.04739955078125L7.9902471875,8.87524955078125Q7.9889571875,8.87680955078125,7.9876771875,8.87837955078125L11.6224671875,12.51311955078125Q11.6239671875,12.51183955078125,11.6255671875,12.51054955078125L12.4533671875,13.33843955078125Q12.4518671875,13.33973955078125,12.4503671875,13.34103955078125L14.1422671875,15.03293955078125Q14.1440671875,15.03193955078125,14.1458671875,15.03093955078125ZM13.3825671875,12.14627955078125Q13.7508671875,11.39935955078125,13.7508671875,10.499899550781251Q13.7508671875,8.94660955078125,12.6525671875,7.84825955078125Q11.5541671875,6.7499095507812505,10.0008971875,6.7499095507812505Q9.1014271875,6.7499095507812505,8.3545171875,7.1181995507812506L9.2554571875,8.019129550781251Q9.6069371875,7.91656955078125,10.0008971875,7.91656955078125Q11.0709471875,7.91656955078125,11.8275671875,8.67320955078125Q12.5842671875,9.429849550781249,12.5842671875,10.499899550781251Q12.5842671875,10.89385955078125,12.4816671875,11.24533955078125L13.3825671875,12.14627955078125ZM11.4363671875,13.97703955078125L13.0387671875,15.57933955078125Q11.5060671875,16.22493955078125,10.0007371875,16.22493955078125Q7.2927971875,16.22493955078125,4.4981171875,14.13263955078125Q2.8844871875,12.92448955078125,1.5446661875,11.28238955078125Q1.2763671875,10.95339955078125,1.2763671875,10.52906955078125Q1.2763671875,10.10470955078125,1.5445891875,9.775859550781249Q2.8082971875,8.196179550781249,4.4308271875,6.97144955078125L6.5237971875,9.064419550781249Q6.2508971875,9.72563955078125,6.2508971875,10.499899550781251Q6.2508971875,12.05319955078125,7.3492471875,13.15154955078125Q8.447597187500001,14.24993955078125,10.0008971875,14.24993955078125Q10.7751571875,14.24993955078125,11.4363671875,13.97703955078125ZM7.4615371875,10.00215955078125L10.4986371875,13.03925955078125Q10.2588771875,13.08323955078125,10.0008971875,13.08323955078125Q8.9308471875,13.08323955078125,8.1742071875,12.32658955078125Q7.4175571875,11.56994955078125,7.4175571875,10.499899550781251Q7.4175571875,10.241919550781251,7.4615371875,10.00215955078125Z" fill-rule="evenodd" fill="#999999" fill-opacity="1"/></g></g></svg>