<svg xmlns="http://www.w3.org/2000/svg" xmlns:xlink="http://www.w3.org/1999/xlink" fill="none" version="1.1" width="20" height="20" viewBox="0 0 20 20"><defs><clipPath id="master_svg0_48_120"><rect x="0" y="0" width="20" height="20" rx="0"/></clipPath></defs><g clip-path="url(#master_svg0_48_120)"><g><path d="M10.0007371875,4.35833740234375Q12.7138671875,4.35833740234375,15.5016671875,6.44080740234375Q17.1826671875,7.69652740234375,18.4561671875,9.310417402343749Q18.7167671875,9.62980740234375,18.7167671875,10.05416740234375Q18.7167671875,10.47850740234375,18.4485671875,10.80735740234375Q17.1584671875,12.42008740234375,15.5053671875,13.65768740234375Q12.7107671875,15.75003740234375,10.0007371875,15.75003740234375Q7.2917971875,15.75003740234375,4.4952371875,13.65785740234375Q2.8581771875,12.43312740234375,1.5424121875,10.804717402343751Q1.2763671875,10.47855740234375,1.2763671875,10.05417740234375Q1.2763671875,9.62980740234375,1.5445891875,9.300967402343751Q2.8321971875000003,7.69139740234375,4.4923271875,6.45034740234375Q7.2907671875,4.35833740234375,10.0007371875,4.35833740234375ZM13.7507671875,10.02483740234375Q13.7507671875,11.57813740234375,12.6523671875,12.67648740234375Q11.5540671875,13.77483740234375,10.0007271875,13.77483740234375Q8.4474371875,13.77483740234375,7.3490771875,12.67648740234375Q6.2507271875,11.57813740234375,6.2507271875,10.02483740234375Q6.2507271875,8.471537402343749,7.3490771875,7.37318740234375Q8.4474271875,6.27483740234375,10.0007271875,6.27483740234375Q11.5540671875,6.27483740234375,12.6523671875,7.37318740234375Q13.7507671875,8.471537402343749,13.7507671875,10.02483740234375ZM12.5840671875,10.02483740234375Q12.5840671875,8.95478740234375,11.8274671875,8.19814740234375Q11.0707871875,7.44150740234375,10.0007271875,7.44150740234375Q8.930677187499999,7.44150740234375,8.1740371875,8.19814740234375Q7.4173971875,8.95478740234375,7.4173971875,10.02483740234375Q7.4173971875,11.09489740234375,8.1740371875,11.85153740234375Q8.930677187499999,12.60817740234375,10.0007271875,12.60817740234375Q11.0707871875,12.60817740234375,11.8274671875,11.85153740234375Q12.5840671875,11.09489740234375,12.5840671875,10.02483740234375Z" fill-rule="evenodd" fill="#999999" fill-opacity="1"/></g></g></svg>