<svg xmlns="http://www.w3.org/2000/svg" xmlns:xlink="http://www.w3.org/1999/xlink" fill="none" version="1.1" width="16" height="16" viewBox="0 0 16 16"><g><g><path d="M13.05589765625,2.9441655859375Q10.96169765625,0.8499755859375,8.00009765625,0.8499755859375Q5.03846765625,0.8499755859375,2.94428765625,2.9441655859375Q0.85009765625,5.0383455859375,0.85009765625,7.9999755859375Q0.85009765625,10.9615755859375,2.94428765625,13.0557755859375Q5.03847765625,15.1499755859375,8.00009765625,15.1499755859375Q10.96169765625,15.1499755859375,13.05589765625,13.0557755859375Q15.15009765625,10.9615755859375,15.15009765625,7.9999755859375Q15.15009765625,5.0383555859375,13.05589765625,2.9441655859375ZM7.18842765625,9.3304055859375L9.58842765625,10.9063755859375C9.71070765625,10.9866755859375,9.85380765625,11.0294755859375,10.00009765625,11.0294755859375L10.00338765625,11.0294755859375C10.25482765625,11.0283755859375,10.48899765625,10.9013755859375,10.62701765625,10.6911655859375C10.70731765625,10.5688855859375,10.75009765625,10.4257855859375,10.75009765625,10.2794955859375L10.75005765625,10.2720555859375C10.74957765625,10.2234155859375,10.74436765625,10.1749255859375,10.73449765625,10.1272955859375C10.69412765625,9.9325155859375,10.57803765625,9.7617555859375,10.41116765625,9.6521855859375L8.35009765625,8.2987455859375L8.35009765625,4.7034955859375C8.35009765625,4.289275585937499,8.01430765625,3.9534955859375,7.60009765625,3.9534955859375C7.18588765625,3.9534955859375,6.85009765625,4.289275585937499,6.85009765625,4.7034955859375L6.85009765625,8.7034955859375C6.85009765625,8.9561055859375,6.97726765625,9.1917455859375,7.18842765625,9.3304055859375Z" fill-rule="evenodd" fill="#666666" fill-opacity="1"/></g></g></svg>