<svg xmlns="http://www.w3.org/2000/svg" xmlns:xlink="http://www.w3.org/1999/xlink" fill="none" version="1.1" width="16" height="16" viewBox="0 0 16 16"><g><g><path d="M7.6249984375,0.70667913671875C7.8570984375,0.57262703671875,8.1433884375,0.57262703671875,8.3754884375,0.70667913671875L13.2231484375,3.50667013671875C13.3370484375,3.57247013671875,13.4317484375,3.66715013671875,13.4975484375,3.78108013671875C13.5970484375,3.95333013671875,13.6242484375,4.15803013671875,13.5727484375,4.35017013671875C13.5213484375,4.54232013671875,13.3953484375,4.70613013671875,13.2231484375,4.80562013671875L8.3754884375,7.60560013671875C8.1433884375,7.73966013671875,7.8570984375,7.73966013671875,7.6249984375,7.60560013671875L2.7768584375,4.80562013671875C2.6629184375,4.73981013671875,2.5687384375,4.64520013671875,2.5029284375,4.53126013671875C2.4034484375,4.35902013671875,2.3762784375,4.15432013671875,2.4277384375,3.96217013671875C2.4791884375,3.77003013671875,2.6046084375,3.60615013671875,2.7768584375,3.50667013671875L7.6249984375,0.70667913671875ZM1.2021484971046,6.24364013671875C1.2021484971046,6.11195013671875,1.2368240375,5.98258013671875,1.3026874375,5.86854013671875C1.5098504375,5.50986013671875,1.9685624375000002,5.38702013671875,2.3272484374999998,5.59418013671875L7.1752484375,8.394180136718749C7.4072384375,8.52817013671875,7.5501484375,8.77573013671875,7.5501484375,9.04364013671875L7.5501484375,14.64364013671875C7.5501484375,14.77534013671875,7.5154684375,14.90474013671875,7.4496084375,15.01874013671875C7.2424484375,15.37744013671875,6.7837384375,15.50024013671875,6.4250484375,15.29314013671875L1.5770474375,12.49314013671875C1.3450534375,12.35914013671875,1.2021484375,12.11154013671875,1.2021484375,11.84364013671875L1.2021484971046,6.24364013671875ZM14.7981484375,11.84364013671875C14.7981484375,12.11154013671875,14.6552484375,12.35914013671875,14.4232484375,12.49314013671875L9.5752984375,15.29314013671875C9.4612584375,15.35894013671875,9.3318884375,15.39364013671875,9.2001984375,15.39364013671875C8.785978437499999,15.39364013671875,8.4501984375,15.05784013671875,8.4501984375,14.64364013671875L8.4501984375,9.04364013671875C8.4501984375,8.77573013671875,8.5930984375,8.52817013671875,8.8250984375,8.394180136718749L13.6730484375,5.59418013671875C13.7871484375,5.52832013671875,13.9165484375,5.49364013671875,14.0481484375,5.49364013671875C14.4624484375,5.49364013671875,14.7981484375,5.82943013671875,14.7981484375,6.24364013671875L14.7981484375,11.84364013671875Z" fill-rule="evenodd" fill="#666666" fill-opacity="1"/></g></g></svg>