<svg xmlns="http://www.w3.org/2000/svg" xmlns:xlink="http://www.w3.org/1999/xlink" fill="none" version="1.1" width="16" height="16" viewBox="0 0 16 16"><g><g><path d="M0.85009765625,12.7999833984375L0.85009765625,3.4079833984375Q0.85009765625,2.4345833984375,1.53839665625,1.7462823984375Q2.22669765625,1.0579833984375,3.20009765625,1.0579835176465L12.80009765625,1.0579833984375Q13.77349765625,1.0579833984375,14.46179765625,1.7462823984375Q15.15009765625,2.4345833984375,15.15009765625,3.4079833984375L15.15009765625,12.7999833984375Q15.15009765625,13.7733833984375,14.46179765625,14.4616833984375Q13.77349765625,15.1499833984375,12.80009765625,15.1499833984375L3.20009765625,15.1499833984375Q2.22669765625,15.1499833984375,1.53839665625,14.4616833984375Q0.85009765625,13.7733833984375,0.85009765625,12.7999833984375ZM2.35009765625,12.7999833984375L2.35009765625,6.6059833984375L13.65009765625,6.6059833984375L13.65009765625,12.7999833984375Q13.65009765625,13.1520833984375,13.40109765625,13.4009833984375Q13.15219765625,13.6499833984375,12.80009765625,13.6499833984375L3.20009765625,13.6499833984375Q2.8480176562499997,13.6499833984375,2.5990576562500003,13.4009833984375Q2.35009765625,13.1520833984375,2.35009765625,12.7999833984375ZM6.43993765625,9.5499733984375L4.83993765625,9.5499733984375C4.42572765625,9.5499733984375,4.08993765625,9.2141933984375,4.08993765625,8.799973398437501C4.08993765625,8.3857633984375,4.42572765625,8.049973398437501,4.83993765625,8.049973398437501L6.43993765625,8.049973398437501C6.85415765625,8.049973398437501,7.18993765625,8.3857633984375,7.18993765625,8.799973398437501C7.18993765625,9.2141933984375,6.85415765625,9.5499733984375,6.43993765625,9.5499733984375ZM11.20009765625,9.5499733984375L9.60009765625,9.5499733984375C9.18588765625,9.5499733984375,8.85009765625,9.2141933984375,8.85009765625,8.799973398437501C8.85009765625,8.3857633984375,9.18588765625,8.049973398437501,9.60009765625,8.049973398437501L11.20009765625,8.049973398437501C11.61429765625,8.049973398437501,11.95009765625,8.3857633984375,11.95009765625,8.799973398437501C11.95009765625,9.2141933984375,11.61429765625,9.5499733984375,11.20009765625,9.5499733984375ZM6.43993765625,12.2219833984375L4.83993765625,12.2219833984375C4.42572765625,12.2219833984375,4.08993765625,11.8861833984375,4.08993765625,11.4719833984375C4.08993765625,11.0577833984375,4.42572765625,10.7219933984375,4.83993765625,10.7219933984375L6.43993765625,10.7219933984375C6.85415765625,10.7219933984375,7.18993765625,11.0577833984375,7.18993765625,11.4719833984375C7.18993765625,11.8861833984375,6.85415765625,12.2219833984375,6.43993765625,12.2219833984375ZM11.20009765625,12.2219833984375L9.60009765625,12.2219833984375C9.18588765625,12.2219833984375,8.85009765625,11.8861833984375,8.85009765625,11.4719833984375C8.85009765625,11.0577833984375,9.18588765625,10.7219933984375,9.60009765625,10.7219933984375L11.20009765625,10.7219933984375C11.61429765625,10.7219933984375,11.95009765625,11.0577833984375,11.95009765625,11.4719833984375C11.95009765625,11.8861833984375,11.61429765625,12.2219833984375,11.20009765625,12.2219833984375Z" fill-rule="evenodd" fill="#666666" fill-opacity="1"/></g></g></svg>