<svg xmlns="http://www.w3.org/2000/svg" xmlns:xlink="http://www.w3.org/1999/xlink" fill="none" version="1.1" width="16" height="16" viewBox="0 0 16 16"><g><g><path d="M14.34990234375,14.3999755859375L14.34990234375,3.9999755859375Q14.34990234375,2.6952055859375,13.42730234375,1.7725895859375Q12.50470234375,0.8499755859375,11.19990234375,0.8499755859375L2.39990234375,0.8499755859375C1.98568834375,0.8499755859375,1.64990234375,1.1857615859375,1.64990234375,1.5999755859375L1.64990234375,11.9999755859375Q1.64990234375,13.3047755859375,2.5725163437500003,14.2273755859375Q3.49513234375,15.1499755859375,4.79990234375,15.1499755859375L13.59990234375,15.1499755859375C14.01410234375,15.1499755859375,14.34990234375,14.8141755859375,14.34990234375,14.3999755859375ZM5.99951234375,7.1507555859375L9.99951234375,7.1507555859375C10.41372234375,7.1507555859375,10.74951234375,6.8149655859375,10.74951234375,6.4007555859375C10.74951234375,5.9865455859375,10.41372234375,5.6507555859375,9.99951234375,5.6507555859375L5.99951234375,5.6507555859375C5.58530234375,5.6507555859375,5.24951234375,5.9865455859375,5.24951234375,6.4007555859375C5.24951234375,6.8149655859375,5.58530234375,7.1507555859375,5.99951234375,7.1507555859375ZM5.99951234375,10.3507655859375L9.99951234375,10.3507655859375C10.41372234375,10.3507655859375,10.74951234375,10.0149855859375,10.74951234375,9.6007655859375C10.74951234375,9.1865555859375,10.41372234375,8.8507655859375,9.99951234375,8.8507655859375L5.99951234375,8.8507655859375C5.58530234375,8.8507655859375,5.24951234375,9.1865555859375,5.24951234375,9.6007655859375C5.24951234375,10.0149855859375,5.58530234375,10.3507655859375,5.99951234375,10.3507655859375Z" fill-rule="evenodd" fill="#666666" fill-opacity="1"/></g></g></svg>