<svg xmlns="http://www.w3.org/2000/svg" xmlns:xlink="http://www.w3.org/1999/xlink" fill="none" version="1.1" width="16" height="16" viewBox="0 0 16 16"><g><g><path d="M2.786648957168579,1.263564761581421Q4.693841957168579,0.4092127615814209,7.6981919571685795,1.786539761581421Q10.29061195716858,2.9754997615814207,12.38656195716858,0.9594667615814209C12.52986195716858,0.8215734615814209,12.722161957168579,0.7462769715814209,12.921061957168579,0.7501415015814209C13.119961957168579,0.7540060315814209,13.309161957168579,0.836715061581421,13.446961957168579,0.9800737615814209C13.581361957168578,1.119795761581421,13.65646195716858,1.3061327615814209,13.65646195716858,1.499999761581421L13.65646195716858,8.00359976158142C13.65646195716858,8.20716976158142,13.573761957168578,8.401999761581422,13.427261957168579,8.543339761581421Q10.594811957168579,11.27609976158142,7.0729819571685795,9.66085976158142Q5.070321957168579,8.737389761581422,3.843381957168579,8.998819761581421L3.843381957168579,14.499999761581421C3.843381957168579,14.91419976158142,3.5076019571685793,15.249999761581421,3.093384957168579,15.249999761581421C2.6791719571685793,15.249999761581421,2.343385160168579,14.91419976158142,2.343385160168579,14.499999761581421L2.343385160168579,8.47245976158142L2.343385160168579,8.44524976158142L2.343385160168579,1.961579761581421C2.337956007168579,1.6611127615814207,2.512396957168579,1.386418761581421,2.786648957168579,1.263564761581421Z" fill-rule="evenodd" fill="#666666" fill-opacity="1"/></g></g></svg>