<svg xmlns="http://www.w3.org/2000/svg" xmlns:xlink="http://www.w3.org/1999/xlink" fill="none" version="1.1" width="16" height="16" viewBox="0 0 16 16"><g><g><path d="M12.0125,2.6125L9.33549,6.13603Q9.28783,6.19877,9.25332,6.26961Q9.2188,6.34044,9.19878,6.41664Q9.17875,6.49285,9.17397,6.5715Q9.16919,6.65015,9.17985,6.72822Q9.19051,6.80628,9.216190000000001,6.88077Q9.24188,6.95526,9.281600000000001,7.02331Q9.32132,7.09136,9.373560000000001,7.15035Q9.42579,7.20934,9.48853,7.25701Q9.551269999999999,7.30467,9.62211,7.33918Q9.69294,7.37369,9.76914,7.39372Q9.84535,7.41375,9.924,7.41853Q10.00265,7.4233,10.08072,7.41265Q10.15878,7.40199,10.233270000000001,7.3763Q10.30776,7.35062,10.37581,7.3109Q10.44386,7.27117,10.50285,7.21894Q10.56184,7.1667,10.60951,7.10397L14.262,2.296466Q14.3097,2.233726,14.3442,2.162893Q14.3787,2.092059,14.3987,2.015854Q14.4187,1.939649,14.4235,1.8610012Q14.4283,1.782353,14.4176,1.704284Q14.407,1.626215,14.3813,1.551726Q14.3556,1.477236,14.3159,1.409189Q14.2762,1.341141,14.2239,1.282151Q14.1717,1.22316,14.109,1.175494Q14.0046,1.096185,13.8803,1.054343Q13.7561,1.0125,13.625,1.0125L2.375,1.0125Q2.2962069,1.0125,2.218928,1.027872Q2.141649,1.043244,2.068853,1.073396Q1.996058,1.1035490000000001,1.930544,1.147324Q1.86503,1.191099,1.809315,1.246815Q1.753599,1.30253,1.709824,1.368044Q1.6660490000000001,1.433558,1.635896,1.506353Q1.605744,1.579149,1.590372,1.656428Q1.575,1.7337069,1.575,1.8125Q1.575,1.943597,1.616843,2.067838Q1.658685,2.192078,1.737994,2.296466L5.2275,6.88943L5.2275,14.1875Q5.2275,14.2663,5.24287,14.3436Q5.25824,14.4208,5.2884,14.4936Q5.31855,14.5664,5.36232,14.632Q5.4061,14.6975,5.46181,14.7532Q5.51753,14.8089,5.5830400000000004,14.8527Q5.64856,14.8964,5.72135,14.9266Q5.79415,14.9568,5.87143,14.9721Q5.94871,14.9875,6.0275,14.9875Q6.1062899999999996,14.9875,6.18357,14.9721Q6.26085,14.9568,6.3336500000000004,14.9266Q6.40644,14.8964,6.47196,14.8527Q6.53747,14.8089,6.59318,14.7532Q6.6489,14.6975,6.69267,14.632Q6.73645,14.5664,6.7666,14.4936Q6.79676,14.4208,6.81213,14.3436Q6.8275,14.2663,6.8275,14.1875L6.8275,6.62Q6.8275,6.4889,6.78566,6.36466Q6.74381,6.24042,6.66451,6.13603L3.9875,2.6125L12.0125,2.6125ZM8.427150000000001,10.1957L11.42715,10.1957Q11.50594,10.1957,11.58322,10.18033Q11.6605,10.16496,11.73329,10.13481Q11.80609,10.10465,11.8716,10.06088Q11.93712,10.0171,11.99283,9.96139Q12.04855,9.90567,12.09232,9.84016Q12.1361,9.77464,12.16625,9.70185Q12.1964,9.62905,12.21177,9.551770000000001Q12.22715,9.474499999999999,12.22715,9.3957Q12.22715,9.31691,12.21178,9.23963Q12.1964,9.16235,12.16625,9.089559999999999Q12.1361,9.01676,12.09232,8.95125Q12.04855,8.885729999999999,11.99283,8.830020000000001Q11.93712,8.7743,11.8716,8.73053Q11.80609,8.68675,11.73329,8.656600000000001Q11.6605,8.62645,11.58322,8.61107Q11.50594,8.5957,11.42715,8.5957L8.427150000000001,8.5957Q8.34835,8.5957,8.271080000000001,8.61107Q8.1938,8.62645,8.121,8.656600000000001Q8.048210000000001,8.68675,7.98269,8.73053Q7.91718,8.7743,7.86146,8.830020000000001Q7.80575,8.885729999999999,7.76197,8.95125Q7.7182,9.01676,7.68804,9.089559999999999Q7.65789,9.16235,7.64252,9.23963Q7.62715,9.31691,7.62715,9.3957Q7.62715,9.474499999999999,7.64252,9.551770000000001Q7.65789,9.62905,7.68804,9.70185Q7.7182,9.77464,7.76197,9.84016Q7.80575,9.90567,7.86146,9.96139Q7.91718,10.0171,7.98269,10.06088Q8.048210000000001,10.10465,8.121,10.13481Q8.1938,10.16496,8.271080000000001,10.18033Q8.34835,10.1957,8.427150000000001,10.1957ZM8.427150000000001,12.8939L11.42715,12.8939Q11.50594,12.8939,11.58322,12.8786Q11.6605,12.8632,11.73329,12.833Q11.80609,12.8029,11.8716,12.7591Q11.93712,12.7153,11.99283,12.6596Q12.04855,12.6039,12.09232,12.5384Q12.1361,12.4729,12.16625,12.4001Q12.1964,12.3273,12.21177,12.25Q12.22715,12.1727,12.22715,12.0939Q12.22715,12.0152,12.21178,11.9379Q12.1964,11.8606,12.16625,11.7878Q12.1361,11.715,12.09232,11.64949Q12.04855,11.58397,11.99283,11.52826Q11.93712,11.47254,11.8716,11.42877Q11.80609,11.38499,11.73329,11.35484Q11.6605,11.32469,11.58322,11.30932Q11.50594,11.29395,11.42715,11.29395L8.427150000000001,11.29395Q8.34835,11.29395,8.271080000000001,11.30932Q8.1938,11.32469,8.121,11.35484Q8.048210000000001,11.38499,7.98269,11.42877Q7.91718,11.47254,7.86146,11.52826Q7.80575,11.58397,7.76197,11.64949Q7.7182,11.715,7.68804,11.7878Q7.65789,11.8606,7.64252,11.9379Q7.62715,12.0152,7.62715,12.0939Q7.62715,12.1727,7.64252,12.25Q7.65789,12.3273,7.68804,12.4001Q7.7182,12.4729,7.76197,12.5384Q7.80575,12.6039,7.86146,12.6596Q7.91718,12.7153,7.98269,12.7591Q8.048210000000001,12.8029,8.121,12.833Q8.1938,12.8632,8.271080000000001,12.8786Q8.34835,12.8939,8.427150000000001,12.8939Z" fill-rule="evenodd" fill="#333333" fill-opacity="1"/></g></g></svg>