<svg xmlns="http://www.w3.org/2000/svg" xmlns:xlink="http://www.w3.org/1999/xlink" fill="none" version="1.1" width="16" height="16" viewBox="0 0 16 16"><g><g><path d="M9.94406291343689,3.666000266494751L13.38404291343689,3.666000266494751Q14.35744291343689,3.666000266494751,15.04574291343689,4.354300266494751Q15.73404291343689,5.042600266494751,15.73404291343689,6.016000266494751L15.73404291343689,12.000010266494751Q15.73404291343689,13.21531026649475,14.87474291343689,14.074610266494751Q14.01534291343689,14.93401026649475,12.80004291343689,14.93401026649475L3.5280629134368895,14.93401026649475Q2.3129129134368895,14.93401026649475,1.4552589134368896,14.073210266494751Q0.5975968834368897,13.212410266494752,0.6020660400368897,12.000010266494751L0.6020711064368897,4.3867602664947505Q0.5976036234368897,3.171620266494751,1.4552639134368897,2.310805266494751Q2.3129229134368896,1.449991226494751,3.5280629134368895,1.449998915494751L7.12517291343689,1.450077950494751Q7.8106629134368895,1.440124156494751,8.39397291343689,1.800311266494751Q8.97728291343689,2.160498266494751,9.270882913436889,2.7685902664947513L9.60688291343689,3.440590266494751C9.60688291343689,3.440590266494751,9.61957291343689,3.467260266494751,9.61957291343689,3.467260266494751Q9.71089291343689,3.669440266494751,9.932722913436889,3.666080266494751L9.94406291343689,3.666000266494751Z" fill-rule="evenodd" fill="#666666" fill-opacity="1"/></g><g><path d="M7.76806640625,9.094009399414062L11.76806640625,9.094009399414062Q11.84193640625,9.094009399414062,11.91438640625,9.079598399414063Q11.98683640625,9.065187399414063,12.05507640625,9.036919399414062Q12.123326406250001,9.008650399414062,12.18474640625,8.967611399414062Q12.246166406250001,8.926572399414063,12.29839640625,8.874339399414062Q12.35062640625,8.822106399414062,12.39166640625,8.760687399414062Q12.43270640625,8.699267399414062,12.460976406250001,8.631022399414062Q12.48924640625,8.562776399414062,12.50365640625,8.490327399414063Q12.51806640625,8.417877899414062,12.51806640625,8.344009399414062Q12.51806640625,8.270140899414063,12.50365640625,8.197691399414062Q12.48924640625,8.125242399414063,12.460976406250001,8.056996399414063Q12.43270640625,7.988751399414062,12.39166640625,7.927331399414062Q12.35062640625,7.8659123994140625,12.29839640625,7.813679399414062Q12.246166406250001,7.761446399414062,12.18474640625,7.7204073994140625Q12.123326406250001,7.679368399414063,12.05507640625,7.651099399414062Q11.98683640625,7.622831399414062,11.91438640625,7.6084203994140625Q11.84193640625,7.5940093994140625,11.76806640625,7.5940093994140625L7.76806640625,7.5940093994140625Q7.69419790625,7.5940093994140625,7.62174840625,7.6084203994140625Q7.54929940625,7.622831399414062,7.48105340625,7.651099399414062Q7.41280840625,7.679368399414063,7.35138840625,7.7204073994140625Q7.28996940625,7.761446399414062,7.23773640625,7.813679399414062Q7.18550340625,7.8659123994140625,7.14446440625,7.927331399414062Q7.10342540625,7.988751399414062,7.07515640625,8.056996399414063Q7.04688840625,8.125242399414063,7.03247740625,8.197691399414062Q7.01806640625,8.270140899414063,7.01806640625,8.344009399414062Q7.01806640625,8.417877899414062,7.03247740625,8.490327399414063Q7.04688840625,8.562776399414062,7.07515640625,8.631022399414062Q7.10342540625,8.699267399414062,7.14446440625,8.760687399414062Q7.18550340625,8.822106399414062,7.23773640625,8.874339399414062Q7.28996940625,8.926572399414063,7.35138840625,8.967611399414062Q7.41280840625,9.008650399414062,7.48105340625,9.036919399414062Q7.54929940625,9.065187399414063,7.62174840625,9.079598399414063Q7.69419790625,9.094009399414062,7.76806640625,9.094009399414062ZM11.76806640625,10.400219399414063L7.76806640625,10.400219399414063Q7.69419790625,10.400219399414063,7.62174840625,10.414629399414062Q7.54929940625,10.429049399414062,7.48105340625,10.457309399414063Q7.41280840625,10.485579399414062,7.35138840625,10.526619399414063Q7.28996940625,10.567659399414062,7.23773640625,10.619889399414063Q7.18550340625,10.672129399414063,7.14446440625,10.733549399414063Q7.10342540625,10.794959399414063,7.07515640625,10.863209399414062Q7.04688840625,10.931459399414063,7.03247740625,11.003909399414063Q7.01806640625,11.076349399414063,7.01806640625,11.150219399414063Q7.01806640625,11.224089399414062,7.03247740625,11.296539399414062Q7.04688840625,11.368989399414062,7.07515640625,11.437239399414063Q7.10342540625,11.505479399414062,7.14446440625,11.566899399414062Q7.18550340625,11.628319399414062,7.23773640625,11.680549399414062Q7.28996940625,11.732789399414063,7.35138840625,11.773829399414062Q7.41280840625,11.814859399414063,7.48105340625,11.843129399414062Q7.54929940625,11.871399399414063,7.62174840625,11.885809399414063Q7.69419790625,11.900219399414063,7.76806640625,11.900219399414063L11.76806640625,11.900219399414063Q11.84193640625,11.900219399414063,11.91438640625,11.885809399414063Q11.98683640625,11.871399399414063,12.05507640625,11.843129399414062Q12.123326406250001,11.814859399414063,12.18474640625,11.773829399414062Q12.246166406250001,11.732789399414063,12.29839640625,11.680549399414062Q12.35062640625,11.628319399414062,12.39166640625,11.566899399414062Q12.43270640625,11.505479399414062,12.460976406250001,11.437239399414063Q12.48924640625,11.368989399414062,12.50365640625,11.296539399414062Q12.51806640625,11.224089399414062,12.51806640625,11.150219399414063Q12.51806640625,11.076349399414063,12.50365640625,11.003909399414063Q12.48924640625,10.931459399414063,12.460976406250001,10.863209399414062Q12.43270640625,10.794959399414063,12.39166640625,10.733549399414063Q12.35062640625,10.672129399414063,12.29839640625,10.619889399414063Q12.246166406250001,10.567659399414062,12.18474640625,10.526619399414063Q12.123326406250001,10.485579399414062,12.05507640625,10.457309399414063Q11.98683640625,10.429049399414062,11.91438640625,10.414629399414062Q11.84193640625,10.400219399414063,11.76806640625,10.400219399414063Z" fill-rule="evenodd" fill="#FFFFFF" fill-opacity="1"/></g></g></svg>