<svg xmlns="http://www.w3.org/2000/svg" xmlns:xlink="http://www.w3.org/1999/xlink" fill="none" version="1.1" width="16" height="16" viewBox="0 0 16 16"><defs><clipPath id="master_svg0_591_03320"><rect x="0" y="0" width="16" height="16" rx="0"/></clipPath></defs><g clip-path="url(#master_svg0_591_03320)"><g><path d="M10.38354875,2.72316271484375Q8.79704875,1.13665771484375,6.55338875,1.13665771484375Q4.30972875,1.13665771484375,2.72322375,2.72316271484375Q1.13671875,4.30966771484375,1.13671875,6.55332771484375Q1.13671875,8.796977714843749,2.72322375,10.38348771484375Q4.30972875,11.96995771484375,6.55338875,11.96995771484375Q8.797038749999999,11.96995771484375,10.38354875,10.38348771484375Q11.97001875,8.796977714843749,11.97001875,6.55332771484375Q11.97001875,4.30966771484375,10.38354875,2.72316271484375ZM3.78388875,3.78382771484375Q4.93104875,2.63665771484375,6.55338875,2.63665771484375Q8.17571875,2.63665771484375,9.32288875,3.78382771484375Q10.47004875,4.93098771484375,10.47004875,6.55332771484375Q10.47004875,8.17565771484375,9.32288875,9.32282771484375Q8.17571875,10.46998771484375,6.55338875,10.46998771484375Q4.93104875,10.46998771484375,3.78388875,9.32282771484375Q2.63671875,8.17565771484375,2.63671875,6.55332771484375Q2.63671875,4.93098771484375,3.78388875,3.78382771484375ZM10.88953875,11.95035771484375L12.96291875,14.02365771484375Q13.01511875,14.07595771484375,13.07651875,14.11695771484375Q13.13791875,14.15805771484375,13.20621875,14.18625771484375Q13.27441875,14.21455771484375,13.34691875,14.22895771484375Q13.41931875,14.24335771484375,13.49321875,14.24335771484375Q13.56711875,14.24335771484375,13.63951875,14.22895771484375Q13.71191875,14.21455771484375,13.78021875,14.18625771484375Q13.84841875,14.15805771484375,13.90991875,14.11695771484375Q13.97131875,14.07595771484375,14.02351875,14.02365771484375Q14.07571875,13.97145771484375,14.11681875,13.91005771484375Q14.15781875,13.84865771484375,14.18611875,13.78035771484375Q14.21441875,13.71215771484375,14.22881875,13.63965771484375Q14.24321875,13.56725771484375,14.24321875,13.49335771484375Q14.24321875,13.41945771484375,14.22881875,13.34705771484375Q14.21441875,13.27455771484375,14.18611875,13.20635771484375Q14.15781875,13.13815771484375,14.11681875,13.07665771484375Q14.07571875,13.01525771484375,14.02351875,12.96305771484375L11.95021875,10.88970771484375Q11.89791875,10.83746771484375,11.83654875,10.79642771484375Q11.77512875,10.75539771484375,11.70687875,10.72712771484375Q11.63863875,10.69885771484375,11.56618875,10.68444771484375Q11.49373875,10.67003771484375,11.41986875,10.67003771484375Q11.34599875,10.67003771484375,11.27354875,10.68444771484375Q11.20109875,10.69885771484375,11.13285875,10.72712771484375Q11.06460875,10.75539771484375,11.00318875,10.79642771484375Q10.94176875,10.83746771484375,10.88953875,10.88970771484375Q10.83730875,10.94193771484375,10.79626875,11.00335771484375Q10.75522875,11.06477771484375,10.72695875,11.13301771484375Q10.69868875,11.20126771484375,10.68427875,11.27371771484375Q10.66986875,11.34616771484375,10.66986875,11.42003771484375Q10.66986875,11.49390771484375,10.68427875,11.56635771484375Q10.69868875,11.63879771484375,10.72695875,11.70704771484375Q10.75522875,11.77528771484375,10.79626875,11.83670771484375Q10.83730875,11.89815771484375,10.88953875,11.95035771484375Z" fill-rule="evenodd" fill="#333333" fill-opacity="1"/></g></g></svg>