<svg xmlns="http://www.w3.org/2000/svg" xmlns:xlink="http://www.w3.org/1999/xlink" fill="none" version="1.1" width="12" height="12" viewBox="0 0 12 12"><defs><clipPath id="master_svg0_591_03330"><rect x="0" y="0" width="12" height="12" rx="0"/></clipPath></defs><g clip-path="url(#master_svg0_591_03330)"><g><path d="M8.6817267578125,9.318248828125L5.9999367578125,6.636448828125L3.3181257578125,9.318258828125C3.2337337578125,9.402648828124999,3.1192747578124997,9.450058828125,2.9999267578125,9.450058828125C2.8805797578125,9.450058828125,2.7661207578124998,9.402648828124999,2.6817297578125,9.318258828125C2.5973379578125,9.233868828125,2.5499273836615,9.119408828125,2.5499273836615,9.000058828124999C2.5499273836615,8.880708828125,2.5973379578125,8.766258828125,2.6817297578125,8.681858828125L2.6817297578125,8.681858828125L5.363536757812501,6.000058828125L2.6818007578125,3.3183188281250002C2.5973373578125,3.233855828125,2.5499267578125,3.119395828125,2.5499267578125,3.000048828125C2.5499267578125,2.880701828125,2.5973373578125,2.766241828125,2.6817287578125,2.681850828125C2.7661197578125,2.597459428125,2.8805797578125,2.550048828125,2.9999267578125,2.550048828125C3.1192737578125,2.550048828125,3.2337337578125,2.597459428125,3.3181247578125,2.681850828125L5.9999367578125,5.363658828125001L8.681616757812499,2.681979828125C8.7655067578125,2.598082128125,8.8789567578125,2.550724074125,8.997436757812501,2.550068765925L8.9999267578125,2.550061926225C9.1172567578125,2.550061926225,9.229946757812499,2.595887728125,9.313976757812501,2.677771828125C9.313976757812501,2.677771828125,9.3181267578125,2.681863828125,9.3181267578125,2.681863828125C9.4025167578125,2.766254828125,9.4499267578125,2.880714828125,9.4499267578125,3.000061828125C9.4499267578125,3.119408828125,9.4025167578125,3.233868828125,9.3181267578125,3.318259828125L9.3181267578125,3.318259828125L6.6363267578125,6.000058828125L9.3181267578125,8.681848828125C9.4025167578125,8.766238828125001,9.4499267578125,8.880698828125,9.4499267578125,9.000048828125C9.4499267578125,9.119398828125,9.4025167578125,9.233858828125001,9.3181267578125,9.318248828125C9.233736757812501,9.402638828125,9.1192767578125,9.450048828125,8.9999267578125,9.450048828125C8.8805767578125,9.450048828125,8.766116757812501,9.402638828125,8.6817267578125,9.318248828125Z" fill-rule="evenodd" fill="#333333" fill-opacity="1"/></g></g></svg>