<svg xmlns="http://www.w3.org/2000/svg" xmlns:xlink="http://www.w3.org/1999/xlink" fill="none" version="1.1" width="16" height="16" viewBox="0 0 16 16"><defs><clipPath id="master_svg0_9220_08779"><rect x="0" y="0" width="16" height="16" rx="0"/></clipPath></defs><g clip-path="url(#master_svg0_9220_08779)"><g><path d="M1.32143416308403,5.3681575L5.35300416308403,5.0082975L6.938954163084031,1.2852465Q7.23663416308403,0.586423054,7.9962241630840305,0.585937842727Q8.75580416308403,0.585452616,9.05438416308403,1.2838945000000002L10.64649416308403,5.0082375L14.67869416308403,5.3681575Q15.43569416308403,5.4357275,15.67029416308403,6.1586375Q15.90489416308403,6.8815375,15.33179416308403,7.3807475L12.27849416308403,10.0404975L13.18389416308403,13.9884375Q13.35379416308403,14.7291375,12.73899416308403,15.1758375Q12.12429416308403,15.6225375,11.47229416308403,15.2322375L7.99661416308403,13.1513375L4.52879416308403,15.2308375Q3.8768241630840303,15.6218375,3.26167416308403,15.1752375Q2.64652416308403,14.7285375,2.81645416308403,13.9875375L3.72169416308403,10.0404975L0.6683221630840301,7.3807475Q0.09523916308403016,6.8815375,0.32983296308403015,6.1586375Q0.5644261630840302,5.4357275,1.32143416308403,5.3681575Z" fill-rule="evenodd" fill="#FF9800" fill-opacity="1"/></g></g></svg>