<svg xmlns="http://www.w3.org/2000/svg" xmlns:xlink="http://www.w3.org/1999/xlink" fill="none" version="1.1" width="16" height="16" viewBox="0 0 16 16"><g><g><path d="M3.4318046875,0.800039865L12.5678046875,0.800039865C13.9296046875,0.713159775,15.1057046875,1.742731875,15.1998046875,3.104041875L15.1997046875,13.333521875C15.1056046875,14.694821875,13.9297046875,15.724421875,12.5679046875,15.637521875L3.4316446875,15.637521875C2.0698546875,15.724421875,0.8938752875,14.694821875,0.7998046875,13.333521875L0.7998046875,3.104041875C0.8938752875,1.742731875,2.0700146875,0.713159175,3.4318046875,0.800039865ZM6.2896446875,6.066891875L3.6847346875,6.299401875Q3.1956046875,6.343061875,3.0440246875,6.810151875Q2.8924446875,7.277251875,3.2627346875,7.599801875L5.2356046875,9.318341875L4.6507046875,11.868621875Q4.540904687499999,12.347421875,4.9383746875,12.636021875Q5.3358446875,12.924621875,5.7570946875,12.672021875L7.9977646875,11.328321875L10.2434946875,12.672821875Q10.6647646875,12.925121875,11.0620046875,12.636421875Q11.4592046875,12.347821875,11.3494046875,11.869221875L10.7643946875,9.318341875L12.7373046875,7.599801875Q13.1075046875,7.277251875,12.9560046875,6.810151875Q12.8044046875,6.343061875,12.3153046875,6.299401875L9.7099346875,6.066851875L8.681214687499999,3.660441875Q8.4882946875,3.209161875,7.9975046875,3.209471875Q7.5067146875,3.209781875,7.3143746875,3.661311875L6.2896446875,6.066891875Z" fill-rule="evenodd" fill="#FF9800" fill-opacity="1"/></g></g></svg>