<svg xmlns="http://www.w3.org/2000/svg" xmlns:xlink="http://www.w3.org/1999/xlink" fill="none" version="1.1" width="18.000000938630166" height="18.000000938630166" viewBox="0 0 18.000000938630166 18.000000938630166"><defs><clipPath id="master_svg0_7579_28779"><rect x="18" y="18.000000938630166" width="18" height="18" rx="0"/></clipPath></defs><g transform="matrix(-1,-5.2146120310681e-8,5.2146120310681e-8,-1,35.999999061369785,36.0000028158905)" clip-path="url(#master_svg0_7579_28779)"><g transform="matrix(1,0,0,-1,0,67.09375187726033)"><path d="M32.1473,39.64880593863017L32.1477,39.649175938630165Q32.242599999999996,39.744115938630166,32.3667,39.79549593863017Q32.490700000000004,39.84687593863016,32.625,39.84687593863016Q32.6915,39.84687593863016,32.7567,39.83390593863017Q32.8219,39.820935938630164,32.8833,39.79549593863017Q32.9447,39.770055938630165,33,39.733115938630164Q33.0553,39.696185938630165,33.1023,39.649175938630165Q33.1493,39.602165938630165,33.1862,39.54688593863017Q33.2232,39.491605938630165,33.248599999999996,39.43018593863017Q33.274100000000004,39.36876593863016,33.287,39.303565938630165Q33.3,39.238355938630164,33.3,39.171875938630166Q33.3,39.037605938630165,33.248599999999996,38.913565938630164Q33.1972,38.78951593863017,33.1023,38.694575938630166L33.1019,38.69420593863016L27.4773,33.069578938630166Q27.43029,33.022568938630165,27.37501,32.985633938630166Q27.31973,32.948698938630166,27.25831,32.92325693863017Q27.19689,32.89781593863017,27.13169,32.884845938630164Q27.06648,32.87187593863017,27,32.87187593863017Q26.93352,32.87187593863017,26.86831,32.884845938630164Q26.80311,32.89781593863017,26.74169,32.92325693863017Q26.68027,32.948698938630166,26.62499,32.985633938630166Q26.56971,33.022568938630165,26.5227,33.069578938630166L20.897703,38.694575938630166Q20.802763,38.78951593863017,20.751381,38.913565938630164Q20.7,39.037605938630165,20.7,39.171875938630166Q20.7,39.238355938630164,20.71297,39.303565938630165Q20.72594,39.36876593863016,20.751381,39.43018593863017Q20.776823,39.491605938630165,20.813758,39.54688593863017Q20.850693,39.602165938630165,20.897703,39.649175938630165Q20.944713,39.696185938630165,20.99999,39.733115938630164Q21.055268,39.770055938630165,21.116689,39.79549593863017Q21.17811,39.820935938630164,21.243314,39.83390593863017Q21.3085183,39.84687593863016,21.375,39.84687593863016Q21.509266,39.84687593863016,21.633311,39.79549593863017Q21.757357,39.744115938630166,21.852297,39.649175938630165L26.32501,35.17645593863016L26.32511,46.64197593863017Q26.32511,46.708475938630166,26.338079999999998,46.77367593863016Q26.35105,46.83887593863017,26.37649,46.900275938630166Q26.40193,46.961675938630165,26.43887,47.01697593863017Q26.4758,47.07227593863016,26.52281,47.11927593863017Q26.56982,47.166275938630164,26.6251,47.20317593863017Q26.68038,47.240175938630166,26.741799999999998,47.265575938630164Q26.80322,47.29097593863017,26.86842,47.30397593863017Q26.93363,47.316975938630165,27.00011,47.316975938630165Q27.066589999999998,47.316975938630165,27.1318,47.30397593863017Q27.197,47.29097593863017,27.25842,47.265575938630164Q27.31984,47.240175938630166,27.37512,47.20317593863017Q27.4304,47.166275938630164,27.47741,47.11927593863017Q27.52442,47.07227593863016,27.56135,47.01697593863017Q27.59829,46.961675938630165,27.623730000000002,46.900275938630166Q27.649169999999998,46.83887593863017,27.66214,46.77367593863016Q27.67511,46.708475938630166,27.67511,46.64197593863017L27.67501,35.176485938630165L32.1473,39.64880593863017Z" fill-rule="evenodd" fill="#FFFFFF" fill-opacity="1"/></g></g></svg>