<svg xmlns="http://www.w3.org/2000/svg" xmlns:xlink="http://www.w3.org/1999/xlink" fill="none" version="1.1" width="16" height="16" viewBox="0 0 16 16"><defs><clipPath id="master_svg0_185_1543"><rect x="0" y="0" width="16" height="16" rx="0"/></clipPath></defs><g clip-path="url(#master_svg0_185_1543)"><g><path d="M6.6754790625,12.116221953124999L13.9154390625,4.782892953125Q14.0041390625,4.693059953125,14.0521390625,4.576277953125Q14.1000390625,4.459495953125,14.1000390625,4.333259084655L14.1000390625,4.329153123125Q14.0992390625,4.201851953125,14.0497390625,4.084552953125Q14.0002390625,3.967253953125,13.9096390625,3.877814953125Q13.8198390625,3.7891239531250003,13.7030390625,3.741187953125Q13.5862390625,3.693252953125,13.4600390625,3.693251953125L13.4559390625,3.693264953125Q13.3286390625,3.694079953125,13.2113390625,3.743549953125Q13.0940390625,3.7930189531250003,13.0046390625,3.883610953125L6.2383390625,10.737101953125L3.0128220625,7.201881953125Q2.9218740625,7.102201953125,2.7984250625,7.047731953125Q2.6749760625,6.993251953125,2.54004055339,6.993251953125L2.5362061225,6.993261953125Q2.4174930625,6.9939719531249995,2.3069320625,7.037211953125Q2.1963710625,7.080451953124999,2.1086740625,7.1604719531250005Q2.0089930625,7.251411953125,1.9545160625,7.374861953125Q1.9000390624999999,7.498311953125,1.9000390624999999,7.633251953125L1.9000500625,7.637081953125Q1.9007610625,7.755801953125,1.9440010625,7.866361953125001Q1.9872410624999999,7.976921953125,2.0672560625,8.064621953125L5.7472590624999995,12.097951953125001Q5.7585090625,12.110291953125,5.7703990625,12.122021953125Q5.8152590625,12.166311953125,5.8678890625,12.200991953125001Q5.9205190625,12.235671953125,5.9789090625,12.259421953124999Q6.0372990625,12.283171953124999,6.0991990625,12.295071953125Q6.1611090625,12.306971953125,6.2241390625,12.306571953125001Q6.2871690625,12.306171953125,6.3489190625,12.293471953125Q6.410659062500001,12.280781953125,6.4687390625,12.256281953125Q6.5268190624999995,12.231791953125,6.5790090625,12.196431953125Q6.6311890625,12.161081953124999,6.6754790625,12.116221953124999Z" fill-rule="evenodd" fill="#1D74F5" fill-opacity="1"/></g></g></svg>