<svg xmlns="http://www.w3.org/2000/svg" xmlns:xlink="http://www.w3.org/1999/xlink" fill="none" version="1.1" width="16" height="16" viewBox="0 0 16 16"><g><g><path d="M4.3,3.18046875Q4.3,2.39346275,4.856497,1.83696575Q5.412994,1.28046875,6.2,1.28046875L12.8,1.28046875Q13.58701,1.28046875,14.1435,1.83696575Q14.7,2.39346175,14.7,3.18046875Q14.7,3.9674787499999997,14.1435,4.52396875Q13.58701,5.08046875,12.8,5.08046875L6.2,5.08046875Q5.4129950000000004,5.08046875,4.856497,4.52396875Q4.3,3.9674787499999997,4.3,3.18046875ZM5.7,3.18046875Q5.7,3.3875787500000003,5.8464469999999995,3.53401875Q5.9928930000000005,3.68046875,6.2,3.68046875L12.8,3.68046875Q13.00711,3.68046875,13.15355,3.53401875Q13.3,3.3875787500000003,13.3,3.18046875Q13.3,2.97336275,13.15355,2.82691575Q13.00711,2.68046875,12.8,2.68046875L6.2,2.68046875Q5.9928930000000005,2.68046875,5.8464469999999995,2.82691575Q5.7,2.97336175,5.7,3.18046875Z" fill="#333333" fill-opacity="1"/></g><g><path d="M3.8125,13.6015625L3.875,13.6015625L3.875,12.2016125L3.8125,12.2016125Q3.27402,12.2016125,2.8932599999999997,11.8208525Q2.5125,11.4400925,2.5125,10.901612499999999L2.5125,5.1015625Q2.5125,4.5630825,2.8932599999999997,4.1823225Q3.27402,3.8015625,3.8125,3.8015625L3.875,3.8015625L3.875,2.4015625L3.8125,2.4015625Q2.6941230000000003,2.4015625,1.9033117,3.1923742Q1.1125,3.9831855000000003,1.1125,5.1015625L1.1125,10.901612499999999Q1.1125,12.0199825,1.9033117,12.8108025Q2.6941230000000003,13.6015625,3.8125,13.6015625Z" fill-rule="evenodd" fill="#333333" fill-opacity="1"/></g><g><path d="M3.875,8.698046875L1.8125,8.698046875L1.8125,7.298046875L3.875,7.298046875L3.875,8.698046875Z" fill-rule="evenodd" fill="#333333" fill-opacity="1"/></g><g><path d="M4.3,12.81328125Q4.3,12.02627525,4.856497,11.46977825Q5.412994,10.91328125,6.2,10.91328125L12.8,10.91328125Q13.58701,10.91328125,14.1435,11.46977825Q14.7,12.02627425,14.7,12.81328125Q14.7,13.60029125,14.1435,14.15678125Q13.58701,14.71328125,12.8,14.71328125L6.2,14.71328125Q5.4129950000000004,14.71328125,4.856497,14.15678125Q4.3,13.60029125,4.3,12.81328125ZM5.7,12.81328125Q5.7,13.02039125,5.8464469999999995,13.16683125Q5.9928930000000005,13.31328125,6.2,13.31328125L12.8,13.31328125Q13.00711,13.31328125,13.15355,13.16683125Q13.3,13.02039125,13.3,12.81328125Q13.3,12.60617525,13.15355,12.45972825Q13.00711,12.31328125,12.8,12.31328125L6.2,12.31328125Q5.9928930000000005,12.31328125,5.8464469999999995,12.45972825Q5.7,12.60617425,5.7,12.81328125Z" fill="#333333" fill-opacity="1"/></g><g><path d="M4.3,7.996875Q4.3,7.209869,4.856497,6.653372Q5.412994,6.096875,6.2,6.096875L12.8,6.096875Q13.58701,6.096875,14.1435,6.653372Q14.7,7.209868,14.7,7.996875Q14.7,8.783885,14.1435,9.340375Q13.58701,9.896875,12.8,9.896875L6.2,9.896875Q5.4129950000000004,9.896875,4.856497,9.340375Q4.3,8.783885,4.3,7.996875ZM5.7,7.996875Q5.7,8.203985,5.8464469999999995,8.350425Q5.9928930000000005,8.496875,6.2,8.496875L12.8,8.496875Q13.00711,8.496875,13.15355,8.350425Q13.3,8.203985,13.3,7.996875Q13.3,7.789769,13.15355,7.6433219999999995Q13.00711,7.496875,12.8,7.496875L6.2,7.496875Q5.9928930000000005,7.496875,5.8464469999999995,7.6433219999999995Q5.7,7.7897680000000005,5.7,7.996875Z" fill="#333333" fill-opacity="1"/></g></g></svg>