<svg xmlns="http://www.w3.org/2000/svg" xmlns:xlink="http://www.w3.org/1999/xlink" fill="none" version="1.1" width="16" height="16" viewBox="0 0 16 16"><g><g><path d="M6.75,12.59375L13.75,12.59375Q13.7992,12.59375,13.8475,12.58415Q13.8958,12.57455,13.9413,12.55565Q13.9868,12.53685,14.0278,12.50945Q14.0687,12.48215,14.1036,12.44735Q14.1384,12.41245,14.1657,12.37155Q14.1931,12.33055,14.2119,12.28505Q14.2308,12.23955,14.2404,12.19125Q14.25,12.14295,14.25,12.09375Q14.25,12.0445,14.2404,11.9962Q14.2308,11.9479,14.2119,11.90241Q14.1931,11.85691,14.1657,11.81596Q14.1384,11.77502,14.1036,11.7402Q14.0687,11.70537,14.0278,11.67801Q13.9868,11.65065,13.9413,11.63181Q13.8958,11.61296,13.8475,11.60336Q13.7992,11.59375,13.75,11.59375L6.75,11.59375Q5.71447,11.59375,4.9822299999999995,10.86152Q4.25,10.12928,4.25,9.09375L4.25,2.09375Q4.25,2.0445043,4.240393,1.9962049Q4.230785,1.947905,4.21194,1.9024079999999999Q4.193094,1.856911,4.165735,1.815965Q4.138375,1.775019,4.103553,1.740197Q4.068731,1.705375,4.027785,1.678015Q3.986839,1.6506560000000001,3.941342,1.63181Q3.895845,1.612965,3.8475451,1.603357Q3.7992457,1.59375,3.75,1.59375Q3.7007543,1.59375,3.6524549,1.603357Q3.604155,1.612965,3.558658,1.63181Q3.513161,1.6506560000000001,3.472215,1.678015Q3.431269,1.705375,3.396447,1.740197Q3.361625,1.775019,3.334265,1.815965Q3.306906,1.856911,3.2880599999999998,1.9024079999999999Q3.269215,1.947905,3.259607,1.9962049Q3.25,2.0445043,3.25,2.09375L3.25,9.09375Q3.25,10.5435,4.275126,11.56862Q5.30025,12.59375,6.75,12.59375Z" fill-rule="evenodd" fill="#999999" fill-opacity="1"/></g></g></svg>