<svg xmlns="http://www.w3.org/2000/svg" xmlns:xlink="http://www.w3.org/1999/xlink" fill="none" version="1.1" width="16" height="16" viewBox="0 0 16 16"><defs><clipPath id="master_svg0_4146_005518"><rect x="0" y="0" width="16" height="16" rx="0"/></clipPath></defs><g clip-path="url(#master_svg0_4146_005518)"><g><path d="M5.333330152587891,10.33331298828125C6.15340015258789,10.33331298828125,6.873800152587891,10.87773298828125,7.097670152587891,11.66664298828125L13.67330015258789,11.66664298828125L13.67330015258789,12.66661298828125L7.097670152587891,12.66661298828125C6.87379015258789,13.45551298828125,6.153390152587891,13.99991298828125,5.333330152587891,13.99991298828125C4.513270152587891,13.99991298828125,3.7928801525878906,13.45551298828125,3.5690001525878907,12.66661298828125L2.3400001525878906,12.66661298828125L2.3400001525878906,11.66664298828125L3.5690001525878907,11.66664298828125C3.7928701525878905,10.87772298828125,4.513270152587891,10.33331298828125,5.333330152587891,10.33331298828125ZM5.333330152587891,11.33331298828125C4.873100152587891,11.33331298828125,4.500000152587891,11.70641298828125,4.500000152587891,12.16664298828125C4.500000152587891,12.62691298828125,4.873100152587891,13.00001298828125,5.333330152587891,13.00001298828125C5.793570152587891,13.00001298828125,6.166670152587891,12.62691298828125,6.166670152587891,12.16664298828125C6.166670152587891,11.70641298828125,5.793570152587891,11.33331298828125,5.333330152587891,11.33331298828125ZM10.66667015258789,6.33331298828125C11.48673015258789,6.33331298828125,12.20713015258789,6.87773298828125,12.43100015258789,7.66664298828125L13.67330015258789,7.66664298828125L13.67330015258789,8.66664298828125L12.43100015258789,8.66664298828125C12.20712015258789,9.45555298828125,11.48673015258789,9.99996298828125,10.66667015258789,9.99996298828125C9.84661015258789,9.99996298828125,9.126210152587891,9.45555298828125,8.90233015258789,8.66664298828125L2.3400001525878906,8.66664298828125L2.3400001525878906,7.66664298828125L8.90233015258789,7.66664298828125C9.126210152587891,6.87772298828125,9.84660015258789,6.33331298828125,10.66667015258789,6.33331298828125ZM10.66667015258789,7.33331298828125C10.206430152587892,7.33331298828125,9.833330152587891,7.70641298828125,9.833330152587891,8.16664298828125C9.833330152587891,8.626882988281249,10.206430152587892,8.99998298828125,10.66667015258789,8.99998298828125C11.12690015258789,8.99998298828125,11.50000015258789,8.626882988281249,11.50000015258789,8.16664298828125C11.50000015258789,7.70641298828125,11.12690015258789,7.33331298828125,10.66667015258789,7.33331298828125ZM5.333330152587891,2.33331298828125C6.15340015258789,2.33331489563125,6.873800152587891,2.87772898828125,7.097670152587891,3.66664298828125L13.67330015258789,3.66664298828125L13.67330015258789,4.66664298828125L7.097670152587891,4.66664298828125C6.87379015258789,5.45555298828125,6.153390152587891,5.999962988281251,5.333330152587891,5.999962988281251C4.513270152587891,5.999962988281251,3.7928801525878906,5.45555298828125,3.5690001525878907,4.66664298828125L2.3400001525878906,4.66664298828125L2.3400001525878906,3.66664298828125L3.5690001525878907,3.66664298828125C3.7928701525878905,2.8777269882812497,4.513270152587891,2.33331274986225,5.333330152587891,2.33331298828125ZM5.333330152587891,3.33331298828125C4.873100152587891,3.33331298828125,4.500000152587891,3.70641298828125,4.500000152587891,4.16664298828125C4.500000152587891,4.62688298828125,4.873100152587891,4.99998298828125,5.333330152587891,4.99998298828125C5.793350152587891,4.9996629882812496,6.166090152587891,4.62666298828125,6.166090152587891,4.16664298828125C6.166090152587891,3.70663298828125,5.793350152587891,3.3336329882812503,5.333330152587891,3.33331298828125Z" fill="#666666" fill-opacity="1"/></g></g></svg>