<svg xmlns="http://www.w3.org/2000/svg" xmlns:xlink="http://www.w3.org/1999/xlink" fill="none" version="1.1" width="16" height="16" viewBox="0 0 16 16"><g><g><path d="M13.5206,4.5453399999999995L8.212900000000001,2.047591L8,1.947403L2.4793756,4.5453399999999995Q2.134854,4.70747,2.134854,5.08824Q2.134854,5.468999999999999,2.4793754,5.631130000000001L8,8.22907L13.5206,5.631130000000001Q13.8651,5.468999999999999,13.8651,5.08824Q13.8651,4.70747,13.5206,4.5453399999999995ZM8,3.052597L3.67427,5.08824L8,7.12387L12.32573,5.08824L8,3.052597ZM8,10.03564L2.712899,7.54759Q2.622909,7.50524,2.5235629,7.50056Q2.4242172,7.49587,2.33064,7.52956Q2.237063,7.56324,2.163501,7.63018Q2.089939,7.69711,2.047591,7.7871Q2.026622,7.83166,2.014749,7.87945Q2.002876,7.92725,2.000556,7.97644Q1.998235,8.02563,2.005555,8.07433Q2.012876,8.12302,2.029556,8.169360000000001Q2.046237,8.21569,2.071636,8.25788Q2.097036,8.30007,2.130178,8.336500000000001Q2.16332,8.37292,2.202932,8.402180000000001Q2.242543,8.43144,2.287101,8.45241L8,11.14083L13.7129,8.45241Q13.7575,8.43144,13.7971,8.402180000000001Q13.8367,8.37292,13.8698,8.336500000000001Q13.903,8.30007,13.9284,8.25788Q13.9538,8.21569,13.9704,8.169360000000001Q13.9871,8.12302,13.9944,8.07433Q14.0018,8.02563,13.9994,7.97644Q13.9971,7.92725,13.9852,7.87945Q13.9734,7.83166,13.9524,7.7871Q13.9101,7.69711,13.8365,7.63018Q13.7629,7.56324,13.6694,7.52956Q13.5758,7.49587,13.4764,7.50056Q13.3771,7.50524,13.2871,7.54759L8,10.03564ZM8,12.9474L2.712899,10.45936Q2.66834,10.43839,2.620547,10.42651Q2.572754,10.41464,2.5235630000000002,10.412320000000001Q2.474372,10.41,2.4256735,10.41732Q2.376975,10.42464,2.33064,10.441320000000001Q2.284306,10.458,2.242115,10.4834Q2.199925,10.5088,2.163501,10.54194Q2.127077,10.57508,2.097818,10.6147Q2.068559,10.65431,2.047591,10.69887Q2.005243,10.78886,2.000556,10.8882Q1.995869,10.98755,2.029556,11.08113Q2.063244,11.1747,2.130178,11.24826Q2.197112,11.32183,2.287101,11.36417L8,14.0526L13.7129,11.36417Q13.7575,11.34321,13.7971,11.31395Q13.8367,11.28469,13.8698,11.24826Q13.903,11.21184,13.9284,11.16965Q13.9538,11.12746,13.9704,11.08112Q13.9871,11.03479,13.9944,10.98609Q14.0018,10.93739,13.9994,10.8882Q13.9971,10.83901,13.9852,10.79122Q13.9734,10.74343,13.9524,10.69887Q13.9314,10.65431,13.9022,10.6147Q13.8729,10.57508,13.8365,10.54194Q13.8001,10.5088,13.7579,10.4834Q13.7157,10.458,13.6694,10.441320000000001Q13.623,10.42464,13.5743,10.41732Q13.5256,10.41,13.4764,10.412320000000001Q13.4272,10.41464,13.3795,10.42651Q13.3317,10.43839,13.2871,10.45936L8,12.9474Z" fill-rule="evenodd" fill="#999999" fill-opacity="1"/></g></g></svg>