<svg xmlns="http://www.w3.org/2000/svg" xmlns:xlink="http://www.w3.org/1999/xlink" fill="none" version="1.1" width="7" height="6.701169967651367" viewBox="0 0 7 6.701169967651367"><g><path d="M5.24781,6.70088C5.13995,6.70066,5.03382,6.6738,4.93883,6.62271L3.51675,5.87817L2.05745,6.62271C1.83259,6.74293,1.55855,6.72263,1.35386,6.57059C1.14904,6.42136,1.0466,6.16887,1.08954,5.91912L1.3613,4.33696L0.199814,3.19037C0.018778,3.01283,-0.0458128,2.74793,0.0331845,2.50699C0.112182,2.26605,0.321076,2.09082,0.572086,2.05494L2.16168,1.82413L2.9025,0.372271C3.01354,0.144504,3.24475,0,3.49814,0C3.75153,0,3.98274,0.144504,4.09377,0.372271L4.80853,1.81296L6.42791,2.06611C6.67892,2.10199,6.88782,2.27722,6.96682,2.51816C7.04581,2.7591,6.98122,3.024,6.80019,3.20153L5.64987,4.31835L5.91046,5.93401C5.9534,6.18376,5.85096,6.43625,5.64614,6.58548C5.52869,6.66464,5.38939,6.705,5.24781,6.70088Z" fill="#FFFFFF" fill-opacity="1"/></g></svg>