<svg xmlns="http://www.w3.org/2000/svg" xmlns:xlink="http://www.w3.org/1999/xlink" fill="none" version="1.1" width="7" height="7.484375" viewBox="0 0 7 7.484375"><g><path d="M2.49658,7.17406C2.78356,7.39466,3.14057,7.50414,3.50188,7.48235C3.86152,7.50797,4.21837,7.40329,4.50718,7.18746C4.58761,7.13385,4.70824,6.9864,4.58761,6.42343C4.61268,6.08755,4.96545,5.88004,5.27121,6.02131C5.65073,6.36525,5.86235,6.34191,5.95249,6.33197C5.96423,6.33067,5.97391,6.32961,5.98163,6.32961C6.3153,6.18843,6.58666,5.93135,6.74566,5.60579C6.94915,5.30768,7.0351,4.9448,6.98693,4.58708C6.97353,4.52006,6.91991,4.3056,6.37034,4.13135C6.23786,4.04003,6.1579,3.89012,6.15588,3.72923C6.15998,3.57251,6.23996,3.42755,6.37034,3.34051Q6.91991,3.16626,6.98693,2.88477C7.0351,2.52706,6.94915,2.16417,6.74566,1.86607C6.58666,1.5405,6.3153,1.28342,5.98163,1.14225C5.9146,1.11544,5.70014,1.06182,5.27121,1.43714C5.13435,1.51615,4.96574,1.51615,4.82888,1.43714C4.69197,1.35896,4.60189,1.21883,4.58761,1.06182Q4.70824,0.498856,4.50718,0.297796C4.21531,0.0881508,3.86075,-0.0158536,3.50188,0.00290687C3.14263,-0.019181,2.78698,0.0851442,2.49658,0.297796C2.40275,0.351412,2.28212,0.498856,2.40275,1.06182C2.39325,1.22044,2.30183,1.36265,2.16148,1.43714C2.02541,1.51903,1.85522,1.51903,1.71915,1.43714C1.34063,1.10594,1.12913,1.12964,1.03859,1.13979C1.02653,1.14114,1.01661,1.14225,1.00873,1.14225C0.356987,1.47155,-0.0377241,2.15572,0.00343226,2.88477C0.0168366,2.95179,0.083857,3.16626,0.620017,3.34051C0.750405,3.42755,0.830382,3.57251,0.834482,3.72923C0.832461,3.89012,0.752506,4.04004,0.620017,4.13135C0.083857,4.3056,0.00343226,4.52006,0.00343226,4.58708C-0.0413047,5.31699,0.354461,6.00298,1.00873,6.32961C1.07575,6.35642,1.29022,6.41003,1.71915,6.02131C1.8589,5.95395,2.02173,5.95395,2.16148,6.02131C2.30392,6.10023,2.39524,6.24737,2.40275,6.41003Q2.28212,6.973,2.49658,7.17406ZM3.5125,4.88437Q3.56838,4.88437,3.62399,4.8789Q3.67961,4.87342,3.73441,4.86252Q3.78922,4.85162,3.8427,4.83539Q3.89617,4.81917,3.9478,4.79779Q3.99943,4.7764,4.04871,4.75006Q4.098,4.72372,4.14446,4.69267Q4.19092,4.66162,4.23412,4.62617Q4.27732,4.59072,4.31683,4.55121Q4.35635,4.51169,4.3918,4.4685Q4.42725,4.4253,4.4583,4.37884Q4.48934,4.33237,4.51568,4.28309Q4.54203,4.23381,4.56341,4.18218Q4.5848,4.13055,4.60102,4.07707Q4.61724,4.0236,4.62814,3.96879Q4.63904,3.91398,4.64452,3.85837Q4.65,3.80276,4.65,3.74687Q4.65,3.69099,4.64452,3.63538Q4.63904,3.57977,4.62814,3.52496Q4.61724,3.47015,4.60102,3.41668Q4.5848,3.3632,4.56341,3.31157Q4.54203,3.25994,4.51568,3.21066Q4.48934,3.16138,4.4583,3.11491Q4.42725,3.06845,4.3918,3.02525Q4.35635,2.98206,4.31683,2.94254Q4.27732,2.90303,4.23412,2.86758Q4.19092,2.83212,4.14446,2.80108Q4.098,2.77003,4.04871,2.74369Q3.99943,2.71735,3.9478,2.69596Q3.89617,2.67458,3.8427,2.65836Q3.78922,2.64213,3.73441,2.63123Q3.67961,2.62033,3.62399,2.61485Q3.56838,2.60938,3.5125,2.60938Q3.45662,2.60938,3.40101,2.61485Q3.34539,2.62033,3.29058,2.63123Q3.23578,2.64213,3.1823,2.65836Q3.12883,2.67458,3.0772,2.69596Q3.02557,2.71735,2.97629,2.74369Q2.927,2.77003,2.88054,2.80108Q2.83407,2.83212,2.79088,2.86758Q2.74768,2.90303,2.70817,2.94254Q2.66865,2.98206,2.6332,3.02525Q2.59775,3.06845,2.5667,3.11491Q2.53566,3.16138,2.50931,3.21066Q2.48297,3.25994,2.46159,3.31157Q2.4402,3.3632,2.42398,3.41668Q2.40776,3.47015,2.39686,3.52496Q2.38595,3.57977,2.38048,3.63538Q2.375,3.69099,2.375,3.74687Q2.375,3.80276,2.38048,3.85837Q2.38595,3.91398,2.39686,3.96879Q2.40776,4.0236,2.42398,4.07707Q2.4402,4.13055,2.46159,4.18218Q2.48297,4.23381,2.50931,4.28309Q2.53566,4.33237,2.5667,4.37884Q2.59775,4.4253,2.6332,4.4685Q2.66865,4.51169,2.70817,4.55121Q2.74768,4.59072,2.79088,4.62617Q2.83407,4.66162,2.88054,4.69267Q2.927,4.72372,2.97629,4.75006Q3.02557,4.7764,3.0772,4.79779Q3.12883,4.81917,3.1823,4.83539Q3.23578,4.85162,3.29058,4.86252Q3.34539,4.87342,3.40101,4.8789Q3.45662,4.88437,3.5125,4.88437Z" fill-rule="evenodd" fill="#FFFFFF" fill-opacity="1"/></g></svg>