<svg xmlns="http://www.w3.org/2000/svg" xmlns:xlink="http://www.w3.org/1999/xlink" fill="none" version="1.1" width="16" height="16" viewBox="0 0 16 16"><g transform="matrix(-1,0,0,1,32,0)"><g transform="matrix(-1,0,0,1,59.625,0)" style="opacity:0.8999999761581421;"><path d="M29.8125,0L29.8125,15.3576C29.8125,15.6621,30.123453,15.8678,30.403753000000002,15.7487L36.71875,13.0645L43.033699999999996,15.7487C43.314,15.8678,43.625,15.6621,43.625,15.3576L43.625,0L29.8125,0Z" fill="#000000" fill-opacity="0.11999999731779099"/></g><g><path d="M25.017948750000002,3.0000000000000484L25.017948750000002,11L27.017948750000002,11L27.017948750000002,3.0000000000000484L25.017948750000002,3.0000000000000484ZM24.41296875,11L24.41296875,3.0000000000000484L21.79296875,3.0000000000000484Q20.13611875,2.999999761581,18.96453875,4.17157Q17.792969226837,5.34315,17.79296875,7Q17.79296875,8.65685,18.96453875,9.82843Q20.13611875,11,21.79296875,11L24.41296875,11ZM21.79296875,9L22.41296875,9L22.41296875,5L21.79296875,5Q20.96453875,5,20.37875875,5.585789999999999Q19.79296875,6.17157,19.79296875,7Q19.79296875,7.82843,20.37875875,8.41421Q20.96453875,9,21.79296875,9Z" fill-rule="evenodd" fill="#FFFFFF" fill-opacity="1"/><path d="M21.79296875,11.6L27.61794875,11.6L27.61794875,2.4L21.79296875,2.4Q19.88758875,2.4,18.54027775,3.747308Q17.19296875,5.09462,17.19296875,7Q17.19296875,8.905380000000001,18.54027775,10.252690000000001Q19.88758875,11.6,21.79296875,11.6ZM21.79296875,3L24.41296875,3L24.41296875,11L21.79296875,11Q20.13611875,11,18.96453875,9.82843Q17.79296875,8.65685,17.79296875,7Q17.79296875,5.34315,18.96453875,4.17157Q20.13611875,3,21.79296875,3ZM25.017948750000002,3L27.017948750000002,3L27.017948750000002,11L25.017948750000002,11L25.017948750000002,3ZM22.41296875,9L21.79296875,9Q20.96453875,9,20.37875875,8.41421Q19.79296875,7.82843,19.79296875,7Q19.79296875,6.17157,20.37875875,5.585789999999999Q20.96453875,5,21.79296875,5L22.41296875,5L22.41296875,9ZM21.79296875,5.6L21.81296875,5.6L21.81296875,8.4L21.79296875,8.4Q21.21306875,8.4,20.80301875,7.98995Q20.39296875,7.5799,20.39296875,7Q20.39296875,6.4201,20.80301875,6.01005Q21.21306875,5.6,21.79296875,5.6Z" fill-rule="evenodd" fill="#BFBFBF" fill-opacity="1"/></g></g></svg>