<svg xmlns="http://www.w3.org/2000/svg" xmlns:xlink="http://www.w3.org/1999/xlink" fill="none" version="1.1" width="16" height="16" viewBox="0 0 16 16"><defs><clipPath id="master_svg0_109_3854"><rect x="0" y="0" width="16" height="16" rx="0"/></clipPath></defs><g clip-path="url(#master_svg0_109_3854)"><g><path d="M8,0C3.58172,0,0,3.58172,0,8C0,12.4183,3.58172,16,8,16C12.4183,16,16,12.4183,16,8C16,3.58172,12.4183,0,8,0" fill="#000000" fill-opacity="0.44999998807907104"/></g><g><path d="M7.9999755859375,7.2928255859375L5.9535735859375,5.2464225859375Q5.8832475859375,5.1760955859375,5.7913625859375,5.1380355859375Q5.6994765859375,5.0999755859375,5.6000204524375,5.0999755859375Q5.5005642859375,5.0999755859375,5.4086785859375,5.1380355859375Q5.3167935859375,5.1760955859375,5.2464665859375,5.2464225859375Q5.2116445859375,5.2812445859375,5.1842855859375,5.3221905859375Q5.1569265859375,5.3631365859375,5.1380805859375,5.4086335859375Q5.1192355859375,5.4541305859375,5.1096275859375,5.5024304859375Q5.1000205859375,5.5507298859375,5.1000205859375,5.5999755946664Q5.1000205859375,5.6492212859375,5.1096275859375,5.6975207859375Q5.1192355859375,5.7458205859375,5.1380805859375,5.7913175859375Q5.1569265859375,5.8368145859375,5.1842855859375,5.8777605859375Q5.2116445859375,5.9187065859375,5.2464665859375,5.9535285859375L7.2928655859375,7.9999355859375L5.2464225859375,10.0463755859375Q5.1760955859375,10.116705585937499,5.1380355859375,10.208585585937499Q5.0999755859375,10.3004755859375,5.0999755859375,10.399935585937499Q5.0999755859375,10.4993855859375,5.1380355859375,10.591275585937499Q5.1760955859375,10.683155585937499,5.2464225859375,10.7534855859375Q5.2812445859375,10.7883055859375,5.3221905859375,10.8156655859375Q5.3631365859375,10.8430255859375,5.4086335859375,10.861865585937501Q5.4541305859375,10.8807155859375,5.5024304859375,10.8903255859375Q5.5507298859375,10.899925585937499,5.5999755859375,10.899925585937499Q5.6492212859375,10.899925585937499,5.6975206859375,10.8903255859375Q5.7458205859375,10.8807155859375,5.7913175859375,10.861865585937501Q5.8368145859375,10.8430255859375,5.8777605859375,10.8156655859375Q5.9187065859375,10.7883055859375,5.9535285859375,10.7534855859375L7.9999755859375,8.7070355859375L10.046425585937499,10.7534855859375Q10.0812455859375,10.7883055859375,10.1221955859375,10.8156655859375Q10.1631355859375,10.8430255859375,10.2086355859375,10.861865585937501Q10.254135585937501,10.8807155859375,10.3024355859375,10.8903255859375Q10.3507255859375,10.899925585937499,10.3999755859375,10.899925585937499Q10.4492255859375,10.899925585937499,10.497525585937499,10.8903255859375Q10.5458155859375,10.8807155859375,10.591315585937501,10.861865585937501Q10.6368155859375,10.8430255859375,10.6777655859375,10.8156655859375Q10.7187055859375,10.7883055859375,10.7535255859375,10.7534855859375Q10.7883555859375,10.7186655859375,10.8157055859375,10.6777155859375Q10.843065585937499,10.6367655859375,10.8619155859375,10.591275585937499Q10.8807655859375,10.5457755859375,10.8903655859375,10.4974755859375Q10.8999755859375,10.4491755859375,10.8999755859375,10.399935585937499Q10.8999755859375,10.3506855859375,10.8903655859375,10.3023855859375Q10.8807655859375,10.2540855859375,10.8619155859375,10.208585585937499Q10.843065585937499,10.1630955859375,10.8157055859375,10.1221455859375Q10.7883555859375,10.0811955859375,10.7535255859375,10.0463755859375L8.7070855859375,7.9999355859375L10.7534855859375,5.9535285859375Q10.7883055859375,5.9187065859375,10.8156655859375,5.8777605859375Q10.8430255859375,5.8368145859375,10.861865585937501,5.7913175859375Q10.8807155859375,5.7458205859375,10.8903255859375,5.6975206859375Q10.899925585937499,5.6492212859375,10.899925585937499,5.5999755859375Q10.899925585937499,5.5507298859375,10.8903255859375,5.5024304859375Q10.8807155859375,5.4541305859375,10.861865585937501,5.4086335859375Q10.8430255859375,5.3631365859375,10.8156655859375,5.3221905859375Q10.7883055859375,5.2812445859375,10.7534855859375,5.2464225859375Q10.683155585937499,5.1760955859375,10.591275585937499,5.1380355859375Q10.4993855859375,5.0999755859375,10.399935585937499,5.0999755859375Q10.3004755859375,5.0999755859375,10.208585585937499,5.1380355859375Q10.116705585937499,5.1760955859375,10.0463755859375,5.2464225859375L7.9999755859375,7.2928255859375Z" fill-rule="evenodd" fill="#FFFFFF" fill-opacity="1"/></g></g></svg>