<svg xmlns="http://www.w3.org/2000/svg" xmlns:xlink="http://www.w3.org/1999/xlink" fill="none" version="1.1" width="18" height="18" viewBox="0 0 18 18"><defs><clipPath id="master_svg0_3244_1506"><rect x="0" y="0" width="18" height="18" rx="0"/></clipPath></defs><g clip-path="url(#master_svg0_3244_1506)"><g><path d="M9.00048828125,16.50006103515625Q9.18459828125,16.50006103515625,9.36849828125,16.49106103515625Q9.55238828125,16.48196103515625,9.73561828125,16.463961035156252Q9.91884828125,16.44586103515625,10.10096828125,16.418861035156247Q10.28308828125,16.39186103515625,10.46366828125,16.35596103515625Q10.64423828125,16.32006103515625,10.82283828125,16.275261035156248Q11.00143828125,16.23056103515625,11.17762828125,16.17716103515625Q11.35380828125,16.12366103515625,11.52718828125,16.06166103515625Q11.70048828125,15.99966103515625,11.87058828125,15.92916103515625Q12.04068828125,15.85866103515625,12.20718828125,15.77996103515625Q12.37358828125,15.70126103515625,12.53598828125,15.61446103515625Q12.69828828125,15.52766103515625,12.85628828125,15.43306103515625Q13.01418828125,15.33836103515625,13.16728828125,15.23606103515625Q13.32038828125,15.13376103515625,13.46818828125,15.02416103515625Q13.61608828125,14.91446103515625,13.75838828125,14.79766103515625Q13.90078828125,14.68086103515625,14.03718828125,14.55716103515625Q14.17358828125,14.43356103515625,14.30378828125,14.30336103515625Q14.43398828125,14.17316103515625,14.55758828125,14.03676103515625Q14.68128828125,13.90036103515625,14.79808828125,13.75796103515625Q14.91488828125,13.61566103515625,15.02458828125,13.46776103515625Q15.13418828125,13.31996103515625,15.23648828125,13.16686103515625Q15.33878828125,13.01376103515625,15.43348828125,12.85586103515625Q15.52808828125,12.69786103515625,15.61488828125,12.53556103515625Q15.70168828125,12.37316103515625,15.78038828125,12.20676103515625Q15.85908828125,12.04026103515625,15.92958828125,11.87016103515625Q16.00008828125,11.70006103515625,16.06208828125,11.52676103515625Q16.12408828125,11.35338103515625,16.17758828125,11.17720103515625Q16.23098828125,11.00101103515625,16.275688281249998,10.82241103515625Q16.32048828125,10.64381103515625,16.35638828125,10.46324103515625Q16.39228828125,10.28266103515625,16.419288281249997,10.10054103515625Q16.44628828125,9.91842103515625,16.464388281250002,9.73519103515625Q16.48238828125,9.55196103515625,16.49148828125,9.36807103515625Q16.50048828125,9.18417103515625,16.50048828125,9.00006103515625Q16.50048828125,8.81595103515625,16.49148828125,8.63205103515625Q16.48238828125,8.44816103515625,16.464388281250002,8.26493103515625Q16.44628828125,8.08170103515625,16.419288281249997,7.89958103515625Q16.39228828125,7.71746103515625,16.35638828125,7.53688103515625Q16.32048828125,7.35631103515625,16.275688281249998,7.17771103515625Q16.23098828125,6.99911103515625,16.17758828125,6.82293103515625Q16.12408828125,6.64674103515625,16.06208828125,6.47339103515625Q16.00008828125,6.30003103515625,15.92958828125,6.12993103515625Q15.85908828125,5.95983103515625,15.78038828125,5.79340103515625Q15.70168828125,5.62696103515625,15.61488828125,5.46458103515625Q15.52808828125,5.30221103515625,15.43348828125,5.14429103515625Q15.33878828125,4.98637103515625,15.23648828125,4.83328103515625Q15.13418828125,4.68020103515625,15.02458828125,4.5323110351562494Q14.91488828125,4.3844310351562505,14.79808828125,4.24211103515625Q14.68128828125,4.09979103515625,14.55758828125,3.96337103515625Q14.43398828125,3.82695103515625,14.30378828125,3.69676103515625Q14.17358828125,3.56657103515625,14.03718828125,3.44293103515625Q13.90078828125,3.31928103515625,13.75838828125,3.20248103515625Q13.61608828125,3.08568103515625,13.46818828125,2.97600103515625Q13.32038828125,2.86633103515625,13.16728828125,2.76404103515625Q13.01418828125,2.66175103515625,12.85628828125,2.56710103515625Q12.69828828125,2.47244303515625,12.53598828125,2.38565103515625Q12.37358828125,2.29886003515625,12.20718828125,2.2201410351562503Q12.04068828125,2.14142203515625,11.87058828125,2.07096403515625Q11.70048828125,2.00050703515625,11.52718828125,1.9384800351562501Q11.35380828125,1.87645403515625,11.17762828125,1.82300803515625Q11.00143828125,1.7695630351562501,10.82283828125,1.72482703515625Q10.64423828125,1.68009003515625,10.46366828125,1.64417103515625Q10.28308828125,1.60825203515625,10.10096828125,1.58123723515625Q9.91884828125,1.55422193515625,9.73561828125,1.53617553515625Q9.55238828125,1.51812923515625,9.36849828125,1.50909511515625Q9.18459828125,1.50006103515625,9.00048828125,1.50006103515625Q8.81637828125,1.50006103515625,8.63247828125,1.50909511515625Q8.44858828125,1.51812923515625,8.26535828125,1.53617553515625Q8.08212828125,1.55422193515625,7.90000828125,1.58123723515625Q7.71788828125,1.60825203515625,7.53730828125,1.64417103515625Q7.35673828125,1.68009003515625,7.17813828125,1.72482703515625Q6.99953828125,1.7695630351562501,6.82335828125,1.82300803515625Q6.64716828125,1.87645403515625,6.47381828125,1.9384800351562501Q6.30045828125,2.00050703515625,6.13035828125,2.07096403515625Q5.96025828125,2.14142203515625,5.79382828125,2.2201410351562503Q5.62738828125,2.29886003515625,5.46500828125,2.38565103515625Q5.30263828125,2.47244303515625,5.14471828125,2.56710103515625Q4.98679828125,2.66175103515625,4.83370828125,2.76404103515625Q4.68062828125,2.86633103515625,4.5327382812499994,2.97600103515625Q4.3848582812500005,3.08568103515625,4.24253828125,3.20248103515625Q4.10021828125,3.31928103515625,3.96379828125,3.44293103515625Q3.82737828125,3.56657103515625,3.69718828125,3.69676103515625Q3.56699828125,3.82695103515625,3.44335828125,3.96337103515625Q3.31970828125,4.09979103515625,3.20290828125,4.24211103515625Q3.08610828125,4.3844310351562505,2.97642828125,4.53232103515625Q2.86675828125,4.68020103515625,2.76446828125,4.83328103515625Q2.66217828125,4.98637103515625,2.56752828125,5.14429103515625Q2.47287028125,5.30221103515625,2.38607828125,5.46458103515625Q2.29928728125,5.62696103515625,2.2205682812500003,5.79340103515625Q2.14184928125,5.95983103515625,2.07139128125,6.12993103515625Q2.00093428125,6.30003103515625,1.9389072812500001,6.47339103515625Q1.87688128125,6.64674103515625,1.82343528125,6.82293103515625Q1.7699902812500001,6.99911103515625,1.72525428125,7.17771103515625Q1.68051728125,7.35631103515625,1.64459828125,7.53688103515625Q1.60867928125,7.71746103515625,1.58166448125,7.89958103515625Q1.55464918125,8.08170103515625,1.53660278125,8.26493103515625Q1.51855648125,8.44816103515625,1.50952236125,8.63205103515625Q1.50048828125,8.81595103515625,1.50048828125,9.00006103515625Q1.50048828125,9.18417103515625,1.50952236125,9.36807103515625Q1.51855648125,9.55196103515625,1.53660278125,9.73519103515625Q1.55464918125,9.91842103515625,1.58166448125,10.10054103515625Q1.60867928125,10.28266103515625,1.64459828125,10.46324103515625Q1.68051728125,10.64381103515625,1.72525428125,10.82241103515625Q1.7699902812500001,11.00101103515625,1.82343528125,11.17720103515625Q1.87688128125,11.35338103515625,1.9389072812500001,11.52676103515625Q2.00093428125,11.70006103515625,2.07139128125,11.87016103515625Q2.14184928125,12.04026103515625,2.2205682812500003,12.20676103515625Q2.29928728125,12.37316103515625,2.38607828125,12.53556103515625Q2.47287028125,12.69786103515625,2.56752828125,12.85586103515625Q2.66217828125,13.01376103515625,2.76446828125,13.16686103515625Q2.86675828125,13.31996103515625,2.97642828125,13.46776103515625Q3.08610828125,13.61566103515625,3.20290828125,13.75796103515625Q3.31970828125,13.90036103515625,3.44335828125,14.03676103515625Q3.56699828125,14.17316103515625,3.69718828125,14.30336103515625Q3.82737828125,14.43356103515625,3.96379828125,14.55716103515625Q4.10021828125,14.68086103515625,4.24253828125,14.79766103515625Q4.3848582812500005,14.91446103515625,4.53274828125,15.02416103515625Q4.68062828125,15.13376103515625,4.83370828125,15.23606103515625Q4.98679828125,15.33836103515625,5.14471828125,15.43306103515625Q5.30263828125,15.52766103515625,5.46500828125,15.61446103515625Q5.62738828125,15.70126103515625,5.79382828125,15.77996103515625Q5.96025828125,15.85866103515625,6.13035828125,15.92916103515625Q6.30045828125,15.99966103515625,6.47381828125,16.06166103515625Q6.64716828125,16.12366103515625,6.82335828125,16.17716103515625Q6.99953828125,16.23056103515625,7.17813828125,16.275261035156248Q7.35673828125,16.32006103515625,7.53730828125,16.35596103515625Q7.71788828125,16.39186103515625,7.90000828125,16.418861035156247Q8.08212828125,16.44586103515625,8.26535828125,16.463961035156252Q8.44858828125,16.48196103515625,8.63247828125,16.49106103515625Q8.81637828125,16.50006103515625,9.00048828125,16.50006103515625ZM8.69529828125,11.69996103515625L12.87318828125,7.18822103515625C12.99038828125,7.06314103515625,13.05558828125,6.89815103515625,13.05558828125,6.72679103515625L13.05508828125,6.70468103515625C13.04918828125,6.52576103515625,12.97258828125,6.35649103515625,12.84188828125,6.23412103515625C12.71688828125,6.11700103515625,12.55188828125,6.05182103515625,12.38048828125,6.05182103515625L12.37888828125,6.05182103515625L12.35848828125,6.05216103515625C12.17958828125,6.05804103515625,12.01008828125,6.13476103515625,11.88778828125,6.26543103515625L8.20267828125,10.25093103515625L6.11161828125,8.01723103515625C5.98399828125,7.88090103515625,5.80559828125,7.80354103515625,5.61884828125,7.80354103515625L5.60615828125,7.80366103515625C5.43924828125,7.80679103515625,5.27941828125,7.87167103515625,5.1575482812499995,7.98576103515625C5.02684828125,8.10811103515625,4.95011828125,8.27736103515625,4.94421828125,8.45629103515625L4.94384828125,8.478541035156251L4.94392828125,8.48872103515625C4.94645828125,8.65651103515625,5.01139828125,8.81734103515625,5.12607828125,8.939841035156249L7.70982828125,11.69986103515625C7.71993828125,11.71066103515625,7.73040828125,11.72116103515625,7.74121828125,11.73126103515625C8.01332828125,11.98606103515625,8.440488281250001,11.97206103515625,8.69529828125,11.69996103515625Z" fill-rule="evenodd" fill="#08C479" fill-opacity="1"/></g></g></svg>