<svg xmlns="http://www.w3.org/2000/svg" xmlns:xlink="http://www.w3.org/1999/xlink" fill="none" version="1.1" width="18" height="18" viewBox="0 0 18 18"><defs><clipPath id="master_svg0_149_4873"><rect x="0" y="0" width="18" height="18" rx="0"/></clipPath></defs><g clip-path="url(#master_svg0_149_4873)"><g><path d="M14.85,13.875L14.85,4.125Q14.85,3.255153,14.2349,2.640076Q13.61985,2.025,12.75,2.025L5.25,2.025Q4.380152,2.025,3.7650758,2.6400757Q3.15,3.255152,3.15,4.125L3.15,13.875Q3.15,14.7448,3.7650759,15.3599Q4.380152,15.975,5.25,15.975L12.75,15.975Q13.61985,15.975,14.2349,15.3599Q14.85,14.7448,14.85,13.875ZM11.040009999999999,3.225L8.49001,3.225L8.49001,6.574730000000001L9.31759,5.91957Q9.357140000000001,5.88826,9.40137,5.863989999999999Q9.44559,5.83972,9.49324,5.82318Q9.5409,5.80664,9.59065,5.79828Q9.64039,5.78993,9.69084,5.79Q9.74128,5.79007,9.79101,5.79856Q9.84073,5.80705,9.88834,5.82372Q9.93595,5.8404,9.98011,5.86479Q10.02426,5.88917,10.06373,5.92059L11.040009999999999,6.69787L11.040009999999999,3.225ZM7.2900100000000005,3.225L5.25,3.225Q4.87721,3.225,4.6136040000000005,3.488604Q4.35,3.75221,4.35,4.125L4.35,13.875Q4.35,14.2478,4.6136040000000005,14.5114Q4.87721,14.775,5.25,14.775L12.75,14.775Q13.12279,14.775,13.3864,14.5114Q13.65,14.2478,13.65,13.875L13.65,4.125Q13.65,3.75221,13.3864,3.488604Q13.12279,3.225,12.75,3.225L12.24001,3.225L12.24001,7.9425Q12.24001,8.00159,12.22848,8.05955Q12.21696,8.11751,12.19434,8.1721Q12.17173,8.226700000000001,12.1389,8.275839999999999Q12.10606,8.32497,12.06428,8.36676Q12.02249,8.40855,11.97335,8.441379999999999Q11.92422,8.47421,11.86962,8.49682Q11.81503,8.51944,11.75707,8.53097Q11.699110000000001,8.54249,11.64001,8.5425Q11.53819,8.5425,11.44208,8.50891Q11.34596,8.47532,11.266300000000001,8.4119L9.68896,7.15609L8.26244,8.28542Q8.2161,8.322099999999999,8.163499999999999,8.349039999999999Q8.1109,8.37598,8.05406,8.39213Q7.99722,8.408290000000001,7.93831,8.41305Q7.87941,8.4178,7.82071,8.41098Q7.76201,8.40415,7.705769999999999,8.386009999999999Q7.64953,8.36786,7.597910000000001,8.339089999999999Q7.5463000000000005,8.31032,7.5012799999999995,8.27204Q7.45627,8.23375,7.4195899999999995,8.18742Q7.35665,8.10792,7.32333,8.01215Q7.2900100000000005,7.91639,7.2900100000000005,7.815L7.2900100000000005,3.225ZM6.375,11.085L11.625,11.085Q11.684090000000001,11.085,11.742049999999999,11.07347Q11.80001,11.06194,11.85461,11.03933Q11.90921,11.01672,11.95834,10.98388Q12.00748,10.95105,12.04926,10.90927Q12.09105,10.86748,12.12388,10.81835Q12.15671,10.76921,12.17933,10.71461Q12.20194,10.66002,12.21347,10.60206Q12.225,10.5441,12.225,10.485Q12.225,10.42591,12.21347,10.36795Q12.20194,10.309989999999999,12.17933,10.25539Q12.15671,10.200800000000001,12.12388,10.15166Q12.09105,10.10253,12.04926,10.06074Q12.00748,10.01895,11.95834,9.98612Q11.90921,9.953289999999999,11.85461,9.930679999999999Q11.80001,9.908059999999999,11.742049999999999,9.89653Q11.684090000000001,9.885,11.625,9.885L6.375,9.885Q6.3159,9.885,6.25795,9.89653Q6.19999,9.908059999999999,6.14539,9.930679999999999Q6.09079,9.953289999999999,6.04166,9.98612Q5.99252,10.01895,5.95074,10.06074Q5.90895,10.10253,5.87612,10.15166Q5.84329,10.200800000000001,5.82067,10.25539Q5.7980599999999995,10.309989999999999,5.78653,10.36795Q5.775,10.42591,5.775,10.485Q5.775,10.5441,5.78653,10.60206Q5.7980599999999995,10.66002,5.82067,10.71461Q5.84329,10.76921,5.87612,10.81835Q5.90895,10.86748,5.95074,10.90927Q5.99252,10.95105,6.04166,10.98388Q6.09079,11.01672,6.14539,11.03933Q6.19999,11.06194,6.25795,11.07347Q6.3159,11.085,6.375,11.085ZM6.375,13.335L11.625,13.335Q11.684090000000001,13.335,11.742049999999999,13.3235Q11.80001,13.3119,11.85461,13.2893Q11.90921,13.2667,11.95834,13.2339Q12.00748,13.2011,12.04926,13.1593Q12.09105,13.1175,12.12388,13.0683Q12.15671,13.0192,12.17933,12.9646Q12.20194,12.91,12.21347,12.8521Q12.225,12.7941,12.225,12.735Q12.225,12.6759,12.21347,12.61795Q12.20194,12.55999,12.17933,12.50539Q12.15671,12.45079,12.12388,12.40166Q12.09105,12.35252,12.04926,12.31074Q12.00748,12.26895,11.95834,12.23612Q11.90921,12.20329,11.85461,12.18067Q11.80001,12.15806,11.742049999999999,12.14653Q11.684090000000001,12.135,11.625,12.135L6.375,12.135Q6.3159,12.135,6.25795,12.14653Q6.19999,12.15806,6.14539,12.18067Q6.09079,12.20329,6.04166,12.23612Q5.99252,12.26895,5.95074,12.31074Q5.90895,12.35252,5.87612,12.40166Q5.84329,12.4508,5.82067,12.50539Q5.7980599999999995,12.55999,5.78653,12.61795Q5.775,12.6759,5.775,12.735Q5.775,12.7941,5.78653,12.8521Q5.7980599999999995,12.91,5.82067,12.9646Q5.84329,13.0192,5.87612,13.0683Q5.90895,13.1175,5.95074,13.1593Q5.99252,13.2011,6.04166,13.2339Q6.09079,13.2667,6.14539,13.2893Q6.19999,13.3119,6.25795,13.3235Q6.3159,13.335,6.375,13.335Z" fill-rule="evenodd" fill="#1D74F5" fill-opacity="1"/></g></g></svg>