<svg xmlns="http://www.w3.org/2000/svg" xmlns:xlink="http://www.w3.org/1999/xlink" fill="none" version="1.1" width="16" height="16" viewBox="0 0 16 16"><g><g><path d="M3.9996875,15.519981034994125L11.9996875,15.519981034994125C13.2809875,15.519981034994125,14.3196875,14.481281034994126,14.3196875,13.199981034994126L14.3196875,2.799981034994125C14.3196875,1.5186810349941253,13.2809875,0.47998103499412537,11.9996875,0.47998103499412537L3.9996875,0.47998103499412537C2.7183875,0.47998103499412537,1.6796875,1.5186810349941253,1.6796875,2.799981034994125L1.6796875,13.199981034994126C1.6796875,14.481281034994126,2.7183875,15.519981034994125,3.9996875,15.519981034994125ZM7.9199175,7.312141034994125L7.9199175,3.1441410349941252C7.9199275,2.8657910349941256,8.1455675,2.6401410349941252,8.4239175,2.6401410349941252L11.4159275,2.6401410349941252C11.6942875,2.6401410349941252,11.9198875,2.8657910349941256,11.9198875,3.1441410349941252L11.9198875,7.4401410349941255C11.9215875,7.543121034994125,11.8632875,7.637701034994126,11.7704875,7.682391034994126C11.6776875,7.727071034994125,11.5673675,7.713701034994125,11.4879275,7.648141034994126L9.8399175,6.336141034994125L8.351917499999999,7.520141034994126C8.2709175,7.579201034994125,8.1639975,7.588921034994125,8.073667499999999,7.545431034994126C7.9833475,7.501941034994125,7.9242575,7.412291034994126,7.9199175,7.312141034994125ZM11.2000775,10.704181034994125L4.8000775,10.704181034994125C4.4024375,10.704181034994125,4.0800775,10.381811034994126,4.0800775,9.984161034994125C4.0800775,9.586511034994125,4.4024375,9.264161034994125,4.8000775,9.264161034994125L11.2000775,9.264161034994125C11.5977275,9.264161034994125,11.9200875,9.586511034994125,11.9200875,9.984161034994125C11.9200875,10.381811034994126,11.5977275,10.704181034994125,11.2000775,10.704181034994125ZM4.8000775,12.040081034994126L11.2000775,12.040081034994126C11.5977275,12.040081034994126,11.9200875,12.362481034994126,11.9200875,12.760081034994124C11.9200875,13.157781034994125,11.5977175,13.480081034994125,11.2000775,13.480081034994125L4.8000775,13.480081034994125C4.4024375,13.480081034994125,4.0800775,13.157781034994125,4.0800775,12.760081034994124C4.0800775,12.362481034994126,4.4024375,12.040081034994126,4.8000775,12.040081034994126Z" fill-rule="evenodd" fill="#1D74F5" fill-opacity="1"/></g></g></svg>