<svg xmlns="http://www.w3.org/2000/svg" xmlns:xlink="http://www.w3.org/1999/xlink" fill="none" version="1.1" width="16" height="16" viewBox="0 0 16 16"><defs><clipPath id="master_svg0_183_2212"><rect x="0" y="0" width="16" height="16" rx="0"/></clipPath></defs><g clip-path="url(#master_svg0_183_2212)"><g><path d="M12.318052734375,4.8972740234375L14.145152734375,3.0701380234375Q14.186952734375,3.0283520234375,14.219852734375,2.9792160234375Q14.252652734375,2.9300810234375,14.275252734375,2.8754840234375Q14.297852734375,2.8208880234375,14.309352734375,2.7629280234375Q14.320952734375,2.7049689234375,14.320952734375,2.6458740408953Q14.320952734375,2.5867792234375,14.309352734375,2.5288200234375Q14.297852734375,2.4708600234375,14.275252734375,2.4162640234375Q14.252652734375,2.3616670234375,14.219852734375,2.3125320234375Q14.186952734375,2.2633960234375,14.145152734375,2.2216100234375Q14.060752734375,2.1372190234375,13.950552734375,2.0915460234375Q13.840252734375,2.0458740234375,13.720952734375,2.0458740234375Q13.601552734375,2.0458740234375,13.491352734375,2.0915460234375Q13.381052734375,2.1372190234375,13.296652734375,2.2216100234375L11.896942734375,3.6213280234375L10.821042734375,2.4976150234375Q10.780172734375,2.4549310234375,10.731762734375,2.4210390234375Q10.683352734375,2.3871480234374998,10.629262734375,2.3633520234375Q10.575172734375,2.3395560234375,10.517472734375,2.3267700234375Q10.459782734375,2.3139840234375,10.400702734375,2.3127000234375Q10.341612734375,2.3114160234375,10.283422734375,2.3216820234375Q10.225222734375,2.3319490234374998,10.170152734375,2.3533710234375Q10.115072734375001,2.3747940234375,10.065242734375001,2.4065500234375Q10.015402734375,2.4383050234375,9.972712734375001,2.4791740234375Q9.886512734375,2.5617109234375,9.838452734375,2.6709548234375Q9.790392734375,2.7801990234375,9.787802734375,2.8995180234375Q9.785202734375,3.0188370234375,9.828472734375,3.1300660234375Q9.871742734375001,3.2412960234375,9.954272734375,3.3275010234374998L11.048212734375,4.4700540234375L10.011372734375,5.5068940234375L7.779122734375,3.2688690234375Q7.737392734375,3.2270280234374997,7.688302734375,3.1941330234375Q7.639202734375,3.1612380234375,7.584642734375,3.1385530234375Q7.530072734375,3.1158680234375,7.472122734375,3.1042640234375Q7.414182734375,3.0926600234375,7.355092734375,3.0925840234375Q7.295992734375,3.0925080234375,7.238022734375,3.1039610234375Q7.180042734375,3.1154150234375,7.125422734375,3.1379590234375Q7.070792734375,3.1605030234375002,7.021612734375,3.1932710234375Q6.972432734375,3.2260390234375,6.930592734375,3.2677710234375Q6.846092734375,3.3520530234375,6.800282734375,3.4622570234375Q6.754462734375,3.5724600234375,6.754312734375,3.6918040234375002Q6.754152734375,3.8111540234375,6.799682734375,3.9214740234375Q6.845212734375,4.0317940234375005,6.929502734375,4.1162940234375L9.162842734375001,6.3554240234375L8.335652734375,7.1826240234375Q7.200812734375,6.0875740234375,5.612382734375,6.0875740234375Q3.983142734375,6.0875740234375,2.831099734375,7.2396240234375Q1.679052734375,8.3916640234375,1.679052734375,10.020904023437499Q1.679052734375,11.6501440234375,2.831099734375,12.8021740234375Q3.983142734375,13.9542740234375,5.612382734375,13.9542740234375Q7.241622734375,13.9542740234375,8.393672734375,12.8021740234375Q9.545722734375001,11.6501440234375,9.545722734375001,10.020904023437499Q9.545722734375001,8.982364023437501,9.077602734374999,8.1377140234375L12.305752734375,4.9096140234375Q12.311952734375,4.9035340234375,12.318052734375,4.8972740234375ZM3.679622734375,8.0881440234375Q4.480202734375,7.2875740234375,5.612382734375,7.2875740234375Q6.744572734375,7.2875740234375,7.545142734375,8.0881440234375Q8.345722734375,8.8887240234375,8.345722734375,10.020904023437499Q8.345722734375,11.1530940234375,7.545142734375,11.9536640234375Q6.744572734375,12.7542740234375,5.612382734375,12.7542740234375Q4.480202734375,12.7542740234375,3.679622734375,11.9536640234375Q2.879052734375,11.1530940234375,2.879052734375,10.020904023437499Q2.879052734375,8.8887240234375,3.679622734375,8.0881440234375Z" fill-rule="evenodd" fill="#333333" fill-opacity="1"/></g></g></svg>