<svg xmlns="http://www.w3.org/2000/svg" xmlns:xlink="http://www.w3.org/1999/xlink" fill="none" version="1.1" width="20" height="20" viewBox="0 0 20 20"><defs><clipPath id="master_svg0_282_1378"><rect x="0" y="0" width="20" height="20" rx="0"/></clipPath></defs><g clip-path="url(#master_svg0_282_1378)"><g><path d="M7.02587890625,3.944160953125L10.52587890625,3.944160953125Q10.58604890625,3.944160953125,10.64505890625,3.932422953125Q10.70406890625,3.9206839531249997,10.75965890625,3.897657953125Q10.81524890625,3.874632953125,10.865278906250001,3.841203953125Q10.91530890625,3.807775953125,10.95785890625,3.765229953125Q11.00039890625,3.7226839531250002,11.033828906250001,3.672654953125Q11.06725890625,3.622625953125,11.090288906249999,3.567036953125Q11.113308906250001,3.511447953125,11.12504890625,3.452433953125Q11.13678890625,3.393421253125,11.13678890625,3.333251953125Q11.13678890625,3.273082653125,11.12504890625,3.214069953125Q11.113308906250001,3.155055953125,11.090288906249999,3.099466953125Q11.06725890625,3.043877953125,11.033828906250001,2.993848953125Q11.00039890625,2.9438199531249998,10.95785890625,2.901273953125Q10.91530890625,2.858727953125,10.865278906250001,2.825299953125Q10.81524890625,2.791870953125,10.75965890625,2.768845953125Q10.70406890625,2.7458199531250003,10.64505890625,2.734080953125Q10.58604890625,2.722342953125,10.52587890625,2.722342953125L7.02587890625,2.722342953125Q5.84084890625,2.722342953125,5.00291090625,3.560283953125Q4.16496990625,4.398221953125,4.16496990625,5.583251953125L4.16496990625,13.083251953125Q4.16496990625,14.268251953125,5.00291090625,15.106251953125Q5.84084890625,15.944151953125,7.02587890625,15.944151953125L10.52587890625,15.944151953125Q10.58604890625,15.944151953125,10.64505890625,15.932451953125Q10.70406890625,15.920651953125,10.75965890625,15.897651953125Q10.81524890625,15.874651953125,10.865278906250001,15.841151953125Q10.91530890625,15.807751953125,10.95785890625,15.765251953125Q11.00039890625,15.722651953125,11.033828906250001,15.672651953125Q11.06725890625,15.622651953125,11.090288906249999,15.567051953125Q11.113308906250001,15.511451953125,11.12504890625,15.452451953125Q11.13678890625,15.393451953125,11.13678890625,15.333251953125Q11.13678890625,15.273051953125,11.12504890625,15.214051953125Q11.113308906250001,15.155051953125,11.090288906249999,15.099451953125Q11.06725890625,15.043851953125,11.033828906250001,14.993851953125Q11.00039890625,14.943851953125,10.95785890625,14.901251953125Q10.91530890625,14.858751953125,10.865278906250001,14.825251953125Q10.81524890625,14.791851953125,10.75965890625,14.768851953125Q10.70406890625,14.745851953125,10.64505890625,14.734051953125Q10.58604890625,14.722351953125,10.52587890625,14.722351953125L7.02587890625,14.722351953125Q6.34694890625,14.722351953125,5.86686890625,14.242251953125Q5.38678790625,13.762151953125,5.38678790625,13.083251953125L5.38678790625,5.583251953125Q5.38678790625,4.904321953125,5.86686890625,4.424241953125Q6.34694890625,3.944160953125,7.02587890625,3.944160953125ZM17.23667890625,8.647551953125L13.93668890625,5.775051953125001Q13.89129890625,5.735541953125,13.83907890625,5.705651953125Q13.78685890625,5.675761953125,13.72981890625,5.656631953125Q13.67276890625,5.637501953125,13.61308890625,5.629861953124999Q13.55339890625,5.6222319531250005,13.49337890625,5.626391953125Q13.43334890625,5.630551953125,13.37528890625,5.646331953124999Q13.31722890625,5.662121953125,13.26335890625,5.6889319531249996Q13.20949890625,5.715741953125001,13.16189890625,5.752551953125Q13.11429890625,5.789351953125,13.07478890625,5.834741953125Q13.03528890625,5.880121953125,13.00539890625,5.932341953125Q12.97550890625,5.9845619531250005,12.95637890625,6.041611953125Q12.93724890625,6.098661953125,12.92960890625,6.158341953124999Q12.92197890625,6.218021953125,12.92613890625,6.278051953125Q12.93028890625,6.3380719531250005,12.94607890625,6.396131953125Q12.96186890625,6.454191953125,12.98867890625,6.508061953125Q13.01548890625,6.561931953125001,13.05229890625,6.609531953125Q13.08909890625,6.657131953125,13.13448890625,6.696631953124999L15.46177890625,8.722411953125L7.87361890625,8.722411953125Q7.8134489062500005,8.722411953125,7.75442890625,8.734151953125Q7.69541890625,8.745891953125,7.63982890625,8.768921953125Q7.58423890625,8.791941953125,7.53420890625,8.825371953125Q7.4841789062499995,8.858801953124999,7.441638906250001,8.901341953125Q7.39908890625,8.943891953125,7.36565890625,8.993921953125Q7.33222890625,9.043951953125,7.309208906249999,9.099541953125Q7.28617890625,9.155131953125,7.2744389062499994,9.214141953125Q7.262708906249999,9.273151953125,7.262708906249999,9.333321953125001Q7.262708906249999,9.393491953125,7.2744389062499994,9.452511953125Q7.28617890625,9.511521953125001,7.309208906249999,9.567111953125Q7.33222890625,9.622701953125,7.36565890625,9.672731953125Q7.39908890625,9.722751953125,7.441638906250001,9.765301953125Q7.4841789062499995,9.807851953124999,7.53420890625,9.841281953125Q7.58423890625,9.874701953125001,7.63982890625,9.897731953125Q7.69541890625,9.920751953125,7.75442890625,9.932491953125Q7.8134489062500005,9.944231953125,7.87361890625,9.944231953125L15.45517890625,9.944231953125L13.11353890625,11.968701953125Q13.06801890625,12.008051953125,13.03105890625,12.055531953125Q12.99408890625,12.103001953125,12.96709890625,12.156781953125Q12.94010890625,12.210551953125,12.92411890625,12.268561953125Q12.90813890625,12.326571953125,12.90377890625,12.386581953125Q12.89941890625,12.446591953125,12.90685890625,12.506301953125Q12.91428890625,12.566011953125,12.93322890625,12.623121953125Q12.95215890625,12.680231953125,12.98187890625,12.732551953125Q13.01159890625,12.784871953125,13.05094890625,12.830391953125Q13.09029890625,12.875901953125,13.13776890625,12.912871953125Q13.18524890625,12.949831953125,13.23902890625,12.976821953125Q13.29279890625,13.003821953125,13.35080890625,13.019801953125Q13.40881890625,13.035781953125,13.46882890625,13.040141953125Q13.52883890625,13.044501953125,13.58854890625,13.037071953125Q13.64824890625,13.029641953125,13.70536890625,13.010701953125Q13.76247890625,12.991761953125,13.81479890625,12.962041953125Q13.86711890625,12.932331953125,13.91262890625,12.892981953125L17.23967890625,10.016521953125Q17.548078906249998,9.744541953125001,17.548078906249998,9.333341953125Q17.548078906249998,8.922141953125,17.23667890625,8.647551953125Z" fill-rule="evenodd" fill="#666666" fill-opacity="1"/></g></g></svg>