<svg xmlns="http://www.w3.org/2000/svg" xmlns:xlink="http://www.w3.org/1999/xlink" fill="none" version="1.1" width="16" height="16" viewBox="0 0 16 16"><g><g><path d="M8.1994,8.22081Q8.71843,7.71524,8.71843,6.99068Q8.71843,6.26612,8.1994,5.76054L5.69684,3.25808Q5.19172,2.75,4.477460000000001,2.75Q3.7632,2.75,3.25963,3.25653Q2.75,3.7632,2.75,4.477460000000001Q2.75,5.19172,3.25653,5.69529L5.00426,7.44302C5.144909999999999,7.58367,5.22393,7.77443,5.22393,7.97335C5.22393,8.17226,5.144909999999999,8.363019999999999,5.00426,8.50368C4.87241,8.63552,4.69619,8.713519999999999,4.50995,8.722480000000001C4.4979499999999994,8.72306,4.485939999999999,8.72335,4.47392,8.72335C4.27501,8.72335,4.08425,8.64433,3.94359,8.50368L2.1989710000000002,6.75905Q1.25,5.8156,1.25,4.477460000000001Q1.25,3.13932,2.1958729999999997,2.1989710000000002Q3.13932,1.25,4.477460000000001,1.25Q5.8156,1.25,6.7575,2.197419L9.24604,4.68605Q10.21843,5.63322,10.21843,6.99068Q10.21843,8.34814,9.24604,9.29531C9.11316,9.42474,8.93704,9.50034,8.75168,9.50751C8.75168,9.50751,8.722719999999999,9.50806,8.722719999999999,9.50806C8.520389999999999,9.50806,8.326640000000001,9.42632,8.185469999999999,9.28138C8.05604,9.14851,7.98044,8.972380000000001,7.97328,8.78703C7.97328,8.78703,7.97272,8.75806,7.97272,8.75806C7.97272,8.55574,8.054459999999999,8.361989999999999,8.1994,8.22081ZM12.0384,7.44302L12.0384,7.44302L13.7846,9.18919Q14.75,10.12945,14.75,11.4869Q14.75,12.8395,13.7846,13.7847Q12.8394,14.75,11.4869,14.75Q10.12945,14.75,9.182269999999999,13.7776L6.69364,11.2891Q5.72826,10.34882,5.72826,8.99136Q5.72826,7.6339,6.70065,6.68673C6.83353,6.5573,7.00965,6.4817,7.19501,6.47454C7.19501,6.47454,7.22397,6.47398,7.22397,6.47398C7.4263,6.47398,7.62005,6.55572,7.76122,6.70066C7.89065,6.83353,7.96625,7.00966,7.97341,7.19501C7.97341,7.19501,7.97397,7.22398,7.97397,7.22398C7.97397,7.42631,7.89223,7.62005,7.74729,7.76123Q7.22826,8.2668,7.22826,8.99136Q7.22826,9.71593,7.7543,10.22841L10.25677,12.731Q10.76234,13.25,11.4869,13.25Q12.2115,13.25,12.717,12.731C12.717,12.731,12.731,12.717,12.731,12.717Q13.25,12.2115,13.25,11.4869Q13.25,10.76234,12.724,10.24985L10.97817,8.504069999999999L10.97817,8.504069999999999C10.84594,8.371839999999999,10.76794,8.19561,10.75898,8.00937C10.7584,7.99737,10.75811,7.98536,10.75811,7.97335C10.75811,7.77444,10.83713,7.58367,10.97778,7.44302C11.10895,7.31185,11.2841,7.23395,11.4693,7.22435C11.4822,7.22368,11.4952,7.22335,11.5081,7.22335C11.707,7.22335,11.8978,7.30237,12.0384,7.44302Z" fill-rule="evenodd" fill="#333333" fill-opacity="1"/></g></g></svg>