<svg xmlns="http://www.w3.org/2000/svg" xmlns:xlink="http://www.w3.org/1999/xlink" fill="none" version="1.1" width="24" height="24" viewBox="0 0 24 24"><defs><radialGradient cx="0" cy="0" r="1" gradientUnits="userSpaceOnUse" id="master_svg0_292_1851" gradientTransform="translate(12 12) rotate(18.280845306193697) scale(10.18047033542866 10.18047033542866)"><stop offset="0%" stop-color="#1D74F5" stop-opacity="1"/><stop offset="100%" stop-color="#1D74F5" stop-opacity="0"/></radialGradient></defs><g><g><path d="M8.49649,20.2923Q10.16962,21,12,21Q12.09849,21,12.19509,20.9808Q12.29169,20.9616,12.38268,20.9239Q12.47368,20.8862,12.55557,20.8315Q12.63746,20.7767,12.70711,20.7071Q12.77675,20.6375,12.83147,20.5556Q12.88619,20.4737,12.92388,20.3827Q12.96157,20.2917,12.98078,20.1951Q13,20.0985,13,20Q13,19.9015,12.98078,19.8049Q12.96157,19.7083,12.92388,19.6173Q12.88619,19.5263,12.83147,19.4444Q12.77675,19.3625,12.70711,19.2929Q12.63746,19.2232,12.55557,19.1685Q12.47368,19.113799999999998,12.38268,19.0761Q12.29169,19.0384,12.19509,19.019199999999998Q12.09849,19,12,19Q9.1005,19,7.05025,16.9497Q4.999999,14.8995,4.999999,12Q5,9.1005,7.05025,7.05025Q9.1005,5,12,4.999999Q14.8995,5,16.9497,7.05025Q19,9.1005,19,12Q19,12.09849,19.019199999999998,12.19509Q19.0384,12.29169,19.0761,12.38268Q19.113799999999998,12.47368,19.1685,12.55557Q19.2232,12.63746,19.2929,12.70711Q19.3625,12.77675,19.4444,12.83147Q19.5263,12.88619,19.6173,12.92388Q19.7083,12.96157,19.8049,12.98078Q19.9015,13,20,13Q20.0985,13,20.1951,12.98078Q20.2917,12.96157,20.3827,12.92388Q20.4737,12.88619,20.5556,12.83147Q20.6375,12.77675,20.7071,12.70711Q20.7767,12.63746,20.8315,12.55557Q20.8862,12.47368,20.9239,12.38268Q20.9616,12.29169,20.9808,12.19509Q21,12.09849,21,12Q21,10.16962,20.2923,8.49649Q19.609099999999998,6.88119,18.364,5.6360399999999995Q17.1188,4.390888,15.5035,3.707675Q13.83038,3,12,3Q10.16962,3,8.49649,3.707674Q6.88119,4.390888,5.6360399999999995,5.6360399999999995Q4.390889,6.88119,3.707675,8.49649Q3,10.16962,3,12Q3,13.83038,3.707674,15.5035Q4.390888,17.1188,5.6360399999999995,18.364Q6.88119,19.609099999999998,8.49649,20.2923Z" fill-rule="evenodd" fill="url(#master_svg0_292_1851)" fill-opacity="1"/></g></g></svg>