<svg xmlns="http://www.w3.org/2000/svg" xmlns:xlink="http://www.w3.org/1999/xlink" fill="none" version="1.1" width="48" height="48" viewBox="0 0 48 48"><defs><clipPath id="master_svg0_3244_1381"><rect x="0" y="0" width="48" height="48" rx="24"/></clipPath><clipPath id="master_svg1_3244_1507"><rect x="10" y="10" width="28" height="28" rx="0"/></clipPath></defs><g clip-path="url(#master_svg0_3244_1381)"><g clip-path="url(#master_svg1_3244_1507)"><g><path d="M24.00117265625,35.66661298828125Q24.28757265625,35.66661298828125,24.57357265625,35.65261298828125Q24.859672656249998,35.63851298828125,25.144672656250002,35.61051298828125Q25.42967265625,35.58241298828125,25.712972656250003,35.54041298828125Q25.99627265625,35.49831298828125,26.277172656250002,35.44251298828125Q26.558072656249998,35.38661298828125,26.83587265625,35.31701298828125Q27.11377265625,35.247412988281255,27.38777265625,35.16431298828125Q27.66187265625,35.08111298828125,27.93147265625,34.98461298828125Q28.20117265625,34.88821298828125,28.46577265625,34.77861298828125Q28.73037265625,34.66901298828125,28.98927265625,34.54651298828125Q29.24817265625,34.42411298828125,29.50077265625,34.28901298828125Q29.75337265625,34.15401298828125,29.99897265625,34.006812988281254Q30.24467265625,33.85961298828125,30.48277265625,33.70041298828125Q30.72087265625,33.54131298828125,30.95097265625,33.370712988281255Q31.18097265625,33.20011298828125,31.40237265625,33.01841298828125Q31.62377265625,32.83671298828125,31.83597265625,32.644412988281246Q32.04817265625,32.45211298828125,32.25067265625,32.24951298828125Q32.45327265625,32.04701298828125,32.645572656249996,31.83481298828125Q32.83787265625,31.62261298828125,33.01957265625,31.40121298828125Q33.20127265625,31.17981298828125,33.371872656250005,30.94981298828125Q33.54247265625,30.71971298828125,33.70157265625,30.48161298828125Q33.86077265625,30.24351298828125,34.007972656250004,29.99781298828125Q34.15517265625,29.75221298828125,34.29017265625,29.49961298828125Q34.42527265625,29.24701298828125,34.54767265625,28.98811298828125Q34.67017265625,28.72921298828125,34.77977265625,28.46461298828125Q34.88937265625,28.20001298828125,34.98577265625,27.93031298828125Q35.08227265625,27.66071298828125,35.16547265625,27.38661298828125Q35.248572656250005,27.11261298828125,35.31817265625,26.83471298828125Q35.38777265625,26.556912988281248,35.44367265625,26.276012988281252Q35.49947265625,25.99511298828125,35.54157265625,25.711812988281253Q35.58357265625,25.42851298828125,35.61167265625,25.143512988281252Q35.63967265625,24.858512988281248,35.65377265625,24.57241298828125Q35.66777265625,24.28641298828125,35.66777265625,24.00001298828125Q35.66777265625,23.71361298828125,35.65377265625,23.42751298828125Q35.63967265625,23.14151298828125,35.61167265625,22.85641298828125Q35.58357265625,22.57141298828125,35.54157265625,22.288122988281252Q35.49947265625,22.004822988281248,35.44367265625,21.723922988281252Q35.38777265625,21.44303298828125,35.31817265625,21.165212988281247Q35.248572656250005,20.88739298828125,35.16547265625,20.61332298828125Q35.08227265625,20.339252988281252,34.98577265625,20.06959298828125Q34.88937265625,19.799942988281252,34.77977265625,19.53534298828125Q34.67017265625,19.27074298828125,34.54767265625,19.01183298828125Q34.42527265625,18.752932988281252,34.29017265625,18.50035298828125Q34.15517265625,18.24777298828125,34.007972656250004,18.00211298828125Q33.86077265625,17.75646298828125,33.70157265625,17.51832298828125Q33.54247265625,17.28019298828125,33.371872656250005,17.05015298828125Q33.20127265625,16.82011298828125,33.01957265625,16.59872298828125Q32.83787265625,16.37733298828125,32.645572656249996,16.16512298828125Q32.45327265625,15.95291298828125,32.25067265625,15.75040298828125Q32.04817265625,15.54788298828125,31.83597265625,15.35555298828125Q31.62377265625,15.16321298828125,31.40237265625,14.98152298828125Q31.18097265625,14.79983298828125,30.95097265625,14.62922298828125Q30.72087265625,14.45861298828125,30.48277265625,14.299502988281251Q30.24467265625,14.14038298828125,29.99897265625,13.99314298828125Q29.75337265625,13.84590298828125,29.50077265625,13.71090298828125Q29.24817265625,13.57589298828125,28.98927265625,13.45343298828125Q28.73037265625,13.33098598828125,28.46577265625,13.22138498828125Q28.20117265625,13.11178398828125,27.93147265625,13.01529898828125Q27.66187265625,12.91881298828125,27.38777265625,12.83567598828125Q27.11377265625,12.75253798828125,26.83587265625,12.68294798828125Q26.558072656249998,12.61335898828125,26.277172656250002,12.55748498828125Q25.99627265625,12.50161098828125,25.712972656250003,12.45958698828125Q25.42967265625,12.41756338828125,25.144672656250002,12.38949118828125Q24.859672656249998,12.36141898828125,24.57357265625,12.34736598828125Q24.28757265625,12.33331298828125,24.00117265625,12.33331298828125Q23.71477265625,12.33331298828125,23.42867265625,12.34736598828125Q23.14267265625,12.36141898828125,22.85757265625,12.38949118828125Q22.57257265625,12.41756338828125,22.289282656250002,12.45958698828125Q22.005982656249998,12.50161098828125,21.725082656250002,12.55748498828125Q21.44419265625,12.61335898828125,21.166372656249997,12.68294798828125Q20.88855265625,12.75253798828125,20.61448265625,12.83567598828125Q20.340412656250002,12.91881298828125,20.07075265625,13.01529898828125Q19.801102656250002,13.11178398828125,19.53650265625,13.22138498828125Q19.27190265625,13.33098598828125,19.01299265625,13.45343298828125Q18.754092656250002,13.57589298828125,18.50151265625,13.71090298828125Q18.24893265625,13.84590298828125,18.00327265625,13.99314298828125Q17.75762265625,14.14038298828125,17.51948265625,14.299502988281251Q17.28135265625,14.45861298828125,17.05131265625,14.62922298828125Q16.82127265625,14.79983298828125,16.59988265625,14.98152298828125Q16.37849265625,15.16321298828125,16.16628265625,15.35555298828125Q15.95407265625,15.54788298828125,15.75156265625,15.75040298828125Q15.54904265625,15.95291298828125,15.35671265625,16.16512298828125Q15.16437265625,16.37733298828125,14.98268265625,16.59872298828125Q14.80099265625,16.82011298828125,14.63038265625,17.05015298828125Q14.45977265625,17.28019298828125,14.300662656250001,17.51832298828125Q14.14154265625,17.75646298828125,13.99430265625,18.00211298828125Q13.84706265625,18.24777298828125,13.71206265625,18.50035298828125Q13.57705265625,18.752932988281252,13.45459265625,19.01183298828125Q13.33214565625,19.27074298828125,13.22254465625,19.53534298828125Q13.11294365625,19.799942988281252,13.01645865625,20.06959298828125Q12.91997265625,20.339252988281252,12.83683565625,20.61332298828125Q12.75369765625,20.88739298828125,12.68410765625,21.165212988281247Q12.61451865625,21.44303298828125,12.55864465625,21.723922988281252Q12.50277065625,22.004822988281248,12.46074665625,22.288122988281252Q12.41872305625,22.57141298828125,12.39065085625,22.85641298828125Q12.36257865625,23.14151298828125,12.34852565625,23.42751298828125Q12.33447265625,23.71361298828125,12.33447265625,24.00001298828125Q12.33447265625,24.28641298828125,12.34852565625,24.57241298828125Q12.36257865625,24.858512988281248,12.39065085625,25.143512988281252Q12.41872305625,25.42851298828125,12.46074665625,25.711812988281253Q12.50277065625,25.99511298828125,12.55864465625,26.276012988281252Q12.61451865625,26.556912988281248,12.68410765625,26.83471298828125Q12.75369765625,27.11261298828125,12.83683565625,27.38661298828125Q12.91997265625,27.66071298828125,13.01645865625,27.93031298828125Q13.11294365625,28.20001298828125,13.22254465625,28.46461298828125Q13.33214565625,28.72921298828125,13.45459265625,28.98811298828125Q13.57705265625,29.24701298828125,13.71206265625,29.49961298828125Q13.84706265625,29.75221298828125,13.99430265625,29.99781298828125Q14.14154265625,30.24351298828125,14.300662656250001,30.48161298828125Q14.45977265625,30.71971298828125,14.63038265625,30.94981298828125Q14.80099265625,31.17981298828125,14.98268265625,31.40121298828125Q15.16437265625,31.62261298828125,15.35671265625,31.83481298828125Q15.54904265625,32.04701298828125,15.75156265625,32.24951298828125Q15.95407265625,32.45211298828125,16.16628265625,32.644412988281246Q16.37849265625,32.83671298828125,16.59988265625,33.01841298828125Q16.82127265625,33.20011298828125,17.05131265625,33.370712988281255Q17.28135265625,33.54131298828125,17.51948265625,33.70041298828125Q17.75762265625,33.85961298828125,18.00327265625,34.006812988281254Q18.24893265625,34.15401298828125,18.50151265625,34.28901298828125Q18.754092656250002,34.42411298828125,19.01299265625,34.54651298828125Q19.27190265625,34.66901298828125,19.53650265625,34.77861298828125Q19.801102656250002,34.88821298828125,20.07075265625,34.98461298828125Q20.340412656250002,35.08111298828125,20.61448265625,35.16431298828125Q20.88855265625,35.247412988281255,21.166372656249997,35.31701298828125Q21.44419265625,35.38661298828125,21.725082656250002,35.44251298828125Q22.005982656249998,35.49831298828125,22.289282656250002,35.54041298828125Q22.57257265625,35.58241298828125,22.85757265625,35.61051298828125Q23.14267265625,35.63851298828125,23.42867265625,35.65261298828125Q23.71477265625,35.66661298828125,24.00117265625,35.66661298828125ZM23.527472656249998,28.20031298828125L30.02647265625,21.18210298828125C30.20867265625,20.987532988281252,30.31017265625,20.73088298828125,30.31017265625,20.46432298828125L30.30937265625,20.42993298828125C30.30017265625,20.15160298828125,30.18107265625,19.88830298828125,29.97777265625,19.69795298828125C29.78317265625,19.51575298828125,29.52657265625,19.41437298828125,29.25997265625,19.41436298828125L29.25747265625,19.41436298828125L29.22587265625,19.41490298828125C28.94747265625,19.42404298828125,28.68387265625,19.543392988281248,28.49357265625,19.74666298828125L22.76117265625,25.94631298828125L19.50843265625,22.47171298828125C19.30990265625,22.259612988281248,19.03239265625,22.13926298828125,18.741892656250002,22.13926298828125L18.72216265625,22.13945298828125C18.46251265625,22.14433298828125,18.21389265625,22.24525298828125,18.02431265625,22.422712988281248C17.821012656249998,22.61301298828125,17.70164265625,22.87631298828125,17.69246265625,23.15461298828125L17.69189265625,23.18921298828125L17.69201265625,23.20511298828125C17.69595265625,23.46611298828125,17.79696265625,23.71631298828125,17.97536265625,23.90681298828125L21.99453265625,28.20021298828125C22.01026265625,28.217012988281247,22.02655265625,28.23331298828125,22.04336265625,28.24901298828125C22.466672656249997,28.64541298828125,23.131072656249998,28.62361298828125,23.527472656249998,28.20031298828125Z" fill-rule="evenodd" fill="#08C479" fill-opacity="1"/></g></g></g></svg>