<svg xmlns="http://www.w3.org/2000/svg" xmlns:xlink="http://www.w3.org/1999/xlink" fill="none" version="1.1" width="16" height="16" viewBox="0 0 16 16"><defs><clipPath id="master_svg0_6980_28255"><rect x="0" y="0" width="16" height="16" rx="0"/></clipPath><clipPath id="master_svg1_6980_28255/4552_04466"><rect x="1" y="1" width="14" height="14" rx="7"/></clipPath></defs><g clip-path="url(#master_svg0_6980_28255)"><g clip-path="url(#master_svg1_6980_28255/4552_04466)"><rect x="1" y="1" width="14" height="14" rx="7" fill="#000000" fill-opacity="0.4000000059604645"/><g><path d="M8.000831250000001,7.15230125L6.22504525,5.37651725Q6.18325925,5.33473125,6.13412325,5.30189925Q6.08498825,5.26906825,6.03039125,5.24645325Q5.97579525,5.22383925,5.91783525,5.21231025Q5.8598760500000004,5.20078125,5.80078125,5.20078125Q5.7416864499999996,5.20078125,5.68372725,5.21231025Q5.62576725,5.22383925,5.57117125,5.24645325Q5.51657425,5.26906825,5.46743925,5.30189925Q5.41830325,5.33473125,5.37651725,5.37651725Q5.33473125,5.41830325,5.30189925,5.46743925Q5.26906825,5.51657425,5.24645325,5.57117125Q5.22383925,5.62576725,5.21231025,5.68372725Q5.20078125,5.7416864499999996,5.20078125,5.80078125Q5.20078125,5.8598760500000004,5.21231025,5.91783525Q5.22383925,5.97579525,5.24645325,6.03039125Q5.26906825,6.08498825,5.30189925,6.13412325Q5.33473125,6.18325925,5.37651725,6.22504525L7.15230125,8.000831250000001L5.37662125,9.77652125Q5.29223025,9.860911250000001,5.24655825,9.971171250000001Q5.20088525,10.08143125,5.20088525,10.20078125Q5.20088525,10.32013125,5.24655825,10.43039125Q5.29223025,10.54065125,5.37662125,10.625041249999999Q5.41840825,10.666831250000001,5.46754325,10.69966125Q5.51667925,10.732491249999999,5.57127525,10.755111249999999Q5.62587225,10.777721249999999,5.68383125,10.78925125Q5.74179075,10.80078125,5.800885578,10.80078125Q5.85998045,10.80078125,5.91794025,10.78925125Q5.97589925,10.777721249999999,6.03049525,10.755111249999999Q6.08509225,10.732491249999999,6.13422725,10.69966125Q6.18336325,10.666831250000001,6.22514925,10.625041249999999L8.000831250000001,8.84936125L9.77652125,10.625041249999999Q9.818301250000001,10.666831250000001,9.867441249999999,10.69966125Q9.91657125,10.732491249999999,9.971171250000001,10.755111249999999Q10.02577125,10.777721249999999,10.08373125,10.78925125Q10.141691250000001,10.80078125,10.20078125,10.80078125Q10.25988125,10.80078125,10.317831250000001,10.78925125Q10.375791249999999,10.777721249999999,10.43039125,10.755111249999999Q10.48499125,10.732491249999999,10.53412125,10.69966125Q10.58326125,10.666831250000001,10.625041249999999,10.625041249999999Q10.666831250000001,10.58326125,10.69966125,10.53412125Q10.732491249999999,10.48499125,10.755111249999999,10.43039125Q10.777721249999999,10.375791249999999,10.78925125,10.317831250000001Q10.80078125,10.25988125,10.80078125,10.20078125Q10.80078125,10.141691250000001,10.78925125,10.08373125Q10.777721249999999,10.02577125,10.755111249999999,9.971171250000001Q10.732491249999999,9.91657125,10.69966125,9.867441249999999Q10.666831250000001,9.818301250000001,10.625041249999999,9.77652125L8.84936125,8.000831250000001L10.62515125,6.22504525Q10.666931250000001,6.18325925,10.699771250000001,6.13412325Q10.73260125,6.08498825,10.75521125,6.03039125Q10.77783125,5.97579525,10.78935125,5.91783525Q10.80088125,5.8598760500000004,10.80088125,5.8007812412711Q10.80088125,5.7416864499999996,10.78935125,5.68372725Q10.77783125,5.62576725,10.75521125,5.57117125Q10.73260125,5.51657425,10.69976125,5.46743925Q10.666931250000001,5.41830325,10.62515125,5.37651725Q10.58336125,5.33473125,10.534231250000001,5.30189925Q10.48509125,5.26906825,10.43049125,5.24645325Q10.37590125,5.22383925,10.31794125,5.21231025Q10.25998125,5.20078125,10.20088125,5.20078125Q10.14179125,5.20078125,10.08383125,5.21231025Q10.02587125,5.22383925,9.971271250000001,5.24645325Q9.91668125,5.26906825,9.86754125,5.30189925Q9.81841125,5.33473125,9.77662125,5.37651725L8.000831250000001,7.15230125Z" fill-rule="evenodd" fill="#FFFFFF" fill-opacity="1"/></g></g></g></svg>