<svg xmlns="http://www.w3.org/2000/svg" xmlns:xlink="http://www.w3.org/1999/xlink" fill="none" version="1.1" width="390" height="390" viewBox="0 0 390 390"><defs><clipPath id="master_svg0_27_0134"><rect x="0" y="0" width="390" height="390" rx="0"/></clipPath><clipPath id="master_svg1_27_0135"><rect x="-46" y="8" width="775.4169921875" height="460" rx="0"/></clipPath><filter id="master_svg2_27_0145" filterUnits="objectBoundingBox" color-interpolation-filters="sRGB" x="-71" y="-71" width="229.5" height="166"><feFlood flood-opacity="0" result="BackgroundImageFix"/><feBlend mode="normal" in="SourceGraphic" in2="BackgroundImageFix" result="shape"/><feGaussianBlur stdDeviation="17.75" result="effect1_foregroundBlur"/></filter><linearGradient x1="0.49986740946769714" y1="1" x2="0.49986740946769714" y2="0.000004492965217650635" id="master_svg3_20_312"><stop offset="0%" stop-color="#1D74F5" stop-opacity="1"/><stop offset="51.99999809265137%" stop-color="#28A5FF" stop-opacity="1"/><stop offset="100%" stop-color="#EEF5FF" stop-opacity="1"/></linearGradient><linearGradient x1="0.49962669610977173" y1="0.9998995661735535" x2="0.49962669610977173" y2="-0.00010043185466201976" id="master_svg4_20_257"><stop offset="0%" stop-color="#1D74F5" stop-opacity="1"/><stop offset="50.999999046325684%" stop-color="#0095FF" stop-opacity="1"/><stop offset="100%" stop-color="#FFFFFF" stop-opacity="1"/></linearGradient><linearGradient x1="0.4998714327812195" y1="1" x2="0.4998714327812195" y2="-0.0000027640232929115882" id="master_svg5_20_361"><stop offset="0%" stop-color="#0096FF" stop-opacity="1"/><stop offset="100%" stop-color="#EEF5FF" stop-opacity="1"/></linearGradient><linearGradient x1="0.5" y1="0" x2="0.5" y2="1" id="master_svg6_20_362"><stop offset="0%" stop-color="#FFFFFF" stop-opacity="0"/><stop offset="100%" stop-color="#FFFFFF" stop-opacity="0.10999999940395355"/></linearGradient><linearGradient x1="0.4996306896209717" y1="0.9997991323471069" x2="0.4996306896209717" y2="-0.00020086370932403952" id="master_svg7_20_347"><stop offset="0%" stop-color="#1D74F5" stop-opacity="1"/><stop offset="25.999999046325684%" stop-color="#0095FF" stop-opacity="1"/><stop offset="62.00000047683716%" stop-color="#FFFFFF" stop-opacity="1"/></linearGradient><filter id="master_svg8_27_0172" filterUnits="objectBoundingBox" color-interpolation-filters="sRGB" x="0" y="0" width="89.47232818603516" height="53.617103576660156"><feFlood flood-opacity="0" result="BackgroundImageFix"/><feBlend mode="normal" in="SourceGraphic" in2="BackgroundImageFix" result="shape"/><feGaussianBlur in="BackgroundImage" stdDeviation="2.5"/><feComposite in2="SourceAlpha" operator="in" result="effect1_foregroundBlur"/><feBlend mode="normal" in="SourceGraphic" in2="effect1_foregroundBlur" result="shape"/></filter><linearGradient x1="0.49986740946769714" y1="1.0003012418746948" x2="0.49986740946769714" y2="0.00030578719452023506" id="master_svg9_20_341"><stop offset="0%" stop-color="#8DC8FF" stop-opacity="1"/><stop offset="100%" stop-color="#E8FFFC" stop-opacity="1"/></linearGradient><linearGradient x1="0.49986740946769714" y1="0.9998996257781982" x2="0.49986740946769714" y2="0.00030117458663880825" id="master_svga_20_320"><stop offset="0%" stop-color="#1D74F5" stop-opacity="1"/><stop offset="23.999999463558197%" stop-color="#FFFFFF" stop-opacity="1"/></linearGradient><linearGradient x1="0.29155561327934265" y1="0.15927967429161072" x2="0.7383744120597839" y2="0.8628036975860596" id="master_svgb_20_272"><stop offset="0%" stop-color="#71D1FF" stop-opacity="1"/><stop offset="100%" stop-color="#1D76F2" stop-opacity="1"/></linearGradient><radialGradient cx="0" cy="0" r="1" gradientUnits="userSpaceOnUse" id="master_svgc_20_273" gradientTransform="translate(73.75000151628137 4.500000064922489) rotate(36.56781419999475) scale(142.25197569839804 69.45319039095867)"><stop offset="0%" stop-color="#FFFFFF" stop-opacity="0.46000000834465027"/><stop offset="100%" stop-color="#FFFFFF" stop-opacity="0"/></radialGradient><linearGradient x1="0.25946739315986633" y1="0.17306828498840332" x2="0.7603933811187744" y2="0.8346811532974243" id="master_svgd_20_292"><stop offset="0%" stop-color="#6AC6FF" stop-opacity="1"/><stop offset="100%" stop-color="#1D8BFF" stop-opacity="1"/></linearGradient><linearGradient x1="0.5" y1="0.9997225403785706" x2="0.5" y2="2.886579864025407e-15" id="master_svge_20_288"><stop offset="0%" stop-color="#1D76F2" stop-opacity="1"/><stop offset="0%" stop-color="#1F77F2" stop-opacity="1"/><stop offset="5.000000074505806%" stop-color="#4891F5" stop-opacity="1"/><stop offset="10.000000149011612%" stop-color="#6CA7F7" stop-opacity="1"/><stop offset="15.000000596046448%" stop-color="#8CBCF9" stop-opacity="1"/><stop offset="20.999999344348907%" stop-color="#A8CDFB" stop-opacity="1"/><stop offset="28.00000011920929%" stop-color="#BEDBFD" stop-opacity="1"/><stop offset="37.00000047683716%" stop-color="#CFE5FE" stop-opacity="1"/><stop offset="46.99999988079071%" stop-color="#DAEDFE" stop-opacity="1"/><stop offset="61.000001430511475%" stop-color="#E1F1FF" stop-opacity="1"/><stop offset="100%" stop-color="#E3F2FF" stop-opacity="1"/></linearGradient></defs><g clip-path="url(#master_svg0_27_0134)"><rect x="0" y="0" width="390" height="390" rx="0" fill="#FFFFFF" fill-opacity="1"/><g clip-path="url(#master_svg1_27_0135)"><g><path d="M279.481,20.309814453125L-46,208.229814453125L49.731700000000004,263.499814453125L375.213,75.57981445312501L279.481,20.309814453125Z" fill="#F9FAFC" fill-opacity="1"/></g><g><path d="M729.41693359375,280.0797119140625L375.21293359375,75.5797119140625L49.73193359375,263.49971191406246L403.93093359375,467.9997119140625L729.41693359375,280.0797119140625Z" fill="#FFFFFF" fill-opacity="1"/></g><g><path d="M285.83002109375,49.813425L272.06092109375,57.761525C270.72812109375,58.531025,269.08592109375,58.531025,267.75312109375,57.761525L253.98944109375,49.813425C253.32251709375,49.428825,252.91162109375,48.717525,252.91162109375,47.947625C252.91162109375,47.177725,253.32251709375,46.466385,253.98944109375,46.081755L267.75312109375,38.15527C269.08592109375,37.385743,270.72812109375,37.385743,272.06092109375,38.15527L285.83002109375,46.103295C287.24252109375,46.936715,287.24252109375,48.980025,285.83002109375,49.813425Z" fill="#FFFFFF" fill-opacity="1"/></g><g><path d="M343.26997734375,82.97867460937499L329.50097734375,90.926674609375C328.16807734375,91.69617460937499,326.52597734375,91.69617460937499,325.19307734375,90.926674609375L282.71209734375,66.393374609375C282.04517334375,66.00867460937499,281.63427734375,65.297374609375,281.63427734375,64.527474609375C281.63427734375,63.757614609375,282.04517334375,63.046274609375004,282.71209734375,62.661644609375L296.47577734375,54.713617609375C297.80857734375,53.944090609375,299.45077734375,53.944090609375,300.78357734375,54.713617609375L343.26997734375,79.246974609375C343.93697734375,79.63157460937501,344.34787734375,80.342874609375,344.34787734375,81.112774609375C344.34787734375,81.882674609375,343.93697734375,82.593974609375,343.26997734375,82.97867460937499Z" fill="#FFFFFF" fill-opacity="1"/></g><g><path d="M314.5474546875,99.542374609375L310.3579546875,101.965574609375C309.0251546875,102.735074609375,307.3829546875,102.735074609375,306.0501546875,101.965574609375L234.8463746875,60.863104609375C234.1794506875,60.478474609375,233.7685546875,59.767134609375,233.7685546875,58.997254609375C233.7685546875,58.227384609375,234.1794506875,57.516044609375,234.8463746875,57.131414609375L239.0357946875,54.713617609375C240.3686646875,53.944090609375,242.0108046875,53.944090609375,243.3436746875,54.713617609375L314.5474546875,95.826874609375C315.9659546875,96.659174609375,315.9659546875,98.710074609375,314.5474546875,99.542374609375Z" fill="#FFFFFF" fill-opacity="1"/></g><g><path d="M295.3984,110.61350625L291.2144,113.00440625C289.8815,113.77390625000001,288.2394,113.77390625000001,286.9065,113.00440625L215.70281,71.91803625C215.035896,71.53339625,214.625,70.82206625,214.625,70.05218625C214.625,69.28231625,215.035896,68.57097625,215.70281,68.18634625L219.88682,65.76854925C221.21969,64.99902225,222.86183,64.99902225,224.19469,65.76854925L295.3984,106.88180625C296.0653,107.26640625,296.4762,107.97780625,296.4762,108.74760624999999C296.4762,109.51750625,296.0653,110.22880624999999,295.3984,110.61350625Z" fill="#FFFFFF" fill-opacity="1"/></g><g><path d="M276.2504796875,121.66315996093749L272.0610796875,124.08095996093749C270.7281796875,124.8504599609375,269.0860796875,124.8504599609375,267.7531796875,124.08095996093749L196.5494896875,82.9784699609375C195.8825756875,82.5938399609375,195.4716796875,81.8824999609375,195.4716796875,81.1126299609375C195.4716796875,80.3427499609375,195.8825756875,79.6314199609375,196.5494896875,79.2467799609375L200.7442796875,76.8236029609375C202.0771496875,76.0540759609375,203.7192896875,76.0540759609375,205.0521496875,76.8236029609375L276.2504796875,117.9314599609375C276.9173796875,118.3161599609375,277.3282796875,119.0274599609375,277.3282796875,119.7973599609375C277.3282796875,120.5671599609375,276.9173796875,121.2785599609375,276.2504796875,121.66315996093749Z" fill="#FFFFFF" fill-opacity="1"/></g><g><path d="M257.11281328125,132.7183357421875L252.91801328125,135.1415357421875C251.58521328125,135.9110357421875,249.94301328125,135.9110357421875,248.61021328125,135.1415357421875L177.40642328125,94.0282657421875C176.73950928125,93.6436257421875,176.32861328125,92.9322957421875,176.32861328125,92.1624157421875C176.32861328125,91.3925457421875,176.73950928125,90.6812157421875,177.40642328125,90.2965757421875L181.59582328125,87.8787787421875C182.92869328125,87.1092517421875,184.57083328125,87.1092517421875,185.90369328125,87.8787787421875L257.11281328125,128.9920357421875C258.54371328125,129.8220357421875,258.54371328125,131.8883357421875,257.11281328125,132.7183357421875Z" fill="#FFFFFF" fill-opacity="1"/></g><g><path d="M237.964446875,143.7732962890625L233.769646875,146.1910962890625C232.43674687499998,146.9605962890625,230.794646875,146.9605962890625,229.46174687500002,146.1910962890625L158.263356875,105.0778262890625C157.596442875,104.6931862890625,157.185546875,103.9818562890625,157.185546875,103.2119862890625C157.185546875,102.4421062890625,157.596442875,101.7307762890625,158.263356875,101.3461362890625L162.452756875,98.9283392890625C163.785626875,98.1588122890625,165.427766875,98.1588122890625,166.760626875,98.9283392890625L237.964346875,140.0415962890625C238.631246875,140.4261962890625,239.04214687500001,141.13759628906251,239.04214687500001,141.9073962890625C239.04214687500001,142.6772962890625,238.631246875,143.3885962890625,237.964446875,143.7732962890625Z" fill="#FFFFFF" fill-opacity="1"/></g><g><path d="M75.22361953125,237.7334064453125L61.45461953125,245.6814064453125C60.12171953125,246.4509064453125,58.47961953125,246.4509064453125,57.14671953125,245.6814064453125L14.66031953125,221.1535064453125C13.99342053125,220.7688064453125,13.58251953125,220.0575064453125,13.58251953125,219.2876064453125C13.58251953125,218.5177564453125,13.99342053125,217.8064264453125,14.66031953125,217.4217864453125L28.42931953125,209.4737574453125C29.76221953125,208.7042224453125,31.40441953125,208.7042224453125,32.73721953125,209.4737574453125L75.22361953125,234.0017064453125C75.89051953124999,234.3863064453125,76.30141953124999,235.0977064453125,76.30141953124999,235.8675064453125C76.30141953124999,236.6374064453125,75.89051953124999,237.3487064453125,75.22361953125,237.7334064453125Z" fill="#FFFFFF" fill-opacity="1"/></g><g><path d="M17.778234374999997,204.5468169921875L4.014534375,212.5163169921875C2.6817343750000013,213.2859169921875,1.0395343749999988,213.2859169921875,-0.2932656250000001,212.5163169921875L-14.056965625,204.5468169921875C-14.723862625,204.1621169921875,-15.134765625,203.4508169921875,-15.134765625,202.6809169921875C-15.134765625,201.9110669921875,-14.723862625,201.1997369921875,-14.056965625,200.8150969921875L-0.2932656250000001,192.8670679921875C1.0395343749999988,192.0975329921875,2.6817343750000013,192.0975329921875,4.014534375,192.8670679921875L17.778234374999997,200.8150969921875C18.445134375000002,201.1997369921875,18.856034375,201.9110669921875,18.856034375,202.6809169921875C18.856034375,203.4508169921875,18.445134375000002,204.1621169921875,17.778234374999997,204.5468169921875Z" fill="#FFFFFF" fill-opacity="1"/></g><g filter="url(#master_svg2_27_0145)"><ellipse cx="200.75" cy="154.5" rx="43.75" ry="12" fill="#B9C7D8" fill-opacity="1"/></g><g><path d="M371.98183359375,132.7129431640625L348.64933359375,146.17504316406252C347.31643359375,146.9445431640625,345.67433359375,146.9445431640625,344.34143359375,146.17504316406252L311.43472359375,127.1826431640625C310.76782959375,126.7980431640625,310.35693359375,126.0867431640625,310.35693359375,125.3168431640625C310.35693359375,124.5469431640625,310.76782959375,123.8356431640625,311.43472359375,123.4509431640625L334.76723359375,109.9888861640625C336.10013359375,109.2193591640625,337.74223359375003,109.2193591640625,339.07513359375,109.9888861640625L371.98183359375,128.9866431640625C373.41273359375,129.8166431640625,373.41273359375,131.8828431640625,371.98183359375,132.7129431640625Z" fill="#F9FAFC" fill-opacity="1"/></g><g><path d="M419.85298515625,160.3532818359375L396.52048515625,173.8153818359375C395.18758515625,174.5849818359375,393.54548515625,174.5849818359375,392.21258515625,173.8153818359375L359.29507515625,154.8122818359375C358.62818115625,154.4276818359375,358.21728515625,153.7163818359375,358.21728515625,152.9464818359375C358.21728515625,152.1765818359375,358.62818115625,151.4652818359375,359.29507515625,151.0805818359375L382.63298515625,137.6185248359375C383.96588515625,136.8489978359375,385.60798515625,136.8489978359375,386.94088515625,137.6185248359375L419.85298515625,156.6215818359375C420.51988515625,157.0062818359375,420.93078515625,157.7175818359375,420.93078515625,158.4874818359375C420.93078515625,159.2573818359375,420.51988515625,159.9686818359375,419.85298515625,160.3532818359375Z" fill="#F9FAFC" fill-opacity="1"/></g><g><path d="M515.5798015625,215.62319257812499L492.2419015625,229.085292578125C490.9090015625,229.854792578125,489.2669015625,229.854792578125,487.9340015625,229.085292578125L455.0272615625,210.092992578125C453.5963835625,209.262992578125,453.5963835625,207.196692578125,455.0272615625,206.366692578125L478.3652015625,192.904543578125C479.6980015625,192.135008578125,481.3402015625,192.135008578125,482.6730015625,192.904543578125L515.5798015625,211.907692578125C516.9984015625,212.739992578125,516.9984015625,214.790892578125,515.5798015625,215.62319257812499Z" fill="#F9FAFC" fill-opacity="1"/></g><g><path d="M563.44570078125,243.2528890625L540.10780078125,256.7149890625C538.77500078125,257.4844890625,537.13280078125,257.4844890625,535.79990078125,256.7149890625L502.89859078125,237.7171890625C502.23169678125,237.3325890625,501.82080078125,236.6212890625,501.82080078125,235.8513890625C501.82080078125,235.0814890625,502.23169678125,234.3701890625,502.89859078125,233.9855890625L526.23650078125,220.5234400625C527.56930078125,219.7539050625,529.21150078125,219.7539050625,530.5443007812501,220.5234400625L563.44570078125,239.5157890625C564.11530078125,239.8996890625,564.52820078125,240.6124890625,564.52820078125,241.3842890625C564.52820078125,242.1560890625,564.11530078125,242.8688890625,563.44570078125,243.2528890625Z" fill="#F9FAFC" fill-opacity="1"/></g><g><path d="M467.71379609375,187.9882759765625L444.37059609375,201.4503759765625C443.03769609375,202.2198759765625,441.39549609375,202.2198759765625,440.06269609375,201.4503759765625L407.16128609375,182.4687759765625C406.49439209375,182.0841759765625,406.08349609375,181.3728759765625,406.08349609375,180.6029759765625C406.08349609375,179.8330759765625,406.49439209375,179.1217759765625,407.16128609375,178.7371759765625L430.49919609375,165.2750269765625C431.83209609375,164.5054919765625,433.47419609375,164.5054919765625,434.80709609375,165.2750269765625L467.71379609375,184.2565759765625C468.38069609375,184.6411759765625,468.79159609375,185.3525759765625,468.79159609375,186.1224759765625C468.79159609375,186.8922759765625,468.38069609375,187.6036759765625,467.71379609375,187.9882759765625Z" fill="#F9FAFC" fill-opacity="1"/></g><g><path d="M429.4219,210.093211328125L415.6583,218.041211328125C414.3254,218.810711328125,412.68330000000003,218.810711328125,411.3504,218.041211328125L330.57779,171.408511328125C329.910896,171.023811328125,329.5,170.312511328125,329.5,169.542611328125C329.5,168.772771328125,329.910896,168.061431328125,330.57779,167.676791328125L344.3414,159.728762328125C345.6743,158.959227328125,347.3164,158.959227328125,348.6493,159.728762328125L429.4219,206.366911328125C430.853,207.196911328125,430.853,209.263111328125,429.4219,210.093211328125Z" fill="#F9FAFC" fill-opacity="1"/></g><g><path d="M525.14853359375,265.3952642578125L511.39023359375,273.3379642578125C510.05733359375,274.1074642578125,508.41523359375003,274.1074642578125,507.08233359375,273.3379642578125L426.30972359375,226.6998642578125C425.64282959375,226.3151642578125,425.23193359375,225.6038642578125,425.23193359375,224.8339642578125C425.23193359375,224.0641342578125,425.64282959375,223.3527942578125,426.30972359375,222.9681542578125L440.07333359375,215.0255152578125C441.40623359375,214.2559802578125,443.04833359375,214.2559802578125,444.38123359375,215.0255152578125L525.15383359375,261.6582642578125C525.82293359375,262.0430642578125,526.23493359375,262.7565642578125,526.23393359375,263.5283642578125C526.23293359375,264.3001642578125,525.81893359375,265.0123642578125,525.14853359375,265.3952642578125Z" fill="#F9FAFC" fill-opacity="1"/></g><g><path d="M620.87995,320.6384994140625L607.12705,328.5810994140625C605.79415,329.3505994140625,604.15205,329.3505994140625,602.81915,328.5810994140625L522.04657,281.9483994140625C521.379646,281.5636994140625,520.96875,280.8523994140625,520.96875,280.0824994140625C520.96875,279.3126594140625,521.379646,278.6013094140625,522.04657,278.2166894140625L535.80485,270.2740504140625C537.13775,269.5045154140625,538.77985,269.5045154140625,540.11275,270.2740504140625L620.88535,316.9067994140625C621.55175,317.2923994140625,621.9617499999999,318.00429941406253,621.96075,318.7741994140625C621.95975,319.5439994140625,621.54775,320.2547994140625,620.87995,320.6384994140625Z" fill="#F9FAFC" fill-opacity="1"/></g><g><path d="M592.1631109375,337.21845546875L578.3995109375,345.16105546875C577.0666109375,345.93055546875,575.4245109375,345.93055546875,574.0916109375,345.16105546875L493.3190009375,298.52835546875C492.6521069375,298.14375546875,492.2412109375,297.43235546875,492.2412109375,296.66255546875C492.2412109375,295.89266546875,492.6521069375,295.18133546875,493.3190009375,294.79666546875L507.0773109375,286.85402346875C508.4101109375,286.08448846875,510.0523109375,286.08448846875,511.3852109375,286.85402346875L592.1578109375,333.48675546875C592.8252109375001,333.87035546875,593.2372109375,334.58115546875,593.2382109375,335.35105546875C593.2392109375,336.12085546875,592.8292109375,336.83285546875,592.1631109375,337.21845546875Z" fill="#F9FAFC" fill-opacity="1"/></g><g><path d="M400.69921484375,226.67841640625L386.94101484375,234.62101640625C385.60811484375,235.39051640625001,383.96601484375003,235.39051640625001,382.63311484375,234.62101640625L301.86050484375,187.98831640625C301.19361084375,187.60361640625,300.78271484375,186.89231640625,300.78271484375,186.12241640625C300.78271484375,185.35258640625,301.19361084375,184.64124640625,301.86050484375,184.25660640625L315.61881484375,176.31396740625C316.95161484375,175.54443240625,318.59381484375,175.54443240625,319.92661484375,176.31396740625L400.69921484375,222.94671640625C401.36571484374997,223.33131640624998,401.77671484375,224.04271640625,401.77671484375,224.81251640624998C401.77671484375,225.58241640625,401.36571484374997,226.29371640624998,400.69921484375,226.67841640625Z" fill="#F9FAFC" fill-opacity="1"/></g><g><path d="M496.4311484375,281.94836484375L482.6729484375,289.89106484375C481.3400484375,290.66056484375,479.69794843750003,290.66056484375,478.3650484375,289.89106484375L397.5924384375,243.25296484375C396.9255444375,242.86826484375,396.5146484375,242.15696484375,396.5146484375,241.38706484375C396.5146484375,240.61723484375,396.9255444375,239.90589484375,397.5924384375,239.52125484375L411.3453484375,231.57861584375C412.6781484375,230.80908084375,414.3203484375,230.80908084375,415.6531484375,231.57861584375L496.42574843750003,278.21666484375C497.0936484375,278.60036484375,497.5056484375,279.31106484375,497.5066484375,280.08096484375C497.5076484375,280.85086484375,497.09764843749997,281.56276484375,496.4311484375,281.94836484375Z" fill="#F9FAFC" fill-opacity="1"/></g><g><path d="M371.98195859375,243.258250390625L358.21835859375,251.200850390625C356.88545859375,251.97035039062501,355.24335859375003,251.97035039062501,353.91045859375,251.200850390625L273.13784859375,204.568150390625C272.47095459375,204.183450390625,272.06005859375,203.472150390625,272.06005859375,202.702250390625C272.06005859375,201.932420390625,272.47095459375,201.221080390625,273.13784859375,200.836440390625L286.89615859375,192.893801390625C288.22895859375,192.124266390625,289.87115859375,192.124266390625,291.20395859375,192.893801390625L371.97655859375,239.526550390625C372.64405859375,239.910150390625,373.05605859375,240.620950390625,373.05705859375,241.390850390625C373.05805859375,242.160650390625,372.64805859374997,242.87265039062498,371.98195859375,243.258250390625Z" fill="#F9FAFC" fill-opacity="1"/></g><g><path d="M563.4453375,353.7983115234375L549.6817375,361.7464115234375C548.3488375,362.5159115234375,546.7067375,362.5159115234375,545.3738375,361.7464115234375L464.6012275,315.1137115234375C463.9343335,314.7290115234375,463.5234375,314.0177115234375,463.5234375,313.2478115234375C463.5234375,312.4779415234375,463.9343335,311.7666115234375,464.6012275,311.3819715234375L478.3648375,303.4339465234375C479.6977375,302.6644115234375,481.3398375,302.6644115234375,482.6727375,303.4339465234375L563.4453375,350.0666115234375C564.1124374999999,350.4513115234375,564.5234375,351.1626115234375,564.5234375,351.9325115234375C564.5234375,352.7023115234375,564.1124374999999,353.4137115234375,563.4453375,353.7983115234375Z" fill="#F9FAFC" fill-opacity="1"/></g><g><path d="M467.7138921875,298.528269921875L453.9502921875,306.476269921875C452.6173921875,307.245769921875,450.97529218750003,307.245769921875,449.6423921875,306.476269921875L368.8697821875,259.838169921875C368.2028881875,259.453569921875,367.7919921875,258.742169921875,367.7919921875,257.972369921875C367.7919921875,257.202479921875,368.2028881875,256.491129921875,368.8697821875,256.106489921875L382.6333921875,248.163820921875C383.9662921875,247.394285921875,385.6083921875,247.394285921875,386.9412921875,248.163820921875L467.7138921875,294.796569921875C468.3809921875,295.181169921875,468.7919921875,295.892569921875,468.7919921875,296.662369921875C468.7919921875,297.432269921875,468.3809921875,298.143569921875,467.7138921875,298.528269921875Z" fill="#F9FAFC" fill-opacity="1"/></g><g><path d="M534.72275234375,370.399851953125L520.96445234375,378.342451953125C519.63155234375,379.111951953125,517.98945234375,379.111951953125,516.65655234375,378.342451953125L435.88394234375,331.709751953125C435.21704834375,331.325151953125,434.80615234375,330.613751953125,434.80615234375,329.843951953125C434.80615234375,329.074061953125,435.21704834375,328.362731953125,435.88394234375,327.978061953125L449.64225234375,320.035419953125C450.97505234375,319.265884953125,452.61725234375,319.265884953125,453.95005234375,320.035419953125L534.72275234375,366.668151953125C535.38915234375,367.052751953125,535.80015234375,367.764151953125,535.80015234375,368.533951953125C535.80015234375,369.303851953125,535.38915234375,370.015151953125,534.72275234375,370.399851953125Z" fill="#F9FAFC" fill-opacity="1"/></g><g><path d="M343.2646734375,259.8382064453125L329.5010734375,267.7862064453125C328.1681734375,268.5557064453125,326.52607343750003,268.5557064453125,325.1931734375,267.7862064453125L244.4205634375,221.1535064453125C243.7536694375,220.7688064453125,243.3427734375,220.0575064453125,243.3427734375,219.2876064453125C243.3427734375,218.5177664453125,243.7536694375,217.8064264453125,244.4205634375,217.4217864453125L258.1841734375,209.4737574453125C259.5170734375,208.7042224453125,261.1591734375,208.7042224453125,262.4920734375,209.4737574453125L343.2646734375,256.1065064453125C343.9317734375,256.4911064453125,344.3427734375,257.2025064453125,344.3427734375,257.9723064453125C344.3427734375,258.7422064453125,343.9317734375,259.4535064453125,343.2646734375,259.8382064453125Z" fill="#F9FAFC" fill-opacity="1"/></g><g><path d="M438.99120703125,315.113648046875L425.23300703125,323.056348046875C423.90010703125,323.825848046875,422.25800703125003,323.825848046875,420.92510703125,323.056348046875L340.15249703125,276.418248046875C339.48560303125,276.033548046875,339.07470703125,275.322248046875,339.07470703125,274.552348046875C339.07470703125,273.782518046875,339.48560303125,273.071178046875,340.15249703125,272.686538046875L353.90540703125,264.743899046875C355.23820703125,263.974364046875,356.88040703125,263.974364046875,358.21320703125,264.743899046875L438.98580703125003,311.381948046875C439.65370703125,311.765648046875,440.06570703125,312.476348046875,440.06670703125,313.246248046875C440.06770703125,314.016148046875,439.65770703124997,314.728048046875,438.99120703125,315.113648046875Z" fill="#F9FAFC" fill-opacity="1"/></g><g><path d="M506.005190625,386.96357265625L492.241490625,394.90617265625C490.908690625,395.67567265625,489.266490625,395.67567265625,487.933690625,394.90617265625L407.161050625,348.26807265625C405.730171625,347.43807265625003,405.730171625,345.37179265625,407.161050625,344.54178265625L420.924690625,336.59914065625C422.257590625,335.82960565625,423.899690625,335.82960565625,425.232590625,336.59914065625L506.005190625,383.23187265625C506.671890625,383.61647265625,507.082890625,384.32787265625,507.082890625,385.09767265625C507.082890625,385.86757265625,506.671890625,386.57887265625,506.005190625,386.96357265625Z" fill="#F9FAFC" fill-opacity="1"/></g><g><path d="M314.5415,276.4235111328125L300.7833,284.3662111328125C299.4504,285.1357111328125,297.80830000000003,285.1357111328125,296.4754,284.3662111328125L215.70281,237.7334111328125C215.035896,237.3488111328125,214.625,236.6375111328125,214.625,235.8676111328125C214.625,235.0977311328125,215.035896,234.3864011328125,215.70281,234.0017711328125L229.4611,226.0860621328125C230.7939,225.3165271328125,232.4361,225.3165271328125,233.7689,226.0860621328125L314.5415,272.7188111328125C315.948,273.5533111328125,315.948,275.5890111328125,314.5415,276.4235111328125Z" fill="#F9FAFC" fill-opacity="1"/></g><g><path d="M410.26803359375003,331.6936041015625L396.51523359375,339.6309041015625C395.18233359375,340.4004041015625,393.54023359375003,340.4004041015625,392.20733359375,339.6309041015625L311.43472359375,292.9982041015625C310.76782959375,292.6135041015625,310.35693359375,291.9022041015625,310.35693359375,291.1323041015625C310.35693359375,290.3624741015625,310.76782959375,289.6511441015625,311.43472359375,289.2664741015625L325.18763359375,281.3238391015625C326.52043359375,280.5543201015625,328.16263359375,280.5543201015625,329.49543359375,281.3238391015625L410.26803359375003,327.9619041015625C410.93493359375,328.3466041015625,411.34593359375003,329.0579041015625,411.34593359375003,329.8278041015625C411.34593359375003,330.5977041015625,410.93493359375,331.3090041015625,410.26803359375003,331.6936041015625Z" fill="#F9FAFC" fill-opacity="1"/></g><g><path d="M477.29330546875,403.543364453125L463.52420546875,411.491364453125C462.19140546875,412.260964453125,460.54920546875,412.260964453125,459.21640546875,411.491364453125L378.44376546875,364.853264453125C377.01288746875,364.023264453125,377.01288746875,361.957014453125,378.44376546875,361.127004453125L392.21280546875,353.168199453125C393.54570546875,352.398664453125,395.18780546875,352.398664453125,396.52070546875,353.168199453125L477.29330546875,399.800864453125C477.96560546875,400.184064453125,478.38060546875,400.898364453125,478.38060546875,401.672164453125C478.38060546875,402.445864453125,477.96560546875,403.160164453125,477.29330546875,403.543364453125Z" fill="#F9FAFC" fill-opacity="1"/></g><g><path d="M190.09290390625,237.7227087890625L176.32390390625,245.6707087890625C174.99100390625,246.4402087890625,173.34890390625,246.4402087890625,172.01600390625,245.6707087890625L139.11466390625,226.6730087890625C137.68378590625,225.8430087890625,137.68378590625,223.7766987890625,139.11466390625,222.9466887890625L152.87830390625,214.9986597890625C154.21120390625,214.2291247890625,155.85330390625,214.2291247890625,157.18620390625,214.9986597890625L190.08760390625,233.9910087890625C190.75500390625,234.3747087890625,191.16700390625,235.0854087890625,191.16810390625,235.8553087890625C191.16920390625,236.6252087890625,190.75930390625,237.3371087890625,190.09290390625,237.7227087890625Z" fill="#F9FAFC" fill-opacity="1"/></g><g><path d="M285.8245265625,292.9980763671875L272.0608265625,300.9353763671875C270.7280265625,301.7048763671875,269.0858265625,301.7048763671875,267.7530265625,300.9353763671875L186.9803865625,254.2972763671875C185.5495085625,253.4672763671875,185.5495085625,251.4009863671875,186.9803865625,250.5709563671875L200.7440265625,242.6229273671875C202.0769265625,241.8533923671875,203.7190265625,241.8533923671875,205.0519265625,242.6229273671875L285.8245265625,289.2556763671875C286.4962265625,289.6388763671875,286.9112265625,290.35317636718753,286.9112265625,291.1268763671875C286.9112265625,291.9006763671875,286.4962265625,292.6149763671875,285.8245265625,292.9980763671875Z" fill="#F9FAFC" fill-opacity="1"/></g><g><path d="M381.55617734375,348.2681380859375L367.79257734375,356.2161380859375C366.45967734375,356.9856380859375,364.81757734375003,356.9856380859375,363.48467734375,356.2161380859375L282.71206734375,309.5834380859375C282.04517334375,309.1988380859375,281.63427734375,308.4874380859375,281.63427734375,307.7176380859375C281.63427734375,306.9477280859375,282.04517334375,306.2364080859375,282.71206734375,305.8517380859375L296.47567734375,297.9036730859375C297.80857734375,297.1341380859375,299.45067734375,297.1341380859375,300.78357734375,297.9036730859375L381.55617734375,344.5525380859375C382.97427734375003,345.38483808593753,382.97427734375003,347.4357380859375,381.55617734375,348.2681380859375Z" fill="#F9FAFC" fill-opacity="1"/></g><g><path d="M448.57110859375,420.123484765625L434.80740859375,428.071484765625C433.47460859375,428.840984765625,431.83240859375,428.840984765625,430.49960859375,428.071484765625L349.72696859375,381.433384765625C348.29608959375,380.603384765625,348.29608959375,378.537094765625,349.72696859375,377.707084765625L363.49060859375,369.759052765625C364.82350859375,368.989517765625,366.46560859375,368.989517765625,367.79850859375,369.759052765625L448.57110859375,416.391784765625C449.23780859375,416.776384765625,449.64880859375,417.487784765625,449.64880859375,418.257584765625C449.64880859375,419.027484765625,449.23780859375,419.738884765625,448.57110859375,420.123484765625Z" fill="#F9FAFC" fill-opacity="1"/></g><g><path d="M161.37592421875001,254.30806484375L147.60692421875,262.25606484375C146.27402421875001,263.02556484375,144.63182421875,263.02556484375,143.29902421875,262.25606484375L110.39763421875,243.25836484375C109.73072021875,242.87366484375,109.31982421875,242.16236484375,109.31982421875,241.39246484375C109.31982421875,240.62261484375,109.73072021875,239.91128484375,110.39763421875,239.52664484375L124.16132421875,231.57861584375C125.49412421875,230.80908084375,127.13632421875,230.80908084375,128.46912421875,231.57861584375L161.37052421875,250.58176484375C162.80262421875,251.40966484375,162.80562421874998,253.47596484375,161.37592421875001,254.30806484375Z" fill="#F9FAFC" fill-opacity="1"/></g><g><path d="M257.11264140625,309.583445703125L243.34354140624998,317.531445703125C242.01074140625002,318.300945703125,240.36854140625002,318.300945703125,239.03574140625,317.531445703125L158.26310140625,270.893345703125C156.83222340625,270.063345703125,156.83222340625,267.997055703125,158.26310140625,267.167025703125L172.02674140625,259.218996703125C173.35964140625,258.449461703125,175.00174140625,258.449461703125,176.33464140625,259.218996703125L257.10724140625,305.851745703125C257.77494140625,306.235345703125,258.18694140625,306.946145703125,258.18794140625,307.716045703125C258.18894140625,308.485845703125,257.77894140625,309.197845703125,257.11264140625,309.583445703125Z" fill="#F9FAFC" fill-opacity="1"/></g><g><path d="M352.8388921875,364.847994140625L339.0752921875,372.796094140625C337.7423921875,373.565594140625,336.10029218750003,373.565594140625,334.7673921875,372.796094140625L253.9947821875,326.163394140625C253.3278881875,325.778694140625,252.9169921875,325.067394140625,252.9169921875,324.297494140625C252.9169921875,323.527624140625,253.3278881875,322.816294140625,253.9947821875,322.431654140625L267.7583921875,314.483629140625C269.0912921875,313.714094140625,270.7333921875,313.714094140625,272.0662921875,314.483629140625L352.8388921875,361.121694140625C354.2699921875,361.951794140625,354.2699921875,364.017994140625,352.8388921875,364.847994140625Z" fill="#F9FAFC" fill-opacity="1"/></g><g><path d="M419.85356953125,436.7032255859375L406.08456953125,444.6512255859375C404.75166953125,445.4207255859375,403.10956953125003,445.4207255859375,401.77666953125,444.6512255859375L321.00405953125,398.0131255859375C320.33716553125,397.6285255859375,319.92626953125,396.9171255859375,319.92626953125,396.1473255859375C319.92626953125,395.3774155859375,320.33716553125,394.6660955859375,321.00405953125,394.2814255859375L334.77306953125,386.3333935859375C336.10596953125,385.5638585859375,337.74806953125,385.5638585859375,339.08096953125,386.3333935859375L419.85356953125,432.9715255859375C420.52026953125,433.3561255859375,420.93126953125,434.0675255859375,420.93126953125,434.8373255859375C420.93126953125,435.6072255859375,420.52026953125,436.3185255859375,419.85356953125,436.7032255859375Z" fill="#F9FAFC" fill-opacity="1"/></g><g><path d="M132.65275078125,270.887869921875L118.88915078125001,278.857369921875C117.55625078125,279.626969921875,115.91405078125,279.626969921875,114.58125078124999,278.857369921875L81.67986078125,259.859669921875C81.01295578125,259.475069921875,80.60205078125,258.763769921875,80.60205078125,257.993869921875C80.60205078125,257.223969921875,81.01295578125,256.512639921875,81.67986078125,256.127999921875L95.44355078125,248.163820921875C96.77635078125,247.394285921875,98.41855078125,247.394285921875,99.75135078125,248.163820921875L132.65275078125,267.166969921875C134.07745078125,267.998069921875,134.07745078125,270.056669921875,132.65275078125,270.887869921875Z" fill="#F9FAFC" fill-opacity="1"/></g><g><path d="M228.38406796875,326.1631796875L214.62576796874998,334.1112796875C213.29286796875,334.8807796875,211.65076796875002,334.8807796875,210.31786796875,334.1112796875L129.54530796875,287.4731796875C128.11444996875,286.6430796875,128.11444996875,284.5768696875,129.54530796875,283.7468596875L143.30356796875,275.7988306875C144.63646796875,275.0292956875,146.27856796875,275.0292956875,147.61146796875,275.7988306875L228.38406796875,322.4315796875C229.05116796875,322.8161796875,229.46216796875,323.5275796875,229.46216796875,324.2973796875C229.46216796875,325.0672796875,229.05116796875,325.7785796875,228.38406796875,326.1631796875Z" fill="#F9FAFC" fill-opacity="1"/></g><g><path d="M324.11571875,381.4279056640625L310.35751875,389.3759056640625C309.02461875,390.1455056640625,307.38251875000003,390.1455056640625,306.04961875,389.3759056640625L225.27702875,342.7432056640625C224.61013175,342.3586056640625,224.19921875,341.6473056640625,224.19921875,340.8774056640625C224.19921875,340.1075456640625,224.61011475,339.3961856640625,225.27702875,339.0115556640625L239.03531875,331.0904406640625C240.36811875,330.3209056640625,242.01031875,330.3209056640625,243.34311875,331.0904406640625L324.11571875,377.7231056640625C325.52221875,378.5576056640625,325.52221875,380.5934056640625,324.11571875,381.4279056640625Z" fill="#F9FAFC" fill-opacity="1"/></g><g><path d="M334.76745390625,151.33361171875L334.76745390625,153.00291171875C334.75155390625,153.75621171875,334.34315390625,154.44641171875,333.69045390625,154.82301171875L319.92685390625,162.77101171875C318.59395390625,163.54061171875,316.95185390625,163.54061171875,315.61895390625,162.77101171875L282.71222390625,143.77332171875C282.04480290625,143.38798171875,281.63410357625,142.67544171875,281.63525390625,141.90478171875L281.63525390625,140.18701171875L334.76745390625,151.33361171875Z" fill="#F7BFBF" fill-opacity="1"/></g><g><path d="M306.05016875,167.9296810546875L306.05016875,169.5989810546875C306.03426875,170.3522810546875,305.62586875,171.0424810546875,304.97316875,171.4190810546875L291.20956875,179.3670810546875C289.87666875,180.1366810546875,288.23456875,180.1366810546875,286.90166875,179.3670810546875L253.99493875,160.3693910546875C253.32751775,159.9840510546875,252.91681842,159.2715110546875,252.91796875,158.5008510546875L252.91796875,156.7830810546875L306.05016875,167.9296810546875Z" fill="#F7CFA9" fill-opacity="1"/></g><g><path d="M277.32702421875,184.493523828125L277.32702421875,186.162823828125C277.31112421875,186.916123828125,276.90272421875,187.606323828125,276.25002421875,187.982923828125L262.48642421875,195.930923828125C261.15352421875,196.700523828125,259.51142421875,196.700523828125,258.17852421875,195.930923828125L225.27179421875,176.933233828125C224.60437321875,176.547903828125,224.19369032875,175.835343828125,224.19482421875,175.064693828125L224.19482421875,173.346923828125L277.32702421875,184.493523828125Z" fill="#C6F4B5" fill-opacity="1"/></g><g><path d="M248.61022734375,201.07872890625L248.61022734375,202.74802890625C248.59432734375,203.50132890625,248.18592734375,204.19152890625,247.53322734375,204.56812890625L233.76962734375002,212.51612890625C232.43672734375,213.28572890625,230.79462734375,213.28572890625,229.46172734375,212.51612890625L196.55499734375,193.51843890625C195.88757634375,193.13310890625,195.47689345375,192.42054890625,195.47802734375,191.64989890625L195.47802734375,189.93212890625L248.61022734375,201.07872890625Z" fill="#B1E9EF" fill-opacity="1"/></g><g><path d="M219.8870828125,217.6587138671875L219.8870828125,219.3226138671875C219.8730828125,220.0779138671875,219.4643828125,220.7705138671875,218.8101828125,221.1481138671875L205.04648281250002,229.0907138671875C203.7135828125,229.8603138671875,202.0714828125,229.8603138671875,200.7385828125,229.0907138671875L167.8318628125,210.0984138671875C167.1627718125,209.7121138671875,166.7518262325,208.9970738671875,166.7548992457,208.2244838671875L166.7548992457,206.5067138671875L219.8870828125,217.6587138671875Z" fill="#F3CBF4" fill-opacity="1"/></g><g><path d="M333.69037734375,153.2075720703125L319.92667734375,161.1555720703125C318.59377734375,161.9250720703125,316.95167734375,161.9250720703125,315.61877734375,161.1555720703125L282.71206734375,142.1578720703125C282.04517334375,141.7731720703125,281.63427734375,141.0618720703125,281.63427734375,140.2919720703125C281.63427734375,139.5221420703125,282.04517334375,138.8108120703125,282.71206734375,138.4261620703125L296.47567734375,130.4835150703125C297.80857734375,129.7139880703125,299.45067734375,129.7139880703125,300.78357734375,130.4835150703125L333.69037734375,149.4758720703125C334.35727734375,149.8604720703125,334.76817734375,150.5718720703125,334.76817734375,151.3416720703125C334.76817734375,152.1115720703125,334.35727734375,152.82287207031248,333.69037734375,153.2075720703125Z" fill="#FFD4D1" fill-opacity="1"/></g><g><path d="M304.9676921875,169.7930501953125L291.2093921875,177.7356501953125C289.8764921875,178.5051501953125,288.2343921875,178.5051501953125,286.9014921875,177.7356501953125L253.9947821875,158.7379501953125C253.3278881875,158.3532501953125,252.9169921875,157.6419501953125,252.9169921875,156.8720501953125C252.9169921875,156.1022201953125,253.3278881875,155.3908801953125,253.9947821875,155.0062401953125L267.7530921875,147.0636011953125C269.0858921875,146.2940661953125,270.7280921875,146.2940661953125,272.0608921875,147.0636011953125L304.9676921875,166.0613501953125C305.6345921875,166.4459501953125,306.04549218750003,167.15725019531249,306.04549218750003,167.9271501953125C306.04549218750003,168.6970501953125,305.6345921875,169.4083501953125,304.9676921875,169.7930501953125Z" fill="#FFE6C4" fill-opacity="1"/></g><g><path d="M276.24506484375,186.3728998046875L262.48136484375,194.3154998046875C261.14856484375,195.0850998046875,259.50636484375,195.0850998046875,258.17356484375,194.3154998046875L225.26677484375,175.3231998046875C224.59986084375,174.9385998046875,224.18896484375,174.2272998046875,224.18896484375,173.4573998046875C224.18896484375,172.6874898046875,224.59986084375,171.9761598046875,225.26677484375,171.5915198046875L239.03576484375,163.6219508046875C240.36866484375,162.8524158046875,242.01086484375,162.8524158046875,243.34366484375,163.6219508046875L276.24506484375,182.6196998046875C276.92256484375,183.0013998046875,277.34176484375,183.7186998046875,277.34176484375,184.4962998046875C277.34176484375,185.2738998046875,276.92256484375,185.9911998046875,276.24506484375,186.3728998046875Z" fill="#E0FAD9" fill-opacity="1"/></g><g><path d="M247.52775078125,202.9310892578125L233.76945078125,210.9006892578125C232.43665078125,211.6701892578125,230.79445078125,211.6701892578125,229.46165078125,210.9006892578125L196.55486078125,191.9029892578125C195.88794678125,191.5182892578125,195.47705078125,190.8069892578125,195.47705078125,190.0370892578125C195.47705078125,189.2672492578125,195.88794678125,188.5559192578125,196.55486078125,188.1712792578125L210.31855078125,180.2286402578125C211.65135078125,179.4591052578125,213.29355078125,179.4591052578125,214.62635078125,180.2286402578125L247.52775078125,199.2209892578125C248.94025078125,200.0543892578125,248.94025078125,202.0976892578125,247.52775078125,202.9310892578125Z" fill="#D6F1F7" fill-opacity="1"/></g><g><path d="M218.80534843750002,219.5380453125L205.0524484375,227.4806453125C203.7195484375,228.2501453125,202.0774484375,228.2501453125,200.7445484375,227.4806453125L167.8378084375,208.4775453125C166.4069304375,207.6475453125,166.4069304375,205.5812653125,167.8378084375,204.7512353125L181.5960484375,196.8085963125C182.9289484375,196.0390613125,184.5710484375,196.0390613125,185.9039484375,196.8085963125L218.80534843750002,215.8063453125C219.4722484375,216.1909453125,219.88314843749998,216.90224531249999,219.88314843749998,217.6721453125C219.88314843749998,218.4420453125,219.4722484375,219.1534453125,218.80534843750002,219.5380453125Z" fill="#FAE4FA" fill-opacity="1"/></g><g><path d="M368.34723437499997,92.1812744140625L376.709834375,96.9953244140625C380.269234375,99.0523344140625,380.737734375,101.4755044140625,377.652234375,103.2363744140625C375.241134375,104.5332744140625,372.388534375,104.7294744140625,369.822634375,103.7748744140625L369.644934375,103.8717744140625C371.798934375,105.3956744140625,372.208134375,107.5226744140625,369.181934375,109.2565744140625C365.584834375,111.3135744140625,360.609234375,110.8289744140625,356.554424375,108.4865744140625L348.240234375,103.6886744140625L368.34723437499997,92.1812744140625ZM363.893934375,99.2354144140625L366.500234375,100.7377844140625C369.14953437500003,102.2670744140625,371.308834375,102.3801744140625,373.064334375,101.3731944140625C374.679834375,100.4416144140625,374.631334375,99.2515644140625,372.773534375,98.1745944140625L369.273434375,96.15528441406249L363.893934375,99.2354144140625ZM355.138184375,104.2379744140625L358.078314375,105.9395744140625C361.180034375,107.7326744140625,363.463134375,107.8942744140625,365.374734375,106.79577441406249C367.286334375,105.6971744140625,367.194834375,104.3240744140625,364.868634375,102.98327441406249L361.099234375,100.8293244140625L355.138184375,104.2379744140625Z" fill="#EDF0F4" fill-opacity="1"/></g><g><path d="M370.93751734375,111.588172265625C373.74302734375,109.972722265625,377.52855734375,110.037332265625,381.13102734375,112.126652265625L384.90042734375,114.318292265625L386.30042734375,113.515942265625C387.87822734375,112.611292265625,387.61972734375,111.598942265625,386.04202734375,110.688902265625C384.80202734375,109.877742265625,383.25432734375,109.692492265625,381.85792734375,110.188122265625L378.21240734375,108.082644265625C380.95332734375,106.714899265625,384.83032734375,106.585659265625,389.08982734375,109.046532265625C392.57372734375,111.055072265625,394.00072734375,113.505172265625,390.03212734375,115.772192265625L379.52092734375,121.781672265625L375.87537734375,119.676172265625L377.86776734375,118.539972265625L377.69005734375,118.437672265625C375.46638734375,118.817172265625,373.18002734375,118.405672265625,371.22825734375,117.274572265625C368.23970634375,115.519112265625,367.99199234375,113.273632265625,370.93751734375,111.588172265625ZM380.95332734375,116.574532265625L382.56872734375,115.642952265625L379.59632734375,113.930582265625C377.88393734375,112.939772265625,376.20926734375,112.972082265625,375.01380734375,113.655952265625C373.55450734375,114.490612265625,374.06068734375,115.594502265625,375.37997734375,116.348372265625C377.01159734375,117.312272265625,379.43472734375,117.441472265625,380.95332734375,116.574532265625Z" fill="#EDF0F4" fill-opacity="1"/></g><g><path d="M405.30892890625,112.304443359375L409.17522890625,114.533763359375L387.98593890625,126.644243359375L384.11962890625,124.414943359375L405.30892890625,112.304443359375Z" fill="#EDF0F4" fill-opacity="1"/></g><g><path d="M396.41854578125,126.299598046875C399.22406578125,124.684148046875,403.00958578125,124.748758046875,406.61202578125,126.838078046875L410.38142578125,129.029718046875L411.78152578125,128.227368046875C413.35922578125,127.322718046875,413.10072578125,126.310368046875,411.52302578125,125.400328046875C410.28312578125,124.589168046875,408.73532578125,124.403928046875,407.33902578125,124.899548046875L403.69343578125,122.794070046875C406.43432578125,121.426325046875,410.31142578125,121.297085046875,414.57082578125,123.757958046875C418.05482578125,125.766498046875,419.48182578125,128.216598046875,415.51312578125,130.483618046875L405.02352578125,136.482298046875L401.37799578125,134.376898046875L403.37039578125,133.240698046875L403.19268578125,133.138298046875C400.96900578125,133.517898046875,398.68265578125,133.106298046875,396.73087578125,131.975198046875C393.72077178125,130.23591804687499,393.47305678125,127.985058046875,396.41854578125,126.299598046875ZM406.43432578125,131.312888046875L408.04982578125,130.381308046875L405.08812578125,128.620458046875C403.37578578125,127.629658046875,401.70110578125,127.661958046875,400.50565578125,128.345838046875C399.04635578125,129.180488046875,399.55252578125,130.284388046875,400.87182578125,131.038258046875C402.49266578125,132.007498046875,404.91582578125,132.152898046875,406.43432578125,131.312888046875Z" fill="#EDF0F4" fill-opacity="1"/></g><g><path d="M430.7898859375,127.0048828125L434.6561859375,129.2342028125L413.4668959375,141.3446828125L409.6005859375,139.1153828125L430.7898859375,127.0048828125Z" fill="#EDF0F4" fill-opacity="1"/></g><g><path d="M421.8995028125,141.005385859375C424.7050228125,139.389935859375,428.4905428125,139.454555859375,432.0929828125,141.543875859375L435.8623828125,143.735505859375L437.2624828125,142.933165859375C438.8401828125,142.028515859375,438.5816828125,141.016155859375,437.0039828125,140.106115859375C435.7640828125,139.294955859375,434.2162828125,139.109705859375,432.8199828125,139.605335859375L429.1743928125,137.499859859375C431.9152828125,136.137495859375,435.7923828125,136.002874859375,440.0517828125,138.463745859375C443.5357828125,140.472285859375,444.9627828125,142.922385859375,440.9940828125,145.189415859375L430.5044828125,151.193505859375L426.8589528125,149.082605859375L428.8513528125,147.946405859375L428.6736428125,147.844105859375C426.4499628125,148.223605859375,424.1636128125,147.812105859375,422.2118328125,146.681005859375C419.2016958125,144.941705859375,418.9540138125,142.696225859375,421.8995028125,141.005385859375ZM431.9152828125,145.991755859375L433.5307828125,145.065565859375L430.5583828125,143.353175859375C428.8459628125,142.362365859375,427.1712828125,142.394675859375,425.9758328125,143.078555859375C424.5165328125,143.913205859375,425.02270281250003,145.022485859375,426.3420028125,145.770975859375C427.9736228125,146.718705859375,430.3967828125,146.864105859375,431.9152828125,145.997125859375L431.9152828125,145.991755859375Z" fill="#EDF0F4" fill-opacity="1"/></g><g><path d="M146.16907734375002,185.4089740234375L114.59777734375001,203.6420740234375L92.51997734375,216.3879740234375L70.44207734375,203.6420740234375L65.59572734375,200.83117402343748C53.73045734375,193.9729740234375,53.73045734375,176.8449740234375,65.59572734375,169.98680402343751C82.27127734375,160.3655740234375,102.81167734375,160.3655740234375,119.48717734375,169.98680402343751L146.16907734375002,185.4089740234375Z" fill="url(#master_svg3_20_312)" fill-opacity="1"/></g><g><path d="M92.51986171875001,163.3096162578125C101.88436171875,163.3144962578125,111.08336171875,165.7785792578125,119.19636171875,170.4552892578125L145.09206171875002,185.4089892578125L114.32846171874999,203.1789892578125L92.51986171875001,215.7686892578125L70.71126171875,203.1789892578125L65.86491171875,200.3680892578125C54.36357171875,193.7161892578125,54.36357171875,177.1125892578125,65.86491171875,170.4606692578125C73.97736171875,165.7825392578125,83.17676171875,163.3183422578125,92.54146171875,163.3149892578125M92.54146171875,162.7765056910125C83.08926171875,162.7792007378125,73.80396171875,165.2676492578125,65.61721171875,169.9921892578125C53.75194171875,176.8503892578125,53.75194171875,193.9783892578125,65.61721171875,200.8365892578125L70.46356171875,203.6473892578125L92.54146171875,216.3933892578125L114.61926171875001,203.6473892578125L146.19056171875002,185.4143892578125L119.48716171875,169.9921692578125C111.30026171875,165.2681092578125,102.01506171874999,162.7796937378125,92.56296171875,162.7764892578125L92.54146171875,162.7765056910125Z" fill="url(#master_svg4_20_257)" fill-opacity="1"/></g><g><path d="M146.16880078125,170.2182953125L114.59750078125,188.4459953125L92.51970078125001,201.1918953125L70.44180078125,188.4459953125L65.59547078125,185.6350953125C53.72924078125,178.7798953125,53.72924078125,161.6513953125,65.59547078125,154.7961153125C82.26930078125,145.1682153125,102.81320078125,145.1682153125,119.48700078125,154.7961153125L146.16880078125,170.2182953125Z" fill="url(#master_svg5_20_361)" fill-opacity="1"/><path d="M146.16880078125,170.2182953125L114.59750078125,188.4459953125L92.51970078125001,201.1918953125L70.44180078125,188.4459953125L65.59547078125,185.6350953125C53.72924078125,178.7798953125,53.72924078125,161.6513953125,65.59547078125,154.7961153125C82.26930078125,145.1682153125,102.81320078125,145.1682153125,119.48700078125,154.7961153125L146.16880078125,170.2182953125Z" fill="url(#master_svg6_20_362)" fill-opacity="1"/></g><g><path d="M92.5200734375,148.1135354296875C101.8845734375,148.11839942968749,111.08357343750001,150.5824854296875,119.1965734375,155.2592154296875L145.0922734375,170.2183154296875L114.3286734375,187.9883154296875L92.5200734375,200.5834154296875L70.7114734375,187.9883154296875L65.8651434375,185.1828154296875C54.3575834375,178.5321154296875,54.3575834375,161.9207154296875,65.8651434375,155.2699954296875C73.9775734375,150.5918454296875,83.1769734375,148.1276684296875,92.54167343750001,148.1243154296875M92.54167343750001,147.5858318628875C83.0886734375,147.5878695796875,73.80277343750001,150.0783554296875,65.6174434375,154.8069054296875C53.7512134375,161.6621154296875,53.7512134375,178.7906154296875,65.6174434375,185.6459154296875L70.4637734375,188.4567154296875L92.54167343750001,201.2027154296875L114.6194734375,188.4567154296875L146.1907734375,170.2291154296875L119.4873734375,154.8068854296875C111.2943734375,150.0762854296875,102.0084734375,147.5858154296875,92.5631734375,147.5858154296875L92.54167343750001,147.5858318628875Z" fill="url(#master_svg7_20_347)" fill-opacity="1"/></g><g style="opacity:0.800000011920929;" filter="url(#master_svg8_27_0172)"><path d="M146.16907734375002,155.006019921875L114.59777734375001,173.239119921875L92.51997734375,185.985019921875L70.44207734375,173.239119921875L65.59572734375,170.42821992187498C53.73045734375,163.570019921875,53.73045734375,146.442019921875,65.59572734375,139.58384992187501C82.27127734375,129.962619921875,102.81167734375,129.962619921875,119.48717734375,139.58384992187501L146.16907734375002,155.006019921875Z" fill="url(#master_svg9_20_341)" fill-opacity="1"/></g><g><path d="M92.51997734375,132.9283061328125C101.88437734375,132.9331781328125,111.08337734375,135.3972561328125,119.19647734374999,140.0739961328125L145.09207734375002,155.0061861328125L114.32857734375,172.7760861328125L92.51997734375,185.3658861328125L70.71137734375,172.7760861328125L65.86497734375,169.9652861328125C54.36363734375,163.3133861328125,54.36363734375,146.7096861328125,65.86497734375,140.0578261328125C73.98097734375,135.3867661328125,83.17237734375,132.9283061328125,92.51997734375,132.9283061328125ZM92.51997734375,132.3898218328125C83.06777734375,132.3925169328125,73.78247734375,134.8809661328125,65.59572734375,139.6055061328125C53.73045734375,146.4636861328125,53.73045734375,163.5916861328125,65.59572734375,170.4498861328125L70.44207734375,173.26078613281248L92.51997734375,186.0066861328125L114.59777734375001,173.26078613281248L146.16907734375002,155.0061861328125L119.46567734375,139.5839661328125C111.27877734375,134.8598961328125,101.99357734374999,132.3714823928125,92.54147734375,132.3682861328125L92.51997734375,132.3898218328125Z" fill="url(#master_svga_20_320)" fill-opacity="1"/></g><g><path d="M260.26279296875,81.3954L227.87279296875,19.846600000000002C223.71029296875,11.92016,216.14999296874998,7.579982,208.77269296875,8.0376939L208.77269296875,8L197.93309296875,9.30852C194.96149296875,9.46012,192.08169296875002,10.38848,189.58119296875,12.00094L136.08278296875,46.2916C126.90700896875,52.1557,124.49459296875,65.6178,130.62254296875,76.2313L165.14479296874998,136.003C169.15109296875,142.939,176.05439296875,146.773,182.86089296875,146.643L182.86089296875,146.746L194.56749296875,145.179L194.56749296875,145.109C197.28109296875,144.885,199.90049296875,144.009,202.20319296875,142.556L253.82279296874998,110.177C262.78279296874996,104.5771,265.69079296875,91.7127,260.26279296875,81.3954Z" fill="url(#master_svgb_20_272)" fill-opacity="1"/><path d="M260.26279296875,81.3954L227.87279296875,19.846600000000002C223.71029296875,11.92016,216.14999296874998,7.579982,208.77269296875,8.0376939L208.77269296875,8L197.93309296875,9.30852C194.96149296875,9.46012,192.08169296875002,10.38848,189.58119296875,12.00094L136.08278296875,46.2916C126.90700896875,52.1557,124.49459296875,65.6178,130.62254296875,76.2313L165.14479296874998,136.003C169.15109296875,142.939,176.05439296875,146.773,182.86089296875,146.643L182.86089296875,146.746L194.56749296875,145.179L194.56749296875,145.109C197.28109296875,144.885,199.90049296875,144.009,202.20319296875,142.556L253.82279296874998,110.177C262.78279296874996,104.5771,265.69079296875,91.7127,260.26279296875,81.3954Z" fill="url(#master_svgc_20_273)" fill-opacity="1"/></g><g><path d="M253.8220703125,110.199033203125L202.2033703125,142.578033203125C193.3452703125,148.135033203125,181.5632703125,144.575033203125,175.8176703125,134.56503320312498L141.5862403125,74.852633203125C135.5013703125,64.244433203125,137.9568593125,50.825433203125,147.1272403125,44.950533203125L200.59337031249999,10.724523203124999C209.8767703125,4.801193203125,222.1326703125,8.893676203125,227.8729703125,19.835633203125L260.2630703125,81.395133203125C265.6910703125,91.712533203125,262.7830703125,104.576933203125,253.8220703125,110.199033203125Z" fill="url(#master_svgd_20_292)" fill-opacity="1"/></g><g><path d="M223.0732265625,92.945915625L207.90412656249998,102.509415625C195.4382265625,110.376615625,178.8260265625,105.201815625,170.7487665625,90.862015625C162.5530365625,76.32291562500001,166.1070365625,57.874415625,178.8260265625,49.770275625L194.2805265625,39.916015625L223.0732265625,92.945915625Z" fill="#FFFFFF" fill-opacity="1"/></g><g><path d="M223.07303124999999,92.945915625L245.63013125,98.120715625L217.45123125,45.457015625L194.26953125,39.916015625L223.07303124999999,92.945915625Z" fill="#8DCBFF" fill-opacity="1"/></g><g><path d="M195.31958125,40.723743625L217.09583125,45.920115625L244.59623125000002,97.334515625L223.42843125,92.48821562500001L195.31958125,40.739895625M194.26953125,39.932169525L223.07303124999999,92.962115625L245.63013125,98.136915625L217.47283125,45.457015625L194.31800925,39.916015625L194.26953125,39.932169525Z" fill="url(#master_svge_20_288)" fill-opacity="1"/></g></g></g></svg>