<svg xmlns="http://www.w3.org/2000/svg" xmlns:xlink="http://www.w3.org/1999/xlink" fill="none" version="1.1" width="48" height="48" viewBox="0 0 48 48"><defs><clipPath id="master_svg0_3244_1263"><rect x="0" y="0" width="48" height="48" rx="24"/></clipPath><clipPath id="master_svg1_3244_1503"><rect x="10" y="10" width="28" height="28" rx="0"/></clipPath></defs><g clip-path="url(#master_svg0_3244_1263)"><g clip-path="url(#master_svg1_3244_1503)"><g><path d="M23.99726640625,35.66661298828125Q24.28366640625,35.66661298828125,24.56966640625,35.65261298828125Q24.855766406249998,35.63851298828125,25.140766406250002,35.61051298828125Q25.42576640625,35.58241298828125,25.709066406250003,35.54041298828125Q25.99236640625,35.49831298828125,26.273266406250002,35.44251298828125Q26.554166406249998,35.38661298828125,26.83196640625,35.31701298828125Q27.10986640625,35.247412988281255,27.38386640625,35.16431298828125Q27.65796640625,35.08111298828125,27.92756640625,34.98461298828125Q28.19726640625,34.88821298828125,28.46186640625,34.77861298828125Q28.72646640625,34.66901298828125,28.98536640625,34.54651298828125Q29.24426640625,34.42411298828125,29.49686640625,34.28901298828125Q29.74946640625,34.15401298828125,29.99506640625,34.006812988281254Q30.24076640625,33.85961298828125,30.47886640625,33.70041298828125Q30.71696640625,33.54131298828125,30.94706640625,33.370712988281255Q31.17706640625,33.20011298828125,31.39846640625,33.01841298828125Q31.61986640625,32.83671298828125,31.83206640625,32.644412988281246Q32.04426640625,32.45211298828125,32.24676640625,32.24951298828125Q32.44936640625,32.04701298828125,32.641666406249996,31.83481298828125Q32.83396640625,31.62261298828125,33.01566640625,31.40121298828125Q33.19736640625,31.17981298828125,33.367966406250005,30.94981298828125Q33.53856640625,30.71971298828125,33.69766640625,30.48161298828125Q33.85686640625,30.24351298828125,34.004066406250004,29.99781298828125Q34.15126640625,29.75221298828125,34.28626640625,29.49961298828125Q34.42136640625,29.24701298828125,34.54376640625,28.98811298828125Q34.66626640625,28.72921298828125,34.77586640625,28.46461298828125Q34.88546640625,28.20001298828125,34.98186640625,27.93031298828125Q35.07836640625,27.66071298828125,35.16156640625,27.38661298828125Q35.244666406250005,27.11261298828125,35.31426640625,26.83471298828125Q35.38386640625,26.556912988281248,35.43976640625,26.276012988281252Q35.49556640625,25.99511298828125,35.53766640625,25.711812988281253Q35.57966640625,25.42851298828125,35.60776640625,25.143512988281252Q35.63576640625,24.858512988281248,35.64986640625,24.57241298828125Q35.66386640625,24.28641298828125,35.66386640625,24.00001298828125Q35.66386640625,23.71361298828125,35.64986640625,23.42751298828125Q35.63576640625,23.14151298828125,35.60776640625,22.85641298828125Q35.57966640625,22.57141298828125,35.53766640625,22.288122988281252Q35.49556640625,22.004822988281248,35.43976640625,21.723922988281252Q35.38386640625,21.44303298828125,35.31426640625,21.165212988281247Q35.244666406250005,20.88739298828125,35.16156640625,20.61332298828125Q35.07836640625,20.339252988281252,34.98186640625,20.06959298828125Q34.88546640625,19.799942988281252,34.77586640625,19.53534298828125Q34.66626640625,19.27074298828125,34.54376640625,19.01183298828125Q34.42136640625,18.752932988281252,34.28626640625,18.50035298828125Q34.15126640625,18.24777298828125,34.004066406250004,18.00211298828125Q33.85686640625,17.75646298828125,33.69766640625,17.51832298828125Q33.53856640625,17.28019298828125,33.367966406250005,17.05015298828125Q33.19736640625,16.82011298828125,33.01566640625,16.59872298828125Q32.83396640625,16.37733298828125,32.641666406249996,16.16512298828125Q32.44936640625,15.95291298828125,32.24676640625,15.75040298828125Q32.04426640625,15.54788298828125,31.83206640625,15.35555298828125Q31.61986640625,15.16321298828125,31.39846640625,14.98152298828125Q31.17706640625,14.79983298828125,30.94706640625,14.62922298828125Q30.71696640625,14.45861298828125,30.47886640625,14.299502988281251Q30.24076640625,14.14038298828125,29.99506640625,13.99314298828125Q29.74946640625,13.84590298828125,29.49686640625,13.71090298828125Q29.24426640625,13.57589298828125,28.98536640625,13.45343298828125Q28.72646640625,13.33098598828125,28.46186640625,13.22138498828125Q28.19726640625,13.11178398828125,27.92756640625,13.01529898828125Q27.65796640625,12.91881298828125,27.38386640625,12.83567598828125Q27.10986640625,12.75253798828125,26.83196640625,12.68294798828125Q26.554166406249998,12.61335898828125,26.273266406250002,12.55748498828125Q25.99236640625,12.50161098828125,25.709066406250003,12.45958698828125Q25.42576640625,12.41756338828125,25.140766406250002,12.38949118828125Q24.855766406249998,12.36141898828125,24.56966640625,12.34736598828125Q24.28366640625,12.33331298828125,23.99726640625,12.33331298828125Q23.71086640625,12.33331298828125,23.42476640625,12.34736598828125Q23.13876640625,12.36141898828125,22.85366640625,12.38949118828125Q22.56866640625,12.41756338828125,22.285376406250002,12.45958698828125Q22.002076406249998,12.50161098828125,21.721176406250002,12.55748498828125Q21.44028640625,12.61335898828125,21.162466406249997,12.68294798828125Q20.88464640625,12.75253798828125,20.61057640625,12.83567598828125Q20.336506406250002,12.91881298828125,20.06684640625,13.01529898828125Q19.797196406250002,13.11178398828125,19.53259640625,13.22138498828125Q19.26799640625,13.33098598828125,19.00908640625,13.45343298828125Q18.750186406250002,13.57589298828125,18.49760640625,13.71090298828125Q18.24502640625,13.84590298828125,17.99936640625,13.99314298828125Q17.75371640625,14.14038298828125,17.51557640625,14.299502988281251Q17.27744640625,14.45861298828125,17.04740640625,14.62922298828125Q16.81736640625,14.79983298828125,16.59597640625,14.98152298828125Q16.37458640625,15.16321298828125,16.16237640625,15.35555298828125Q15.95016640625,15.54788298828125,15.74765640625,15.75040298828125Q15.54513640625,15.95291298828125,15.35280640625,16.16512298828125Q15.16046640625,16.37733298828125,14.97877640625,16.59872298828125Q14.79708640625,16.82011298828125,14.62647640625,17.05015298828125Q14.45586640625,17.28019298828125,14.296756406250001,17.51832298828125Q14.13763640625,17.75646298828125,13.99039640625,18.00211298828125Q13.84315640625,18.24777298828125,13.70815640625,18.50035298828125Q13.57314640625,18.752932988281252,13.45068640625,19.01183298828125Q13.32823940625,19.27074298828125,13.21863840625,19.53534298828125Q13.10903740625,19.799942988281252,13.01255240625,20.06959298828125Q12.91606640625,20.339252988281252,12.83292940625,20.61332298828125Q12.74979140625,20.88739298828125,12.68020140625,21.165212988281247Q12.61061240625,21.44303298828125,12.55473840625,21.723922988281252Q12.49886440625,22.004822988281248,12.45684040625,22.288122988281252Q12.41481680625,22.57141298828125,12.38674460625,22.85641298828125Q12.35867240625,23.14151298828125,12.34461940625,23.42751298828125Q12.33056640625,23.71361298828125,12.33056640625,24.00001298828125Q12.33056640625,24.28641298828125,12.34461940625,24.57241298828125Q12.35867240625,24.858512988281248,12.38674460625,25.143512988281252Q12.41481680625,25.42851298828125,12.45684040625,25.711812988281253Q12.49886440625,25.99511298828125,12.55473840625,26.276012988281252Q12.61061240625,26.556912988281248,12.68020140625,26.83471298828125Q12.74979140625,27.11261298828125,12.83292940625,27.38661298828125Q12.91606640625,27.66071298828125,13.01255240625,27.93031298828125Q13.10903740625,28.20001298828125,13.21863840625,28.46461298828125Q13.32823940625,28.72921298828125,13.45068640625,28.98811298828125Q13.57314640625,29.24701298828125,13.70815640625,29.49961298828125Q13.84315640625,29.75221298828125,13.99039640625,29.99781298828125Q14.13763640625,30.24351298828125,14.296756406250001,30.48161298828125Q14.45586640625,30.71971298828125,14.62647640625,30.94981298828125Q14.79708640625,31.17981298828125,14.97877640625,31.40121298828125Q15.16046640625,31.62261298828125,15.35280640625,31.83481298828125Q15.54513640625,32.04701298828125,15.74765640625,32.24951298828125Q15.95016640625,32.45211298828125,16.16237640625,32.644412988281246Q16.37458640625,32.83671298828125,16.59597640625,33.01841298828125Q16.81736640625,33.20011298828125,17.04740640625,33.370712988281255Q17.27744640625,33.54131298828125,17.51557640625,33.70041298828125Q17.75371640625,33.85961298828125,17.99936640625,34.006812988281254Q18.24502640625,34.15401298828125,18.49760640625,34.28901298828125Q18.750186406250002,34.42411298828125,19.00908640625,34.54651298828125Q19.26799640625,34.66901298828125,19.53259640625,34.77861298828125Q19.797196406250002,34.88821298828125,20.06684640625,34.98461298828125Q20.336506406250002,35.08111298828125,20.61057640625,35.16431298828125Q20.88464640625,35.247412988281255,21.162466406249997,35.31701298828125Q21.44028640625,35.38661298828125,21.721176406250002,35.44251298828125Q22.002076406249998,35.49831298828125,22.285376406250002,35.54041298828125Q22.56866640625,35.58241298828125,22.85366640625,35.61051298828125Q23.13876640625,35.63851298828125,23.42476640625,35.65261298828125Q23.71086640625,35.66661298828125,23.99726640625,35.66661298828125ZM25.16406640625,18.81642298828125L25.04696640625,25.34241298828125C25.04696640625,25.92231298828125,24.57676640625,26.39241298828125,23.99686640625,26.39241298828125C23.416966406249998,26.39241298828125,22.94746640625,25.92231298828125,22.94746640625,25.34241298828125L22.83046640625,18.81642298828125C22.83046640625,18.17209298828125,23.352466406250002,17.64972298828125,23.99686640625,17.64972298828125C24.64116640625,17.64972298828125,25.16406640625,18.17209298828125,25.16406640625,18.81642298828125ZM23.99686640625,30.24241298828125C24.70556640625,30.24241298828125,25.28026640625,29.66781298828125,25.28026640625,28.95901298828125C25.28026640625,28.25031298828125,24.70556640625,27.675712988281248,23.99686640625,27.675712988281248C23.28806640625,27.675712988281248,22.71336640625,28.25031298828125,22.71336640625,28.95901298828125C22.71336640625,29.66781298828125,23.28806640625,30.24241298828125,23.99686640625,30.24241298828125Z" fill-rule="evenodd" fill="#FF9800" fill-opacity="1"/></g></g></g></svg>