<svg xmlns="http://www.w3.org/2000/svg" xmlns:xlink="http://www.w3.org/1999/xlink" fill="none" version="1.1" width="48" height="48" viewBox="0 0 48 48"><defs><clipPath id="master_svg0_3244_1449"><rect x="0" y="0" width="48" height="48" rx="24"/></clipPath><clipPath id="master_svg1_3244_1450"><rect x="10" y="10" width="28" height="28" rx="0"/></clipPath></defs><g clip-path="url(#master_svg0_3244_1449)"><g clip-path="url(#master_svg1_3244_1450)"><g><path d="M23.9997078125,35.6666740234375Q24.2861078125,35.6666740234375,24.5721078125,35.6526740234375Q24.858207812499998,35.6385740234375,25.143207812500002,35.6105740234375Q25.4282078125,35.5824740234375,25.711507812500003,35.5404740234375Q25.9948078125,35.4983740234375,26.275707812500002,35.4425740234375Q26.556607812499998,35.3866740234375,26.8344078125,35.3170740234375Q27.1123078125,35.247474023437505,27.3863078125,35.1643740234375Q27.6604078125,35.0811740234375,27.9300078125,34.9846740234375Q28.1997078125,34.8882740234375,28.4643078125,34.7786740234375Q28.7289078125,34.6690740234375,28.9878078125,34.5465740234375Q29.2467078125,34.4241740234375,29.4993078125,34.2890740234375Q29.7519078125,34.1540740234375,29.9975078125,34.006874023437504Q30.2432078125,33.8596740234375,30.4813078125,33.7004740234375Q30.7194078125,33.5413740234375,30.9495078125,33.370774023437505Q31.1795078125,33.2001740234375,31.4009078125,33.0184740234375Q31.6223078125,32.8367740234375,31.8345078125,32.644474023437496Q32.0467078125,32.4521740234375,32.2492078125,32.2495740234375Q32.4518078125,32.0470740234375,32.644107812499996,31.8348740234375Q32.8364078125,31.6226740234375,33.0181078125,31.4012740234375Q33.1998078125,31.1798740234375,33.370407812500005,30.9498740234375Q33.5410078125,30.7197740234375,33.7001078125,30.4816740234375Q33.8593078125,30.2435740234375,34.006507812500004,29.9978740234375Q34.1537078125,29.7522740234375,34.2887078125,29.4996740234375Q34.4237078125,29.2470740234375,34.5462078125,28.9881740234375Q34.6687078125,28.7292740234375,34.7783078125,28.4646740234375Q34.8879078125,28.2000740234375,34.9843078125,27.9303740234375Q35.0808078125,27.6607740234375,35.1640078125,27.3866740234375Q35.247107812500005,27.1126740234375,35.3167078125,26.8347740234375Q35.3863078125,26.556974023437498,35.4422078125,26.276074023437502Q35.4980078125,25.9951740234375,35.5401078125,25.711874023437503Q35.5821078125,25.4285740234375,35.6102078125,25.143574023437502Q35.6382078125,24.858574023437498,35.6523078125,24.5724740234375Q35.6663078125,24.2864740234375,35.6663078125,24.0000740234375Q35.6663078125,23.7136740234375,35.6523078125,23.4275740234375Q35.6382078125,23.1415740234375,35.6102078125,22.8564740234375Q35.5821078125,22.5714740234375,35.5401078125,22.288184023437502Q35.4980078125,22.004884023437498,35.4422078125,21.723984023437502Q35.3863078125,21.4430840234375,35.3167078125,21.165274023437497Q35.247107812500005,20.8874540234375,35.1640078125,20.6133840234375Q35.0808078125,20.339314023437502,34.9843078125,20.0696540234375Q34.8879078125,19.800004023437502,34.7783078125,19.5354040234375Q34.6687078125,19.2708040234375,34.5462078125,19.0118940234375Q34.4238078125,18.752994023437502,34.2887078125,18.5004140234375Q34.1537078125,18.247824023437502,34.006507812500004,18.0021740234375Q33.8593078125,17.7565240234375,33.7001078125,17.5183840234375Q33.5410078125,17.2802540234375,33.370407812500005,17.0502140234375Q33.1998078125,16.8201740234375,33.0181078125,16.5987840234375Q32.8364078125,16.3773940234375,32.644107812499996,16.1651840234375Q32.4518078125,15.9529740234375,32.2492078125,15.7504640234375Q32.0467078125,15.5479440234375,31.8345078125,15.3556140234375Q31.6223078125,15.1632740234375,31.4009078125,14.9815840234375Q31.1795078125,14.7998940234375,30.9495078125,14.6292840234375Q30.7194078125,14.4586740234375,30.4813078125,14.299564023437501Q30.2432078125,14.1404440234375,29.9975078125,13.9932040234375Q29.7519078125,13.8459640234375,29.4993078125,13.7109540234375Q29.2467078125,13.5759540234375,28.9878078125,13.4534940234375Q28.7289078125,13.3310470234375,28.4643078125,13.2214460234375Q28.1997078125,13.1118450234375,27.9300078125,13.0153600234375Q27.6604078125,12.9188740234375,27.3863078125,12.8357370234375Q27.1123078125,12.7525990234375,26.8344078125,12.6830090234375Q26.556607812499998,12.6134200234375,26.275707812500002,12.5575460234375Q25.9948078125,12.5016720234375,25.711507812500003,12.4596480234375Q25.4282078125,12.4176243234375,25.143207812500002,12.3895522234375Q24.858207812499998,12.3614800234375,24.5721078125,12.3474270234375Q24.2861078125,12.3333740234375,23.9997078125,12.3333740234375Q23.7133078125,12.3333740234375,23.4272078125,12.3474270234375Q23.1412078125,12.3614800234375,22.8561078125,12.3895522234375Q22.5711078125,12.4176243234375,22.287817812500002,12.4596480234375Q22.004517812499998,12.5016720234375,21.723617812500002,12.5575460234375Q21.4427178125,12.6134200234375,21.164907812499997,12.6830090234375Q20.8870878125,12.7525990234375,20.6130178125,12.8357370234375Q20.338947812500002,12.9188740234375,20.0692878125,13.0153600234375Q19.799637812500002,13.1118450234375,19.5350378125,13.2214460234375Q19.2704378125,13.3310470234375,19.0115278125,13.4534940234375Q18.752627812500002,13.5759540234375,18.5000478125,13.7109540234375Q18.247457812500002,13.8459640234375,18.0018078125,13.9932040234375Q17.7561578125,14.1404440234375,17.5180178125,14.299564023437501Q17.2798878125,14.4586740234375,17.0498478125,14.6292840234375Q16.8198078125,14.7998940234375,16.5984178125,14.9815840234375Q16.3770278125,15.1632740234375,16.1648178125,15.3556140234375Q15.9526078125,15.5479440234375,15.7500978125,15.7504640234375Q15.5475778125,15.9529740234375,15.3552478125,16.1651840234375Q15.1629078125,16.3773940234375,14.9812178125,16.5987840234375Q14.7995278125,16.8201740234375,14.6289178125,17.0502140234375Q14.4583078125,17.2802540234375,14.299197812500001,17.5183840234375Q14.1400778125,17.7565240234375,13.9928378125,18.0021740234375Q13.8455978125,18.247824023437502,13.7105878125,18.5004140234375Q13.5755878125,18.752994023437502,13.4531278125,19.0118940234375Q13.3306808125,19.2708040234375,13.2210798125,19.5354040234375Q13.1114788125,19.7999940234375,13.0149938125,20.0696540234375Q12.9185078125,20.339314023437502,12.8353708125,20.6133840234375Q12.7522328125,20.8874540234375,12.6826428125,21.165274023437497Q12.6130538125,21.4430840234375,12.5571798125,21.723984023437502Q12.5013058125,22.004884023437498,12.4592818125,22.288184023437502Q12.4172581125,22.5714740234375,12.3891860125,22.8564740234375Q12.3611138125,23.1415740234375,12.3470608125,23.4275740234375Q12.3330078125,23.7136740234375,12.3330078125,24.0000740234375Q12.3330078125,24.2864740234375,12.3470608125,24.5724740234375Q12.3611138125,24.858574023437498,12.3891860125,25.143574023437502Q12.4172581125,25.4285740234375,12.4592818125,25.711874023437503Q12.5013058125,25.9951740234375,12.5571798125,26.276074023437502Q12.6130538125,26.556974023437498,12.6826428125,26.8347740234375Q12.7522328125,27.1126740234375,12.8353708125,27.3866740234375Q12.9185078125,27.6607740234375,13.0149938125,27.9303740234375Q13.1114788125,28.2000740234375,13.2210798125,28.4646740234375Q13.3306808125,28.7292740234375,13.4531278125,28.9881740234375Q13.5755878125,29.2470740234375,13.7105878125,29.4996740234375Q13.8455978125,29.7522740234375,13.9928378125,29.9978740234375Q14.1400778125,30.2435740234375,14.299197812500001,30.4816740234375Q14.4583078125,30.7197740234375,14.6289178125,30.9498740234375Q14.7995278125,31.1798740234375,14.9812178125,31.4012740234375Q15.1629078125,31.6226740234375,15.3552478125,31.8348740234375Q15.5475778125,32.0470740234375,15.7500978125,32.2495740234375Q15.9526078125,32.4521740234375,16.1648178125,32.644474023437496Q16.3770278125,32.8367740234375,16.5984178125,33.0184740234375Q16.8198078125,33.2001740234375,17.0498478125,33.370774023437505Q17.2798878125,33.5413740234375,17.5180178125,33.7004740234375Q17.7561578125,33.8596740234375,18.0018078125,34.006874023437504Q18.247457812500002,34.1540740234375,18.5000478125,34.2890740234375Q18.752627812500002,34.4240740234375,19.0115278125,34.5465740234375Q19.2704378125,34.6690740234375,19.5350378125,34.7786740234375Q19.7996278125,34.8882740234375,20.0692878125,34.9846740234375Q20.338947812500002,35.0811740234375,20.6130178125,35.1643740234375Q20.8870878125,35.247474023437505,21.164907812499997,35.3170740234375Q21.4427178125,35.3866740234375,21.723617812500002,35.4425740234375Q22.004517812499998,35.4983740234375,22.287817812500002,35.5404740234375Q22.5711078125,35.5824740234375,22.8561078125,35.6105740234375Q23.1412078125,35.6385740234375,23.4272078125,35.6526740234375Q23.7133078125,35.6666740234375,23.9997078125,35.6666740234375ZM28.087007812499998,26.459074023437502L27.6653078125,29.4111740234375C27.6506078125,29.5138740234375,27.7386078125,29.6018740234375,27.8413078125,29.5871740234375L30.7934078125,29.1654740234375C30.9204078125,29.1472740234375,30.9721078125,28.9920740234375,30.8814078125,28.9013740234375L30.0700078125,28.0899740234375Q30.9457078125,26.7783740234375,31.1598078125,25.1415740234375Q31.4676078125,22.7886740234375,30.2814078125,20.7334940234375Q29.0952078125,18.678304023437498,26.9039078125,17.7678240234375Q24.7131078125,16.8575740234375,22.420407812500002,17.4665240234375L22.4193078125,17.4668240234375C22.2867578125,17.5020340234375,22.1659278125,17.5716340234375,22.068987812499998,17.6685740234375C22.059197812500003,17.6783640234375,22.049667812499997,17.6884140234375,22.0404178125,17.6987140234375C21.8649178125,17.8940240234375,21.7997878125,18.1647040234375,21.867227812499998,18.4184740234375C21.9024378125,18.5509640234375,21.972037812499998,18.6718040234375,22.068977812500002,18.7687440234375L22.0778378125,18.7774540234375C22.1232978125,18.821494023437502,22.173967812500003,18.8598240234375,22.2287278125,18.8915840234375C22.407207812499998,18.9951040234375,22.6195078125,19.0234940234375,22.8195078125,18.9703240234375Q24.6029078125,18.4965940234375,26.3069078125,19.2046140234375Q28.0113078125,19.9127640234375,28.9339078125,21.5112440234375Q29.8565078125,23.109774023437502,29.6171078125,24.9397740234375Q29.4725078125,26.0451740234375,28.9399078125,26.9598740234375L28.3511078125,26.370974023437498C28.2604078125,26.2803740234375,28.105207812499998,26.3320740234375,28.087007812499998,26.459074023437502ZM20.0997978125,22.0803540234375L19.5106878125,21.4912540234375Q18.9780978125,22.4059740234375,18.8334878125,23.5113740234375Q18.5940778125,25.3413740234375,19.5166678125,26.9398740234375Q20.4392578125,28.5383740234375,22.1436278125,29.2465740234375Q23.847707812499998,29.9545740234375,25.631007812500002,29.4807740234375C25.8311078125,29.4276740234375,26.0434078125,29.4560740234375,26.2218078125,29.5595740234375C26.2766078125,29.5913740234375,26.327307812500003,29.6296740234375,26.3727078125,29.6736740234375L26.3816078125,29.6823740234375C26.4785078125,29.7793740234375,26.5481078125,29.9001740234375,26.5833078125,30.0326740234375C26.6363078125,30.2320740234375,26.607907812500002,30.4443740234375,26.5044078125,30.6228740234375C26.472707812499998,30.6775740234375,26.434307812500002,30.7282740234375,26.390307812499998,30.7736740234375L26.3816078125,30.7825740234375C26.2846078125,30.8794740234375,26.1638078125,30.9490740234375,26.0313078125,30.9842740234375Q23.7380078125,31.5937740234375,21.546647812499998,30.6832740234375Q19.3553278125,29.7728740234375,18.1691378125,27.7176740234375Q16.9829478125,25.6624740234375,17.2907578125,23.3095740234375Q17.5048878125,21.6727640234375,18.3806078125,20.3611740234375L17.5694078125,19.5499640234375C17.4787478125,19.4593040234375,17.530497812500002,19.3040540234375,17.6574178125,19.2859240234375L20.6095378125,18.8641940234375C20.7122178125,18.8495240234375,20.8002378125,18.9375340234375,20.7855678125,19.0402240234375L20.3638378125,21.9923440234375C20.345707812500002,22.119264023437502,20.1904578125,22.1710140234375,20.0997978125,22.0803540234375Z" fill-rule="evenodd" fill="#1D74F5" fill-opacity="1"/></g></g></g></svg>