<svg xmlns="http://www.w3.org/2000/svg" xmlns:xlink="http://www.w3.org/1999/xlink" fill="none" version="1.1" width="16" height="16" viewBox="0 0 16 16"><defs><clipPath id="master_svg0_183_2230"><rect x="0" y="0" width="16" height="16" rx="0"/></clipPath></defs><g clip-path="url(#master_svg0_183_2230)"><g><path d="M4.594970703125,3.2666259765625L7.594970703125,3.2666259765625Q7.654060703125,3.2666259765625,7.712020703125,3.2550969765625Q7.769980703125,3.2435679765625,7.824580703125,3.2209539765625Q7.879180703125,3.1983389765625,7.928310703125,3.1655079765625Q7.977450703125,3.1326759765625,8.019230703125,3.0908899765625Q8.061020703125,3.0491039765625,8.093850703125,2.9999679765625Q8.126680703125,2.9508329765625,8.149300703125,2.8962359765625Q8.171910703125,2.8416399765625,8.183440703125001,2.7836799765625Q8.194970703125,2.7257207765625,8.194970703125,2.6666259765625Q8.194970703125,2.6075311765625,8.183440703125001,2.5495719765625Q8.171910703125,2.4916119765625,8.149300703125,2.4370159765625Q8.126680703125,2.3824189765625,8.093850703125,2.3332839765625Q8.061020703125,2.2841479765625,8.019230703125,2.2423619765625Q7.977450703125,2.2005759765625,7.928310703125,2.1677439765625Q7.879180703125,2.1349129765625,7.824580703125,2.1122979765625Q7.769980703125,2.0896839765625,7.712020703125,2.0781549765625Q7.654060703125,2.0666259765625,7.594970703125,2.0666259765625L4.594970703125,2.0666259765625Q3.518015703125,2.0666259765625,2.756492703125,2.8281489765625Q1.994970703125,3.5896709765625,1.994970703125,4.6666259765625L1.994970703125,11.3332959765625Q1.994970703125,12.4102459765625,2.756492703125,13.1717259765625Q3.5180167031250003,13.9333259765625,4.594970703125,13.9333259765625L7.594980703125,13.9332259765625Q7.654070703125,13.9332259765625,7.712030703125,13.9217259765625Q7.769990703125,13.9102259765625,7.824590703125,13.8875259765625Q7.879180703125,13.8649259765625,7.928320703125,13.8321259765625Q7.977450703125,13.7993259765625,8.019240703125,13.7575259765625Q8.061020703125,13.7157259765625,8.093860703125,13.6666259765625Q8.126690703125,13.6174259765625,8.149300703125,13.5628259765625Q8.171910703125,13.5082259765625,8.183440703125001,13.4503259765625Q8.194970703125,13.3923259765625,8.194970703125,13.3332259765625Q8.194970703125,13.2139259765625,8.149290703125,13.1036259765625Q8.103620703125,12.9933259765625,8.019230703125,12.9090259765625Q7.934840703125,12.8246259765625,7.824570703125,12.7789259765625Q7.714310703125,12.7332259765625,7.594960703125,12.7332259765625L4.594970703125,12.7333259765625Q4.015070703125,12.7333259765625,3.6050207031249997,12.3232459765625Q3.194970703125,11.9131959765625,3.194970703125,11.3332959765625L3.194970703125,4.6666259765625Q3.194970703125,4.0867259765625,3.6050207031249997,3.6766759765624997Q4.015070703125,3.2666259765625,4.594970703125,3.2666259765625ZM13.708870703125,7.3474759765625L10.775510703125,4.7941359765625Q10.685490703125,4.7157859765625005,10.572330703125001,4.6778359765625Q10.459180703125,4.6398959765625,10.340120703124999,4.6481359765625Q10.221050703125,4.6563859765625,10.114210703125,4.7095659765625Q10.007370703125,4.7627459765625,9.929010703125,4.8527659765625Q9.890210703125,4.8973459765625,9.860850703125,4.9486259765625Q9.831490703124999,4.9999159765625,9.812700703125,5.0559459765625Q9.793920703125,5.1119759765624995,9.786420703125,5.1705859765625Q9.778920703125,5.2292059765625005,9.783010703125,5.2881559765625Q9.787090703125,5.3471159765625,9.802590703125,5.4041359765625Q9.818100703125001,5.4611659765625,9.844430703125,5.514065976562501Q9.870770703125,5.5669659765625,9.906910703125,5.6137159765625Q9.943060703125,5.6604659765625005,9.987640703124999,5.6992659765625L11.941510703125,7.4000259765625L5.348270703124999,7.4000259765625Q5.289170703125,7.4000259765625,5.231210703125,7.4115559765625Q5.1732507031249995,7.4230859765625,5.118660703125,7.4456959765625Q5.064060703125,7.4683159765625,5.014930703125,7.5011459765625Q4.965790703125,7.5339759765625,4.9240007031249995,7.5757559765625Q4.882220703125,7.6175459765625,4.849390703125,7.6666859765625Q4.816550703124999,7.7158159765625,4.793940703125,7.7704159765625Q4.771330703125,7.8250059765625,4.759800703125,7.8829659765625Q4.748270703125,7.9409259765625,4.748270703125,8.000025976562501Q4.748270703125,8.059115976562499,4.759800703125,8.1170759765625Q4.771330703125,8.1750359765625,4.793940703125,8.2296359765625Q4.816550703124999,8.2842259765625,4.849390703125,8.3333659765625Q4.882220703125,8.3825059765625,4.9240007031249995,8.4242859765625Q4.965790703125,8.4660759765625,5.014930703125,8.4989059765625Q5.064060703125,8.5317359765625,5.118660703125,8.5543459765625Q5.1732507031249995,8.5769659765625,5.231210703125,8.5884959765625Q5.289170703125,8.600025976562499,5.348270703124999,8.600025976562499L11.934880703125,8.600025976562499L9.969160703124999,10.2994859765625Q9.924460703125,10.3381359765625,9.888150703125,10.3847559765625Q9.851850703124999,10.431385976562499,9.825340703125,10.4842059765625Q9.798820703125,10.5370159765625,9.783130703125,10.5939859765625Q9.767430703125001,10.6509559765625,9.763150703125,10.7098959765625Q9.758870703125,10.7688359765625,9.766170703124999,10.8274859765625Q9.773470703125,10.8861259765625,9.792060703125,10.9422159765625Q9.810660703125,10.9983059765625,9.839850703125,11.0496959765625Q9.869040703125,11.1010759765625,9.907690703124999,11.1457859765625Q9.985740703125,11.2360659765625,10.092400703125,11.2896059765625Q10.199070703124999,11.3431459765625,10.318100703125001,11.3517959765625Q10.437140703125,11.3604459765625,10.550420703124999,11.3228759765625Q10.663700703125,11.2853159765625,10.753980703125,11.2072559765625L13.711770703125,8.6500359765625Q14.005170703125,8.3912659765625,14.005170703125,8.0000359765625Q14.005170703125,7.6088059765625,13.708870703125,7.3474759765625Z" fill-rule="evenodd" fill="#333333" fill-opacity="1"/></g></g></svg>