<svg xmlns="http://www.w3.org/2000/svg" xmlns:xlink="http://www.w3.org/1999/xlink" fill="none" version="1.1" width="16" height="16" viewBox="0 0 16 16"><g><g><path d="M4.7154922500000005,1.924475625Q3.44140725,3.198560625,3.44140625,5.000390625L3.44140825,5.002050625Q3.44539425,6.801540625,4.71782625,8.073970625000001Q5.99025625,9.346400625000001,7.78974625,9.350390625Q9.59323625,9.350390625,10.86731625,8.076310625Q12.14140625,6.802220625,12.14140625,5.000390625Q12.14140625,3.198560625,10.86732625,1.924475625Q9.59323625,0.650390625,7.79140625,0.650390625Q5.98957625,0.650390625,4.7154922500000005,1.924475625ZM4.94140825,5.000390625L4.94140725,4.999740624999999Q4.94163725,3.819650625,5.77615625,2.985140625Q6.61089625,2.150390625,7.79140625,2.150390625Q8.97191625,2.150390625,9.80666625,2.985140625Q10.64140625,3.819880625,10.64140625,5.000390625Q10.64140625,6.180900625,9.80665625,7.015650625Q8.97191625,7.850390625,7.79306625,7.850390625Q6.61295625,7.847780625,5.77848625,7.013310625Q4.94460525,6.179430625,4.94140825,5.000390625Z" fill-rule="evenodd" fill="#666666" fill-opacity="1"/></g><g><path d="M13.587928125,12.35149666015625C13.586328125,12.485966660156251,13.652228125,12.61220666015625,13.763628125,12.687496660156249C14.227628125,12.84749666015625,14.275728125,13.02346666015625,14.323728125,13.07946666015625C14.363628125,13.70248666015625,14.026428125,14.28881666015625,13.467728125,14.567506660156251C13.411728125,14.58350666015625,13.227828125,14.63146666015625,12.859828125,14.311466660156249C12.743528125,14.24429666015625,12.600228125,14.24429666015625,12.483928125,14.311466660156249C12.365828125,14.375756660156249,12.289728125,14.49714666015625,12.283728125,14.63146666015625C12.379728125,15.11146666015625,12.251628125,15.24747666015625,12.203628125,15.287476660156251C11.957328125,15.470946660156251,11.654228125,15.56158666015625,11.347658125,15.543456660156249C11.041078125,15.56158666015625,10.737988125,15.470946660156251,10.491698125,15.287476660156251C10.451698125,15.24747666015625,10.315618125,15.11146666015625,10.411618125,14.63146666015625C10.405578125,14.49714666015625,10.330008125,14.375756660156249,10.211918125,14.311466660156249C10.095578125,14.24429666015625,9.952268125,14.24429666015625,9.835938125,14.311466660156249C9.510858125,14.59414666015625,9.335458124999999,14.57719666015625,9.254878125000001,14.56939666015625C9.244248125,14.56836666015625,9.234998125,14.567506660156251,9.227538124999999,14.567506660156251C8.946458125,14.44380666015625,8.717358125,14.22593666015625,8.579588125,13.95147666015625C8.398128125,13.69874666015625,8.313258125,13.389456660156249,8.339848125,13.07946666015625C8.355848125,13.02346666015625,8.403678124999999,12.84749666015625,8.867678125000001,12.687496660156249C8.979088125,12.61220666015625,9.045488125,12.485966660156251,9.043948125,12.35149666015625C9.044068124999999,12.21737666015625,8.977998125,12.09176666015625,8.867678125000001,12.01550666015625C8.403678124999999,11.86350666015625,8.339848125,11.67947666015625,8.339848125,11.62347666015625C8.299928125000001,11.00045666015625,8.637158125,10.41418666015625,9.195798125,10.13549766015625C9.198438125,10.13512166015625,9.201388125000001,10.13466566015625,9.204588125,10.13415566015625C9.269548125,10.12380566015625,9.453018125,10.09452366015625,9.803708125,10.39947666015625C9.920868125,10.46350666015625,10.062528125,10.46350666015625,10.179688125,10.39947666015625C10.297778125,10.33517666015625,10.373838125,10.21379666015625,10.379878125,10.07946766015625C10.288518125,9.62265166015625,10.406958125,9.48467066015625,10.453128125,9.43103066015625C10.455468125,9.42830766015625,10.458028125,9.42578066015625,10.459958125,9.42346166015625C10.979018125,9.08025056015625,11.652808125,9.08025056015625,12.171828125,9.42346166015625C12.251828125,9.47146166015625,12.347928125,9.59946766015625,12.251928125,10.07946766015625C12.258028125,10.21379666015625,12.333528125,10.33518666015625,12.451628125,10.39947666015625C12.568828125,10.46350666015625,12.710528125,10.46350666015625,12.827628125,10.39947666015625C13.157528125,10.11264966015625,13.339528125,10.12790966015625,13.414028125,10.13415566015625C13.422728125,10.13487766015625,13.429728125,10.13549766015625,13.435528125,10.13549766015625C13.994228125,10.41418666015625,14.331428125,11.00045666015625,14.291528125,11.62347666015625C14.275528125,11.67947666015625,14.227628125,11.86350666015625,13.763628125,12.01550666015625C13.653328125,12.09176666015625,13.587728125,12.21737666015625,13.587928125,12.35149666015625ZM2.423828125,14.68597666015625L7.911618125,14.68597666015625C7.829518125,14.58251666015625,7.757018125,14.47057666015625,7.695798125,14.35143666015625C7.472948125,14.00193666015625,7.362528125,13.59550666015625,7.374508125,13.18597666015625L3.225588125,13.18597666015625Q3.339528125,12.45397666015625,3.704588125,12.13818666015625Q4.458528125,11.485966660156251,6.823728125,11.485966660156251Q7.117888125,11.485966660156251,7.387208125,11.49603666015625C7.392868125,10.95122666015625,7.589678125,10.43372666015625,7.929688125,10.02716066015625Q7.412028125,9.98594666015625,6.823728125,9.98596166015625Q3.899568125,9.98596166015625,2.723148125,11.00372666015625Q1.673828125,11.91146666015625,1.673828125,13.93597666015625C1.673828125,14.134886660156251,1.752903025,14.32565666015625,1.893555125,14.466306660156249C2.034207125,14.60695666015625,2.224916125,14.68597666015625,2.423828125,14.68597666015625ZM10.147948125,12.35149666015625C10.147948125,12.996566660156251,10.670848125,13.519466660156251,11.315918125,13.519466660156251C11.961028125,13.519466660156251,12.483928125,12.996566660156251,12.483928125,12.35149666015625C12.483928125,11.70643666015625,11.961028125,11.18347666015625,11.315918125,11.18347666015625C10.670848125,11.18347666015625,10.147948125,11.70643666015625,10.147948125,12.35149666015625Z" fill-rule="evenodd" fill="#666666" fill-opacity="1"/></g></g></svg>