<svg xmlns="http://www.w3.org/2000/svg" xmlns:xlink="http://www.w3.org/1999/xlink" fill="none" version="1.1" width="16" height="16" viewBox="0 0 16 16"><g><g><path d="M12.4299625,2.52273125L14.9552625,6.90238125Q15.5883625,7.99897125,14.9545625,9.09680125L12.4152625,13.47558125Q11.7829625,14.57088125,10.5174425,14.57218125L5.4655825,14.57218125Q4.2008525,14.57088125,3.5682825,13.47518125L1.0429395000000001,9.09555125Q0.4098265,7.99897125,1.0436575000000001,6.90114125L3.5829225,2.52237125Q4.2152825,1.42707932,5.4807825,1.42578125L10.5326425,1.425781607628Q11.7973625,1.42707849,12.4299625,2.52273125L12.4299625,2.52273125ZM11.1306625,3.2723612500000003L11.1306625,3.2723612500000003Q10.9306625,2.92619125,10.5311025,2.92578125L5.4807825,2.92578125Q5.0818225,2.92619125,4.8819525,3.2723612500000003L2.3412625,7.65363125Q2.1418725,7.99897125,2.3419825000000003,8.34556125L4.8677325,12.72598125Q5.0673925,13.07178125,5.4671125,13.07218125L10.5174425,13.07218125Q10.9163625,13.07178125,11.1162625,12.72558125L13.6569625,8.34431125Q13.8563625,7.99897125,13.6562625,7.65238125L11.1306625,3.2723612500000003ZM7.9991925,5.084221250000001Q9.2065225,5.084221250000001,10.0602325,5.93793125Q10.9139625,6.79164125,10.9139625,7.99897125Q10.9139625,9.20630125,10.0602325,10.06002125Q9.2065225,10.91373125,7.9991925,10.91373125Q6.7918525,10.91373125,5.9381425,10.06002125Q5.0844325,9.206311249999999,5.0844325,7.99898125Q5.0844325,6.79164125,5.9381425,5.93793125Q6.7918525,5.084221250000001,7.9991925,5.084221250000001ZM7.9991925,6.58422125Q7.4131725,6.58422125,6.9988025,6.99859125Q6.5844325,7.41296125,6.5844325,7.99898125Q6.5844325,8.58499125,6.9988025,8.99936125Q7.4131725,9.41373125,7.9991925,9.41373125Q8.585202500000001,9.41373125,8.9995725,8.99936125Q9.4139425,8.58499125,9.4139425,7.99897125Q9.4139425,7.41296125,8.9995725,6.99859125Q8.585202500000001,6.58422125,7.9991925,6.58422125Z" fill-rule="evenodd" fill="#1D74F5" fill-opacity="1"/></g></g></svg>