<svg xmlns="http://www.w3.org/2000/svg" xmlns:xlink="http://www.w3.org/1999/xlink" fill="none" version="1.1" width="16" height="16" viewBox="0 0 16 16"><defs><clipPath id="master_svg0_5014_0856"><rect x="0" y="0" width="16" height="16" rx="0"/></clipPath></defs><g clip-path="url(#master_svg0_5014_0856)"><g><path d="M14.345740625,7.0334471875L12.012540625,2.9870741875L12.012340625,2.9867841875Q11.454940625,2.0212601875000002,10.340060625,2.0201171875L5.672770625,2.0201171875Q4.557270625,2.0212611875,3.999820625,2.9867841875L1.653732625,7.0324571875Q1.0950526250000001,8.000117187499999,1.653157625,8.9667871875L3.9863206250000003,13.0131171875Q4.543930625,13.9790171875,5.658820625000001,13.9801171875L10.326110625,13.9801171875Q11.441610625,13.9790171875,11.999040625,13.0134171875L14.345140625,8.967777187500001Q14.903840625,8.000117187499999,14.345740625,7.0334471875ZM10.972990625,3.5864931875L10.973160625,3.5867841875L13.306540625,7.6334471875Q13.518140625,8.000117187499999,13.307040625,8.3657871875L10.959820625,12.4134471875Q10.748380625,12.7797171875,10.326110625,12.7801171875L5.660060625,12.7801171875Q5.237170625,12.7797171875,5.025890625000001,12.4137371875L2.692388625,8.3667871875Q2.480693625,8.000117187499999,2.691814625,7.6344471875L5.039060624999999,3.5867831875Q5.250500625,3.2205511875,5.672770625,3.2201171875L10.338830625,3.2201171875Q10.761550625,3.2205501874999998,10.972990625,3.5864931875ZM9.837990625,6.1616471875Q9.076470624999999,5.400117187499999,7.999510625,5.400117187499999Q6.922560625,5.400117187499999,6.161030625,6.1616471875Q5.399510625,6.9231671875,5.399510625,8.0001271875Q5.399510625,9.077077187499999,6.161030625,9.8385971875Q6.922560625,10.6001271875,7.999510625,10.6001171875Q9.076470624999999,10.6001171875,9.837990625,9.8385971875Q10.599510625,9.077077187499999,10.599510625,8.000117187499999Q10.599510625,6.9231671875,9.837990625,6.1616471875ZM7.009560625,7.0101771875Q7.419610625,6.6001171875,7.999510625,6.6001171875Q8.579410625000001,6.6001171875,8.989460625,7.0101771875Q9.399510625,7.4202271875,9.399510625,8.000117187499999Q9.399510625,8.580017187500001,8.989460625,8.9900671875Q8.579410625000001,9.400117187500001,7.999510625,9.400117187500001Q7.419610625,9.400117187500001,7.009560625,8.9900671875Q6.599510625,8.580017187500001,6.599510625,8.0001271875Q6.599510625,7.4202271875,7.009560625,7.0101771875Z" fill-rule="evenodd" fill="#333333" fill-opacity="1"/></g></g></svg>