<svg xmlns="http://www.w3.org/2000/svg" xmlns:xlink="http://www.w3.org/1999/xlink" fill="none" version="1.1" width="18" height="18" viewBox="0 0 18 18"><defs><clipPath id="master_svg0_11093_20205/10996_17034"><rect x="0" y="0" width="18" height="18" rx="0"/></clipPath></defs><g clip-path="url(#master_svg0_11093_20205/10996_17034)"><g><path d="M16.125,9C16.125,12.935,12.935,16.125,9,16.125C5.064970000000001,16.125,1.875,12.935,1.875,9C1.875,5.064970000000001,5.064970000000001,1.875,9,1.875C12.935,1.875,16.125,5.064970000000001,16.125,9ZM9,7.93939L7.43038,6.36977C7.28964,6.22903,7.09888,6.15001,6.89996,6.15001C6.48575,6.15001,6.14996,6.4858,6.14996,6.90001C6.14996,7.09892,6.22898,7.28969,6.36963,7.43034L7.93934,9.00005L6.36971,10.56968C6.22905,10.71033,6.15004,10.9011,6.15004,11.10001C6.15004,11.51422,6.48582,11.85001,6.90004,11.85001C7.09895,11.85001,7.28971,11.77099,7.43037,11.63034L9,10.06071L10.56963,11.63034C10.71029,11.77099,10.90105,11.85001,11.09996,11.85001C11.51418,11.85001,11.84996,11.51422,11.84996,11.10001C11.84996,10.9011,11.77095,10.71033,11.63029,10.56968L10.06066,9.00004L11.63037,7.43034C11.77102,7.28969,11.85004,7.09892,11.85004,6.90001C11.85004,6.4858,11.51425,6.15001,11.10004,6.15001C10.90112,6.15001,10.71036,6.22903,10.56962,6.36977L9,7.93939Z" fill-rule="evenodd" fill="#999999" fill-opacity="1"/></g></g></svg>