<svg xmlns="http://www.w3.org/2000/svg" xmlns:xlink="http://www.w3.org/1999/xlink" fill="none" version="1.1" width="20" height="20" viewBox="0 0 20 20"><defs><clipPath id="master_svg0_7052_02813"><rect x="0" y="0" width="20" height="20" rx="0"/></clipPath></defs><g clip-path="url(#master_svg0_7052_02813)"><g transform="matrix(1,0,0,-1,0,36.666748046875)"><path d="M9.99983390625,35.0000740234375Q10.20441390625,35.0000740234375,10.40873390625,34.9899740234375Q10.61306390625,34.9799740234375,10.81664390625,34.9598740234375Q11.02023390625,34.9398740234375,11.22259390625,34.909874023437496Q11.42494390625,34.8798740234375,11.62559390625,34.8398740234375Q11.82620390625,34.7999740234375,12.02470390625,34.7502740234375Q12.22310390625,34.7005740234375,12.41890390625,34.6411740234375Q12.61460390625,34.5818740234375,12.80720390625,34.512874023437504Q12.99990390625,34.443974023437505,13.18890390625,34.3656740234375Q13.37790390625,34.2873740234375,13.56280390625,34.1999740234375Q13.74770390625,34.1124740234375,13.92810390625,34.0160740234375Q14.10860390625,33.9195740234375,14.28400390625,33.8144740234375Q14.45950390625,33.7092740234375,14.62960390625,33.5955740234375Q14.79970390625,33.4819740234375,14.96400390625,33.3600740234375Q15.12830390625,33.2382740234375,15.28640390625,33.1084740234375Q15.44460390625,32.9786740234375,15.59620390625,32.8412740234375Q15.74770390625,32.7038740234375,15.89240390625,32.559274023437496Q16.03700390625,32.4145740234375,16.17440390625,32.2630740234375Q16.31180390625,32.1114740234375,16.441603906250002,31.9532740234375Q16.571403906249998,31.7951740234375,16.693203906249998,31.6308740234375Q16.815103906250002,31.466574023437502,16.92870390625,31.2964740234375Q17.04240390625,31.1263740234375,17.147603906249998,30.9508740234375Q17.252703906249998,30.7754740234375,17.34920390625,30.5949740234375Q17.44560390625,30.414574023437503,17.53310390625,30.2296740234375Q17.62050390625,30.044774023437498,17.69880390625,29.855774023437498Q17.77710390625,29.666774023437497,17.84600390625,29.474074023437502Q17.91500390625,29.2814740234375,17.97430390625,29.0857740234375Q18.03370390625,28.8899740234375,18.08340390625,28.6915740234375Q18.13310390625,28.4930740234375,18.17300390625,28.2924640234375Q18.21300390625,28.0918140234375,18.24300390625,27.889464023437498Q18.27300390625,27.6871040234375,18.29300390625,27.4835140234375Q18.31310390625,27.279934023437498,18.32310390625,27.0756040234375Q18.33320390625,26.8712840234375,18.33320390625,26.6667040234375Q18.33320390625,26.4621340234375,18.32310390625,26.2578140234375Q18.31310390625,26.0534840234375,18.29300390625,25.8498940234375Q18.27300390625,25.6463140234375,18.24300390625,25.4439540234375Q18.21300390625,25.2415940234375,18.17300390625,25.0409540234375Q18.13310390625,24.8403140234375,18.08340390625,24.641874023437502Q18.03370390625,24.4434340234375,17.97430390625,24.2476640234375Q17.91500390625,24.0519040234375,17.84600390625,23.8592940234375Q17.77710390625,23.6666740234375,17.69880390625,23.4776740234375Q17.62050390625,23.2886740234375,17.53310390625,23.1037440234375Q17.44560390625,22.9188140234375,17.34920390625,22.7384040234375Q17.252703906249998,22.5579840234375,17.147603906249998,22.3825140234375Q17.04240390625,22.2070540234375,16.92870390625,22.0369540234375Q16.815103906250002,21.8668640234375,16.693203906249998,21.7025440234375Q16.571403906249998,21.5382340234375,16.441603906250002,21.3800940234375Q16.31180390625,21.2219640234375,16.17440390625,21.0703840234375Q16.03700390625,20.9188040234375,15.89240390625,20.7741540234375Q15.74770390625,20.629494023437502,15.59620390625,20.4921140234375Q15.44460390625,20.3547340234375,15.28640390625,20.2249540234375Q15.12830390625,20.0951740234375,14.96400390625,19.9733140234375Q14.79970390625,19.8514440234375,14.62960390625,19.737794023437502Q14.45950390625,19.6241440234375,14.28400390625,19.5189640234375Q14.10860390625,19.4137940234375,13.92810390625,19.3173630234375Q13.74770390625,19.2209290234375,13.56280390625,19.1334630234375Q13.37790390625,19.0459970234375,13.18890390625,18.9677110234375Q12.99990390625,18.8894250234375,12.80720390625,18.8205070234375Q12.61460390625,18.7515890234375,12.41890390625,18.6922050234375Q12.22310390625,18.6328200234375,12.02470390625,18.5831140234375Q11.82620390625,18.5334070234375,11.62559390625,18.4934970234375Q11.42494390625,18.4535870234375,11.22259390625,18.4235697234375Q11.02023390625,18.3935528234375,10.81664390625,18.3735013234375Q10.61306390625,18.3534497234375,10.40873390625,18.3434119234375Q10.20441390625,18.3333740234375,9.99983390625,18.3333740234375Q9.79526390625,18.3333740234375,9.59094390625,18.3434119234375Q9.38661390625,18.3534497234375,9.18302390625,18.3735013234375Q8.979443906250001,18.3935528234375,8.777083906249999,18.4235697234375Q8.57472390625,18.4535870234375,8.37408390625,18.4934970234375Q8.17344390625,18.5334070234375,7.97500390625,18.5831140234375Q7.77656390625,18.6328200234375,7.58079390625,18.6922050234375Q7.38503390625,18.7515890234375,7.19242390625,18.8205070234375Q6.99980390625,18.8894250234375,6.81080390625,18.9677110234375Q6.62180390625,19.0459970234375,6.43687390625,19.1334630234375Q6.25194390625,19.2209290234375,6.07153390625,19.3173630234375Q5.89111390625,19.4137940234375,5.71564390625,19.5189640234375Q5.54018390625,19.6241440234375,5.3700839062500005,19.737794023437502Q5.1999939062500005,19.8514440234375,5.03567390625,19.9733140234375Q4.87136390625,20.0951740234375,4.7132239062500005,20.2249540234375Q4.555093906250001,20.3547340234375,4.40351390625,20.4921140234375Q4.251933906250001,20.629494023437502,4.10728390625,20.7741540234375Q3.96262390625,20.9188040234375,3.82524390625,21.0703840234375Q3.68786390625,21.2219640234375,3.5580839062500003,21.3800940234375Q3.42830390625,21.5382340234375,3.30644390625,21.7025440234375Q3.18457390625,21.8668640234375,3.07092390625,22.0369540234375Q2.95727390625,22.2070540234375,2.85209390625,22.3825140234375Q2.74692390625,22.5579840234375,2.6504929062500002,22.7384040234375Q2.55405890625,22.9188140234375,2.46659290625,23.1037440234375Q2.37912690625,23.2886740234375,2.30084090625,23.4776740234375Q2.22255490625,23.6666740234375,2.15363690625,23.8592940234375Q2.08471890625,24.0519040234375,2.02533490625,24.2476640234375Q1.96594990625,24.4434340234375,1.91624390625,24.641874023437502Q1.86653690625,24.8403140234375,1.82662690625,25.0409540234375Q1.78671690625,25.2415940234375,1.75669960625,25.4439540234375Q1.72668270625,25.6463140234375,1.70663120625,25.8498940234375Q1.68657960625,26.0534840234375,1.67654180625,26.2578140234375Q1.66650390625,26.4621340234375,1.66650390625,26.6667040234375Q1.66650390625,26.8712840234375,1.67654180625,27.0756040234375Q1.68657960625,27.279934023437498,1.70663120625,27.4835140234375Q1.72668270625,27.6871040234375,1.75669960625,27.889464023437498Q1.78671690625,28.0918140234375,1.82662690625,28.2924640234375Q1.86653690625,28.4930740234375,1.91624390625,28.6915740234375Q1.96594990625,28.8899740234375,2.02533490625,29.0857740234375Q2.08471890625,29.2814740234375,2.15363690625,29.474074023437502Q2.22255490625,29.666774023437497,2.30084090625,29.855774023437498Q2.37912690625,30.044774023437498,2.46659290625,30.2296740234375Q2.55405890625,30.414574023437503,2.6504929062500002,30.5949740234375Q2.74692390625,30.7754740234375,2.85209390625,30.9508740234375Q2.95727390625,31.1263740234375,3.07092390625,31.2964740234375Q3.18457390625,31.466574023437502,3.30644390625,31.6308740234375Q3.42830390625,31.7951740234375,3.5580839062500003,31.9532740234375Q3.68786390625,32.1114740234375,3.82524390625,32.2630740234375Q3.96262390625,32.4145740234375,4.10728390625,32.559274023437496Q4.251933906250001,32.7038740234375,4.40351390625,32.8412740234375Q4.555093906250001,32.9786740234375,4.7132239062500005,33.1084740234375Q4.87136390625,33.2382740234375,5.03567390625,33.3600740234375Q5.1999939062500005,33.4819740234375,5.3700839062500005,33.5955740234375Q5.54018390625,33.7092740234375,5.71564390625,33.8144740234375Q5.89111390625,33.9195740234375,6.07153390625,34.0160740234375Q6.25194390625,34.1124740234375,6.43687390625,34.1999740234375Q6.62180390625,34.2873740234375,6.81080390625,34.3656740234375Q6.99980390625,34.443974023437505,7.19242390625,34.512874023437504Q7.38503390625,34.5818740234375,7.58079390625,34.6411740234375Q7.77656390625,34.7005740234375,7.97500390625,34.7502740234375Q8.17344390625,34.7999740234375,8.37408390625,34.8398740234375Q8.57472390625,34.8798740234375,8.777083906249999,34.909874023437496Q8.979443906250001,34.9398740234375,9.18302390625,34.9598740234375Q9.38661390625,34.9799740234375,9.59094390625,34.9899740234375Q9.79526390625,35.0000740234375,9.99983390625,35.0000740234375ZM10.82804390625,22.4167040234375L10.74462390625,27.273454023437502C10.74463390625,27.6876640234375,10.40872390625,28.0234940234375,9.99450390625,28.0234940234375C9.580293906249999,28.0234940234375,9.24499390625,27.6876640234375,9.24499390625,27.273454023437502L9.161373906249999,22.4167040234375C9.161373906249999,21.9564740234375,9.53447390625,21.5833740234375,9.99471390625,21.5833740234375C10.45494390625,21.5833740234375,10.82804390625,21.9564740234375,10.82804390625,22.4167040234375ZM9.99462390625,31.4114740234375C10.61595390625,31.4114740234375,11.11962390625,30.9077740234375,11.11962390625,30.2864740234375C11.11962390625,29.6651740234375,10.61595390625,29.1614740234375,9.99462390625,29.1614740234375C9.373303906250001,29.1614740234375,8.86962390625,29.6651740234375,8.86962390625,30.2864740234375C8.86962390625,30.9077740234375,9.373303906250001,31.4114740234375,9.99462390625,31.4114740234375Z" fill-rule="evenodd" fill="#FD4C4C" fill-opacity="1"/></g></g></svg>
