<svg xmlns="http://www.w3.org/2000/svg" xmlns:xlink="http://www.w3.org/1999/xlink" fill="none" version="1.1" width="20" height="20" viewBox="0 0 20 20"><defs><clipPath id="master_svg0_735_16107"><rect x="0" y="0" width="20" height="20" rx="4"/></clipPath></defs><g clip-path="url(#master_svg0_735_16107)"><g><g><path d="M6.875,5.5L11.43125,5.5Q11.48049,5.5,11.52879,5.490393Q11.57709,5.480785,11.622589999999999,5.46194Q11.66809,5.443094,11.70903,5.415735Q11.74998,5.388375,11.7848,5.353553Q11.81962,5.318731,11.84698,5.277785Q11.87434,5.236839,11.89319,5.191342Q11.91203,5.145845,11.92164,5.0975451Q11.93125,5.0492457,11.93125,5Q11.93125,4.9507543,11.92164,4.9024549Q11.91203,4.854155,11.89319,4.808658Q11.87434,4.763161,11.84698,4.722215Q11.81962,4.681269,11.7848,4.646447Q11.74998,4.611625,11.70903,4.584265Q11.66809,4.556906,11.622589999999999,4.53806Q11.57709,4.519215,11.52879,4.509607Q11.48049,4.5,11.43125,4.5L6.875,4.5Q5.891243,4.5,5.195621,5.195621Q4.5,5.891243,4.5,6.875L4.5,13.125Q4.5,14.10876,5.195621,14.80438Q5.891242,15.5,6.875,15.5L13.125,15.5Q14.10876,15.5,14.80438,14.80438Q15.5,14.10876,15.5,13.125L15.5,8.56875Q15.5,8.5195,15.4904,8.4712Q15.4808,8.4229,15.4619,8.37741Q15.4431,8.33191,15.4157,8.29096Q15.3884,8.25002,15.3536,8.2152Q15.3187,8.18037,15.2778,8.15301Q15.2368,8.12566,15.1913,8.10681Q15.1458,8.087959999999999,15.0975,8.07836Q15.0492,8.06875,15,8.06875Q14.95075,8.06875,14.90245,8.07836Q14.85415,8.087959999999999,14.80866,8.10681Q14.76316,8.12566,14.72221,8.15301Q14.68127,8.18037,14.64645,8.2152Q14.61162,8.25002,14.58426,8.29096Q14.5569,8.33191,14.53806,8.37741Q14.51921,8.4229,14.50961,8.4712Q14.5,8.5195,14.5,8.56875L14.5,13.125Q14.5,13.69454,14.09727,14.09727Q13.69454,14.5,13.125,14.5L6.875,14.5Q6.30546,14.5,5.902728,14.09727Q5.5,13.69454,5.5,13.125L5.5,6.875Q5.5,6.30546,5.902728,5.902728Q6.30546,5.5,6.875,5.5Z" fill-rule="evenodd" fill="#333333" fill-opacity="1"/></g><g><path d="M8.7877285,10.4185L14.0564775,5.0872469C14.3020975,4.9417855,14.615057499999999,4.9812233,14.8168975,5.183072C15.0187575,5.384921,15.058187499999999,5.697881,14.912727499999999,5.943497L9.5814785,11.212250000000001C9.3586245,11.40737,9.0226385,11.39623,8.8131915,11.18679C8.6037448,10.97734,8.5926094,10.64135,8.7877285,10.4185Z" fill="#333333" fill-opacity="1"/></g></g></g></svg>