<svg xmlns="http://www.w3.org/2000/svg" xmlns:xlink="http://www.w3.org/1999/xlink" fill="none" version="1.1" width="35" height="40" viewBox="0 0 35 40"><defs><clipPath id="master_svg0_109_6618"><rect x="7" y="14" width="21" height="21" rx="0"/></clipPath></defs><g><g><path d="M0,2.5L0,37.5C0,38.8807,1.11929,40,2.5,40L32.5,40C33.8807,40,35,38.8807,35,37.5L35,12L29,6L23,0L2.5,0C1.11929,0,0,1.11929,0,2.5Z" fill="#B3B4B4" fill-opacity="1"/></g><g><path d="M23,9.5C23,10.8807,24.11929,12,25.5,12L35,12L23,0L23,9.5Z" fill="#FFFFFF" fill-opacity="0.25"/></g><g clip-path="url(#master_svg0_109_6618)"><g><path d="M19.1014159375,28.92311826171875L21.542635937500002,27.22991826171875L21.306435937499998,27.78121826171875L21.306435937499998,17.28121026171875L22.1989359375,18.05558826171875L13.0114159375,19.36808826171875L13.6939159375,18.59370826171875L13.6939159375,29.09371826171875C13.685675937500001,29.30031826171875,13.601555937499999,29.496518261718748,13.4576659375,29.64491826171875L11.7645359375,32.08621826171875C11.3441159375,32.67701826171875,10.5243759375,32.81511826171875,9.9335999375,32.39461826171875C9.3428278375,31.97421826171875,9.2047359375,31.15451826171875,9.6251619375,30.563718261718748C10.5145159375,29.83891826171875,11.4434459375,29.164118261718748,12.4076659375,28.54241826171875L12.1714159375,29.09371826171875L12.1714159375,18.59370826171875C12.1686259375,18.19948826171875,12.4624659375,17.86609826171875,12.8539159375,17.819338261718748L22.041435937499998,16.50683536171875C22.4701359375,16.44467806171875,22.8665359375,16.74637526171875,22.9208359375,17.17621026171875C22.986435937499998,17.30746026171875,22.9208359375,27.676218261718752,22.9208359375,27.78121826171875C22.919135937500002,27.92701826171875,22.873335937500002,28.06881826171875,22.7895359375,28.18811826171875L22.6845359375,28.33241826171875L20.9914359375,30.77371826171875C20.493935937499998,31.35461826171875,19.6072359375,31.38881826171875,19.0664359375,30.84801826171875C18.525655937499998,30.30731826171875,18.559905937499998,29.420518261718748,19.1407859375,28.92311826171875L19.1014159375,28.92311826171875Z" fill="#E7E8E8" fill-opacity="1"/></g></g></g></svg>