<svg xmlns="http://www.w3.org/2000/svg" xmlns:xlink="http://www.w3.org/1999/xlink" fill="none" version="1.1" width="16" height="16" viewBox="0 0 16 16"><g><g><path d="M15.0399609375,8.0000927734375C15.0399609375,8.707022773437501,14.4668609375,9.2800927734375,13.7599609375,9.2800927734375C13.0530609375,9.2800927734375,12.4799609375,8.707022773437501,12.4799609375,8.0000927734375C12.4799609375,7.2931687734375,13.0530609375,6.7200927734375,13.7599609375,6.7200927734375C14.4668609375,6.7200927734375,15.0399609375,7.2931687734375,15.0399609375,8.0000927734375ZM3.5199609375,8.0000927734375C3.5199609375,8.707022773437501,2.9468809375,9.2800927734375,2.2399609375000002,9.2800927734375C1.5330369375,9.2800927734375,0.9599609375,8.707022773437501,0.9599609375,8.0000927734375C0.9599609375,7.2931687734375,1.5330369375,6.7200927734375,2.2399609375000002,6.7200927734375C2.9468809375,6.7200927734375,3.5199609375,7.2931687734375,3.5199609375,8.0000927734375ZM9.2800209375,8.0000927734375C9.2800209375,8.707022773437501,8.7069409375,9.2800927734375,8.0000209375,9.2800927734375C7.2930909375,9.2800927734375,6.7200209375,8.707022773437501,6.7200209375,8.0000927734375C6.7200209375,7.2931687734375,7.2930909375,6.7200927734375,8.0000209375,6.7200927734375C8.7069409375,6.7200927734375,9.2800209375,7.2931687734375,9.2800209375,8.0000927734375Z" fill="#333333" fill-opacity="1"/></g></g></svg>