<svg xmlns="http://www.w3.org/2000/svg" xmlns:xlink="http://www.w3.org/1999/xlink" fill="none" version="1.1" width="24" height="24" viewBox="0 0 24 24"><defs><clipPath id="master_svg0_38_611"><rect x="0" y="0" width="24" height="24" rx="0"/></clipPath></defs><g clip-path="url(#master_svg0_38_611)"><g><path d="M15.70711,6.707107Q15.847760000000001,6.566455,15.92388,6.382683Q16,6.198912,16,6Q16,5.9015086,15.98078,5.80491Q15.96157,5.708311,15.92388,5.617317Q15.88619,5.526322,15.83147,5.44443Q15.77675,5.362537,15.70711,5.292893Q15.63746,5.223249,15.55557,5.16853Q15.47368,5.113812,15.38268,5.076121Q15.29169,5.03843,15.19509,5.019215Q15.09849,5,15,5Q14.80109,5,14.61732,5.0761199999999995Q14.43355,5.152241,14.29289,5.292893L14.29252,5.293268L8.292893,11.29289Q8.152241,11.43355,8.07612,11.61732Q8,11.80109,8,12Q8,12.19891,8.07612,12.38268Q8.152241,12.56645,8.292893,12.70711L14.291920000000001,18.7061L14.29289,18.7071Q14.43355,18.8478,14.61732,18.9239Q14.80109,19,15,19Q15.09849,19,15.19509,18.980800000000002Q15.29169,18.9616,15.38268,18.9239Q15.47368,18.886200000000002,15.55557,18.8315Q15.63746,18.776699999999998,15.70711,18.7071Q15.77675,18.6375,15.83147,18.5556Q15.88619,18.4737,15.92388,18.3827Q15.96157,18.2917,15.98078,18.1951Q16,18.0985,16,18Q16,17.801099999999998,15.92388,17.6173Q15.847760000000001,17.433500000000002,15.70711,17.2929L10.41421,12L15.70673,6.707482L15.70711,6.707107L15.70711,6.707107Z" fill-rule="evenodd" fill="#333333" fill-opacity="1"/></g></g></svg>