<svg xmlns="http://www.w3.org/2000/svg" xmlns:xlink="http://www.w3.org/1999/xlink" fill="none" version="1.1" width="24" height="24" viewBox="0 0 24 24"><defs><clipPath id="master_svg0_27_964"><rect x="0" y="0" width="24" height="24" rx="0"/></clipPath></defs><g clip-path="url(#master_svg0_27_964)"><g><path d="M4,5L20,5Q20.0985,5,20.1951,5.019215Q20.2917,5.03843,20.3827,5.076121Q20.4737,5.113812,20.5556,5.16853Q20.6375,5.223249,20.7071,5.292893Q20.7767,5.362537,20.8315,5.44443Q20.8862,5.526322,20.9239,5.617317Q20.9616,5.708311,20.9808,5.80491Q21,5.9015086,21,6Q21,6.0984914,20.9808,6.19509Q20.9616,6.291689,20.9239,6.382683Q20.8862,6.473678,20.8315,6.55557Q20.7767,6.637463,20.7071,6.707107Q20.6375,6.776751,20.5556,6.83147Q20.4737,6.886188,20.3827,6.923879Q20.2917,6.96157,20.1951,6.980785Q20.0985,7,20,7L4,7Q3.9015086,7,3.80491,6.980785Q3.708311,6.96157,3.617317,6.923879Q3.526322,6.886188,3.44443,6.83147Q3.362537,6.776751,3.292893,6.707107Q3.223249,6.637463,3.16853,6.55557Q3.1138120000000002,6.473678,3.076121,6.382683Q3.03843,6.291689,3.019215,6.19509Q3,6.0984914,3,6Q3,5.9015086,3.019215,5.80491Q3.03843,5.708311,3.076121,5.617317Q3.1138120000000002,5.526322,3.16853,5.44443Q3.223249,5.362537,3.292893,5.292893Q3.362537,5.223249,3.44443,5.16853Q3.526322,5.113812,3.617317,5.076121Q3.708311,5.03843,3.80491,5.019215Q3.9015086,5,4,5ZM4,11L20,11Q20.0985,11,20.1951,11.019210000000001Q20.2917,11.03843,20.3827,11.07612Q20.4737,11.11381,20.5556,11.16853Q20.6375,11.22325,20.7071,11.29289Q20.7767,11.36254,20.8315,11.44443Q20.8862,11.52632,20.9239,11.61732Q20.9616,11.70831,20.9808,11.80491Q21,11.90151,21,12Q21,12.09849,20.9808,12.19509Q20.9616,12.29169,20.9239,12.38268Q20.8862,12.47368,20.8315,12.55557Q20.7767,12.63746,20.7071,12.70711Q20.6375,12.77675,20.5556,12.83147Q20.4737,12.88619,20.3827,12.92388Q20.2917,12.96157,20.1951,12.98078Q20.0985,13,20,13L4,13Q3.9015086,13,3.80491,12.98078Q3.708311,12.96157,3.617317,12.92388Q3.526322,12.88619,3.44443,12.83147Q3.362537,12.77675,3.292893,12.70711Q3.223249,12.63746,3.16853,12.55557Q3.1138120000000002,12.47368,3.076121,12.38268Q3.03843,12.29169,3.019215,12.19509Q3,12.09849,3,12Q3,11.90151,3.019215,11.80491Q3.03843,11.70831,3.076121,11.61732Q3.1138120000000002,11.52632,3.16853,11.44443Q3.223249,11.36254,3.292893,11.29289Q3.362537,11.22325,3.44443,11.16853Q3.526322,11.11381,3.617317,11.07612Q3.708311,11.03843,3.80491,11.019210000000001Q3.9015086,11,4,11ZM4,17L20,17Q20.0985,17,20.1951,17.019199999999998Q20.2917,17.0384,20.3827,17.0761Q20.4737,17.113799999999998,20.5556,17.1685Q20.6375,17.2232,20.7071,17.2929Q20.7767,17.3625,20.8315,17.4444Q20.8862,17.5263,20.9239,17.6173Q20.9616,17.7083,20.9808,17.8049Q21,17.9015,21,18Q21,18.0985,20.9808,18.1951Q20.9616,18.2917,20.9239,18.3827Q20.8862,18.4737,20.8315,18.5556Q20.7767,18.6375,20.7071,18.7071Q20.6375,18.776699999999998,20.5556,18.8315Q20.4737,18.886200000000002,20.3827,18.9239Q20.2917,18.9616,20.1951,18.980800000000002Q20.0985,19,20,19L4,19Q3.9015086,19,3.80491,18.980800000000002Q3.708311,18.9616,3.617317,18.9239Q3.526322,18.886200000000002,3.44443,18.8315Q3.362537,18.776699999999998,3.292893,18.7071Q3.223249,18.6375,3.16853,18.5556Q3.1138120000000002,18.4737,3.076121,18.3827Q3.03843,18.2917,3.019215,18.1951Q3,18.0985,3,18Q3,17.9015,3.019215,17.8049Q3.03843,17.7083,3.076121,17.6173Q3.1138120000000002,17.5263,3.16853,17.4444Q3.223249,17.3625,3.292893,17.2929Q3.362537,17.2232,3.44443,17.1685Q3.526322,17.113799999999998,3.617317,17.0761Q3.708311,17.0384,3.80491,17.019199999999998Q3.9015086,17,4,17Z" fill-rule="evenodd" fill="#333333" fill-opacity="1"/></g></g></svg>