<svg xmlns="http://www.w3.org/2000/svg" xmlns:xlink="http://www.w3.org/1999/xlink" fill="none" version="1.1" width="72" height="72" viewBox="0 0 72 72"><defs><filter id="master_svg0_948_0877" filterUnits="objectBoundingBox" color-interpolation-filters="sRGB" x="0" y="0" width="28.600740432739258" height="28.598861694335938"><feFlood flood-opacity="0" result="BackgroundImageFix"/><feBlend mode="normal" in="SourceGraphic" in2="BackgroundImageFix" result="shape"/><feGaussianBlur in="BackgroundImage" stdDeviation="2"/><feComposite in2="SourceAlpha" operator="in" result="effect1_foregroundBlur"/><feBlend mode="normal" in="SourceGraphic" in2="effect1_foregroundBlur" result="shape"/></filter><linearGradient x1="0.5" y1="0" x2="0.5" y2="1" id="master_svg1_882_0892"><stop offset="0%" stop-color="#2CA6FF" stop-opacity="1"/><stop offset="100%" stop-color="#1D74F5" stop-opacity="1"/></linearGradient></defs><g><g><path d="M63,69L9,69L9,30C9,15.0883,21.0883,3,36,3C50.9117,3,63,15.0883,63,30L63,69Z" fill="#F0F0F0" fill-opacity="1"/></g><g><path d="M36.30116630249023,39.3005147277832L21.999874302490234,39.300414727783206L21.999874302490234,37.700414727783205L36.30116630249023,37.700414727783205L36.30116630249023,39.3005147277832ZM34.99986630249023,50.300414727783206L21.999874302490234,50.300414727783206L21.999874302490234,48.700414727783205L34.99986630249023,48.700414727783205L34.99986630249023,50.300414727783206ZM51.565666302490236,20.565684727783204Q46.54686630249023,25.584534727783204,42.52676630249023,29.1020647277832Q40.786566302490236,30.624714727783203,38.89106630249023,28.9988447277832Q37.97986630249024,28.217354727783203,36.301066302490234,25.666594727783203Q34.688266302490234,23.216024727783203,33.870466302490236,22.4951747277832Q33.317766302490234,22.007984727783203,32.863566302490234,21.925774727783203Q32.42316630249023,21.846054727783205,31.943766302490232,22.165644727783203Q25.983956302490235,26.1388447277832,22.520636302490235,29.107404727783205L21.479366302490234,27.892594727783205Q25.016026302490236,24.861164727783205,31.056246302490234,20.834364727783203Q32.963566302490236,19.562828727783202,34.928466302490236,21.294924727783204Q35.90696630249023,22.157444727783204,37.637566302490235,24.786964727783204Q39.192566302490235,27.149554727783205,39.93266630249023,27.7843947277832Q40.397366302490234,28.182994727783203,40.74446630249024,28.213994727783202Q41.07796630249024,28.2437847277832,41.473166302490235,27.897934727783202Q45.45316630249023,24.415494727783205,50.43426630249023,19.434314727783203L51.565666302490236,20.565684727783204Z" fill-rule="evenodd" fill="#FFFFFF" fill-opacity="1"/></g><g filter="url(#master_svg0_948_0877)"><path d="M53.7487,51.9989C55.1656,50.028800000000004,56,47.6119,56,45C56,38.37258,50.6274,33,44,33C37.37258,33,32,38.37258,32,45C32,51.6274,37.37258,57,44,57C46.6128,57,49.0306,56.1649,51.0011,54.7471L57.2836,61.0297C58.042500000000004,61.7886,59.272800000000004,61.7886,60.0316,61.0297C60.790400000000005,60.2709,60.790400000000005,59.0406,60.0316,58.281800000000004L53.7487,51.9989ZM52.3681,41.68715Q53,43.2833,53,45Q53,46.7167,52.3681,48.3129Q51.682,50.0459,50.364000000000004,51.364000000000004Q49.0459,52.682,47.3129,53.3681Q45.7167,54,44,54Q42.2833,54,40.68715,53.3681Q38.95406,52.682,37.63604,51.364000000000004Q36.31802,50.0459,35.63191,48.3129Q35,46.7167,35,45Q35,43.2833,35.63191,41.68715Q36.31802,39.95406,37.63604,38.63604Q38.95406,37.31802,40.68715,36.63191Q42.2833,36,44,36Q45.7167,36,47.3129,36.63191Q49.0459,37.31802,50.364000000000004,38.63604Q51.682,39.95406,52.3681,41.68715Z" fill-rule="evenodd" fill="url(#master_svg1_882_0892)" fill-opacity="1"/></g></g></svg>