<svg xmlns="http://www.w3.org/2000/svg" xmlns:xlink="http://www.w3.org/1999/xlink" fill="none" version="1.1" width="16" height="16" viewBox="0 0 16 16"><defs><clipPath id="master_svg0_6709_6894"><rect x="0" y="0" width="16" height="16" rx="0"/></clipPath></defs><g clip-path="url(#master_svg0_6709_6894)"><g><path d="M7.993125,14.6659375C11.674125,14.6659375,14.658125,11.6819375,14.658125,8.0009375C14.658125,4.3199575,11.674125,1.3359375,7.993125,1.3359375C4.312145,1.3359375,1.328125,4.3199575,1.328125,8.0009375C1.328125,11.6819375,4.312145,14.6659375,7.993125,14.6659375ZM10.506255,7.3984375L5.506245,7.3984375C5.174875,7.3984375,4.906245,7.6670675,4.906245,7.9984375C4.906245,8.329807500000001,5.174875,8.5984375,5.506245,8.5984375L10.506255,8.5984375C10.837625,8.5984375,11.106245,8.329807500000001,11.106245,7.9984375C11.106245,7.6670675,10.837625,7.3984375,10.506255,7.3984375Z" fill-rule="evenodd" fill="#666666" fill-opacity="1"/></g></g></svg>