<svg xmlns="http://www.w3.org/2000/svg" xmlns:xlink="http://www.w3.org/1999/xlink" fill="none" version="1.1" width="16" height="16" viewBox="0 0 16 16"><g><g><path d="M4.5,13.30157220703125L10.69375,13.30157220703125C11.68786,13.30157220703125,12.49375,12.49569220703125,12.49375,11.50157220703125L12.49375,3.7000122070312504L13.8999,3.70001220703125L13.89997,11.699982207031251C13.89999,13.35685220703125,12.55684,14.70001220703125,10.89997,14.70001220703125L4.5,14.70001220703125L4.5,13.30157220703125Z" fill-rule="evenodd" fill="#666666" fill-opacity="1"/></g><g><path d="M10.49366,1.30078125L3.09375,1.30078125C2.541465,1.30078125,2.09375,1.74849625,2.09375,2.30078125L2.09375,11.30078125C2.09375,11.85308125,2.541465,12.30078125,3.09375,12.30078125L10.49374,12.30078125C11.04603,12.30078125,11.49375,11.85308125,11.49374,11.30077125L11.49366,2.30077225C11.49366,1.74849125,11.04594,1.30078125,10.49366,1.30078125" fill="#666666" fill-opacity="1"/></g></g></svg>