<svg xmlns="http://www.w3.org/2000/svg" xmlns:xlink="http://www.w3.org/1999/xlink" fill="none" version="1.1" width="14" height="14" viewBox="0 0 14 14"><g><g><path d="M11.21364375,5.880180625L10.54714375,5.880180625C10.44456375,5.880180625,10.38601375,5.997270625,10.44756375,6.079330625L11.87894375,7.987870625C11.92874375,8.054250625,12.02834375,8.054250625,12.07814375,7.987870625L13.50954375,6.079330625C13.57104375,5.997270625,13.51254375,5.880180625,13.40994375,5.880180625L12.49214375,5.880180625Q12.24564375,4.642840625,11.44084375,3.595800625Q10.28395375,2.090679625,8.45034375,1.599096625Q6.61674375,1.107513625,4.86209375,1.832069625Q3.10745375,2.556630625,2.15491375,4.198710625C2.09988375,4.293580625000001,2.0709037500000003,4.401310625,2.0709037500000003,4.510980625L2.07098375,4.5209206250000005C2.0717937500000003,4.571550625,2.07877375,4.621890625,2.0917837500000003,4.670830625C2.13417375,4.8303506249999995,2.2382037500000003,4.966500625,2.38097375,5.049320625C2.47584375,5.104350625,2.58357375,5.133330625,2.69325375,5.133330625L2.70318375,5.1332506250000005C2.75381375,5.132440625,2.80416375,5.1254606250000005,2.85310375,5.112450625C3.01262375,5.070060625,3.14876375,4.966030625,3.23186375,4.822790625Q3.97270375,3.545980625,5.33717375,2.982540625Q6.70189375,2.419000625,8.12803375,2.801340625Q9.55416375,3.183680625,10.45396375,4.354330624999999Q10.99744375,5.0614606250000005,11.21364375,5.880180625ZM2.1205237500000003,6.012940625L3.55192375,7.921480625C3.61346375,8.003540625,3.55491375,8.120640625,3.45234375,8.120640625L2.78615375,8.120640625Q3.00231375,8.939340625,3.54581375,9.646450625Q4.44560375,10.817100625,5.87174375,11.199440625Q7.29788375,11.581790625,8.66260375,11.018240625Q10.02707375,10.454800625,10.76794375,9.177990625C10.85104375,9.034750625000001,10.98714375,8.930720625,11.14664375,8.888330625C11.19564375,8.875320625,11.24594375,8.868340625,11.29654375,8.867530625L11.30654375,8.867450625C11.41624375,8.867450625,11.52394375,8.896430625,11.61884375,8.951460625C11.80054375,9.056870625,11.91674375,9.246820625,11.92794375,9.456590625C11.92854375,9.467650625,11.92884375,9.478720625,11.92884375,9.489800625C11.92884375,9.599470625,11.89984375,9.707200625,11.84484375,9.802070625L11.84434375,9.802880625Q10.89184375,11.444290625,9.13767375,12.168690625Q7.38303375,12.893290625,5.54943375,12.401690625Q3.71582375,11.910090625,2.55895375,10.404980625Q1.75418375,9.357950625,1.50761375,8.120640625L0.58953975,8.120640625C0.48697085,8.120640625,0.42842235,8.003540625,0.48996375,7.921480625L1.92136375,6.012940625C1.97115375,5.946560625,2.07073375,5.946560625,2.1205237500000003,6.012940625Z" fill-rule="evenodd" fill="#999999" fill-opacity="1"/></g></g></svg>