<svg xmlns="http://www.w3.org/2000/svg" xmlns:xlink="http://www.w3.org/1999/xlink" fill="none" version="1.1" width="16" height="16" viewBox="0 0 16 16"><defs><clipPath id="master_svg0_5946_60196"><rect x="0" y="0" width="16" height="16" rx="0"/></clipPath></defs><g clip-path="url(#master_svg0_5946_60196)"><g><path d="M15.14375,8.0015625Q15.14375,8.177082500000001,15.13515,8.3523925Q15.12655,8.5277125,15.10935,8.702382499999999Q15.09215,8.8770625,15.06635,9.0506825Q15.04065,9.2243125,15.00635,9.3964625Q14.97215,9.5686125,14.92945,9.7388725Q14.88685,9.9091325,14.83585,10.0771025Q14.78495,10.2450625,14.72575,10.4103225Q14.66665,10.5755825,14.59945,10.7377525Q14.53235,10.8998625,14.45725,11.0585625Q14.38225,11.2172625,14.29945,11.3720625Q14.21675,11.5268625,14.12655,11.6773625Q14.03625,11.8279625,13.93875,11.9738625Q13.84125,12.1198625,13.73665,12.2607625Q13.63215,12.4017625,13.52075,12.5374625Q13.40945,12.6731625,13.29155,12.8031625Q13.17365,12.9332625,13.04955,13.0573625Q12.92545,13.1814625,12.79535,13.2993625Q12.66535,13.4172625,12.52965,13.5285625Q12.39395,13.6399625,12.25295,13.7444625Q12.11205,13.8490625,11.96605,13.9465625Q11.82015,14.0440625,11.66955,14.1343625Q11.51905,14.2245625,11.36425,14.3072625Q11.20945,14.3900625,11.05075,14.4650625Q10.89205,14.5401625,10.72994,14.6072625Q10.56777,14.6744625,10.40251,14.7335625Q10.23725,14.7927625,10.06929,14.8436625Q9.90132,14.8946625,9.73106,14.9372625Q9.5608,14.9799625,9.38865,15.0141625Q9.2165,15.0484625,9.04287,15.0741625Q8.86925,15.0999625,8.694569999999999,15.1171625Q8.5199,15.1343625,8.34458,15.1429625Q8.169270000000001,15.1515625,7.99375,15.1515625Q7.81823,15.1515625,7.64292,15.1429625Q7.46761,15.1343625,7.29293,15.1171625Q7.11825,15.0999625,6.94463,15.0741625Q6.771,15.0484625,6.59885,15.0141625Q6.4267,14.9799625,6.25644,14.9372625Q6.08618,14.8946625,5.91821,14.8436625Q5.75025,14.7927625,5.58499,14.7335625Q5.41972,14.6744625,5.25756,14.6072625Q5.0954,14.5401625,4.93673,14.4650625Q4.77806,14.3900625,4.62326,14.3072625Q4.46847,14.2245625,4.3179099999999995,14.1343625Q4.16736,14.0440625,4.02142,13.9465625Q3.87548,13.8490625,3.7345,13.7444625Q3.59352,13.6399625,3.45784,13.5285625Q3.32216,13.4172625,3.1921,13.2993625Q3.06205,13.1814625,2.93794,13.0573625Q2.8138199999999998,12.9332625,2.69595,12.8031625Q2.57808,12.6731625,2.46673,12.5374625Q2.3553699999999997,12.4017625,2.25082,12.2607625Q2.14626,12.1198625,2.04874,11.9738625Q1.95123,11.8279625,1.86099,11.6773625Q1.7707540000000002,11.5268625,1.688013,11.3720625Q1.605272,11.2172625,1.5302259999999999,11.0585625Q1.455181,10.8998625,1.388011,10.7377525Q1.320842,10.5755825,1.2617099999999999,10.4103225Q1.202578,10.2450625,1.151627,10.0771025Q1.100675,9.9091325,1.058026,9.7388725Q1.0153780000000001,9.5686125,0.981135,9.3964625Q0.946892,9.2243125,0.9211379,9.0506825Q0.8953834,8.8770625,0.8781792,8.702382499999999Q0.860975,8.5277125,0.85236249,8.3523925Q0.84375,8.177082500000001,0.84375,8.0015625Q0.84375,7.8260425,0.85236249,7.6507325Q0.860975,7.4754225,0.8781792,7.3007425Q0.8953834,7.1260625,0.9211379,6.9524425Q0.946892,6.7788125,0.981135,6.6066625Q1.0153780000000001,6.4345125,1.058026,6.2642525Q1.100675,6.0939925,1.151627,5.9260225Q1.202578,5.7580625,1.2617099999999999,5.5928025Q1.320842,5.4275325,1.388011,5.2653725Q1.455181,5.1032125,1.5302259999999999,4.9445425Q1.605272,4.7858725,1.688013,4.6310725Q1.7707540000000002,4.4762825,1.86099,4.3257224999999995Q1.95123,4.1751725,2.04874,4.0292325Q2.14626,3.8832925,2.25082,3.7423125Q2.3553699999999997,3.6013325,2.46673,3.4656525Q2.57808,3.3299725,2.69595,3.1999125Q2.8138199999999998,3.0698625,2.93794,2.9457525Q3.06205,2.8216324999999998,3.1921,2.7037625Q3.32216,2.5858925,3.45784,2.4745425Q3.59352,2.3631824999999997,3.7345,2.2586325Q3.87548,2.1540725,4.02142,2.0565525Q4.16736,1.9590425,4.3179099999999995,1.8688025Q4.46847,1.7785665000000002,4.62326,1.6958255Q4.77806,1.6130845,4.93673,1.5380384999999999Q5.0954,1.4629935,5.25756,1.3958235Q5.41972,1.3286545,5.58499,1.2695224999999999Q5.75025,1.2103905,5.91821,1.1594395Q6.08618,1.1084875,6.25644,1.0658385Q6.4267,1.0231905000000001,6.59885,0.9889475Q6.771,0.9547045,6.94463,0.9289504Q7.11825,0.9031959,7.29293,0.8859917Q7.46761,0.8687875,7.64292,0.86017499Q7.81823,0.8515625,7.99375,0.8515625Q8.169270000000001,0.8515625,8.34458,0.86017499Q8.5199,0.8687875,8.694569999999999,0.8859917Q8.86925,0.9031959,9.04287,0.9289504Q9.2165,0.9547045,9.38865,0.9889475Q9.5608,1.0231905000000001,9.73106,1.0658385Q9.90132,1.1084875,10.06929,1.1594395Q10.23725,1.2103905,10.40251,1.2695224999999999Q10.56777,1.3286545,10.72994,1.3958235Q10.89205,1.4629935,11.05075,1.5380384999999999Q11.20945,1.6130845,11.36425,1.6958255Q11.51905,1.7785665000000002,11.66955,1.8688025Q11.82015,1.9590425,11.96605,2.0565525Q12.11205,2.1540725,12.25295,2.2586325Q12.39395,2.3631824999999997,12.52965,2.4745425Q12.66535,2.5858925,12.79535,2.7037625Q12.92545,2.8216324999999998,13.04955,2.9457525Q13.17365,3.0698625,13.29155,3.1999125Q13.40945,3.3299725,13.52075,3.4656525Q13.63215,3.6013325,13.73665,3.7423125Q13.84125,3.8832925,13.93875,4.0292325Q14.03625,4.1751725,14.12655,4.3257224999999995Q14.21675,4.4762825,14.29945,4.6310725Q14.38225,4.7858725,14.45725,4.9445425Q14.53235,5.1032125,14.59945,5.2653725Q14.66665,5.4275325,14.72575,5.5928025Q14.78495,5.7580625,14.83585,5.9260225Q14.88685,6.0939925,14.92945,6.2642525Q14.97215,6.4345125,15.00635,6.6066625Q15.04065,6.7788125,15.06635,6.9524425Q15.09215,7.1260625,15.10935,7.3007425Q15.12655,7.4754225,15.13515,7.6507325Q15.14375,7.8260425,15.14375,8.0015625Z" fill="#666666" fill-opacity="1"/></g><g><path d="M8.59756,5L8.59756,7.39756L11,7.39756Q11.059090000000001,7.39756,11.117049999999999,7.40909Q11.17501,7.4206199999999995,11.229610000000001,7.44323Q11.2842,7.46585,11.33334,7.49868Q11.382480000000001,7.53151,11.42426,7.57329Q11.46605,7.61508,11.49888,7.66422Q11.53171,7.71335,11.55433,7.76795Q11.57694,7.82255,11.588470000000001,7.8805Q11.6,7.93846,11.6,7.99756Q11.6,8.05665,11.588470000000001,8.114609999999999Q11.57694,8.17257,11.55433,8.227170000000001Q11.53171,8.28176,11.49888,8.3309Q11.46605,8.380040000000001,11.42426,8.42182Q11.382480000000001,8.46361,11.33334,8.49644Q11.28421,8.52927,11.229610000000001,8.55189Q11.17501,8.5745,11.117049999999999,8.586030000000001Q11.059090000000001,8.59756,11,8.59756L8.59756,8.59756L8.59756,11Q8.59756,11.059090000000001,8.586030000000001,11.117049999999999Q8.5745,11.17501,8.55189,11.229610000000001Q8.52927,11.2842,8.49644,11.33334Q8.46361,11.382480000000001,8.42182,11.42426Q8.380040000000001,11.46605,8.3309,11.49888Q8.28176,11.53171,8.227170000000001,11.55433Q8.17257,11.57694,8.114609999999999,11.588470000000001Q8.05665,11.6,7.99756,11.6Q7.93846,11.6,7.8805,11.588470000000001Q7.82255,11.57694,7.76795,11.55433Q7.71335,11.53171,7.66422,11.49888Q7.61508,11.46605,7.57329,11.42426Q7.53151,11.382480000000001,7.49868,11.33334Q7.46585,11.28421,7.44323,11.229610000000001Q7.4206199999999995,11.17501,7.40909,11.117049999999999Q7.39756,11.059090000000001,7.39756,11L7.39756,8.59756L5,8.59756Q4.9409051999999996,8.59756,4.882946,8.586030000000001Q4.824986,8.5745,4.77039,8.55189Q4.715793,8.52927,4.666658,8.49644Q4.617522,8.46361,4.575736,8.42182Q4.53395,8.380040000000001,4.501118,8.3309Q4.468287,8.28176,4.445672,8.227170000000001Q4.423058,8.17257,4.411529,8.114609999999999Q4.4,8.05665,4.4,7.99756Q4.4,7.93846,4.411529,7.8805Q4.423058,7.82255,4.445672,7.76795Q4.468287,7.71335,4.501118,7.66422Q4.53395,7.61508,4.575736,7.57329Q4.617522,7.53151,4.666658,7.49868Q4.715793,7.46585,4.77039,7.44323Q4.824986,7.4206199999999995,4.882946,7.40909Q4.9409051999999996,7.39756,5,7.39756L7.39756,7.39756L7.39756,5Q7.39756,4.9409051999999996,7.40909,4.882946Q7.4206199999999995,4.824986,7.44323,4.77039Q7.46585,4.715793,7.49868,4.666658Q7.53151,4.617522,7.57329,4.575736Q7.61508,4.53395,7.66422,4.501118Q7.71335,4.468287,7.76795,4.445672Q7.82255,4.423058,7.8805,4.411529Q7.93846,4.4,7.99756,4.4Q8.05665,4.4,8.114609999999999,4.411529Q8.17257,4.423058,8.227170000000001,4.445672Q8.28176,4.468287,8.3309,4.501118Q8.380040000000001,4.53395,8.42182,4.575736Q8.46361,4.617522,8.49644,4.666658Q8.52927,4.715793,8.55189,4.77039Q8.5745,4.824986,8.586030000000001,4.882946Q8.59756,4.9409051999999996,8.59756,5Z" fill-rule="evenodd" fill="#FFFFFF" fill-opacity="1"/></g></g></svg>