<svg xmlns="http://www.w3.org/2000/svg" xmlns:xlink="http://www.w3.org/1999/xlink" fill="none" version="1.1" width="16" height="16" viewBox="0 0 16 16"><defs><clipPath id="master_svg0_2597_09864"><rect x="0" y="0" width="16" height="16" rx="0"/></clipPath></defs><g clip-path="url(#master_svg0_2597_09864)"><g><path d="M10.65747875,11.77231Q10.64232875,10.31909,11.57641875,9.2143Q12.72512875,7.87688,12.71376875,6.11361Q12.71420875,4.93169,12.16495875,3.90151Q11.64247875,2.9215489999999997,10.72901875,2.2731339999999998Q9.81556875,1.62472,8.71809875,1.454768Q7.56438875,1.276107,6.44492875,1.667762Q5.32545875,2.0594183,4.53476075,2.918349Q3.78261175,3.73541,3.47261575,4.811859999999999Q3.16262075,5.888310000000001,3.36501775,6.98025Q3.57778775,8.128160000000001,4.3174927499999995,9.05522Q4.32246975,9.06146,4.32760975,9.06756Q5.3188087500000005,10.24422,5.34495875,11.78251Q5.3448787499999995,12.1486,5.61094875,12.4147Q5.87702875,12.6808,6.25331875,12.6808L9.74903875,12.6808Q10.125328750000001,12.6808,10.39139875,12.4147Q10.65747875,12.1486,10.65747875,11.77231ZM11.51379875,6.12135Q11.52226875,7.43649,10.66491875,8.433810000000001L10.66191875,8.43732Q9.53307875,9.77106,9.461948750000001,11.48075L6.53353875,11.48075Q6.42022875,9.69295,5.2507987499999995,8.300889999999999Q4.12452475,6.88444,4.62575275,5.143940000000001Q5.12801875,3.39981,6.84120875,2.800442Q8.554388750000001,2.201069,10.03440875,3.25166Q11.51443875,4.30226,11.51379875,6.12135ZM6.54441875,11.74231Q6.54461875,11.75218,6.54478875,11.76211Q6.54478875,11.75202,6.54441875,11.74231ZM7.40139875,7.96577L6.380588749999999,7.10371Q6.33543875,7.06559,6.29858875,7.01938Q6.261748750000001,6.97318,6.234628750000001,6.92068Q6.207508750000001,6.86817,6.19114875,6.81139Q6.174788749999999,6.7546,6.169828750000001,6.69571Q6.1648587500000005,6.63683,6.17147875,6.57811Q6.17809875,6.51938,6.19604875,6.46308Q6.21398875,6.40678,6.24257875,6.35506Q6.27116875,6.30334,6.30929875,6.25819Q6.38629875,6.167,6.49232875,6.11223Q6.598368750000001,6.05745,6.717298749999999,6.04743Q6.8362187500000005,6.0374,6.94992875,6.07365Q7.06363875,6.10989,7.1548187500000004,6.1869L8.00138875,6.90181L8.84805875,6.18685Q8.939238750000001,6.10985,9.052948749999999,6.0736Q9.16665875,6.03736,9.285588749999999,6.04739Q9.404518750000001,6.05742,9.51054875,6.1122Q9.61657875,6.16697,9.69358875,6.25816Q9.73170875,6.30331,9.76029875,6.35503Q9.78887875,6.40675,9.806828750000001,6.46305Q9.82477875,6.51936,9.83138875,6.57808Q9.83800875,6.6368,9.83303875,6.69569Q9.82807875,6.75458,9.81171875,6.81136Q9.79535875,6.86815,9.76823875,6.92065Q9.74110875,6.97315,9.70426875,7.01935Q9.66742875,7.06556,9.62227875,7.10368L8.601398750000001,7.96576L8.60146875,9.24991Q8.60146875,9.309000000000001,8.58993875,9.366959999999999Q8.57841875,9.42492,8.555798750000001,9.47952Q8.53318875,9.53412,8.50035875,9.58325Q8.46752875,9.632390000000001,8.42574875,9.67418Q8.383968750000001,9.71597,8.33482875,9.7488Q8.28569875,9.78163,8.231098750000001,9.80425Q8.17650875,9.82687,8.11854875,9.8384Q8.06058875,9.84993,8.00149875,9.84994Q7.94239875,9.84994,7.88443875,9.83841Q7.82647875,9.826889999999999,7.77187875,9.80428Q7.71727875,9.781659999999999,7.66814875,9.74883Q7.61900875,9.71601,7.57721875,9.67422Q7.5354287499999995,9.632439999999999,7.502598750000001,9.583300000000001Q7.46976875,9.53417,7.44714875,9.479569999999999Q7.42452875,9.42498,7.41299875,9.36702Q7.401468749999999,9.309059999999999,7.401468749999999,9.249970000000001L7.40139875,7.96577ZM6.63029875,14.6L9.37202875,14.6Q9.43112875,14.6,9.48908875,14.5885Q9.54704875,14.5769,9.60163875,14.5543Q9.65623875,14.5317,9.70536875,14.4989Q9.75450875,14.466,9.79629875,14.4243Q9.838078750000001,14.3825,9.87090875,14.3333Q9.903738749999999,14.2842,9.92635875,14.2296Q9.948968749999999,14.175,9.96049875,14.1171Q9.97202875,14.0591,9.97202875,14Q9.97202875,13.9409,9.96049875,13.8829Q9.948968749999999,13.825,9.92635875,13.7704Q9.903738749999999,13.7158,9.87090875,13.6667Q9.838078750000001,13.6175,9.79629875,13.5757Q9.75450875,13.5339,9.70536875,13.5011Q9.65623875,13.4683,9.60163875,13.4457Q9.547038749999999,13.4231,9.48908875,13.4115Q9.43112875,13.4,9.37202875,13.4L6.63029875,13.4Q6.571198750000001,13.4,6.51323875,13.4115Q6.45527875,13.4231,6.4006887500000005,13.4457Q6.34608875,13.4683,6.29694875,13.5011Q6.24781875,13.5339,6.20602875,13.5757Q6.1642487500000005,13.6175,6.13140875,13.6667Q6.09857875,13.7158,6.0759687499999995,13.7704Q6.05334875,13.825,6.04181875,13.8829Q6.03029875,13.9409,6.03029875,14Q6.03029875,14.0591,6.04181875,14.1171Q6.05334875,14.175,6.0759687499999995,14.2296Q6.09857875,14.2842,6.13140875,14.3333Q6.1642487500000005,14.3825,6.20602875,14.4243Q6.24781875,14.466,6.29694875,14.4989Q6.34608875,14.5317,6.4006887500000005,14.5543Q6.45527875,14.5769,6.51323875,14.5885Q6.571198750000001,14.6,6.63029875,14.6Z" fill-rule="evenodd" fill="#333333" fill-opacity="1"/></g></g></svg>