<svg xmlns="http://www.w3.org/2000/svg" xmlns:xlink="http://www.w3.org/1999/xlink" fill="none" version="1.1" width="16" height="16" viewBox="0 0 16 16"><defs><clipPath id="master_svg0_10697_06184"><rect x="0" y="0" width="16" height="16" rx="0"/></clipPath></defs><g clip-path="url(#master_svg0_10697_06184)"><g><path d="M1.4,2L1.4,5Q1.4,5.059089999999999,1.411529,5.11705Q1.4230580000000002,5.17501,1.445672,5.22961Q1.4682870000000001,5.28421,1.501118,5.33334Q1.53395,5.38248,1.575736,5.42426Q1.6175220000000001,5.46605,1.666658,5.49888Q1.7157930000000001,5.53171,1.77039,5.55433Q1.824986,5.5769400000000005,1.882946,5.58847Q1.9409052,5.6,2,5.6Q2.0590948,5.6,2.117054,5.58847Q2.175014,5.5769400000000005,2.22961,5.55433Q2.284207,5.53171,2.333342,5.49888Q2.382478,5.46605,2.424264,5.42426Q2.46605,5.38248,2.498882,5.33334Q2.531713,5.28421,2.554328,5.22961Q2.576942,5.17501,2.588471,5.11705Q2.6,5.059089999999999,2.6,5L2.6,2.6L5,2.6Q5.059089999999999,2.6,5.11705,2.588471Q5.17501,2.576942,5.22961,2.554328Q5.28421,2.531713,5.33334,2.498882Q5.38248,2.46605,5.42426,2.424264Q5.46605,2.382478,5.49888,2.333342Q5.53171,2.284207,5.55433,2.22961Q5.5769400000000005,2.175014,5.58847,2.117054Q5.6,2.0590948,5.6,2Q5.6,1.9409052,5.58847,1.882946Q5.5769400000000005,1.824986,5.55433,1.77039Q5.53171,1.7157930000000001,5.49888,1.666658Q5.46605,1.6175220000000001,5.42426,1.575736Q5.38248,1.53395,5.33334,1.501118Q5.28421,1.4682870000000001,5.22961,1.445672Q5.17501,1.4230580000000002,5.11705,1.411529Q5.059089999999999,1.4,5,1.4L2,1.4Q1.9409052,1.4,1.882946,1.411529Q1.824986,1.4230580000000002,1.77039,1.445672Q1.7157930000000001,1.4682870000000001,1.666658,1.501118Q1.6175220000000001,1.53395,1.575736,1.575736Q1.53395,1.6175220000000001,1.501118,1.666658Q1.4682870000000001,1.7157930000000001,1.445672,1.77039Q1.4230580000000002,1.824986,1.411529,1.882946Q1.4,1.9409052,1.4,2ZM11,1.4L14,1.4Q14.0591,1.4,14.1171,1.411529Q14.175,1.4230580000000002,14.2296,1.445672Q14.2842,1.4682870000000001,14.3333,1.501118Q14.3825,1.53395,14.4243,1.575736Q14.466,1.6175220000000001,14.4989,1.666658Q14.5317,1.7157930000000001,14.5543,1.77039Q14.5769,1.824986,14.5885,1.882946Q14.6,1.9409052,14.6,2L14.6,5Q14.6,5.059089999999999,14.5885,5.11705Q14.5769,5.17501,14.5543,5.22961Q14.5317,5.28421,14.4989,5.33334Q14.466,5.38248,14.4243,5.42426Q14.3825,5.46605,14.3333,5.49888Q14.2842,5.53171,14.2296,5.55433Q14.175,5.5769400000000005,14.1171,5.58847Q14.0591,5.6,14,5.6Q13.9409,5.6,13.8829,5.58847Q13.825,5.5769400000000005,13.7704,5.55433Q13.7158,5.53171,13.6667,5.49888Q13.6175,5.46605,13.5757,5.42426Q13.5339,5.38248,13.5011,5.33334Q13.4683,5.28421,13.4457,5.22961Q13.4231,5.17501,13.4115,5.11705Q13.4,5.059089999999999,13.4,5L13.4,2.6L11,2.6Q10.9409,2.6,10.88295,2.588471Q10.82498,2.576942,10.77039,2.554328Q10.71579,2.531713,10.66666,2.498882Q10.61752,2.46605,10.57574,2.424264Q10.53395,2.382478,10.50112,2.333342Q10.46829,2.284207,10.44567,2.22961Q10.42306,2.175014,10.41153,2.117054Q10.4,2.0590948,10.4,2Q10.4,1.9409052,10.41153,1.882946Q10.42306,1.824986,10.44567,1.77039Q10.46829,1.7157930000000001,10.50112,1.666658Q10.53395,1.6175220000000001,10.57574,1.575736Q10.61752,1.53395,10.66666,1.501118Q10.71579,1.4682870000000001,10.77039,1.445672Q10.82498,1.4230580000000002,10.88295,1.411529Q10.9409,1.4,11,1.4ZM2.6,11L2.6,13.4L5,13.4Q5.059089999999999,13.4,5.11705,13.4115Q5.17501,13.4231,5.22961,13.4457Q5.28421,13.4683,5.33334,13.5011Q5.38248,13.5339,5.42426,13.5757Q5.46605,13.6175,5.49888,13.6667Q5.53171,13.7158,5.55433,13.7704Q5.5769400000000005,13.825,5.58847,13.8829Q5.6,13.9409,5.6,14Q5.6,14.0591,5.58847,14.1171Q5.5769400000000005,14.175,5.55433,14.2296Q5.53171,14.2842,5.49888,14.3333Q5.46605,14.3825,5.42426,14.4243Q5.38248,14.466,5.33334,14.4989Q5.28421,14.5317,5.22961,14.5543Q5.17501,14.5769,5.11705,14.5885Q5.059089999999999,14.6,5,14.6L4.99893,14.6L2,14.6Q1.9409052,14.6,1.882946,14.5885Q1.824986,14.5769,1.77039,14.5543Q1.7157930000000001,14.5317,1.666658,14.4989Q1.6175220000000001,14.466,1.575736,14.4243Q1.53395,14.3825,1.501118,14.3333Q1.4682870000000001,14.2842,1.445672,14.2296Q1.4230580000000002,14.175,1.411529,14.1171Q1.4,14.0591,1.4,14L1.4,11Q1.4,10.9409,1.411529,10.88295Q1.4230580000000002,10.82498,1.445672,10.77039Q1.4682870000000001,10.71579,1.501118,10.66666Q1.53395,10.61752,1.575736,10.57574Q1.6175220000000001,10.53395,1.666658,10.50112Q1.7157930000000001,10.46829,1.77039,10.44567Q1.824986,10.42306,1.882946,10.41153Q1.9409052,10.4,2,10.4Q2.0590948,10.4,2.117054,10.41153Q2.175014,10.42306,2.22961,10.44567Q2.284207,10.46829,2.333342,10.50112Q2.382478,10.53395,2.424264,10.57574Q2.46605,10.61752,2.498882,10.66666Q2.531713,10.71579,2.554328,10.77039Q2.576942,10.82498,2.588471,10.88295Q2.6,10.9409,2.6,11ZM14.6,11.00107L14.6,14Q14.6,14.0591,14.5885,14.1171Q14.5769,14.175,14.5543,14.2296Q14.5317,14.2842,14.4989,14.3333Q14.466,14.3825,14.4243,14.4243Q14.3825,14.466,14.3333,14.4989Q14.2842,14.5317,14.2296,14.5543Q14.175,14.5769,14.1171,14.5885Q14.0591,14.6,14,14.6L11,14.6Q10.9409,14.6,10.88295,14.5885Q10.82498,14.5769,10.77039,14.5543Q10.71579,14.5317,10.66666,14.4989Q10.61752,14.466,10.57574,14.4243Q10.53395,14.3825,10.50112,14.3333Q10.46829,14.2842,10.44567,14.2296Q10.42306,14.175,10.41153,14.1171Q10.4,14.0591,10.4,14Q10.4,13.9409,10.41153,13.8829Q10.42306,13.825,10.44567,13.7704Q10.46829,13.7158,10.50112,13.6667Q10.53395,13.6175,10.57574,13.5757Q10.61752,13.5339,10.66666,13.5011Q10.71579,13.4683,10.77039,13.4457Q10.82498,13.4231,10.88295,13.4115Q10.9409,13.4,11,13.4L13.4,13.4L13.4,11Q13.4,10.9409,13.4115,10.88295Q13.4231,10.82498,13.4457,10.77039Q13.4683,10.71579,13.5011,10.66666Q13.5339,10.61752,13.5757,10.57574Q13.6175,10.53395,13.6667,10.50112Q13.7158,10.46829,13.7704,10.44567Q13.825,10.42306,13.8829,10.41153Q13.9409,10.4,14,10.4Q14.0591,10.4,14.1171,10.41153Q14.175,10.42306,14.2296,10.44567Q14.2842,10.46829,14.3333,10.50112Q14.3825,10.53395,14.4243,10.57574Q14.466,10.61752,14.4989,10.66666Q14.5317,10.71579,14.5543,10.77039Q14.5769,10.82498,14.5885,10.88295Q14.6,10.9409,14.6,11L14.6,11.00107Z" fill-rule="evenodd" fill="#666666" fill-opacity="1"/></g><g><ellipse cx="8.000000238418579" cy="8" rx="2.500000238418579" ry="2.5" fill="#666666" fill-opacity="1"/></g></g></svg>