<svg xmlns="http://www.w3.org/2000/svg" xmlns:xlink="http://www.w3.org/1999/xlink" fill="none" version="1.1" width="24" height="24" viewBox="0 0 24 24"><g><g><g><path d="M8.69777140625,5.98106225Q7.3299914062500005,7.3488412499999995,7.3299914062500005,9.28318125L7.3299914062500005,9.28319125Q7.33003140625,11.32760125,6.82760440625,12.79463125Q6.54535740625,13.61876125,5.89059640625,14.65955125Q5.37556040625,15.47828125,5.27174740625,15.92688125Q5.23811640625,16.07218125,5.26266540625,16.219381249999998Q5.28721540625,16.36648125,5.36620740625,16.49308125Q5.44520040625,16.61968125,5.56661040625,16.70628125Q5.68802040625,16.79298125,5.83336440625,16.82668125Q5.91680070625,16.84598125,6.00244140625,16.84598125L17.99734140625,16.84598125Q18.07124140625,16.84598125,18.143641406249998,16.83158125Q18.21614140625,16.81718125,18.28434140625,16.78888125Q18.352541406249998,16.76058125,18.41404140625,16.719581249999997Q18.47544140625,16.67848125,18.527641406249998,16.626281249999998Q18.57984140625,16.57408125,18.620941406249997,16.51268125Q18.66194140625,16.451181249999998,18.69024140625,16.38298125Q18.71854140625,16.31468125,18.73294140625,16.242281249999998Q18.74734140625,16.16978125,18.74734140625,16.09598125Q18.74734140625,16.010481249999998,18.72804140625,15.92708125Q18.623741406249998,15.47568125,18.110241406249997,14.68634125Q17.45824140625,13.68407125,17.17614140625,12.85811125Q16.66994140625,11.37615125,16.66994140625,9.22068125Q16.66994140625,7.28743125,15.29612140625,5.94394225Q13.93544140625,4.61328225,11.999881406250001,4.61328225Q10.06555140625,4.61328125,8.69777140625,5.98106225ZM8.246691406250001,13.280631249999999Q8.83003140625,11.57733125,8.82999140625,9.28318125Q8.82999140625,7.97016125,9.75843140625,7.04172125Q10.686871406249999,6.11328125,11.999881406250001,6.11328225Q13.32390140625,6.11328225,14.24736140625,7.01637125Q15.16992140625,7.918571249999999,15.16992140625,9.22072125Q15.16999140625,11.62527125,15.75666140625,13.342941249999999Q16.07564140625,14.27673125,16.75134140625,15.34596125L7.23027140625,15.34596125Q7.92399140625,14.22289125,8.246691406250001,13.280631249999999Z" fill-rule="evenodd" fill="#333333" fill-opacity="1"/></g><g><path d="M9.87943715625,18.5113783828125Q9.77978515625,18.3378893828125,9.77978515625,18.1378173828125Q9.77978515625,18.0639488828125,9.794196156249999,17.9914993828125Q9.80860715625,17.9190503828125,9.83687515625,17.8508043828125Q9.86514415625,17.7825593828125,9.90618315625,17.7211393828125Q9.94722215625,17.659720382812502,9.99945515625,17.6074873828125Q10.05168815625,17.5552543828125,10.11310715625,17.514215382812502Q10.17452715625,17.4731763828125,10.24277215625,17.4449073828125Q10.31101815625,17.4166393828125,10.38346715625,17.4022283828125Q10.45591665625,17.3878173828125,10.52978515625,17.3878173828125Q10.62873595625,17.3878173828125,10.72430115625,17.4134803828125Q10.81986615625,17.4391443828125,10.90550515625,17.4887143828125Q10.99114415625,17.5382843828125,11.06099615625,17.6083693828125Q11.13084815625,17.6784543828125,11.18013415625,17.7642573828125Q11.30534915625,17.9822523828125,11.52334715625,18.1074712828125Q11.74618515625,18.2371334828125,11.99978515625,18.2371334828125Q12.25338515625,18.2371334828125,12.472565156249999,18.1095853828125Q12.694225156249999,17.9822523828125,12.81943515625,17.7642573828125Q12.868725156250001,17.6784543828125,12.93857515625,17.6083693828125Q13.00842515625,17.5382843828125,13.09406515625,17.4887143828125Q13.17970515625,17.4391443828125,13.27526515625,17.4134803828125Q13.37083515625,17.3878173828125,13.46978515625,17.3878173828125Q13.54365515625,17.3878173828125,13.61610515625,17.4022283828125Q13.68855515625,17.4166393828125,13.75679515625,17.4449073828125Q13.825045156249999,17.4731763828125,13.88646515625,17.514215382812502Q13.947885156249999,17.5552543828125,14.00011515625,17.6074873828125Q14.05234515625,17.659720382812502,14.093385156250001,17.7211393828125Q14.13442515625,17.7825593828125,14.162695156249999,17.8508043828125Q14.19096515625,17.9190503828125,14.20537515625,17.9914993828125Q14.21978515625,18.0639488828125,14.21978515625,18.1378173828125Q14.21978515625,18.3378883828125,14.12013515625,18.5113773828125Q13.79295515625,19.0809803828125,13.22700515625,19.4060473828125Q12.65805515625,19.7371373828125,11.99978515625,19.7371373828125Q11.34151515625,19.7371373828125,10.77622315625,19.4081673828125Q10.20668215625,19.0810183828125,9.87951115625,18.5115073828125L9.87943615625,18.5113773828125L9.87943715625,18.5113783828125Z" fill-rule="evenodd" fill="#333333" fill-opacity="1"/></g></g></g></svg>