<svg xmlns="http://www.w3.org/2000/svg" xmlns:xlink="http://www.w3.org/1999/xlink" fill="none" version="1.1" width="24" height="24" viewBox="0 0 24 24"><defs><clipPath id="master_svg0_98_0546/98_0496"><rect x="0" y="0" width="24" height="24" rx="0"/></clipPath></defs><g clip-path="url(#master_svg0_98_0546/98_0496)"><g><path d="M7.474517,4.4919730546875Q5.6,6.3664860546875,5.6,9.0174560546875L5.6,16.5174560546875Q5.6,16.6060560546875,5.617293,16.6930560546875Q5.634587,16.7799560546875,5.668509,16.8618560546875Q5.70243,16.943756054687498,5.751678,17.0174560546875Q5.800924,17.091156054687502,5.8636040000000005,17.153856054687502Q5.926284,17.2165560546875,5.999987,17.2657560546875Q6.07369,17.3150560546875,6.155585,17.3489560546875Q6.23748,17.3828560546875,6.324419,17.4001560546875Q6.4113578,17.4174560546875,6.5,17.4174560546875L17.5,17.4174560546875Q17.5886,17.4174560546875,17.6756,17.4001560546875Q17.7625,17.3828560546875,17.8444,17.3489560546875Q17.926299999999998,17.3150560546875,18,17.2657560546875Q18.073700000000002,17.2165560546875,18.136400000000002,17.153856054687502Q18.1991,17.091156054687502,18.2483,17.0174560546875Q18.2976,16.943756054687498,18.3315,16.8618560546875Q18.3654,16.7799560546875,18.3827,16.6930560546875Q18.4,16.6060560546875,18.4,16.5174560546875L18.4,9.0174560546875Q18.4,6.3664860546875,16.5255,4.4919730546875Q14.65097,2.6174560546875,12,2.6174560546875Q9.349029999999999,2.6174560546875,7.474517,4.4919730546875ZM7.4,15.6174560546875L7.4,9.0174560546875Q7.4,7.1120760546875,8.74731,5.764766054687501Q10.094619999999999,4.4174560546875,12,4.4174560546875Q13.905380000000001,4.4174560546875,15.25269,5.764766054687501Q16.6,7.1120760546875,16.6,9.0174560546875L16.6,15.6174560546875L7.4,15.6174560546875ZM12,21.1499560546875Q13.28396,21.1499560546875,14.46116,20.9839560546875Q14.63843,20.9589560546875,14.79264,20.8680560546875Q14.94685,20.7771560546875,15.05452,20.6340560546875Q15.14262,20.5170560546875,15.18907,20.3781560546875Q15.23551,20.2392560546875,15.23551,20.0927560546875L15.23549,20.0865560546875Q15.23507,20.0265560546875,15.2267,19.9671560546875Q15.21543,19.8872560546875,15.19013,19.8106560546875Q15.16483,19.7339560546875,15.1263,19.6630560546875Q15.08777,19.5921560546875,15.03725,19.5292560546875Q14.98672,19.466356054687502,14.92581,19.4134560546875Q14.8649,19.3604560546875,14.79554,19.3192560546875Q14.72619,19.2779560546875,14.6506,19.249756054687502Q14.57502,19.2214560546875,14.49561,19.207156054687502Q14.4162,19.1927560546875,14.33551,19.1927560546875L14.331949999999999,19.1927560546875Q14.2706,19.1930560546875,14.209859999999999,19.2015560546875Q13.157689999999999,19.3499560546875,12,19.3499560546875Q10.84238,19.3499560546875,9.7902,19.2015560546875Q9.727689999999999,19.1927560546875,9.66455,19.1927560546875Q9.64524,19.1927560546875,9.62594,19.1936560546875Q9.54775,19.1969560546875,9.47132,19.2137560546875Q9.39488,19.2305560546875,9.32249,19.2603560546875Q9.25011,19.2900560546875,9.18394,19.3318560546875Q9.11777,19.3736560546875,9.05981,19.4262560546875Q9.001850000000001,19.478856054687498,8.95383,19.5406560546875Q8.90582,19.6024560546875,8.86919,19.6715560546875Q8.83257,19.7407560546875,8.80843,19.8151560546875Q8.78429,19.8896560546875,8.77337,19.9671560546875Q8.76455,20.0296560546875,8.76455,20.0927560546875L8.76456,20.0975560546875Q8.76533,20.2427560546875,8.81175,20.3804560546875Q8.85817,20.5180560546875,8.94554,20.6340560546875Q9.05321,20.7771560546875,9.207419999999999,20.8680560546875Q9.36163,20.9589560546875,9.5389,20.9839560546875Q10.7161,21.1499560546875,12,21.1499560546875Z" fill-rule="evenodd" fill="#333333" fill-opacity="1"/></g></g></svg>