<svg xmlns="http://www.w3.org/2000/svg" xmlns:xlink="http://www.w3.org/1999/xlink" fill="none" version="1.1" width="16" height="16" viewBox="0 0 16 16"><defs><clipPath id="master_svg0_1796_04884"><rect x="0" y="0" width="16" height="16" rx="0"/></clipPath></defs><g clip-path="url(#master_svg0_1796_04884)"><g><path d="M6.406283855438232,14.0005Q6.406283855438232,13.9222,6.413960855438233,13.8442Q6.421636855438233,13.7663,6.436916855438232,13.6895Q6.452195855438233,13.6127,6.474930855438233,13.5377Q6.497665855438233,13.4628,6.527637855438233,13.3904Q6.5576098554382325,13.318,6.594529855438233,13.249Q6.631448855438232,13.1799,6.674961855438232,13.1148Q6.718473855438233,13.0497,6.768158855438232,12.9891Q6.817844855438232,12.9286,6.873225855438232,12.8732Q6.928605855438232,12.8178,6.989147855438232,12.7681Q7.049688855438232,12.7184,7.114808855438232,12.6749Q7.179928855438233,12.6314,7.2489988554382325,12.5945Q7.318078855438232,12.5576,7.390428855438232,12.5276Q7.462788855438232,12.4976,7.537738855438232,12.4749Q7.612688855438233,12.4522,7.689498855438233,12.4369Q7.766318855438232,12.4216,7.844258855438232,12.4139Q7.922198855438232,12.4063,8.000518855438232,12.4062Q8.078838855438232,12.4063,8.156788855438233,12.4139Q8.234728855438233,12.4216,8.311538855438233,12.4369Q8.388358855438232,12.4522,8.463308855438232,12.4749Q8.538248855438233,12.4976,8.610608855438233,12.5276Q8.682968855438233,12.5576,8.752038855438233,12.5945Q8.821108855438233,12.6314,8.886228855438233,12.6749Q8.951348855438233,12.7184,9.011898855438233,12.7681Q9.072438855438232,12.8178,9.127818855438232,12.8732Q9.183198855438231,12.9286,9.232888855438233,12.9891Q9.282568855438232,13.0497,9.326078855438233,13.1148Q9.369598855438232,13.1799,9.406518855438232,13.249Q9.443438855438233,13.318,9.473408855438233,13.3904Q9.503378855438232,13.4628,9.526108855438233,13.5377Q9.548848855438232,13.6127,9.564128855438232,13.6895Q9.579408855438233,13.7663,9.587078855438232,13.8442Q9.594758855438233,13.9222,9.594758855438233,14.0005Q9.594758855438233,14.0788,9.587078855438232,14.1568Q9.579408855438233,14.2347,9.564128855438232,14.3115Q9.548848855438232,14.3883,9.526108855438233,14.4633Q9.503378855438232,14.5382,9.473408855438233,14.6106Q9.443438855438233,14.6829,9.406518855438232,14.752Q9.369598855438232,14.8211,9.326078855438233,14.8862Q9.282568855438232,14.9513,9.232888855438233,15.0119Q9.183198855438231,15.0724,9.127818855438232,15.1278Q9.072438855438232,15.1832,9.011898855438233,15.2329Q8.951348855438233,15.2825,8.886228855438233,15.326Q8.821108855438233,15.3696,8.752038855438233,15.4065Q8.682968855438233,15.4434,8.610608855438233,15.4734Q8.538248855438233,15.5033,8.463308855438232,15.5261Q8.388358855438232,15.5488,8.311538855438233,15.5641Q8.234728855438233,15.5794,8.156788855438233,15.5871Q8.078838855438232,15.5947,8.000518855438232,15.5947Q7.922198855438232,15.5947,7.844258855438232,15.5871Q7.766318855438232,15.5794,7.689498855438233,15.5641Q7.612688855438233,15.5488,7.537738855438232,15.5261Q7.462788855438232,15.5033,7.390428855438232,15.4734Q7.318078855438232,15.4434,7.2489988554382325,15.4065Q7.179928855438233,15.3696,7.114808855438232,15.326Q7.049688855438232,15.2825,6.989147855438232,15.2329Q6.928605855438232,15.1832,6.873225855438232,15.1278Q6.817844855438232,15.0724,6.768158855438232,15.0119Q6.718473855438233,14.9513,6.674961855438232,14.8862Q6.631448855438232,14.8211,6.594529855438233,14.752Q6.5576098554382325,14.6829,6.527637855438233,14.6106Q6.497665855438233,14.5382,6.474930855438233,14.4633Q6.452195855438233,14.3883,6.436916855438232,14.3115Q6.421636855438233,14.2347,6.413960855438233,14.1568Q6.406283855438232,14.0788,6.406283855438232,14.0005ZM8.010468855438232,0C6.822117855438233,0,5.897390855438233,1.03259,6.027967455438232,2.21374L6.856153855438232,9.70522C6.921098855438233,10.2927,7.417548855438232,10.7373,8.008588855438232,10.7373C8.599418855438232,10.7373,9.095758855438232,10.293,9.160968855438233,9.70579L9.992858855438232,2.21472C10.124058855438232,1.03324,9.199208855438233,0,8.010468855438232,0Z" fill="#FFFFFF" fill-opacity="1"/></g></g></svg>