<svg xmlns="http://www.w3.org/2000/svg" xmlns:xlink="http://www.w3.org/1999/xlink" fill="none" version="1.1" width="16" height="16" viewBox="0 0 16 16"><defs><clipPath id="master_svg0_932_7476"><rect x="0" y="0" width="16" height="16" rx="0"/></clipPath><clipPath id="master_svg1_932_7476/926_2402"><rect x="-43.640625" y="-36.84375" width="100" height="100" rx="0"/></clipPath></defs><g clip-path="url(#master_svg0_932_7476)"><g clip-path="url(#master_svg1_932_7476/926_2402)"><g><path d="M10.29687,4.8391971875Q10.48879,4.9397771875,10.6747,5.0633271875000005Q11.81088,5.8183571875,12.24294,7.1123071875Q12.25438,7.1465671875,12.26163,7.1819571875Q12.9426,10.5070071875,12.9109,13.9132671875Q12.8729,15.1866671875,8.51521,15.2571671875Q4.76094,15.3178671875,2.821331,14.7654671875Q2.783148,14.7545671875,2.74673,14.7387671875Q1.738318,14.3009671875,1.713201,13.6844671875Q1.696172,13.2664671875,2.31590962,12.5727671875Q4.0588999999999995,10.6216471875,4.59022,7.7450871875Q4.76007,6.4240971875,5.71284,5.4906771875Q6.27787,4.9371271875,6.97353,4.6616471875L6.88424,3.0246171875Q6.84032,2.1389351875,7.32179,1.4744281875Q7.8729,0.7138061875,8.73219,0.7395841875Q8.78302,0.7411091875,8.83287,0.7511671875Q9.663509999999999,0.9187671875000001,10.13703,1.6215011875Q10.60233,2.3120421875,10.45923,3.1281671875L10.29687,4.8391971875ZM8.10163,5.6094271875Q6.036490000000001,5.8378271875,5.77877,7.9111171875Q5.77664,7.9282871875,5.7735199999999995,7.9453171875Q5.77061,7.9611671875,5.76767,7.9770071875L11.19432,7.9770071875Q11.14613,7.7178771875,11.09345,7.4590671875Q10.40349,5.4463171875,8.268709999999999,5.6077171875Q8.24613,5.6094271875,8.22348,5.6094271875L8.10163,5.6094271875ZM11.39321,9.1770071875L5.48657,9.1770071875Q4.7938600000000005,11.6001671875,3.210817,13.3721671875Q3.114519,13.4799671875,3.048071,13.5573671875Q3.110412,13.5876671875,3.188289,13.6220671875Q4.00547,13.8495671875,5.20013,13.9597671875Q5.3511299999999995,13.5977671875,5.47218,13.1512671875Q5.4850200000000005,13.1038671875,5.5054,13.0592671875Q5.52577,13.0145671875,5.5531299999999995,12.9738671875Q5.58049,12.9330671875,5.61411,12.8973671875Q5.64773,12.8615671875,5.68672,12.8317671875Q5.7257,12.8018671875,5.769019999999999,12.7788671875Q5.81233,12.7557671875,5.85883,12.7399671875Q5.90532,12.7242671875,5.953749999999999,12.7162671875Q6.00218,12.7082671875,6.051270000000001,12.7082671875Q6.11036,12.7082671875,6.16832,12.7197671875Q6.22628,12.7313671875,6.28088,12.7539671875Q6.33548,12.7765671875,6.38461,12.8093671875Q6.43375,12.8422671875,6.47553,12.8840671875Q6.51732,12.9257671875,6.55015,12.9749671875Q6.58298,13.0240671875,6.6056,13.0786671875Q6.62821,13.1332671875,6.63974,13.1912671875Q6.65127,13.2491671875,6.65127,13.3082671875Q6.65127,13.3881671875,6.63036,13.4652671875Q6.54863,13.7667671875,6.45355,14.0392671875Q7.25355,14.0700671875,8.18069,14.0613671875Q8.428,12.9949671875,8.51125,11.9012671875Q8.51552,11.8451671875,8.53013,11.7908671875Q8.544730000000001,11.7365671875,8.56917,11.6859671875Q8.59361,11.6353671875,8.62702,11.5901671875Q8.660440000000001,11.5448671875,8.70168,11.5066671875Q8.74291,11.4684671875,8.79053,11.4385671875Q8.83814,11.4086671875,8.89048,11.3881671875Q8.942820000000001,11.3676671875,8.998059999999999,11.3571671875Q9.0533,11.3467671875,9.10952,11.3467671875Q9.16862,11.3467671875,9.22658,11.3582671875Q9.28453,11.3698671875,9.33913,11.3924671875Q9.39373,11.4150671875,9.44286,11.4478671875Q9.492,11.4807671875,9.53379,11.5224671875Q9.575569999999999,11.5642671875,9.6084,11.6134671875Q9.64123,11.6625671875,9.66385,11.7171671875Q9.68646,11.7717671875,9.69799,11.8296671875Q9.709520000000001,11.8876671875,9.709520000000001,11.9467671875Q9.709520000000001,11.9695671875,9.70779,11.9922671875L9.70777,11.9925671875L9.70767,11.9938671875Q9.62932,13.0218671875,9.41719,14.0274671875Q10.39063,13.9780671875,11.06098,13.8574671875Q11.49311,13.7797671875,11.71259,13.6866671875Q11.71951,11.4187671875,11.39321,9.1770071875ZM8.16155,4.4094271875L8.20165,4.4094271875Q8.67895,4.3758871875,9.12858,4.448257187499999L9.267,2.9894971875Q9.26959,2.9622371875,9.274650000000001,2.9353271875Q9.42684,2.1257361875000003,8.652999999999999,1.9401291875Q8.454550000000001,1.9562651875000001,8.29353,2.1785041874999997Q8.05976,2.5011471875,8.08277,2.9651771875L8.16155,4.4094271875Z" fill-rule="evenodd" fill="#666666" fill-opacity="1"/></g></g></g></svg>