<svg xmlns="http://www.w3.org/2000/svg" xmlns:xlink="http://www.w3.org/1999/xlink" fill="none" version="1.1" width="20" height="20" viewBox="0 0 20 20"><defs><clipPath id="master_svg0_1185_3404"><rect x="0" y="0" width="20" height="20" rx="0"/></clipPath></defs><g clip-path="url(#master_svg0_1185_3404)"><g><path d="M9.99885734375,18.33204423828125Q10.20343734375,18.33204423828125,10.40775734375,18.32194423828125Q10.61208734375,18.31194423828125,10.81566734375,18.29184423828125Q11.01925734375,18.27184423828125,11.22161734375,18.24184423828125Q11.42396734375,18.21184423828125,11.62461734375,18.17184423828125Q11.82522734375,18.13194423828125,12.02372734375,18.08224423828125Q12.22212734375,18.03254423828125,12.41792734375,17.97314423828125Q12.61362734375,17.91384423828125,12.80622734375,17.84484423828125Q12.99892734375,17.77594423828125,13.18792734375,17.69764423828125Q13.37692734375,17.61934423828125,13.56182734375,17.53194423828125Q13.74672734375,17.44444423828125,13.92712734375,17.34804423828125Q14.10762734375,17.251544238281248,14.28302734375,17.146444238281248Q14.45852734375,17.04124423828125,14.62862734375,16.92754423828125Q14.79872734375,16.813944238281252,14.96302734375,16.692044238281248Q15.12732734375,16.570244238281248,15.28542734375,16.440444238281252Q15.44362734375,16.31064423828125,15.59522734375,16.17324423828125Q15.74672734375,16.03584423828125,15.89142734375,15.89124423828125Q16.03602734375,15.74654423828125,16.17342734375,15.59504423828125Q16.31082734375,15.44344423828125,16.440627343750002,15.28524423828125Q16.570427343749998,15.12714423828125,16.692227343749998,14.96284423828125Q16.814127343750002,14.79854423828125,16.92772734375,14.62844423828125Q17.04142734375,14.45834423828125,17.146627343749998,14.28284423828125Q17.251727343749998,14.10744423828125,17.34822734375,13.92694423828125Q17.44462734375,13.74654423828125,17.53212734375,13.56164423828125Q17.61952734375,13.37674423828125,17.69782734375,13.18774423828125Q17.77612734375,12.99874423828125,17.84502734375,12.80604423828125Q17.91402734375,12.61344423828125,17.97332734375,12.41774423828125Q18.03272734375,12.22194423828125,18.08242734375,12.02354423828125Q18.13212734375,11.82504423828125,18.17202734375,11.62443423828125Q18.21202734375,11.42378423828125,18.24202734375,11.22143423828125Q18.27202734375,11.01907423828125,18.29202734375,10.81548423828125Q18.31212734375,10.61190423828125,18.32212734375,10.40757423828125Q18.33222734375,10.20325423828125,18.33222734375,9.99867423828125Q18.33222734375,9.79410423828125,18.32212734375,9.58978423828125Q18.31212734375,9.38545423828125,18.29202734375,9.18186423828125Q18.27202734375,8.978284238281251,18.24202734375,8.775924238281249Q18.21202734375,8.57356423828125,18.17202734375,8.37292423828125Q18.13212734375,8.17228423828125,18.08242734375,7.97384423828125Q18.03272734375,7.77540423828125,17.97332734375,7.57963423828125Q17.91402734375,7.38387423828125,17.84502734375,7.19126423828125Q17.77612734375,6.99864423828125,17.69782734375,6.80964423828125Q17.61952734375,6.62064423828125,17.53212734375,6.43571423828125Q17.44462734375,6.25078423828125,17.34822734375,6.07037423828125Q17.251727343749998,5.88995423828125,17.146627343749998,5.71448423828125Q17.04142734375,5.53902423828125,16.92772734375,5.3689242382812505Q16.814127343750002,5.1988342382812505,16.692227343749998,5.03451423828125Q16.570427343749998,4.87020423828125,16.440627343750002,4.7120642382812505Q16.31082734375,4.553934238281251,16.17342734375,4.40235423828125Q16.03602734375,4.250774238281251,15.89142734375,4.10612423828125Q15.74672734375,3.96146423828125,15.59522734375,3.82408423828125Q15.44362734375,3.68670423828125,15.28542734375,3.5569242382812503Q15.12732734375,3.42714423828125,14.96302734375,3.30528423828125Q14.79872734375,3.18341423828125,14.62862734375,3.06976423828125Q14.45852734375,2.95611423828125,14.28302734375,2.85093423828125Q14.10762734375,2.74576423828125,13.92712734375,2.6493332382812502Q13.74672734375,2.55289923828125,13.56182734375,2.46543323828125Q13.37692734375,2.37796723828125,13.18792734375,2.29968123828125Q12.99892734375,2.22139523828125,12.80622734375,2.15247723828125Q12.61362734375,2.08355923828125,12.41792734375,2.02417523828125Q12.22212734375,1.96479023828125,12.02372734375,1.91508423828125Q11.82522734375,1.86537723828125,11.62461734375,1.82546723828125Q11.42396734375,1.78555723828125,11.22161734375,1.75553993828125Q11.01925734375,1.72552303828125,10.81566734375,1.70547153828125Q10.61208734375,1.68541993828125,10.40775734375,1.67538213828125Q10.20343734375,1.66534423828125,9.99885734375,1.66534423828125Q9.79428734375,1.66534423828125,9.58996734375,1.67538213828125Q9.38563734375,1.68541993828125,9.18204734375,1.70547153828125Q8.978467343750001,1.72552303828125,8.776107343749999,1.75553993828125Q8.57374734375,1.78555723828125,8.37310734375,1.82546723828125Q8.17246734375,1.86537723828125,7.97402734375,1.91508423828125Q7.77558734375,1.96479023828125,7.57981734375,2.02417523828125Q7.38405734375,2.08355923828125,7.19144734375,2.15247723828125Q6.99882734375,2.22139523828125,6.80982734375,2.29968123828125Q6.62082734375,2.37796723828125,6.43589734375,2.46543323828125Q6.25096734375,2.55289923828125,6.07055734375,2.6493332382812502Q5.89013734375,2.74576423828125,5.71466734375,2.85093423828125Q5.53920734375,2.95611423828125,5.3691073437500005,3.06976423828125Q5.1990173437500005,3.18341423828125,5.03469734375,3.30528423828125Q4.87038734375,3.42714423828125,4.7122473437500005,3.5569242382812503Q4.554117343750001,3.68670423828125,4.40253734375,3.82408423828125Q4.250957343750001,3.96146423828125,4.10630734375,4.10612423828125Q3.96164734375,4.250774238281251,3.82426734375,4.40235423828125Q3.68688734375,4.553934238281251,3.5571073437500003,4.7120642382812505Q3.42732734375,4.87020423828125,3.30546734375,5.03451423828125Q3.18359734375,5.1988342382812505,3.06994734375,5.3689242382812505Q2.95629734375,5.53902423828125,2.85111734375,5.71448423828125Q2.74594734375,5.88995423828125,2.6495163437500002,6.07037423828125Q2.55308234375,6.25078423828125,2.46561634375,6.43571423828125Q2.37815034375,6.62064423828125,2.29986434375,6.80964423828125Q2.22157834375,6.99864423828125,2.15266034375,7.19126423828125Q2.08374234375,7.38387423828125,2.02435834375,7.57963423828125Q1.96497334375,7.77540423828125,1.91526734375,7.97384423828125Q1.86556034375,8.17228423828125,1.82565034375,8.37292423828125Q1.78574034375,8.57356423828125,1.75572304375,8.775924238281249Q1.72570614375,8.978284238281251,1.70565464375,9.18186423828125Q1.68560304375,9.38545423828125,1.67556524375,9.58978423828125Q1.66552734375,9.79410423828125,1.66552734375,9.99867423828125Q1.66552734375,10.20325423828125,1.67556524375,10.40757423828125Q1.68560304375,10.61190423828125,1.70565464375,10.81548423828125Q1.72570614375,11.01907423828125,1.75572304375,11.22143423828125Q1.78574034375,11.42378423828125,1.82565034375,11.62443423828125Q1.86556034375,11.82504423828125,1.91526734375,12.02354423828125Q1.96497334375,12.22194423828125,2.02435834375,12.41774423828125Q2.08374234375,12.61344423828125,2.15266034375,12.80604423828125Q2.22157834375,12.99874423828125,2.29986434375,13.18774423828125Q2.37815034375,13.37674423828125,2.46561634375,13.56164423828125Q2.55308234375,13.74654423828125,2.6495163437500002,13.92694423828125Q2.74594734375,14.10744423828125,2.85111734375,14.28284423828125Q2.95629734375,14.45834423828125,3.06994734375,14.62844423828125Q3.18359734375,14.79854423828125,3.30546734375,14.96284423828125Q3.42732734375,15.12714423828125,3.5571073437500003,15.28524423828125Q3.68688734375,15.44344423828125,3.82426734375,15.59504423828125Q3.96164734375,15.74654423828125,4.10630734375,15.89124423828125Q4.250957343750001,16.03584423828125,4.40253734375,16.17324423828125Q4.554117343750001,16.31064423828125,4.7122473437500005,16.440444238281252Q4.87038734375,16.570244238281248,5.03469734375,16.692044238281248Q5.1990173437500005,16.813944238281252,5.3691073437500005,16.92754423828125Q5.53920734375,17.04124423828125,5.71466734375,17.146444238281248Q5.89013734375,17.251544238281248,6.07055734375,17.34804423828125Q6.25096734375,17.44444423828125,6.43589734375,17.53194423828125Q6.62082734375,17.61934423828125,6.80982734375,17.69764423828125Q6.99882734375,17.77594423828125,7.19144734375,17.84484423828125Q7.38405734375,17.91384423828125,7.57981734375,17.97314423828125Q7.77558734375,18.03254423828125,7.97402734375,18.08224423828125Q8.17246734375,18.13194423828125,8.37310734375,18.17184423828125Q8.57374734375,18.21184423828125,8.776107343749999,18.24184423828125Q8.978467343750001,18.27184423828125,9.18204734375,18.29184423828125Q9.38563734375,18.31194423828125,9.58996734375,18.32194423828125Q9.79428734375,18.33204423828125,9.99885734375,18.33204423828125ZM10.83377734375,5.74867423828125L10.75044734375,11.58201423828125C10.75044734375,11.99624423828125,10.41465734375,12.33204423828125,10.00044734375,12.33204423828125C9.58623734375,12.33204423828125,9.25044734375,11.99624423828125,9.25044734375,11.58201423828125L9.16711734375,5.74867423828125C9.16711734375,5.28844423828125,9.54020734375,4.91534423828125,10.00044734375,4.91534423828125C10.46068734375,4.91534423828125,10.83377734375,5.28844423828125,10.83377734375,5.74867423828125ZM10.00016734375,15.08194423828125C10.50642734375,15.08194423828125,10.91682734375,14.67154423828125,10.91682734375,14.16524423828125C10.91682734375,13.65904423828125,10.50642734375,13.24864423828125,10.00016734375,13.24864423828125C9.49389734375,13.24864423828125,9.08349734375,13.65904423828125,9.08349734375,14.16524423828125C9.08349734375,14.67154423828125,9.49389734375,15.08194423828125,10.00016734375,15.08194423828125Z" fill-rule="evenodd" fill="#FF9800" fill-opacity="1"/></g></g></svg>