<svg xmlns="http://www.w3.org/2000/svg" xmlns:xlink="http://www.w3.org/1999/xlink" fill="none" version="1.1" width="12" height="12" viewBox="0 0 12 12"><defs><clipPath id="master_svg0_591_02599"><rect x="12" y="0" width="12" height="12" rx="0"/></clipPath></defs><g transform="matrix(0,1,-1,0,12,-12)" clip-path="url(#master_svg0_591_02599)"><g><path d="M17.55,3.7865953125000003L17.55,9.3001953125Q17.55,9.3445153125,17.55865,9.3879853125Q17.56729,9.431455312499999,17.58425,9.472405312500001Q17.60122,9.5133453125,17.62584,9.550205312500001Q17.65046,9.5870553125,17.6818,9.618395312499999Q17.71314,9.649735312499999,17.74999,9.674355312500001Q17.78684,9.6989753125,17.82779,9.7159453125Q17.86874,9.7329053125,17.91221,9.741545312500001Q17.95568,9.7501953125,18,9.7501953125Q18.04432,9.7501953125,18.08779,9.741545312500001Q18.13126,9.7329053125,18.17221,9.7159453125Q18.21315,9.6989753125,18.25001,9.674355312500001Q18.28686,9.649735312499999,18.3182,9.618395312499999Q18.34954,9.5870553125,18.37416,9.550205312500001Q18.39878,9.5133453125,18.41575,9.472405312500001Q18.43271,9.431455312499999,18.44135,9.3879853125Q18.45,9.3445153125,18.45,9.3001953125L18.45,3.7865953125000003L20.6818,6.0183953125Q20.71314,6.0497353125,20.74999,6.0743553125Q20.786839999999998,6.0989753125,20.82779,6.1159453125Q20.86874,6.1329053125,20.91221,6.1415453125Q20.95568,6.1501953125,21,6.1501953125Q21.04432,6.1501953125,21.08779,6.1415453125Q21.13126,6.1329053125,21.17221,6.1159453125Q21.21315,6.0989753125,21.25001,6.0743553125Q21.28686,6.0497353125,21.3182,6.0183953125Q21.38149,5.9550953125,21.41575,5.8724053125Q21.45,5.789705312500001,21.45,5.7001953125Q21.45,5.610685312499999,21.41575,5.5279853125Q21.38149,5.4452953125,21.3182,5.3819953125L18.31841,2.3822053125L18.3182,2.3819973125000002L18.31794,2.3817403125Q18.31614,2.3799393125,18.31431,2.3781593125000002L18.31405,2.3779053125Q18.25103,2.3164923125,18.16951,2.2833433125Q18.088,2.2501953125,18,2.2501953125Q17.97974,2.2501953125,17.95957,2.2520153125Q17.79713,2.2666703125,17.6818,2.3819973125000002L17.68159,2.3822053125L14.681802,5.3819953125Q14.618508,5.4452953125,14.584254,5.5279853125Q14.55,5.610685312499999,14.55,5.7001953125Q14.55,5.789705312500001,14.584254,5.8724053125Q14.618508,5.9550953125,14.681802,6.0183953125Q14.713142,6.0497353125,14.749993,6.0743553125Q14.786845,6.0989753125,14.827792,6.1159453125Q14.86874,6.1329053125,14.9122094,6.1415453125Q14.9556789,6.1501953125,15,6.1501953125Q15.0443211,6.1501953125,15.0877906,6.1415453125Q15.13126,6.1329053125,15.172208,6.1159453125Q15.213155,6.0989753125,15.250007,6.0743553125Q15.286858,6.0497353125,15.318198,6.0183953125L17.55,3.7865953125000003Z" fill-rule="evenodd" fill="#333333" fill-opacity="1"/></g></g></svg>