<svg xmlns="http://www.w3.org/2000/svg" xmlns:xlink="http://www.w3.org/1999/xlink" fill="none" version="1.1" width="16" height="16" viewBox="0 0 16 16"><defs><clipPath id="master_svg0_1322_7889"><rect x="0" y="0" width="16" height="16" rx="0"/></clipPath></defs><g clip-path="url(#master_svg0_1322_7889)"><g transform="matrix(1,0,0,-1,0,27.3333740234375)"><path d="M0.503113125,16.73615701171875L0.502877125,16.73638701171875Q0.39738712499999995,16.84187701171875,0.34029612499999995,16.97970701171875Q0.28320412500000003,17.11753701171875,0.283203125,17.26671701171875L0.283203125,17.26672701171875Q0.283203125,17.28474701171875,0.28406912500000003,17.30274701171875Q0.290785125,17.44242701171875,0.347386125,17.57029701171875Q0.40398812500000003,17.698167011718752,0.502868125,17.79704701171875Q0.6083581250000001,17.90253701171875,0.7461871250000001,17.95962701171875Q0.884017125,18.01672701171875,1.033203125,18.01672701171875Q1.052615425,18.01672701171875,1.072003325,18.01571701171875Q1.210937125,18.00852701171875,1.338046125,17.95197701171875Q1.465155125,17.895427011718752,1.563529125,17.79705701171875L1.563764125,17.79682701171875L3.883303125,15.47732701171875L3.883303125,24.99998701171875Q3.883303125,25.07388701171875,3.897713125,25.146287011718748Q3.912123125,25.21878701171875,3.940393125,25.28698701171875Q3.968663125,25.35528701171875,4.009703125,25.41668701171875Q4.050733125,25.47808701171875,4.102973125,25.530287011718748Q4.155203125,25.58258701171875,4.216623125,25.623587011718747Q4.278043125,25.664687011718748,4.346283124999999,25.69288701171875Q4.414533125,25.72118701171875,4.486983125,25.73558701171875Q4.559433125,25.74998701171875,4.633303124999999,25.74998701171875Q4.707173125000001,25.74998701171875,4.7796231250000005,25.73558701171875Q4.852063125,25.72118701171875,4.920313125,25.69288701171875Q4.988563125000001,25.664687011718748,5.049983125,25.623587011718747Q5.111393125,25.58258701171875,5.163633125,25.530287011718748Q5.215863125,25.47808701171875,5.256903125,25.41668701171875Q5.297943125,25.35528701171875,5.326213125,25.28698701171875Q5.354473125,25.21878701171875,5.368893125,25.146287011718748Q5.383303125,25.07388701171875,5.383303125,24.99998701171875L5.383303125,13.66668701171875Q5.383303125,13.51750401171875,5.326213125,13.37967701171875Q5.269123125,13.24185001171875,5.163633125,13.13636101171875Q5.111403125,13.08412801171875,5.049983125,13.04308801171875Q4.988563125000001,13.00204901171875,4.9203231249999995,12.97378001171875Q4.852073125,12.94551101171875,4.7796231250000005,12.93109901171875Q4.707173125000001,12.91668801171875,4.633303124999999,12.91668701171875Q4.559443125,12.91668701171875,4.486993125,12.93109701171875Q4.414543125,12.94550701171875,4.346293125,12.97377501171875Q4.278043125,13.00204301171875,4.216623125,13.04308101171875Q4.1552131249999995,13.08412001171875,4.102973125,13.136352011718749L0.503113125,16.73615701171875ZM7.966313125,15.67712701171875L10.966313125,15.67712701171875Q11.040203125,15.67712701171875,11.112603125,15.66271701171875Q11.185103125,15.64829701171875,11.253303125,15.62003701171875Q11.321603125,15.59176701171875,11.383003125,15.55072701171875Q11.444403125,15.50968701171875,11.496603125,15.45745701171875Q11.548903125,15.40521701171875,11.589903125,15.34379701171875Q11.630903125,15.28237701171875,11.659203125,15.21413701171875Q11.687503125,15.14588701171875,11.701903125,15.07343701171875Q11.716303125,15.00099701171875,11.716303125,14.92712701171875Q11.716303125,14.85325701171875,11.701903125,14.78080701171875Q11.687503125,14.70835701171875,11.659203125,14.64011101171875Q11.630903125,14.57186601171875,11.589903125,14.51044601171875Q11.548903125,14.44902701171875,11.496603125,14.39679401171875Q11.444403125,14.34456101171875,11.383003125,14.30352201171875Q11.321603125,14.26248301171875,11.253303125,14.23421401171875Q11.185103125,14.20594601171875,11.112603125,14.19153501171875Q11.040203125,14.17712401171875,10.966313125,14.17712401171875L7.966313125,14.17712401171875Q7.892443125,14.17712401171875,7.819993125,14.19153501171875Q7.747543125,14.20594601171875,7.679293125,14.23421401171875Q7.611053125,14.26248301171875,7.549633125,14.30352201171875Q7.488213125,14.34456101171875,7.435983125,14.39679401171875Q7.383743125,14.44902701171875,7.342703125,14.51044601171875Q7.301663125,14.57186601171875,7.273403125,14.64011101171875Q7.245133125,14.70835701171875,7.230723125,14.78080701171875Q7.216313125,14.85325701171875,7.216313125,14.92712701171875Q7.216313125,15.00099701171875,7.230723125,15.07343701171875Q7.245133125,15.14588701171875,7.273393125,15.21413701171875Q7.301663125,15.28237701171875,7.342703125,15.34379701171875Q7.383743125,15.40521701171875,7.435983125,15.45745701171875Q7.488213125,15.50968701171875,7.549633125,15.55072701171875Q7.611053125,15.59176701171875,7.679293125,15.62003701171875Q7.747543125,15.64829701171875,7.819993125,15.66271701171875Q7.892443125,15.67712701171875,7.966313125,15.67712701171875ZM7.966313125,20.08337701171875L12.966303125,20.08337701171875Q13.040203125,20.08337701171875,13.112603125,20.06896701171875Q13.185103125,20.05454701171875,13.253303125,20.02628701171875Q13.321603125,19.99801701171875,13.383003125,19.95697701171875Q13.444403125,19.91593701171875,13.496603125,19.863707011718752Q13.548903125,19.81146701171875,13.589903125,19.75004701171875Q13.630903125,19.68862701171875,13.659203125,19.62038701171875Q13.687503125,19.55213701171875,13.701903125,19.47968701171875Q13.716303125,19.407247011718752,13.716303125,19.33337701171875Q13.716303125,19.25950701171875,13.701903125,19.18705701171875Q13.687503125,19.11460701171875,13.659203125,19.04635701171875Q13.630903125,18.97811701171875,13.589903125,18.91669701171875Q13.548903125,18.855277011718748,13.496603125,18.80304701171875Q13.444403125,18.75080701171875,13.383003125,18.70976701171875Q13.321603125,18.66873701171875,13.253303125,18.640467011718748Q13.185103125,18.61219701171875,13.112603125,18.59778701171875Q13.040203125,18.58337701171875,12.966303125,18.58337701171875L7.966313125,18.58337701171875Q7.892443125,18.58337701171875,7.819993125,18.59778701171875Q7.747543125,18.61219701171875,7.679293125,18.640467011718748Q7.611053125,18.66873701171875,7.549633125,18.70976701171875Q7.488213125,18.75080701171875,7.435983125,18.80304701171875Q7.383743125,18.855277011718748,7.342703125,18.91669701171875Q7.301663125,18.97811701171875,7.273403125,19.04635701171875Q7.245133125,19.11460701171875,7.230723125,19.18705701171875Q7.216313125,19.25950701171875,7.216313125,19.33337701171875Q7.216313125,19.407247011718752,7.230723125,19.47968701171875Q7.245133125,19.55213701171875,7.273393125,19.62038701171875Q7.301663125,19.68862701171875,7.342703125,19.75004701171875Q7.383743125,19.81146701171875,7.435983125,19.863707011718752Q7.488213125,19.91593701171875,7.549633125,19.95697701171875Q7.611053125,19.99801701171875,7.679293125,20.02628701171875Q7.747543125,20.05454701171875,7.819993125,20.06896701171875Q7.892443125,20.08337701171875,7.966313125,20.08337701171875ZM7.966313125,24.48958701171875L14.966303125,24.48958701171875Q15.040203125,24.48958701171875,15.112603125,24.475187011718752Q15.185103125,24.46078701171875,15.253303125,24.43248701171875Q15.321603125,24.40428701171875,15.383003125,24.36318701171875Q15.444403125,24.32218701171875,15.496603125,24.26998701171875Q15.548903125,24.217687011718752,15.589903125,24.15628701171875Q15.630903125,24.09488701171875,15.659203125,24.02658701171875Q15.687503125,23.95838701171875,15.701903125,23.88598701171875Q15.716303125,23.81348701171875,15.716303125,23.73958701171875Q15.716303125,23.66575701171875,15.701903125,23.59330701171875Q15.687503125,23.52085701171875,15.659203125,23.45260701171875Q15.630903125,23.38436701171875,15.589903125,23.32294701171875Q15.548903125,23.261527011718748,15.496603125,23.20929701171875Q15.444403125,23.15705701171875,15.383003125,23.11601701171875Q15.321603125,23.07497701171875,15.253303125,23.046717011718748Q15.185103125,23.01844701171875,15.112603125,23.00403701171875Q15.040203125,22.98962701171875,14.966303125,22.98962701171875L7.966313125,22.98962701171875Q7.892443125,22.98962701171875,7.819993125,23.00403701171875Q7.747543125,23.01844701171875,7.679293125,23.046717011718748Q7.611053125,23.07497701171875,7.549633125,23.11601701171875Q7.488213125,23.15705701171875,7.435983125,23.20929701171875Q7.383743125,23.261527011718748,7.342703125,23.32294701171875Q7.301663125,23.38436701171875,7.273403125,23.45260701171875Q7.245133125,23.52085701171875,7.230723125,23.59330701171875Q7.216313125,23.66575701171875,7.216313125,23.73958701171875Q7.216313125,23.81348701171875,7.230723125,23.88598701171875Q7.245133125,23.95838701171875,7.273393125,24.02658701171875Q7.301663125,24.09488701171875,7.342703125,24.15628701171875Q7.383743125,24.217687011718752,7.435983125,24.26998701171875Q7.488213125,24.32218701171875,7.549633125,24.36318701171875Q7.611053125,24.40428701171875,7.679293125,24.43248701171875Q7.747543125,24.46078701171875,7.819993125,24.475187011718752Q7.892443125,24.48958701171875,7.966313125,24.48958701171875Z" fill-rule="evenodd" fill="#333333" fill-opacity="1"/></g></g></svg>