<svg xmlns="http://www.w3.org/2000/svg" xmlns:xlink="http://www.w3.org/1999/xlink" fill="none" version="1.1" width="16" height="16" viewBox="0 0 16 16"><defs><clipPath id="master_svg0_1322_7891"><rect x="0" y="0" width="16" height="16" rx="0"/></clipPath></defs><g clip-path="url(#master_svg0_1322_7891)"><g><path d="M0.503113125,5.40278298828125L0.502877125,5.40301298828125Q0.39738712499999995,5.508502988281251,0.34029612499999995,5.64633298828125Q0.28320412500000003,5.78416298828125,0.283203125,5.93334298828125L0.283203125,5.93335298828125Q0.283203125,5.95137298828125,0.28406912500000003,5.9693729882812505Q0.290785125,6.10905298828125,0.347386125,6.2369229882812505Q0.40398812500000003,6.36479298828125,0.502868125,6.46367298828125Q0.6083581250000001,6.56916298828125,0.7461871250000001,6.62625298828125Q0.884017125,6.68335298828125,1.033203125,6.68335298828125Q1.052615425,6.68335298828125,1.072003325,6.68234298828125Q1.210937125,6.67515298828125,1.338046125,6.61860298828125Q1.465155125,6.56205298828125,1.563529125,6.46368298828125L1.563764125,6.46345298828125L3.883303125,4.14395298828125L3.883303125,13.66661298828125Q3.883303125,13.74051298828125,3.897713125,13.81291298828125Q3.912123125,13.88541298828125,3.940393125,13.95361298828125Q3.968663125,14.02191298828125,4.009703125,14.08331298828125Q4.050733125,14.14471298828125,4.102973125,14.19691298828125Q4.155203125,14.24921298828125,4.216623125,14.29021298828125Q4.278043125,14.33131298828125,4.346283124999999,14.35951298828125Q4.414533125,14.38781298828125,4.486983125,14.40221298828125Q4.559433125,14.41661298828125,4.633303124999999,14.41661298828125Q4.707173125000001,14.41661298828125,4.7796231250000005,14.40221298828125Q4.852063125,14.38781298828125,4.920313125,14.35951298828125Q4.988563125000001,14.33131298828125,5.049983125,14.29021298828125Q5.111393125,14.24921298828125,5.163633125,14.19691298828125Q5.215863125,14.14471298828125,5.256903125,14.08331298828125Q5.297943125,14.02191298828125,5.326213125,13.95361298828125Q5.354473125,13.88541298828125,5.368893125,13.81291298828125Q5.383303125,13.74051298828125,5.383303125,13.66661298828125L5.383303125,2.33331298828125Q5.383303125,2.18412998828125,5.326213125,2.04630298828125Q5.269123125,1.9084759882812499,5.163633125,1.80298698828125Q5.111403125,1.75075398828125,5.049983125,1.70971398828125Q4.988563125000001,1.66867498828125,4.9203231249999995,1.64040598828125Q4.852073125,1.61213698828125,4.7796231250000005,1.59772498828125Q4.707173125000001,1.5833139882812501,4.633303124999999,1.58331298828125Q4.559443125,1.58331298828125,4.486993125,1.59772298828125Q4.414543125,1.61213298828125,4.346293125,1.64040098828125Q4.278043125,1.66866898828125,4.216623125,1.70970698828125Q4.1552131249999995,1.75074598828125,4.102973125,1.80297798828125L0.503113125,5.40278298828125ZM7.966313125,4.34375298828125L14.966303125,4.34375298828125Q15.040203125,4.34375298828125,15.112603125,4.32934298828125Q15.185103125,4.31492298828125,15.253303125,4.28666298828125Q15.321603125,4.2583929882812495,15.383003125,4.21735298828125Q15.444403125,4.17631298828125,15.496603125,4.12408298828125Q15.548903125,4.07184298828125,15.589903125,4.01042298828125Q15.630903125,3.94900298828125,15.659203125,3.88076298828125Q15.687503125,3.81251298828125,15.701903125,3.7400629882812497Q15.716303125,3.6676229882812503,15.716303125,3.59375298828125Q15.716303125,3.5198829882812497,15.701903125,3.4474329882812498Q15.687503125,3.37498298828125,15.659203125,3.30673698828125Q15.630903125,3.23849198828125,15.589903125,3.17707198828125Q15.548903125,3.11565298828125,15.496603125,3.06341998828125Q15.444403125,3.01118698828125,15.383003125,2.97014798828125Q15.321603125,2.92910898828125,15.253303125,2.90083998828125Q15.185103125,2.87257198828125,15.112603125,2.85816098828125Q15.040203125,2.84374998828125,14.966303125,2.84374998828125L7.966313125,2.84374998828125Q7.892443125,2.84374998828125,7.819993125,2.85816098828125Q7.747543125,2.87257198828125,7.679293125,2.90083998828125Q7.611053125,2.92910898828125,7.549633125,2.97014798828125Q7.488213125,3.01118698828125,7.435983125,3.06341998828125Q7.383743125,3.11565298828125,7.342703125,3.17707198828125Q7.301663125,3.23849198828125,7.273403125,3.30673698828125Q7.245133125,3.37498298828125,7.230723125,3.4474329882812498Q7.216313125,3.5198829882812497,7.216313125,3.59375298828125Q7.216313125,3.6676229882812503,7.230723125,3.7400629882812497Q7.245133125,3.81251298828125,7.273393125,3.88076298828125Q7.301663125,3.94900298828125,7.342703125,4.01042298828125Q7.383743125,4.07184298828125,7.435983125,4.12408298828125Q7.488213125,4.17631298828125,7.549633125,4.21735298828125Q7.611053125,4.2583929882812495,7.679293125,4.28666298828125Q7.747543125,4.31492298828125,7.819993125,4.32934298828125Q7.892443125,4.34375298828125,7.966313125,4.34375298828125ZM7.966313125,8.75000298828125L12.966303125,8.75000298828125Q13.040203125,8.75000298828125,13.112603125,8.735592988281251Q13.185103125,8.72117298828125,13.253303125,8.69291298828125Q13.321603125,8.664642988281251,13.383003125,8.623602988281249Q13.444403125,8.58256298828125,13.496603125,8.53033298828125Q13.548903125,8.47809298828125,13.589903125,8.416672988281249Q13.630903125,8.35525298828125,13.659203125,8.287012988281251Q13.687503125,8.218762988281249,13.701903125,8.146312988281249Q13.716303125,8.07387298828125,13.716303125,8.00000298828125Q13.716303125,7.92613298828125,13.701903125,7.85368298828125Q13.687503125,7.78123298828125,13.659203125,7.71298298828125Q13.630903125,7.64474298828125,13.589903125,7.58332298828125Q13.548903125,7.52190298828125,13.496603125,7.46967298828125Q13.444403125,7.41743298828125,13.383003125,7.37639298828125Q13.321603125,7.33536298828125,13.253303125,7.30709298828125Q13.185103125,7.27882298828125,13.112603125,7.26441298828125Q13.040203125,7.25000298828125,12.966303125,7.25000298828125L7.966313125,7.25000298828125Q7.892443125,7.25000298828125,7.819993125,7.26441298828125Q7.747543125,7.27882298828125,7.679293125,7.30709298828125Q7.611053125,7.33536298828125,7.549633125,7.37639298828125Q7.488213125,7.41743298828125,7.435983125,7.46967298828125Q7.383743125,7.52190298828125,7.342703125,7.58332298828125Q7.301663125,7.64474298828125,7.273403125,7.71298298828125Q7.245133125,7.78123298828125,7.230723125,7.85368298828125Q7.216313125,7.92613298828125,7.216313125,8.00000298828125Q7.216313125,8.07387298828125,7.230723125,8.146312988281249Q7.245133125,8.218762988281249,7.273393125,8.287012988281251Q7.301663125,8.35525298828125,7.342703125,8.416672988281249Q7.383743125,8.47809298828125,7.435983125,8.53033298828125Q7.488213125,8.58256298828125,7.549633125,8.623602988281249Q7.611053125,8.664642988281251,7.679293125,8.69291298828125Q7.747543125,8.72117298828125,7.819993125,8.735592988281251Q7.892443125,8.75000298828125,7.966313125,8.75000298828125ZM7.966313125,13.15621298828125L10.966313125,13.15621298828125Q11.040203125,13.15621298828125,11.112603125,13.14181298828125Q11.185103125,13.12741298828125,11.253303125,13.09911298828125Q11.321603125,13.07091298828125,11.383003125,13.02981298828125Q11.444403125,12.98881298828125,11.496603125,12.93661298828125Q11.548903125,12.88431298828125,11.589903125,12.82291298828125Q11.630903125,12.76151298828125,11.659203125,12.69321298828125Q11.687503125,12.62501298828125,11.701903125,12.55261298828125Q11.716303125,12.48011298828125,11.716303125,12.40621298828125Q11.716303125,12.33238298828125,11.701903125,12.25993298828125Q11.687503125,12.18748298828125,11.659203125,12.11923298828125Q11.630903125,12.05099298828125,11.589903125,11.98957298828125Q11.548903125,11.92815298828125,11.496603125,11.87592298828125Q11.444403125,11.82368298828125,11.383003125,11.78264298828125Q11.321603125,11.74160298828125,11.253303125,11.71334298828125Q11.185103125,11.68507298828125,11.112603125,11.67066298828125Q11.040203125,11.65625298828125,10.966313125,11.65625298828125L7.966313125,11.65625298828125Q7.892443125,11.65625298828125,7.819993125,11.67066298828125Q7.747543125,11.68507298828125,7.679293125,11.71334298828125Q7.611053125,11.74160298828125,7.549633125,11.78264298828125Q7.488213125,11.82368298828125,7.435983125,11.87592298828125Q7.383743125,11.92815298828125,7.342703125,11.98957298828125Q7.301663125,12.05099298828125,7.273403125,12.11923298828125Q7.245133125,12.18748298828125,7.230723125,12.25993298828125Q7.216313125,12.33238298828125,7.216313125,12.40621298828125Q7.216313125,12.48011298828125,7.230723125,12.55261298828125Q7.245133125,12.62501298828125,7.273393125,12.69321298828125Q7.301663125,12.76151298828125,7.342703125,12.82291298828125Q7.383743125,12.88431298828125,7.435983125,12.93661298828125Q7.488213125,12.98881298828125,7.549633125,13.02981298828125Q7.611053125,13.07091298828125,7.679293125,13.09911298828125Q7.747543125,13.12741298828125,7.819993125,13.14181298828125Q7.892443125,13.15621298828125,7.966313125,13.15621298828125Z" fill-rule="evenodd" fill="#333333" fill-opacity="1"/></g></g></svg>