<svg xmlns="http://www.w3.org/2000/svg" xmlns:xlink="http://www.w3.org/1999/xlink" fill="none" version="1.1" width="18" height="18" viewBox="0 0 18 18"><defs><clipPath id="master_svg0_3253_0781"><rect x="0" y="0" width="18" height="18" rx="0"/></clipPath></defs><g clip-path="url(#master_svg0_3253_0781)"><g><path d="M17.4289,8.614239999999999Q13.7017,3.2625,9,3.2625Q4.29829,3.262501,0.571095,8.614239999999999L0.302431,9L0.571095,9.385760000000001Q4.29829,14.7375,9,14.7375Q13.7017,14.7375,17.4289,9.385760000000001L17.6976,9L17.4289,8.614239999999999ZM1.954373,9Q5.16813,4.612499,9,4.6125Q12.8319,4.6125,16.0456,9Q12.8319,13.3875,9,13.3875Q5.16813,13.3875,1.954373,9ZM11.06829,6.93171Q10.21157,6.075,9,6.075Q7.78843,6.075,6.93171,6.93171Q6.075,7.78843,6.075,9Q6.075,10.21157,6.93171,11.068290000000001Q7.78843,11.925,9,11.925Q10.21157,11.925,11.06829,11.068290000000001Q11.925,10.21157,11.925,9Q11.925,7.78843,11.06829,6.93171ZM7.88631,7.88631Q8.34761,7.425,9,7.425Q9.65239,7.425,10.11369,7.88631Q10.575,8.34761,10.575,9Q10.575,9.65239,10.11369,10.11369Q9.65239,10.575,9,10.575Q8.34761,10.575,7.88631,10.11369Q7.425,9.65239,7.425,9Q7.425,8.34761,7.88631,7.88631Z" fill-rule="evenodd" fill="#BFBFBF" fill-opacity="1"/></g></g></svg>