<svg xmlns="http://www.w3.org/2000/svg" xmlns:xlink="http://www.w3.org/1999/xlink" fill="none" version="1.1" width="18" height="18" viewBox="0 0 18 18"><defs><clipPath id="master_svg0_3253_0780"><rect x="0" y="0" width="18" height="18" rx="0"/></clipPath></defs><g clip-path="url(#master_svg0_3253_0780)"><g><path d="M12.81578125,13.7725953125L14.70818125,15.6649953125C14.83478125,15.7915953125,15.00648125,15.8626953125,15.18548125,15.8626953125C15.36448125,15.8626953125,15.53618125,15.7915953125,15.66278125,15.6649953125C15.78938125,15.5383953125,15.86048125,15.3666953125,15.86048125,15.1876953125C15.86048125,15.0086953125,15.78938125,14.8369953125,15.66278125,14.7103953125L3.28779125,2.3353983125C3.16121125,2.2088112125,2.98952125,2.1376953125,2.81050125,2.1376953125C2.63148125,2.1376953125,2.45979125,2.2088112125,2.33320125,2.3353983125C2.20661125,2.4619853125,2.13550125,2.6336743125,2.13550125,2.8126953125C2.13550125,2.9917163125,2.20661125,3.1634053125,2.33320125,3.2899953125000003L4.00681125,4.9636053125Q2.1954012499999997,6.2797853125,0.56944525,8.6144353125L0.30078125,9.0001953125L0.56944525,9.3859553125Q4.29664125,14.7376953125,8.99835125,14.7376953125Q10.99498125,14.7376953125,12.81578125,13.7725953125ZM11.80488125,12.7616953125L10.53788125,11.4946353125Q9.85727125,11.9251953125,8.99835125,11.9251953125Q7.78677125,11.9251953125,6.93006125,11.0684853125Q6.07335125,10.2117653125,6.07335125,9.0001953125Q6.07335125,8.1412753125,6.50391125,7.4607053125L4.97787125,5.9346653125Q3.40241125,7.0210453125,1.95272125,9.0001953125Q5.16648125,13.3876953125,8.99835125,13.3876953125Q10.44578125,13.3876953125,11.80488125,12.7616953125ZM7.51099125,8.4677853125Q7.42335125,8.715835312500001,7.42335125,9.0001953125Q7.42335125,9.652585312500001,7.88466125,10.113885312499999Q8.34596125,10.5751953125,8.99835125,10.5751953125Q9.28271125,10.5751953125,9.53076125,10.4875553125L7.51099125,8.4677853125ZM17.42728125,9.3859553125Q16.15048125,11.2193053125,14.75928125,12.4245953125L13.80018125,11.4655153125Q14.95738125,10.4836253125,16.04398125,9.0001953125Q12.83018125,4.6126953125,8.99835125,4.6126953125Q8.08085125,4.6126953125,7.19879125,4.8642353125L6.12957125,3.7950253125Q7.51549125,3.2626953125,8.99835125,3.2626953125Q13.70008125,3.2626953125,17.42728125,8.6144353125L17.69588125,9.0001953125L17.42728125,9.3859553125ZM11.92338125,9.0001953125Q11.92338125,9.2809953125,11.87738125,9.5427253125L8.45579125,6.1212153125Q8.71754125,6.0751953125,8.99835125,6.0751953125Q10.20992125,6.0751953125,11.06668125,6.9319053125Q11.92338125,7.7886253125,11.92338125,9.0001953125Z" fill-rule="evenodd" fill="#BFBFBF" fill-opacity="1"/></g></g></svg>