<svg xmlns="http://www.w3.org/2000/svg" xmlns:xlink="http://www.w3.org/1999/xlink" fill="none" version="1.1" width="35" height="40" viewBox="0 0 35 40"><g><g><path d="M0,2.5L0,37.5C0,38.8807,1.11929,40,2.5,40L32.5,40C33.8807,40,35,38.8807,35,37.5L35,12L29,6L23,0L2.5,0C1.11929,0,0,1.11929,0,2.5Z" fill="#E75E58" fill-opacity="1"/></g><g><path d="M23,9.5C23,10.8807,24.11929,12,25.5,12L35,12L23,0L23,9.5Z" fill="#FFFFFF" fill-opacity="0.25"/></g><g><path d="M6.46484375,23.716796875L6.46484375,32.283206875L7.76953375,32.283206875L7.76953375,28.947266875L9.99218375,28.947266875C12.04296375,28.947266875,13.07422375,28.072266875,13.07422375,26.322266875C13.07422375,24.580077875,12.054683749999999,23.716796875,10.01562375,23.716796875L6.46484375,23.716796875ZM7.76953375,24.833986875L9.90625375,24.833986875C10.54296375,24.833986875,11.01172375,24.951176875,11.312503750000001,25.193356875C11.61328375,25.408206875,11.76953375,25.791016875,11.76953375,26.322266875C11.76953375,26.849606875,11.61328375,27.232416875,11.32422375,27.474606875C11.023433749999999,27.712886875,10.554683749999999,27.833986875,9.90625375,27.833986875L7.76953375,27.833986875L7.76953375,24.833986875ZM14.21484375,23.716796875L14.21484375,32.283206875L17.30864375,32.283206875C18.691443749999998,32.283206875,19.73434375,31.900386875000002,20.453143750000002,31.134766875C21.13674375,30.388676875,21.48434375,29.345706875,21.48434375,28.001956875C21.48434375,26.646486875,21.14844375,25.599606875,20.476543749999998,24.880856875C19.75784375,24.099608875,18.71484375,23.716796875,17.33204375,23.716796875L14.21484375,23.716796875ZM15.51953375,24.833986875L17.09374375,24.833986875C18.17184375,24.833986875,18.96484375,25.083986875,19.46874375,25.599606875C19.94924375,26.103516875,20.203143750000002,26.896486875,20.203143750000002,28.001956875C20.203143750000002,29.080076875,19.94924375,29.873046875,19.45704375,30.388676875C18.953143750000002,30.904296875,18.14844375,31.169916875,17.07034375,31.169916875L15.51953375,31.169916875L15.51953375,24.833986875ZM22.71484375,23.716796875L22.71484375,32.283206875L24.01954375,32.283206875L24.01954375,28.443356875L28.28124375,28.443356875L28.28124375,27.330076875L24.01954375,27.330076875L24.01954375,24.833986875L28.53514375,24.833986875L28.53514375,23.716796875L22.71484375,23.716796875Z" fill="#FFFFFF" fill-opacity="1"/></g></g></svg>