<svg xmlns="http://www.w3.org/2000/svg" xmlns:xlink="http://www.w3.org/1999/xlink" fill="none" version="1.1" width="16" height="16" viewBox="0 0 16 16"><defs><clipPath id="master_svg0_867_2619"><rect x="0" y="0" width="16" height="16" rx="0"/></clipPath></defs><g clip-path="url(#master_svg0_867_2619)"><g><path d="M3.53795,9.60279701171875Q1.9,11.60927701171875,1.9,14.19998701171875L3.1,14.19998701171875Q3.1,12.03688701171875,4.46754,10.36164701171875Q5.8349899999999995,8.686517011718749,7.95321,8.254587011718751Q7.96014,8.253177011718751,7.96703,8.25160701171875Q9.44641,7.91345701171875,10.34927,7.09330701171875Q11.43333,6.10854701171875,11.43333,4.66668701171875Q11.43333,3.1755170117187497,10.37892,2.12110301171875Q9.3245,1.06668701171875,7.83334,1.06668701171875Q6.34216,1.06668701171875,5.28775,2.12110301171875Q4.2333300000000005,3.1755170117187497,4.2333300000000005,4.66668701171875Q4.2333300000000005,6.15785701171875,5.28775,7.21226701171875Q5.570539999999999,7.49505701171875,5.88474,7.70200701171875Q4.54228,8.37248701171875,3.53795,9.60279701171875ZM7.76737,7.06590701171875Q8.89184,6.79602701171875,9.5424,6.20506701171875Q10.233329999999999,5.5774270117187505,10.233329999999999,4.66668701171875Q10.233329999999999,3.67257701171875,9.53039,2.96962701171875Q8.827449999999999,2.26668701171875,7.83334,2.26668701171875Q6.83922,2.26668701171875,6.13628,2.96962701171875Q5.43333,3.67257701171875,5.43333,4.66668701171875Q5.43333,5.66079701171875,6.13628,6.36374701171875Q6.81579,7.04324701171875,7.76737,7.06590701171875ZM12.5066,13.96638701171875L13.66,11.96638701171875Q13.6994,11.89808701171875,13.7198,11.82178701171875Q13.7402,11.74558701171875,13.7402,11.66668701171875Q13.7402,11.58777701171875,13.7198,11.51154701171875Q13.6994,11.43531701171875,13.66,11.36695701171875L12.5066,9.36695701171875Q12.46714,9.29848701171875,12.41128,9.24258701171875Q12.35542,9.18667701171875,12.28699,9.14714701171875Q12.21856,9.10761701171875,12.14222,9.08714701171875Q12.06589,9.06668701171875,11.98686,9.06668701171875L9.68019,9.06668701171875Q9.60116,9.06668701171875,9.52482,9.08714701171875Q9.44849,9.10761701171875,9.38006,9.14714701171875Q9.31162,9.18667701171875,9.25576,9.24258701171875Q9.1999,9.29848701171875,9.16042,9.36695701171875L8.00709,11.36695701171875Q7.96766,11.43531701171875,7.94726,11.51154701171875Q7.92686,11.58777701171875,7.92686,11.66668701171875Q7.92686,11.74558701171875,7.94726,11.82178701171875Q7.96766,11.89808701171875,8.00709,11.96638701171875L9.16042,13.96638701171875Q9.1999,14.03488701171875,9.25576,14.09078701171875Q9.31162,14.14668701171875,9.38006,14.18618701171875Q9.44849,14.22578701171875,9.52482,14.24618701171875Q9.60116,14.26668701171875,9.68019,14.26668701171875L11.98686,14.26668701171875Q12.06589,14.26668701171875,12.14222,14.24618701171875Q12.21856,14.22578701171875,12.28699,14.18618701171875Q12.35542,14.14668701171875,12.41128,14.09078701171875Q12.46714,14.03488701171875,12.5066,13.96638701171875ZM12.44757,11.66668701171875L11.64024,13.06668701171875L10.0268,13.06668701171875L9.219470000000001,11.66668701171875L10.0268,10.26668701171875L11.64024,10.26668701171875L12.44757,11.66668701171875Z" fill-rule="evenodd" fill="#333333" fill-opacity="1"/></g></g></svg>