<svg xmlns="http://www.w3.org/2000/svg" xmlns:xlink="http://www.w3.org/1999/xlink" fill="none" version="1.1" width="35" height="40" viewBox="0 0 35 40"><defs><clipPath id="master_svg0_109_8009"><rect x="7" y="14" width="21" height="21" rx="0"/></clipPath></defs><g><g><path d="M0,2.5L0,37.5C0,38.8807,1.11929,40,2.5,40L32.5,40C33.8807,40,35,38.8807,35,37.5L35,12L29,6L23,0L2.5,0C1.11929,0,0,1.11929,0,2.5Z" fill="#B3B4B4" fill-opacity="1"/></g><g><path d="M23,9.5C23,10.8807,24.11929,12,25.5,12L35,12L23,0L23,9.5Z" fill="#FFFFFF" fill-opacity="0.25"/></g><g clip-path="url(#master_svg0_109_8009)"><g><path d="M9.05615234375,19.90615234375L9.05615234375,29.09365234375Q9.05615234375,30.50715234375,10.055650343749999,31.506652343749998Q11.05514234375,32.50615234375,12.46865234375,32.50615234375L22.53115234375,32.50615234375Q23.94465234375,32.50615234375,24.944152343749998,31.506652343749998Q25.94365234375,30.50715234375,25.94365234375,29.09365234375L25.94365234375,19.90615234375Q25.94365234375,18.49264234375,24.944152343749998,17.49315034375Q23.94465234375,16.49365234375,22.53115234375,16.49365234375L12.46865234375,16.49365234375Q11.05515234375,16.49365234375,10.055650343749999,17.49315034375Q9.05615234375,18.49265234375,9.05615234375,19.90615234375ZM11.16934234375,30.39295234375Q10.63115234375,29.85475234375,10.63115234375,29.09365234375L10.63115234375,19.90615234375Q10.63115234375,19.14503234375,11.16934234375,18.60684234375Q11.70753234375,18.06865234375,12.46865234375,18.06865234375L22.53115234375,18.06865234375Q23.29225234375,18.06865234375,23.83045234375,18.60684234375Q24.36865234375,19.14503234375,24.36865234375,19.90615234375L24.36865234375,29.09365234375Q24.36865234375,29.85475234375,23.83045234375,30.39295234375Q23.29225234375,30.93115234375,22.53115234375,30.93115234375L12.46865234375,30.93115234375Q11.70753234375,30.93115234375,11.16934234375,30.39295234375ZM20.51845234375,22.76741234375C21.146752343750002,22.76741234375,21.655952343750002,22.25813234375,21.655952343750002,21.62991234375C21.655952343750002,21.001682343749998,21.146752343750002,20.49241234375,20.51845234375,20.49241234375C19.89025234375,20.49241234375,19.38095234375,21.001682343749998,19.38095234375,21.62991234375C19.38095234375,22.25813234375,19.89025234375,22.76741234375,20.51845234375,22.76741234375ZM20.52735234375,26.57345234375L21.79185234375,27.83185234375C21.93945234375,27.97875234375,22.13915234375,28.061152343750003,22.34735234375,28.061152343750003L22.349252343750003,28.061152343750003C22.558152343750002,28.06065234375,22.75825234375,27.97715234375,22.90555234375,27.82915234375C23.052452343749998,27.68155234375,23.134852343749998,27.48185234375,23.134852343749998,27.27365234375L23.134852343749998,27.271752343750002C23.134352343750002,27.062852343750002,23.050952343749998,26.86275234375,22.90285234375,26.71545234375L21.082852343749998,24.90421234375C20.77565234375,24.598452343749997,20.27905234375,24.59846234375,19.97185234375,24.90424234375L18.66819234375,26.201762343749998L16.24871234375,23.75382234375C16.101892343750002,23.605272343750002,15.90208234375,23.52113234375,15.69322234375,23.51991234375C15.48437234375,23.51869234375,15.28358234375,23.60049234375,15.135042343750001,23.74731234375L12.09814234375,26.75795234375C11.94962234375,26.90515234375,11.86578234375,27.10515234375,11.864872343750001,27.31395234375L11.864872343750001,27.31695234375C11.864872343750001,27.32885234375,11.86512234375,27.34035234375,11.865622343750001,27.35185234375C11.87417234375,27.547452343750003,11.95528234375,27.73275234375,12.09311234375,27.87185234375C12.24098234375,28.02095234375,12.44232234375,28.10485234375,12.65237234375,28.10485234375C12.66482234375,28.10485234375,12.67726234375,28.10465234375,12.68970234375,28.10405234375C12.88425234375,28.094752343750002,13.068472343749999,28.01375234375,13.20679234375,27.87665234375L15.68294234375,25.421922343749998L18.10352234375,27.870952343749998L18.10546234375,27.87295234375C18.41227234375,28.18115234375,18.91089234375,28.18235234375,19.21915234375,27.87555234375L20.52735234375,26.57345234375Z" fill-rule="evenodd" fill="#E7E8E8" fill-opacity="1"/></g></g></g></svg>