<svg xmlns="http://www.w3.org/2000/svg" xmlns:xlink="http://www.w3.org/1999/xlink" fill="none" version="1.1" width="35" height="40" viewBox="0 0 35 40"><g><g><path d="M0,2.5L0,37.5C0,38.8807,1.11929,40,2.5,40L32.5,40C33.8807,40,35,38.8807,35,37.5L35,12L29,6L23,0L2.5,0C1.11929,0,0,1.11929,0,2.5Z" fill="#E16A4A" fill-opacity="1"/></g><g><path d="M23,9.5C23,10.8807,24.11929,12,25.5,12L35,12L23,0L23,9.5Z" fill="#FFFFFF" fill-opacity="0.25"/></g><g><path d="M12.359375,21.3372802734375L12.359375,34.6627802734375L14.388885,34.6627802734375L14.388885,29.473570273437502L17.846355,29.473570273437502C21.036455,29.473570273437502,22.640575,28.1124502734375,22.640575,25.3902302734375C22.640575,22.6801602734375,21.054685,21.3372802734375,17.882815,21.3372802734375L12.359375,21.3372802734375ZM14.388885,23.0751302734375L17.712675,23.0751302734375C18.703125,23.0751302734375,19.432295,23.2574202734375,19.900175,23.6341602734375C20.368055,23.9683602734375,20.611114999999998,24.5638402734375,20.611114999999998,25.3902302734375C20.611114999999998,26.210540273437502,20.368055,26.8060302734375,19.918405,27.182770273437498C19.450525,27.5534302734375,18.721355,27.741790273437502,17.712675,27.741790273437502L14.388885,27.741790273437502L14.388885,23.0751302734375Z" fill="#FFFFFF" fill-opacity="1"/></g></g></svg>