<svg xmlns="http://www.w3.org/2000/svg" xmlns:xlink="http://www.w3.org/1999/xlink" fill="none" version="1.1" width="39.40625" height="16.5703125" viewBox="0 0 39.40625 16.5703125"><g><rect x="0" y="0" width="39.395999908447266" height="16.56800079345703" rx="8.284000396728516" fill="#1D74F5" fill-opacity="0.07999999821186066"/><g><path d="M6,4L6,12.568L7.308,12.568L7.308,6.1240000000000006L7.356,6.1240000000000006L11.783999999999999,12.568L13.056000000000001,12.568L13.056000000000001,4L11.748000000000001,4L11.748000000000001,10.372L11.7,10.372L7.32,4L6,4ZM14.988,4L14.988,12.568L21.348,12.568L21.348,11.452L16.296,11.452L16.296,8.728L20.856,8.728L20.856,7.612L16.296,7.612L16.296,5.116L21.144,5.116L21.144,4L14.988,4ZM22.14,4L24.6,12.568L26.004,12.568L27.744,5.9559999999999995L27.792,5.9559999999999995L29.532,12.568L30.924,12.568L33.396,4L31.92,4L30.252,10.672L30.204,10.672L28.452,4L27.084,4L25.332,10.672L25.284,10.672L23.616,4L22.14,4Z" fill="#1D74F5" fill-opacity="1"/></g></g></svg>