<svg xmlns="http://www.w3.org/2000/svg" xmlns:xlink="http://www.w3.org/1999/xlink" fill="none" version="1.1" width="12" height="12" viewBox="0 0 12 12"><g><g><path d="M6.50905,1.31227125Q6.50977,1.29872315,6.50977,1.28515625Q6.50977,1.23443315,6.49987,1.18468425Q6.48998,1.13493625,6.47056,1.08807425Q6.45115,1.04121225,6.42297,0.99903725Q6.39479,0.95686325,6.35893,0.92099625Q6.32306,0.88512925,6.28089,0.85694925Q6.23871,0.82876925,6.19185,0.8093582500000001Q6.14499,0.78994725,6.09524,0.78005225Q6.04549,0.77015625,5.99477,0.77015625Q5.94404,0.77015625,5.8943,0.78005225Q5.84455,0.78994725,5.79769,0.8093582500000001Q5.75082,0.82876925,5.70865,0.85694925Q5.66647,0.88512925,5.63061,0.92099625Q5.59474,0.95686325,5.56656,0.99903725Q5.53838,1.04121225,5.51897,1.08807425Q5.49956,1.13493625,5.48966,1.18468425Q5.47977,1.23443315,5.47977,1.28515625Q5.47977,1.29872315,5.48048,1.31227125L5.48048,5.48438625L1.308365,5.48438625Q1.2948169,5.48367625,1.28125,5.48367625Q1.2305269,5.48367625,1.180778,5.49356625Q1.13103,5.50346625,1.084168,5.52287625Q1.037306,5.54228625,0.995131,5.57046625Q0.952957,5.59864625,0.91709,5.63451625Q0.881223,5.67037625,0.853043,5.71255625Q0.824863,5.75472625,0.8054520000000001,5.80159625Q0.786041,5.84845625,0.776146,5.89820625Q0.76625,5.94794625,0.76625,5.99867625Q0.76625,6.04939625,0.776146,6.09914625Q0.786041,6.14889625,0.8054520000000001,6.19575625Q0.824863,6.24261625,0.853043,6.28479625Q0.881223,6.32696625,0.91709,6.36283625Q0.952957,6.39869625,0.995131,6.42687625Q1.037306,6.45505625,1.084168,6.47447625Q1.13103,6.49388625,1.180778,6.50377625Q1.2305269,6.51367625,1.28125,6.51367625Q1.2948169,6.51367625,1.308365,6.51295625L5.48048,6.51295625L5.48048,10.68661625Q5.47977,10.70015625,5.47977,10.71372625Q5.47977,10.76444625,5.48966,10.81419625Q5.49956,10.86394625,5.51897,10.91080625Q5.53838,10.95766625,5.56656,10.99984625Q5.59474,11.04201625,5.63061,11.07788625Q5.66647,11.11375625,5.70865,11.14193625Q5.75082,11.17011625,5.79769,11.18952625Q5.84455,11.20893625,5.8943,11.21882625Q5.94404,11.22872625,5.99477,11.22872625Q6.04549,11.22872625,6.09524,11.21882625Q6.14499,11.20893625,6.19185,11.18952625Q6.23871,11.17011625,6.28089,11.14193625Q6.32306,11.11375625,6.35893,11.07788625Q6.39479,11.04201625,6.42297,10.99984625Q6.45115,10.95766625,6.47057,10.91080625Q6.48998,10.86394625,6.49987,10.81419625Q6.50977,10.76444625,6.50977,10.71372625Q6.50977,10.70015625,6.50905,10.68661625L6.50905,6.51295625L10.68271,6.51295625Q10.69625,6.51367625,10.70982,6.51367625Q10.76054,6.51367625,10.81029,6.50377625Q10.86004,6.49388625,10.9069,6.47446625Q10.95376,6.45505625,10.99594,6.42687625Q11.03811,6.39869625,11.07398,6.36283625Q11.10985,6.32696625,11.13803,6.28479625Q11.16621,6.24261625,11.18562,6.19575625Q11.20503,6.14889625,11.21492,6.09914625Q11.22482,6.04939625,11.22482,5.99867625Q11.22482,5.94794625,11.21492,5.89820625Q11.20503,5.84845625,11.18562,5.80159625Q11.16621,5.75472625,11.13803,5.71255625Q11.10985,5.67037625,11.07398,5.63451625Q11.03811,5.59864625,10.99594,5.57046625Q10.95376,5.54228625,10.9069,5.52287625Q10.86004,5.50346625,10.81029,5.49356625Q10.76054,5.48367625,10.70982,5.48367625Q10.69625,5.48367625,10.68271,5.48438625L6.50905,5.48438625L6.50905,1.31227125Z" fill-rule="evenodd" fill="#1D74F5" fill-opacity="1"/></g></g></svg>