<svg xmlns="http://www.w3.org/2000/svg" xmlns:xlink="http://www.w3.org/1999/xlink" fill="none" version="1.1" width="16" height="16" viewBox="0 0 16 16"><g><g><path d="M12.0752,2.2578199999999997Q11.0674,1.25,9.64208,1.25Q8.216809999999999,1.25,7.20899,2.2578199999999997Q6.20117,3.26564,6.20117,4.690910000000001Q6.20117,6.11618,7.20899,7.124Q8.216809999999999,8.131820000000001,9.64208,8.131820000000001Q11.0674,8.131820000000001,12.0752,7.124Q13.083,6.11618,13.083,4.690910000000001Q13.083,3.26564,12.0752,2.2578199999999997ZM5.65686,8.13181Q6.2724,8.13181,6.79179,7.89968Q6.69842,7.81563,6.60785,7.72506Q6.10026,7.21747,5.79768,6.62496Q5.72868,6.63181,5.65686,6.63181Q5.12403,6.63181,4.74726,6.25504Q4.3705,5.87828,4.3705,5.34545Q4.3705,4.81262,4.74727,4.43585Q5.02578,4.15733,5.38958,4.0847Q5.4965,3.26508,5.90034,2.56845Q5.78054,2.55908,5.65686,2.55908Q4.50271,2.55908,3.6866,3.37519Q2.8705,4.1913,2.8705,5.34545Q2.8705,6.4996,3.6866,7.3157Q4.50271,8.13181,5.65686,8.13181ZM8.26965,3.31848Q8.83813,2.75,9.64208,2.75Q10.44603,2.75,11.0145,3.31848Q11.583,3.88696,11.583,4.690910000000001Q11.583,5.49486,11.0145,6.06334Q10.44603,6.63182,9.64208,6.63182Q8.83813,6.63182,8.26965,6.06334Q7.70117,5.49486,7.70117,4.690910000000001Q7.70117,3.88696,8.26965,3.31848ZM4.165039999999999,14C4.165039999999999,14.4142,4.5008300000000006,14.75,4.91504,14.75L14.3696,14.75C14.7838,14.75,15.1196,14.4142,15.1196,14Q15.1196,11.7312,13.5153,10.12696Q11.9111,8.52271,9.64231,8.52271Q7.37355,8.52271,5.7693,10.12696Q4.165039999999999,11.7312,4.165039999999999,14ZM5.64217,8.70837Q5.88695,8.70837,6.12246,8.72945Q5.62194,9.07217,5.16816,9.52595Q4.731920000000001,9.96218,4.39837,10.44095Q3.7526,10.70408,3.23763,11.2649Q2.50816,12.0593,2.39615,13.0644L3.3773,13.0644Q3.31494,13.5193,3.31494,14Q3.31494,14.3024,3.41249,14.5644L1.6421700000000001,14.5644C1.252682,14.5644,0.9280124,14.2662,0.894887,13.8781Q0.716843,11.7923,2.13278,10.25033Q3.54873,8.70837,5.64217,8.70837ZM13.5548,13.25Q13.3449,12.0779,12.4547,11.18762Q11.2898,10.02271,9.64231,10.02271Q7.99487,10.0227,6.82996,11.18762Q5.93969,12.0779,5.72979,13.25L13.5548,13.25Z" fill-rule="evenodd" fill="#333333" fill-opacity="1"/></g></g></svg>