<svg xmlns="http://www.w3.org/2000/svg" xmlns:xlink="http://www.w3.org/1999/xlink" fill="none" version="1.1" width="24" height="24" viewBox="0 0 24 24"><g><g><g><path d="M18.648328125,11.192847661132813Q18.224228125,11.474307661132812,18.224228125,12.000037661132811Q18.224228125,12.525767661132813,18.648328125,12.807227661132812Q19.946228124999998,13.246707661132813,20.122528125000002,13.951857661132813Q20.146928125000002,14.049337661132812,20.147128125000002,14.149827661132813Q20.148828125,15.336227661132812,19.556428125,16.364127661132812Q18.963928125000002,17.392027661132815,17.936428125,17.98522766113281Q17.839428124999998,18.04122766113281,17.731028125,18.069227661132814Q17.051728125,18.244527661132814,16.026628125000002,17.35742766113281Q15.568828125,17.12692766113281,15.110928125,17.39102766113281Q14.653648125,17.65472766113281,14.623248125,18.16522766113281Q14.884128125,19.502227661132814,14.380548125,20.005727661132813Q14.304088125,20.082227661132812,14.210458125,20.136227661132814Q13.184498125,20.728627661132812,11.999828125,20.728627661132812Q10.815158125,20.728627661132812,9.789208125,20.136227661132814Q9.680468125,20.07342766113281,9.595448125,19.981027661132813Q9.118628125,19.462827661132813,9.376338125,18.16392766113281Q9.345448125,17.65432766113281,8.888778125,17.39102766113281Q8.430848125,17.12692766113281,7.973058125,17.35742766113281Q6.947978125000001,18.244527661132814,6.268628125,18.069227661132814Q6.1601881249999995,18.04122766113281,6.063208125,17.98522766113281Q5.035740125,17.392027661132815,4.443288125,16.364127661132812Q3.850836125,15.336227661132812,3.852584125,14.149827661132813Q3.852732125,14.049337661132812,3.877103125,13.951857661132813Q4.053391125,13.246707661132813,5.351303125,12.807227661132812Q5.775398125,12.525767661132813,5.775398125,12.000037661132811Q5.775398125,11.474307661132812,5.351310125,11.192847661132813Q4.053391125,10.753367661132813,3.877103125,10.048217661132814Q3.852732125,9.950737661132813,3.852584125,9.850247661132812Q3.850835125,8.663827661132814,4.443287125,7.635927661132813Q5.035740125,6.608017661132813,6.063208125,6.014807661132813Q6.1601881249999995,5.958817661132812,6.268618125,5.930837661132813Q6.947978125000001,5.755517661132813,7.973058125,6.642647661132813Q8.430848125,6.873127661132813,8.888778125,6.609067661132812Q9.346018125,6.345387661132813,9.376418125,5.834837661132813Q9.115578124999999,4.4978656611328125,9.619118125,3.9943255611328126Q9.695568125000001,3.9178726611328125,9.789208125,3.8638126611328123Q10.815158125,3.2714776611328125,11.999828125,3.2714776611328125Q13.184508125,3.2714776611328125,14.210458125,3.8638126611328123Q14.319198125,3.9265956611328123,14.404218125,4.019003661132812Q14.881028125,4.537285661132812,14.623328125,5.836097661132813Q14.654208125,6.345717661132813,15.110928125,6.609067661132812Q15.568828125,6.873137661132812,16.026628125000002,6.642637661132813Q17.051728125,5.755517661132813,17.731028125,5.930837661132813Q17.839428124999998,5.958817661132812,17.936428125,6.014807661132813Q18.963928125000002,6.608017661132813,19.556428125,7.635927661132813Q20.148828125,8.663827661132814,20.147128125000002,9.850247661132812Q20.146928125000002,9.950727661132813,20.122528125000002,10.048217661132814Q19.946228124999998,10.753367661132813,18.648328125,11.192847661132813ZM18.484128124999998,9.500057661132812Q18.315528125,9.575527661132814,18.049028125,9.661027661132813Q17.964528125,9.688127661132812,17.887728125000002,9.732657661132812Q17.255928125,10.099177661132813,16.908528125,10.727227661132812Q16.581728124999998,11.318107661132814,16.581728124999998,12.000037661132811Q16.581728124999998,12.681967661132813,16.908528125,13.272847661132813Q17.255928125,13.900887661132813,17.887728125000002,14.267427661132812Q17.964528125,14.311927661132813,18.049028125,14.339027661132812Q18.315528125,14.424527661132812,18.484128124999998,14.500027661132812Q18.417428125,15.051027661132812,18.133328125,15.543927661132813Q17.851128125000002,16.033527661132812,17.412028125,16.366127661132815Q17.258828125,16.25642766113281,17.046328125000002,16.067027661132812Q16.983428125,16.01092766113281,16.910428125,15.968827661132812Q16.276828125,15.602927661132812,15.558028125,15.615327661132813Q14.882028125,15.626927661132813,14.290368125,15.968127661132813Q13.698758125,16.309327661132812,13.350038125,16.888627661132812Q12.979328125,17.504527661132812,12.978588125,18.236227661132812Q12.978498125,18.32232766113281,12.996278125,18.406627661132813Q13.054928125,18.68452766113281,13.073488125,18.871227661132814Q12.565438125,19.086127661132814,11.999828125,19.086127661132814Q11.433818125,19.086127661132814,10.925438125,18.87092766113281Q10.943448125,18.685527661132813,11.002738125,18.409627661132813Q11.021168124999999,18.323927661132814,11.021078124999999,18.236227661132812Q11.020328124999999,17.504527661132812,10.649628125,16.888627661132812Q10.300908125,16.309327661132812,9.709298125,15.968127661132813Q9.117678125000001,15.626927661132813,8.441588124999999,15.615327661132813Q7.722868125,15.602927661132812,7.089208125,15.968827661132812Q7.016218125,16.01092766113281,6.9533081249999995,16.067027661132812Q6.740858125,16.25642766113281,6.587678125,16.36622766113281Q6.148508125,16.033527661132812,5.866338125,15.543927661132813Q5.582213125,15.051027661132812,5.5155291250000005,14.500027661132812Q5.684098125,14.424527661132812,5.950668125,14.339027661132812Q6.035158125,14.311927661132813,6.111908125,14.267427661132812Q6.743768125,13.900887661132813,7.091108125,13.272847661132813Q7.417898125,12.681967661132813,7.417898125,12.000037661132811Q7.417898125,11.318107661132814,7.091108125,10.727227661132812Q6.743768125,10.099177661132813,6.111908125,9.732657661132812Q6.035158125,9.688127661132812,5.950668125,9.661027661132813Q5.684098125,9.575527661132814,5.515528125,9.500057661132812Q5.582211125,8.949087661132811,5.866338125,8.456127661132813Q6.148508125,7.966567661132812,6.587678125,7.633897661132813Q6.740858125,7.743617661132813,6.9533081249999995,7.9330276611328125Q7.016218125,7.989117661132813,7.089208125,8.031257661132813Q7.722868125,8.397107661132813,8.441598125,8.384737661132814Q9.117678125000001,8.373097661132812,9.709298125,8.031927661132812Q10.300908125,7.690767661132813,10.649628125,7.111437661132813Q11.020328124999999,6.495567661132812,11.021078124999999,5.763877661132812Q11.021168124999999,5.677747661132813,11.003388125,5.5934776611328125Q10.944738125,5.315507661132813,10.926178125,5.128817661132812Q11.434218125000001,4.9139776611328125,11.999828125,4.9139776611328125Q12.565848124999999,4.9139776611328125,13.074228125,5.129117661132812Q13.056218125,5.314587661132812,12.996928125,5.590447661132813Q12.978498125,5.676187661132813,12.978588125,5.763877661132812Q12.979328125,6.495567661132812,13.350038125,7.111437661132813Q13.698758125,7.690767661132813,14.290368125,8.031927661132812Q14.882028125,8.373097661132812,15.558028125,8.384737661132814Q16.276828125,8.397107661132813,16.910428125,8.031257661132813Q16.983428125,7.989117661132813,17.046328125000002,7.9330276611328125Q17.258828125,7.743617661132813,17.412028125,7.633897661132813Q17.851128125000002,7.966567661132812,18.133328125,8.456127661132813Q18.417428125,8.949087661132811,18.484128124999998,9.500057661132812ZM14.298758125,9.701037661132812Q13.346488125,8.748767661132813,11.999778124999999,8.748767661132813Q10.653058125000001,8.748767661132813,9.700798125,9.701037661132812Q8.748528125,10.653307661132812,8.748528125,12.000017661132812Q8.748528125,13.346727661132812,9.700798125,14.299027661132813Q10.653058125000001,15.251227661132813,11.999778124999999,15.251227661132813Q13.346488125,15.251227661132813,14.298758125,14.299027661132813Q15.251028125,13.346727661132812,15.251028125,12.000017661132812Q15.251028125,10.653307661132812,14.298758125,9.701037661132812ZM10.862218125,10.862457661132812Q11.333408125,10.391267661132812,11.999778124999999,10.391267661132812Q12.666138125,10.391267661132812,13.137328125,10.862457661132812Q13.608528125,11.333647661132812,13.608528125,12.000017661132812Q13.608528125,12.666387661132813,13.137328125,13.137577661132813Q12.666138125,13.608767661132813,11.999778124999999,13.608767661132813Q11.333408125,13.608767661132813,10.862218125,13.137577661132813Q10.391028125,12.666387661132813,10.391028125,12.000017661132812Q10.391028125,11.333647661132812,10.862218125,10.862457661132812Z" fill-rule="evenodd" fill="#333333" fill-opacity="1"/></g></g></g></svg>