<svg xmlns="http://www.w3.org/2000/svg" xmlns:xlink="http://www.w3.org/1999/xlink" fill="none" version="1.1" width="16" height="16" viewBox="0 0 16 16"><defs><clipPath id="master_svg0_1837_01513"><rect x="0" y="0" width="16" height="16" rx="0"/></clipPath></defs><g clip-path="url(#master_svg0_1837_01513)"><g><path d="M9.15951625,1.181384Q7.99974625,0.5373950000000001,6.84538625,1.178357L6.83998625,1.181384L2.98398425,3.365385Q2.92142325,3.4008149999999997,2.86697725,3.447775Q2.81253125,3.494735,2.76829225,3.551415Q2.72405325,3.608085,2.6917222499999998,3.672305Q2.65939025,3.736525,2.64020825,3.805815Q2.62102725,3.875115,2.6157322499999998,3.946815Q2.61043725,4.018515,2.61923325,4.089875Q2.62802825,4.161235,2.65057625,4.229505Q2.67312425,4.297785,2.70855825,4.360345000000001Q2.80556325,4.531615,2.9755202499999998,4.630895000000001L7.63151625,7.350895Q7.71532625,7.399855,7.80900625,7.425215Q7.90269625,7.450575,7.99974625,7.450575Q8.09680625,7.450575,8.190496249999999,7.425215Q8.28417625,7.399855,8.36797625,7.350895L13.02400625,4.630895000000001Q13.08610625,4.594635,13.13990625,4.546945Q13.19370625,4.499264999999999,13.23720625,4.442005Q13.28060625,4.384735,13.31210625,4.320095Q13.34360625,4.255445,13.36180625,4.185905Q13.38010625,4.116355,13.38440625,4.044595Q13.38870625,3.972825,13.37900625,3.901585Q13.36930625,3.830355,13.34580625,3.762395Q13.32230625,3.694425,13.28610625,3.632345Q13.18680625,3.4623850000000003,13.01550625,3.365385L9.15951625,1.181384ZM7.55650625,2.4534700000000003L4.80770625,4.010365L7.99974625,5.875135L11.19179625,4.010365L8.43998625,2.4517670000000003Q8.00092625,2.208014,7.55650625,2.4534700000000003ZM1.46154625,6.336575L1.46154625,10.764155Q1.45445625,11.400985,1.77262625,11.953075Q2.09210435,12.507475,2.64991125,12.820975L6.48267625,15.032875Q6.54494625,15.068775,6.61303625,15.091875Q6.68112625,15.114975,6.75240625,15.124375Q6.82369625,15.133675,6.89543625,15.128975Q6.96717625,15.124275,7.03662625,15.105675Q7.10607625,15.087075,7.17054625,15.055175Q7.23502625,15.023375,7.29205625,14.979675Q7.34908625,14.935875,7.39648625,14.881775Q7.44388625,14.827675,7.47981625,14.765475Q7.57754625,14.596075,7.57754625,14.400575L7.57754625,9.024574999999999Q7.57754625,8.928465,7.55267625,8.835625Q7.52779625,8.742795000000001,7.47974625,8.659565Q7.43168625,8.576335,7.36372625,8.508375000000001Q7.29576625,8.440415,7.21253625,8.392365L2.55653225,5.704365Q2.4942652499999998,5.668415,2.42618125,5.645305Q2.35809825,5.622195,2.28681395,5.612815Q2.21553015,5.603435,2.14378545,5.608135Q2.07204125,5.612845,2.00259225,5.631455Q1.93314425,5.650065,1.86866025,5.681865Q1.80417725,5.713665,1.74713725,5.757435Q1.69009725,5.801205,1.64269225,5.855265Q1.5952872500000002,5.909315,1.5593392499999998,5.971585Q1.46154625,6.140975,1.46154625,6.336575ZM14.52160625,10.763685Q14.53120625,11.394805,14.22050625,11.944875Q13.90750625,12.498875,13.35640625,12.816875L9.51643625,15.032875Q9.34708625,15.130575,9.15156625,15.130575Q9.079666249999999,15.130575,9.00914625,15.116575Q8.93862625,15.102475,8.87220625,15.074975Q8.805776250000001,15.047475,8.745996250000001,15.007575Q8.686216250000001,14.967575,8.63537625,14.916775Q8.58453625,14.865875,8.54458625,14.806175Q8.50464625,14.746375,8.477126250000001,14.679975Q8.44961625,14.613475,8.43558625,14.542975Q8.42156625,14.472475,8.42156625,14.400575L8.42156625,9.024574999999999Q8.42156625,8.928465,8.44643625,8.835625Q8.471316250000001,8.742795000000001,8.519366250000001,8.659565Q8.56742625,8.576335,8.63538625,8.508375000000001Q8.70334625,8.440415,8.78657625,8.392365L13.44260625,5.704365Q13.61320625,5.605865,13.81020625,5.606574999999999Q13.95540625,5.607105,14.08930625,5.663155Q14.22330625,5.719205,14.32560625,5.822255Q14.42790625,5.925295,14.48300625,6.059645Q14.53810625,6.194005,14.53760625,6.339205L14.52160625,10.763685ZM13.07300625,7.603575L13.06160625,10.765935Q13.06150625,10.774145,13.06170625,10.782345Q13.07140625,11.295675,12.62670625,11.552305L9.881566249999999,13.136475L9.881566249999999,9.446045L13.07300625,7.603575ZM3.36518625,11.548175Q2.91464725,11.294995,2.92148325,10.778225L2.92154625,10.768575L2.92154625,7.600935L6.11754625,9.446045L6.11754625,13.136475L3.36518625,11.548175Z" fill-rule="evenodd" fill="#333333" fill-opacity="1"/></g></g></svg>