<svg xmlns="http://www.w3.org/2000/svg" xmlns:xlink="http://www.w3.org/1999/xlink" fill="none" version="1.1" width="16" height="16" viewBox="0 0 16 16"><defs><clipPath id="master_svg0_1753_02929"><rect x="0" y="0" width="16" height="16" rx="0"/></clipPath></defs><g clip-path="url(#master_svg0_1753_02929)"><g><path d="M14.126023199081422,13.84035625L14.126023199081422,4.31369625L14.126023199081422,4.31239625Q14.12972319908142,3.09959825,13.267023199081422,2.24647865Q12.403383199081421,1.3923462500000001,11.18884319908142,1.41048425L2.6240394115814207,1.41040025Q2.550170899081421,1.41040025,2.477721199081421,1.4248112499999999Q2.4052721990814208,1.43922225,2.337027199081421,1.4674912500000001Q2.268781199081421,1.4957592499999999,2.207362199081421,1.53679825Q2.145942199081421,1.57783725,2.093709199081421,1.6300702500000002Q2.041476199081421,1.68230325,2.000437199081421,1.74372325Q1.9593981990814209,1.80514225,1.931130199081421,1.87338825Q1.9028611990814208,1.94163325,1.8884501990814209,2.01408225Q1.874039199081421,2.08653185,1.874039199081421,2.160400391L1.874039199081421,11.68839625Q1.8693781990814209,12.90015625,2.733036199081421,13.75435625Q3.596694199081421,14.60845625,4.811243199081421,14.59035625L13.376023199081422,14.59035625Q13.449923199081422,14.59035625,13.522323199081422,14.57595625Q13.594823199081421,14.56155625,13.66302319908142,14.53335625Q13.731323199081421,14.50505625,13.79272319908142,14.46395625Q13.854123199081421,14.42295625,13.90632319908142,14.37075625Q13.958623199081421,14.31845625,13.999623199081421,14.25705625Q14.040723199081421,14.19565625,14.068923199081421,14.12745625Q14.097223199081421,14.05915625,14.111623199081421,13.98675625Q14.126023199081422,13.91425625,14.126023199081422,13.84035625ZM12.212283199081421,3.31300625Q12.628323199081422,3.72442625,12.626023199081422,4.30951625L12.626023199081422,4.31239625L12.626023199081422,13.09045625L4.7888431990814215,13.09045625Q4.203813199081421,13.09925625,3.787793199081421,12.68775625Q3.371786199081421,12.27635625,3.374039199081421,11.68839625L3.374039199081421,2.9103932500000003L11.211243199081421,2.91031725Q11.796273199081421,2.90158025,12.212283199081421,3.31300625ZM6.08007319908142,7.21436625L9.920073199081422,7.21436625Q9.993943199081421,7.21436625,10.066393199081421,7.19995625Q10.138843199081421,7.18554625,10.20709319908142,7.15727625Q10.27533319908142,7.12900625,10.336753199081421,7.08797625Q10.39817319908142,7.04693625,10.450403199081421,6.99469625Q10.50264319908142,6.94246625,10.543683199081421,6.88104625Q10.58472319908142,6.81962625,10.61298319908142,6.75138625Q10.64125319908142,6.68313625,10.65566319908142,6.61068625Q10.67007319908142,6.53823625,10.67007319908142,6.46436625Q10.67007319908142,6.39050625,10.65566319908142,6.31805625Q10.64125319908142,6.24560625,10.61298319908142,6.17735625Q10.58472319908142,6.10911625,10.543683199081421,6.0476962499999996Q10.50264319908142,5.9862762499999995,10.450403199081421,5.93403625Q10.39817319908142,5.88180625,10.336753199081421,5.84076625Q10.27533319908142,5.79972625,10.20709319908142,5.77145625Q10.138843199081421,5.7431962500000004,10.066393199081421,5.72877625Q9.993943199081421,5.714366249999999,9.920073199081422,5.714366249999999L6.08007319908142,5.714366249999999Q6.0062131990814205,5.714366249999999,5.933763199081421,5.728786250000001Q5.861313199081421,5.7431962500000004,5.793063199081421,5.77145625Q5.7248231990814205,5.79972625,5.66340319908142,5.84076625Q5.60198319908142,5.88180625,5.549743199081421,5.93403625Q5.497513199081421,5.9862762499999995,5.456473199081421,6.0476962499999996Q5.415433199081421,6.10911625,5.387163199081421,6.17735625Q5.358903199081421,6.24560625,5.3444931990814215,6.31805625Q5.33007319908142,6.39050625,5.33007319908142,6.46436625Q5.33007319908142,6.53823625,5.3444931990814215,6.61068625Q5.358903199081421,6.68313625,5.3871731990814204,6.75138625Q5.415433199081421,6.81962625,5.456473199081421,6.88104625Q5.497513199081421,6.94246625,5.549743199081421,6.99469625Q5.60198319908142,7.04693625,5.66340319908142,7.08797625Q5.7248231990814205,7.12900625,5.793063199081421,7.15727625Q5.861313199081421,7.18554625,5.933763199081421,7.19995625Q6.0062131990814205,7.21436625,6.08007319908142,7.21436625ZM6.08007319908142,10.28632625L9.920073199081422,10.28632625Q9.993943199081421,10.28632625,10.066393199081421,10.27191625Q10.138843199081421,10.25750625,10.20709319908142,10.22923625Q10.27533319908142,10.20096625,10.336753199081421,10.159936250000001Q10.39817319908142,10.118896249999999,10.450403199081421,10.066656250000001Q10.50264319908142,10.01442625,10.543683199081421,9.95300625Q10.58472319908142,9.89158625,10.61298319908142,9.82334625Q10.64125319908142,9.755096250000001,10.65566319908142,9.682646250000001Q10.67007319908142,9.610196250000001,10.67007319908142,9.53632625Q10.67007319908142,9.462456249999999,10.65566319908142,9.39001625Q10.64125319908142,9.317566249999999,10.61298319908142,9.24931625Q10.58472319908142,9.18107625,10.543683199081421,9.11965625Q10.50264319908142,9.05823625,10.450403199081421,9.005996249999999Q10.39817319908142,8.953766250000001,10.336753199081421,8.91272625Q10.27533319908142,8.87168625,10.20709319908142,8.84341625Q10.138843199081421,8.815156250000001,10.066393199081421,8.80074625Q9.993943199081421,8.78632625,9.920073199081422,8.78632625L6.08007319908142,8.78632625Q6.0062131990814205,8.78632625,5.933763199081421,8.80073625Q5.861313199081421,8.815156250000001,5.793063199081421,8.84341625Q5.7248231990814205,8.87168625,5.66340319908142,8.91272625Q5.60198319908142,8.953766250000001,5.549743199081421,9.005996249999999Q5.497513199081421,9.05823625,5.456473199081421,9.11965625Q5.415433199081421,9.18107625,5.387163199081421,9.24931625Q5.358903199081421,9.317566249999999,5.3444931990814215,9.39001625Q5.33007319908142,9.462456249999999,5.33007319908142,9.53632625Q5.33007319908142,9.610196250000001,5.3444931990814215,9.682646250000001Q5.358903199081421,9.755096250000001,5.3871731990814204,9.82334625Q5.415433199081421,9.89158625,5.456473199081421,9.95300625Q5.497513199081421,10.01442625,5.549743199081421,10.066656250000001Q5.60198319908142,10.118896249999999,5.66340319908142,10.159936250000001Q5.7248231990814205,10.20096625,5.793063199081421,10.22923625Q5.861313199081421,10.25750625,5.933763199081421,10.27191625Q6.0062131990814205,10.28632625,6.08007319908142,10.28632625Z" fill-rule="evenodd" fill="#333333" fill-opacity="1"/></g></g></svg>