<svg xmlns="http://www.w3.org/2000/svg" xmlns:xlink="http://www.w3.org/1999/xlink" fill="none" version="1.1" width="16" height="16" viewBox="0 0 16 16"><g><g><path d="M7.24998,13.5L7.24998,8.75001L2.5,8.75001C2.085786,8.75001,1.75,8.41422,1.75,8.00001C1.75,7.58579,2.085786,7.25001,2.5,7.25001L7.24998,7.25001L7.24998,2.5C7.24998,2.085786,7.58576,1.75,7.99998,1.75C8.41419,1.75,8.74998,2.085786,8.74998,2.5L8.74998,7.25001L13.5,7.25001C13.9142,7.25001,14.25,7.58579,14.25,8.00001C14.25,8.41422,13.9142,8.75001,13.5,8.75001L8.74998,8.75001L8.74998,13.5C8.74998,13.9142,8.41419,14.25,7.99998,14.25C7.58576,14.25,7.24998,13.9142,7.24998,13.5Z" fill-rule="evenodd" fill="#333333" fill-opacity="1"/></g></g></svg>