<svg xmlns="http://www.w3.org/2000/svg" xmlns:xlink="http://www.w3.org/1999/xlink" fill="none" version="1.1" width="16" height="16" viewBox="0 0 16 16"><defs><clipPath id="master_svg0_1194_2796"><rect x="0" y="0" width="16" height="16" rx="0"/></clipPath></defs><g clip-path="url(#master_svg0_1194_2796)"><g><rect x="2" y="6" width="12" height="9" rx="2" fill-opacity="0" stroke-opacity="1" stroke="#999999" fill="none" stroke-width="1.5"/></g><g><path d="M8.5,10.36603Q8.61401,10.3002,8.70711,10.20711Q8.8002,10.11401,8.86603,10Q8.93185,9.88599,8.96593,9.75882Q9,9.63165,9,9.5Q9,9.401509,8.98079,9.30491Q8.96157,9.208311,8.92388,9.117316Q8.88619,9.026322,8.83147,8.94443Q8.77675,8.862537,8.70711,8.792893Q8.63746,8.723249,8.55557,8.66853Q8.47368,8.613811,8.38268,8.5761205Q8.29169,8.5384294,8.19509,8.5192147Q8.09849,8.5,8,8.5Q7.901509,8.5,7.80491,8.5192147Q7.708311,8.5384294,7.617316,8.5761205Q7.526322,8.613811,7.44443,8.66853Q7.362537,8.723249,7.292893,8.792893Q7.223249,8.862537,7.16853,8.94443Q7.113811,9.026322,7.0761205,9.117316Q7.0384294,9.208311,7.0192147,9.30491Q7,9.401509,7,9.5Q7,9.63165,7.0340742,9.75882Q7.0681484,9.88599,7.133975,10Q7.199801,10.11401,7.292893,10.20711Q7.385986,10.3002,7.5,10.36603L7.5,12Q7.5,12.04925,7.509607,12.09754Q7.519215,12.14584,7.53806,12.19134Q7.556906,12.23684,7.584265,12.27778Q7.611625,12.31873,7.646447,12.35355Q7.681269,12.38838,7.722215,12.41573Q7.763161,12.44309,7.808658,12.46194Q7.854155,12.48078,7.902455,12.49039Q7.950754,12.5,8,12.5Q8.04925,12.5,8.09755,12.49039Q8.14584,12.48078,8.19134,12.46194Q8.23684,12.44309,8.27779,12.41573Q8.31873,12.38838,8.35355,12.35355Q8.38838,12.31873,8.41573,12.27778Q8.44309,12.23684,8.46194,12.19134Q8.48079,12.14584,8.49039,12.09754Q8.5,12.04925,8.5,12L8.5,10.36603Z" fill-rule="evenodd" fill="#999999" fill-opacity="1"/><path d="M8.4,10.19282Q8.8,9.96188,8.8,9.5Q8.8,9.168629,8.56569,8.934315Q8.33137,8.7,8,8.7Q7.668629,8.7,7.434315,8.934315Q7.2,9.168629,7.2,9.5Q7.2,9.96188,7.6,10.19282L7.7,10.25056L7.7,12Q7.7,12.12426,7.787868,12.21213Q7.875736,12.3,8,12.3Q8.3,12.3,8.3,12L8.3,10.25056L8.4,10.19282ZM8.6,10.53923L8.5,10.36603L8.7,10.36603L8.7,12Q8.7,12.289950000000001,8.49497,12.49497Q8.28995,12.7,8,12.7Q7.71005,12.7,7.505025,12.49497Q7.3,12.289950000000001,7.3,12L7.3,10.36603L7.5,10.36603L7.4,10.53923Q6.8,10.19282,6.8,9.5Q6.8,9.002944,7.151472,8.651472Q7.502944,8.3,8,8.3Q8.49706,8.3,8.84853,8.651472Q9.2,9.002944,9.2,9.5Q9.2,10.19282,8.6,10.53923Z" fill="#999999" fill-opacity="1"/></g><g><path d="M4.75,5L4.75,6L4,6L4,5.25L12,5.25L12,6L11.25,6L11.25,5Q11.25,3.65381,10.2981,2.7019Q9.34619,1.75,8,1.75Q6.65381,1.75,5.7019,2.7019Q4.75,3.65381,4.75,5ZM3.25,5Q3.25,3.03249,4.641243,1.641243Q6.03249,0.25,8,0.25Q9.96751,0.25,11.35876,1.641243Q12.75,3.03249,12.75,5L12.75,6.75L3.25,6.75L3.25,5Z" fill="#999999" fill-opacity="1"/></g></g></svg>