<svg xmlns="http://www.w3.org/2000/svg" xmlns:xlink="http://www.w3.org/1999/xlink" fill="none" version="1.1" width="16" height="16" viewBox="0 0 16 16"><defs><clipPath id="master_svg0_988_2875"><rect x="0" y="0" width="16" height="16" rx="0"/></clipPath></defs><g clip-path="url(#master_svg0_988_2875)"><g><path d="M12.66536125,12.28668L3.33203125,12.28668Q3.27293645,12.28668,3.21497725,12.29821Q3.15701725,12.30974,3.10242125,12.33235Q3.04782425,12.35497,2.99868925,12.3878Q2.94955325,12.42063,2.90776725,12.46242Q2.86598125,12.5042,2.83314925,12.5533Q2.80031825,12.6025,2.77770325,12.6571Q2.75508925,12.7117,2.74356025,12.7696Q2.73203125,12.8276,2.73203125,12.8867Q2.73203125,12.9458,2.74356025,13.0037Q2.75508925,13.0617,2.77770325,13.1163Q2.80031825,13.1709,2.83314925,13.22Q2.86598125,13.2692,2.90776725,13.3109Q2.94955325,13.3527,2.99868925,13.3856Q3.04782425,13.4184,3.10242125,13.441Q3.15701725,13.4636,3.21497725,13.4752Q3.27293645,13.4867,3.33203125,13.4867L12.66536125,13.4867Q12.72446125,13.4867,12.78242125,13.4752Q12.84038125,13.4636,12.89497125,13.441Q12.94957125,13.4184,12.99871125,13.3856Q13.04784125,13.3527,13.08963125,13.3109Q13.13141125,13.2692,13.16425125,13.22Q13.19708125,13.1709,13.21969125,13.1163Q13.24231125,13.0617,13.25384125,13.0037Q13.26536125,12.9458,13.26536125,12.8867Q13.26536125,12.8276,13.25384125,12.7696Q13.24231125,12.7117,13.21969125,12.6571Q13.19708125,12.6025,13.16424125,12.5533Q13.13141125,12.5042,13.08963125,12.46242Q13.04784125,12.42063,12.99870125,12.3878Q12.94957125,12.35497,12.89497125,12.33235Q12.84038125,12.30974,12.78242125,12.29821Q12.72446125,12.28668,12.66536125,12.28668ZM8.59898125,3.94848L10.24143125,5.59093Q10.32582125,5.67532,10.43608125,5.7209900000000005Q10.546341250000001,5.7666699999999995,10.66569125,5.7666699999999995Q10.785041249999999,5.7666699999999995,10.89530125,5.7209900000000005Q11.00556125,5.67532,11.08995125,5.59093Q11.17435125,5.50654,11.22002125,5.39628Q11.26569125,5.28601,11.26569125,5.16667Q11.26569125,5.04732,11.22002125,4.93706Q11.174341250000001,4.82679,11.08995125,4.7424L8.42348125,2.075924L8.42329125,2.075736Q8.33890125,1.991348,8.228641249999999,1.945676Q8.11839125,1.900004,7.99904125,1.9Q7.87969125,1.9,7.76943125,1.945669Q7.65916125,1.9913370000000001,7.57477125,2.075722L7.57476125,2.075736L7.57475125,2.07575L4.90809125,4.7424Q4.86631125,4.784190000000001,4.8334712500000006,4.8333200000000005Q4.80064125,4.88246,4.77803125,4.93706Q4.75541125,4.99165,4.74388125,5.0496099999999995Q4.73236125,5.10757,4.73236125,5.16667Q4.73236125,5.22576,4.74388125,5.283720000000001Q4.75541125,5.34168,4.77803125,5.39628Q4.80064125,5.45087,4.8334712500000006,5.50001Q4.86631125,5.5491399999999995,4.90809125,5.59093Q4.99248125,5.67532,5.10275125,5.7209900000000005Q5.21301125,5.7666699999999995,5.33236125,5.7666699999999995Q5.45170125,5.7666699999999995,5.56197125,5.7209900000000005Q5.672231249999999,5.67532,5.75662125,5.59093L7.39898125,3.9485799999999998L7.39876125,10.49998Q7.39876125,10.55908,7.41029125,10.61703Q7.42181125,10.67499,7.44443125,10.72959Q7.46704125,10.78419,7.49987125,10.83332Q7.53270125,10.88246,7.57448125,10.92425Q7.61627125,10.96604,7.66540125,10.99887Q7.71454125,11.0317,7.76913125,11.05432Q7.82373125,11.07694,7.88169125,11.08847Q7.93965125,11.1,7.99874125,11.1Q8.118091249999999,11.1,8.22835125,11.05434Q8.33862125,11.00867,8.42301125,10.92428Q8.50741125,10.83989,8.55308125,10.72963Q8.598761249999999,10.61937,8.598761249999999,10.50002L8.59898125,3.94848Z" fill-rule="evenodd" fill="#333333" fill-opacity="1"/></g></g></svg>