<svg xmlns="http://www.w3.org/2000/svg" xmlns:xlink="http://www.w3.org/1999/xlink" fill="none" version="1.1" width="20" height="20" viewBox="0 0 20 20"><defs><clipPath id="master_svg0_304_1258"><rect x="0" y="0" width="20" height="20" rx="0"/></clipPath></defs><g clip-path="url(#master_svg0_304_1258)"><g><path d="M7.80859390625,3.685860171875L12.18359390625,3.685860171875Q12.24376390625,3.685860171875,12.30277390625,3.674122171875Q12.36178390625,3.6623831718749997,12.41737390625,3.639357171875Q12.47296390625,3.616332171875,12.52299390625,3.582903171875Q12.57302390625,3.549475171875,12.61557390625,3.506929171875Q12.65811390625,3.4643831718750002,12.69154390625,3.414354171875Q12.72497390625,3.364325171875,12.74800390625,3.308736171875Q12.77102390625,3.253147171875,12.78276390625,3.194133171875Q12.79450390625,3.135120471875,12.79450390625,3.074951171875Q12.79450390625,3.014781871875,12.78276390625,2.955769171875Q12.77102390625,2.896755171875,12.74800390625,2.841166171875Q12.72497390625,2.785577171875,12.69154390625,2.735548171875Q12.65811390625,2.6855191718749998,12.61557390625,2.642973171875Q12.57302390625,2.600427171875,12.52299390625,2.566999171875Q12.47296390625,2.533570171875,12.41737390625,2.510545171875Q12.36178390625,2.4875191718750003,12.30277390625,2.475780171875Q12.24376390625,2.464042171875,12.18359390625,2.464042171875L7.80859390625,2.464042171875Q7.74842390625,2.464042171875,7.6894139062499995,2.475780171875Q7.63039390625,2.4875191718750003,7.5748039062500006,2.510545171875Q7.51922390625,2.533570171875,7.46919390625,2.566999171875Q7.4191639062500006,2.600427171875,7.37661390625,2.642973171875Q7.3340739062499996,2.6855191718749998,7.30064390625,2.735548171875Q7.267213906249999,2.785577171875,7.24418390625,2.841166171875Q7.22116390625,2.896755171875,7.2094239062500005,2.955769171875Q7.19768390625,3.014781871875,7.19768390625,3.074951171875Q7.19768390625,3.135120471875,7.2094239062500005,3.194133171875Q7.22116390625,3.253147171875,7.24418390625,3.308736171875Q7.267213906249999,3.364325171875,7.30064390625,3.414354171875Q7.3340739062499996,3.4643831718750002,7.37661390625,3.506929171875Q7.4191639062500006,3.549475171875,7.46919390625,3.582903171875Q7.51922390625,3.616332171875,7.5748039062500006,3.639357171875Q7.63039390625,3.6623831718749997,7.6894139062499995,3.674122171875Q7.74842390625,3.685860171875,7.80859390625,3.685860171875ZM4.16650390625,5.8692111718749995L15.83300390625,5.8692111718749995Q15.89320390625,5.8692111718749995,15.95220390625,5.857471171875Q16.01120390625,5.845731171875,16.06680390625,5.8227111718749995Q16.12240390625,5.799681171875,16.17240390625,5.766251171875Q16.22240390625,5.732821171875,16.26500390625,5.690281171875Q16.30750390625,5.647731171875,16.341003906250002,5.597701171875Q16.374403906250002,5.547671171875,16.39740390625,5.492081171875Q16.42040390625,5.436491171875,16.432203906250002,5.377481171875Q16.44390390625,5.318471171875,16.44390390625,5.258301171875Q16.44390390625,5.198131171875,16.432203906250002,5.139121171875Q16.42040390625,5.080101171875,16.39740390625,5.024511171875Q16.374403906250002,4.968931171875,16.341003906250002,4.9189011718749995Q16.30750390625,4.868871171875,16.26500390625,4.826321171875Q16.22240390625,4.783781171875,16.17240390625,4.750351171875Q16.12240390625,4.716921171875,16.06680390625,4.693891171875Q16.01120390625,4.670871171875,15.95220390625,4.659131171875Q15.89320390625,4.647391171875,15.83300390625,4.647391171875L4.16650390625,4.647391171875Q4.10633460625,4.647391171875,4.04732190625,4.659131171875Q3.98830790625,4.670871171875,3.93271890625,4.693891171875Q3.87712990625,4.716921171875,3.82710090625,4.750351171875Q3.7770719062499998,4.783781171875,3.73452590625,4.826321171875Q3.69197990625,4.868871171875,3.65855190625,4.9189011718749995Q3.62512290625,4.968931171875,3.60209790625,5.024511171875Q3.5790719062500003,5.080101171875,3.56733290625,5.139121171875Q3.55559490625,5.198131171875,3.55559490625,5.258301171875Q3.55559490625,5.318471171875,3.56733290625,5.377481171875Q3.5790719062500003,5.436491171875,3.60209790625,5.492081171875Q3.62512290625,5.547671171875,3.65855190625,5.597701171875Q3.69197990625,5.647731171875,3.73452590625,5.690281171875Q3.7770719062499998,5.732821171875,3.82710090625,5.766251171875Q3.87712990625,5.799681171875,3.93271890625,5.8227111718749995Q3.98830790625,5.845731171875,4.04732190625,5.857471171875Q4.10633460625,5.8692111718749995,4.16650390625,5.8692111718749995ZM5.01409090625,7.449951171875L5.01409090625,15.833251171875Q5.01409190625,16.538551171875,5.51276390625,17.037151171875Q6.01143390625,17.535851171875002,6.71666390625,17.535851171875002L13.28333390625,17.535851171875002Q13.98856390625,17.535851171875002,14.48720390625,17.037151171875Q14.98590390625,16.538551171875,14.98590390625,15.833251171875L14.98590390625,7.449951171875Q14.98590390625,7.389781171875,14.97420390625,7.330771171875Q14.96240390625,7.271751171875,14.93940390625,7.216161171875Q14.91640390625,7.160581171875,14.88290390625,7.110551171875Q14.84950390625,7.060521171875,14.80700390625,7.017971171875001Q14.76440390625,6.975431171875,14.71440390625,6.942001171875Q14.66440390625,6.908571171875,14.60880390625,6.8855411718749995Q14.55320390625,6.8625211718750005,14.49420390625,6.850781171875Q14.43520390625,6.8390411718749995,14.37500390625,6.8390411718749995L5.62500390625,6.8390411718749995Q5.56483390625,6.8390411718749995,5.50581390625,6.850781171875Q5.44680390625,6.8625211718750005,5.39121390625,6.8855411718749995Q5.3356239062499995,6.908571171875,5.28559390625,6.942001171875Q5.23556390625,6.975431171875,5.19302390625,7.017971171875001Q5.15047590625,7.060521171875,5.11704790625,7.110551171875Q5.08361890625,7.160581171875,5.06059390625,7.216161171875Q5.03756790625,7.271751171875,5.02582890625,7.330771171875Q5.01409090625,7.389781171875,5.01409090625,7.449951171875ZM6.37672390625,16.173251171875002Q6.2359139062499995,16.032451171875,6.2359139062499995,15.833251171875L6.2359139062499995,8.060861171875L13.76409390625,8.060861171875L13.76409390625,15.833251171875Q13.76409390625,16.032451171875,13.62328390625,16.173251171875002Q13.48247390625,16.314051171875,13.28333390625,16.314051171875L6.71666390625,16.314051171875Q6.51753390625,16.314051171875,6.37672390625,16.173251171875002ZM9.99975390625,12.689061171875L11.02601390625,13.715451171875Q11.11193390625,13.801351171875,11.22420390625,13.847851171875Q11.33646390625,13.894351171875,11.45798390625,13.894351171875Q11.57950390625,13.894351171875,11.691773906249999,13.847851171875Q11.80403390625,13.801351171875,11.88996390625,13.715451171875Q11.97589390625,13.629551171875,12.02240390625,13.517251171875Q12.06891390625,13.404951171875,12.06891390625,13.283451171875Q12.06892390625,13.161951171875,12.022423906250001,13.049681171875Q11.97592390625,12.937411171875,11.89000390625,12.851491171875L10.86367390625,11.825071171875L11.89000390625,10.798661171875Q11.97592390625,10.712731171875,12.022423906250001,10.600461171875Q12.06892390625,10.488191171875,12.06891390625,10.366671171875Q12.06891390625,10.245161171875,12.02240390625,10.132891171875Q11.97589390625,10.020621171875,11.88996390625,9.934701171875Q11.84742390625,9.892161171875,11.79739390625,9.858731171875Q11.74735390625,9.825311171875,11.69176390625,9.802281171875Q11.63617390625,9.779261171875,11.57716390625,9.767521171875Q11.51815390625,9.755791171875,11.45798390625,9.755791171875Q11.39781390625,9.755791171875,11.33880390625,9.767531171875Q11.27978390625,9.779271171875,11.224193906250001,9.802301171875001Q11.16861390625,9.825331171875,11.118583906249999,9.858761171874999Q11.06855390625,9.892191171875,11.02601390625,9.934741171875L9.99975390625,10.961081171875L8.97350390625,9.934741171875Q8.887573906250001,9.848811171874999,8.77531390625,9.802301171875001Q8.66304390625,9.755791171875,8.541533906249999,9.755791171875Q8.42001390625,9.755781171875,8.30774390625,9.802281171875Q8.195473906250001,9.848781171875,8.10954390625,9.934701171875Q8.06699390625,9.977251171875,8.03356390625,10.027271171875Q8.00013390625,10.077301171875,7.97710390625,10.132891171875Q7.95408390625,10.188481171875,7.94233390625,10.247491171875Q7.9305939062499995,10.306501171875,7.9305939062499995,10.366671171875Q7.9305939062499995,10.426841171875001,7.9423239062499995,10.485851171875Q7.95406390625,10.544871171875,7.97708390625,10.600461171875Q8.00011390625,10.656051171875,8.03353390625,10.706081171874999Q8.066963906249999,10.756111171875,8.10950390625,10.798661171875L9.13583390625,11.825071171875L8.10950390625,12.851491171875Q8.066963906249999,12.894031171875,8.03353390625,12.944061171875Q8.00011390625,12.994091171875,7.97708390625,13.049681171875Q7.95406390625,13.105251171875,7.9423239062499995,13.164251171875Q7.9305939062499995,13.223351171875,7.9305939062499995,13.283451171875Q7.9305939062499995,13.343651171875,7.94233390625,13.402651171875Q7.95408390625,13.461651171875,7.97710390625,13.517251171875Q8.00013390625,13.572851171875,8.03356390625,13.622851171875Q8.06699390625,13.672851171875,8.10954390625,13.715451171875Q8.195473906250001,13.801351171875,8.30774390625,13.847851171875Q8.42001390625,13.894351171875,8.541533906249999,13.894351171875Q8.66304390625,13.894351171875,8.77531390625,13.847851171875Q8.887573906250001,13.801351171875,8.97350390625,13.715451171875L9.99975390625,12.689061171875Z" fill-rule="evenodd" fill="#E43535" fill-opacity="1"/></g></g></svg>