<svg xmlns="http://www.w3.org/2000/svg" xmlns:xlink="http://www.w3.org/1999/xlink" fill="none" version="1.1" width="16" height="16" viewBox="0 0 16 16"><g><g><path d="M6.9026375,0.6484375Q9.4932175,0.648437380791,11.3250375,2.4802475Q13.1568375,4.3120674999999995,13.1568375,6.9026375Q13.1568375,9.0853375,11.8564375,10.7293375L14.9287375,13.8017375C15.0694375,13.9423375,15.1484375,14.1331375,15.1484375,14.3320375C15.1484375,14.5309375,15.0694375,14.7217375,14.9287375,14.8623375C14.7881375,15.0030375,14.5973375,15.0820375,14.3984375,15.0820375C14.1995375,15.0820375,14.0087375,15.0030375,13.8681375,14.8623375L10.8030375,11.7973375Q9.1344175,13.1568375,6.9026375,13.1568375Q4.3120674999999995,13.1568375,2.4802475,11.3250375Q0.648437857628,9.4932175,0.6484375,6.9026375Q0.6484375,4.3120674999999995,2.4802475,2.4802475Q4.3120674999999995,0.648437619209,6.9026375,0.6484375ZM6.9026375,2.1484375Q4.9333875,2.1484375,3.5409075,3.5409075Q2.1484375,4.9333875,2.1484375,6.9026375Q2.1484375,8.8718975,3.5409075,10.2643675Q4.9333875,11.6568375,6.9026375,11.6568375Q8.8718975,11.6568375,10.2643675,10.2643675Q11.6568375,8.8718975,11.6568375,6.9026375Q11.6568375,4.9333875,10.2643675,3.5409075Q8.8718975,2.1484375,6.9026375,2.1484375ZM9.1015575,7.6523475L4.7031275,7.6523475C4.2889075000000005,7.6523475,3.9531275,7.3165575,3.9531275,6.9023475C3.9531275,6.4881275,4.2889075000000005,6.1523475,4.7031275,6.1523475L9.1015575,6.1523475C9.5157775,6.1523475,9.8515575,6.4881275,9.8515575,6.9023475C9.8515575,7.3165575,9.5157775,7.6523475,9.1015575,7.6523475Z" fill-rule="evenodd" fill="#333333" fill-opacity="1"/></g></g></svg>