<svg xmlns="http://www.w3.org/2000/svg" xmlns:xlink="http://www.w3.org/1999/xlink" fill="none" version="1.1" width="16" height="16" viewBox="0 0 16 16"><g><g><path d="M10.001171249999999,13.335825C10.001171249999999,14.440325,9.105741250000001,15.335825,8.001171249999999,15.335825C6.89660125,15.335825,6.0011712500000005,14.440325,6.0011712500000005,13.335825L10.001171249999999,13.335825ZM12.18506125,12.599825L3.81705125,12.599825C3.26665325,12.586225,2.78661725,12.222125,2.62505525,11.695825C2.42900655,11.133025,2.50901035,10.510725,2.84105525,10.015795C3.04722625,9.740295,3.22166225,9.442405,3.36105625,9.127795C3.66988125,7.831255,3.8097112500000003,6.500215,3.77705125,5.167795C3.78844125,3.712895,4.7243112499999995,2.426485,6.10506125,1.967795C6.305631249999999,1.081995,7.09283125,0.453125,8.00105125,0.453125C8.90928125,0.453125,9.69648125,1.081995,9.89706125,1.967795C11.27933125,2.424405,12.21612125,3.712095,12.22506125,5.167795C12.19240125,6.500215,12.33223125,7.831255,12.64103125,9.127795C12.78043125,9.442405,12.95493125,9.740295,13.16103125,10.015795C13.49313125,10.510725,13.57313125,11.133025,13.37703125,11.695825C13.21553125,12.222125,12.73543125,12.586225,12.18506125,12.599825Z" fill="#FFB74B" fill-opacity="1"/></g></g></svg>