<svg xmlns="http://www.w3.org/2000/svg" xmlns:xlink="http://www.w3.org/1999/xlink" fill="none" version="1.1" width="16" height="16" viewBox="0 0 16 16"><defs><clipPath id="master_svg0_1328_00888"><rect x="0" y="0" width="16" height="16" rx="0"/></clipPath></defs><g clip-path="url(#master_svg0_1328_00888)"><g><path d="M6.18537,2.1048299999999998L9.81554,2.1048299999999998C10.12063,2.1048299999999998,10.36796,1.8575089999999999,10.36796,1.5524170000000002C10.36796,1.247326,10.12063,1,9.81554,1L6.18537,1C5.88028,1,5.63295,1.247326,5.63295,1.5524170000000002C5.63295,1.8575089999999999,5.88028,2.1048299999999998,6.18537,2.1048299999999998ZM13.525,3.1467L2.476667,3.1467C2.040822,3.1467,1.6875,3.50003,1.6875,3.93587C1.6875,4.37172,2.040822,4.72504,2.476667,4.72504L3.32897,4.72504L3.85771,13.5164C3.90787,14.3509,4.60004,15.0015,5.43605,15L10.56563,15C11.40164,15.0015,12.0938,14.3509,12.144,13.5164L12.6727,4.740819999999999L13.525,4.740819999999999C13.9609,4.740819999999999,14.3142,4.3875,14.3142,3.95166C14.3142,3.51581,13.9609,3.16249,13.525,3.16249L13.525,3.1467Z" fill="#FD4C4C" fill-opacity="1"/></g></g></svg>