<svg xmlns="http://www.w3.org/2000/svg" xmlns:xlink="http://www.w3.org/1999/xlink" fill="none" version="1.1" width="14" height="14" viewBox="0 0 14 14"><g><g><path d="M11.9421875,6.300390625L11.9421875,2.800390625Q11.9421875,2.492320625,11.7243875,2.274480625Q11.5064875,2.056640625,11.1984875,2.056640625L2.7984375,2.056640625Q2.4903675,2.056640625,2.2725275,2.274480625Q2.0546875,2.492320625,2.0546875,2.800390625L2.0546875,11.200440625Q2.0546875,11.508440625,2.2725275,11.726340625Q2.4903675,11.944140625,2.7984375,11.944140625L6.8300175,11.944140625L7.8874475,11.944140625L7.8912275,11.944140625L10.4980175,11.944140625Q11.0960875,11.944140625,11.5188875,11.521240625Q11.9417875,11.098440625,11.9417875,10.500390625Q11.9417875,9.902370625,11.5188875,9.479500625Q11.0960875,9.056640625,10.4980175,9.056640625L8.3982675,9.056640625L8.3982675,10.003430625C8.3982675,10.122740625,8.3308575,10.231820625,8.224137500000001,10.285180625C8.1174175,10.338530625,7.9897175,10.327020625,7.8942675,10.255430625L5.7242675,8.652430625000001C5.5562675,8.526430625,5.5562675,8.274430625,5.7242675,8.148430625L7.8942675,6.545430625C7.9897175,6.473840625,8.1174275,6.462330625,8.224137500000001,6.515690625C8.3308575,6.569040625,8.3982675,6.678120625,8.3982675,6.797430625L8.3982675,7.744140625L10.4980175,7.744140625Q11.6396875,7.744140625,12.4469875,8.551430625Q13.2542875,9.358710625,13.2542875,10.500390625Q13.2542875,11.642040625,12.4469875,12.449340625Q11.6396875,13.256640625,10.4980175,13.256640625L6.8300175,13.256640625L2.7984375,13.256640625Q1.9467075,13.256640625,1.3444495,12.654340625Q0.7421875,12.052140625,0.7421875,11.200440625L0.7421875,2.800390625Q0.7421875,1.948660625,1.3444495,1.346402625Q1.9467075,0.744140625,2.7984375,0.744140625L11.1984875,0.744140625Q12.0501875,0.744140625,12.6523875,1.346402625Q13.2546875,1.948660625,13.2546875,2.800390625L13.2546875,6.300390625C13.2546875,6.662830625,12.9608875,6.956640625,12.5983875,6.956640625C12.2359875,6.956640625,11.9421875,6.662830625,11.9421875,6.300390625ZM4.3733474999999995,5.089450625L9.6233475,5.089450625C9.9857875,5.089450625,10.2795975,4.795630625,10.2795975,4.433200625C10.2795975,4.070760625,9.9857875,3.776950625,9.6233475,3.776950625L4.3733474999999995,3.776950625C4.0109175,3.776950625,3.7170975,4.070760625,3.7170975,4.433200625C3.7170975,4.795630625,4.0109175,5.089450625,4.3733474999999995,5.089450625Z" fill-rule="evenodd" fill="#666666" fill-opacity="1"/></g></g></svg>