<svg xmlns="http://www.w3.org/2000/svg" xmlns:xlink="http://www.w3.org/1999/xlink" fill="none" version="1.1" width="17.775390625" height="17.7734375" viewBox="0 0 17.775390625 17.7734375"><g><g transform="matrix(-0.7071067690849304,-0.7071067690849304,0.7071067690849304,-0.7071067690849304,3.773161477758549,37.109769285074435)"><path d="M20.704965625,22.413217500000002L20.014665625,22.413217500000002C19.908365625000002,22.413217500000002,19.847765625,22.5344975,19.911465624999998,22.619477500000002L21.394065625,24.5961875C21.445565625,24.6649375,21.548765625,24.6649375,21.600265625,24.5961875L23.082865625,22.619477500000002C23.146565625,22.5344975,23.085965625,22.413217500000002,22.979665625000003,22.413217500000002L22.029165624999997,22.413217500000002Q21.773765625,21.131687499999998,20.940265625000002,20.0472575Q19.742065625000002,18.4883805,17.842965624999998,17.9792395Q15.943875625,17.4701005,14.126565625,18.2205335Q12.309255625,18.9709675,11.322695625,20.6716975C11.265705625,20.7699575,11.235685625,20.8815275,11.235685625,20.9951275L11.235765624999999,21.0054175C11.236605625,21.0578475,11.243835625,21.1099975,11.257305625,21.1606775C11.301215625,21.3258975,11.408955625,21.4669075,11.556835625,21.5526875C11.655085625,21.6096775,11.766665625,21.6396975,11.880255625,21.6396975L11.890545625,21.6396175C11.942985625,21.6387775,11.995125625,21.6315475,12.045815625,21.6180775C12.211035625000001,21.5741675,12.352045625,21.4664275,12.438105625,21.318057500000002Q13.205405625000001,19.9956575,14.618605625,19.4120975Q16.032065625,18.8284275,17.509135625,19.2244175Q18.986205625,19.6204175,19.918165625,20.8328775Q20.481065625,21.5652575,20.704965625,22.413217500000002ZM11.287075625,22.5507275L12.769595625000001,24.5274275C12.833335625,24.6124175,12.772695625,24.733697499999998,12.666465625,24.733697499999998L11.976475624999999,24.733697499999998Q12.200365625,25.5816275,12.763275625,26.3139975Q13.695205625,27.5264575,15.172275625000001,27.9224375Q16.649345625,28.3184375,18.062805625,27.7347775Q19.476005625,27.1512175,20.243265625,25.8288175C20.329365625,25.6804475,20.470365625,25.5727075,20.635565624999998,25.5287975C20.686265625,25.515327499999998,20.738465625,25.508097499999998,20.790865625000002,25.5072575L20.801165625,25.5071775C20.914765625,25.5071775,21.026365625,25.5371975,21.124565625000002,25.5941975C21.312765625,25.7033575,21.433165625,25.9000975,21.444765625000002,26.1173575C21.445465625,26.1288175,21.445765625,26.1402775,21.445765625,26.1517475C21.445765625,26.2653475,21.415665625000003,26.376917499999998,21.358665625,26.4751775L21.358265625,26.476017499999998Q20.371665625,28.1761375,18.554845625,28.926337500000002Q16.737535625,29.6767375,14.838445625,29.167637499999998Q12.939355625000001,28.6585375,11.741165625,27.0996175Q10.907645625,26.0151975,10.652275625,24.733697499999998L9.701414625,24.733697499999998C9.595182925,24.733697499999998,9.534543525,24.6124175,9.598282725,24.5274275L11.080805625,22.5507275C11.132375625,22.4819675,11.235505625,22.4819675,11.287075625,22.5507275Z" fill-rule="evenodd" fill="#666666" fill-opacity="1"/></g></g></svg>