<svg xmlns="http://www.w3.org/2000/svg" xmlns:xlink="http://www.w3.org/1999/xlink" fill="none" version="1.1" width="16" height="16" viewBox="0 0 16 16"><g><g><path d="M7.9978675,14.56999375Q10.7184975,14.56999375,12.6422875,12.64619375C12.9351875,12.35329375,12.9351875,11.87839375,12.6422875,11.58549375C12.3493875,11.29263375,11.8744875,11.29263375,11.5815875,11.58549375Q10.0971775,13.06999375,7.9978675,13.06999375Q5.8985575,13.06999375,4.4141275,11.58549375Q2.9296875,10.10108375,2.9296875,8.00177375Q2.9296875,5.90246375,4.4141275,4.41803375Q5.8985575,2.93359375,7.9978675,2.93359375Q10.0971775,2.93359375,11.5815875,4.41803375Q12.5798875,5.41632375,12.9068875,6.69268375L11.8525875,6.69268375L13.8161875,9.310873749999999L15.7797875,6.69268375L14.4460875,6.69268375Q14.0856875,4.8007437500000005,12.6422875,3.35737375Q10.7184975,1.43359375,7.9978675,1.43359375Q5.2772375,1.43359375,3.3534675,3.35737375Q1.4296875,5.28114375,1.4296875,8.00177375Q1.4296875,10.72240375,3.3534675,12.64619375Q5.2772375,14.56999375,7.9978675,14.56999375Z" fill-rule="evenodd" fill="#333333" fill-opacity="1"/></g></g></svg>