<svg xmlns="http://www.w3.org/2000/svg" xmlns:xlink="http://www.w3.org/1999/xlink" fill="none" version="1.1" width="16" height="16" viewBox="0 0 16 16"><defs><clipPath id="master_svg0_5946_60106"><rect x="0" y="0" width="16" height="16" rx="0"/></clipPath></defs><g clip-path="url(#master_svg0_5946_60106)"><g><path d="M10.387455,2.72316271484375Q8.800955,1.13665771484375,6.557295,1.13665771484375Q4.313635,1.13665771484375,2.72713,2.72316271484375Q1.140625,4.30966771484375,1.140625,6.55332771484375Q1.140625,8.796977714843749,2.72713,10.38348771484375Q4.313635,11.96995771484375,6.557295,11.96995771484375Q8.800944999999999,11.96995771484375,10.387455,10.38348771484375Q11.973925,8.796977714843749,11.973925,6.55332771484375Q11.973925,4.30966771484375,10.387455,2.72316271484375ZM3.787795,3.78382771484375Q4.934955,2.63665771484375,6.557295,2.63665771484375Q8.179625,2.63665771484375,9.326795,3.78382771484375Q10.473955,4.93098771484375,10.473955,6.55332771484375Q10.473955,8.17565771484375,9.326795,9.32282771484375Q8.179625,10.46998771484375,6.557295,10.46998771484375Q4.934955,10.46998771484375,3.787795,9.32282771484375Q2.640625,8.17565771484375,2.640625,6.55332771484375Q2.640625,4.93098771484375,3.787795,3.78382771484375ZM10.893445,11.95035771484375L12.966825,14.02365771484375Q13.019025,14.07595771484375,13.080425,14.11695771484375Q13.141825,14.15805771484375,13.210125,14.18625771484375Q13.278325,14.21455771484375,13.350825,14.22895771484375Q13.423225,14.24335771484375,13.497125,14.24335771484375Q13.571025,14.24335771484375,13.643425,14.22895771484375Q13.715825,14.21455771484375,13.784125,14.18625771484375Q13.852325,14.15805771484375,13.913825,14.11695771484375Q13.975225,14.07595771484375,14.027425,14.02365771484375Q14.079625,13.97145771484375,14.120725,13.91005771484375Q14.161725,13.84865771484375,14.190025,13.78035771484375Q14.218325,13.71215771484375,14.232725,13.63965771484375Q14.247125,13.56725771484375,14.247125,13.49335771484375Q14.247125,13.41945771484375,14.232725,13.34705771484375Q14.218325,13.27455771484375,14.190025,13.20635771484375Q14.161725,13.13815771484375,14.120725,13.07665771484375Q14.079625,13.01525771484375,14.027425,12.96305771484375L11.954125,10.88970771484375Q11.901825,10.83746771484375,11.840455,10.79642771484375Q11.779035,10.75539771484375,11.710785,10.72712771484375Q11.642545,10.69885771484375,11.570095,10.68444771484375Q11.497645,10.67003771484375,11.423775,10.67003771484375Q11.349905,10.67003771484375,11.277455,10.68444771484375Q11.205005,10.69885771484375,11.136765,10.72712771484375Q11.068515,10.75539771484375,11.007095,10.79642771484375Q10.945675,10.83746771484375,10.893445,10.88970771484375Q10.841215,10.94193771484375,10.800175,11.00335771484375Q10.759135,11.06477771484375,10.730865,11.13301771484375Q10.702595,11.20126771484375,10.688185,11.27371771484375Q10.673775,11.34616771484375,10.673775,11.42003771484375Q10.673775,11.49390771484375,10.688185,11.56635771484375Q10.702595,11.63879771484375,10.730865,11.70704771484375Q10.759135,11.77528771484375,10.800175,11.83670771484375Q10.841215,11.89815771484375,10.893445,11.95035771484375Z" fill-rule="evenodd" fill="#999999" fill-opacity="1"/></g></g></svg>