<svg xmlns="http://www.w3.org/2000/svg" xmlns:xlink="http://www.w3.org/1999/xlink" fill="none" version="1.1" width="16" height="16" viewBox="0 0 16 16"><defs><clipPath id="master_svg0_6411_13670"><rect x="0" y="0" width="16" height="16" rx="0"/></clipPath></defs><g clip-path="url(#master_svg0_6411_13670)"><g><path d="M10.38354875,2.72316271484375Q8.79704875,1.13665771484375,6.55338875,1.13665771484375Q4.30972875,1.13665771484375,2.72322375,2.72316271484375Q1.13671875,4.30966771484375,1.13671875,6.55332771484375Q1.13671875,8.796977714843749,2.72322375,10.38348771484375Q4.30972875,11.96995771484375,6.55338875,11.96995771484375Q8.797038749999999,11.96995771484375,10.38354875,10.38348771484375Q11.97001875,8.796977714843749,11.97001875,6.55332771484375Q11.97001875,4.30966771484375,10.38354875,2.72316271484375ZM3.78388875,3.78382771484375Q4.93104875,2.63665771484375,6.55338875,2.63665771484375Q8.17571875,2.63665771484375,9.32288875,3.78382771484375Q10.47004875,4.93098771484375,10.47004875,6.55332771484375Q10.47004875,8.17565771484375,9.32288875,9.32282771484375Q8.17571875,10.46998771484375,6.55338875,10.46998771484375Q4.93104875,10.46998771484375,3.78388875,9.32282771484375Q2.63671875,8.17565771484375,2.63671875,6.55332771484375Q2.63671875,4.93098771484375,3.78388875,3.78382771484375ZM10.88953875,11.95035771484375L12.96291875,14.02365771484375L14.02351875,12.96305771484375L11.95021875,10.88970771484375L10.88953875,11.95035771484375Z" fill-rule="evenodd" fill="#333333" fill-opacity="1"/></g></g></svg>