<svg xmlns="http://www.w3.org/2000/svg" xmlns:xlink="http://www.w3.org/1999/xlink" fill="none" version="1.1" width="16" height="16" viewBox="0 0 16 16"><g><g><path d="M1.600939,2.23828125L14.400925,2.23828125C14.930925,2.238539457,15.360425,2.66827025,15.360425,3.19828125C15.360425,3.72829125,14.930925,4.15802125,14.400925,4.15828125L1.600939,4.15828125C1.071004,4.15791125,0.641601562,3.72821125,0.641601562,3.19828125C0.641601562,2.66834625,1.071004,2.238646984,1.600939,2.23828125ZM14.110825,11.86224125L15.632825,13.38438125C15.994125,13.72558125,16.001424999999998,14.29808125,15.648925,14.64838125C15.303025,14.98998125,14.746725,14.98998125,14.400925,14.64838125L12.862825,13.11018125C12.208425,13.53638125,11.443925,13.76158125,10.663125,13.75828125C8.400925,13.75828125,6.566895,11.92439125,6.566895,9.66223125C6.566895,7.40007125,8.400925,5.56622125,10.663125,5.56622125C12.925225,5.56622125,14.758825,7.40007125,14.758825,9.66223125C14.758825,10.44313125,14.533825,11.20701125,14.110825,11.86224125ZM1.600626,7.03827125L4.000624999999999,7.03827125C4.530455,7.03879125,4.959685,7.46844125,4.959685,7.99827125C4.959685,8.52809125,4.530455,8.957751250000001,4.000624999999999,8.95827125L1.600626,8.95827125C1.070432,8.95827125,0.640625,8.52846125,0.640625,7.99827125C0.640625,7.46807125,1.070432,7.03827125,1.600626,7.03827125ZM8.311035,9.64624125C8.311035,10.93638125,9.356835,11.98224125,10.646925,11.98224125L10.646925,11.99823125C11.943425,11.99823125,12.991825,10.94259125,12.982925,9.64624125C12.982925,8.35610125,11.937125,7.31024125,10.646925,7.31024125C9.356835,7.31024125,8.311035,8.35610125,8.311035,9.64624125ZM1.600625,11.83826125L4.800625,11.83826125C5.330815,11.83826125,5.760625,12.26808125,5.760625,12.79828125C5.760625,13.32848125,5.330815,13.75828125,4.800625,13.75828125L1.600625,13.75828125C1.070432,13.75828125,0.640625,13.32848125,0.640625,12.79828125C0.640625,12.26808125,1.070432,11.83826125,1.600625,11.83826125Z" fill-rule="evenodd" fill="#333333" fill-opacity="1"/></g></g></svg>