<svg xmlns="http://www.w3.org/2000/svg" xmlns:xlink="http://www.w3.org/1999/xlink" fill="none" version="1.1" width="24" height="24" viewBox="0 0 24 24"><g><g><g><path d="M16.429962500000002,6.52376884765625L18.9552625,10.903418847656251Q19.588362500000002,12.00000884765625,18.9545625,13.09783884765625L16.4152625,17.476618847656248Q15.7829625,18.57191884765625,14.5174425,18.57321884765625L9.4655825,18.57321884765625Q8.2008525,18.57191884765625,7.5682825000000005,17.47621884765625L5.0429395,13.09658884765625Q4.4098265,12.00000884765625,5.0436575,10.90217884765625L7.5829225000000005,6.52340884765625Q8.2152825,5.42811691765625,9.4807825,5.42681884765625L14.5326425,5.42681920528425Q15.7973625,5.42811608765625,16.429962500000002,6.52376884765625L16.429962500000002,6.52376884765625ZM15.1306625,7.27339884765625L15.1306625,7.27339884765625Q14.9306625,6.9272288476562505,14.5311025,6.92681884765625L9.4807825,6.92681884765625Q9.081822500000001,6.9272288476562505,8.8819525,7.27339884765625L6.3412625,11.65466884765625Q6.1418725,12.00000884765625,6.3419825,12.34659884765625L8.867732499999999,16.72701884765625Q9.0673925,17.07281884765625,9.467112499999999,17.07321884765625L14.5174425,17.07321884765625Q14.9163625,17.07281884765625,15.1162625,16.726618847656248L17.6569625,12.34534884765625Q17.8563625,12.00000884765625,17.6562625,11.653418847656251L15.1306625,7.27339884765625ZM11.9991925,9.08525884765625Q13.2065225,9.08525884765625,14.0602325,9.93896884765625Q14.9139625,10.79267884765625,14.9139625,12.00000884765625Q14.9139625,13.20733884765625,14.0602325,14.06105884765625Q13.2065225,14.91476884765625,11.9991925,14.91476884765625Q10.791852500000001,14.91476884765625,9.9381425,14.06105884765625Q9.0844325,13.207348847656249,9.0844325,12.00001884765625Q9.0844325,10.79267884765625,9.9381425,9.93896884765625Q10.791852500000001,9.08525884765625,11.9991925,9.08525884765625ZM11.9991925,10.585258847656249Q11.4131725,10.585258847656249,10.9988025,10.99962884765625Q10.5844325,11.41399884765625,10.5844325,12.00001884765625Q10.5844325,12.58602884765625,10.9988025,13.00039884765625Q11.4131725,13.41476884765625,11.9991925,13.41476884765625Q12.585202500000001,13.41476884765625,12.9995725,13.00039884765625Q13.4139425,12.58602884765625,13.4139425,12.00000884765625Q13.4139425,11.41399884765625,12.9995725,10.99962884765625Q12.585202500000001,10.585258847656249,11.9991925,10.585258847656249Z" fill-rule="evenodd" fill="#666666" fill-opacity="1"/></g></g></g></svg>