<svg xmlns="http://www.w3.org/2000/svg" xmlns:xlink="http://www.w3.org/1999/xlink" fill="none" version="1.1" width="16" height="16" viewBox="0 0 16 16"><defs><clipPath id="master_svg0_1103_2975"><rect x="0" y="0" width="16" height="16" rx="0"/></clipPath></defs><g clip-path="url(#master_svg0_1103_2975)"><g><path d="M7.89775609375,5.150928984375Q7.89775609375,5.650748984374999,8.25117609375,6.004168984375L9.98122609375,7.734228984375Q10.334656093749999,8.087648984375,10.83447609375,8.087648984375Q11.33428609375,8.087648984375,11.68771609375,7.734228984375L13.41779609375,6.004168984375Q13.77119609375,5.650748984374999,13.77119609375,5.150928984375Q13.77119609375,4.651108984375,13.41779609375,4.297688984375L11.68771609375,2.567633984375Q11.33429609375,2.214208984375,10.83447609375,2.214208984375Q10.334656093749999,2.214208984375,9.98122609375,2.567633984375L8.25117609375,4.297688984375Q7.89775609375,4.651108984375,7.89775609375,5.150928984375ZM2.60449409375,7.375658984375Q2.97549209375,7.746658984375,3.50016309375,7.746658984375L6.16682609375,7.746658984375Q6.6914960937500005,7.746658984375,7.06249609375,7.375658984375Q7.43349609375,7.004658984375,7.43349609375,6.479988984375L7.43349609375,3.813325984375Q7.43349609375,3.288655984375,7.06249609375,2.917657984375Q6.6914960937500005,2.546659984375,6.16682609375,2.546659984375L3.50016309375,2.546659984375Q2.97549209375,2.546659984375,2.60449409375,2.917657984375Q2.23349609375,3.288655984375,2.23349609375,3.813325984375L2.23349609375,6.479988984375Q2.23349609375,7.004658984375,2.60449409375,7.375658984375ZM10.82975609375,6.885698984375L9.099706093750001,5.155648984375Q9.09775609375,5.153688984375,9.09775609375,5.150928984375Q9.09775609375,5.148168984374999,9.099706093750001,5.146218984375L10.82975609375,3.416161984375Q10.83171609375,3.414208984375,10.83447609375,3.414208984375Q10.83723609375,3.414208984375,10.83918609375,3.416160984375L12.56924609375,5.146218984375Q12.57119609375,5.148168984374999,12.57119609375,5.150928984375Q12.57119609375,5.153688984375,12.56923609375,5.155648984375L10.83918609375,6.885698984375Q10.83447609375,6.890408984375,10.82975609375,6.885698984375ZM6.16682609375,6.546658984375L3.50016309375,6.546658984375Q3.43349609375,6.546658984375,3.43349609375,6.479988984375L3.43349609375,3.813325984375Q3.43349609375,3.746659984375,3.50016309375,3.746659984375L6.16682609375,3.746659984375Q6.23349609375,3.746659984375,6.23349609375,3.813325984375L6.23349609375,6.479988984375Q6.23349609375,6.546658984375,6.16682609375,6.546658984375ZM2.60449409375,13.415708984375Q2.97549209375,13.786708984375,3.50016309375,13.786708984375L6.16682609375,13.786708984375Q6.6914960937500005,13.786708984375,7.06249609375,13.415708984375Q7.43349609375,13.044708984375,7.43349609375,12.520028984375L7.43349609375,9.853368984374999Q7.43349609375,9.328698984375,7.06249609375,8.957698984375Q6.6914960937500005,8.586698984375001,6.16682609375,8.586698984375001L3.50016309375,8.586698984375001Q2.97549209375,8.586698984375001,2.60449409375,8.957698984375Q2.23349609375,9.328698984375,2.23349609375,9.853368984374999L2.23349609375,12.520028984375Q2.23349609375,13.044708984375,2.60449409375,13.415708984375ZM8.60449609375,13.415708984375Q8.97549609375,13.786708984375,9.50016609375,13.786708984375L12.16682609375,13.786708984375Q12.69149609375,13.786708984375,13.06249609375,13.415708984375Q13.43349609375,13.044708984375,13.43349609375,12.520028984375L13.43349609375,9.853368984374999Q13.43349609375,9.328698984375,13.06249609375,8.957698984375Q12.69149609375,8.586698984375001,12.16682609375,8.586698984375001L9.50016609375,8.586698984375001Q8.97549609375,8.586698984375001,8.60449609375,8.957698984375Q8.23349609375,9.328698984375,8.23349609375,9.853368984374999L8.23349609375,12.520028984375Q8.23349609375,13.044708984375,8.60449609375,13.415708984375ZM6.16682609375,12.586698984375L3.50016309375,12.586698984375Q3.43349609375,12.586698984375,3.43349609375,12.520028984375L3.43349609375,9.853368984374999Q3.43349609375,9.786698984375,3.50016309375,9.786698984375L6.16682609375,9.786698984375Q6.23349609375,9.786698984375,6.23349609375,9.853368984374999L6.23349609375,12.520028984375Q6.23349609375,12.586698984375,6.16682609375,12.586698984375ZM12.16682609375,12.586698984375L9.50016609375,12.586698984375Q9.43349609375,12.586698984375,9.43349609375,12.520028984375L9.43349609375,9.853368984374999Q9.43349609375,9.825748984375,9.453026093750001,9.806228984375Q9.472546093750001,9.786698984375,9.50016609375,9.786698984375L12.16682609375,9.786698984375Q12.23349609375,9.786698984375,12.23349609375,9.853368984374999L12.23349609375,12.520028984375Q12.23349609375,12.586698984375,12.16682609375,12.586698984375Z" fill-rule="evenodd" fill="#333333" fill-opacity="1"/></g></g></svg>