<svg xmlns="http://www.w3.org/2000/svg" xmlns:xlink="http://www.w3.org/1999/xlink" fill="none" version="1.1" width="16" height="16" viewBox="0 0 16 16"><defs><clipPath id="master_svg0_38_882"><rect x="16" y="0" width="16" height="16" rx="0"/></clipPath></defs><g transform="matrix(0,1,-1,0,16,-16)" clip-path="url(#master_svg0_38_882)"><g transform="matrix(-1,0,0,-1,56,20)"><path d="M28.42436,9.575832L32,13.15147L35.57558,9.575891L35.575739999999996,9.575736Q35.66013,9.491345,35.77039,9.445672Q35.88065,9.4,36,9.4Q36.05909,9.4,36.11705,9.411529Q36.17501,9.423058,36.22961,9.445672Q36.28421,9.468287,36.33334,9.501118Q36.38248,9.53395,36.424260000000004,9.575736Q36.466049999999996,9.617522,36.49888,9.666658Q36.531710000000004,9.715793,36.55433,9.77039Q36.57694,9.824985999999999,36.58847,9.882946Q36.6,9.9409052,36.6,10Q36.6,10.119347,36.55433,10.22961Q36.50866,10.339873,36.424260000000004,10.424264L36.42386,10.424673L32.424260000000004,14.42426Q32.38248,14.46605,32.33334,14.49888Q32.28421,14.53171,32.22961,14.55433Q32.17501,14.57694,32.11705,14.588470000000001Q32.05909,14.6,32,14.6Q31.9409,14.6,31.88295,14.588470000000001Q31.82499,14.57694,31.77039,14.55433Q31.71579,14.53171,31.66666,14.49888Q31.61752,14.46605,31.57574,14.42426L27.575832,10.42436L27.575736,10.424264Q27.491345,10.339873,27.445672,10.22961Q27.4,10.119347,27.4,10Q27.4,9.9409052,27.411529,9.882946Q27.423058,9.824985999999999,27.445672,9.77039Q27.468287,9.715793,27.501118,9.666658Q27.53395,9.617522,27.575736,9.575736Q27.617522,9.53395,27.666657999999998,9.501118Q27.715793,9.468287,27.77039,9.445672Q27.824986,9.423058,27.882946,9.411529Q27.9409052,9.4,28,9.4Q28.119347,9.4,28.22961,9.445672Q28.339873,9.491345,28.424264,9.575736L28.42436,9.575832Z" fill-rule="evenodd" fill="#999999" fill-opacity="1"/></g></g></svg>