<svg xmlns="http://www.w3.org/2000/svg" xmlns:xlink="http://www.w3.org/1999/xlink" fill="none" version="1.1" width="16" height="16" viewBox="0 0 16 16"><g><g><path d="M5.245134999999999,1.4149850000000002L2.313703,4.14927Q2.256084,4.20301,2.210058,4.266970000000001Q2.164031,4.33092,2.1313649999999997,4.402620000000001Q2.098699,4.4743200000000005,2.080649,4.551019999999999Q2.062599,4.62772,2.059859,4.7064699999999995Q2.057119,4.78521,2.069794,4.86298Q2.082469,4.94074,2.1100719999999997,5.01454Q2.1376749999999998,5.0883400000000005,2.1791460000000002,5.15534Q2.220616,5.22234,2.27436,5.27996Q2.3281039999999997,5.33758,2.392056,5.3835999999999995Q2.456009,5.4296299999999995,2.527711,5.4623Q2.599414,5.49496,2.676112,5.5130099999999995Q2.75281,5.53106,2.8315552,5.533799999999999Q2.9103006,5.5365400000000005,2.988068,5.5238700000000005Q3.065835,5.51119,3.139634,5.4835899999999995Q3.213434,5.45598,3.280431,5.41451Q3.347428,5.37304,3.405047,5.3193L4.990805,3.8401899999999998L4.990805,14Q4.990805,14.0788,5.006175,14.1561Q5.021545,14.2334,5.051705,14.3061Q5.081855,14.3789,5.125624999999999,14.4445Q5.169404999999999,14.51,5.225115000000001,14.5657Q5.280835,14.6214,5.3463449999999995,14.6652Q5.411865000000001,14.709,5.484655,14.7391Q5.557455,14.7693,5.634735,14.7846Q5.712015,14.8,5.790805000000001,14.8Q5.869595,14.8,5.946875,14.7846Q6.024155,14.7693,6.096945,14.7391Q6.169745,14.7089,6.235255,14.6652Q6.300775,14.6214,6.356485,14.5657Q6.412205,14.51,6.4559750000000005,14.4445Q6.499755,14.3789,6.529904999999999,14.3061Q6.560055,14.2334,6.575435000000001,14.1561Q6.590805,14.0788,6.590805,14L6.590805,2Q6.590805,1.848089,6.535114999999999,1.706753Q6.4794350000000005,1.565416,6.375814999999999,1.4543279999999998Q6.322075,1.396709,6.258125,1.350683Q6.194165,1.304656,6.122465,1.27199Q6.050765,1.2393239999999999,5.9740649999999995,1.221274Q5.897365000000001,1.203224,5.818625,1.2004839999999999Q5.739875,1.1977440000000001,5.662115,1.210419Q5.584345,1.2230940000000001,5.5105450000000005,1.250697Q5.436745,1.2783,5.369745,1.319771Q5.302754999999999,1.3612410000000001,5.245134999999999,1.4149850000000002ZM10.759395,14.585L13.690875,11.85073Q13.748475,11.79698,13.794475,11.73303Q13.840475,11.66908,13.873175,11.59738Q13.905875,11.52567,13.923875,11.44898Q13.941975,11.37228,13.944675,11.29353Q13.947375,11.21479,13.934775,11.13702Q13.922075,11.05925,13.894475,10.98545Q13.866875,10.91165,13.825375,10.84466Q13.783875,10.77766,13.730175,10.72004Q13.676475,10.66242,13.612475,10.6164Q13.548475,10.57037,13.476775,10.5377Q13.405075,10.50504,13.328375,10.48699Q13.251675,10.46894,13.172975,10.4662Q13.094275,10.46346,13.016475,10.47613Q12.938675,10.48881,12.864875,10.51641Q12.791095,10.54401,12.724105,10.58549Q12.657105,10.62696,12.599485,10.6807L11.013725,12.1598L11.013725,2Q11.013725,1.9212069,10.998355,1.843928Q10.982985,1.766649,10.952835,1.693853Q10.922675,1.621058,10.878905,1.555544Q10.835125,1.49003,10.779415,1.434315Q10.723695,1.378599,10.658185,1.334824Q10.592665,1.2910490000000001,10.519874999999999,1.260896Q10.447075,1.230744,10.369795,1.215372Q10.292525000000001,1.2,10.213725,1.2Q10.134934999999999,1.2,10.057655,1.215372Q9.980375,1.230744,9.907575,1.260896Q9.834785,1.2910490000000001,9.769275,1.334824Q9.703755000000001,1.378599,9.648045,1.434315Q9.592324999999999,1.49003,9.548555,1.555544Q9.504775,1.621058,9.474625,1.693853Q9.444475,1.766649,9.429095,1.843928Q9.413725,1.9212069,9.413725,2L9.413725,14Q9.413725,14.1519,9.469415,14.2932Q9.525095,14.4346,9.628715,14.5457Q9.682455000000001,14.6033,9.746405,14.6493Q9.810365000000001,14.6953,9.882065,14.728Q9.953765,14.7607,10.030465,14.7787Q10.107165,14.7968,10.185905,14.7995Q10.264655000000001,14.8023,10.342414999999999,14.7896Q10.420185,14.7769,10.493985,14.7493Q10.567785,14.7217,10.634785,14.6802Q10.701785000000001,14.6388,10.759395,14.585Z" fill-rule="evenodd" fill="#333333" fill-opacity="1"/></g></g></svg>