<svg xmlns="http://www.w3.org/2000/svg" xmlns:xlink="http://www.w3.org/1999/xlink" fill="none" version="1.1" width="16" height="16" viewBox="0 0 16 16"><defs><clipPath id="master_svg0_1296_01636/1253_3949"><rect x="0" y="0" width="16" height="16" rx="0"/></clipPath></defs><g clip-path="url(#master_svg0_1296_01636/1253_3949)"><g><path d="M9.16000453125,1.1807736484375Q8.000234531250001,0.5367846484375001,6.84587453125,1.1777466484375L6.84047453125,1.1807736484375L2.98447253125,3.3647746484375Q2.92191153125,3.4002046484374997,2.86746553125,3.4471646484375Q2.81301953125,3.4941246484375,2.76878053125,3.5508046484375Q2.72454153125,3.6074746484375,2.6922105312499998,3.6716946484375Q2.65987853125,3.7359146484375,2.64069653125,3.8052046484375Q2.62151553125,3.8745046484375,2.6162205312499998,3.9462046484375Q2.61092553125,4.0179046484375,2.61972153125,4.0892646484375Q2.62851653125,4.1606246484375,2.65106453125,4.2288946484375Q2.67361253125,4.2971746484375,2.70904653125,4.359734648437501Q2.80605153125,4.5310046484375,2.9760085312499998,4.630284648437501L7.63200453125,7.3502846484375Q7.71581453125,7.3992446484375,7.80949453125,7.4246046484375Q7.90318453125,7.4499646484375,8.000234531250001,7.4499646484375Q8.09729453125,7.4499646484375,8.190984531249999,7.4246046484375Q8.28466453125,7.3992446484375,8.36846453125,7.3502846484375L13.02449453125,4.630284648437501Q13.08659453125,4.5940246484375,13.14039453125,4.5463346484375Q13.19419453125,4.498654648437499,13.23769453125,4.4413946484375Q13.28109453125,4.3841246484375,13.31259453125,4.3194846484375Q13.34409453125,4.2548346484375,13.36229453125,4.1852946484375Q13.38059453125,4.1157446484375,13.38489453125,4.0439846484375Q13.38919453125,3.9722146484375,13.37949453125,3.9009746484375Q13.36979453125,3.8297446484375,13.34629453125,3.7617846484375Q13.32279453125,3.6938146484375,13.28659453125,3.6317346484375Q13.18729453125,3.4617746484375003,13.01599453125,3.3647746484375L9.16000453125,1.1807736484375ZM7.55699453125,2.4528596484375003L4.80819453125,4.0097546484375L8.000234531250001,5.8745246484375L11.19228453125,4.0097546484375L8.44047453125,2.4511566484375003Q8.00141453125,2.2074036484375,7.55699453125,2.4528596484375003ZM1.46203453125,6.3359646484375L1.46203453125,10.7635446484375Q1.45494453125,11.4003746484375,1.77311453125,11.9524646484375Q2.09259263125,12.5068646484375,2.65039953125,12.8203646484375L6.48316453125,15.0322646484375Q6.54543453125,15.0681646484375,6.61352453125,15.0912646484375Q6.68161453125,15.1143646484375,6.75289453125,15.1237646484375Q6.82418453125,15.1330646484375,6.89592453125,15.1283646484375Q6.96766453125,15.1236646484375,7.03711453125,15.1050646484375Q7.10656453125,15.0864646484375,7.17103453125,15.0545646484375Q7.23551453125,15.0227646484375,7.29254453125,14.9790646484375Q7.34957453125,14.9352646484375,7.39697453125,14.8811646484375Q7.44437453125,14.8270646484375,7.48030453125,14.7648646484375Q7.57803453125,14.5954646484375,7.57803453125,14.3999646484375L7.57803453125,9.023964648437499Q7.57803453125,8.9278546484375,7.55316453125,8.8350146484375Q7.52828453125,8.742184648437501,7.48023453125,8.6589546484375Q7.43217453125,8.5757246484375,7.36421453125,8.507764648437501Q7.29625453125,8.4398046484375,7.21302453125,8.3917546484375L2.55702053125,5.7037546484375Q2.4947535312499998,5.6678046484375,2.42666953125,5.6446946484375Q2.35858653125,5.6215846484375,2.28730223125,5.6122046484375Q2.21601843125,5.6028246484375,2.14427373125,5.6075246484375Q2.07252953125,5.6122346484375,2.00308053125,5.6308446484375Q1.93363253125,5.6494546484375,1.86914853125,5.6812546484375Q1.80466553125,5.7130546484375,1.74762553125,5.7568246484375Q1.69058553125,5.8005946484375,1.64318053125,5.8546546484375Q1.5957755312500002,5.9087046484375,1.5598275312499998,5.9709746484375Q1.46203453125,6.1403646484375,1.46203453125,6.3359646484375ZM14.52209453125,10.7630746484375Q14.53169453125,11.3941946484375,14.22099453125,11.9442646484375Q13.90799453125,12.4982646484375,13.35689453125,12.8162646484375L9.51692453125,15.0322646484375Q9.34757453125,15.1299646484375,9.15205453125,15.1299646484375Q9.080154531249999,15.1299646484375,9.00963453125,15.1159646484375Q8.93911453125,15.1018646484375,8.87269453125,15.0743646484375Q8.806264531250001,15.0468646484375,8.746484531250001,15.0069646484375Q8.686704531250001,14.9669646484375,8.63586453125,14.9161646484375Q8.58502453125,14.8652646484375,8.54507453125,14.8055646484375Q8.50513453125,14.7457646484375,8.477614531250001,14.6793646484375Q8.45010453125,14.6128646484375,8.43607453125,14.5423646484375Q8.42205453125,14.4718646484375,8.42205453125,14.3999646484375L8.42205453125,9.023964648437499Q8.42205453125,8.9278546484375,8.44692453125,8.8350146484375Q8.471804531250001,8.742184648437501,8.519854531250001,8.6589546484375Q8.56791453125,8.5757246484375,8.63587453125,8.507764648437501Q8.70383453125,8.4398046484375,8.78706453125,8.3917546484375L13.44309453125,5.7037546484375Q13.61369453125,5.6052546484375,13.81069453125,5.605964648437499Q13.95589453125,5.6064946484375,14.08979453125,5.6625446484375Q14.22379453125,5.7185946484375,14.32609453125,5.8216446484375Q14.42839453125,5.9246846484375,14.48349453125,6.0590346484375Q14.53859453125,6.1933946484375,14.53809453125,6.3385946484375L14.52209453125,10.7630746484375ZM13.07349453125,7.6029646484375L13.06209453125,10.7653246484375Q13.06199453125,10.7735346484375,13.06219453125,10.7817346484375Q13.07189453125,11.2950646484375,12.62719453125,11.5516946484375L9.882054531249999,13.1358646484375L9.882054531249999,9.4454346484375L13.07349453125,7.6029646484375ZM3.36567453125,11.5475646484375Q2.91513553125,11.2943846484375,2.92197153125,10.7776146484375L2.92203453125,10.7679646484375L2.92203453125,7.6003246484375L6.11803453125,9.4454346484375L6.11803453125,13.1358646484375L3.36567453125,11.5475646484375Z" fill-rule="evenodd" fill="#1D74F5" fill-opacity="1"/></g></g></svg>