<svg xmlns="http://www.w3.org/2000/svg" xmlns:xlink="http://www.w3.org/1999/xlink" fill="none" version="1.1" width="16" height="16" viewBox="0 0 16 16"><defs><clipPath id="master_svg0_1296_01636/1253_3979"><rect x="0" y="0" width="16" height="16" rx="0"/></clipPath></defs><g clip-path="url(#master_svg0_1296_01636/1253_3979)"><g><path d="M2.5318615375,13.9322341796875Q3.1896994375,14.5900341796875,4.1200234375,14.5900341796875L11.8880234375,14.5900341796875Q12.8183234375,14.5900341796875,13.4762234375,13.9322341796875Q14.1340234375,13.2743341796875,14.1340234375,12.3440341796875L14.1340234375,3.6560341796875Q14.1340234375,2.7257101796875,13.4762234375,2.0678721796875Q12.8183234375,1.4100341796875,11.8880234375,1.4100341796875L4.1200234375,1.4100341796875Q3.1896994375,1.4100341796875,2.5318616375,2.0678723796875Q1.8740234375,2.7257111796875,1.8740234375,3.6560341796875L1.8740234375,12.3440341796875Q1.8740234375,13.2743341796875,2.5318615375,13.9322341796875ZM11.8880234375,13.0900341796875L4.1200234375,13.0900341796875Q3.8110234375000003,13.0900341796875,3.5925214375,12.8715341796875Q3.3740234375,12.6530341796875,3.3740234375,12.3440341796875L3.3740234375,3.6560341796875Q3.3740234375,3.3470341796875003,3.5925214375,3.1285321796875Q3.8110234375000003,2.9100341796875,4.1200234375,2.9100341796875L11.8880234375,2.9100341796875Q12.1970234375,2.9100341796875,12.4155234375,3.1285321796875Q12.6340234375,3.3470341796875003,12.6340234375,3.6560341796875L12.6340234375,12.3440341796875Q12.6340234375,12.6530341796875,12.4155234375,12.8715341796875Q12.1970234375,13.0900341796875,11.8880234375,13.0900341796875ZM8.0002934375,8.6898941796875L6.3753034374999995,5.2255141796875Q6.3439334375000005,5.1586341796875,6.3001234375,5.0991641796875005Q6.2563034375,5.0396841796875,6.2017334375,4.9899041796875Q6.1471634375,4.9401241796874995,6.0839234375,4.9019441796875Q6.0206834375,4.8637641796875,5.9512134375,4.8386641796875Q5.8817434375,4.8135541796875,5.8087134375,4.8024841796875Q5.7356734375,4.7914041796875,5.6618834375,4.7947941796875Q5.5880934374999995,4.7981841796874996,5.5163834375,4.8159041796875Q5.4446734375000005,4.8336241796875,5.377793437499999,4.8649941796875Q5.3109134375,4.896364179687501,5.2514434375,4.940174179687499Q5.1919734375,4.9839841796875,5.1421934375,5.0385641796875Q5.0924034375,5.0931341796875,5.054233437500001,5.1563741796875Q5.0160534375,5.2196141796875,4.9909434375,5.289084179687499Q4.965833437500001,5.3585541796875,4.9547634375000005,5.4315841796874995Q4.9436934375,5.5046141796875006,4.9470734375,5.5784141796875Q4.9504634375,5.6522041796875,4.9681834375000005,5.7239141796875Q4.9859034375,5.7956241796875005,5.0172734375,5.8625041796875L7.3212734375,10.7745041796875Q7.3526434375,10.8413741796875,7.3964534375,10.9008541796875Q7.4402734375,10.9603241796875,7.4948434375,11.0101041796875Q7.5494134375,11.0598841796875,7.6126534375,11.0980641796875Q7.6758934375,11.1362441796875,7.7453634375,11.1613541796875Q7.8148334375,11.1864541796875,7.8878634375,11.1975341796875Q7.9609034375,11.2086041796875,8.0346934375,11.2052141796875Q8.1084834375,11.2018241796875,8.1801934375,11.1841041796875Q8.251903437500001,11.1663941796875,8.318783437499999,11.1350241796875Q8.4377234375,11.0792341796875,8.530623437500001,10.9863341796875Q8.6235134375,10.8934441796875,8.6793034375,10.7745041796875L10.9833034375,5.8625041796875Q11.0146734375,5.7956241796875005,11.0323934375,5.7239141796875Q11.0501134375,5.6522041796875,11.0535034375,5.5784141796875Q11.0568834375,5.5046141796875006,11.0458134375,5.4315841796874995Q11.0347434375,5.3585541796875,11.0096334375,5.289084179687499Q10.9845234375,5.2196141796875,10.9463434375,5.1563741796875Q10.9081734375,5.0931341796875,10.8583834375,5.0385641796875Q10.8086034375,4.9839841796875,10.7491334375,4.940174179687499Q10.6896634375,4.896364179687501,10.6227834375,4.8649941796875Q10.5559034375,4.8336241796875,10.4841934375,4.8159041796875Q10.4124834375,4.7981841796874996,10.3386934375,4.7947941796875Q10.2649034375,4.7914041796875,10.1918634375,4.8024841796875Q10.118833437500001,4.8135541796875,10.0493634375,4.8386641796875Q9.9798934375,4.8637641796875,9.916653437499999,4.9019441796875Q9.8534134375,4.9401241796874995,9.7988434375,4.9899041796875Q9.7442734375,5.0396841796875,9.7004534375,5.0991641796875005Q9.6566434375,5.1586341796875,9.625273437499999,5.2255141796875L8.0002934375,8.6898941796875Z" fill-rule="evenodd" fill="#666666" fill-opacity="1"/></g></g></svg>