<svg xmlns="http://www.w3.org/2000/svg" xmlns:xlink="http://www.w3.org/1999/xlink" fill="none" version="1.1" width="16" height="16" viewBox="0 0 16 16"><g><g><path d="M12.2897465625,3.59999314453125L12.2897465625,6.24799314453125Q12.2897465625,6.32186314453125,12.3041565625,6.39431314453125Q12.3185665625,6.46676314453125,12.3468365625,6.53501314453125Q12.3751065625,6.60325314453125,12.4161465625,6.66467314453125Q12.4571865625,6.72609314453125,12.5094165625,6.77832314453125Q12.5616465625,6.83056314453125,12.6230665625,6.87160314453125Q12.6844865625,6.91263314453125,12.7527265625,6.94090314453125Q12.8210265625,6.96917314453125,12.8934265625,6.98358314453125Q12.9659265625,6.99799314453125,13.0397265625,6.99799314453125Q13.1136265625,6.99799314453125,13.1860265625,6.98358314453125Q13.2585265625,6.96917314453125,13.3267265625,6.94090314453125Q13.3950265625,6.91263314453125,13.4564265625,6.87160314453125Q13.5178265625,6.83056314453125,13.5701265625,6.77832314453125Q13.6223265625,6.72609314453125,13.6633265625,6.66467314453125Q13.7044265625,6.60325314453125,13.7326265625,6.53501314453125Q13.7609265625,6.46676314453125,13.7753265625,6.39431314453125Q13.7897265625,6.32186314453125,13.7897265625,6.24799314453125L13.7897265625,3.59999314453125Q13.7897265625,2.69286814453125,13.1483265625,2.0514321445312502Q12.5068765625,1.40999614453125,11.5997465625,1.40999614453125L4.1597465625000005,1.40999614453125Q3.2529825624999997,1.40490414453125,2.6088205625,2.04906614453125Q1.9646575625,2.6932291445312497,1.9697615625,3.60419314453125L1.9697495625,11.92799314453125Q1.9697495625,12.83537314453125,2.6131555625,13.47527314453125Q3.2565735625,14.11507314453125,4.1639565625,14.10997314453125L7.1997465625,14.10997314453125Q7.2736165625,14.10997314453125,7.3460665625,14.09557314453125Q7.4185165625,14.08117314453125,7.4867665625,14.05287314453125Q7.5550065625,14.02467314453125,7.6164265625,13.98357314453125Q7.6778465625,13.94257314453125,7.7300765625,13.89037314453125Q7.7823165625,13.83807314453125,7.8233465625,13.77667314453125Q7.8643865625,13.71527314453125,7.8926565625,13.64697314453125Q7.9209265625,13.57877314453125,7.9353365625,13.50627314453125Q7.9497465625,13.43387314453125,7.9497465625,13.35997314453125Q7.9497465625,13.28617314453125,7.9353365625,13.21367314453125Q7.9209265625,13.14127314453125,7.8926565625,13.07297314453125Q7.8643865625,13.00477314453125,7.8233465625,12.94327314453125Q7.7823165625,12.88187314453125,7.7300765625,12.82967314453125Q7.6778465625,12.77747314453125,7.6164265625,12.73637314453125Q7.5550065625,12.69537314453125,7.4867665625,12.66707314453125Q7.4185165625,12.63877314453125,7.3460665625,12.62437314453125Q7.2736165625,12.60997314453125,7.1997465625,12.60997314453125L4.1555465625,12.60997314453125Q3.8719565625000003,12.61157314453125,3.6708575625,12.41157314453125Q3.4697495625,12.21167314453125,3.4697495625,11.92799314453125L3.4697375624999998,3.59579314453125Q3.4681425624999997,3.31106314453125,3.6694805625,3.10972614453125Q3.8708165625,2.9083891445312497,4.1597465625000005,2.90999614453125L11.5997465625,2.90999614453125Q11.8855565625,2.90999614453125,12.0876565625,3.11209214453125Q12.2897465625,3.31419314453125,12.2897465625,3.59999314453125ZM5.6716765625,6.29399314453125L10.0876765625,6.29399314453125Q10.1564865625,6.29399314453125,10.2241565625,6.28147314453125Q10.2882765625,6.26961314453125,10.3493965625,6.24685314453125Q10.4105165625,6.22409314453125,10.466786562500001,6.19112314453125Q10.523056562499999,6.15816314453125,10.572796562499999,6.1159731445312495Q10.622536562499999,6.073793144531249,10.6642465625,6.0236531445312504Q10.705956562499999,5.97352314453125,10.7383865625,5.916933144531249Q10.7708165625,5.86035314453125,10.7929865625,5.79902314453125Q10.8151665625,5.737693144531249,10.8264265625,5.6734531445312495Q10.8376765625,5.60921314453125,10.8376765625,5.54399314453125Q10.8376765625,5.47012314453125,10.8232665625,5.39768314453125Q10.8088565625,5.32523314453125,10.7805865625,5.25698314453125Q10.7523265625,5.18873314453125,10.7112865625,5.12732314453125Q10.670246562500001,5.06590314453125,10.6180065625,5.01366314453125Q10.5657765625,4.9614331445312505,10.5043565625,4.92039314453125Q10.4429365625,4.87935314453125,10.374696562499999,4.85108314453125Q10.3064465625,4.822823144531251,10.2339965625,4.808403144531249Q10.1615465625,4.79399314453125,10.0876765625,4.79399314453125L5.6716765625,4.79399314453125Q5.597806562500001,4.79399314453125,5.5253665625,4.808403144531249Q5.4529165625000005,4.822823144531251,5.3846665625,4.85108314453125Q5.316416562500001,4.87935314453125,5.2550065625,4.92039314453125Q5.1935865625,4.9614331445312505,5.1413465625,5.01366314453125Q5.0891165625,5.06590314453125,5.0480765625,5.12732314453125Q5.0070365625,5.18873314453125,4.978766562500001,5.25698314453125Q4.9505065625,5.32523314453125,4.9360865625,5.39768314453125Q4.9216765625,5.47012314453125,4.9216765625,5.54399314453125Q4.9216765625,5.6128031445312505,4.9341965625,5.68047314453125Q4.9460665625,5.74459314453125,4.9688265625,5.80571314453125Q4.9915865625,5.86683314453125,5.024546562499999,5.92310314453125Q5.0575165625,5.97937314453125,5.0996965625,6.02911314453125Q5.1418865625,6.07885314453125,5.1920165625,6.12056314453125Q5.2421565625,6.16227314453125,5.2987365625,6.19470314453125Q5.3553265625,6.22713314453125,5.4166565625,6.24930314453125Q5.4779865625,6.27148314453125,5.5422265625,6.28274314453125Q5.6064665625,6.29399314453125,5.6716765625,6.29399314453125ZM5.6716765625,9.246003144531251L7.8796765625,9.246003144531251Q7.9535465625,9.246003144531251,8.0259965625,9.23158314453125Q8.098446562500001,9.21717314453125,8.1666965625,9.188903144531249Q8.2349365625,9.16064314453125,8.2963565625,9.11960314453125Q8.3577765625,9.07856314453125,8.4100065625,9.02632314453125Q8.462246562499999,8.974093144531249,8.5032865625,8.91267314453125Q8.5443165625,8.851253144531249,8.5725865625,8.78301314453125Q8.600856562499999,8.71476314453125,8.6152665625,8.64231314453125Q8.6296765625,8.56986314453125,8.6296765625,8.496003144531251Q8.6296765625,8.42213314453125,8.6152665625,8.34968314453125Q8.600856562499999,8.27723314453125,8.5725865625,8.208983144531249Q8.5443165625,8.14074314453125,8.5032865625,8.07932314453125Q8.462246562499999,8.01790314453125,8.4100065625,7.96567314453125Q8.3577765625,7.91343314453125,8.2963565625,7.87239314453125Q8.2349365625,7.83135314453125,8.1666965625,7.80309314453125Q8.098446562500001,7.77482314453125,8.0259965625,7.76041314453125Q7.9535465625,7.74600314453125,7.8796765625,7.74600314453125L5.6716765625,7.74600314453125Q5.597806562500001,7.74600314453125,5.5253665625,7.76041314453125Q5.4529165625000005,7.77482314453125,5.3846665625,7.80309314453125Q5.316416562500001,7.83135314453125,5.2550065625,7.87239314453125Q5.1935865625,7.91343314453125,5.1413465625,7.96567314453125Q5.0891165625,8.01790314453125,5.0480765625,8.07932314453125Q5.0070365625,8.14074314453125,4.978766562500001,8.208983144531249Q4.9505065625,8.27723314453125,4.9360865625,8.34968314453125Q4.9216765625,8.42213314453125,4.9216765625,8.496003144531251Q4.9216765625,8.56986314453125,4.9360865625,8.64231314453125Q4.9505065625,8.71476314453125,4.978766562500001,8.78301314453125Q5.0070365625,8.851253144531249,5.0480765625,8.91267314453125Q5.0891165625,8.974093144531249,5.1413465625,9.02632314453125Q5.1935865625,9.07856314453125,5.2550065625,9.11960314453125Q5.316416562500001,9.16064314453125,5.3846665625,9.188903144531249Q5.4529165625000005,9.21717314453125,5.5253665625,9.23158314453125Q5.597806562500001,9.246003144531251,5.6716765625,9.246003144531251Z" fill-rule="evenodd" fill="#666666" fill-opacity="1"/></g><g><path d="M9.46072971875,12.83976361328125L12.91072671875,8.83976861328125C13.18868671875,8.46335471328125,13.728946718749999,8.40480261328125,14.08108671875,8.71292761328125C14.433236718749999,9.02105261328125,14.44691671875,9.56430361328125,14.11072671875,9.88976361328125L10.54072671875,13.88976361328125C10.26451671875,14.18766361328125,9.79916371875,14.20540361328125,9.50107471875,13.929393613281249C9.20298681875,13.65338361328125,9.18492811875,13.18804361328125,9.46072971875,12.88976361328125L9.46072971875,12.83976361328125Z" fill="#666666" fill-opacity="1"/></g></g></svg>