<svg xmlns="http://www.w3.org/2000/svg" xmlns:xlink="http://www.w3.org/1999/xlink" fill="none" version="1.1" width="16" height="16" viewBox="0 0 16 16"><g><g><path d="M10.1094765625,3.7498722265625Q10.8326065625,4.0997622265625004,11.4464165625,4.7135722265624995Q12.8739765625,6.1411322265625,12.8739765625,8.1600122265625Q12.8739765625,8.3568122265625,12.8603765625,8.548002226562499L12.8723765625,8.5479722265625Q13.6955765625,8.5479722265625,14.3213765625,9.0244322265625Q14.3739765625,8.603122226562501,14.3739765625,8.1600122265625Q14.3739765625,5.5198122265625,12.5070765625,3.6529122265625Q11.5589865625,2.7048222265625,10.4114665625,2.2382122265625Q10.4277765625,2.3837522265624997,10.4277765625,2.5360322265625Q10.4277765625,3.2088722265625,10.1094765625,3.7498722265625ZM5.5880665625,2.2383822265625Q4.4407865625,2.7050022265625,3.4928765625000002,3.6529122265625Q1.6259765625,5.5198122265625,1.6259765625,8.1600122265625Q1.6259765625,8.6033222265625,1.6786114625,9.0248422265625Q2.3046405625,8.5479722265625,3.1281965625000003,8.5479722265625L3.1395465625,8.5479922265625Q3.1259765625,8.3568122265625,3.1259765625,8.1600122265625Q3.1259765625,6.1411322265625,4.5535365625,4.7135722265624995Q5.1672165625,4.0998922265625,5.8901665625,3.7500222265625Q5.5717765625,3.2089722265625,5.5717765625,2.5360322265625Q5.5717765625,2.3838322265625003,5.5880665625,2.2383822265625ZM5.2398665625,12.1864322265625Q5.0818965625,12.4559322265625,4.8450465625,12.6928322265625Q4.5061765625,13.0317322265625,4.1004165624999995,13.2091322265625Q5.7757965625,14.5340322265625,7.9999765625,14.5340322265625Q10.2242965625,14.5340322265625,11.8997765625,13.2089322265625Q11.4941965625,13.0315322265625,11.1554765625,12.6928322265625Q10.9185065625,12.4558322265625,10.7604965625,12.1861322265625Q9.5558365625,13.0340322265625,7.9999765625,13.0340322265625Q6.4443865625,13.0340322265625,5.2398665625,12.1864322265625ZM9.4277765625,2.5360322265625Q9.4277765625,1.9445362265625001,9.0095265625,1.5262842265625Q8.5912765625,1.1080322265625,7.9997765625,1.1080322265625Q7.4082765625,1.1080322265625,6.9900265625,1.5262842265625Q6.5717765625,1.9445352265625,6.5717765625,2.5360322265625Q6.5717765625,3.1275322265625,6.9900265625,3.5457822265625Q7.4082765625,3.9640322265625,7.9997765625,3.9640322265625Q8.5912765625,3.9640322265625,9.0095265625,3.5457822265625Q9.4277765625,3.1275322265625,9.4277765625,2.5360322265625ZM4.5561965625,10.9759722265625Q4.5561965625,10.3844722265625,4.1379465625,9.9662222265625Q3.7196965625,9.5479722265625,3.1281965625000003,9.5479722265625Q2.5366985625,9.5479722265625,2.1184465625,9.9662222265625Q1.7001953625,10.3844722265625,1.7001953625,10.9759722265625Q1.7001953625,11.5674322265625,2.1184465625,11.9857322265625Q2.5366985625,12.4039322265625,3.1281965625000003,12.4039322265625Q3.7196965625,12.4039322265625,4.1379465625,11.9857322265625Q4.5561965625,11.5674322265625,4.5561965625,10.9759722265625ZM14.3003765625,10.9759722265625Q14.3003765625,10.3844722265625,13.8820765625,9.9662222265625Q13.4638765625,9.5479722265625,12.8723765625,9.5479722265625Q12.2808765625,9.5479722265625,11.8625765625,9.9662222265625Q11.4443365625,10.3844722265625,11.4443365625,10.9759722265625Q11.4443365625,11.5674322265625,11.8625765625,11.9857322265625Q12.2808765625,12.4039322265625,12.8723765625,12.4039322265625Q13.4638765625,12.4039322265625,13.8820765625,11.9857322265625Q14.3003765625,11.5674322265625,14.3003765625,10.9759722265625Z" fill-rule="evenodd" fill="#666666" fill-opacity="1"/></g></g></svg>