<svg xmlns="http://www.w3.org/2000/svg" xmlns:xlink="http://www.w3.org/1999/xlink" fill="none" version="1.1" width="16" height="16" viewBox="0 0 16 16"><defs><clipPath id="master_svg0_9873_10255"><rect x="0" y="0" width="16" height="16" rx="0"/></clipPath></defs><g clip-path="url(#master_svg0_9873_10255)"><g><path d="M11.01785625,4.5222721875000005C11.02666625,6.6398921875,9.31948625,8.3649321875,7.20188625,8.378172187499999C5.07175625,8.3914821875,3.33784625,6.6683521875,3.33788625,4.5381721875C3.33788625,2.4205721875,5.052266250000001,0.7026758175,7.16993625,0.69825077057C9.28757625,0.6938667275,11.00904625,2.4046421875,11.01785625,4.5222721875000005ZM8.84110625,6.1842421875Q8.16032625,6.8721521875,7.19251625,6.8782021875Q6.21897625,6.8842821875,5.52842625,6.1980221875Q4.83787625,5.5117521875,4.83788625,4.5381721875Q4.83788625,3.5703921875,5.52153625,2.8853421875Q6.20519625,2.2002721875,7.17304625,2.1982521875Q8.14087625,2.1962421875,8.827356250000001,2.8784621875Q9.51384625,3.5606921875,9.51786625,4.5285021875Q9.52189625,5.4963221875,8.84110625,6.1842421875ZM3.08342625,14.8731421875L7.99604625,14.8731421875Q7.84118625,14.6905421875,7.72207625,14.4703421875Q7.38099625,13.9631421875,7.33967625,13.3731421875L3.09663625,13.3731421875Q2.99887625,13.3723421875,2.93449625,13.2987421875Q2.8701162499999997,13.2251421875,2.8819262500000002,13.1306421875Q3.05221625,11.8044421875,3.79652625,11.2754421875Q4.76780625,10.5851421875,7.20203625,10.5851421875Q7.36061625,10.5851421875,7.51304625,10.5881121875Q7.58146625,10.4170021875,7.67634625,10.2520621875Q8.060246249999999,9.5846921875,8.749186250000001,9.2410021875L8.87075625,9.1803521875Q8.11139625,9.0851421875,7.20203625,9.0851421875Q4.28905625,9.0851421875,2.92754625,10.0528221875Q1.64805125,10.9622421875,1.39414075,12.9396421875Q1.29827785,13.7066421875,1.80563325,14.2864421875Q2.31298925,14.8663421875,3.08342625,14.8731421875ZM13.58780625,12.3518421875C13.58620625,12.4863421875,13.65210625,12.6125421875,13.76360625,12.6878421875C14.22760625,12.8478421875,14.27560625,13.0238421875,14.32360625,13.0798421875C14.36350625,13.7028421875,14.02630625,14.2891421875,13.46770625,14.5678421875C13.41170625,14.5838421875,13.22780625,14.6317421875,12.85980625,14.3117421875C12.74340625,14.2446421875,12.60010625,14.2446421875,12.48380625,14.3117421875C12.36570625,14.3760421875,12.28960625,14.4974421875,12.28360625,14.6318421875C12.37960625,15.1118421875,12.25150625,15.2478421875,12.20350625,15.2878421875C11.95720625,15.4712421875,11.65410625,15.5619421875,11.34755625,15.5437421875C11.04097625,15.5619421875,10.73788625,15.4712421875,10.49158625,15.2877421875C10.45156625,15.2477421875,10.31552625,15.1117421875,10.41151625,14.6318421875C10.40547625,14.4974421875,10.32990625,14.3760421875,10.21181625,14.3117421875C10.09547625,14.2446421875,9.95217625,14.2446421875,9.83583625,14.3117421875C9.51075625,14.5944421875,9.33535625,14.5775421875,9.25478625,14.5697421875C9.24414625,14.5687421875,9.23490625,14.5678421875,9.22743625,14.5678421875C8.946356250000001,14.4441421875,8.71725625,14.2262421875,8.57948625,13.9518421875C8.398026250000001,13.6990421875,8.313156249999999,13.3897421875,8.339746250000001,13.0798421875C8.35574625,13.0238421875,8.40357625,12.8478421875,8.867576249999999,12.6878421875C8.97898625,12.6125421875,9.04538625,12.4863421875,9.04384625,12.3518421875C9.04396625,12.2177421875,8.97790625,12.0921421875,8.867576249999999,12.0158421875C8.40357625,11.8638421875,8.339746250000001,11.6798421875,8.339746250000001,11.6238421875C8.29983625,11.0007421875,8.63706625,10.4145221875,9.195696250000001,10.1358221875C9.19833625,10.1354521875,9.201286249999999,10.1349921875,9.204516250000001,10.1344821875C9.26949625,10.1241221875,9.45296625,10.0948921875,9.80360625,10.3998021875C9.92076625,10.4638321875,10.06243625,10.4638321875,10.17958625,10.3998021875C10.29767625,10.3355121875,10.37373625,10.2141221875,10.37978625,10.0797921875C10.28841625,9.6229821875,10.40685625,9.4850021875,10.45302625,9.4313621875C10.45536625,9.4286321875,10.45792625,9.4261121875,10.45985625,9.4237921875C10.97892625,9.0805821875,11.65270625,9.0805821875,12.17180625,9.4237921875C12.25180625,9.4717921875,12.34780625,9.5997921875,12.25180625,10.0797921875C12.25790625,10.2141221875,12.33350625,10.3355121875,12.45160625,10.3998021875C12.56870625,10.4638321875,12.71040625,10.4638321875,12.82750625,10.3998021875C13.15740625,10.1129821875,13.33940625,10.1282421875,13.41400625,10.1344821875C13.42260625,10.1352021875,13.42960625,10.1358221875,13.43540625,10.1358221875C13.99410625,10.4145221875,14.33130625,11.0007421875,14.29140625,11.6238421875C14.27540625,11.6798421875,14.22760625,11.8638421875,13.76360625,12.0158421875C13.65320625,12.0921421875,13.58770625,12.2177421875,13.58780625,12.3518421875ZM10.14784625,12.3518421875C10.14784625,12.9969421875,10.67074625,13.5198421875,11.31581625,13.5198421875C11.96090625,13.5198421875,12.48380625,12.9969421875,12.48380625,12.3518421875C12.48380625,11.7067421875,11.96090625,11.1838421875,11.31581625,11.1838421875C10.67074625,11.1838421875,10.14784625,11.7067421875,10.14784625,12.3518421875Z" fill-rule="evenodd" fill="#666666" fill-opacity="1"/></g></g></svg>