<svg xmlns="http://www.w3.org/2000/svg" xmlns:xlink="http://www.w3.org/1999/xlink" fill="none" version="1.1" width="16" height="16" viewBox="0 0 16 16"><g><g><path d="M7.8430575,4.695479355926514Q7.8430575,5.289459355926514,8.2630675,5.7094693559265135L10.2599375,7.706339355926514Q10.6799475,8.126349355926514,11.2739275,8.126349355926514Q11.8679075,8.126349355926514,12.2878875,7.706339355926514L14.2847875,5.7094693559265135Q14.7047875,5.289459355926514,14.7047875,4.695479355926514Q14.7047875,4.101499355926514,14.2847875,3.6814893559265136L12.2878875,1.6846183559265135Q11.8679075,1.2646093559265137,11.2739275,1.2646093559265137Q10.6799475,1.2646093559265137,10.2599375,1.6846183559265135L8.2630675,3.6814893559265136Q7.8430575,4.101499355926514,7.8430575,4.695479355926514ZM1.2621875,3.999989355926514L1.2621875,6.239989355926514Q1.2621875,6.873729355926514,1.7103145,7.321859355926514Q2.1584415,7.769989355926514,2.7921875,7.769989355926514L5.8801875,7.769989355926514Q6.5139375,7.769989355926514,6.9620575,7.321859355926514Q7.4101875,6.873729355926514,7.4101875,6.239989355926514L7.4101875,3.1999893559265136Q7.4101875,2.566238355926514,6.9620575,2.118111355926514Q6.5139375,1.6699853559265136,5.8801875,1.6699853559265136L3.6387875000000003,1.6701313559265136Q2.6600505,1.6505523559265136,1.9610212,2.3358753559265137Q1.2620434999999999,3.0211493559265135,1.2621875,3.999989355926514ZM9.3138275,4.695479355926514L11.2739275,6.6555793559265135L13.2339875,4.695479355926514L11.2739275,2.7353793559265136L9.3138275,4.695479355926514ZM2.7221875,6.239989355926514L2.7221875,3.9998393559265137Q2.7221145,3.6343193559265137,2.9831255,3.3784193559265137Q3.2441375,3.1225293559265137,3.6095875,3.1298393559265136L5.8801875,3.1299893559265137Q5.9501875,3.1299893559265137,5.9501875,3.1999893559265136L5.9501875,6.239989355926514Q5.9501875,6.309989355926514,5.8801875,6.309989355926514L2.7921875,6.309989355926514Q2.7221875,6.309989355926514,2.7221875,6.239989355926514ZM9.921677500000001,8.637989355926514L12.7999875,8.637989355926514Q13.4337875,8.637989355926514,13.8818875,9.086119355926513Q14.3299875,9.534249355926514,14.3299875,10.167989355926514L14.3299875,12.400009355926514Q14.3299875,13.365109355926514,13.6475875,14.047509355926513Q12.9651875,14.730009355926514,11.9999875,14.730009355926514L9.7360375,14.730009355926514Q9.1022875,14.730009355926514,8.6541575,14.281909355926514Q8.2060375,13.833709355926514,8.2060375,13.200009355926513L8.2060375,10.143989355926514Q8.2060375,9.510249355926515,8.6541575,9.062119355926514Q9.1022875,8.613989355926513,9.7360375,8.613989355926513Q9.8304075,8.613989355926513,9.921677500000001,8.637989355926514ZM1.7361195,9.091159355926514Q1.3118585,9.519839355926514,1.2942375,10.122719355926513Q1.2939254999999998,10.133379355926513,1.2939254999999998,10.144039355926514L1.2939254999999998,12.456009355926513Q1.2939254999999998,13.421209355926514,1.9763672,14.103609355926514Q2.6588075,14.786009355926513,3.6239274999999997,14.786009355926513L5.8799275,14.786009355926513Q6.5136775,14.786009355926513,6.9617975,14.337909355926513Q7.4099275,13.889809355926515,7.4099275,13.256009355926514L7.4099275,10.168039355926513Q7.4099275,9.534299355926514,6.9617975,9.086169355926515Q6.5136775,8.638039355926514,5.8799275,8.638039355926514L2.7919255,8.638039355926514Q2.7774755,8.638039355926514,2.7630385,8.638619355926513Q2.1603815,8.662479355926514,1.7361195,9.091159355926514ZM9.6660375,10.143989355926514Q9.6660375,10.113079355926514,9.6796875,10.095819355926514Q9.7078175,10.097989355926513,9.7360375,10.097989355926513L12.7999875,10.097989355926513Q12.8289875,10.097989355926513,12.8494875,10.118499355926513Q12.8699875,10.138999355926513,12.8699875,10.167989355926514L12.8699875,12.400009355926514Q12.8699875,12.760309355926514,12.6151875,13.015209355926514Q12.3603875,13.270009355926513,11.9999875,13.270009355926513L9.7360375,13.270009355926513Q9.6660375,13.270009355926513,9.6660375,13.200009355926513L9.6660375,10.143989355926514ZM2.7539255000000002,10.159469355926513L2.7539255000000002,12.456009355926513Q2.7539255000000002,12.816409355926513,3.0087475,13.071209355926513Q3.2635575,13.326009355926514,3.6239274999999997,13.326009355926514L5.8799275,13.326009355926514Q5.949927499999999,13.326009355926514,5.949927499999999,13.256009355926514L5.949927499999999,10.168039355926513Q5.949927499999999,10.098039355926513,5.8799275,10.098039355926513L2.8128715,10.098039355926513Q2.7582355,10.103849355926513,2.7539255000000002,10.159469355926513Z" fill-rule="evenodd" fill="#1D74F5" fill-opacity="1"/></g></g></svg>