<svg xmlns="http://www.w3.org/2000/svg" xmlns:xlink="http://www.w3.org/1999/xlink" fill="none" version="1.1" width="14" height="14" viewBox="0 0 14 14"><defs><clipPath id="master_svg0_7394_14841"><rect x="0" y="0" width="14" height="14" rx="0"/></clipPath></defs><g clip-path="url(#master_svg0_7394_14841)"><g><path d="M7.000078046875,12.83204423828125Q7.143278046875,12.83204423828125,7.286308046875,12.82494423828125Q7.429338046875,12.81794423828125,7.571848046875,12.80394423828125Q7.714358046875,12.78984423828125,7.856008046875,12.76884423828125Q7.997658046875,12.74784423828125,8.138108046875,12.71994423828125Q8.278558046875,12.69194423828125,8.417468046875001,12.65714423828125Q8.556378046875,12.62244423828125,8.693408046875,12.58084423828125Q8.830438046874999,12.53924423828125,8.965268046875,12.49104423828125Q9.100098046875,12.44274423828125,9.232398046875,12.38794423828125Q9.364698046875,12.33314423828125,9.494148046875,12.27194423828125Q9.623608046875,12.21074423828125,9.749898046875,12.14324423828125Q9.876188046875,12.07574423828125,9.999018046875,12.00204423828125Q10.121838046875,11.92844423828125,10.240908046875,11.84894423828125Q10.359968046875,11.76934423828125,10.474998046875,11.68404423828125Q10.590018046875,11.59874423828125,10.700708046875,11.50794423828125Q10.811408046875,11.41704423828125,10.917508046875,11.32084423828125Q11.023618046875,11.22474423828125,11.124868046875,11.12346423828125Q11.226148046875,11.02220423828125,11.322248046875,10.91610423828125Q11.418448046875,10.81000423828125,11.509348046875,10.69930423828125Q11.600148046875,10.58860423828125,11.685448046875,10.47358423828125Q11.770748046875,10.35856423828125,11.850348046875,10.23950423828125Q11.929848046875,10.12043423828125,12.003448046875,9.99760423828125Q12.077148046875,9.87478423828125,12.144648046875,9.74849423828125Q12.212148046875,9.62219423828125,12.273348046875,9.49274423828125Q12.334548046875,9.36329423828125,12.389348046875,9.23099423828125Q12.444148046875,9.09869423828125,12.492448046875,8.96386423828125Q12.540648046875,8.829034238281249,12.582248046875,8.69200423828125Q12.623848046875,8.55497423828125,12.658548046875,8.416064238281251Q12.693348046875,8.27715423828125,12.721348046875,8.13670423828125Q12.749248046875,7.99625423828125,12.770248046875,7.85460423828125Q12.791248046875,7.71295423828125,12.805348046875,7.57044423828125Q12.819348046875,7.42793423828125,12.826348046875,7.28490423828125Q12.833448046875,7.14187423828125,12.833448046875,6.99867423828125Q12.833448046875,6.85547423828125,12.826348046875,6.71244423828125Q12.819348046875,6.56942423828125,12.805348046875,6.42691423828125Q12.791248046875,6.28440423828125,12.770248046875,6.14275423828125Q12.749248046875,6.00110423828125,12.721348046875,5.86065423828125Q12.693348046875,5.72020423828125,12.658548046875,5.58129423828125Q12.623848046875,5.44238423828125,12.582248046875,5.30535423828125Q12.540648046875,5.16831423828125,12.492448046875,5.03348423828125Q12.444148046875,4.8986542382812495,12.389348046875,4.7663542382812505Q12.334548046875,4.63405423828125,12.273348046875,4.5046042382812495Q12.212148046875,4.37515423828125,12.144648046875,4.24886423828125Q12.077148046875,4.12257423828125,12.003448046875,3.99974423828125Q11.929848046875,3.87691423828125,11.850348046875,3.75785423828125Q11.770748046875,3.63878423828125,11.685448046875,3.52376423828125Q11.600148046875,3.40874423828125,11.509348046875,3.29805423828125Q11.418448046875,3.18735423828125,11.322248046875,3.0812542382812502Q11.226148046875,2.97514423828125,11.124868046875,2.87388423828125Q11.023608046875,2.77263423828125,10.917508046875,2.67646423828125Q10.811408046875,2.58029423828125,10.700708046875,2.48945423828125Q10.590008046875,2.39860423828125,10.474988046875,2.3133042382812503Q10.359968046875,2.22799423828125,10.240908046875,2.14843823828125Q10.121838046875,2.06888023828125,9.999008046875,1.9952602382812499Q9.876188046875,1.92164123828125,9.749898046875,1.85413723828125Q9.623598046875,1.7866322382812498,9.494148046875,1.7254062382812498Q9.364698046875,1.66418023828125,9.232398046875,1.60938023828125Q9.100098046875,1.55458023828125,8.965268046875,1.50633723828125Q8.830438046874999,1.45809423828125,8.693408046875,1.4165252382812499Q8.556378046875,1.37495723828125,8.417468046875001,1.34016223828125Q8.278558046875,1.30536723828125,8.138108046875,1.27743023828125Q7.997658046875,1.24949313828125,7.856008046875,1.22848123828125Q7.714358046875,1.20746943828125,7.571848046875,1.19343333828125Q7.429338046875,1.17939723828125,7.286308046875,1.17237074828125Q7.143278046875,1.16534423828125,7.000078046875,1.16534423828125Q6.856878046875,1.16534423828125,6.713848046875,1.17237074828125Q6.570828046875,1.17939723828125,6.428318046875,1.19343333828125Q6.285808046875,1.20746943828125,6.144158046875,1.22848123828125Q6.002508046875,1.24949313828125,5.862058046875,1.27743023828125Q5.721608046875,1.30536723828125,5.582698046875,1.34016223828125Q5.443788046875,1.37495723828125,5.306758046875,1.4165252382812499Q5.169718046875,1.45809423828125,5.034888046875,1.50633723828125Q4.9000580468749995,1.55458023828125,4.7677580468750005,1.60938023828125Q4.635458046875,1.66418023828125,4.5060080468749995,1.7254062382812498Q4.376558046875,1.7866322382812498,4.250268046875,1.85413723828125Q4.123978046875,1.92164123828125,4.0011480468750005,1.9952602382812499Q3.878318046875,2.06888023828125,3.759258046875,2.14843823828125Q3.640188046875,2.22799423828125,3.525168046875,2.3133042382812503Q3.410148046875,2.39860423828125,3.299458046875,2.48945423828125Q3.188758046875,2.58029423828125,3.0826580468750002,2.67646423828125Q2.976548046875,2.77263423828125,2.875288046875,2.87388423828125Q2.774038046875,2.97514423828125,2.677868046875,3.0812542382812502Q2.581698046875,3.18735423828125,2.490858046875,3.29805423828125Q2.400008046875,3.40874423828125,2.3147080468750003,3.52376423828125Q2.229398046875,3.63878423828125,2.149842046875,3.75785423828125Q2.070284046875,3.87691423828125,1.9966640468749999,3.99974423828125Q1.923045046875,4.12257423828125,1.855541046875,4.24886423828125Q1.7880360468749998,4.37515423828125,1.7268100468749998,4.5046042382812495Q1.665584046875,4.63405423828125,1.610784046875,4.7663542382812505Q1.555984046875,4.8986542382812495,1.507741046875,5.03348423828125Q1.459498046875,5.16831423828125,1.4179290468749999,5.30535423828125Q1.376361046875,5.44238423828125,1.341566046875,5.58129423828125Q1.306771046875,5.72020423828125,1.278834046875,5.86065423828125Q1.250896946875,6.00110423828125,1.229885046875,6.14275423828125Q1.208873246875,6.28440423828125,1.194837146875,6.42691423828125Q1.180801046875,6.56942423828125,1.173774556875,6.71245423828125Q1.166748046875,6.85547423828125,1.166748046875,6.99867423828125Q1.166748046875,7.14187423828125,1.173774556875,7.28490423828125Q1.180801046875,7.42793423828125,1.194837146875,7.57044423828125Q1.208873246875,7.71295423828125,1.229885046875,7.85460423828125Q1.250896946875,7.99625423828125,1.278834046875,8.13670423828125Q1.306771046875,8.27715423828125,1.341566046875,8.416064238281251Q1.376361046875,8.55497423828125,1.4179290468749999,8.69200423828125Q1.459498046875,8.829034238281249,1.507741046875,8.96386423828125Q1.555984046875,9.09869423828125,1.610784046875,9.23099423828125Q1.665584046875,9.36329423828125,1.7268100468749998,9.49274423828125Q1.7880360468749998,9.62220423828125,1.855541046875,9.74849423828125Q1.923045046875,9.87478423828125,1.9966640468749999,9.99761423828125Q2.070284046875,10.12043423828125,2.149842046875,10.23950423828125Q2.229398046875,10.35856423828125,2.3147080468750003,10.47359423828125Q2.400008046875,10.58861423828125,2.490858046875,10.69930423828125Q2.581698046875,10.81000423828125,2.677868046875,10.91610423828125Q2.774038046875,11.02221423828125,2.875288046875,11.12346423828125Q2.976548046875,11.22474423828125,3.0826580468750002,11.32084423828125Q3.188758046875,11.41704423828125,3.299458046875,11.50794423828125Q3.410148046875,11.59874423828125,3.525168046875,11.68404423828125Q3.640188046875,11.76934423828125,3.759258046875,11.84894423828125Q3.878318046875,11.92844423828125,4.0011480468750005,12.00204423828125Q4.123978046875,12.07574423828125,4.250268046875,12.14324423828125Q4.376558046875,12.21074423828125,4.5060080468749995,12.27194423828125Q4.635458046875,12.33314423828125,4.7677580468750005,12.38794423828125Q4.9000580468749995,12.44274423828125,5.034888046875,12.49104423828125Q5.169718046875,12.53924423828125,5.306758046875,12.58084423828125Q5.443788046875,12.62244423828125,5.582698046875,12.65714423828125Q5.721608046875,12.69194423828125,5.862058046875,12.71994423828125Q6.002508046875,12.74784423828125,6.144158046875,12.76884423828125Q6.285808046875,12.78984423828125,6.428318046875,12.80394423828125Q6.570828046875,12.81794423828125,6.713858046875,12.82494423828125Q6.856878046875,12.83204423828125,7.000078046875,12.83204423828125ZM6.760328046875,9.09932423828125L10.009828046875,5.59022423828125C10.100928046875,5.49294423828125,10.151668046875,5.36461423828125,10.151668046875,5.23133423828125L10.151248046875,5.21414423828125C10.146678046875,5.07497423828125,10.087108046875,4.9433242382812494,9.985478046875,4.84815423828125C9.888188046875,4.75705423828125,9.759868046875,4.70636423828125,9.626588046875,4.70636423828125L9.625308046875,4.70636423828125L9.609498046875,4.70662423828125C9.470338046875,4.71119423828125,9.338518046875,4.77087423828125,9.243348046875,4.87250423828125L6.377168046875,7.97233423828125L4.7507980468749995,6.23501423828125C4.651528046875001,6.12898423828125,4.512778046875,6.06880423828125,4.367528046875,6.06880423828125L4.357658046875001,6.06890423828125C4.227838046875,6.07134423828125,4.103528046875001,6.12180423828125,4.008738046875,6.21054423828125C3.907088046875,6.30569423828125,3.847408046875,6.43733423828125,3.842818046875,6.57650423828125L3.842528046875,6.59380423828125L3.842588046875,6.60172423828125C3.844558046875,6.73222423828125,3.895068046875,6.85731423828125,3.984258046875,6.95260423828125L5.993848046875,9.09926423828125C6.001718046875,9.10767423828125,6.009858046875,9.11581423828125,6.018258046875,9.12368423828125C6.229908046875,9.32187423828125,6.562138046875,9.31096423828125,6.760328046875,9.09932423828125Z" fill-rule="evenodd" fill="#08C479" fill-opacity="1"/></g></g></svg>