<svg xmlns="http://www.w3.org/2000/svg" xmlns:xlink="http://www.w3.org/1999/xlink" fill="none" version="1.1" width="16" height="16" viewBox="0 0 16 16"><g><g><path d="M15.0399609375,8.00021484375C15.0399609375,8.707144843750001,14.4668609375,9.28021484375,13.7599609375,9.28021484375C13.0530609375,9.28021484375,12.4799609375,8.707144843750001,12.4799609375,8.00021484375C12.4799609375,7.29329084375,13.0530609375,6.72021484375,13.7599609375,6.72021484375C14.4668609375,6.72021484375,15.0399609375,7.29329084375,15.0399609375,8.00021484375ZM3.5199609375,8.00021484375C3.5199609375,8.707144843750001,2.9468809375,9.28021484375,2.2399609375000002,9.28021484375C1.5330369375,9.28021484375,0.9599609375,8.707144843750001,0.9599609375,8.00021484375C0.9599609375,7.29329084375,1.5330369375,6.72021484375,2.2399609375000002,6.72021484375C2.9468809375,6.72021484375,3.5199609375,7.29329084375,3.5199609375,8.00021484375ZM9.2800209375,8.00021484375C9.2800209375,8.707144843750001,8.7069409375,9.28021484375,8.0000209375,9.28021484375C7.2930909375,9.28021484375,6.7200209375,8.707144843750001,6.7200209375,8.00021484375C6.7200209375,7.29329084375,7.2930909375,6.72021484375,8.0000209375,6.72021484375C8.7069409375,6.72021484375,9.2800209375,7.29329084375,9.2800209375,8.00021484375Z" fill="#333333" fill-opacity="1"/></g></g></svg>