<svg xmlns="http://www.w3.org/2000/svg" xmlns:xlink="http://www.w3.org/1999/xlink" fill="none" version="1.1" width="16" height="16" viewBox="0 0 16 16"><g><g><path d="M7.230754695129395,4.15383950958252Q7.230754695129395,4.21051950958252,7.225194695129394,4.266939509582519Q7.219644695129395,4.32334950958252,7.208584695129394,4.378939509582519Q7.1975246951293945,4.434539509582519,7.181064695129395,4.488779509582519Q7.164614695129394,4.543029509582519,7.142924695129395,4.59539950958252Q7.121234695129394,4.6477695095825196,7.094504695129395,4.69775950958252Q7.067784695129395,4.747749509582519,7.036294695129394,4.79487950958252Q7.004804695129394,4.84201950958252,6.968844695129395,4.8858295095825195Q6.9328846951293945,4.92964950958252,6.892794695129394,4.969729509582519Q6.852714695129395,5.0098195095825195,6.8088946951293945,5.04577950958252Q6.765084695129395,5.081739509582519,6.717944695129395,5.113229509582519Q6.670814695129394,5.14471950958252,6.620824695129395,5.17143950958252Q6.5708346951293946,5.198169509582519,6.518464695129395,5.21985950958252Q6.466094695129394,5.241549509582519,6.411844695129394,5.25799950958252Q6.357604695129394,5.2744595095825195,6.302004695129394,5.285519509582519Q6.246414695129395,5.29657950958252,6.190004695129394,5.302129509582519Q6.133584695129395,5.30768950958252,6.076904695129395,5.30768950958252Q6.020214695129394,5.30768950958252,5.963804695129395,5.302129509582519Q5.907395695129394,5.29657950958252,5.851799695129395,5.285519509582519Q5.796203695129394,5.2744595095825195,5.7419596951293945,5.25799950958252Q5.687715695129395,5.241549509582519,5.635344695129395,5.21985950958252Q5.582974695129394,5.198169509582519,5.532983695129395,5.17143950958252Q5.482991695129394,5.14471950958252,5.435859695129395,5.113229509582519Q5.388727695129394,5.081739509582519,5.344909695129394,5.04577950958252Q5.3010916951293945,5.0098195095825195,5.2610096951293945,4.969729509582519Q5.2209266951293944,4.92964950958252,5.184966695129394,4.8858295095825195Q5.149005695129395,4.84201950958252,5.117513695129395,4.79487950958252Q5.0860206951293945,4.747749509582519,5.059299695129394,4.69775950958252Q5.032578695129395,4.6477695095825196,5.010886295129395,4.59539950958252Q4.989193895129395,4.543029509582519,4.972739095129395,4.488779509582519Q4.956284295129395,4.434539509582519,4.945225595129394,4.378939509582519Q4.934166895129395,4.32334950958252,4.928610795129394,4.266939509582519Q4.9230546951293945,4.21051950958252,4.9230546951293945,4.15383950958252Q4.9230546951293945,4.097149509582519,4.928610795129394,4.04073950958252Q4.934166895129395,3.9843305095825197,4.945225595129394,3.9287345095825197Q4.956284295129395,3.8731385095825193,4.972739095129395,3.8188945095825195Q4.989193895129395,3.76465050958252,5.010886295129395,3.7122795095825194Q5.032578695129395,3.6599095095825196,5.059299695129394,3.6099185095825197Q5.0860206951293945,3.5599265095825197,5.117513695129395,3.5127945095825197Q5.149005695129395,3.4656625095825193,5.184966695129394,3.4218445095825194Q5.2209266951293944,3.3780265095825195,5.2610096951293945,3.3379445095825195Q5.3010916951293945,3.2978615095825194,5.344909695129394,3.2619015095825197Q5.388727695129394,3.2259405095825198,5.435859695129395,3.1944485095825197Q5.482991695129394,3.1629555095825195,5.532983695129395,3.1362345095825197Q5.582974695129394,3.1095135095825195,5.635344695129395,3.0878211095825194Q5.687715695129395,3.0661287095825194,5.7419596951293945,3.0496739095825194Q5.796203695129394,3.0332191095825194,5.851799695129395,3.0221604095825194Q5.907395695129394,3.0111017095825194,5.963804695129395,3.0055456095825197Q6.020214695129394,2.9999895095825195,6.076904695129395,2.9999895095825195Q6.133584695129395,2.9999895095825195,6.190004695129394,3.0055456095825197Q6.246414695129395,3.0111017095825194,6.302004695129394,3.0221604095825194Q6.357604695129394,3.0332191095825194,6.411844695129394,3.0496739095825194Q6.466094695129394,3.0661287095825194,6.518464695129395,3.0878211095825194Q6.5708346951293946,3.1095135095825195,6.620824695129395,3.1362345095825197Q6.670814695129394,3.1629555095825195,6.717944695129395,3.1944485095825197Q6.765084695129395,3.2259405095825198,6.8088946951293945,3.2619015095825197Q6.852714695129395,3.2978615095825194,6.892794695129394,3.3379445095825195Q6.9328846951293945,3.3780265095825195,6.968844695129395,3.4218445095825194Q7.004804695129394,3.4656625095825193,7.036294695129394,3.5127945095825197Q7.067784695129395,3.5599265095825197,7.094504695129395,3.6099185095825197Q7.121234695129394,3.6599095095825196,7.142924695129395,3.7122795095825194Q7.164614695129394,3.76465050958252,7.181064695129395,3.8188945095825195Q7.1975246951293945,3.8731385095825193,7.208584695129394,3.9287345095825197Q7.219644695129395,3.9843305095825197,7.225194695129394,4.04073950958252Q7.230754695129395,4.097149509582519,7.230754695129395,4.15383950958252ZM11.078414695129394,4.15383950958252Q11.078414695129394,4.21051950958252,11.072854695129394,4.266939509582519Q11.067294695129394,4.32334950958252,11.056234695129394,4.378939509582519Q11.045184695129395,4.434539509582519,11.028724695129394,4.488779509582519Q11.012274695129395,4.543029509582519,10.990574695129395,4.59539950958252Q10.968884695129393,4.6477695095825196,10.942164695129396,4.69775950958252Q10.915444695129395,4.747749509582519,10.883954695129393,4.79487950958252Q10.852454695129396,4.84201950958252,10.816494695129395,4.8858295095825195Q10.780534695129393,4.92964950958252,10.740454695129394,4.969729509582519Q10.700374695129394,5.0098195095825195,10.656554695129394,5.04577950958252Q10.612734695129394,5.081739509582519,10.565604695129394,5.113229509582519Q10.518474695129395,5.14471950958252,10.468484695129394,5.17143950958252Q10.418484695129393,5.198169509582519,10.366114695129394,5.21985950958252Q10.313744695129394,5.241549509582519,10.259504695129394,5.25799950958252Q10.205264695129394,5.2744595095825195,10.149664695129395,5.285519509582519Q10.094064695129394,5.29657950958252,10.037654695129394,5.302129509582519Q9.981244695129394,5.30768950958252,9.924564695129394,5.30768950958252Q9.867874695129395,5.30768950958252,9.811464695129395,5.302129509582519Q9.755054695129395,5.29657950958252,9.699454695129393,5.285519509582519Q9.643854695129395,5.2744595095825195,9.589614695129395,5.25799950958252Q9.535374695129395,5.241549509582519,9.483004695129395,5.21985950958252Q9.430634695129395,5.198169509582519,9.380634695129395,5.17143950958252Q9.330644695129394,5.14471950958252,9.283514695129394,5.113229509582519Q9.236384695129395,5.081739509582519,9.192564695129395,5.04577950958252Q9.148744695129395,5.0098195095825195,9.108664695129395,4.969729509582519Q9.068584695129395,4.92964950958252,9.032624695129394,4.8858295095825195Q8.996664695129395,4.84201950958252,8.965164695129396,4.79487950958252Q8.933674695129394,4.747749509582519,8.906954695129395,4.69775950958252Q8.880234695129396,4.6477695095825196,8.858544695129394,4.59539950958252Q8.836854695129395,4.543029509582519,8.820394695129394,4.488779509582519Q8.803944695129395,4.434539509582519,8.792884695129395,4.378939509582519Q8.781824695129394,4.32334950958252,8.776264695129395,4.266939509582519Q8.770714695129394,4.21051950958252,8.770714695129394,4.15383950958252Q8.770714695129394,4.097149509582519,8.776264695129395,4.04073950958252Q8.781824695129394,3.9843305095825197,8.792884695129395,3.9287345095825197Q8.803944695129395,3.8731385095825193,8.820394695129394,3.8188945095825195Q8.836854695129395,3.76465050958252,8.858544695129394,3.7122795095825194Q8.880234695129396,3.6599095095825196,8.906954695129395,3.6099185095825197Q8.933674695129394,3.5599265095825197,8.965164695129396,3.5127945095825197Q8.996664695129395,3.4656625095825193,9.032624695129394,3.4218445095825194Q9.068584695129395,3.3780265095825195,9.108664695129395,3.3379445095825195Q9.148744695129395,3.2978615095825194,9.192564695129395,3.2619015095825197Q9.236384695129395,3.2259405095825198,9.283514695129394,3.1944485095825197Q9.330644695129394,3.1629555095825195,9.380634695129395,3.1362345095825197Q9.430634695129395,3.1095135095825195,9.483004695129395,3.0878211095825194Q9.535374695129395,3.0661287095825194,9.589614695129395,3.0496739095825194Q9.643854695129395,3.0332191095825194,9.699454695129393,3.0221604095825194Q9.755054695129395,3.0111017095825194,9.811464695129395,3.0055456095825197Q9.867874695129395,2.9999895095825195,9.924564695129394,2.9999895095825195Q9.981244695129394,2.9999895095825195,10.037654695129394,3.0055456095825197Q10.094064695129394,3.0111017095825194,10.149664695129395,3.0221604095825194Q10.205264695129394,3.0332191095825194,10.259504695129394,3.0496739095825194Q10.313744695129394,3.0661287095825194,10.366114695129394,3.0878211095825194Q10.418484695129393,3.1095135095825195,10.468484695129394,3.1362345095825197Q10.518474695129395,3.1629555095825195,10.565604695129394,3.1944485095825197Q10.612734695129394,3.2259405095825198,10.656554695129394,3.2619015095825197Q10.700374695129394,3.2978615095825194,10.740454695129394,3.3379445095825195Q10.780534695129393,3.3780265095825195,10.816494695129395,3.4218445095825194Q10.852454695129396,3.4656625095825193,10.883954695129393,3.5127945095825197Q10.915444695129395,3.5599265095825197,10.942164695129396,3.6099185095825197Q10.968884695129393,3.6599095095825196,10.990574695129395,3.7122795095825194Q11.012274695129395,3.76465050958252,11.028724695129394,3.8188945095825195Q11.045184695129395,3.8731385095825193,11.056234695129394,3.9287345095825197Q11.067294695129394,3.9843305095825197,11.072854695129394,4.04073950958252Q11.078414695129394,4.097149509582519,11.078414695129394,4.15383950958252ZM7.230754695129395,8.00149950958252Q7.230754695129395,8.05817950958252,7.225194695129394,8.114589509582519Q7.219644695129395,8.170999509582519,7.208584695129394,8.22659950958252Q7.1975246951293945,8.282199509582519,7.181064695129395,8.336439509582519Q7.164614695129394,8.390679509582519,7.142924695129395,8.443049509582519Q7.121234695129394,8.495419509582518,7.094504695129395,8.54541950958252Q7.067784695129395,8.59540950958252,7.036294695129394,8.64253950958252Q7.004804695129394,8.689669509582519,6.968844695129395,8.733489509582519Q6.9328846951293945,8.777309509582519,6.892794695129394,8.817389509582519Q6.852714695129395,8.857469509582518,6.8088946951293945,8.89342950958252Q6.765084695129395,8.92938950958252,6.717944695129395,8.960889509582518Q6.670814695129394,8.99237950958252,6.620824695129395,9.01909950958252Q6.5708346951293946,9.045819509582518,6.518464695129395,9.06750950958252Q6.466094695129394,9.08920950958252,6.411844695129394,9.10565950958252Q6.357604695129394,9.12211950958252,6.302004695129394,9.133169509582519Q6.246414695129395,9.14422950958252,6.190004695129394,9.149789509582519Q6.133584695129395,9.15534950958252,6.076904695129395,9.15534950958252Q6.020214695129394,9.15534950958252,5.963804695129395,9.149789509582519Q5.907395695129394,9.14422950958252,5.851799695129395,9.133169509582519Q5.796203695129394,9.12211950958252,5.7419596951293945,9.10565950958252Q5.687715695129395,9.08920950958252,5.635344695129395,9.06750950958252Q5.582974695129394,9.045819509582518,5.532983695129395,9.01909950958252Q5.482991695129394,8.99237950958252,5.435859695129395,8.960889509582518Q5.388727695129394,8.92938950958252,5.344909695129394,8.89342950958252Q5.3010916951293945,8.857469509582518,5.2610096951293945,8.817389509582519Q5.2209266951293944,8.777309509582519,5.184966695129394,8.733489509582519Q5.149005695129395,8.689669509582519,5.117513695129395,8.64253950958252Q5.0860206951293945,8.59540950958252,5.059299695129394,8.54541950958252Q5.032578695129395,8.495419509582518,5.010886295129395,8.443049509582519Q4.989193895129395,8.390679509582519,4.972739095129395,8.336439509582519Q4.956284295129395,8.282199509582519,4.945225595129394,8.22659950958252Q4.934166895129395,8.170999509582519,4.928610795129394,8.114589509582519Q4.9230546951293945,8.05817950958252,4.9230546951293945,8.00149950958252Q4.9230546951293945,7.9448095095825195,4.928610795129394,7.88839950958252Q4.934166895129395,7.831989509582519,4.945225595129394,7.776389509582519Q4.956284295129395,7.720789509582519,4.972739095129395,7.666549509582519Q4.989193895129395,7.61230950958252,5.010886295129395,7.559939509582519Q5.032578695129395,7.5075695095825195,5.059299695129394,7.45756950958252Q5.0860206951293945,7.407579509582519,5.117513695129395,7.360449509582519Q5.149005695129395,7.313319509582519,5.184966695129394,7.26949950958252Q5.2209266951293944,7.22567950958252,5.2610096951293945,7.185599509582519Q5.3010916951293945,7.1455195095825195,5.344909695129394,7.109559509582519Q5.388727695129394,7.07359950958252,5.435859695129395,7.04209950958252Q5.482991695129394,7.01060950958252,5.532983695129395,6.98388950958252Q5.582974695129394,6.95716950958252,5.635344695129395,6.935479509582519Q5.687715695129395,6.91378950958252,5.7419596951293945,6.897329509582519Q5.796203695129394,6.8808795095825195,5.851799695129395,6.86981950958252Q5.907395695129394,6.858759509582519,5.963804695129395,6.853199509582519Q6.020214695129394,6.847649509582519,6.076904695129395,6.847649509582519Q6.133584695129395,6.847649509582519,6.190004695129394,6.853199509582519Q6.246414695129395,6.858759509582519,6.302004695129394,6.86981950958252Q6.357604695129394,6.8808795095825195,6.411844695129394,6.897329509582519Q6.466094695129394,6.91378950958252,6.518464695129395,6.935479509582519Q6.5708346951293946,6.95716950958252,6.620824695129395,6.98388950958252Q6.670814695129394,7.01060950958252,6.717944695129395,7.04209950958252Q6.765084695129395,7.07359950958252,6.8088946951293945,7.109559509582519Q6.852714695129395,7.1455195095825195,6.892794695129394,7.185599509582519Q6.9328846951293945,7.22567950958252,6.968844695129395,7.26949950958252Q7.004804695129394,7.313319509582519,7.036294695129394,7.360449509582519Q7.067784695129395,7.407579509582519,7.094504695129395,7.45756950958252Q7.121234695129394,7.5075695095825195,7.142924695129395,7.559939509582519Q7.164614695129394,7.61230950958252,7.181064695129395,7.666549509582519Q7.1975246951293945,7.720789509582519,7.208584695129394,7.776389509582519Q7.219644695129395,7.831989509582519,7.225194695129394,7.88839950958252Q7.230754695129395,7.9448095095825195,7.230754695129395,8.00149950958252ZM11.078414695129394,8.00149950958252Q11.078414695129394,8.05817950958252,11.072854695129394,8.114589509582519Q11.067294695129394,8.170999509582519,11.056234695129394,8.22659950958252Q11.045184695129395,8.282199509582519,11.028724695129394,8.336439509582519Q11.012274695129395,8.390679509582519,10.990574695129395,8.443049509582519Q10.968884695129393,8.495419509582518,10.942164695129396,8.54541950958252Q10.915444695129395,8.59540950958252,10.883954695129393,8.64253950958252Q10.852454695129396,8.689669509582519,10.816494695129395,8.733489509582519Q10.780534695129393,8.777309509582519,10.740454695129394,8.817389509582519Q10.700374695129394,8.857469509582518,10.656554695129394,8.89342950958252Q10.612734695129394,8.92938950958252,10.565604695129394,8.960889509582518Q10.518474695129395,8.99237950958252,10.468484695129394,9.01909950958252Q10.418484695129393,9.045819509582518,10.366114695129394,9.06750950958252Q10.313744695129394,9.08920950958252,10.259504695129394,9.10565950958252Q10.205264695129394,9.12211950958252,10.149664695129395,9.133169509582519Q10.094064695129394,9.14422950958252,10.037654695129394,9.149789509582519Q9.981244695129394,9.15534950958252,9.924564695129394,9.15534950958252Q9.867874695129395,9.15534950958252,9.811464695129395,9.149789509582519Q9.755054695129395,9.14422950958252,9.699454695129393,9.133169509582519Q9.643854695129395,9.12211950958252,9.589614695129395,9.10565950958252Q9.535374695129395,9.08920950958252,9.483004695129395,9.06750950958252Q9.430634695129395,9.045819509582518,9.380634695129395,9.01909950958252Q9.330644695129394,8.99237950958252,9.283514695129394,8.960889509582518Q9.236384695129395,8.92938950958252,9.192564695129395,8.89342950958252Q9.148744695129395,8.857469509582518,9.108664695129395,8.817389509582519Q9.068584695129395,8.777309509582519,9.032624695129394,8.733489509582519Q8.996664695129395,8.689669509582519,8.965164695129396,8.64253950958252Q8.933674695129394,8.59540950958252,8.906954695129395,8.54541950958252Q8.880234695129396,8.495419509582518,8.858544695129394,8.443049509582519Q8.836854695129395,8.390679509582519,8.820394695129394,8.336439509582519Q8.803944695129395,8.282199509582519,8.792884695129395,8.22659950958252Q8.781824695129394,8.170999509582519,8.776264695129395,8.114589509582519Q8.770714695129394,8.05817950958252,8.770714695129394,8.00149950958252Q8.770714695129394,7.9448095095825195,8.776264695129395,7.88839950958252Q8.781824695129394,7.831989509582519,8.792884695129395,7.776389509582519Q8.803944695129395,7.720789509582519,8.820394695129394,7.666549509582519Q8.836854695129395,7.61230950958252,8.858544695129394,7.559939509582519Q8.880234695129396,7.5075695095825195,8.906954695129395,7.45756950958252Q8.933674695129394,7.407579509582519,8.965164695129396,7.360449509582519Q8.996664695129395,7.313319509582519,9.032624695129394,7.26949950958252Q9.068584695129395,7.22567950958252,9.108664695129395,7.185599509582519Q9.148744695129395,7.1455195095825195,9.192564695129395,7.109559509582519Q9.236384695129395,7.07359950958252,9.283514695129394,7.04209950958252Q9.330644695129394,7.01060950958252,9.380634695129395,6.98388950958252Q9.430634695129395,6.95716950958252,9.483004695129395,6.935479509582519Q9.535374695129395,6.91378950958252,9.589614695129395,6.897329509582519Q9.643854695129395,6.8808795095825195,9.699454695129393,6.86981950958252Q9.755054695129395,6.858759509582519,9.811464695129395,6.853199509582519Q9.867874695129395,6.847649509582519,9.924564695129394,6.847649509582519Q9.981244695129394,6.847649509582519,10.037654695129394,6.853199509582519Q10.094064695129394,6.858759509582519,10.149664695129395,6.86981950958252Q10.205264695129394,6.8808795095825195,10.259504695129394,6.897329509582519Q10.313744695129394,6.91378950958252,10.366114695129394,6.935479509582519Q10.418484695129393,6.95716950958252,10.468484695129394,6.98388950958252Q10.518474695129395,7.01060950958252,10.565604695129394,7.04209950958252Q10.612734695129394,7.07359950958252,10.656554695129394,7.109559509582519Q10.700374695129394,7.1455195095825195,10.740454695129394,7.185599509582519Q10.780534695129393,7.22567950958252,10.816494695129395,7.26949950958252Q10.852454695129396,7.313319509582519,10.883954695129393,7.360449509582519Q10.915444695129395,7.407579509582519,10.942164695129396,7.45756950958252Q10.968884695129393,7.5075695095825195,10.990574695129395,7.559939509582519Q11.012274695129395,7.61230950958252,11.028724695129394,7.666549509582519Q11.045184695129395,7.720789509582519,11.056234695129394,7.776389509582519Q11.067294695129394,7.831989509582519,11.072854695129394,7.88839950958252Q11.078414695129394,7.9448095095825195,11.078414695129394,8.00149950958252ZM7.230754695129395,11.84524950958252Q7.230754695129395,11.90192950958252,7.225194695129394,11.958339509582519Q7.219644695129395,12.01475950958252,7.208584695129394,12.07034950958252Q7.1975246951293945,12.125949509582519,7.181064695129395,12.180189509582519Q7.164614695129394,12.234429509582519,7.142924695129395,12.286799509582519Q7.121234695129394,12.33916950958252,7.094504695129395,12.38916950958252Q7.067784695129395,12.43915950958252,7.036294695129394,12.48628950958252Q7.004804695129394,12.533419509582519,6.968844695129395,12.577239509582519Q6.9328846951293945,12.621059509582519,6.892794695129394,12.661139509582519Q6.852714695129395,12.70121950958252,6.8088946951293945,12.73717950958252Q6.765084695129395,12.773139509582519,6.717944695129395,12.804629509582519Q6.670814695129394,12.83612950958252,6.620824695129395,12.862849509582519Q6.5708346951293946,12.88956950958252,6.518464695129395,12.91125950958252Q6.466094695129394,12.932959509582519,6.411844695129394,12.94940950958252Q6.357604695129394,12.96586950958252,6.302004695129394,12.976919509582519Q6.246414695129395,12.98797950958252,6.190004695129394,12.99353950958252Q6.133584695129395,12.99909950958252,6.076904695129395,12.99909950958252Q6.020214695129394,12.99909950958252,5.963804695129395,12.99353950958252Q5.907395695129394,12.98797950958252,5.851799695129395,12.976919509582519Q5.796203695129394,12.96586950958252,5.7419596951293945,12.94940950958252Q5.687715695129395,12.932959509582519,5.635344695129395,12.91125950958252Q5.582974695129394,12.88956950958252,5.532983695129395,12.862849509582519Q5.482991695129394,12.83612950958252,5.435859695129395,12.80463950958252Q5.388727695129394,12.773139509582519,5.344909695129394,12.73717950958252Q5.3010916951293945,12.70121950958252,5.2610096951293945,12.661139509582519Q5.2209266951293944,12.621059509582519,5.184966695129394,12.577239509582519Q5.149005695129395,12.533419509582519,5.117513695129395,12.48628950958252Q5.0860206951293945,12.43915950958252,5.059299695129394,12.38916950958252Q5.032578695129395,12.33917950958252,5.010886295129395,12.286799509582519Q4.989193895129395,12.23443950958252,4.972739095129395,12.180189509582519Q4.956284295129395,12.125949509582519,4.945225595129394,12.07034950958252Q4.934166895129395,12.01475950958252,4.928610795129394,11.958339509582519Q4.9230546951293945,11.90192950958252,4.9230546951293945,11.84524950958252Q4.9230546951293945,11.78855950958252,4.928610795129394,11.73214950958252Q4.934166895129395,11.67573950958252,4.945225595129394,11.62013950958252Q4.956284295129395,11.56454950958252,4.972739095129395,11.51029950958252Q4.989193895129395,11.45605950958252,5.010886295129395,11.40368950958252Q5.032578695129395,11.35131950958252,5.059299695129394,11.30131950958252Q5.0860206951293945,11.25132950958252,5.117513695129395,11.20419950958252Q5.149005695129395,11.15706950958252,5.184966695129394,11.11324950958252Q5.2209266951293944,11.06942950958252,5.2610096951293945,11.02934950958252Q5.3010916951293945,10.98926950958252,5.344909695129394,10.95330950958252Q5.388727695129394,10.91734950958252,5.435859695129395,10.88584950958252Q5.482991695129394,10.854359509582519,5.532983695129395,10.82763950958252Q5.582974695129394,10.80091950958252,5.635344695129395,10.77922950958252Q5.687715695129395,10.75753950958252,5.7419596951293945,10.74107950958252Q5.796203695129394,10.72462950958252,5.851799695129395,10.71356950958252Q5.907395695129394,10.70250950958252,5.963804695129395,10.69694950958252Q6.020214695129394,10.69139950958252,6.076904695129395,10.69139950958252Q6.133584695129395,10.69139950958252,6.190004695129394,10.69694950958252Q6.246414695129395,10.70250950958252,6.302004695129394,10.71356950958252Q6.357604695129394,10.72462950958252,6.411844695129394,10.74107950958252Q6.466094695129394,10.75753950958252,6.518464695129395,10.77922950958252Q6.5708346951293946,10.80091950958252,6.620824695129395,10.82763950958252Q6.670814695129394,10.854359509582519,6.717944695129395,10.88584950958252Q6.765084695129395,10.91734950958252,6.8088946951293945,10.95330950958252Q6.852714695129395,10.98926950958252,6.892794695129394,11.02934950958252Q6.9328846951293945,11.06942950958252,6.968844695129395,11.11324950958252Q7.004804695129394,11.15706950958252,7.036294695129394,11.20419950958252Q7.067784695129395,11.25132950958252,7.094504695129395,11.30131950958252Q7.121234695129394,11.35131950958252,7.142924695129395,11.40368950958252Q7.164614695129394,11.45605950958252,7.181064695129395,11.51029950958252Q7.1975246951293945,11.56454950958252,7.208584695129394,11.62013950958252Q7.219644695129395,11.67573950958252,7.225194695129394,11.73214950958252Q7.230754695129395,11.78855950958252,7.230754695129395,11.84524950958252ZM11.078414695129394,11.84524950958252Q11.078414695129394,11.90192950958252,11.072854695129394,11.958339509582519Q11.067294695129394,12.01475950958252,11.056234695129394,12.07034950958252Q11.045184695129395,12.125949509582519,11.028724695129394,12.180189509582519Q11.012274695129395,12.234429509582519,10.990574695129395,12.286799509582519Q10.968884695129393,12.33916950958252,10.942164695129396,12.38916950958252Q10.915444695129395,12.43915950958252,10.883954695129393,12.48628950958252Q10.852454695129396,12.533419509582519,10.816494695129395,12.577239509582519Q10.780534695129393,12.621059509582519,10.740454695129394,12.661139509582519Q10.700374695129394,12.70121950958252,10.656554695129394,12.73717950958252Q10.612734695129394,12.773139509582519,10.565604695129394,12.804629509582519Q10.518474695129395,12.83612950958252,10.468484695129394,12.862849509582519Q10.418484695129393,12.88956950958252,10.366114695129394,12.91125950958252Q10.313744695129394,12.932959509582519,10.259504695129394,12.94940950958252Q10.205264695129394,12.96586950958252,10.149664695129395,12.976919509582519Q10.094064695129394,12.98797950958252,10.037654695129394,12.99353950958252Q9.981244695129394,12.99909950958252,9.924564695129394,12.99909950958252Q9.867874695129395,12.99909950958252,9.811464695129395,12.99353950958252Q9.755054695129395,12.98797950958252,9.699454695129393,12.976919509582519Q9.643854695129395,12.96586950958252,9.589614695129395,12.94940950958252Q9.535374695129395,12.932959509582519,9.483004695129395,12.91125950958252Q9.430634695129395,12.88956950958252,9.380634695129395,12.862849509582519Q9.330644695129394,12.83612950958252,9.283514695129394,12.80463950958252Q9.236384695129395,12.773139509582519,9.192564695129395,12.73717950958252Q9.148744695129395,12.70121950958252,9.108664695129395,12.661139509582519Q9.068584695129395,12.621059509582519,9.032624695129394,12.577239509582519Q8.996664695129395,12.533419509582519,8.965164695129396,12.48628950958252Q8.933674695129394,12.43915950958252,8.906954695129395,12.38916950958252Q8.880234695129396,12.33917950958252,8.858544695129394,12.286799509582519Q8.836854695129395,12.23443950958252,8.820394695129394,12.180189509582519Q8.803944695129395,12.125949509582519,8.792884695129395,12.07034950958252Q8.781824695129394,12.01475950958252,8.776264695129395,11.958339509582519Q8.770714695129394,11.90192950958252,8.770714695129394,11.84524950958252Q8.770714695129394,11.78855950958252,8.776264695129395,11.73214950958252Q8.781824695129394,11.67573950958252,8.792884695129395,11.62013950958252Q8.803944695129395,11.56454950958252,8.820394695129394,11.51029950958252Q8.836854695129395,11.45605950958252,8.858544695129394,11.40368950958252Q8.880234695129396,11.35131950958252,8.906954695129395,11.30131950958252Q8.933674695129394,11.25132950958252,8.965164695129396,11.20419950958252Q8.996664695129395,11.15706950958252,9.032624695129394,11.11324950958252Q9.068584695129395,11.06942950958252,9.108664695129395,11.02934950958252Q9.148744695129395,10.98926950958252,9.192564695129395,10.95330950958252Q9.236384695129395,10.91734950958252,9.283514695129394,10.88584950958252Q9.330644695129394,10.854359509582519,9.380634695129395,10.82763950958252Q9.430634695129395,10.80091950958252,9.483004695129395,10.77922950958252Q9.535374695129395,10.75753950958252,9.589614695129395,10.74107950958252Q9.643854695129395,10.72462950958252,9.699454695129393,10.71356950958252Q9.755054695129395,10.70250950958252,9.811464695129395,10.69694950958252Q9.867874695129395,10.69139950958252,9.924564695129394,10.69139950958252Q9.981244695129394,10.69139950958252,10.037654695129394,10.69694950958252Q10.094064695129394,10.70250950958252,10.149664695129395,10.71356950958252Q10.205264695129394,10.72462950958252,10.259504695129394,10.74107950958252Q10.313744695129394,10.75753950958252,10.366114695129394,10.77922950958252Q10.418484695129393,10.80091950958252,10.468484695129394,10.82763950958252Q10.518474695129395,10.854359509582519,10.565604695129394,10.88584950958252Q10.612734695129394,10.91734950958252,10.656554695129394,10.95330950958252Q10.700374695129394,10.98926950958252,10.740454695129394,11.02934950958252Q10.780534695129393,11.06942950958252,10.816494695129395,11.11324950958252Q10.852454695129396,11.15706950958252,10.883954695129393,11.20419950958252Q10.915444695129395,11.25132950958252,10.942164695129396,11.30131950958252Q10.968884695129393,11.35131950958252,10.990574695129395,11.40368950958252Q11.012274695129395,11.45605950958252,11.028724695129394,11.51029950958252Q11.045184695129395,11.56454950958252,11.056234695129394,11.62013950958252Q11.067294695129394,11.67573950958252,11.072854695129394,11.73214950958252Q11.078414695129394,11.78855950958252,11.078414695129394,11.84524950958252Z" fill="#999999" fill-opacity="1"/></g></g></svg>