<svg xmlns="http://www.w3.org/2000/svg" xmlns:xlink="http://www.w3.org/1999/xlink" fill="none" version="1.1" width="16" height="16" viewBox="0 0 16 16"><defs><clipPath id="master_svg0_4552_11479/4043_03301"><rect x="0" y="0" width="16" height="16" rx="0"/></clipPath></defs><g><g clip-path="url(#master_svg0_4552_11479/4043_03301)"><g><path d="M12.207780625,12.207780625Q13.950390625,10.465170624999999,13.950390625,8.000390625Q13.950390625,5.535610625,12.207780625,3.793000625Q10.465170624999999,2.050390625,8.000390625,2.050390625Q5.535610625,2.050390625,3.793000625,3.793000625Q2.050390625,5.535610625,2.050390625,8.000390625Q2.050390625,9.554070625,2.812370625,10.903700625L2.393603625,12.365110625Q2.377325625,12.421920625,2.372442625,12.480810625Q2.367559625,12.539700625,2.374259625,12.598420625Q2.380959625,12.657090625,2.398986625,12.713390625Q2.417012625,12.769690625,2.445671625,12.821390625Q2.474330625,12.873090625,2.512521625,12.918190625Q2.550711925,12.963290625,2.596966625,12.999990625Q2.643221385,13.036790625,2.695762625,13.063890625Q2.748303825,13.090890625,2.805112625,13.107190625Q2.884790625,13.129990625,2.967675625,13.130390625L5.012230625,13.139590625Q6.397760625,13.950390625,8.000390625,13.950390625Q10.465170624999999,13.950390625,12.207780625,12.207780625ZM11.359250625,4.641530625Q12.750390625,6.032670625,12.750390625,8.000390625Q12.750390625,9.968110625,11.359250625,11.359250625Q9.968110625,12.750390625,8.000390625,12.750390625Q6.654110625,12.750390625,5.4972706250000005,12.030890625Q5.353000625,11.941160625,5.183110624999999,11.940400625L3.765440625,11.933980625L4.0371806249999995,10.985670625Q4.072210625,10.863410625,4.054630625,10.737460625Q4.037050625,10.611500625,3.9698906249999997,10.503510625Q3.250390625,9.346670625,3.250390625,8.000390625Q3.250390625,6.032670625,4.641530625,4.641530625Q6.032670625,3.250390625,8.000390625,3.250390625Q9.968110625,3.250390625,11.359250625,4.641530625Z" fill-rule="evenodd" fill="#666666" fill-opacity="1"/></g><g><path d="M6.35078125,7.19921875C5.91078125,7.19921875,5.55078125,7.55921875,5.55078125,7.99921875C5.55078125,8.43921875,5.91078125,8.79921875,6.35078125,8.79921875C6.79078125,8.79921875,7.15078125,8.43921875,7.15078125,7.99921875C7.15078125,7.55921875,6.79078125,7.19921875,6.35078125,7.19921875ZM9.65058125,7.19921875C9.21058125,7.19921875,8.85058125,7.55921875,8.85058125,7.99921875C8.85058125,8.43921875,9.21058125,8.79921875,9.65058125,8.79921875C10.09058125,8.79921875,10.450581249999999,8.43921875,10.450581249999999,7.99921875C10.450581249999999,7.55921875,10.09058125,7.19921875,9.65058125,7.19921875Z" fill="#666666" fill-opacity="1"/></g></g></g></svg>