<svg xmlns="http://www.w3.org/2000/svg" xmlns:xlink="http://www.w3.org/1999/xlink" fill="none" version="1.1" width="16" height="16" viewBox="0 0 16 16"><g><g><path d="M3.4318046875,0.800039865L12.5678046875,0.800039865C13.9296046875,0.713159775,15.1057046875,1.742731875,15.1998046875,3.104041875L15.1998046875,12.896021875C15.1057046875,14.257321875,13.9296046875,15.286921875,12.5678046875,15.200021875L3.4318046875,15.200021875C2.0700146875,15.286921875,0.8938752875,14.257321875,0.7998046875,12.896021875L0.7998046875,3.104041875C0.8938752875,1.742731875,2.0700146875,0.713159175,3.4318046875,0.800039865ZM12.3235046875,2.699951875L3.6769046875,2.699951875C3.1544846875,2.699951875,2.7001946875,3.010381875,2.7001946875,3.366241875L2.7001946875,5.728521875L13.3002046875,5.728521875L13.3002046875,3.366241875C13.3002046875,3.010381875,12.8459046875,2.699951875,12.3235046875,2.699951875ZM5.2214846875,7.242811875L2.7001946875,7.242811875L2.7001946875,9.514241875L5.2214846875,9.514241875L5.2214846875,7.242811875ZM6.7357646875,7.242811875L6.7357646875,9.514241875L9.2646246875,9.514241875L9.2646246875,7.242811875L6.7357646875,7.242811875ZM13.3002046875,7.242811875L10.7789046875,7.242811875L10.7789046875,9.514241875L13.3002046875,9.514241875L13.3002046875,7.242811875ZM2.7001946875,11.028521875L2.7001946875,12.633621875C2.7001946875,12.989521875,3.1544846875,13.299921875,3.7071946875,13.299921875L5.2214846875,13.299921875L5.2214846875,11.028521875L2.7001946875,11.028521875ZM9.2646246875,13.299921875L9.2646246875,11.028521875L6.7357646875,11.028521875L6.7357646875,13.299921875L9.2646246875,13.299921875ZM10.8092046875,13.299921875L12.3235046875,13.299921875C12.8459046875,13.299921875,13.3002046875,12.989521875,13.3002046875,12.633621875L13.3002046875,11.028521875L10.8092046875,11.028521875L10.8092046875,13.299921875Z" fill-rule="evenodd" fill="#28BCA4" fill-opacity="1"/></g></g></svg>