<svg xmlns="http://www.w3.org/2000/svg" xmlns:xlink="http://www.w3.org/1999/xlink" fill="none" version="1.1" width="18" height="18" viewBox="0 0 18 18"><defs><clipPath id="master_svg0_177_0415"><rect x="0" y="0" width="18" height="18" rx="0"/></clipPath></defs><g clip-path="url(#master_svg0_177_0415)"><g><path d="M15.6,4.410002426757813Q15.6,4.378452426757812,15.5967,4.3470824267578125Q15.5028,3.4570024267578123,14.8111,2.8890984267578124Q14.1306,2.3304594267578125,13.257,2.4000014267578127L4.74296,2.4000014267578127Q3.869395,2.3304594267578125,3.188926,2.8890984267578124Q2.497169,3.4570034267578125,2.403309,4.3470824267578125Q2.4,4.378452426757812,2.4,4.410002426757813L2.4,13.589962426757813Q2.4,13.621562426757812,2.403309,13.652962426757812Q2.497171,14.542962426757812,3.188926,15.110862426757812Q3.8693910000000002,15.669562426757812,4.74295,15.599962426757813L13.257,15.599962426757813Q14.1306,15.669562426757812,14.8111,15.110862426757812Q15.5028,14.542962426757812,15.5967,13.652962426757812Q15.6,13.621562426757812,15.6,13.589962426757813L15.6,4.410002426757813ZM14.4,6.899992426757812L14.4,4.444882426757813Q14.3501,4.063232426757812,14.0496,3.8165824267578126Q13.7382,3.5609284267578127,13.337,3.5975214267578126Q13.3098,3.6000004267578127,13.2825,3.6000014267578124L4.7175,3.6000014267578124Q4.6902,3.6000014267578124,4.66301,3.5975214267578126Q4.26176,3.5609284267578127,3.950354,3.8165824267578126Q3.649908,4.063232426757812,3.6,4.4448924267578125L3.6,6.899992426757812L14.4,6.899992426757812ZM3.6,8.099992426757812L3.6,10.649992426757812L6.3975100000000005,10.649992426757812L6.3975100000000005,8.099992426757812L3.6,8.099992426757812ZM7.59751,8.099992426757812L7.59751,10.649992426757812L10.40251,10.649992426757812L10.40251,8.099992426757812L7.59751,8.099992426757812ZM11.60252,8.099992426757812L14.4,8.099992426757812L14.4,10.649992426757812L11.60252,10.649992426757812L11.60252,8.099992426757812ZM10.40251,11.849992426757812L7.59751,11.849992426757812L7.59751,14.399962426757812L10.40251,14.399962426757812L10.40251,11.849992426757812ZM11.60252,14.399962426757812L11.60252,11.849992426757812L14.4,11.849992426757812L14.4,13.555162426757812Q14.3501,13.936762426757813,14.0496,14.183462426757812Q13.7382,14.439062426757813,13.337,14.402462426757813Q13.3098,14.399962426757812,13.2825,14.399962426757812L11.60252,14.399962426757812ZM6.3975100000000005,14.399962426757812L6.3975100000000005,11.849992426757812L3.6,11.849992426757812L3.6,13.555062426757813Q3.649908,13.936762426757813,3.950355,14.183462426757812Q4.26176,14.439062426757813,4.66301,14.402462426757813Q4.6902,14.399962426757812,4.7175,14.399962426757812L6.3975100000000005,14.399962426757812Z" fill-rule="evenodd" fill="#333333" fill-opacity="1"/></g></g></svg>