<svg xmlns="http://www.w3.org/2000/svg" xmlns:xlink="http://www.w3.org/1999/xlink" fill="none" version="1.1" width="12" height="12" viewBox="0 0 12 12"><g><g><path d="M8.57554,9.42407L8.57574,9.42426Q8.660129999999999,9.508659999999999,8.770389999999999,9.55433Q8.88065,9.6,9,9.6Q9.11935,9.6,9.229610000000001,9.55433Q9.339870000000001,9.508659999999999,9.42426,9.42426Q9.508659999999999,9.339870000000001,9.55433,9.229610000000001Q9.6,9.11935,9.6,9Q9.6,8.88065,9.55433,8.770389999999999Q9.508659999999999,8.660129999999999,9.42426,8.57574L6.84853,6L9.424109999999999,3.424419L9.42426,3.424264Q9.508659999999999,3.339873,9.55433,3.22961Q9.6,3.119347,9.6,3Q9.6,2.880653,9.55433,2.77039Q9.508659999999999,2.660127,9.42426,2.575736Q9.339870000000001,2.491345,9.229610000000001,2.445672Q9.11935,2.4,9,2.4Q8.88065,2.4,8.770389999999999,2.445672Q8.660129999999999,2.491345,8.57574,2.575736L8.57558,2.575891L6,5.15147L3.424264,2.575736Q3.339873,2.491345,3.22961,2.445672Q3.119347,2.4,3,2.4Q2.880653,2.4,2.77039,2.445672Q2.660127,2.491345,2.575736,2.575736Q2.491345,2.660127,2.445672,2.77039Q2.4,2.880653,2.4,3Q2.4,3.119347,2.445672,3.22961Q2.491345,3.339873,2.575736,3.424264L5.15147,6L2.575891,8.57558L2.575736,8.57574Q2.491345,8.660129999999999,2.445672,8.770389999999999Q2.4,8.88065,2.4,9Q2.4,9.014420000000001,2.400693,9.02882Q2.406066,9.14056,2.451349,9.24286Q2.496631,9.34516,2.575736,9.42426Q2.660127,9.508659999999999,2.77039,9.55433Q2.880653,9.6,3,9.6Q3.119347,9.6,3.22961,9.55433Q3.339873,9.508659999999999,3.424264,9.42426L3.424419,9.424109999999999L6,6.84853L8.57554,9.42407Z" fill-rule="evenodd" fill="#999999" fill-opacity="1"/></g></g></svg>