<svg xmlns="http://www.w3.org/2000/svg" xmlns:xlink="http://www.w3.org/1999/xlink" fill="none" version="1.1" width="16" height="16" viewBox="0 0 16 16"><g><g><path d="M14.34990234375,14.3999755859375L14.34990234375,3.9999755859375Q14.34990234375,2.6952055859375,13.42730234375,1.7725895859375Q12.50470234375,0.8499755859375,11.19990234375,0.8499755859375L2.39990234375,0.8499755859375C1.98568834375,0.8499755859375,1.64990234375,1.1857615859375,1.64990234375,1.5999755859375L1.64990234375,11.9999755859375Q1.64990234375,13.3047755859375,2.5725163437500003,14.2273755859375Q3.49513234375,15.1499755859375,4.79990234375,15.1499755859375L13.59990234375,15.1499755859375C14.01410234375,15.1499755859375,14.34990234375,14.8141755859375,14.34990234375,14.3999755859375ZM6.00000234375,7.1499655859375L10.00000234375,7.1499655859375C10.41421234375,7.1499655859375,10.75000234375,6.8141755859375,10.75000234375,6.3999655859375C10.75000234375,5.9857455859375,10.41421234375,5.6499655859375,10.00000234375,5.6499655859375L6.00000234375,5.6499655859375C5.58578234375,5.6499655859375,5.250002343749999,5.9857455859375,5.250002343749999,6.3999655859375C5.250002343749999,6.8141755859375,5.58578234375,7.1499655859375,6.00000234375,7.1499655859375ZM6.00000234375,10.3499755859375L10.00000234375,10.3499755859375C10.41421234375,10.3499755859375,10.75000234375,10.0141855859375,10.75000234375,9.5999755859375C10.75000234375,9.1857655859375,10.41421234375,8.8499755859375,10.00000234375,8.8499755859375L6.00000234375,8.8499755859375C5.58578234375,8.8499755859375,5.250002343749999,9.1857655859375,5.250002343749999,9.5999755859375C5.250002343749999,10.0141855859375,5.58578234375,10.3499755859375,6.00000234375,10.3499755859375Z" fill-rule="evenodd" fill="#FFFFFF" fill-opacity="1"/></g></g></svg>