<svg xmlns="http://www.w3.org/2000/svg" xmlns:xlink="http://www.w3.org/1999/xlink" fill="none" version="1.1" width="20" height="20" viewBox="0 0 20 20"><defs><clipPath id="master_svg0_1110_00701"><rect x="2" y="2" width="16" height="16" rx="0"/></clipPath></defs><g><g clip-path="url(#master_svg0_1110_00701)"><g><path d="M2.503113125,7.40278298828125L2.502877125,7.40301298828125Q2.397387125,7.508502988281251,2.340296125,7.64633298828125Q2.283204125,7.78416298828125,2.283203125,7.93334298828125L2.283203125,7.93335298828125Q2.283203125,7.95137298828125,2.2840691250000003,7.9693729882812505Q2.290785125,8.109052988281249,2.347386125,8.23692298828125Q2.403988125,8.36479298828125,2.502868125,8.46367298828125Q2.608358125,8.56916298828125,2.746187125,8.62625298828125Q2.884017125,8.68335298828125,3.033203125,8.68335298828125Q3.052615425,8.68335298828125,3.072003325,8.682342988281249Q3.210937125,8.675152988281251,3.338046125,8.61860298828125Q3.465155125,8.56205298828125,3.563529125,8.46368298828125L3.563764125,8.46345298828125L5.883303124999999,6.14395298828125L5.883303124999999,15.66661298828125Q5.883303124999999,15.74051298828125,5.897713125,15.81291298828125Q5.912123125,15.88541298828125,5.940393125,15.95361298828125Q5.968663125,16.02191298828125,6.009703125,16.08331298828125Q6.050733125,16.14471298828125,6.102973125,16.196912988281248Q6.155203125,16.24921298828125,6.216623125,16.290212988281247Q6.278043125,16.331312988281248,6.346283124999999,16.35951298828125Q6.414533125,16.38781298828125,6.486983125,16.40221298828125Q6.559433125,16.41661298828125,6.633303124999999,16.41661298828125Q6.707173125000001,16.41661298828125,6.7796231250000005,16.40221298828125Q6.852063125,16.38781298828125,6.920313125,16.35951298828125Q6.988563125000001,16.331312988281248,7.049983125,16.290212988281247Q7.111393125,16.24921298828125,7.163633125,16.196912988281248Q7.215863125,16.14471298828125,7.256903125,16.08331298828125Q7.297943125,16.02191298828125,7.326213125,15.95361298828125Q7.354473125,15.88541298828125,7.368893125,15.81291298828125Q7.383303125,15.74051298828125,7.383303125,15.66661298828125L7.383303125,4.33331298828125Q7.383303125,4.18412998828125,7.326213125,4.04630298828125Q7.269123125,3.90847598828125,7.163633125,3.80298698828125Q7.111403125,3.75075398828125,7.049983125,3.70971398828125Q6.988563125000001,3.66867498828125,6.9203231249999995,3.64040598828125Q6.852073125,3.61213698828125,6.7796231250000005,3.59772498828125Q6.707173125000001,3.58331398828125,6.633303124999999,3.58331298828125Q6.559443125,3.58331298828125,6.486993125,3.59772298828125Q6.414543125,3.61213298828125,6.346293125,3.6404009882812502Q6.278043125,3.66866898828125,6.216623125,3.70970698828125Q6.1552131249999995,3.75074598828125,6.102973125,3.80297798828125L2.503113125,7.40278298828125ZM9.966313125,6.34375298828125L16.966303125,6.34375298828125Q17.040203124999998,6.34375298828125,17.112603125,6.32934298828125Q17.185103124999998,6.31492298828125,17.253303125000002,6.28666298828125Q17.321603125,6.2583929882812495,17.383003125000002,6.21735298828125Q17.444403125,6.17631298828125,17.496603125,6.12408298828125Q17.548903125000002,6.07184298828125,17.589903125,6.01042298828125Q17.630903125,5.94900298828125,17.659203124999998,5.8807629882812495Q17.687503125,5.8125129882812505,17.701903125,5.74006298828125Q17.716303125,5.66762298828125,17.716303125,5.59375298828125Q17.716303125,5.51988298828125,17.701903125,5.44743298828125Q17.687503125,5.37498298828125,17.659203124999998,5.30673698828125Q17.630903125,5.23849198828125,17.589903125,5.17707198828125Q17.548903125000002,5.11565298828125,17.496603125,5.06341998828125Q17.444403125,5.01118698828125,17.383003125000002,4.97014798828125Q17.321603125,4.92910898828125,17.253303125000002,4.90083998828125Q17.185103124999998,4.87257198828125,17.112603125,4.85816098828125Q17.040203124999998,4.84374998828125,16.966303125,4.84374998828125L9.966313125,4.84374998828125Q9.892443125,4.84374998828125,9.819993125,4.85816098828125Q9.747543125,4.87257198828125,9.679293125000001,4.90083998828125Q9.611053125,4.92910898828125,9.549633125,4.97014798828125Q9.488213125,5.01118698828125,9.435983125,5.06341998828125Q9.383743124999999,5.11565298828125,9.342703125,5.17707198828125Q9.301663125000001,5.23849198828125,9.273403125,5.30673698828125Q9.245133124999999,5.37498298828125,9.230723125,5.44743298828125Q9.216313125,5.51988298828125,9.216313125,5.59375298828125Q9.216313125,5.66762298828125,9.230723125,5.74006298828125Q9.245133124999999,5.8125129882812505,9.273393125,5.8807629882812495Q9.301663125000001,5.94900298828125,9.342703125,6.01042298828125Q9.383743124999999,6.07184298828125,9.435983125,6.12408298828125Q9.488213125,6.17631298828125,9.549633125,6.21735298828125Q9.611053125,6.2583929882812495,9.679293125000001,6.28666298828125Q9.747543125,6.31492298828125,9.819993125,6.32934298828125Q9.892443125,6.34375298828125,9.966313125,6.34375298828125ZM9.966313125,10.75000298828125L14.966303125,10.75000298828125Q15.040203125,10.75000298828125,15.112603125,10.735592988281251Q15.185103125,10.72117298828125,15.253303125,10.69291298828125Q15.321603125,10.664642988281251,15.383003125,10.623602988281249Q15.444403125,10.58256298828125,15.496603125,10.53033298828125Q15.548903125,10.47809298828125,15.589903125,10.416672988281249Q15.630903125,10.35525298828125,15.659203125,10.287012988281251Q15.687503125,10.218762988281249,15.701903125,10.146312988281249Q15.716303125,10.07387298828125,15.716303125,10.00000298828125Q15.716303125,9.92613298828125,15.701903125,9.85368298828125Q15.687503125,9.78123298828125,15.659203125,9.71298298828125Q15.630903125,9.64474298828125,15.589903125,9.58332298828125Q15.548903125,9.52190298828125,15.496603125,9.46967298828125Q15.444403125,9.41743298828125,15.383003125,9.37639298828125Q15.321603125,9.33536298828125,15.253303125,9.30709298828125Q15.185103125,9.278822988281249,15.112603125,9.26441298828125Q15.040203125,9.25000298828125,14.966303125,9.25000298828125L9.966313125,9.25000298828125Q9.892443125,9.25000298828125,9.819993125,9.26441298828125Q9.747543125,9.278822988281249,9.679293125000001,9.30709298828125Q9.611053125,9.33536298828125,9.549633125,9.37639298828125Q9.488213125,9.41743298828125,9.435983125,9.46967298828125Q9.383743124999999,9.52190298828125,9.342703125,9.58332298828125Q9.301663125000001,9.64474298828125,9.273403125,9.71298298828125Q9.245133124999999,9.78123298828125,9.230723125,9.85368298828125Q9.216313125,9.92613298828125,9.216313125,10.00000298828125Q9.216313125,10.07387298828125,9.230723125,10.146312988281249Q9.245133124999999,10.218762988281249,9.273393125,10.287012988281251Q9.301663125000001,10.35525298828125,9.342703125,10.416672988281249Q9.383743124999999,10.47809298828125,9.435983125,10.53033298828125Q9.488213125,10.58256298828125,9.549633125,10.623602988281249Q9.611053125,10.664642988281251,9.679293125000001,10.69291298828125Q9.747543125,10.72117298828125,9.819993125,10.735592988281251Q9.892443125,10.75000298828125,9.966313125,10.75000298828125ZM9.966313125,15.15621298828125L12.966313125,15.15621298828125Q13.040203125,15.15621298828125,13.112603125,15.14181298828125Q13.185103125,15.12741298828125,13.253303125,15.09911298828125Q13.321603125,15.07091298828125,13.383003125,15.02981298828125Q13.444403125,14.98881298828125,13.496603125,14.93661298828125Q13.548903125,14.88431298828125,13.589903125,14.82291298828125Q13.630903125,14.76151298828125,13.659203125,14.69321298828125Q13.687503125,14.62501298828125,13.701903125,14.55261298828125Q13.716303125,14.48011298828125,13.716303125,14.40621298828125Q13.716303125,14.33238298828125,13.701903125,14.25993298828125Q13.687503125,14.18748298828125,13.659203125,14.11923298828125Q13.630903125,14.05099298828125,13.589903125,13.98957298828125Q13.548903125,13.92815298828125,13.496603125,13.87592298828125Q13.444403125,13.82368298828125,13.383003125,13.78264298828125Q13.321603125,13.74160298828125,13.253303125,13.71334298828125Q13.185103125,13.68507298828125,13.112603125,13.67066298828125Q13.040203125,13.65625298828125,12.966313125,13.65625298828125L9.966313125,13.65625298828125Q9.892443125,13.65625298828125,9.819993125,13.67066298828125Q9.747543125,13.68507298828125,9.679293125000001,13.71334298828125Q9.611053125,13.74160298828125,9.549633125,13.78264298828125Q9.488213125,13.82368298828125,9.435983125,13.87592298828125Q9.383743124999999,13.92815298828125,9.342703125,13.98957298828125Q9.301663125000001,14.05099298828125,9.273403125,14.11923298828125Q9.245133124999999,14.18748298828125,9.230723125,14.25993298828125Q9.216313125,14.33238298828125,9.216313125,14.40621298828125Q9.216313125,14.48011298828125,9.230723125,14.55261298828125Q9.245133124999999,14.62501298828125,9.273393125,14.69321298828125Q9.301663125000001,14.76151298828125,9.342703125,14.82291298828125Q9.383743124999999,14.88431298828125,9.435983125,14.93661298828125Q9.488213125,14.98881298828125,9.549633125,15.02981298828125Q9.611053125,15.07091298828125,9.679293125000001,15.09911298828125Q9.747543125,15.12741298828125,9.819993125,15.14181298828125Q9.892443125,15.15621298828125,9.966313125,15.15621298828125Z" fill-rule="evenodd" fill="#333333" fill-opacity="1"/></g></g></g></svg>