<svg xmlns="http://www.w3.org/2000/svg" xmlns:xlink="http://www.w3.org/1999/xlink" fill="none" version="1.1" width="13.333984375" height="13.333984375" viewBox="0 0 13.333984375 13.333984375"><g><path d="M6.66667,13.3333Q6.83032,13.3333,6.99378,13.3253Q7.15725,13.3173,7.32011,13.3012Q7.48298,13.2852,7.64487,13.2612Q7.80676,13.2372,7.96727,13.2052Q8.12778,13.1733,8.28653,13.1335Q8.44529,13.0938,8.6019,13.0463Q8.75851,12.9988,8.9126,12.9436Q9.06669,12.8885,9.21789,12.8259Q9.36909,12.7632,9.51703,12.6933Q9.66498,12.6233,9.80931,12.5461Q9.95364,12.469,10.094,12.3849Q10.2344,12.3007,10.3705,12.2098Q10.5065,12.1189,10.638,12.0214Q10.7694,11.9239,10.896,11.8201Q11.0225,11.7162,11.1437,11.6063Q11.265,11.4964,11.3807,11.3807Q11.4964,11.265,11.6063,11.1437Q11.7162,11.0225,11.8201,10.896Q11.9239,10.7694,12.0214,10.638Q12.1189,10.5065,12.2098,10.3705Q12.3007,10.2344,12.3849,10.094Q12.469,9.95364,12.5461,9.80931Q12.6233,9.66498,12.6933,9.51703Q12.7632,9.36909,12.8259,9.21789Q12.8885,9.06669,12.9436,8.9126Q12.9988,8.75851,13.0463,8.6019Q13.0938,8.44529,13.1335,8.28653Q13.1733,8.12778,13.2052,7.96727Q13.2372,7.80676,13.2612,7.64487Q13.2852,7.48298,13.3012,7.32012Q13.3173,7.15725,13.3253,6.99379Q13.3333,6.83032,13.3333,6.66667Q13.3333,6.50301,13.3253,6.33955Q13.3173,6.17609,13.3012,6.01322Q13.2852,5.85035,13.2612,5.68846Q13.2372,5.52658,13.2052,5.36606Q13.1733,5.20555,13.1335,5.0468Q13.0938,4.88805,13.0463,4.73144Q12.9988,4.57483,12.9436,4.42073Q12.8885,4.26664,12.8259,4.11544Q12.7632,3.96424,12.6933,3.8163Q12.6233,3.66835,12.5461,3.52402Q12.469,3.37969,12.3849,3.23931Q12.3007,3.09894,12.2098,2.96286Q12.1189,2.82679,12.0214,2.69534Q11.9239,2.56389,11.8201,2.43738Q11.7162,2.31087,11.6063,2.18961Q11.4964,2.06834,11.3807,1.95262Q11.265,1.8369,11.1437,1.72699Q11.0225,1.61709,10.896,1.51326Q10.7694,1.40944,10.638,1.31195Q10.5065,1.21446,10.3705,1.12354Q10.2344,1.03261,10.094,0.948476Q9.95364,0.864339,9.80931,0.787192Q9.66498,0.710044,9.51703,0.640071Q9.36909,0.570099,9.21789,0.50747Q9.06669,0.444841,8.9126,0.389706Q8.75851,0.334572,8.6019,0.287064Q8.44529,0.239557,8.28653,0.199792Q8.12778,0.160026,7.96727,0.128098Q7.80676,0.0961701,7.64487,0.0721566Q7.48298,0.0481431,7.32012,0.0321018Q7.15725,0.0160606,6.99379,0.00803029Q6.83032,0,6.66667,0Q6.50301,0,6.33955,0.00803029Q6.17609,0.0160606,6.01322,0.0321018Q5.85035,0.0481431,5.68846,0.0721566Q5.52658,0.0961701,5.36606,0.128098Q5.20555,0.160026,5.0468,0.199792Q4.88805,0.239557,4.73144,0.287064Q4.57483,0.334572,4.42073,0.389706Q4.26664,0.444841,4.11544,0.50747Q3.96424,0.570099,3.8163,0.640071Q3.66835,0.710044,3.52402,0.787192Q3.37969,0.864339,3.23931,0.948476Q3.09894,1.03261,2.96286,1.12354Q2.82679,1.21446,2.69534,1.31195Q2.56389,1.40944,2.43738,1.51326Q2.31087,1.61709,2.18961,1.72699Q2.06834,1.8369,1.95262,1.95262Q1.8369,2.06834,1.72699,2.18961Q1.61709,2.31087,1.51326,2.43738Q1.40944,2.56389,1.31195,2.69534Q1.21446,2.82679,1.12354,2.96286Q1.03261,3.09894,0.948476,3.23931Q0.864339,3.37969,0.787192,3.52402Q0.710044,3.66835,0.640071,3.8163Q0.570099,3.96424,0.50747,4.11544Q0.444841,4.26664,0.389706,4.42073Q0.334572,4.57483,0.287064,4.73144Q0.239557,4.88805,0.199792,5.0468Q0.160026,5.20555,0.128098,5.36606Q0.0961701,5.52658,0.0721566,5.68846Q0.0481431,5.85035,0.0321018,6.01322Q0.0160606,6.17609,0.00803029,6.33955Q0,6.50301,0,6.66667Q0,6.83032,0.00803029,6.99378Q0.0160606,7.15725,0.0321018,7.32011Q0.0481431,7.48298,0.0721566,7.64487Q0.0961701,7.80676,0.128098,7.96727Q0.160026,8.12778,0.199792,8.28653Q0.239557,8.44529,0.287064,8.6019Q0.334572,8.75851,0.389706,8.9126Q0.444841,9.06669,0.50747,9.21789Q0.570099,9.36909,0.640071,9.51703Q0.710044,9.66498,0.787192,9.80931Q0.864339,9.95364,0.948476,10.094Q1.03261,10.2344,1.12354,10.3705Q1.21446,10.5065,1.31195,10.638Q1.40944,10.7694,1.51326,10.896Q1.61709,11.0225,1.72699,11.1437Q1.8369,11.265,1.95262,11.3807Q2.06834,11.4964,2.18961,11.6063Q2.31087,11.7162,2.43738,11.8201Q2.56389,11.9239,2.69534,12.0214Q2.82679,12.1189,2.96286,12.2098Q3.09894,12.3007,3.23931,12.3849Q3.37969,12.469,3.52402,12.5461Q3.66835,12.6233,3.8163,12.6933Q3.96424,12.7632,4.11544,12.8259Q4.26664,12.8885,4.42073,12.9436Q4.57483,12.9988,4.73144,13.0463Q4.88805,13.0938,5.0468,13.1335Q5.20555,13.1733,5.36606,13.2052Q5.52658,13.2372,5.68846,13.2612Q5.85035,13.2852,6.01322,13.3012Q6.17609,13.3173,6.33955,13.3253Q6.50301,13.3333,6.66667,13.3333ZM6.66593,7.51445L8.57483,9.42335C8.80914,9.65767,9.18904,9.65767,9.42335,9.42335C9.65767,9.18904,9.65767,8.80914,9.42335,8.57483L7.51445,6.66593L9.42368,4.7567C9.65799,4.52239,9.65799,4.14249,9.42368,3.90818C9.31116,3.79565,9.15854,3.73244,8.99941,3.73244C8.84028,3.73244,8.68767,3.79565,8.57515,3.90818L6.66593,5.8174L4.75669,3.90816C4.52237,3.67384,4.14247,3.67384,3.90816,3.90816C3.67384,4.14247,3.67384,4.52237,3.90816,4.75669L5.8174,6.66593L3.90848,8.57484C3.79596,8.68736,3.73275,8.83998,3.73275,8.99911C3.73275,9.15824,3.79596,9.31085,3.90848,9.42337C4.1428,9.65768,4.5227,9.65768,4.75701,9.42337L6.66593,7.51445Z" fill-rule="evenodd" fill="#000000"/></g></svg>