<svg xmlns="http://www.w3.org/2000/svg" xmlns:xlink="http://www.w3.org/1999/xlink" fill="none" version="1.1" width="18" height="18" viewBox="0 0 18 18"><defs><clipPath id="master_svg0_1968_14985"><rect x="0" y="0" width="18" height="18" rx="0"/></clipPath></defs><g clip-path="url(#master_svg0_1968_14985)"><g><path d="M16.500244140625,9Q16.500244140625,9.18411,16.491244140625,9.36801Q16.482144140625,9.5519,16.464144140625002,9.73513Q16.446044140625,9.91836,16.419044140624997,10.10048Q16.392044140625,10.2826,16.356144140625,10.46318Q16.320244140625,10.64375,16.275444140624998,10.82235Q16.230744140625,11.00095,16.177344140625,11.17714Q16.123844140625,11.35332,16.061844140625,11.5267Q15.999844140625,11.7,15.929344140625,11.8701Q15.858844140625,12.0402,15.780144140625,12.2067Q15.701444140625,12.3731,15.614644140625,12.5355Q15.527844140625,12.6978,15.433244140625,12.8558Q15.338544140625,13.0137,15.236244140625,13.1668Q15.133944140625,13.3199,15.024344140625,13.4677Q14.914644140625,13.6156,14.797844140625,13.7579Q14.681044140625,13.9003,14.557344140625,14.0367Q14.433744140625,14.1731,14.303544140625,14.3033Q14.173344140625,14.4335,14.036944140625,14.5571Q13.900544140625,14.6808,13.758144140625,14.7976Q13.615844140625,14.9144,13.467944140625,15.0241Q13.320144140625,15.1337,13.167044140625,15.236Q13.013944140625,15.3383,12.856044140625,15.433Q12.698044140625,15.5276,12.535744140625,15.6144Q12.373344140625,15.7012,12.206944140625,15.7799Q12.040444140625,15.8586,11.870344140625,15.9291Q11.700244140625,15.9996,11.526944140625,16.0616Q11.353564140625,16.1236,11.177384140625,16.1771Q11.001194140625,16.2305,10.822594140625,16.275199999999998Q10.643994140625,16.32,10.463424140625,16.3559Q10.282844140625,16.3918,10.100724140625,16.418799999999997Q9.918604140625,16.4458,9.735374140625,16.463900000000002Q9.552144140625,16.4819,9.368254140625,16.491Q9.184354140625,16.5,9.000244140625,16.5Q8.816134140625,16.5,8.632234140625,16.491Q8.448344140625,16.4819,8.265114140625,16.463900000000002Q8.081884140625,16.4458,7.899764140625,16.418799999999997Q7.717644140625,16.3918,7.537064140625,16.3559Q7.356494140625,16.32,7.177894140625,16.275199999999998Q6.999294140625,16.2305,6.823114140625,16.1771Q6.646924140625,16.1236,6.473574140625,16.0616Q6.300214140625,15.9996,6.130114140625,15.9291Q5.960014140625,15.8586,5.793584140625,15.7799Q5.627144140625,15.7012,5.464764140625,15.6144Q5.302394140625,15.5276,5.144474140625,15.433Q4.986554140625,15.3383,4.833464140625,15.236Q4.680384140625,15.1337,4.5324941406249994,15.0241Q4.3846141406250005,14.9144,4.242294140625,14.7976Q4.099974140625,14.6808,3.963554140625,14.5571Q3.827134140625,14.4335,3.696944140625,14.3033Q3.566754140625,14.1731,3.443114140625,14.0367Q3.319464140625,13.9003,3.202664140625,13.7579Q3.085864140625,13.6156,2.976184140625,13.4677Q2.866514140625,13.3199,2.764224140625,13.1668Q2.661934140625,13.0137,2.567284140625,12.8558Q2.472626140625,12.6978,2.385834140625,12.5355Q2.299043140625,12.3731,2.2203241406250003,12.2067Q2.141605140625,12.0402,2.071147140625,11.8701Q2.000690140625,11.7,1.9386631406250001,11.5267Q1.876637140625,11.35332,1.823191140625,11.17714Q1.7697461406250001,11.00095,1.725010140625,10.82235Q1.680273140625,10.64375,1.644354140625,10.46318Q1.608435140625,10.2826,1.581420340625,10.10048Q1.554405040625,9.91836,1.536358640625,9.73513Q1.518312340625,9.5519,1.509278220625,9.36801Q1.500244140625,9.18411,1.500244140625,9Q1.500244140625,8.81589,1.509278220625,8.63199Q1.518312340625,8.4481,1.536358640625,8.26487Q1.554405040625,8.08164,1.581420340625,7.89952Q1.608435140625,7.7174,1.644354140625,7.53682Q1.680273140625,7.35625,1.725010140625,7.17765Q1.7697461406250001,6.99905,1.823191140625,6.82287Q1.876637140625,6.64668,1.9386631406250001,6.47333Q2.000690140625,6.29997,2.071147140625,6.12987Q2.141605140625,5.95977,2.2203241406250003,5.79334Q2.299043140625,5.6269,2.385834140625,5.46452Q2.472626140625,5.30215,2.567284140625,5.14423Q2.661934140625,4.98631,2.764224140625,4.83322Q2.866514140625,4.68014,2.976184140625,4.5322499999999994Q3.085864140625,4.3843700000000005,3.202664140625,4.24205Q3.319464140625,4.09973,3.443114140625,3.96331Q3.566754140625,3.82689,3.696944140625,3.6967Q3.827134140625,3.56651,3.963554140625,3.44287Q4.099974140625,3.31922,4.242294140625,3.20242Q4.3846141406250005,3.08562,4.532504140625,2.97594Q4.680384140625,2.86627,4.833464140625,2.76398Q4.986554140625,2.66169,5.144474140625,2.56704Q5.302394140625,2.472382,5.464764140625,2.38559Q5.627144140625,2.298799,5.793584140625,2.2200800000000003Q5.960014140625,2.141361,6.130114140625,2.070903Q6.300214140625,2.000446,6.473574140625,1.9384190000000001Q6.646924140625,1.876393,6.823114140625,1.822947Q6.999294140625,1.7695020000000001,7.177894140625,1.724766Q7.356494140625,1.680029,7.537064140625,1.64411Q7.717644140625,1.608191,7.899764140625,1.5811762Q8.081884140625,1.5541609,8.265114140625,1.5361145Q8.448344140625,1.5180682,8.632234140625,1.50903408Q8.816134140625,1.5,9.000244140625,1.5Q9.184354140625,1.5,9.368254140625,1.50903408Q9.552144140625,1.5180682,9.735374140625,1.5361145Q9.918604140625,1.5541609,10.100724140625,1.5811762Q10.282844140625,1.608191,10.463424140625,1.64411Q10.643994140625,1.680029,10.822594140625,1.724766Q11.001194140625,1.7695020000000001,11.177384140625,1.822947Q11.353564140625,1.876393,11.526944140625,1.9384190000000001Q11.700244140625,2.000446,11.870344140625,2.070903Q12.040444140625,2.141361,12.206944140625,2.2200800000000003Q12.373344140625,2.298799,12.535744140625,2.38559Q12.698044140625,2.472382,12.856044140625,2.56704Q13.013944140625,2.66169,13.167044140625,2.76398Q13.320144140625,2.86627,13.467944140625,2.97594Q13.615844140625,3.08562,13.758144140625,3.20242Q13.900544140625,3.31922,14.036944140625,3.44287Q14.173344140625,3.56651,14.303544140625,3.6967Q14.433744140625,3.82689,14.557344140625,3.96331Q14.681044140625,4.09973,14.797844140625,4.24205Q14.914644140625,4.3843700000000005,15.024344140625,4.53226Q15.133944140625,4.68014,15.236244140625,4.83322Q15.338544140625,4.98631,15.433244140625,5.14423Q15.527844140625,5.30215,15.614644140625,5.46452Q15.701444140625,5.6269,15.780144140625,5.79334Q15.858844140625,5.95977,15.929344140625,6.12987Q15.999844140625,6.29997,16.061844140625,6.47333Q16.123844140625,6.64668,16.177344140625,6.82287Q16.230744140625,6.99905,16.275444140624998,7.17765Q16.320244140625,7.35625,16.356144140625,7.53682Q16.392044140625,7.7174,16.419044140624997,7.89952Q16.446044140625,8.08164,16.464144140625002,8.26487Q16.482144140625,8.4481,16.491244140625,8.63199Q16.500244140625,8.81589,16.500244140625,9Z" fill="#666666" fill-opacity="1"/></g><g><path d="M11.147407031250001,12.102251171875L8.99989703125,9.954741171875L6.85236703125,12.102271171875C6.58876603125,12.365871171875,6.16138003125,12.365871171875,5.89777603125,12.102271171875C5.77118873125,11.975681171875,5.70007288425,11.803991171875001,5.70007288425,11.624971171875C5.70007288425,11.445951171875,5.77118873125,11.274261171875,5.89777603125,11.147671171875L8.045307031250001,9.000141171875L5.89741003125,6.852251171875C5.63380613125,6.588644171875,5.63380613125,6.161258171875,5.89741003125,5.897654171875C6.16101403125,5.634050271875,6.58840003125,5.634050271875,6.85200703125,5.897654171875L8.99989703125,8.045551171875001L11.147777031250001,5.897674171875C11.27436703125,5.771086671875,11.44604703125,5.699970819075,11.625077031250001,5.699970819075C11.80409703125,5.699970819075,11.97578703125,5.771086671875,12.102367031250001,5.897674171875C12.36597703125,6.161277171875,12.36597703125,6.588664171875,12.102367031250001,6.852271171875L9.95449703125,9.000141171875L12.10200703125,11.147651171875001C12.36560703125,11.411261171875001,12.36560703125,11.838641171875,12.10200703125,12.102251171875C11.83839703125,12.365851171875,11.411017031250001,12.365851171875,11.147407031250001,12.102251171875Z" fill-rule="evenodd" fill="#FFFFFF" fill-opacity="1"/></g></g></svg>