<svg xmlns="http://www.w3.org/2000/svg" xmlns:xlink="http://www.w3.org/1999/xlink" fill="none" version="1.1" width="20" height="20" viewBox="0 0 20 20"><defs><clipPath id="master_svg0_1110_01134"><rect x="2" y="2" width="16" height="16" rx="0"/></clipPath></defs><g><g clip-path="url(#master_svg0_1110_01134)"><g transform="matrix(1,0,0,-1,0,31.3333740234375)"><path d="M2.503113125,18.73615701171875L2.502877125,18.73638701171875Q2.397387125,18.84187701171875,2.340296125,18.97970701171875Q2.283204125,19.11753701171875,2.283203125,19.26671701171875L2.283203125,19.26672701171875Q2.283203125,19.28474701171875,2.2840691250000003,19.30274701171875Q2.290785125,19.44242701171875,2.347386125,19.57029701171875Q2.403988125,19.698167011718752,2.502868125,19.79704701171875Q2.608358125,19.90253701171875,2.746187125,19.95962701171875Q2.884017125,20.01672701171875,3.033203125,20.01672701171875Q3.052615425,20.01672701171875,3.072003325,20.01571701171875Q3.210937125,20.00852701171875,3.338046125,19.95197701171875Q3.465155125,19.895427011718752,3.563529125,19.79705701171875L3.563764125,19.79682701171875L5.883303124999999,17.47732701171875L5.883303124999999,26.99998701171875Q5.883303124999999,27.07388701171875,5.897713125,27.146287011718748Q5.912123125,27.21878701171875,5.940393125,27.28698701171875Q5.968663125,27.35528701171875,6.009703125,27.41668701171875Q6.050733125,27.47808701171875,6.102973125,27.530287011718748Q6.155203125,27.58258701171875,6.216623125,27.623587011718747Q6.278043125,27.664687011718748,6.346283124999999,27.69288701171875Q6.414533125,27.72118701171875,6.486983125,27.73558701171875Q6.559433125,27.74998701171875,6.633303124999999,27.74998701171875Q6.707173125000001,27.74998701171875,6.7796231250000005,27.73558701171875Q6.852063125,27.72118701171875,6.920313125,27.69288701171875Q6.988563125000001,27.664687011718748,7.049983125,27.623587011718747Q7.111393125,27.58258701171875,7.163633125,27.530287011718748Q7.215863125,27.47808701171875,7.256903125,27.41668701171875Q7.297943125,27.35528701171875,7.326213125,27.28698701171875Q7.354473125,27.21878701171875,7.368893125,27.146287011718748Q7.383303125,27.07388701171875,7.383303125,26.99998701171875L7.383303125,15.66668701171875Q7.383303125,15.51750401171875,7.326213125,15.37967701171875Q7.269123125,15.24185001171875,7.163633125,15.13636101171875Q7.111403125,15.08412801171875,7.049983125,15.04308801171875Q6.988563125000001,15.00204901171875,6.9203231249999995,14.97378001171875Q6.852073125,14.94551101171875,6.7796231250000005,14.93109901171875Q6.707173125000001,14.91668801171875,6.633303124999999,14.91668701171875Q6.559443125,14.91668701171875,6.486993125,14.93109701171875Q6.414543125,14.94550701171875,6.346293125,14.97377501171875Q6.278043125,15.00204301171875,6.216623125,15.04308101171875Q6.1552131249999995,15.08412001171875,6.102973125,15.136352011718749L2.503113125,18.73615701171875ZM9.966313125,17.67712701171875L12.966313125,17.67712701171875Q13.040203125,17.67712701171875,13.112603125,17.66271701171875Q13.185103125,17.64829701171875,13.253303125,17.62003701171875Q13.321603125,17.59176701171875,13.383003125,17.55072701171875Q13.444403125,17.50968701171875,13.496603125,17.45745701171875Q13.548903125,17.40521701171875,13.589903125,17.34379701171875Q13.630903125,17.28237701171875,13.659203125,17.21413701171875Q13.687503125,17.14588701171875,13.701903125,17.07343701171875Q13.716303125,17.00099701171875,13.716303125,16.92712701171875Q13.716303125,16.85325701171875,13.701903125,16.78080701171875Q13.687503125,16.70835701171875,13.659203125,16.64011101171875Q13.630903125,16.57186601171875,13.589903125,16.51044601171875Q13.548903125,16.44902701171875,13.496603125,16.39679401171875Q13.444403125,16.34456101171875,13.383003125,16.30352201171875Q13.321603125,16.26248301171875,13.253303125,16.23421401171875Q13.185103125,16.20594601171875,13.112603125,16.19153501171875Q13.040203125,16.17712401171875,12.966313125,16.17712401171875L9.966313125,16.17712401171875Q9.892443125,16.17712401171875,9.819993125,16.19153501171875Q9.747543125,16.20594601171875,9.679293125000001,16.23421401171875Q9.611053125,16.26248301171875,9.549633125,16.30352201171875Q9.488213125,16.34456101171875,9.435983125,16.39679401171875Q9.383743124999999,16.44902701171875,9.342703125,16.51044601171875Q9.301663125000001,16.57186601171875,9.273403125,16.64011101171875Q9.245133124999999,16.70835701171875,9.230723125,16.78080701171875Q9.216313125,16.85325701171875,9.216313125,16.92712701171875Q9.216313125,17.00099701171875,9.230723125,17.07343701171875Q9.245133124999999,17.14588701171875,9.273393125,17.21413701171875Q9.301663125000001,17.28237701171875,9.342703125,17.34379701171875Q9.383743124999999,17.40521701171875,9.435983125,17.45745701171875Q9.488213125,17.50968701171875,9.549633125,17.55072701171875Q9.611053125,17.59176701171875,9.679293125000001,17.62003701171875Q9.747543125,17.64829701171875,9.819993125,17.66271701171875Q9.892443125,17.67712701171875,9.966313125,17.67712701171875ZM9.966313125,22.08337701171875L14.966303125,22.08337701171875Q15.040203125,22.08337701171875,15.112603125,22.06896701171875Q15.185103125,22.05454701171875,15.253303125,22.02628701171875Q15.321603125,21.99801701171875,15.383003125,21.95697701171875Q15.444403125,21.91593701171875,15.496603125,21.863707011718752Q15.548903125,21.81146701171875,15.589903125,21.75004701171875Q15.630903125,21.68862701171875,15.659203125,21.62038701171875Q15.687503125,21.55213701171875,15.701903125,21.47968701171875Q15.716303125,21.407247011718752,15.716303125,21.33337701171875Q15.716303125,21.25950701171875,15.701903125,21.18705701171875Q15.687503125,21.11460701171875,15.659203125,21.04635701171875Q15.630903125,20.97811701171875,15.589903125,20.91669701171875Q15.548903125,20.855277011718748,15.496603125,20.80304701171875Q15.444403125,20.75080701171875,15.383003125,20.70976701171875Q15.321603125,20.66873701171875,15.253303125,20.640467011718748Q15.185103125,20.61219701171875,15.112603125,20.59778701171875Q15.040203125,20.58337701171875,14.966303125,20.58337701171875L9.966313125,20.58337701171875Q9.892443125,20.58337701171875,9.819993125,20.59778701171875Q9.747543125,20.61219701171875,9.679293125000001,20.640467011718748Q9.611053125,20.66873701171875,9.549633125,20.70976701171875Q9.488213125,20.75080701171875,9.435983125,20.80304701171875Q9.383743124999999,20.855277011718748,9.342703125,20.91669701171875Q9.301663125000001,20.97811701171875,9.273403125,21.04635701171875Q9.245133124999999,21.11460701171875,9.230723125,21.18705701171875Q9.216313125,21.25950701171875,9.216313125,21.33337701171875Q9.216313125,21.407247011718752,9.230723125,21.47968701171875Q9.245133124999999,21.55213701171875,9.273393125,21.62038701171875Q9.301663125000001,21.68862701171875,9.342703125,21.75004701171875Q9.383743124999999,21.81146701171875,9.435983125,21.863707011718752Q9.488213125,21.91593701171875,9.549633125,21.95697701171875Q9.611053125,21.99801701171875,9.679293125000001,22.02628701171875Q9.747543125,22.05454701171875,9.819993125,22.06896701171875Q9.892443125,22.08337701171875,9.966313125,22.08337701171875ZM9.966313125,26.48958701171875L16.966303125,26.48958701171875Q17.040203124999998,26.48958701171875,17.112603125,26.475187011718752Q17.185103124999998,26.46078701171875,17.253303125000002,26.43248701171875Q17.321603125,26.40428701171875,17.383003125000002,26.36318701171875Q17.444403125,26.32218701171875,17.496603125,26.26998701171875Q17.548903125000002,26.217687011718752,17.589903125,26.15628701171875Q17.630903125,26.09488701171875,17.659203124999998,26.02658701171875Q17.687503125,25.95838701171875,17.701903125,25.88598701171875Q17.716303125,25.81348701171875,17.716303125,25.73958701171875Q17.716303125,25.66575701171875,17.701903125,25.59330701171875Q17.687503125,25.52085701171875,17.659203124999998,25.45260701171875Q17.630903125,25.38436701171875,17.589903125,25.32294701171875Q17.548903125000002,25.261527011718748,17.496603125,25.20929701171875Q17.444403125,25.15705701171875,17.383003125000002,25.11601701171875Q17.321603125,25.07497701171875,17.253303125000002,25.046717011718748Q17.185103124999998,25.01844701171875,17.112603125,25.00403701171875Q17.040203124999998,24.98962701171875,16.966303125,24.98962701171875L9.966313125,24.98962701171875Q9.892443125,24.98962701171875,9.819993125,25.00403701171875Q9.747543125,25.01844701171875,9.679293125000001,25.046717011718748Q9.611053125,25.07497701171875,9.549633125,25.11601701171875Q9.488213125,25.15705701171875,9.435983125,25.20929701171875Q9.383743124999999,25.261527011718748,9.342703125,25.32294701171875Q9.301663125000001,25.38436701171875,9.273403125,25.45260701171875Q9.245133124999999,25.52085701171875,9.230723125,25.59330701171875Q9.216313125,25.66575701171875,9.216313125,25.73958701171875Q9.216313125,25.81348701171875,9.230723125,25.88598701171875Q9.245133124999999,25.95838701171875,9.273393125,26.02658701171875Q9.301663125000001,26.09488701171875,9.342703125,26.15628701171875Q9.383743124999999,26.217687011718752,9.435983125,26.26998701171875Q9.488213125,26.32218701171875,9.549633125,26.36318701171875Q9.611053125,26.40428701171875,9.679293125000001,26.43248701171875Q9.747543125,26.46078701171875,9.819993125,26.475187011718752Q9.892443125,26.48958701171875,9.966313125,26.48958701171875Z" fill-rule="evenodd" fill="#1D74F5" fill-opacity="1"/></g></g></g></svg>