<svg xmlns="http://www.w3.org/2000/svg" xmlns:xlink="http://www.w3.org/1999/xlink" fill="none" version="1.1" width="16" height="16" viewBox="0 0 16 16"><g><g><path d="M1.600939,2.240234375L13.607925,2.240234375C14.137925,2.240492582,14.567425,2.670245375,14.567425,3.200256375C14.567425,3.730264375,14.137925,4.159954375,13.607925,4.160214375L1.600939,4.160234375C1.071004,4.159864375,0.641601562,3.730164375,0.641601562,3.200234375C0.641601562,2.670299375,1.071004,2.240600109,1.600939,2.240234375ZM13.919425,11.864194375L15.441425,13.386334375C15.802725,13.727534375,15.810025,14.300034375,15.457525,14.650334375C15.111625,14.991934375,14.555325,14.991934375,14.209425,14.650334375L12.671425,13.112134375C12.017025,13.538334375,11.252525,13.763534375,10.471675,13.760234375C8.209525,13.760234375,6.375485,11.926344375,6.375485,9.664184375C6.375485,7.402024375,8.209525,5.568174375,10.471675,5.568174375C12.733825,5.568174375,14.567425,7.402024375,14.567425,9.664184375C14.567425,10.445084375,14.342425,11.208964375,13.919425,11.864194375ZM1.600626,7.040224375L4.000624999999999,7.040224375C4.530455,7.040744375,4.959685,7.470394375,4.959685,8.000224375C4.959685,8.530044375,4.530455,8.959704375000001,4.000624999999999,8.960224375L1.600626,8.960224375C1.070432,8.960224375,0.640625,8.530414375,0.640625,8.000224375C0.640625,7.470024375,1.070432,7.040224375,1.600626,7.040224375ZM8.119625,9.648194375C8.119625,10.938334375,9.165425,11.984194375,10.455565,11.984194375L10.455565,12.000184375C11.752025,12.000184375,12.800425,10.944544375,12.791525,9.648194375C12.791525,8.358054375,11.745725,7.312194375,10.455565,7.312194375C9.165425,7.312194375,8.119625,8.358054375,8.119625,9.648194375ZM1.600625,11.840214375L4.800625,11.840214375C5.330815,11.840214375,5.760625,12.270034375,5.760625,12.800234375C5.760625,13.330434375,5.330815,13.760234375,4.800625,13.760234375L1.600625,13.760234375C1.070432,13.760234375,0.640625,13.330434375,0.640625,12.800234375C0.640625,12.270034375,1.070432,11.840214375,1.600625,11.840214375Z" fill-rule="evenodd" fill="#333333" fill-opacity="1"/></g></g></svg>