<svg xmlns="http://www.w3.org/2000/svg" xmlns:xlink="http://www.w3.org/1999/xlink" fill="none" version="1.1" width="16" height="16" viewBox="0 0 16 16"><g><g><path d="M3.72954875,2.66888875L7.99921875,6.93855875L12.26842875,2.66935075L12.26842875,2.66935075C12.40953875,2.52823635,12.60031875,2.44921875,12.79921875,2.44921875C12.99481875,2.44921875,13.18261875,2.52559505,13.32261875,2.66206875C13.32261875,2.66206875,13.32951875,2.66888875,13.32951875,2.66888875C13.47021875,2.80954075,13.54921875,3.00030675,13.54921875,3.19921875C13.54921875,3.39813075,13.47021875,3.5888987500000002,13.32951875,3.72954875L13.32951875,3.72954875L9.05987875,7.99921875L13.32881875,12.26819875L13.32881875,12.26819875C13.47011875,12.40947875,13.54911875,12.60021875,13.54911875,12.79911875C13.54911875,12.99811875,13.47011875,13.18881875,13.32951875,13.32951875C13.18881875,13.47011875,12.99811875,13.54911875,12.79911875,13.54911875C12.60021875,13.54911875,12.40947875,13.47011875,12.26882875,13.32951875L12.26882875,13.32951875L7.99921875,9.05987875L3.73006875,13.32901875L3.73006875,13.32901875C3.5889587499999998,13.47011875,3.39819175,13.54911875,3.19927875,13.54911875C3.00036675,13.54911875,2.80960075,13.47011875,2.66894875,13.32951875C2.53710705,13.19761875,2.45910126,13.02141875,2.450144768,12.83521875C2.449567616,12.82321875,2.4492789507,12.81121875,2.4492788911,12.79911875C2.4492788911,12.60021875,2.52829655,12.40947875,2.66894875,12.26882875L2.66894875,12.26882875L6.93855875,7.99921875L2.66888875,3.72954875C2.52823645,3.5888987500000002,2.4492188096046,3.39813075,2.44921875,3.19921875C2.44921875,3.00030675,2.52823635,2.80954075,2.66888875,2.66888875C2.80954075,2.52823635,3.00030675,2.44921875,3.19921875,2.4492188096046C3.39813075,2.4492188096046,3.5888987500000002,2.52823645,3.72954875,2.66888875Z" fill-rule="evenodd" fill="#666666" fill-opacity="1"/></g></g></svg>