<svg xmlns="http://www.w3.org/2000/svg" xmlns:xlink="http://www.w3.org/1999/xlink" fill="none" version="1.1" width="72" height="72" viewBox="0 0 72 72"><defs><filter id="master_svg0_1968_15448" filterUnits="objectBoundingBox" color-interpolation-filters="sRGB" x="-32" y="-28" width="88" height="88"><feFlood flood-opacity="0" result="BackgroundImageFix"/><feColorMatrix in="SourceAlpha" type="matrix" values="0 0 0 0 0 0 0 0 0 0 0 0 0 0 0 0 0 0 127 0"/><feOffset dy="4" dx="0"/><feGaussianBlur stdDeviation="8"/><feColorMatrix type="matrix" values="0 0 0 0 0 0 0 0 0 0 0 0 0 0 0 0 0 0 0.07000000029802322 0"/><feBlend mode="normal" in2="BackgroundImageFix" result="effect1_dropShadow"/><feBlend mode="normal" in="SourceGraphic" in2="effect1_dropShadow" result="shape"/></filter><clipPath id="master_svg1_1968_18806"><rect x="28" y="24" width="16" height="16" rx="0"/></clipPath></defs><g filter="url(#master_svg0_1968_15448)"><rect x="24" y="20" width="24" height="24" rx="6" fill="#FFFFFF" fill-opacity="1"/><rect x="24.5" y="20.5" width="23" height="23" rx="5.5" fill-opacity="0" stroke-opacity="1" stroke="#E3E4E5" fill="none" stroke-width="1"/><g clip-path="url(#master_svg1_1968_18806)"><g><path d="M41.8866390625,28.75524998828125L41.8870390625,28.75485098828125Q41.970139062499996,28.67063198828125,42.0151390625,28.56114798828125Q42.060039062499996,28.45166398828125,42.060039062499996,28.33331568742125L42.060039062499996,28.32947039828125Q42.0592390625,28.21012498828125,42.0128390625,28.10015698828125Q41.966539062500004,27.99018998828125,41.881539062499996,27.90633998828125Q41.7973390625,27.82319298828125,41.687839062500004,27.77825298828125Q41.578439062499996,27.73331398828125,41.4600390625,27.73331298828125L41.4562390625,27.73332498828125Q41.3368390625,27.73408998828125,41.2268390625,27.78046698828125Q41.1169390625,27.82684498828125,41.0330390625,27.91177498828125L41.032639062499996,27.91217398828125L34.2371990625,34.79525298828125L30.9832730625,31.22890298828125Q30.9028320625,31.14074298828125,30.7947750625,31.09007298828125Q30.6867170625,31.03940298828125,30.5674951625,31.03394298828125Q30.5537746625,31.03331298828125,30.5400397113,31.03331298828125L30.5386719025,31.03331298828125Q30.4268010625,31.03357298828125,30.3225380625,31.07412298828125Q30.2182760625,31.11467298828125,30.1356340625,31.19008298828125Q30.0474690625,31.27052298828125,29.9967990625,31.37857298828125Q29.9461290625,31.48663298828125,29.9406680625,31.60585298828125Q29.9400390625,31.61957298828125,29.9400390625,31.63331298828125L29.9400410625,31.63468298828125Q29.9402950625,31.746552988281252,29.9808490625,31.85081298828125Q30.0214030625,31.955072988281252,30.0968050625,32.03772298828125L33.7768090625,36.07105298828125Q33.7873590625,36.08261298828125,33.7984990625,36.09362298828125Q33.8405490625,36.13513298828125,33.8898990625,36.16765298828125Q33.9392390625,36.20016298828125,33.9939790625,36.22243298828125Q34.0487190625,36.24469298828125,34.106759062500004,36.25585298828125Q34.1647890625,36.26701298828125,34.223879062500004,36.26663298828125Q34.2829790625,36.26625298828125,34.3408590625,36.25435298828125Q34.3987390625,36.24245298828125,34.4531990625,36.21949298828125Q34.5076490625,36.19652298828125,34.5565690625,36.16338298828125Q34.6054890625,36.13023298828125,34.6470090625,36.08818298828125L41.8866390625,28.75524998828125Z" fill-rule="evenodd" fill="#333333" fill-opacity="1"/></g></g></g></svg>