<svg xmlns="http://www.w3.org/2000/svg" xmlns:xlink="http://www.w3.org/1999/xlink" fill="none" version="1.1" width="72" height="72" viewBox="0 0 72 72"><defs><clipPath id="master_svg0_4984_03176"><rect x="38" y="38" width="34" height="34" rx="0"/></clipPath><filter id="master_svg1_4984_03178" filterUnits="objectBoundingBox" color-interpolation-filters="sRGB" x="0" y="0" width="28.33333396911621" height="28.33333396911621"><feFlood flood-opacity="0" result="BackgroundImageFix"/><feBlend mode="normal" in="SourceGraphic" in2="BackgroundImageFix" result="shape"/><feGaussianBlur in="BackgroundImage" stdDeviation="2.125"/><feComposite in2="SourceAlpha" operator="in" result="effect1_foregroundBlur"/><feBlend mode="normal" in="SourceGraphic" in2="effect1_foregroundBlur" result="shape"/></filter><linearGradient x1="0.5" y1="0" x2="0.5" y2="1" id="master_svg2_4984_03180"><stop offset="0%" stop-color="#2CA6FF" stop-opacity="1"/><stop offset="100%" stop-color="#1D74F5" stop-opacity="1"/></linearGradient></defs><g><g><path d="M63,69L9,69L9,30C9,15.0883,21.0883,3,36,3C50.9117,3,63,15.0883,63,30L63,69Z" fill="#F0F0F0" fill-opacity="1"/></g><g><path d="M36.30116630249023,39.3005147277832L21.999874302490234,39.300414727783206L21.999874302490234,37.700414727783205L36.30116630249023,37.700414727783205L36.30116630249023,39.3005147277832ZM34.99986630249023,50.300414727783206L21.999874302490234,50.300414727783206L21.999874302490234,48.700414727783205L34.99986630249023,48.700414727783205L34.99986630249023,50.300414727783206ZM51.565666302490236,20.565684727783204Q46.54686630249023,25.584534727783204,42.52676630249023,29.1020647277832Q40.786566302490236,30.624714727783203,38.89106630249023,28.9988447277832Q37.97986630249024,28.217354727783203,36.301066302490234,25.666594727783203Q34.688266302490234,23.216024727783203,33.870466302490236,22.4951747277832Q33.317766302490234,22.007984727783203,32.863566302490234,21.925774727783203Q32.42316630249023,21.846054727783205,31.943766302490232,22.165644727783203Q25.983956302490235,26.1388447277832,22.520636302490235,29.107404727783205L21.479366302490234,27.892594727783205Q25.016026302490236,24.861164727783205,31.056246302490234,20.834364727783203Q32.963566302490236,19.562828727783202,34.928466302490236,21.294924727783204Q35.90696630249023,22.157444727783204,37.637566302490235,24.786964727783204Q39.192566302490235,27.149554727783205,39.93266630249023,27.7843947277832Q40.397366302490234,28.182994727783203,40.74446630249024,28.213994727783202Q41.07796630249024,28.2437847277832,41.473166302490235,27.897934727783202Q45.45316630249023,24.415494727783205,50.43426630249023,19.434314727783203L51.565666302490236,20.565684727783204Z" fill-rule="evenodd" fill="#FFFFFF" fill-opacity="1"/></g><g clip-path="url(#master_svg0_4984_03176)"><g filter="url(#master_svg1_4984_03178)"><path d="M69.52080000000001,55.3542Q69.52080000000001,55.7019,69.5038,56.0493Q69.4867,56.3966,69.4526,56.7427Q69.4185,57.0888,69.3675,57.4328Q69.3165,57.7769,69.2486,58.1179Q69.1808,58.459,69.0963,58.7964Q69.0118,59.133700000000005,68.9108,59.466499999999996Q68.8099,59.7993,68.6927,60.1268Q68.5755,60.4542,68.4425,60.7755Q68.3094,61.0968,68.16069999999999,61.4112Q68.012,61.7256,67.848,62.0323Q67.6841,62.339,67.5053,62.637299999999996Q67.3265,62.9356,67.13329999999999,63.2247Q66.9401,63.5139,66.7329,63.7932Q66.5258,64.0726,66.3051,64.3414Q66.08449999999999,64.61019999999999,65.851,64.86789999999999Q65.6174,65.12559999999999,65.3715,65.3715Q65.12559999999999,65.6174,64.86789999999999,65.851Q64.61019999999999,66.08449999999999,64.3414,66.3051Q64.0726,66.5258,63.7932,66.7329Q63.5139,66.9401,63.2247,67.13329999999999Q62.9356,67.3265,62.637299999999996,67.5053Q62.339,67.6841,62.0323,67.848Q61.7256,68.012,61.4112,68.16069999999999Q61.0968,68.3094,60.7755,68.4425Q60.4542,68.5755,60.1268,68.6927Q59.7993,68.8099,59.466499999999996,68.9108Q59.133700000000005,69.0118,58.7964,69.0963Q58.459,69.1808,58.1179,69.2486Q57.7769,69.3165,57.4328,69.3675Q57.0888,69.4185,56.7427,69.4526Q56.3966,69.4867,56.0493,69.5038Q55.7019,69.52080000000001,55.3542,69.52080000000001Q55.0064,69.52080000000001,54.659,69.5038Q54.3117,69.4867,53.9656,69.4526Q53.6195,69.4185,53.2755,69.3675Q52.9315,69.3165,52.5904,69.2486Q52.2493,69.1808,51.9119,69.0963Q51.574600000000004,69.0118,51.2418,68.9108Q50.909,68.8099,50.581559999999996,68.6927Q50.25412,68.5755,49.93282,68.4425Q49.61152,68.3094,49.29714,68.16069999999999Q48.98275,68.012,48.676050000000004,67.848Q48.36934,67.6841,48.071039999999996,67.5053Q47.77275,67.3265,47.48359,67.13329999999999Q47.19443,66.9401,46.91509,66.7329Q46.63576,66.5258,46.366929999999996,66.3051Q46.0981,66.08449999999999,45.84042,65.851Q45.58273,65.6174,45.33682,65.3715Q45.09091,65.12559999999999,44.85736,64.86789999999999Q44.62381,64.61019999999999,44.40319,64.3414Q44.18256,64.0726,43.97539,63.7932Q43.76823,63.5139,43.57501,63.2247Q43.3818,62.9356,43.20301,62.637299999999996Q43.02422,62.339,42.86028,62.0323Q42.69634,61.7256,42.54765,61.4112Q42.39896,61.0968,42.26587,60.7755Q42.132787,60.4542,42.015626,60.1268Q41.898465,59.7993,41.797512,59.466499999999996Q41.696559,59.133700000000005,41.612057,58.7964Q41.527555,58.459,41.459709,58.1179Q41.391862,57.7769,41.340833,57.4328Q41.289804,57.0888,41.2557164,56.7427Q41.2216287,56.3966,41.2045644,56.0493Q41.1875,55.7019,41.1875,55.3542Q41.1875,55.0064,41.2045644,54.659Q41.2216287,54.3117,41.2557164,53.9656Q41.289804,53.6195,41.340833,53.2755Q41.391862,52.9315,41.459709,52.5904Q41.527555,52.2493,41.612057,51.9119Q41.696559,51.574600000000004,41.797512,51.2418Q41.898465,50.909,42.015626,50.581559999999996Q42.132787,50.25412,42.26587,49.93282Q42.39896,49.61152,42.54765,49.29714Q42.69634,48.98275,42.86028,48.676050000000004Q43.02422,48.36934,43.20301,48.071039999999996Q43.3818,47.77275,43.57501,47.48359Q43.76823,47.19443,43.97539,46.91509Q44.18256,46.63576,44.40319,46.366929999999996Q44.62381,46.0981,44.85736,45.84042Q45.09091,45.58273,45.33682,45.33682Q45.58273,45.09091,45.84042,44.85736Q46.0981,44.62381,46.366929999999996,44.40319Q46.63576,44.18256,46.91509,43.97539Q47.19443,43.76823,47.48359,43.57501Q47.77275,43.3818,48.071039999999996,43.20301Q48.36934,43.02422,48.676050000000004,42.86028Q48.98275,42.69634,49.29714,42.54765Q49.61152,42.39896,49.93282,42.26587Q50.25412,42.132787,50.581559999999996,42.015626Q50.909,41.898465,51.2418,41.797512Q51.574600000000004,41.696559,51.9119,41.612057Q52.2493,41.527555,52.5904,41.459709Q52.9315,41.391862,53.2755,41.340833Q53.6195,41.289804,53.9656,41.2557164Q54.3117,41.2216287,54.659,41.2045644Q55.0064,41.1875,55.3542,41.1875Q55.7019,41.1875,56.0493,41.2045644Q56.3966,41.2216287,56.7427,41.2557164Q57.0888,41.289804,57.4328,41.340833Q57.7769,41.391862,58.1179,41.459709Q58.459,41.527555,58.7964,41.612057Q59.133700000000005,41.696559,59.466499999999996,41.797512Q59.7993,41.898465,60.1268,42.015626Q60.4542,42.132787,60.7755,42.26587Q61.0968,42.39896,61.4112,42.54765Q61.7256,42.69634,62.0323,42.86028Q62.339,43.02422,62.637299999999996,43.20301Q62.9356,43.3818,63.2247,43.57501Q63.5139,43.76823,63.7932,43.97539Q64.0726,44.18256,64.3414,44.40319Q64.61019999999999,44.62381,64.86789999999999,44.85736Q65.12559999999999,45.09091,65.3715,45.33682Q65.6174,45.58273,65.851,45.84042Q66.08449999999999,46.0981,66.3051,46.366929999999996Q66.5258,46.63576,66.7329,46.91509Q66.9401,47.19443,67.13329999999999,47.48359Q67.3265,47.77275,67.5053,48.071039999999996Q67.6841,48.36934,67.848,48.676050000000004Q68.012,48.98275,68.16069999999999,49.29714Q68.3094,49.61152,68.4425,49.93282Q68.5755,50.25412,68.6927,50.581559999999996Q68.8099,50.909,68.9108,51.2418Q69.0118,51.574600000000004,69.0963,51.9119Q69.1808,52.2493,69.2486,52.5904Q69.3165,52.9315,69.3675,53.2755Q69.4185,53.6195,69.4526,53.9656Q69.4867,54.3117,69.5038,54.659Q69.52080000000001,55.0064,69.52080000000001,55.3542Z" fill="url(#master_svg2_4984_03180)" fill-opacity="1"/></g><g><path d="M57.05444,61.1623C57.05444,62.0229,56.35662,62.7208,55.49597,62.7208C54.635328,62.7208,53.9375,62.0229,53.9375,61.1623C53.9375,60.3016,54.635328,59.6043,55.49597,59.6043C56.35662,59.6043,57.05444,60.3016,57.05444,61.1623ZM56.77118,56.77066L56.91298,48.97917C56.91298,48.196763,56.27872,47.5625,55.49632,47.5625C54.713914,47.5625,54.079651,48.196763,54.079651,48.97917L54.221802,56.77066C54.221802,57.47482,54.791809,58.0459,55.49597,58.0459C56.20014,58.0459,56.77118,57.47482,56.77118,56.77066Z" fill="#FFFFFF" fill-opacity="1"/></g></g></g></svg>