<svg xmlns="http://www.w3.org/2000/svg" xmlns:xlink="http://www.w3.org/1999/xlink" fill="none" version="1.1" width="16" height="16" viewBox="0 0 16 16"><defs><clipPath id="master_svg0_1110_01118"><rect x="0" y="0" width="16" height="16" rx="0"/></clipPath></defs><g clip-path="url(#master_svg0_1110_01118)"><g transform="matrix(1,0,0,-1,0,29.3333740234375)"><path d="M8.00016609375,27.99998701171875Q8.16381609375,27.99998701171875,8.327276093750001,27.99198701171875Q8.490746093750001,27.98398701171875,8.65360609375,27.96788701171875Q8.816476093750001,27.95188701171875,8.978366093750001,27.927887011718752Q9.14025609375,27.90388701171875,9.30076609375,27.871887011718748Q9.46127609375,27.839987011718748,9.62002609375,27.800187011718748Q9.77878609375,27.76048701171875,9.93539609375,27.712987011718752Q10.09200609375,27.66548701171875,10.24609609375,27.61028701171875Q10.40018609375,27.55518701171875,10.55138609375,27.49258701171875Q10.70258609375,27.429887011718748,10.85052609375,27.35998701171875Q10.99847609375,27.28998701171875,11.14280609375,27.21278701171875Q11.28713609375,27.13568701171875,11.42749609375,27.051587011718752Q11.56789609375,26.96738701171875,11.70399609375,26.87648701171875Q11.83999609375,26.78558701171875,11.97149609375,26.68808701171875Q12.10289609375,26.59058701171875,12.22949609375,26.48678701171875Q12.35599609375,26.38288701171875,12.47719609375,26.272987011718747Q12.59849609375,26.16308701171875,12.71419609375,26.047387011718747Q12.82989609375,25.93168701171875,12.93979609375,25.810387011718753Q13.04969609375,25.68918701171875,13.15359609375,25.56268701171875Q13.25739609375,25.436087011718747,13.35489609375,25.304687011718748Q13.45239609375,25.173187011718753,13.54329609375,25.03718701171875Q13.63419609375,24.90108701171875,13.71839609375,24.76068701171875Q13.80249609375,24.62032701171875,13.87959609375,24.47599701171875Q13.95679609375,24.33166701171875,14.02679609375,24.18371701171875Q14.09669609375,24.03577701171875,14.15939609375,23.88457701171875Q14.22199609375,23.73337701171875,14.27709609375,23.579287011718748Q14.33229609375,23.42519701171875,14.37979609375,23.26858701171875Q14.42729609375,23.11197701171875,14.46699609375,22.95321701171875Q14.50679609375,22.79446701171875,14.53869609375,22.63395701171875Q14.57069609375,22.47344701171875,14.59469609375,22.31155701171875Q14.61869609375,22.14966701171875,14.63469609375,21.98680701171875Q14.65079609375,21.82393701171875,14.65879609375,21.66047701171875Q14.66679609375,21.49700701171875,14.66679609375,21.33335701171875Q14.66679609375,21.16969701171875,14.65879609375,21.00623701171875Q14.65079609375,20.842777011718752,14.63469609375,20.67990701171875Q14.61869609375,20.51703701171875,14.59469609375,20.35514701171875Q14.57069609375,20.19326701171875,14.53869609375,20.03274701171875Q14.50679609375,19.87223701171875,14.46699609375,19.71348701171875Q14.42729609375,19.55473701171875,14.37979609375,19.39812701171875Q14.33229609375,19.24151701171875,14.27709609375,19.08741701171875Q14.22199609375,18.93332701171875,14.15939609375,18.78212701171875Q14.09669609375,18.63092701171875,14.02679609375,18.48298701171875Q13.95679609375,18.33503701171875,13.87959609375,18.19070701171875Q13.80249609375,18.04637701171875,13.71839609375,17.90599701171875Q13.63419609375,17.76562701171875,13.54329609375,17.62954701171875Q13.45239609375,17.49347701171875,13.35489609375,17.36202701171875Q13.25739609375,17.23057701171875,13.15359609375,17.10406701171875Q13.04969609375,16.97755701171875,12.93979609375,16.856297011718752Q12.82989609375,16.73502701171875,12.71419609375,16.61930701171875Q12.59849609375,16.50358701171875,12.47719609375,16.39367701171875Q12.35599609375,16.28377701171875,12.22949609375,16.17994701171875Q12.10289609375,16.07612701171875,11.97149609375,15.97863701171875Q11.83999609375,15.88114701171875,11.70399609375,15.79022701171875Q11.56789609375,15.69929701171875,11.42749609375,15.61516301171875Q11.28713609375,15.53102601171875,11.14280609375,15.45387901171875Q10.99847609375,15.37673101171875,10.85052609375,15.30675801171875Q10.70258609375,15.23678601171875,10.55138609375,15.17415701171875Q10.40018609375,15.11152801171875,10.24609609375,15.05639301171875Q10.09200609375,15.00125901171875,9.93539609375,14.95375101171875Q9.77878609375,14.90624401171875,9.62002609375,14.86647901171875Q9.46127609375,14.82671301171875,9.30076609375,14.79478501171875Q9.14025609375,14.76285711171875,8.978366093750001,14.73884361171875Q8.816476093750001,14.71483011171875,8.65361609375,14.69878881171875Q8.490746093750001,14.68274761171875,8.32728609375,14.67471730171875Q8.16381609375,14.66668701171875,8.00016609375,14.66668701171875Q7.83650609375,14.66668701171875,7.67304609375,14.67471730171875Q7.50958609375,14.68274761171875,7.34671609375,14.69878881171875Q7.18384609375,14.71483011171875,7.02195609375,14.73884361171875Q6.86007609375,14.76285711171875,6.69955609375,14.79478501171875Q6.53904609375,14.82671301171875,6.38029609375,14.86647901171875Q6.22154609375,14.90624401171875,6.06493609375,14.95375101171875Q5.90832609375,15.00125901171875,5.75422609375,15.05639301171875Q5.60013609375,15.11152801171875,5.44893609375,15.17415701171875Q5.29773609375,15.23678601171875,5.14979609375,15.30675801171875Q5.00184609375,15.37673101171875,4.85751609375,15.45387901171875Q4.71318609375,15.53102601171875,4.57280609375,15.61516301171875Q4.43243609375,15.69929701171875,4.29635609375,15.79022701171875Q4.16028609375,15.88114701171875,4.02883609375,15.97863701171875Q3.89738609375,16.07612701171875,3.77087609375,16.17994701171875Q3.64436609375,16.28377701171875,3.52310609375,16.39367701171875Q3.40183609375,16.50358701171875,3.28611609375,16.61930701171875Q3.17039609375,16.73502701171875,3.06048609375,16.856297011718752Q2.95058609375,16.97755701171875,2.84675609375,17.10406701171875Q2.74293609375,17.23057701171875,2.64544609375,17.36202701171875Q2.54795609375,17.49347701171875,2.45703609375,17.62954701171875Q2.36610609375,17.76562701171875,2.28197209375,17.90599701171875Q2.19783509375,18.04637701171875,2.12068809375,18.19070701171875Q2.04354009375,18.33503701171875,1.9735670937499998,18.48298701171875Q1.90359509375,18.63092701171875,1.84096609375,18.78212701171875Q1.77833709375,18.93332701171875,1.7232020937499999,19.08741701171875Q1.66806809375,19.24151701171875,1.62056009375,19.39812701171875Q1.57305309375,19.55473701171875,1.53328809375,19.71348701171875Q1.49352209375,19.87223701171875,1.46159409375,20.03274701171875Q1.42966619375,20.19326701171875,1.40565269375,20.35514701171875Q1.38163919375,20.51703701171875,1.36559789375,20.67990701171875Q1.34955669375,20.842777011718752,1.34152638375,21.00623701171875Q1.33349609375,21.16969701171875,1.33349609375,21.33335701171875Q1.33349609375,21.49700701171875,1.34152638375,21.66046701171875Q1.34955669375,21.82393701171875,1.36559789375,21.98679701171875Q1.38163919375,22.14966701171875,1.40565269375,22.31155701171875Q1.42966619375,22.47344701171875,1.46159409375,22.63395701171875Q1.49352209375,22.79446701171875,1.53328809375,22.95321701171875Q1.57305309375,23.11197701171875,1.62056009375,23.26858701171875Q1.66806809375,23.42519701171875,1.7232020937499999,23.579287011718748Q1.77833709375,23.73337701171875,1.84096609375,23.88457701171875Q1.90359509375,24.03577701171875,1.9735670937499998,24.18371701171875Q2.04354009375,24.33166701171875,2.12068809375,24.47599701171875Q2.19783509375,24.62032701171875,2.28197209375,24.76068701171875Q2.36610609375,24.90108701171875,2.45703609375,25.03718701171875Q2.54795609375,25.173187011718753,2.64544609375,25.304687011718748Q2.74293609375,25.436087011718747,2.84675609375,25.56268701171875Q2.95058609375,25.68918701171875,3.06048609375,25.810387011718753Q3.17039609375,25.93168701171875,3.28611609375,26.047387011718747Q3.40183609375,26.16308701171875,3.52310609375,26.272987011718747Q3.64436609375,26.38288701171875,3.77087609375,26.48678701171875Q3.89738609375,26.59058701171875,4.02883609375,26.68808701171875Q4.16028609375,26.78558701171875,4.29635609375,26.87648701171875Q4.43243609375,26.96738701171875,4.57280609375,27.051587011718752Q4.71318609375,27.13568701171875,4.85751609375,27.21278701171875Q5.00184609375,27.28998701171875,5.14979609375,27.35998701171875Q5.29773609375,27.429887011718748,5.44893609375,27.49258701171875Q5.60013609375,27.55518701171875,5.75422609375,27.61028701171875Q5.90832609375,27.66548701171875,6.06493609375,27.712987011718752Q6.22154609375,27.76048701171875,6.38029609375,27.800187011718748Q6.53904609375,27.839987011718748,6.69955609375,27.871887011718748Q6.86007609375,27.90388701171875,7.02195609375,27.927887011718752Q7.18384609375,27.95188701171875,7.34671609375,27.96788701171875Q7.50958609375,27.98398701171875,7.67304609375,27.99198701171875Q7.83650609375,27.99998701171875,8.00016609375,27.99998701171875ZM8.665856093750001,17.932967011718752L8.59911609375,21.81835701171875C8.59912609375,22.14972701171875,8.33039609375,22.41839701171875,7.99902609375,22.41839701171875C7.66765609375,22.41839701171875,7.39941609375,22.14972701171875,7.39941609375,21.81835701171875L7.33251609375,17.932967011718752C7.33251609375,17.56477701171875,7.63099609375,17.26629701171875,7.99918609375,17.26629701171875C8.36737609375,17.26629701171875,8.665856093750001,17.56477701171875,8.665856093750001,17.932967011718752ZM7.99912609375,25.12878701171875C8.49617609375,25.12878701171875,8.899126093749999,24.72588701171875,8.899126093749999,24.22879701171875C8.899126093749999,23.73173701171875,8.49617609375,23.32879701171875,7.99912609375,23.32879701171875C7.50206609375,23.32879701171875,7.09911609375,23.73173701171875,7.09911609375,24.22879701171875C7.09911609375,24.72588701171875,7.50206609375,25.12878701171875,7.99912609375,25.12878701171875Z" fill-rule="evenodd" fill="#000000" fill-opacity="0.6499999761581421"/></g></g></svg>