<svg xmlns="http://www.w3.org/2000/svg" xmlns:xlink="http://www.w3.org/1999/xlink" fill="none" version="1.1" width="16" height="16" viewBox="0 0 16 16"><g><g><path d="M11.4733125,2.972004Q9.7013025,1.2,7.1953125,1.2Q4.689322499999999,1.2,2.9173165,2.972004Q1.1453125,4.744009999999999,1.1453125,7.25Q1.1453125,9.75599,2.9173165,11.528Q4.689322499999999,13.3,7.1953125,13.3Q9.3638725,13.3,10.9828025,11.97306Q11.0437625,12.1219,11.1575225,12.2357L11.1580825,12.2362L13.4895125,14.5671L13.4900125,14.5677Q13.6025125,14.6802,13.7495125,14.7411Q13.8965125,14.802,14.0557125,14.802L14.0557125,14.802Q14.2149125,14.8019,14.3619125,14.741Q14.5089125,14.6801,14.6214125,14.5676Q14.7339125,14.4551,14.7948125,14.3081Q14.8557125,14.1611,14.8557125,14.002L14.8557125,14.0019Q14.8556125,13.8427,14.7947125,13.6957Q14.7338125,13.5487,14.6213125,13.4362L14.6207125,13.4356L12.2893125,11.10474L12.2888125,11.10418Q12.1686125,10.98402,12.0099125,10.9231Q13.2453125,9.342410000000001,13.2453125,7.25Q13.2453125,4.744009999999999,11.4733125,2.972004ZM4.0486825,4.10337Q5.352062500000001,2.8,7.1953125,2.8Q9.038562500000001,2.8,10.3419425,4.10337Q11.6453125,5.406750000000001,11.6453125,7.25Q11.6453125,9.093250000000001,10.3419425,10.39663Q9.038562500000001,11.7,7.1953125,11.7Q5.352062500000001,11.7,4.0486825,10.39663Q2.7453125,9.093250000000001,2.7453125,7.25Q2.7453125,5.406750000000001,4.0486825,4.10337Z" fill-rule="evenodd" fill="#333333" fill-opacity="1"/></g></g></svg>