<svg xmlns="http://www.w3.org/2000/svg" xmlns:xlink="http://www.w3.org/1999/xlink" fill="none" version="1.1" width="35" height="40" viewBox="0 0 35 40"><g><g><path d="M0,2.5L0,37.5C0,38.8807,1.11929,40,2.5,40L32.5,40C33.8807,40,35,38.8807,35,37.5L35,12L29,6L23,0L2.5,0C1.11929,0,0,1.11929,0,2.5Z" fill="#F0C52E" fill-opacity="1"/></g><g><path d="M6.240234375,23.716796875L6.240234375,24.833986875L9.107424375,24.833986875L9.107424375,32.283206875L10.404294375,32.283206875L10.404294375,24.833986875L13.259764375,24.833986875L13.259764375,23.716796875L6.240234375,23.716796875ZM13.822264375,23.716796875L16.701134375000002,27.857416875L13.619144375000001,32.283206875L15.212894375,32.283206875L17.505834375,28.888676875L19.798834375,32.283206875L21.396434375,32.283206875L18.287134375,27.857416875L21.189434374999998,23.716796875L19.595734375,23.716796875L17.505834375,26.814456875L15.419924375,23.716796875L13.822264375,23.716796875ZM21.740234375,23.716796875L21.740234375,24.833986875L24.607434375,24.833986875L24.607434375,32.283206875L25.904334375,32.283206875L25.904334375,24.833986875L28.759734375,24.833986875L28.759734375,23.716796875L21.740234375,23.716796875Z" fill="#FFFFFF" fill-opacity="1"/></g><g><path d="M23,9.5C23,10.8807,24.11929,12,25.5,12L35,12L23,0L23,9.5Z" fill="#FFFFFF" fill-opacity="0.25"/></g></g></svg>