<svg xmlns="http://www.w3.org/2000/svg" xmlns:xlink="http://www.w3.org/1999/xlink" fill="none" version="1.1" width="16" height="16" viewBox="0 0 16 16"><defs><clipPath id="master_svg0_9220_09598/9220_09456"><rect x="0" y="0" width="16" height="16" rx="0"/></clipPath></defs><g clip-path="url(#master_svg0_9220_09598/9220_09456)"><g><path d="M5.352995,5.114478046875L1.3214350000000001,5.474338046875Q0.564426,5.541908046875,0.329833,6.264818046875Q0.09523999999999999,6.987728046875,0.668322,7.486928046875L3.721695,10.146678046875L2.816455,14.093698046875Q2.646525,14.834698046875,3.261675,15.281398046875Q3.876825,15.727998046875,4.528795,15.337098046875L7.996615,13.257498046875L11.472325,15.338398046875Q12.124325,15.728798046875,12.739025,15.281998046875Q13.353825,14.835298046875,13.183925,14.094598046875L12.278425,10.146688046875L15.331825,7.486928046875Q15.904925,6.987728046875,15.670325,6.264818046875Q15.435725,5.541908046875,14.678725,5.474338046875L10.646525,5.114418046875L9.054385,1.390081046875Q8.755805,0.691638046875,7.996225,0.6921240468750001Q7.236635,0.692609046875,6.938955,1.3914320468749999L5.352995,5.114478046875ZM5.695105,6.589908046875Q6.381005,6.528688046875,6.650875,5.895148046875L7.997525,2.733858046875L9.349525,5.896478046875Q9.619805,6.528738046875,10.304705,6.589878046875L13.727225,6.895378046875L11.135125,9.153368046875Q10.615525,9.605968046875,10.769525,10.277588046875L11.538325,13.629698046875L8.587205,11.862798046875Q7.995995,11.508798046875,7.405035,11.863198046875L4.462225,13.627998046875L5.230615,10.277588046875Q5.384645,9.605968046875,4.865075,9.153368046875L2.2729150000000002,6.895378046875L5.695105,6.589908046875Z" fill-rule="evenodd" fill="#333333" fill-opacity="1"/></g></g></svg>