<svg xmlns="http://www.w3.org/2000/svg" xmlns:xlink="http://www.w3.org/1999/xlink" fill="none" version="1.1" width="35" height="40" viewBox="0 0 35 40"><defs><clipPath id="master_svg0_109_6723"><rect x="7" y="14" width="21" height="21" rx="0"/></clipPath></defs><g><g><path d="M0,2.5L0,37.5C0,38.8807,1.11929,40,2.5,40L32.5,40C33.8807,40,35,38.8807,35,37.5L35,12L29,6L23,0L2.5,0C1.11929,0,0,1.11929,0,2.5Z" fill="#B3B4B4" fill-opacity="1"/></g><g><path d="M23,9.5C23,10.8807,24.11929,12,25.5,12L35,12L23,0L23,9.5Z" fill="#FFFFFF" fill-opacity="0.25"/></g><g clip-path="url(#master_svg0_109_6723)"><g><path d="M17.46102234375,25.8428316015625Q16.75835234375,27.116391601562498,16.71279234375,28.570291601562502L16.71240234375,28.594991601562498C16.71240234375,28.634791601562497,16.71542234375,28.6745916015625,16.72144234375,28.7138916015625C16.77879234375,29.0891916015625,17.09576234375,29.3701916015625,17.47523234375,29.3820916015625L17.49990234375,29.3824916015625L17.51307234375,29.3823916015625C17.70882234375,29.3790916015625,17.89633234375,29.3029916015625,18.03903234375,29.1689916015625C18.19127234375,29.025991601562502,18.28047234375,28.8283916015625,18.28701234375,28.619591601562497Q18.35852234375,26.3380016015625,20.25051234375,25.0607816015625L20.27190234375,25.0458316015625Q21.311942343749998,24.2923916015625,21.82195234375,23.1409316015625Q22.30381234375,22.053031601562502,22.21073234375,20.8537516015625Q22.117652343750002,19.6544716015625,21.473692343750002,18.6539516015625Q20.792122343750002,17.594981601562502,19.64827234375,17.0110486015625Q18.50443234375,16.4271141015625,17.24698234375,16.4962002615625Q16.05893234375,16.5614738015625,15.03300234375,17.1894926015625Q14.00708234375,17.8175116015625,13.40858534375,18.8458716015625Q12.77512295575,19.9343016015625,12.77490234375,21.218571601562502L12.77580481775,21.2564016015625C12.78517564375,21.4519516015625,12.86704984375,21.6370016015625,13.00546034375,21.7754616015625C13.15311934375,21.9231716015625,13.35340934375,22.0061716015625,13.56240234375,22.006211601562498C13.61042334375,22.006211601562498,13.65834434375,22.0018216015625,13.70556534375,21.9930916015625C14.07890234375,21.9240716015625,14.34984234375,21.5985016015625,14.34990234375,21.2188516015625Q14.35020234375,19.4541416015625,15.855302343750001,18.5327916015625Q17.36040234375,17.6114416015625,18.93215234375,18.4138316015625Q20.50389234375,19.2162116015625,20.64045234375,20.9756316015625Q20.776552343749998,22.7290116015625,19.35769234375,23.7632316015625Q18.16031234375,24.5753716015625,17.46102234375,25.8428316015625ZM17.50012234375,32.3880916015625C18.08002234375,32.3880916015625,18.55012234375,31.9179916015625,18.55012234375,31.3380916015625C18.55012234375,30.7581916015625,18.08002234375,30.2880916015625,17.50012234375,30.2880916015625C16.92023234375,30.2880916015625,16.45012234375,30.7581916015625,16.45012234375,31.3380916015625C16.45012234375,31.9179916015625,16.92023234375,32.3880916015625,17.50012234375,32.3880916015625Z" fill-rule="evenodd" fill="#E7E8E8" fill-opacity="1"/></g></g></g></svg>