<svg xmlns="http://www.w3.org/2000/svg" xmlns:xlink="http://www.w3.org/1999/xlink" fill="none" version="1.1" width="24" height="24" viewBox="0 0 24 24"><defs><clipPath id="master_svg0_7394_12899"><rect x="0" y="0" width="24" height="24" rx="0"/></clipPath></defs><g clip-path="url(#master_svg0_7394_12899)"><g><path d="M10.943524768371582,2.3459801476287843L7.113524768371581,6.775985147628784L8.626474768371583,8.084015147628783L10.999984768371583,5.338685147628784L10.999984768371583,14.949975147628784L12.999984768371583,14.949975147628784L12.999984768371583,5.338595147628784L15.373504768371582,8.084015147628783L16.88650476837158,6.775985147628784L13.050004768371583,2.338563147628784Q12.631984768371582,1.8645751476287842,12.000004768371582,1.8645751476287842Q11.368014768371582,1.8645751476287842,10.943524768371582,2.3459801476287843ZM5.000004768371582,16.079875147628783L5.000004768371582,12.079905147628784L3.000004768371582,12.079905147628784L3.000004768371582,16.079875147628783Q3.000004768371582,17.736775147628784,4.1715777683715825,18.908375147628785Q5.343144768371582,20.079875147628783,7.000004768371582,20.079875147628783L17.000004768371582,20.079875147628783Q18.656904768371582,20.079875147628783,19.828404768371584,18.908375147628785Q21.000004768371582,17.736775147628784,21.000004768371582,16.079875147628783L21.000004768371582,12.079905147628784L19.000004768371582,12.079905147628784L19.000004768371582,16.079875147628783Q19.000004768371582,16.90837514762878,18.414204768371583,17.494075147628784Q17.828404768371584,18.079875147628783,17.000004768371582,18.079875147628783L7.000004768371582,18.079875147628783Q6.171574768371582,18.079875147628783,5.585794768371582,17.494075147628784Q5.000004768371582,16.90837514762878,5.000004768371582,16.079875147628783Z" fill-rule="evenodd" fill="#1D74F5" fill-opacity="1"/></g></g></svg>