<svg xmlns="http://www.w3.org/2000/svg" xmlns:xlink="http://www.w3.org/1999/xlink" fill="none" version="1.1" width="16" height="16" viewBox="0 0 16 16"><g><g><path d="M10.26390234375,9.280027656249999C12.38150234375,9.26678765625,14.088682343750001,7.54174765625,14.07987234375,5.4241276562500005C14.07106234375,3.30649765625,12.34959234375,1.59572295625,10.23195234375,1.60010719299C8.11427234375,1.60453262625,6.39990234375,3.32242765625,6.39990234375,5.44002765625C6.39986190795,7.57020765625,8.13376234375,9.29333765625,10.26390234375,9.280027656249999Z" fill="#FFFFFF" fill-opacity="1"/></g><g><path d="M15.3279828125,13.31199951171875C15.0959928125,11.27999951171875,14.0159928125,10.11199951171875,10.2639928125,10.11199951171875C6.5119928125,10.11199951171875,5.4639938125,11.25599951171875,5.1999938925,13.31199951171875C5.1282158125,13.88634951171875,5.5731948125,14.39489951171875,6.1519938125,14.39999951171875L14.3999928125,14.39999951171875C14.9691428125,14.38089951171875,15.3988828125,13.87702951171875,15.3279828125,13.31199951171875Z" fill="#FFFFFF" fill-opacity="1"/></g><g><path d="M4.66376421875,9.0080126171875C5.2822742187500005,9.018312617187501,5.88876421875,8.8366426171875,6.39976421875,8.4880126171875C5.1972042187500005,6.9850826171875,4.98152421875,4.9189026171875,5.84776421875,3.2000156171875C5.47268421875,3.0430435171875,5.0703542187499995,2.9614910171875,4.66376421875,2.9600151071875C2.9303642187500003,2.8708912171875,1.47607421875,4.2523326171875,1.47607421875,5.9880126171875006C1.47607421875,7.7237026171875,2.9303642187500003,9.1051426171875,4.66376421875,9.0160126171875L4.66376421875,9.0080126171875Z" fill="#FFFFFF" fill-opacity="1"/></g><g><path d="M6.21571109375,9.79199046484375C5.70224109375,9.71293256484375,5.18322109375,9.67547683484375,4.66371109375,9.67999038684375C1.70371109375,9.67999038684375,0.84771309375,10.58399046484375,0.66371307375,12.191986464843751C0.63173699375,12.63712646484375,0.97016309375,13.02235646484375,1.41571309375,13.04798646484375L4.111711093749999,13.04798646484375C4.20512109375,11.67260646484375,5.00017109375,10.44225346484375,6.21571109375,9.79199046484375Z" fill="#FFFFFF" fill-opacity="1"/></g></g></svg>