<svg xmlns="http://www.w3.org/2000/svg" xmlns:xlink="http://www.w3.org/1999/xlink" fill="none" version="1.1" width="24" height="24" viewBox="0 0 24 24"><defs><clipPath id="master_svg0_3244_1508"><rect x="0" y="0" width="24" height="24" rx="0"/></clipPath></defs><g clip-path="url(#master_svg0_3244_1508)"><g><path d="M12.309035,12L6.415115,5.49636Q6.365511,5.441625,6.306182,5.397618Q6.246852,5.353612,6.180077,5.322025Q6.113303,5.290439,6.041649,5.272486Q5.969995,5.254534,5.8962157,5.250905Q5.8224364,5.247277,5.749367,5.258112Q5.676297,5.268947,5.606745,5.293829Q5.537194,5.31871,5.473832,5.356683Q5.410471,5.394656,5.355735,5.44426Q5.301,5.493864,5.256993,5.553193Q5.212987,5.612523,5.1814,5.679298Q5.149814,5.746072,5.131861,5.817726Q5.113909,5.88938,5.11028,5.9631593Q5.106652,6.0369386,5.117487,6.110008Q5.128322,6.183078,5.153204,6.25263Q5.178085,6.322181,5.216058,6.385543Q5.254031,6.448904,5.303635,6.50364L10.284715,12L5.303635,17.4964Q5.203455,17.6069,5.1532029999999995,17.7474Q5.102952,17.8878,5.11028,18.0368Q5.117608,18.1858,5.1814,18.320700000000002Q5.245192,18.4556,5.355735,18.5557Q5.410471,18.6053,5.473832,18.6433Q5.537194,18.6813,5.606745,18.706200000000003Q5.676297,18.731099999999998,5.749367,18.7419Q5.8224364,18.7527,5.8962157,18.7491Q5.969995,18.7455,6.041649,18.7275Q6.113303,18.709600000000002,6.180077,18.678Q6.246852,18.6464,6.306182,18.6024Q6.365511,18.5584,6.415115,18.5036L12.309035,12ZM19.152775,12L13.258865,5.49636Q13.209265,5.441625,13.149935,5.397618Q13.090605,5.353612,13.023825,5.322025Q12.957055,5.290439,12.885394999999999,5.272486Q12.813745,5.254534,12.739965,5.250905Q12.666184999999999,5.247277,12.593115000000001,5.258112Q12.520045,5.268947,12.450495,5.293829Q12.380945,5.31871,12.317585000000001,5.356683Q12.254225,5.394656,12.199485,5.44426Q12.088944999999999,5.54444,12.025145,5.679298Q11.961355000000001,5.814155,11.954025,5.9631593Q11.946705,6.112163,11.996955,6.25263Q12.047205,6.393096,12.147385,6.50364L17.128475,12L12.147385,17.4964Q12.047205,17.6069,11.996955,17.7474Q11.946705,17.8878,11.954035000000001,18.0368Q11.961355000000001,18.1858,12.025145,18.320700000000002Q12.088944999999999,18.4556,12.199485,18.5557Q12.254225,18.6053,12.317585000000001,18.6433Q12.380945,18.6813,12.450495,18.706200000000003Q12.520045,18.731099999999998,12.593115000000001,18.7419Q12.666184999999999,18.7527,12.739965,18.7491Q12.813745,18.7455,12.885394999999999,18.7275Q12.957055,18.709600000000002,13.023825,18.678Q13.090605,18.6464,13.149935,18.6024Q13.209265,18.5584,13.258865,18.5036L19.152775,12Z" fill-rule="evenodd" fill="#999999" fill-opacity="1"/></g></g></svg>