<svg xmlns="http://www.w3.org/2000/svg" xmlns:xlink="http://www.w3.org/1999/xlink" fill="none" version="1.1" width="16" height="16" viewBox="0 0 16 16"><defs><clipPath id="master_svg0_3244_1505"><rect x="0" y="0" width="16" height="16" rx="0"/></clipPath></defs><g clip-path="url(#master_svg0_3244_1505)"><g><path d="M8.00016609375,14.66661298828125Q8.16381609375,14.66661298828125,8.327276093750001,14.65861298828125Q8.490746093750001,14.65061298828125,8.65360609375,14.63451298828125Q8.816476093750001,14.61851298828125,8.978366093750001,14.59451298828125Q9.14025609375,14.57051298828125,9.30076609375,14.53851298828125Q9.46127609375,14.50661298828125,9.62002609375,14.46681298828125Q9.77878609375,14.42711298828125,9.93539609375,14.37961298828125Q10.09200609375,14.33211298828125,10.24609609375,14.27691298828125Q10.40018609375,14.22181298828125,10.55138609375,14.15921298828125Q10.70258609375,14.09651298828125,10.85052609375,14.02661298828125Q10.99847609375,13.95661298828125,11.14280609375,13.87941298828125Q11.28713609375,13.80231298828125,11.42749609375,13.71821298828125Q11.56789609375,13.63401298828125,11.70399609375,13.54311298828125Q11.83999609375,13.45221298828125,11.97149609375,13.35471298828125Q12.10289609375,13.25721298828125,12.22949609375,13.15341298828125Q12.35599609375,13.04951298828125,12.47719609375,12.93961298828125Q12.59849609375,12.82971298828125,12.71419609375,12.71401298828125Q12.82989609375,12.59831298828125,12.93979609375,12.47701298828125Q13.04969609375,12.35581298828125,13.15359609375,12.22931298828125Q13.25739609375,12.10271298828125,13.35489609375,11.97131298828125Q13.45239609375,11.83981298828125,13.54329609375,11.70381298828125Q13.63419609375,11.56771298828125,13.71839609375,11.42731298828125Q13.80249609375,11.28695298828125,13.87959609375,11.14262298828125Q13.95679609375,10.99829298828125,14.02679609375,10.85034298828125Q14.09669609375,10.70240298828125,14.15939609375,10.55120298828125Q14.22199609375,10.40000298828125,14.27709609375,10.24591298828125Q14.33229609375,10.09182298828125,14.37979609375,9.93521298828125Q14.42729609375,9.77860298828125,14.46699609375,9.61984298828125Q14.50679609375,9.46109298828125,14.53869609375,9.30058298828125Q14.57069609375,9.14007298828125,14.59469609375,8.978182988281251Q14.61869609375,8.816292988281251,14.63469609375,8.65343298828125Q14.65079609375,8.490562988281251,14.65879609375,8.32710298828125Q14.66679609375,8.16363298828125,14.66679609375,7.99998298828125Q14.66679609375,7.83632298828125,14.65879609375,7.67286298828125Q14.65079609375,7.50940298828125,14.63469609375,7.34653298828125Q14.61869609375,7.18366298828125,14.59469609375,7.02177298828125Q14.57069609375,6.85989298828125,14.53869609375,6.69937298828125Q14.50679609375,6.53886298828125,14.46699609375,6.38011298828125Q14.42729609375,6.22136298828125,14.37979609375,6.06475298828125Q14.33229609375,5.90814298828125,14.27709609375,5.75404298828125Q14.22199609375,5.59995298828125,14.15939609375,5.44875298828125Q14.09669609375,5.29755298828125,14.02679609375,5.14961298828125Q13.95679609375,5.00166298828125,13.87959609375,4.85733298828125Q13.80249609375,4.71300298828125,13.71839609375,4.57262298828125Q13.63419609375,4.43225298828125,13.54329609375,4.29617298828125Q13.45239609375,4.16010298828125,13.35489609375,4.02865298828125Q13.25739609375,3.89720298828125,13.15359609375,3.77069298828125Q13.04969609375,3.64418298828125,12.93979609375,3.52292298828125Q12.82989609375,3.40165298828125,12.71419609375,3.28593298828125Q12.59849609375,3.17021298828125,12.47719609375,3.06030298828125Q12.35599609375,2.95040298828125,12.22949609375,2.84657298828125Q12.10289609375,2.74275298828125,11.97149609375,2.64526298828125Q11.83999609375,2.54777298828125,11.70399609375,2.45685298828125Q11.56789609375,2.36592298828125,11.42749609375,2.28178898828125Q11.28713609375,2.19765198828125,11.14280609375,2.12050498828125Q10.99847609375,2.04335698828125,10.85052609375,1.9733839882812498Q10.70258609375,1.90341198828125,10.55138609375,1.84078298828125Q10.40018609375,1.77815398828125,10.24609609375,1.7230189882812499Q10.09200609375,1.66788498828125,9.93539609375,1.62037698828125Q9.77878609375,1.57286998828125,9.62002609375,1.53310498828125Q9.46127609375,1.49333898828125,9.30076609375,1.46141098828125Q9.14025609375,1.42948308828125,8.978366093750001,1.40546958828125Q8.816476093750001,1.38145608828125,8.65361609375,1.36541478828125Q8.490746093750001,1.34937358828125,8.32728609375,1.34134327828125Q8.16381609375,1.33331298828125,8.00016609375,1.33331298828125Q7.83650609375,1.33331298828125,7.67304609375,1.34134327828125Q7.50958609375,1.34937358828125,7.34671609375,1.36541478828125Q7.18384609375,1.38145608828125,7.02195609375,1.40546958828125Q6.86007609375,1.42948308828125,6.69955609375,1.46141098828125Q6.53904609375,1.49333898828125,6.38029609375,1.53310498828125Q6.22154609375,1.57286998828125,6.06493609375,1.62037698828125Q5.90832609375,1.66788498828125,5.75422609375,1.7230189882812499Q5.60013609375,1.77815398828125,5.44893609375,1.84078298828125Q5.29773609375,1.90341198828125,5.14979609375,1.9733839882812498Q5.00184609375,2.04335698828125,4.85751609375,2.12050498828125Q4.71318609375,2.19765198828125,4.57280609375,2.28178898828125Q4.43243609375,2.36592298828125,4.29635609375,2.45685298828125Q4.16028609375,2.54777298828125,4.02883609375,2.64526298828125Q3.89738609375,2.74275298828125,3.77087609375,2.84657298828125Q3.64436609375,2.95040298828125,3.52310609375,3.06030298828125Q3.40183609375,3.17021298828125,3.28611609375,3.28593298828125Q3.17039609375,3.40165298828125,3.06048609375,3.52292298828125Q2.95058609375,3.64418298828125,2.84675609375,3.77069298828125Q2.74293609375,3.89720298828125,2.64544609375,4.02865298828125Q2.54795609375,4.16010298828125,2.45703609375,4.29617298828125Q2.36610609375,4.43225298828125,2.28197209375,4.57262298828125Q2.19783509375,4.71300298828125,2.12068809375,4.85733298828125Q2.04354009375,5.00166298828125,1.9735670937499998,5.14961298828125Q1.90359509375,5.29755298828125,1.84096609375,5.44875298828125Q1.77833709375,5.59995298828125,1.7232020937499999,5.75404298828125Q1.66806809375,5.90814298828125,1.62056009375,6.06475298828125Q1.57305309375,6.22136298828125,1.53328809375,6.38011298828125Q1.49352209375,6.53886298828125,1.46159409375,6.69937298828125Q1.42966619375,6.85989298828125,1.40565269375,7.02177298828125Q1.38163919375,7.18366298828125,1.36559789375,7.34653298828125Q1.34955669375,7.50940298828125,1.34152638375,7.67286298828125Q1.33349609375,7.83632298828125,1.33349609375,7.99998298828125Q1.33349609375,8.16363298828125,1.34152638375,8.327092988281251Q1.34955669375,8.490562988281251,1.36559789375,8.65342298828125Q1.38163919375,8.816292988281251,1.40565269375,8.978182988281251Q1.42966619375,9.14007298828125,1.46159409375,9.30058298828125Q1.49352209375,9.46109298828125,1.53328809375,9.61984298828125Q1.57305309375,9.77860298828125,1.62056009375,9.93521298828125Q1.66806809375,10.09182298828125,1.7232020937499999,10.24591298828125Q1.77833709375,10.40000298828125,1.84096609375,10.55120298828125Q1.90359509375,10.70240298828125,1.9735670937499998,10.85034298828125Q2.04354009375,10.99829298828125,2.12068809375,11.14262298828125Q2.19783509375,11.28695298828125,2.28197209375,11.42731298828125Q2.36610609375,11.56771298828125,2.45703609375,11.70381298828125Q2.54795609375,11.83981298828125,2.64544609375,11.97131298828125Q2.74293609375,12.10271298828125,2.84675609375,12.22931298828125Q2.95058609375,12.35581298828125,3.06048609375,12.47701298828125Q3.17039609375,12.59831298828125,3.28611609375,12.71401298828125Q3.40183609375,12.82971298828125,3.52310609375,12.93961298828125Q3.64436609375,13.04951298828125,3.77087609375,13.15341298828125Q3.89738609375,13.25721298828125,4.02883609375,13.35471298828125Q4.16028609375,13.45221298828125,4.29635609375,13.54311298828125Q4.43243609375,13.63401298828125,4.57280609375,13.71821298828125Q4.71318609375,13.80231298828125,4.85751609375,13.87941298828125Q5.00184609375,13.95661298828125,5.14979609375,14.02661298828125Q5.29773609375,14.09651298828125,5.44893609375,14.15921298828125Q5.60013609375,14.22181298828125,5.75422609375,14.27691298828125Q5.90832609375,14.33211298828125,6.06493609375,14.37961298828125Q6.22154609375,14.42711298828125,6.38029609375,14.46681298828125Q6.53904609375,14.50661298828125,6.69955609375,14.53851298828125Q6.86007609375,14.57051298828125,7.02195609375,14.59451298828125Q7.18384609375,14.61851298828125,7.34671609375,14.63451298828125Q7.50958609375,14.65061298828125,7.67304609375,14.65861298828125Q7.83650609375,14.66661298828125,8.00016609375,14.66661298828125ZM7.72866609375,10.39974298828125L11.44239609375,6.38934298828125C11.54649609375,6.27816298828125,11.60449609375,6.13150298828125,11.60449609375,5.97918298828125L11.60399609375,5.95953298828125C11.59879609375,5.80049298828125,11.53069609375,5.65003298828125,11.41459609375,5.54126298828125C11.30336609375,5.43714298828125,11.15671609375,5.37921298828125,11.00439609375,5.37921298828125L11.00292609375,5.37921298828125L10.98486609375,5.37951298828125C10.82581609375,5.38473298828125,10.67517609375,5.45294298828125,10.56640609375,5.56909298828125L7.29077609375,9.11175298828125L5.43206609375,7.12624298828125C5.31861609375,7.00506298828125,5.16003609375,6.93629298828125,4.994046093750001,6.93629298828125L4.98276609375,6.93640298828125C4.83439609375,6.93919298828125,4.69232609375,6.99686298828125,4.583996093750001,7.09827298828125C4.46782609375,7.20702298828125,4.39961609375,7.35747298828125,4.3943660937499995,7.51651298828125L4.39404609375,7.53629298828125L4.39411609375,7.54534298828125C4.39636609375,7.69449298828125,4.45408609375,7.83745298828125,4.55602609375,7.94634298828125L6.85268609375,10.39967298828125C6.86168609375,10.40928298828125,6.87098609375,10.41859298828125,6.88059609375,10.42758298828125C7.12247609375,10.65408298828125,7.50216609375,10.64162298828125,7.72866609375,10.39974298828125Z" fill-rule="evenodd" fill="#08C479" fill-opacity="1"/></g></g></svg>