<svg xmlns="http://www.w3.org/2000/svg" xmlns:xlink="http://www.w3.org/1999/xlink" fill="none" version="1.1" width="12.36328125" height="14.423828125" viewBox="0 0 12.36328125 14.423828125"><g><path d="M0,1.84744L0,12.5764C0,13.5967,0.769582,14.4238,1.71891,14.4238L10.6444,14.4238C11.5937,14.4238,12.3633,13.5967,12.3633,12.5764L12.3633,1.84744C12.3633,0.827125,11.5937,0,10.6444,0L1.71891,0C0.769582,0,0,0.827125,0,1.84744ZM6.18144,7.90174L4.55646,4.43736C4.47199,4.25728,4.31944,4.11812,4.13237,4.05051C3.9453,3.9829,3.73903,3.99237,3.55895,4.07685C3.37886,4.16132,3.23971,4.31386,3.1721,4.50093C3.10449,4.688,3.11396,4.89427,3.19843,5.07436L5.50243,9.98635C5.67833,10.3614,6.12493,10.5228,6.49994,10.3469C6.65852,10.2725,6.78607,10.1449,6.86046,9.98635L9.16446,5.07436C9.34036,4.69935,9.17895,4.25275,8.80394,4.07685C8.62385,3.99237,8.41759,3.9829,8.23052,4.05051C8.04345,4.11812,7.8909,4.25728,7.80643,4.43736L6.18144,7.90174Z" fill-rule="evenodd" fill="#666666" fill-opacity="1"/></g></svg>
