<svg xmlns="http://www.w3.org/2000/svg" xmlns:xlink="http://www.w3.org/1999/xlink" fill="none" version="1.1" width="16" height="16" viewBox="0 0 16 16"><defs><clipPath id="master_svg0_1726_03565"><rect x="0" y="0" width="16" height="16" rx="0"/></clipPath></defs><g clip-path="url(#master_svg0_1726_03565)"><g><path d="M2.5318615375,13.93235625Q3.1896994375,14.59015625,4.1200234375,14.59015625L11.8880234375,14.59015625Q12.8183234375,14.59015625,13.4762234375,13.93235625Q14.1340234375,13.27445625,14.1340234375,12.34415625L14.1340234375,3.65615625Q14.1340234375,2.72583225,13.4762234375,2.06799425Q12.8183234375,1.41015625,11.8880234375,1.41015625L4.1200234375,1.41015625Q3.1896994375,1.41015625,2.5318616375,2.06799445Q1.8740234375,2.72583325,1.8740234375,3.65615625L1.8740234375,12.34415625Q1.8740234375,13.27445625,2.5318615375,13.93235625ZM11.8880234375,13.09015625L4.1200234375,13.09015625Q3.8110234375000003,13.09015625,3.5925214375,12.87165625Q3.3740234375,12.65315625,3.3740234375,12.34415625L3.3740234375,3.65615625Q3.3740234375,3.3471562500000003,3.5925214375,3.12865425Q3.8110234375000003,2.91015625,4.1200234375,2.91015625L11.8880234375,2.91015625Q12.1970234375,2.91015625,12.4155234375,3.12865425Q12.6340234375,3.3471562500000003,12.6340234375,3.65615625L12.6340234375,12.34415625Q12.6340234375,12.65315625,12.4155234375,12.87165625Q12.1970234375,13.09015625,11.8880234375,13.09015625ZM8.0002934375,8.69001625L6.3753034374999995,5.22563625Q6.3439334375000005,5.15875625,6.3001234375,5.0992862500000005Q6.2563034375,5.03980625,6.2017334375,4.99002625Q6.1471634375,4.9402462499999995,6.0839234375,4.90206625Q6.0206834375,4.86388625,5.9512134375,4.83878625Q5.8817434375,4.81367625,5.8087134375,4.80260625Q5.7356734375,4.79152625,5.6618834375,4.79491625Q5.5880934374999995,4.7983062499999996,5.5163834375,4.81602625Q5.4446734375000005,4.83374625,5.377793437499999,4.86511625Q5.3109134375,4.896486250000001,5.2514434375,4.940296249999999Q5.1919734375,4.98410625,5.1421934375,5.03868625Q5.0924034375,5.09325625,5.054233437500001,5.15649625Q5.0160534375,5.21973625,4.9909434375,5.289206249999999Q4.965833437500001,5.35867625,4.9547634375000005,5.4317062499999995Q4.9436934375,5.5047362500000006,4.9470734375,5.57853625Q4.9504634375,5.65232625,4.9681834375000005,5.72403625Q4.9859034375,5.7957462500000005,5.0172734375,5.86262625L7.3212734375,10.77462625Q7.3526434375,10.84149625,7.3964534375,10.90097625Q7.4402734375,10.96044625,7.4948434375,11.01022625Q7.5494134375,11.06000625,7.6126534375,11.09818625Q7.6758934375,11.13636625,7.7453634375,11.16147625Q7.8148334375,11.18657625,7.8878634375,11.19765625Q7.9609034375,11.20872625,8.0346934375,11.20533625Q8.1084834375,11.20194625,8.1801934375,11.18422625Q8.251903437500001,11.16651625,8.318783437499999,11.13514625Q8.4377234375,11.07935625,8.530623437500001,10.98645625Q8.6235134375,10.89356625,8.6793034375,10.77462625L10.9833034375,5.86262625Q11.0146734375,5.7957462500000005,11.0323934375,5.72403625Q11.0501134375,5.65232625,11.0535034375,5.57853625Q11.0568834375,5.5047362500000006,11.0458134375,5.4317062499999995Q11.0347434375,5.35867625,11.0096334375,5.289206249999999Q10.9845234375,5.21973625,10.9463434375,5.15649625Q10.9081734375,5.09325625,10.8583834375,5.03868625Q10.8086034375,4.98410625,10.7491334375,4.940296249999999Q10.6896634375,4.896486250000001,10.6227834375,4.86511625Q10.5559034375,4.83374625,10.4841934375,4.81602625Q10.4124834375,4.7983062499999996,10.3386934375,4.79491625Q10.2649034375,4.79152625,10.1918634375,4.80260625Q10.118833437500001,4.81367625,10.0493634375,4.83878625Q9.9798934375,4.86388625,9.916653437499999,4.90206625Q9.8534134375,4.9402462499999995,9.7988434375,4.99002625Q9.7442734375,5.03980625,9.7004534375,5.0992862500000005Q9.6566434375,5.15875625,9.625273437499999,5.22563625L8.0002934375,8.69001625Z" fill-rule="evenodd" fill="#333333" fill-opacity="1"/></g></g></svg>