<svg xmlns="http://www.w3.org/2000/svg" xmlns:xlink="http://www.w3.org/1999/xlink" fill="none" version="1.1" width="35" height="40" viewBox="0 0 35 40"><defs><clipPath id="master_svg0_109_4628"><rect x="7" y="14" width="21" height="21" rx="0"/></clipPath></defs><g><g><path d="M0,2.5L0,37.5C0,38.8807,1.11929,40,2.5,40L32.5,40C33.8807,40,35,38.8807,35,37.5L35,12L29,6L23,0L2.5,0C1.11929,0,0,1.11929,0,2.5Z" fill="#B3B4B4" fill-opacity="1"/></g><g><path d="M23,9.5C23,10.8807,24.11929,12,25.5,12L35,12L23,0L23,9.5Z" fill="#FFFFFF" fill-opacity="0.25"/></g><g clip-path="url(#master_svg0_109_4628)"><g><path d="M8.824706792856995,21.850820299835206L8.824706792856995,27.148740299835204Q8.824706792856995,28.584650299835204,9.840072176856994,29.600050299835203Q10.855432176856995,30.615450299835203,12.291372176856996,30.615450299835203L19.361202176856995,30.615450299835203Q20.797102176856995,30.615450299835203,21.812502176856995,29.600050299835203Q22.514002176856994,28.898550299835208,22.730802176856997,27.996250299835204L24.055602176856993,28.762450299835205Q24.773102176856995,29.165150299835204,25.474102176856995,28.754650299835205Q26.175102176856996,28.344030299835204,26.174902176856996,27.531640299835203L26.174902176856996,21.468100299835207Q26.175002176856996,20.655870299835204,25.474102176856995,20.245340299835206Q24.773102176856995,19.834760299835207,24.064702176856997,20.232310299835206L22.730902176856993,21.003680299835207Q22.514102176856994,20.101180299835207,21.812502176856995,19.399520299835206Q20.797102176856995,18.384154975835205,19.361202176856995,18.384154915835204L12.291372176856996,18.384154915835204Q10.855432176856995,18.384154915835204,9.840072176856994,19.399520299835206Q8.824706852856995,20.414880299835204,8.824706792856995,21.850820299835206ZM10.971442176856995,28.468650299835204Q10.424702176856995,27.921940299835207,10.424702176856995,27.148740299835204L10.424702176856995,21.850820299835206Q10.424702176856995,21.077620299835203,10.971442176856995,20.530890299835207Q11.518172176856995,19.984150299835207,12.291372176856996,19.984150299835207L19.361202176856995,19.984150299835207Q20.134402176856995,19.984150299835207,20.681102176856996,20.530890299835207Q21.227802176856997,21.077620299835203,21.227802176856997,21.850820299835206L21.227802176856997,27.148740299835204Q21.227802176856997,27.921940299835207,20.681102176856996,28.468650299835204Q20.134402176856995,29.015450299835205,19.361202176856995,29.015450299835205L12.291372176856996,29.015450299835205Q11.518172176856995,29.015450299835205,10.971442176856995,28.468650299835204ZM22.828002176856995,22.795810299835203L24.574902176856995,21.785400299835207L24.574902176856995,27.214490299835205L22.828002176856995,26.204130299835207L22.828002176856995,22.795810299835203Z" fill-rule="evenodd" fill="#FFFFFF" fill-opacity="0.6499999761581421"/></g></g></g></svg>