<svg xmlns="http://www.w3.org/2000/svg" xmlns:xlink="http://www.w3.org/1999/xlink" fill="none" version="1.1" width="19.799999237060547" height="19.799999237060547" viewBox="0 0 19.799999237060547 19.799999237060547"><defs><clipPath id="master_svg0_1504_9739"><rect x="0" y="0" width="19.799999237060547" height="19.799999237060547" rx="0"/></clipPath></defs><g clip-path="url(#master_svg0_1504_9739)"><g><ellipse cx="9.899999976158142" cy="9.899999976158142" rx="9" ry="9" fill="#1D74F5" fill-opacity="1"/></g><g><path d="M11.000000190734863,14.299999809265136C11.000000190734863,14.907499809265136,10.507510190734862,15.399999809265136,9.900000190734863,15.399999809265136C9.292487190734864,15.399999809265136,8.800000190734863,14.907499809265136,8.800000190734863,14.299999809265136C8.800000190734863,13.692489809265137,9.292487190734864,13.199999809265137,9.900000190734863,13.199999809265137C10.507510190734862,13.199999809265137,11.000000190734863,13.692489809265137,11.000000190734863,14.299999809265136ZM11.000000190734863,5.299999809265136L10.800000190734863,11.299999809265136C10.800000190734863,11.797059809265136,10.397060190734862,12.199999809265137,9.900000190734863,12.199999809265137C9.402943190734863,12.199999809265137,9.000000190734863,11.797059809265136,9.000000190734863,11.299999809265136L8.800000190734863,5.299999809265136C8.800000190734863,4.692486809265136,9.292487190734864,4.199999809265137,9.900000190734863,4.199999809265137C10.507510190734862,4.199999809265137,11.000000190734863,4.692486809265136,11.000000190734863,5.299999809265136Z" fill="#FFFFFF" fill-opacity="1"/></g></g></svg>