<svg xmlns="http://www.w3.org/2000/svg" xmlns:xlink="http://www.w3.org/1999/xlink" fill="none" version="1.1" width="35" height="40" viewBox="0 0 35 40"><g><g><path d="M0,2.5L0,37.5C0,38.8807,1.11929,40,2.5,40L32.5,40C33.8807,40,35,38.8807,35,37.5L35,12L29,6L23,0L2.5,0C1.11929,0,0,1.11929,0,2.5Z" fill="#385CA7" fill-opacity="1"/></g><g><path d="M23,9.5C23,10.8807,24.11929,12,25.5,12L35,12L23,0L23,9.5Z" fill="#FFFFFF" fill-opacity="0.25"/></g><g><path d="M8.744140625,21.33721923828125L12.572260625,34.66271923828125L14.753690625,34.66271923828125L17.463760625,24.38148923828125L17.536670625,24.38148923828125L20.240640624999997,34.66271923828125L22.409940625,34.66271923828125L26.256340625,21.33721923828125L23.959440625,21.33721923828125L21.364840625,31.715719238281253L21.285840625,31.715719238281253L18.563580625,21.33721923828125L16.436850624999998,21.33721923828125L13.708550625,31.715719238281253L13.635630625000001,31.715719238281253L11.041020625,21.33721923828125L8.744140625,21.33721923828125Z" fill="#FFFFFF" fill-opacity="1"/></g></g></svg>