<svg xmlns="http://www.w3.org/2000/svg" xmlns:xlink="http://www.w3.org/1999/xlink" fill="none" version="1.1" width="35" height="40" viewBox="0 0 35 40"><g><g><path d="M0,2.5L0,37.5C0,38.8807,1.11929,40,2.5,40L32.5,40C33.8807,40,35,38.8807,35,37.5L35,12L29,6L23,0L2.5,0C1.11929,0,0,1.11929,0,2.5Z" fill="#8A5F38" fill-opacity="1"/></g><g><path d="M23,9.5C23,10.8807,24.11929,12,25.5,12L35,12L23,0L23,9.5Z" fill="#FFFFFF" fill-opacity="0.25"/></g><g><path d="M12.5,32.6666L12.5,22C12.5,21.6318,12.798477,21.3333,13.166667,21.3333L19.83333,21.3333C20.201520000000002,21.3333,20.5,21.6318,20.5,22L20.5,32.6666C20.5,33.0348,20.201520000000002,33.3333,19.83333,33.3333L13.166667,33.3333C12.798477,33.3333,12.5,33.0348,12.5,32.6666ZM15.16699,16L17.16699,16C17.53518,16,17.833660000000002,16.2985,17.833660000000002,16.6667L17.833660000000002,20L15.16699,20L15.16699,16ZM12.5,12.6667C12.5,12.2985,12.798477,12,13.166667,12L15.16667,12L15.16699,16L12.5,16L12.5,12.6667ZM15.16699,8L17.16699,8C17.53518,8,17.833660000000002,8.29848,17.833660000000002,8.66667L17.833660000000002,12L15.16667,12L15.16699,8ZM12.5,4.66667C12.5,4.29848,12.798477,4,13.166667,4L15.16667,4L15.16699,8L12.5,8L12.5,4.66667ZM15.16699,0L17.16699,0C17.53518,0,17.833660000000002,0.298477,17.833660000000002,0.666666L17.833660000000002,4L15.16667,4L15.16699,0Z" fill="#FFFFFF" fill-opacity="1"/></g><g><rect x="13.33349609375" y="28" width="2.6666667461395264" height="2.6666667461395264" rx="0" fill="#8A5F38" fill-opacity="1"/></g></g></svg>