<svg xmlns="http://www.w3.org/2000/svg" xmlns:xlink="http://www.w3.org/1999/xlink" fill="none" version="1.1" width="16" height="16" viewBox="0 0 16 16"><g><g><path d="M14.34990234375,3.9999755859375L14.34990234375,14.3999755859375C14.34990234375,14.8141755859375,14.01410234375,15.1499755859375,13.59990234375,15.1499755859375L4.79990234375,15.1499755859375Q3.49513234375,15.1499755859375,2.5725163437500003,14.2273755859375Q1.64990234375,13.3047755859375,1.64990234375,11.9999755859375L1.64990234375,1.5999755859375C1.64990234375,1.1857615859375,1.98568834375,0.8499755859375,2.39990234375,0.8499755859375L11.19990234375,0.8499755859375Q12.50470234375,0.8499755859375,13.42730234375,1.7725895859375Q14.34990234375,2.6952055859375,14.34990234375,3.9999755859375Z" fill-rule="evenodd" fill="#666666" fill-opacity="1"/></g><g><path d="M6,7.149978160858154L10,7.149978160858154Q10.07387,7.149978160858154,10.14632,7.135567160858154Q10.21877,7.121156160858154,10.28701,7.092888160858155Q10.355260000000001,7.064619160858154,10.41668,7.023580160858154Q10.478100000000001,6.982541160858155,10.53033,6.9303081608581545Q10.58256,6.878075160858154,10.6236,6.816656160858154Q10.66464,6.755236160858154,10.692910000000001,6.686991160858154Q10.72118,6.618745160858154,10.73559,6.546296160858154Q10.75,6.473846660858154,10.75,6.399978160858154Q10.75,6.326109660858155,10.73559,6.253660160858154Q10.72118,6.181211160858155,10.692910000000001,6.112965160858154Q10.66464,6.044720160858154,10.6236,5.983300160858154Q10.58256,5.921881160858154,10.53033,5.869648160858154Q10.478100000000001,5.817415160858154,10.41668,5.776376160858154Q10.355260000000001,5.735337160858155,10.28701,5.707068160858154Q10.21877,5.678800160858154,10.14632,5.664389160858154Q10.07387,5.649978160858154,10,5.649978160858154L6,5.649978160858154Q5.9261315,5.649978160858154,5.853682,5.664389160858154Q5.781233,5.678800160858154,5.712987,5.707068160858154Q5.644742,5.735337160858155,5.583322,5.776376160858154Q5.521903,5.817415160858154,5.46967,5.869648160858154Q5.417437,5.921881160858154,5.376398,5.983300160858154Q5.335359,6.044720160858154,5.30709,6.112965160858154Q5.278822,6.181211160858155,5.264411,6.253660160858154Q5.25,6.326109660858155,5.25,6.399978160858154Q5.25,6.473846660858154,5.264411,6.546296160858154Q5.278822,6.618745160858154,5.30709,6.686991160858154Q5.335359,6.755236160858154,5.376398,6.816656160858154Q5.417437,6.878075160858154,5.46967,6.9303081608581545Q5.521903,6.982541160858155,5.583322,7.023580160858154Q5.644742,7.064619160858154,5.712987,7.092888160858155Q5.781233,7.121156160858154,5.853682,7.135567160858154Q5.9261315,7.149978160858154,6,7.149978160858154ZM6,10.349988160858153L10,10.349988160858153Q10.07387,10.349988160858153,10.14632,10.335578160858155Q10.21877,10.321168160858154,10.28701,10.292898160858154Q10.355260000000001,10.264628160858155,10.41668,10.223588160858155Q10.478100000000001,10.182548160858154,10.53033,10.130318160858154Q10.58256,10.078088160858155,10.6236,10.016668160858154Q10.66464,9.955248160858154,10.692910000000001,9.886998160858154Q10.72118,9.818758160858154,10.73559,9.746308160858154Q10.75,9.673858160858154,10.75,9.599988160858153Q10.75,9.526118160858154,10.73559,9.453668160858154Q10.72118,9.381218160858154,10.692910000000001,9.312978160858155Q10.66464,9.244728160858154,10.6236,9.183308160858154Q10.58256,9.121888160858154,10.53033,9.069658160858154Q10.478100000000001,9.017428160858154,10.41668,8.976388160858153Q10.355260000000001,8.935348160858155,10.28701,8.907078160858154Q10.21877,8.878808160858155,10.14632,8.864398160858155Q10.07387,8.849988160858153,10,8.849988160858153L6,8.849988160858153Q5.9261315,8.849988160858153,5.853682,8.864398160858155Q5.781233,8.878808160858155,5.712987,8.907078160858154Q5.644742,8.935348160858155,5.583322,8.976388160858153Q5.521903,9.017428160858154,5.46967,9.069658160858154Q5.417437,9.121888160858154,5.376398,9.183308160858154Q5.335359,9.244728160858154,5.30709,9.312978160858155Q5.278822,9.381218160858154,5.264411,9.453668160858154Q5.25,9.526118160858154,5.25,9.599988160858153Q5.25,9.673858160858154,5.264411,9.746308160858154Q5.278822,9.818758160858154,5.30709,9.886998160858154Q5.335359,9.955248160858154,5.376398,10.016668160858154Q5.417437,10.078088160858155,5.46967,10.130318160858154Q5.521903,10.182548160858154,5.583322,10.223588160858155Q5.644742,10.264628160858155,5.712987,10.292898160858154Q5.781233,10.321168160858154,5.853682,10.335578160858155Q5.9261315,10.349988160858153,6,10.349988160858153Z" fill-rule="evenodd" fill="#FFFFFF" fill-opacity="1"/></g></g></svg>